<?xml version="1.0" encoding="utf-8"?>
<!-- Generator: Adobe Illustrator 16.0.0, SVG Export Plug-In . SVG Version: 6.00 Build 0)  -->
<!DOCTYPE svg PUBLIC "-//W3C//DTD SVG 1.1//EN" "http://www.w3.org/Graphics/SVG/1.1/DTD/svg11.dtd">
<svg version="1.1" id="Layer_1" xmlns="http://www.w3.org/2000/svg" xmlns:xlink="http://www.w3.org/1999/xlink" x="0px" y="0px" width="664.467px" height="755.963px" viewBox="0 0 664.467 755.963" enable-background="new 0 0 664.467 755.963" xml:space="preserve">
<path fill="#e0825e" d="M253.974,270.923c5.273-1.057,10.548-2.112,15.821-3.171c0.487,2.26,0.732,4.604,1.498,6.765&#xD;&#xA;&#x9;c14.944,42.17,42.906,73.097,81.851,94.477c28.086,15.419,58.248,23.824,90.137,25.765c19.771,1.202,39.46-0.31,58.843-4.533&#xD;&#xA;&#x9;c9.866-2.151,19.601-4.907,29.395-7.391c-3.259,15.664-6.518,31.327-9.774,46.99c-1.055-1.159-2.313-2.19-3.135-3.497&#xD;&#xA;&#x9;c-10.829-17.229-26.876-25.896-46.66-24.006c-25.792,2.464-43.485,17.607-53.997,41.041c-5.055,11.271-5.468,23.485-6.199,35.581&#xD;&#xA;&#x9;c-12.164,1.021-24.432,1.415-36.444,3.367c-4.77,0.774-10.318,4.01-13.172,7.858c-6.869,9.267-0.308,20.615,12.423,21.572&#xD;&#xA;&#x9;c12.696,0.954,25.477,0.776,38.221,1.096c0.686,5.358,1.369,10.718,2.054,16.076c-5.954,0.342-11.944,0.378-17.852,1.105&#xD;&#xA;&#x9;c-6.375,0.784-12.84,1.658-18.957,3.511c-6.628,2.009-11.199,8.57-11.097,13.994c0.115,6.102,4.605,11.387,12.158,13.465&#xD;&#xA;&#x9;c3.949,1.088,8.145,1.813,12.224,1.796c10.283-0.041,20.563-0.596,30.845-0.943c0.271-0.023,0.528,0.019,0.777,0.126&#xD;&#xA;&#x9;c0.399,1.768,0.714,3.562,1.217,5.3c1.888,6.519,3.837,13.02,5.763,19.526c-9.383-0.658-18.9-2.65-28.12-1.71&#xD;&#xA;&#x9;c-21.271,2.174-38.689,10.873-45.942,33.076c-3-4.523-5.999-9.049-8.999-13.572c-0.329-1.266-0.502-2.599-1.013-3.785&#xD;&#xA;&#x9;c-2.945-6.859-6.22-13.589-8.925-20.538c-8.986-23.094-15.437-46.85-18.102-71.558c-0.496-4.594-1.251-9.159-1.887-13.738&#xD;&#xA;&#x9;c-1.795,10.65-2.78,21.204-2.883,31.769c-0.063,6.735,0.593,13.606,1.962,20.201c3.02,14.541,6.536,28.984,10.186,43.385&#xD;&#xA;&#x9;c1.365,5.391,3.657,10.547,5.527,15.81c-6.014-8.056-13.873-13.608-23.213-17.171c-11.184-4.265-22.689-5.819-34.585-4.178&#xD;&#xA;&#x9;c1.085-1.128,2.652-2.065,3.186-3.414c9.601-24.314,11.832-49.372,5.047-74.599c-6.668-24.786-20.438-45.143-43.204-57.96&#xD;&#xA;&#x9;c-9.445-5.318-19.934-8.902-30.184-12.623c-4.971-1.804-8.636,0.473-9.608,4.368c-0.812,3.24,1.775,5.897,6.642,7.168&#xD;&#xA;&#x9;c4.97,1.297,10.155,2.217,14.759,4.354c7.416,3.444,14.432,7.751,22.75,12.315c-3.479,2.737-5.813,4.255-7.756,6.167&#xD;&#xA;&#x9;c-5.507,5.417-11.898,10.319-16.014,16.675c-5.852,9.041-0.885,19.481,9.409,22.833c6.209,2.021,11.889,0.097,17.309-2.445&#xD;&#xA;&#x9;c6.731-3.156,13.212-6.849,20.979-10.928c2.044,8.111,4.029,15.881,5.954,23.667c1.324,5.364,0.753,5.463-4.576,5.049&#xD;&#xA;&#x9;c-9.054-0.702-18.26-2.014-27.11,1.464c-11.381,4.473-14.55,18.063-5.632,26.21c3.763,3.438,8.817,5.849,13.692,7.577&#xD;&#xA;&#x9;c5.087,1.805,10.646,2.343,16.032,3.21c3.579,0.575,5.146,1.961,3.549,5.695c-2.48,5.797-4.825,11.652-7.229,17.483&#xD;&#xA;&#x9;c-9.358,3.92-18.349,8.328-25.08,16.363c-10.001,11.939-10.761,30.505,6.055,36.669c0.362,0.134,0.438,1.058,0.646,1.611&#xD;&#xA;&#x9;c-22.362,0.822-44.588,0.21-66.468-5.298c-33.842-8.52-61.763-25.926-82.516-54.289c-0.778-1.065-1.705-2.022-2.563-3.03&#xD;&#xA;&#x9;c-0.479-1.039-0.853-2.144-1.453-3.104c-6.539-10.46-12.155-21.314-15.344-33.343c-0.891-3.354-2.671-6.473-4.043-9.699&#xD;&#xA;&#x9;c-0.804-8.023-1.604-16.046-2.405-24.069c0.005-6.318,0.01-12.637,0.015-18.955c0.039-3.718-0.032-7.442,0.17-11.151&#xD;&#xA;&#x9;c0.091-1.634,0.743-3.235,1.141-4.852c2.363-4.797,6.014-3.224,10.035-2.582c11.552,1.844,23.164,3.592,34.819,4.401&#xD;&#xA;&#x9;c8.847,0.612,14.587-6.076,15.048-15.001c0.425-8.209-4.317-13.474-10.45-16.781c-10.165-5.484-20.957-9.826-31.569-14.454&#xD;&#xA;&#x9;c-2.829-1.233-5.968-1.758-8.964-2.608c3.011-7.992,6.021-15.982,9.033-23.976c6.017,2.688,11.992,5.471,18.06,8.043&#xD;&#xA;&#x9;c15.714,6.664,31.249,13.91,48.321,16.571c7.486,1.167,13.916-1.285,18.493-7.297c4.325-5.681,5.823-12.247,1.727-18.592&#xD;&#xA;&#x9;c-2.822-4.368-6.119-8.949-10.311-11.816c-13.274-9.084-27.037-17.46-40.688-25.987c-3.035-1.896-6.382-3.29-9.585-4.915&#xD;&#xA;&#x9;c6.759-7.895,13.497-15.807,20.312-23.654c0.591-0.681,1.669-0.938,2.521-1.393c0.399,0.891,0.592,1.979,1.228,2.642&#xD;&#xA;&#x9;c14.986,15.606,30.844,30.267,49.193,41.843c6.629,4.184,14.304,5.412,21.899,1.667c10.923-5.387,11.271-19.758,5.189-28.723&#xD;&#xA;&#x9;c-8.082-11.919-16.998-23.271-25.476-34.926c-3.445-4.736-6.682-9.624-10.012-14.443c8.308-4.378,16.614-8.755,24.923-13.133&#xD;&#xA;&#x9;c4.933,8.835,9.321,18.033,14.926,26.42c8.257,12.357,16.871,24.556,26.306,36.021c6.577,7.99,15.852,8.698,24.352,3.894&#xD;&#xA;&#x9;c6.803-3.847,10.078-12.517,7.479-21.8c-2.721-9.721-5.758-19.383-9.271-28.843C263.402,293.167,258.546,282.098,253.974,270.923z&#xD;&#xA;&#x9; M259.559,412.902c7.475,0.053,10.872-2.329,12.456-8.732c2.535-10.25-6.119-22.774-18.298-26.479&#xD;&#xA;&#x9;c-8.615-2.621-16.308,2.195-16.479,11.094C237.003,400.796,249.921,413.497,259.559,412.902z M162.867,469.775&#xD;&#xA;&#x9;c0.098-0.304,0.196-0.606,0.294-0.911c1.497,0,3.009,0.133,4.489-0.023c5.733-0.608,10.396-4.542,11.727-9.948&#xD;&#xA;&#x9;c1.232-5.003-1.722-8.37-5.172-11.004c-6.768-5.168-19.35-3.734-25.327,2.518c-4.579,4.787-3.881,12.173,1.976,15.296&#xD;&#xA;&#x9;C154.534,467.665,158.84,468.458,162.867,469.775z M345.677,537.126c1.841-0.926,5.894-2.162,8.911-4.653&#xD;&#xA;&#x9;c5.553-4.583,4.316-11.155-2.166-14.337c-6.282-3.084-13.67-2.255-18.13,1.794c-3.534,3.208-4.644,7.372-2.863,11.314&#xD;&#xA;&#x9;C333.571,535.992,338.586,536.675,345.677,537.126z"/>
<path fill="#e0825e" d="M289.939,264.012c-0.96-3.713-1.92-7.426-2.88-11.139c9.013,0.817,17.95,0.063,25.706-4.717&#xD;&#xA;&#x9;c7.883-4.855,6.712-16.448-1.798-20.124c-3.734-1.613-7.904-2.649-11.954-2.976c-3.882-0.313-8.142-0.06-11.668,1.355&#xD;&#xA;&#x9;c-1.494,0.601-1.542,4.804-2.248,7.369c-0.396-1.32-1.186-2.657-1.131-3.959c0.849-20.489,3.838-40.507,13.716-58.891&#xD;&#xA;&#x9;c2.891-5.381,6.13-10.582,8.847-16.045c0.806-1.618,1.102-4.185,0.39-5.75c-4.603-10.12-6.745-20.639-8.093-31.71&#xD;&#xA;&#x9;c-2.389-19.629,1.011-38.326,6.483-56.828c4.37-14.771,15.428-21.213,30.558-18.411c8.941,1.655,16.64,6.48,24.296,10.98&#xD;&#xA;&#x9;c15.447,9.08,29.309,20.063,38.706,35.773c-4.745,1.92-4.732,5.714-3.943,9.869c0.738,3.895,0.798,8.042,2.238,11.645&#xD;&#xA;&#x9;c1.483,3.705,3.555,7.891,6.633,10.108c8.975,6.466,20.727,0.108,21.043-11.061c0.239-8.469,0.036-16.949,0.03-25.427&#xD;&#xA;&#x9;c5.017-0.661,10.031-1.322,15.047-1.982c1.006,18.544,1.685,37.112,3.125,55.624c1.013,12.994,12.048,19.765,22.377,14.339&#xD;&#xA;&#x9;c7.065-3.713,8.866-10.787,9.31-17.724c1.109-17.39,1.477-34.827,2.142-52.246c5.018,0.673,10.032,1.346,15.049,2.018&#xD;&#xA;&#x9;c-0.009,7.97-0.099,15.939-0.002,23.909c0.086,7.184,5.246,14.026,10.962,14.831c7.851,1.104,14.27-3.069,16.479-11.043&#xD;&#xA;&#x9;c1.099-3.965,1.921-8.041,2.446-12.122c1.057-8.198,0.937-8.215-6.848-10.573c1.584-1.161,3.614-2.008,4.685-3.53&#xD;&#xA;&#x9;c13.884-19.766,33.108-32.456,54.996-41.521c17.049-7.062,32.542,0.891,37.173,18.471c4.42,16.78,7.021,33.73,6.053,51.129&#xD;&#xA;&#x9;c-0.658,11.833-2.521,23.379-7.943,34.102c-1.743,3.448-0.483,5.821,1.448,9.238c7.066,12.5,13.854,25.306,16.519,39.673&#xD;&#xA;&#x9;c1.799,9.709,3.195,19.492,4.772,29.242c-7.23,0.044-14.521-0.46-21.68,0.284c-7.322,0.76-11.528,5.547-12.052,11.856&#xD;&#xA;&#x9;c-0.423,5.105,3.723,10.575,10.298,12.359c6.2,1.684,12.617,2.563,18.938,3.798c-1.522,5.237-3.047,10.476-4.569,15.712&#xD;&#xA;&#x9;c-2.574-0.515-5.149-1.025-7.724-1.546c-7.416-1.498-14.781-3.345-22.262-4.383c-5.488-0.762-8.877,3.132-11.271,7.464&#xD;&#xA;&#x9;c-1.914,3.463-0.355,10.268,2.959,13.261c7.231,6.529,16.256,9.172,25.521,11.168c-7.175,8.692-14.363,17.376-21.521,26.084&#xD;&#xA;&#x9;c-4.653,5.662-10.593,9.798-16.484,13.991c0.012-7.075,1.054-14.333-0.149-21.194c-4.593-26.202-28.084-46.936-55.866-43.735&#xD;&#xA;&#x9;c-0.765-0.587-1.657-1.063-2.273-1.778c-7.561-8.769-17.029-12.593-28.564-11.157c-3.84-1.751-7.568-4.646-11.541-5.027&#xD;&#xA;&#x9;c-9.876-0.951-19.881-1.22-29.797-0.827c-4.896,0.194-10.427,0.797-13.729,5.716c-12.454-1.372-22.302,3.301-30.004,12.943&#xD;&#xA;&#x9;c-20.951-1.673-37.257,6.647-48.987,23.676c-8.143,11.817-10.568,25.2-8.248,39.396c-1.072-0.369-2.428-0.441-3.174-1.152&#xD;&#xA;&#x9;c-8.484-8.094-17.042-16.125-25.213-24.529c-3.255-3.348-5.603-7.578-8.167-11.136c7.9-3.554,15.47-6.499,22.578-10.305&#xD;&#xA;&#x9;c5.292-2.833,7.049-8.442,5.479-13.567c-1.888-6.162-6.094-9.883-12.423-9.247c-7.359,0.739-14.934,1.751-21.795,4.309&#xD;&#xA;&#x9;C295.006,270.552,291.991,269.605,289.939,264.012z M592.719,133.87c1.042-2.269,1.963-3.644,2.313-5.15&#xD;&#xA;&#x9;c1.16-4.989,2.356-9.991,3.104-15.054c2.032-13.768-0.174-27.151-4.602-40.162c-2.051-6.028-9.311-9.658-15.422-7.778&#xD;&#xA;&#x9;c-13.828,4.253-25.265,12.387-35.022,22.922c-2.06,2.223-3.65,4.878-5.808,7.808C558.35,105.622,576.316,117.92,592.719,133.87z&#xD;&#xA;&#x9; M323.358,133.032c0.59,0.045,1.18,0.09,1.771,0.135c15.844-15.412,33.945-27.517,53.833-36.659&#xD;&#xA;&#x9;c-0.265-1.197-0.231-1.769-0.491-2.128c-9.191-12.768-21.348-21.877-35.836-27.594c-10.043-3.963-17.778,0.823-20.848,11.271&#xD;&#xA;&#x9;c-3.637,12.377-3.472,25.017-2.667,37.599C319.494,121.512,321.883,127.243,323.358,133.032z M537.005,171.068&#xD;&#xA;&#x9;c-21.803-0.076-39.596,17.682-39.763,39.685c-0.164,21.532,18.14,39.919,39.688,39.867c21.706-0.051,39.746-18.079,39.791-39.764&#xD;&#xA;&#x9;C576.766,189.183,558.759,171.143,537.005,171.068z M379.962,171.089c-21.521-0.075-39.848,18.251-39.801,39.806&#xD;&#xA;&#x9;c0.047,21.629,17.908,39.277,40.06,39.584c20.938,0.289,39.563-18.384,39.472-39.575&#xD;&#xA;&#x9;C419.598,188.943,401.859,171.167,379.962,171.089z"/>
<path fill="#e0825e" d="M622.256,602.848c0.313,12.393-2.183,24.318-6.598,35.789c-9.542,24.795-26.275,44.024-48.028,58.662&#xD;&#xA;&#x9;c-26.075,17.544-55.241,24.48-86.563,22.497c-3.359-14.859-13.979-23.415-28.334-22.826c-11.813,0.484-22.413,10.466-24.16,22.751&#xD;&#xA;&#x9;c-36.485,0.018-72.973,0.035-109.46,0.053c2.963-20.961-13.943-37.132-33.338-31.885c-13.204,3.572-20.505,15.81-19.041,31.915&#xD;&#xA;&#x9;c-25.271,0.021-50.544,0.046-75.816,0.067c-0.009-2.155-0.013-4.313-0.028-6.469c-0.084-11.09-8.079-21.683-18.795-24.904&#xD;&#xA;&#x9;c-11.222-3.373-22.714,0.721-29.43,10.026c-4.717,6.535-5.109,13.813-4.765,21.363c-16.278,0.362-32.421-0.655-47.597-7.13&#xD;&#xA;&#x9;c-18.952-8.085-34.28-20.762-45.714-37.987c-0.498-0.751-0.416-1.886-0.604-2.842c14.672-0.778,26.251-13.165,25.757-27.556&#xD;&#xA;&#x9;c-0.513-14.944-12.634-26.906-27.343-26.377c-4.847,0.176-9.642,1.826-14.459,2.804c0.361-7.137,0.002-14.396,1.223-21.383&#xD;&#xA;&#x9;c3.21-18.372,11.586-34.435,23.643-48.607c0.05,0.824-0.138,1.76,0.186,2.459c4.966,10.749,9.522,21.729,15.228,32.078&#xD;&#xA;&#x9;c2.65,4.81,7.562,8.375,11.446,12.504c-5.102,14.36-5.731,28.865,0.634,42.837c9.751,21.396,26.955,31.839,50.396,31.855&#xD;&#xA;&#x9;c72.457,0.057,144.914,0.039,217.371,0.039c0.66,0,1.32-0.153,1.979-0.233c0.896,1.634,2.208,3.165,2.63,4.912&#xD;&#xA;&#x9;c3.396,14.054,13.604,21.979,28.075,21.59c12.469-0.336,22.74-9.752,25.097-22.853c0.234-1.302,1.229-2.467,1.87-3.694&#xD;&#xA;&#x9;c12.948,0.102,25.896,0.334,38.845,0.271c18.592-0.088,37.182-0.356,55.771-0.638c2.451-0.037,4.896-0.591,7.347-0.906&#xD;&#xA;&#x9;c0.353,0.935,0.7,1.868,1.057,2.8c4.182,10.944,12.427,16.915,23.802,17.654c10.882,0.706,19.38-4.452,24.755-13.885&#xD;&#xA;&#x9;c6.333-11.111,4.26-21.759-2.917-31.788c4.505-7.203,9.855-14.032,13.248-21.728c2.731-6.198,3.096-13.441,4.511-20.223&#xD;&#xA;&#x9;C590.4,614.172,606.429,613.298,622.256,602.848z"/>
<path fill="#f7c293" d="M343.649,333.971c-2.32-14.194,0.105-27.577,8.248-39.396c11.73-17.027,28.036-25.349,48.987-23.676&#xD;&#xA;&#x9;c-0.19,0.629-0.254,1.336-0.591,1.874c-11.732,18.776,0.021,44.173,23.796,46.823c4.907,0.547,8.306,1.931,11.51,5.436&#xD;&#xA;&#x9;c12.665,13.853,37.07,12.523,48.733-2.695c0.956-1.249,2.903-2.024,4.534-2.405c2.725-0.637,5.612-0.556,8.347-1.161&#xD;&#xA;&#x9;c11.635-2.58,24.625-14.354,23.557-28.935c-0.464-6.332-2.599-12.541-3.975-18.805c27.781-3.199,51.272,17.533,55.865,43.735&#xD;&#xA;&#x9;c1.203,6.861,0.161,14.119,0.149,21.194c-10.65,6.457-21.263,12.977-31.976,19.323c-2.528,1.497-5.397,2.419-8.109,3.605&#xD;&#xA;&#x9;c-32.18,11.955-65.292,16.175-99.424,12.047c-30.068-3.637-57.847-13.538-82.994-30.499&#xD;&#xA;&#x9;C347.783,338.737,345.855,336.149,343.649,333.971z"/>
<path fill="#f7c293" d="M422.93,561.967c-0.249-0.107-0.508-0.149-0.779-0.126c-2.439-10.977-4.88-21.951-7.318-32.928&#xD;&#xA;&#x9;c-0.686-5.358-1.369-10.718-2.054-16.075c-0.342-11.298-0.685-22.598-1.026-33.896c0.73-12.096,1.145-24.311,6.198-35.581&#xD;&#xA;&#x9;c10.512-23.434,28.205-38.577,53.997-41.041c19.784-1.891,35.831,6.777,46.66,24.006c0.821,1.307,2.08,2.339,3.135,3.497&#xD;&#xA;&#x9;c-5.918,14.354-11.835,28.705-17.752,43.059c-1.004,1.27-2.172,2.442-2.984,3.825C481.005,510.648,454.771,538.873,422.93,561.967z"/>
<path fill="#d46c45" d="M422.93,561.967c31.841-23.095,58.074-51.318,78.075-85.261c0.813-1.382,1.98-2.556,2.984-3.824&#xD;&#xA;&#x9;c-0.744,15.568-1.919,31.134-2.133,46.711c-0.315,23.105,3.908,45.719,8.773,68.207c-3.691-0.87-7.341-2.125-11.083-2.549&#xD;&#xA;&#x9;c-17.806-2.011-34.827-0.211-49.668,11.14c-0.257,0.075-0.514,0.146-0.771,0.216c-0.396-0.213-0.793-0.427-1.188-0.641&#xD;&#xA;&#x9;c-6.005-3.059-12.009-6.114-18.012-9.172c-1.926-6.509-3.875-13.01-5.763-19.527C423.644,565.528,423.331,563.734,422.93,561.967z"/>
<path fill="#f2e5ca" d="M273.917,584.783c11.896-1.643,23.401-0.087,34.584,4.179c9.341,3.562,17.2,9.114,23.215,17.17&#xD;&#xA;&#x9;c1.069,0.988,2.141,1.979,3.211,2.969c-0.024,1.227-0.386,2.563-0.023,3.663c5.443,16.559-3.407,28.344-20.203,28.894&#xD;&#xA;&#x9;c-21.729,0.71-43.511-0.194-65.271-0.365c-1.964-0.016-3.929,0.264-5.896,0.404c-0.211-0.556-0.285-1.479-0.648-1.611&#xD;&#xA;&#x9;c-16.813-6.164-16.055-24.729-6.054-36.67c6.731-8.034,15.721-12.443,25.08-16.363C265.915,586.294,269.917,585.539,273.917,584.783&#xD;&#xA;&#x9;z"/>
<path fill="#f2e5ca" d="M449.11,596.606c0.258-0.068,0.516-0.141,0.771-0.213c1.232,1.533,2.632,2.961,3.671,4.613&#xD;&#xA;&#x9;c2.965,4.717,6.649,9.223,8.45,14.371c2.541,7.266,1.436,14.489-4.945,19.93c-2.236,1.906-4.626,3.633-6.945,5.44&#xD;&#xA;&#x9;c-23.709,0.378-47.416,0.94-71.126,1.066c-14.354,0.075-22.354-8.429-23.139-23.656c7.253-22.202,24.672-30.901,45.942-33.075&#xD;&#xA;&#x9;c9.22-0.94,18.737,1.052,28.12,1.71c6.003,3.059,12.007,6.114,18.011,9.173C448.316,596.178,448.713,596.392,449.11,596.606z"/>
<path fill="#f7c293" d="M450.111,640.749c2.319-1.809,4.709-3.534,6.945-5.44c6.381-5.439,7.485-12.664,4.946-19.93&#xD;&#xA;&#x9;c-1.802-5.148-5.486-9.654-8.451-14.371c-1.039-1.652-2.438-3.08-3.671-4.613c14.841-11.353,31.862-13.152,49.668-11.142&#xD;&#xA;&#x9;c3.743,0.423,7.392,1.678,11.083,2.548c9.496,3.12,17.766,8.143,24.343,15.764c5.27,6.106,7.721,13.275,6.608,21.204&#xD;&#xA;&#x9;c-1.353,9.638-10.108,16.721-21.689,16.926c-21.3,0.378-42.61,0.139-63.917,0.065C454.02,641.751,452.066,641.1,450.111,640.749z"/>
<path fill="#d46c45" d="M622.256,602.848c-15.826,10.449-31.855,11.323-48.12,1.018c-1.046-6.596-1.051-13.596-3.413-19.68&#xD;&#xA;&#x9;c-2.681-6.899-6.718-13.616-11.504-19.281c-9.583-11.339-5.277-27.049,3.554-34.1c10.252-8.186,26.688-5.637,34.734,4.55&#xD;&#xA;&#x9;c12.223,15.476,20.916,32.512,23.819,52.162C622.072,592.563,621.969,597.735,622.256,602.848z"/>
<g>
	<path fill="#d46c45" d="M276.877,333.322c-2.72-9.721-5.757-19.383-9.271-28.843c-4.203-11.313-9.06-22.381-13.631-33.557&#xD;&#xA;&#x9;&#x9;c-0.372,0.068-0.744,0.135-1.116,0.201c-0.461,0.167-0.922,0.334-1.384,0.501c-10.005,3.028-20.109,5.767-29.975,9.193&#xD;&#xA;&#x9;&#x9;c-6.084,2.114-11.803,5.278-17.686,7.97c4.933,8.835,9.322,18.033,14.926,26.42c8.257,12.358,16.871,24.556,26.306,36.021&#xD;&#xA;&#x9;&#x9;c6.578,7.992,15.852,8.7,24.352,3.894C276.199,351.275,279.475,342.605,276.877,333.322z"/>
	<path fill="#d46c45" d="M164.31,389.811c-13.275-9.084-27.038-17.46-40.688-25.987c-3.035-1.895-6.382-3.29-9.585-4.915&#xD;&#xA;&#x9;&#x9;c-10.451,13.613-19.935,27.797-26.017,43.993c6.017,2.688,11.994,5.471,18.06,8.043c15.714,6.664,31.249,13.91,48.321,16.571&#xD;&#xA;&#x9;&#x9;c7.487,1.167,13.916-1.285,18.493-7.296c4.327-5.682,5.825-12.248,1.727-18.593C171.798,397.26,168.501,392.679,164.31,389.811z"/>
	<path fill="#d46c45" d="M188.904,316.364c-3.446-4.736-6.681-9.624-10.012-14.443c-2.016,1.014-4.138,1.859-6.027,3.064&#xD;&#xA;&#x9;&#x9;c-13.045,8.313-25.592,17.264-35.995,28.876c0.4,0.891,0.592,1.979,1.229,2.642c14.985,15.607,30.842,30.267,49.192,41.844&#xD;&#xA;&#x9;&#x9;c6.628,4.183,14.304,5.411,21.899,1.667c10.922-5.388,11.27-19.759,5.189-28.724C206.298,339.371,197.382,328.018,188.904,316.364z&#xD;&#xA;&#x9;&#x9;"/>
	<path fill="#d46c45" d="M119.519,443.939c-10.165-5.484-20.957-9.826-31.569-14.454c-2.829-1.232-5.968-1.757-8.964-2.607&#xD;&#xA;&#x9;&#x9;c-1.524,5.051-3.472,10.02-4.474,15.171c-1.733,8.891-2.876,17.896-4.268,26.854c0.141,0.261,0.279,0.522,0.422,0.781&#xD;&#xA;&#x9;&#x9;c-0.2,1.406-0.399,2.812-0.6,4.219c2.363-4.797,6.014-3.224,10.035-2.582c11.551,1.843,23.164,3.591,34.819,4.401&#xD;&#xA;&#x9;&#x9;c8.847,0.613,14.587-6.076,15.049-15.001C130.394,452.511,125.652,447.249,119.519,443.939z"/>
</g>
<path fill="#d46c45" d="M79.666,597.852c-3.886-4.129-8.796-7.694-11.446-12.504c-5.705-10.348-10.262-21.329-15.228-32.078&#xD;&#xA;&#x9;c-0.323-0.699-0.135-1.635-0.186-2.459c6.113-5.96,12.228-11.92,18.341-17.881c1.373,3.228,3.153,6.346,4.044,9.7&#xD;&#xA;&#x9;c3.188,12.026,8.805,22.882,15.344,33.342c0.603,0.961,0.974,2.064,1.453,3.104C87.88,585.336,83.773,591.594,79.666,597.852z"/>
<g>
	<path fill="#d46c45" d="M443.042,137.721c1.012,12.994,12.047,19.765,22.375,14.339c7.067-3.713,8.868-10.787,9.311-17.724&#xD;&#xA;&#x9;&#x9;c1.11-17.39,1.477-34.826,2.142-52.246c-12.317,0.003-24.635,0.005-36.952,0.007C440.922,100.641,441.6,119.21,443.042,137.721z"/>
	<path fill="#d46c45" d="M420.781,84.477c-0.62,0.13-1.239,0.26-1.859,0.389c-5.688,1.436-11.374,2.868-17.062,4.303&#xD;&#xA;&#x9;&#x9;c-0.297,0.074-0.593,0.148-0.889,0.222c-0.701-0.147-1.401-0.296-2.103-0.444c-4.745,1.92-4.732,5.714-3.943,9.869&#xD;&#xA;&#x9;&#x9;c0.738,3.895,0.798,8.042,2.238,11.645c1.484,3.705,3.555,7.89,6.633,10.108c8.975,6.465,20.727,0.109,21.043-11.061&#xD;&#xA;&#x9;&#x9;c0.239-8.469,0.036-16.949,0.03-25.427C423.507,84.213,422.143,84.345,420.781,84.477z"/>
	<path fill="#d46c45" d="M514.956,89.11c-7.68-1.667-15.359-3.334-23.037-5.002c-0.009,7.97-0.099,15.939-0.002,23.909&#xD;&#xA;&#x9;&#x9;c0.086,7.184,5.246,14.026,10.962,14.831c7.85,1.103,14.269-3.069,16.479-11.043c1.098-3.965,1.921-8.041,2.446-12.122&#xD;&#xA;&#x9;&#x9;C522.859,91.485,522.739,91.469,514.956,89.11z"/>
</g>
<g>
	<path fill="#d46c45" d="M433.302,370.939c-30.068-3.637-57.847-13.538-82.994-30.499c-2.525-1.703-4.453-4.291-6.659-6.469&#xD;&#xA;&#x9;&#x9;c-1.072-0.369-2.428-0.441-3.175-1.154c-8.484-8.093-17.042-16.125-25.213-24.529c-3.255-3.348-5.603-7.578-8.167-11.136&#xD;&#xA;&#x9;&#x9;c7.9-3.554,15.47-6.499,22.578-10.305c5.292-2.833,7.049-8.442,5.479-13.567c-1.888-6.162-6.094-9.883-12.423-9.247&#xD;&#xA;&#x9;&#x9;c-7.359,0.74-14.934,1.751-21.795,4.308c-5.929,2.21-8.943,1.264-10.995-4.329c-6.714,1.246-13.43,2.493-20.144,3.739&#xD;&#xA;&#x9;&#x9;c0.487,2.26,0.732,4.604,1.498,6.765c14.945,42.17,42.907,73.097,81.851,94.477c28.086,15.419,58.248,23.825,90.137,25.765&#xD;&#xA;&#x9;&#x9;c19.771,1.202,39.46-0.309,58.843-4.533c9.867-2.152,19.601-4.908,29.395-7.391c0.45-1.176,1.274-2.348,1.288-3.529&#xD;&#xA;&#x9;&#x9;c0.08-6.804-0.032-13.607-0.079-20.411C500.547,370.847,467.434,375.067,433.302,370.939z"/>
	<path fill="#d46c45" d="M593.608,263.995c-5.489-0.762-8.877,3.132-11.271,7.464c-1.915,3.463-0.356,10.268,2.959,13.261&#xD;&#xA;&#x9;&#x9;c7.231,6.529,16.255,9.172,25.52,11.168c4.259-8.654,8.517-17.309,12.777-25.964c-2.575-0.515-5.15-1.025-7.724-1.546&#xD;&#xA;&#x9;&#x9;C608.454,266.88,601.088,265.033,593.608,263.995z"/>
	<path fill="#d46c45" d="M312.765,248.159c7.883-4.855,6.712-16.448-1.798-20.124c-3.734-1.614-7.904-2.649-11.954-2.976&#xD;&#xA;&#x9;&#x9;c-3.882-0.313-8.142-0.06-11.668,1.355c-1.494,0.6-1.542,4.805-2.248,7.369c0.653,6.364,1.308,12.728,1.962,19.092&#xD;&#xA;&#x9;&#x9;C296.072,253.693,305.01,252.937,312.765,248.159z"/>
	<path fill="#d46c45" d="M610.978,226.198c-7.323,0.759-11.529,5.546-12.052,11.856c-0.423,5.105,3.723,10.575,10.298,12.359&#xD;&#xA;&#x9;&#x9;c6.2,1.684,12.617,2.564,18.938,3.798l0.01-0.146c0.173-0.381,0.347-0.762,0.521-1.143c0.735-5.032,1.471-10.065,2.207-15.099&#xD;&#xA;&#x9;&#x9;c-0.003-0.312,0.097-0.589,0.298-0.828c0.485-3.693,0.974-7.389,1.46-11.083C625.427,225.958,618.137,225.454,610.978,226.198z"/>
</g>
<g>
	<path fill="#f2e5ca" d="M42.4,617.999c-4.847,0.175-9.642,1.825-14.459,2.803c0.609,6.036,1.219,12.072,1.828,18.109&#xD;&#xA;&#x9;&#x9;c2.396-6.68,9.159-10.336,16.295-8.807c6.958,1.49,12.164,8.25,11.762,15.272c-0.431,7.531-6.167,13.927-13.282,14.497&#xD;&#xA;&#x9;&#x9;c-2.453,0.196-4.957-0.238-7.436-0.387c2.294,4.146,4.586,8.295,6.878,12.443c14.672-0.779,26.251-13.165,25.757-27.555&#xD;&#xA;&#x9;&#x9;C69.23,629.43,57.109,617.469,42.4,617.999z"/>
	<path fill="#f2e5ca" d="M285.776,687.889c-13.204,3.572-20.505,15.81-19.041,31.915c4.117-0.01,8.234-0.02,12.352-0.03&#xD;&#xA;&#x9;&#x9;c-3.83-11.212,4.568-20.215,12.8-20.91c8.588-0.725,19.067,8.752,14.827,20.922c4.133-0.004,8.268-0.008,12.4-0.012&#xD;&#xA;&#x9;&#x9;C322.077,698.813,305.171,682.642,285.776,687.889z"/>
	<path fill="#f2e5ca" d="M556.376,645.815c-2.861,2.809-5.724,5.617-8.587,8.425c4.675,8.815,4.025,15.824-1.971,21.362&#xD;&#xA;&#x9;&#x9;c-4.353,4.02-9.41,4.792-14.834,2.879c-5.018-1.771-8.562-5.045-9.299-10.657c-4.002,1.07-8.004,2.142-12.005,3.21&#xD;&#xA;&#x9;&#x9;c0.353,0.935,0.701,1.868,1.057,2.801c4.182,10.943,12.427,16.914,23.801,17.653c10.883,0.706,19.381-4.452,24.756-13.885&#xD;&#xA;&#x9;&#x9;C565.626,666.492,563.553,655.844,556.376,645.815z"/>
	<path fill="#f2e5ca" d="M172.095,688.501c-11.222-3.373-22.714,0.719-29.43,10.025c-4.717,6.535-5.11,13.813-4.765,21.363&#xD;&#xA;&#x9;&#x9;c4.106-0.069,8.215-0.139,12.322-0.207c-0.15-1.98-0.494-3.968-0.419-5.94c0.338-8.784,6.023-14.171,14.703-14.07&#xD;&#xA;&#x9;&#x9;c8.49,0.097,14.273,5.87,14.384,14.473c0.023,1.81-0.289,3.626-0.449,5.438c4.158,0.097,8.318,0.192,12.477,0.29&#xD;&#xA;&#x9;&#x9;c-0.008-2.155-0.012-4.313-0.028-6.469C190.806,702.314,182.811,691.722,172.095,688.501z"/>
	<path fill="#f2e5ca" d="M380.5,686.742c-6.321,0.726-12.843-3.251-15.005-9.19c-0.737-2.029-1.821-4.214,1.42-5.18&#xD;&#xA;&#x9;&#x9;c-5.623-0.007-11.244-0.015-16.868-0.021c0.897,1.634,2.208,3.165,2.63,4.912c3.396,14.054,13.604,21.979,28.074,21.59&#xD;&#xA;&#x9;&#x9;c12.47-0.336,22.742-9.752,25.098-22.852c0.234-1.302,1.228-2.467,1.87-3.695c-4.598,0.116-9.195,0.231-13.793,0.347&#xD;&#xA;&#x9;&#x9;C392.927,681.128,388.445,685.832,380.5,686.742z"/>
	<path fill="#f2e5ca" d="M452.734,696.97c-11.813,0.484-22.413,10.466-24.16,22.751c4.145,0.033,8.289,0.067,12.435,0.1&#xD;&#xA;&#x9;&#x9;c1.997-7.264,6.328-10.792,13.391-10.909c6.625-0.108,12.002,3.978,14.271,10.846c4.132,0.013,8.266,0.024,12.398,0.039&#xD;&#xA;&#x9;&#x9;C477.71,704.937,467.089,696.382,452.734,696.97z"/>
</g>
<g>
	<path fill="#e0825e" d="M46.065,630.103c-7.135-1.529-13.899,2.127-16.295,8.807c2.445,6.858,4.893,13.716,7.339,20.576&#xD;&#xA;&#x9;&#x9;c2.479,0.149,4.982,0.583,7.436,0.386c7.115-0.569,12.852-6.965,13.282-14.497C58.229,638.353,53.023,631.594,46.065,630.103z"/>
	<path fill="#e0825e" d="M291.885,698.864c-8.232,0.695-16.63,9.698-12.8,20.91c9.209,0.004,18.417,0.008,27.627,0.012&#xD;&#xA;&#x9;&#x9;C310.953,707.616,300.473,698.138,291.885,698.864z"/>
	<path fill="#e0825e" d="M164.508,699.672c-8.68-0.101-14.365,5.286-14.703,14.07c-0.075,1.972,0.269,3.96,0.419,5.94&#xD;&#xA;&#x9;&#x9;c0.248,0.033,0.47,0.127,0.665,0.283c0.333,0.05,0.666,0.1,0.999,0.15c8.337-0.013,16.674-0.024,25.011-0.038&#xD;&#xA;&#x9;&#x9;c0.333-0.064,0.665-0.13,0.997-0.194c0.152-0.152,0.335-0.252,0.547-0.3c0.16-1.813,0.472-3.629,0.449-5.439&#xD;&#xA;&#x9;&#x9;C178.78,705.542,172.998,699.768,164.508,699.672z"/>
	<path fill="#e0825e" d="M547.79,654.24c-8.702,4.528-17.403,9.056-26.104,13.584c0.737,5.612,4.281,8.887,9.299,10.657&#xD;&#xA;&#x9;&#x9;c5.424,1.913,10.481,1.141,14.834-2.879C551.815,670.064,552.465,663.055,547.79,654.24z"/>
	<path fill="#e0825e" d="M365.495,677.552c2.162,5.939,8.684,9.916,15.006,9.19c7.945-0.91,12.427-5.613,13.425-14.09&#xD;&#xA;&#x9;&#x9;c-9.003-0.094-18.007-0.188-27.011-0.279C363.674,673.339,364.758,675.524,365.495,677.552z"/>
	<path fill="#e0825e" d="M454.399,708.913c-7.064,0.117-11.394,3.645-13.391,10.909c9.22-0.021,18.439-0.043,27.66-0.063&#xD;&#xA;&#x9;&#x9;C466.401,712.89,461.024,708.804,454.399,708.913z"/>
</g>
<path fill="#f2e5ca" d="M68.757,489.906c-0.005,6.318-0.01,12.638-0.015,18.955C68.747,502.542,68.752,496.224,68.757,489.906z"/>
<path fill="#e0825e" d="M420.78,84.477c-0.62,0.13-1.24,0.26-1.859,0.389C419.54,84.737,420.16,84.607,420.78,84.477z"/>
<path fill="#e0825e" d="M252.858,271.125c-0.461,0.167-0.922,0.334-1.384,0.501C251.934,271.458,252.396,271.292,252.858,271.125z"/>
<path fill="#e0825e" d="M628.171,254.065c0.174-0.381,0.348-0.762,0.521-1.143C628.518,253.304,628.344,253.684,628.171,254.065z"/>
<path fill="#e0825e" d="M630.899,237.825c-0.003-0.313,0.097-0.589,0.298-0.828C631.096,237.273,630.998,237.548,630.899,237.825z"/>
<path fill="#e0825e" d="M401.859,89.168c-0.297,0.073-0.593,0.147-0.889,0.222C401.218,89.117,401.513,89.042,401.859,89.168z"/>
<path fill="#f2e5ca" d="M150.888,719.965c0.333,0.051,0.666,0.101,0.999,0.15C151.554,720.066,151.221,720.015,150.888,719.965z"/>
<path fill="#e0825e" d="M70.245,468.903c0.141,0.262,0.279,0.522,0.422,0.781C70.374,469.507,70.232,469.247,70.245,468.903z"/>
<path fill="#f2e5ca" d="M176.898,720.078c0.333-0.064,0.665-0.13,0.997-0.194C177.563,719.948,177.231,720.012,176.898,720.078z"/>
<g>
	<path fill="#d46c45" d="M336.911,580.262c-8.987-23.093-15.437-46.85-18.102-71.558c-0.496-4.593-1.251-9.158-1.887-13.737&#xD;&#xA;&#x9;&#x9;c-1.795,10.65-2.78,21.205-2.883,31.768c-0.063,6.735,0.593,13.606,1.962,20.201c3.02,14.541,6.537,28.986,10.186,43.385&#xD;&#xA;&#x9;&#x9;c1.365,5.392,3.657,10.547,5.528,15.81c1.069,0.989,2.141,1.979,3.211,2.969c3.974-1.504,7.947-3.008,11.922-4.513&#xD;&#xA;&#x9;&#x9;c-0.329-1.266-0.502-2.599-1.013-3.786C342.89,593.941,339.616,587.213,336.911,580.262z"/>
	<path fill="#d46c45" d="M238.945,448.811c-9.446-5.318-19.935-8.902-30.185-12.623c-4.969-1.804-8.634,0.472-9.607,4.368&#xD;&#xA;&#x9;&#x9;c-0.811,3.241,1.776,5.897,6.642,7.168c4.97,1.297,10.155,2.217,14.758,4.354c7.416,3.444,14.433,7.751,22.75,12.315&#xD;&#xA;&#x9;&#x9;c-3.479,2.738-5.812,4.255-7.755,6.167c-5.507,5.417-11.899,10.321-16.014,16.675c-5.852,9.041-0.885,19.482,9.409,22.833&#xD;&#xA;&#x9;&#x9;c6.209,2.022,11.889,0.097,17.309-2.445c6.731-3.156,13.211-6.849,20.979-10.928c2.044,8.111,4.029,15.881,5.954,23.667&#xD;&#xA;&#x9;&#x9;c1.324,5.364,0.753,5.463-4.576,5.049c-9.053-0.701-18.259-2.014-27.11,1.465c-11.381,4.472-14.55,18.063-5.632,26.21&#xD;&#xA;&#x9;&#x9;c3.762,3.438,8.817,5.848,13.692,7.576c5.087,1.805,10.645,2.344,16.032,3.21c3.579,0.575,5.146,1.962,3.549,5.695&#xD;&#xA;&#x9;&#x9;c-2.481,5.796-4.826,11.652-7.229,17.483c4.002-0.756,8.004-1.512,12.005-2.268c1.085-1.128,2.653-2.066,3.186-3.413&#xD;&#xA;&#x9;&#x9;c9.601-24.315,11.832-49.372,5.047-74.599C275.481,481.985,261.712,461.63,238.945,448.811z"/>
	<path fill="#d46c45" d="M412.778,512.839c-0.341-11.299-0.684-22.598-1.027-33.896c-12.164,1.02-24.431,1.415-36.445,3.368&#xD;&#xA;&#x9;&#x9;c-4.77,0.775-10.318,4.009-13.172,7.859c-6.869,9.265-0.307,20.614,12.423,21.571C387.254,512.696,400.033,512.519,412.778,512.839&#xD;&#xA;&#x9;&#x9;z"/>
	<path fill="#d46c45" d="M414.833,528.914c-5.955,0.341-11.946,0.378-17.853,1.105c-6.375,0.784-12.84,1.658-18.957,3.511&#xD;&#xA;&#x9;&#x9;c-6.628,2.009-11.2,8.57-11.097,13.994c0.116,6.102,4.605,11.387,12.159,13.465c3.949,1.088,8.144,1.813,12.223,1.796&#xD;&#xA;&#x9;&#x9;c10.283-0.041,20.563-0.595,30.843-0.943C419.712,550.865,417.271,539.89,414.833,528.914z"/>
	<path fill="#d46c45" d="M259.559,412.902c7.475,0.053,10.872-2.329,12.456-8.733c2.535-10.25-6.119-22.774-18.298-26.479&#xD;&#xA;&#x9;&#x9;c-8.615-2.621-16.307,2.196-16.479,11.094C237.003,400.797,249.921,413.497,259.559,412.902z"/>
	<path fill="#d46c45" d="M174.204,447.887c-6.767-5.168-19.349-3.734-25.327,2.518c-4.579,4.787-3.88,12.173,1.976,15.296&#xD;&#xA;&#x9;&#x9;c3.682,1.964,7.988,2.757,12.015,4.074c0.097-0.304,0.196-0.608,0.293-0.912c1.497,0,3.009,0.133,4.489-0.023&#xD;&#xA;&#x9;&#x9;c5.734-0.608,10.396-4.542,11.727-9.948C180.608,453.888,177.654,450.521,174.204,447.887z"/>
	<path fill="#d46c45" d="M352.423,518.135c-6.282-3.084-13.67-2.255-18.13,1.794c-3.534,3.208-4.643,7.372-2.863,11.314&#xD;&#xA;&#x9;&#x9;c2.142,4.747,7.156,5.431,14.248,5.882c1.841-0.925,5.894-2.162,8.911-4.653C360.141,527.889,358.905,521.317,352.423,518.135z"/>
</g>
<path fill="#f2e5ca" d="M516.796,271.033c1.376,6.264,3.511,12.473,3.975,18.805c1.068,14.581-11.922,26.354-23.557,28.935&#xD;&#xA;&#x9;c-2.733,0.605-5.622,0.524-8.347,1.161c-1.631,0.381-3.578,1.156-4.535,2.405c-11.663,15.22-36.067,16.548-48.732,2.695&#xD;&#xA;&#x9;c-3.204-3.505-6.603-4.889-11.51-5.436c-23.774-2.65-35.528-28.047-23.796-46.823c0.336-0.538,0.399-1.245,0.591-1.874&#xD;&#xA;&#x9;c7.702-9.644,17.55-14.315,30.004-12.944c0.905,2.739,1.073,6.161,2.854,8.092c5.817,6.304,12.243,12.042,18.378,18.058&#xD;&#xA;&#x9;c0.766,0.75,1.522,1.792,1.711,2.805c2.38,12.751-10.582,24.043-22.954,20.144c-5.305-1.673-8.522-5.311-11.094-10.063&#xD;&#xA;&#x9;c-0.729-1.35-3.306-1.702-5.034-2.512c-0.743,1.937-1.672,3.829-2.14,5.829c-0.185,0.788,0.569,1.866,1.048,2.728&#xD;&#xA;&#x9;c8.092,14.563,28.844,17.563,40.718,5.908c1.379-1.353,2.793-2.668,4.289-4.094c1.358,1.479,2.318,2.604,3.358,3.646&#xD;&#xA;&#x9;c12.458,12.491,34.743,9.029,41.828-6.452c1.335-2.916,1.647-5.729-1.549-7.298c-3.196-1.565-4.729,0.922-6.05,3.417&#xD;&#xA;&#x9;c-4.162,7.858-12.055,11.392-19.9,8.981c-8.745-2.687-14.521-11.049-13.387-19.711c0.164-1.264,1.166-2.61,2.143-3.54&#xD;&#xA;&#x9;c5.613-5.349,11.674-10.272,16.86-15.995c2.226-2.455,2.711-6.486,3.986-9.801c11.535-1.436,21.004,2.39,28.564,11.157&#xD;&#xA;&#x9;C515.137,269.969,516.031,270.446,516.796,271.033z"/>
<path fill="#f7c293" d="M592.719,133.87c-16.403-15.949-34.369-28.248-55.437-37.416c2.156-2.93,3.748-5.585,5.808-7.808&#xD;&#xA;&#x9;c9.759-10.535,21.194-18.669,35.022-22.922c6.111-1.88,13.371,1.75,15.422,7.778c4.428,13.011,6.634,26.396,4.602,40.162&#xD;&#xA;&#x9;c-0.747,5.063-1.943,10.063-3.104,15.054C594.682,130.226,593.761,131.601,592.719,133.87z"/>
<path fill="#f7c293" d="M323.358,133.032c-1.476-5.789-3.864-11.52-4.238-17.378c-0.805-12.582-0.97-25.222,2.667-37.599&#xD;&#xA;&#x9;c3.068-10.446,10.805-15.232,20.848-11.271c14.488,5.717,26.645,14.826,35.836,27.594c0.26,0.359,0.228,0.931,0.491,2.128&#xD;&#xA;&#x9;c-19.888,9.144-37.989,21.247-53.833,36.659C324.538,133.122,323.948,133.077,323.358,133.032z"/>
<path fill="#f7c293" d="M485.958,258.096c-1.276,3.313-1.763,7.346-3.987,9.801c-5.188,5.723-11.247,10.646-16.86,15.995&#xD;&#xA;&#x9;c-0.976,0.93-1.978,2.276-2.143,3.54c-1.133,8.662,4.642,17.024,13.387,19.711c7.847,2.409,15.738-1.123,19.901-8.981&#xD;&#xA;&#x9;c1.32-2.495,2.853-4.982,6.049-3.417c3.196,1.567,2.884,4.382,1.549,7.298c-7.085,15.481-29.37,18.943-41.828,6.452&#xD;&#xA;&#x9;c-1.04-1.043-2-2.167-3.358-3.646c-1.495,1.426-2.91,2.74-4.288,4.094c-11.874,11.654-32.626,8.654-40.719-5.908&#xD;&#xA;&#x9;c-0.479-0.86-1.231-1.938-1.048-2.728c0.468-2,1.396-3.894,2.141-5.829c1.729,0.81,4.305,1.162,5.033,2.512&#xD;&#xA;&#x9;c2.57,4.754,5.789,8.392,11.095,10.063c12.372,3.899,25.334-7.393,22.954-20.144c-0.188-1.013-0.946-2.055-1.711-2.805&#xD;&#xA;&#x9;c-6.136-6.016-12.562-11.754-18.379-18.058c-1.781-1.931-1.948-5.353-2.854-8.092c3.304-4.918,8.834-5.521,13.729-5.715&#xD;&#xA;&#x9;c9.916-0.393,19.922-0.124,29.797,0.827C478.387,253.451,482.117,256.345,485.958,258.096z"/>
<path fill="#f7c293" d="M449.11,596.606c-0.396-0.214-0.794-0.428-1.189-0.641C448.317,596.179,448.714,596.393,449.11,596.606z"/>
<path fill="#231f20" d="M537.34,181.652c16.08,0.131,28.874,13.307,28.752,29.609c-0.121,16.043-12.981,28.733-29.04,28.656&#xD;&#xA;&#x9;c-16.726-0.08-29.413-12.88-29.251-29.507C507.958,194.167,520.95,181.518,537.34,181.652z M558.501,198.751&#xD;&#xA;&#x9;c-0.084-4.364-3.734-7.991-7.988-7.936c-4.431,0.058-7.885,3.664-7.71,8.05c0.173,4.348,3.927,7.906,8.175,7.749&#xD;&#xA;&#x9;C555.05,206.464,558.58,202.775,558.501,198.751z"/>
<path fill="#231f20" d="M409.103,210.989c-0.054,16.363-12.817,28.994-29.223,28.919c-16.122-0.074-28.951-12.785-28.964-28.697&#xD;&#xA;&#x9;c-0.013-16.706,12.702-29.525,29.249-29.488C396.399,181.756,409.157,194.661,409.103,210.989z M393.696,190.902&#xD;&#xA;&#x9;c-4.297,0.056-7.678,3.331-7.719,7.478c-0.045,4.541,3.793,8.383,8.205,8.214c4.135-0.158,7.511-3.687,7.484-7.822&#xD;&#xA;&#x9;C401.64,194.427,398.012,190.846,393.696,190.902z"/>
<g>
	<path fill="#f2e5ca" d="M537.005,171.068c-21.802-0.076-39.595,17.682-39.763,39.685c-0.164,21.532,18.14,39.919,39.688,39.867&#xD;&#xA;&#x9;&#x9;c21.706-0.051,39.746-18.079,39.791-39.764C576.766,189.183,558.759,171.143,537.005,171.068z M537.052,239.919&#xD;&#xA;&#x9;&#x9;c-16.726-0.08-29.413-12.88-29.251-29.507c0.157-16.244,13.148-28.894,29.539-28.76c16.08,0.131,28.874,13.306,28.752,29.61&#xD;&#xA;&#x9;&#x9;C565.97,227.305,553.11,239.996,537.052,239.919z"/>
	<path fill="#f2e5ca" d="M550.512,190.815c-4.43,0.058-7.885,3.664-7.71,8.05c0.173,4.348,3.927,7.906,8.175,7.749&#xD;&#xA;&#x9;&#x9;c4.072-0.15,7.602-3.84,7.523-7.863C558.417,194.386,554.766,190.76,550.512,190.815z"/>
</g>
<g>
	<path fill="#f2e5ca" d="M379.962,171.089c-21.521-0.075-39.847,18.251-39.802,39.805c0.047,21.629,17.909,39.277,40.06,39.584&#xD;&#xA;&#x9;&#x9;c20.938,0.289,39.563-18.384,39.472-39.575C419.598,188.943,401.858,171.166,379.962,171.089z M379.881,239.907&#xD;&#xA;&#x9;&#x9;c-16.122-0.074-28.951-12.785-28.964-28.697c-0.013-16.706,12.702-29.525,29.249-29.488c16.233,0.035,28.991,12.939,28.938,29.268&#xD;&#xA;&#x9;&#x9;C409.05,227.352,396.286,239.983,379.881,239.907z"/>
	<path fill="#f2e5ca" d="M393.696,190.902c-4.297,0.056-7.678,3.331-7.718,7.477c-0.045,4.541,3.793,8.383,8.205,8.213&#xD;&#xA;&#x9;&#x9;c4.134-0.157,7.51-3.685,7.483-7.821C401.64,194.427,398.012,190.846,393.696,190.902z"/>
</g>
</svg>
