<?xml version="1.0" encoding="utf-8"?>
<!-- Generator: Adobe Illustrator 16.0.0, SVG Export Plug-In . SVG Version: 6.00 Build 0)  -->
<!DOCTYPE svg PUBLIC "-//W3C//DTD SVG 1.1//EN" "http://www.w3.org/Graphics/SVG/1.1/DTD/svg11.dtd">
<svg version="1.1" id="Layer_1" xmlns="http://www.w3.org/2000/svg" xmlns:xlink="http://www.w3.org/1999/xlink" x="0px" y="0px"
	 width="284px" height="299px" viewBox="0 0 284 299" enable-background="new 0 0 284 299" xml:space="preserve">
<path fill-rule="evenodd" clip-rule="evenodd" fill="#BC222A" d="M169,209.97c7.94-1.98,15.88-3.93,23.81-5.94
	c2.54-0.64,5.03-1.46,7.54-2.19c5.44,1.47,7.26,0.49,9.1-4.88c5.72-2.94,11.41-5.94,17.18-8.79c1.89-0.93,3.98-1.46,5.97-2.17
	c5,9.67,10,19.33,15.01,29c-28.19,16.02-58.32,25.97-90.79,27.76c-40.32,2.22-77.84-7.4-112.57-27.97
	c4.63-8.92,9.26-17.85,13.89-26.77c8.15,3.95,16.29,7.91,24.44,11.86c2.04,2.98,4.83,3.69,8.18,2.7c6.27,2.11,12.46,4.56,18.85,6.22
	c3.9,1.01,8.11,0.81,12.19,1.16c-0.32,1.6-1.33,3.5-0.8,4.74c0.98,2.29,2.46,5.19,4.47,6.02c3.13,1.29,5.67-0.89,6.61-4.21
	c0.4-1.39,0.36-2.9,0.53-4.36c8.49-0.38,16.97-0.76,25.46-1.14c1.26,3.21,2.19,6.63,4,9.49c0.44,0.69,4.26,0.16,5.73-0.91
	C171.31,217.05,169.69,213.33,169,209.97z"/>
<path fill-rule="evenodd" clip-rule="evenodd" fill="#5E9941" d="M254,228.92c1.97,3.35,4.52,6.51,5.75,10.12
	c1.49,4.37-1.53,7.04-5.2,9.01c-16.74,8.99-34.17,16.29-52.66,20.7C146,282.05,92.21,276.54,40.91,250
	c-1.03-0.53-2.06-1.09-3.06-1.68c-6.39-3.77-7.44-7.01-4.1-13.52c1.1-2.14,2.74-4.01,4.14-6.01c30.63,19.08,64.25,28.34,100.04,30
	c29.82,1.38,58.6-4.09,86.21-15.2C234.4,239.48,244.06,233.86,254,228.92z"/>
<path fill-rule="evenodd" clip-rule="evenodd" fill="#C7DC9C" d="M254,228.92c-9.94,4.94-19.6,10.56-29.86,14.69
	c-27.6,11.11-56.39,16.59-86.21,15.2c-35.79-1.66-69.42-10.92-100.04-30c2.12-4.68,4.25-9.35,6.37-14.03
	c34.73,20.58,72.25,30.19,112.57,27.97c32.47-1.79,62.59-11.74,90.79-27.76C249.75,219.63,251.87,224.28,254,228.92z"/>
<g>
	<path fill-rule="evenodd" clip-rule="evenodd" fill="#E44240" d="M82.96,139.97c-2.77,5.28-5.53,10.56-8.3,15.84
		c-5.5,10.73-11.01,21.46-16.51,32.19c8.15,3.95,16.29,7.91,24.44,11.86c-0.82-5.99,3.47-12.81,9.16-14.09
		c0.91-0.21,3.03,0.98,3.1,1.68c0.56,5.5,0.84,11.06-4.09,15.12c6.27,2.11,12.46,4.56,18.85,6.22c3.9,1.01,8.11,0.81,12.19,1.16
		c2.26-2.37,4.53-4.75,6.79-7.12c1.34,3.11,2.68,6.21,4.02,9.32c8.49-0.38,16.97-0.76,25.46-1.14c1.3-2.71,2.6-5.42,3.9-8.12
		c2.23,2.24,4.47,4.47,6.7,6.71c0.12,0.12,0.21,0.25,0.32,0.38c7.94-1.98,15.88-3.93,23.81-5.94c2.54-0.64,5.03-1.46,7.55-2.19
		c-3.97-5.11-4.36-10.67-2.41-17.17c6.25,2.42,10.35,5.95,11.51,12.29c5.72-2.94,11.41-5.94,17.18-8.79
		c1.89-0.93,3.98-1.46,5.97-2.17c-12.45-24.15-24.91-48.29-37.33-72.46c-13.66-26.56-27.24-53.16-40.94-79.69
		c-3.88-7.52-11.58-8.02-15.46-0.73c-12.17,22.85-23.98,45.9-35.93,68.87c-1.61,3.01-3.22,6.02-4.83,9.03L82.96,139.97z"/>
</g>
<path fill-rule="evenodd" clip-rule="evenodd" fill="#E44240" d="M82.96,139.97c5.05-9.65,10.1-19.31,15.15-28.96"/>
<path fill-rule="evenodd" clip-rule="evenodd" fill="#FEFEFE" d="M196.17,148.87c0.71,7.35-7.91,15.38-15.43,14.98
	c-8.38-0.45-14.94-6.93-14.81-15.12c0.13-8.14,7-14.74,15.25-14.63C189.52,134.19,196.25,140.83,196.17,148.87z M181.07,138.56
	c-6.08-0.05-10.77,4.6-10.75,10.66c0.02,5.58,4.72,10.11,10.69,10.28c5.95,0.18,10.8-4.65,10.72-10.66
	C191.65,143.17,186.92,138.61,181.07,138.56z"/>
<path fill-rule="evenodd" clip-rule="evenodd" fill="#FEFEFE" d="M90.88,154c-2-8.27,1.16-14.32,8.06-18.77
	c5.5-1.47,10.9-1.7,15.56,2.23c4.66,3.93,7.01,8.99,5.31,15.04c-1.7,6.07-5.96,9.82-12.24,11c-6.19,1.16-11.04-1.13-14.75-6.04
	C92.03,156.41,91.51,155.16,90.88,154z M105.04,159.37c6.05,0.1,10.72-4.19,10.83-9.95c0.12-5.91-4.61-10.66-10.71-10.76
	c-6.02-0.1-10.38,4.16-10.44,10.23C94.66,154.71,99.16,159.27,105.04,159.37z"/>
<path fill-rule="evenodd" clip-rule="evenodd" d="M143.25,179.01c-7.86-0.05-14.99-5.4-16.89-13.03c-0.35-1.43,0.62-3.18,0.97-4.79
	c0.88,1.15,2.17,2.17,2.58,3.47c2.1,6.67,6.74,10.46,13.4,10.61c7.37,0.16,12.21-3.4,14.59-10.41c0.44-1.3,1.74-2.31,2.64-3.45
	c0.34,1.61,1.29,3.39,0.91,4.81C159.43,173.84,151.76,179.06,143.25,179.01z"/>
<path fill-rule="evenodd" clip-rule="evenodd" d="M138.92,118.16c4.82,3.3,7.34,7.4,7.99,12.52c0.46,3.61-1.35,6.15-4.97,6.83
	c-3.83,0.72-6.09-1.53-6.76-4.97C134.2,127.49,135.21,122.76,138.92,118.16z"/>
<path fill-rule="evenodd" clip-rule="evenodd" d="M90.77,202.56c-3.35,0.99-6.14,0.28-8.18-2.7c-0.81-5.99,3.47-12.81,9.16-14.09
	c0.91-0.21,3.03,0.98,3.1,1.68C95.42,192.95,95.69,198.5,90.77,202.56z"/>
<path fill-rule="evenodd" clip-rule="evenodd" d="M140.53,74.68c2.64,5.04,4.02,9.62,2.53,14.7c-0.96,3.26-3.01,5.26-6.59,4.4
	c-3.44-0.83-4.79-3.55-4.35-6.8C132.81,81.87,135.28,77.76,140.53,74.68z"/>
<path fill-rule="evenodd" clip-rule="evenodd" d="M132.62,212.14c-0.16,1.46-0.13,2.97-0.53,4.36c-0.94,3.32-3.49,5.49-6.61,4.21
	c-2.02-0.83-3.49-3.73-4.47-6.02c-0.53-1.24,0.48-3.14,0.8-4.74c2.26-2.37,4.53-4.75,6.79-7.12
	C129.94,205.93,131.28,209.03,132.62,212.14z"/>
<path fill-rule="evenodd" clip-rule="evenodd" d="M169,209.97c0.69,3.37,2.31,7.08-1.19,9.61c-1.47,1.07-5.29,1.6-5.73,0.91
	c-1.82-2.86-2.75-6.28-4-9.49c1.3-2.71,2.6-5.42,3.9-8.12c2.23,2.24,4.47,4.47,6.7,6.71C168.8,209.7,168.89,209.84,169,209.97z"/>
<path fill-rule="evenodd" clip-rule="evenodd" d="M209.46,196.95c-1.84,5.37-3.67,6.35-9.1,4.88c-3.97-5.11-4.36-10.67-2.4-17.17
	C204.2,187.08,208.3,190.61,209.46,196.95z"/>
<path fill-rule="evenodd" clip-rule="evenodd" d="M153.3,98.8c1.54-3.06,3.07-6.13,4.61-9.19c2.33,2.67,4.87,5.19,6.89,8.07
	c0.85,1.21,1.24,3.46,0.69,4.75c-0.87,2.02-2.61,4.96-4.16,5.07c-2.05,0.15-4.58-1.74-6.29-3.39c-0.94-0.92-0.62-3.14-0.87-4.77
	C153.88,99.16,153.59,98.98,153.3,98.8z"/>
<g>
	<path fill-rule="evenodd" clip-rule="evenodd" fill="#F27979" d="M162.03,66.93c-2.06,11.36,29.38,70.68,39.54,75
		C191.23,115.16,180.74,89.57,162.03,66.93z"/>
	<path fill-rule="evenodd" clip-rule="evenodd" fill="#F27979" d="M96.95,132.25c17.07-23.07,33.05-45.64,42.14-73.57
		C128.4,63.03,95.16,121.36,96.95,132.25z"/>
	<path fill-rule="evenodd" clip-rule="evenodd" fill="#F27979" d="M183.64,165.06c-0.42-0.19-0.98-0.1-1.48-0.13
		c-0.28-0.39-0.55-0.78-0.83-1.17c-2.81,2.08-7.41,3.73-8.06,6.34c-1.28,5.21,4.51,4.3,7.53,5.67c0.57,0.26,1.4,0.36,1.96,0.15
		c3.31-1.27,8.63,0.1,9.13-5.04C192.45,165.18,186.79,166.5,183.64,165.06z"/>
	<path fill-rule="evenodd" clip-rule="evenodd" fill="#F27979" d="M112.31,168.01c-2.04-1.28-4.8-1.42-7.24-2.07
		c-2.31,0.11-4.78-0.21-6.9,0.49c-1.62,0.54-3.76,2.26-3.92,3.66c-0.15,1.28,1.77,3.51,3.26,4.13c4.78,1.99,9.68,2.18,14.13-1.21
		C114.99,171.74,114.62,169.46,112.31,168.01z"/>
</g>
<path fill-rule="evenodd" clip-rule="evenodd" d="M181.07,138.56c5.85,0.05,10.58,4.61,10.66,10.28
	c0.08,6.01-4.77,10.83-10.72,10.66c-5.97-0.18-10.67-4.7-10.69-10.28C170.3,143.16,174.99,138.51,181.07,138.56z"/>
<path fill-rule="evenodd" clip-rule="evenodd" d="M105.04,159.37c-5.88-0.1-10.37-4.66-10.31-10.49
	c0.06-6.06,4.42-10.33,10.44-10.23c6.1,0.1,10.82,4.85,10.71,10.76C115.76,155.19,111.09,159.47,105.04,159.37z"/>
</svg>
