<?xml version="1.0" encoding="utf-8"?>
<!-- Generator: Adobe Illustrator 16.0.0, SVG Export Plug-In . SVG Version: 6.00 Build 0)  -->
<!DOCTYPE svg PUBLIC "-//W3C//DTD SVG 1.1//EN" "http://www.w3.org/Graphics/SVG/1.1/DTD/svg11.dtd">
<svg version="1.1" id="Layer_1" xmlns="http://www.w3.org/2000/svg" xmlns:xlink="http://www.w3.org/1999/xlink" x="0px" y="0px"
	 width="291px" height="286px" viewBox="0 0 291 286" enable-background="new 0 0 291 286" xml:space="preserve">
<path fill-rule="evenodd" clip-rule="evenodd" fill="#ED9CB3" d="M122.82,27.17c2.06-0.61,4.12-1.23,6.17-1.84
	c0.92,0.29,1.88,0.94,2.74,0.83c7.03-0.94,13.74,0.12,19.56,4.15c9.34,6.47,19.7,6.63,30.19,5.19c8.38-1.15,15.79,0.41,22.51,5.46
	c-1.89,4.95-2.63,9.58,2.8,13.06c0.75,0.48,0.67,2.15,1.19,3.16c2.55,5.05,4.52,10.56,7.92,14.97c4.81,6.23,11.36,11.16,15.9,17.55
	c3.39,4.77,4.77,10.97,7.04,16.54c-5.18-0.13-5.94,2.49-3.85,6.52c1.11,2.13,2.67,4.03,4.03,6.04c0.31,3.41,0.63,6.82,0.94,10.23
	c-2.7,2.21-5.62,4.2-8,6.71c-1.25,1.31-1.58,3.51-2.32,5.31c1.99-0.06,3.98-0.11,5.97-0.17c1.44,6.67,3.26,13.28,4.23,20.02
	c2.11,14.56-3.22,24.21-16.19,30.82c-3.66,1.86-7.11,4.15-10.66,6.24c-2.38-1.19-4.76-2.39-7.14-3.58c0.44,2.17,0.88,4.35,1.32,6.52
	c-3.37,4.76-7.49,9.17-9.96,14.36c-6.35,13.33-17.13,23.94-35.23,15.37c-9.08-4.3-18.37-8.88-28.89-7.53
	c-6.17,0.79-12.22,2.53-18.33,3.85c1.07-3.27,2.31-6.5,3.12-9.84c0.24-1-0.46-2.48-1.19-3.36c-0.39-0.47-1.9-0.45-2.65-0.1
	c-2.7,1.26-5.16,12.09-3.55,15.09c-2.13-0.07-4.3,0.11-6.39-0.24c-15.17-2.53-23.3-19.16-27.08-34.55c4.1-1.31,4.18-4.02,1.06-5.9
	c-3.26-1.97-7.28-2.7-10.96-3.97c-4.15-3.89-13.21-4.94-8.15-14.13c1.56-2.34,3.33-4.57,4.57-7.07c0.59-1.19,0.15-2.88,0.17-4.35
	c-1.48,0.29-3.52,0.06-4.34,0.96c-2.33,2.55-4.29,5.48-6.1,8.44c-0.41,0.67,0.41,2.08,0.67,3.14c-1.68,3.62-3.53,1.63-5.26,0.1
	c-10.32-9.06-12.8-21.17-6.64-34.15c4.35-9.16,6-18.12,2.57-28.2c-4.04-11.87,0.63-19.63,12.42-23.75
	c4.81-1.68,9.99-3.25,13.92-6.27c7.59-5.82,8.84-10.81,2.85-18.81c2.1-9.46,7.98-15.31,17.77-16.87c10.46-1.67,20.15-5,28.36-11.86
	C121.17,30.2,121.87,28.54,122.82,27.17z M70,113.99c-4.14,6.91-4.04,13.42,0.31,19.37c4.79,6.56,12.05,8.92,20.7,6.73
	c-1.33,0.96-2.55,2.49-4.01,2.77c-3.68,0.7-7.56,0.43-11.15,1.38c-1.56,0.41-3.39,2.75-3.58,4.39c-0.15,1.24,1.86,3.2,3.35,4.08
	c4.87,2.87,10.37,2.95,15.18,0.61c4.3-2.09,6.29-0.51,8.3,2.69c-0.04,0.99-0.08,1.98-0.11,2.96c-2.82,7.76-0.17,17.07,6.52,21.66
	c4.92,3.37,9.8,7.6,16.52,4.25c10.07,0.93,19.81,2.68,29.4,6.5c12.46,4.97,21.5-1.19,24.62-14.25c1.08-4.54,3.67-9.45,7.06-12.55
	c8.75-8,12.84-17.05,10.08-28.8c3.94,1.79,7.87,3.57,11.81,5.36c-1.43,0.92-2.99,1.7-4.27,2.8c-1.66,1.42-3.09,3.1-4.63,4.67
	c1.62,1.5,3.11,4.06,4.9,4.29c4.66,0.6,9.49,0.52,14.15-0.06c1.43-0.18,3.53-2.83,3.54-4.36c0.01-1.52-2.05-3.28-3.54-4.52
	c-1.51-1.25-3.44-1.98-5.18-2.94c1.23-0.49,2.48-0.93,3.69-1.47c10.76-4.74,13.79-18.96,5.9-27.62c-8.77-9.63-20.35-8.41-29.55,3.1
	c-4.08-5.58-7.4-12.02-12.47-16.47c-3.87-3.4-9.87-5.63-15.07-5.97c-8.65-0.56-17.42,0.92-26.15,1.33
	c-3.08,0.15-6.24-0.77-9.26-0.38c-12.39,1.58-20.79,9.4-28.2,18.64C87.78,102.28,78.28,102.88,70,113.99z M161.39,46.12
	c-0.78,2.5-2.27,5.14-1.68,5.74c2.77,2.81,6.02,5.18,9.31,7.38c0.61,0.41,2.47-0.41,3.3-1.17c0.67-0.61,1.18-2.62,0.84-2.91
	C169.73,52.31,166.12,49.69,161.39,46.12z M114.35,64.99c-0.93-3.96-1.44-7.24-2.57-10.3c-0.41-1.11-2.3-1.68-3.51-2.49
	c-0.71,1.14-2.12,2.36-2.01,3.41c0.33,3.23,1,6.48,2.03,9.56c0.39,1.16,2.19,2.64,3.25,2.57C112.6,67.67,113.54,65.85,114.35,64.99z
	 M189.18,75.96c-0.85-1.16-1.38-2.54-2.36-3.03c-0.78-0.4-2.7-0.08-3.09,0.55c-2.07,3.38-3.92,6.9-5.56,10.51
	c-0.31,0.67,0.42,2.35,1.14,2.82c0.75,0.49,2.7,0.5,3.07-0.02C184.74,83.4,186.81,79.82,189.18,75.96z M159.7,66.02
	c-0.78,2.54-2.17,4.63-1.61,5.68c1.86,3.48,4.27,6.7,6.79,9.77c0.69,0.84,2.49,0.76,3.78,1.11c0.12-1.3,0.79-2.89,0.27-3.85
	c-1.78-3.36-3.94-6.53-6.04-9.72C162.41,68.25,161.57,67.73,159.7,66.02z M132.8,54.48c-1.19,1.02-2.42,1.57-2.48,2.23
	c-0.13,1.33-0.1,3.32,0.72,3.99c2.54,2.07,5.4,3.81,8.32,5.33c0.84,0.44,2.56,0.02,3.38-0.63c0.66-0.52,1.1-2.63,0.74-2.92
	C140.07,59.7,136.46,57.16,132.8,54.48z M233.24,156.42c-1.49,1.02-2.34,1.28-2.5,1.76c-1.3,4.1-2.57,8.21-3.56,12.39
	c-0.14,0.58,1.42,2.26,2.03,2.19c1.24-0.15,3.03-0.9,3.44-1.88c1.27-3.05,2.33-6.29,2.77-9.54
	C235.63,159.93,234.13,158.28,233.24,156.42z M213.06,170.16c-0.84-0.44-2.58-2.04-3.38-1.66c-3.71,1.74-7.25,3.9-10.59,6.27
	c-0.51,0.36-0.19,3.29,0.59,3.84C202.19,180.41,212.75,174.47,213.06,170.16z M105.75,78.36c-0.68,0.09-1.37,0.18-2.05,0.28
	c-0.4,1.65-1.37,3.44-1.03,4.92c0.38,1.64,1.74,3.26,3.08,4.42c2.09,1.81,2.66,6.89,6.84,4.13c0.71-0.47-0.78-5.06-1.95-7.4
	C109.46,82.36,107.41,80.46,105.75,78.36z M91.11,79.46c-1.03-1.3-1.54-2.55-2.41-2.89c-0.86-0.33-2.54-0.12-3.05,0.5
	c-2.26,2.8-4.35,5.77-6.22,8.85c-0.41,0.67,0.02,2.37,0.66,3c0.63,0.62,2.61,1.02,2.97,0.61C85.84,86.36,88.37,82.97,91.11,79.46z
	 M54.17,110.67c3.78-2.5,7.4-4.77,10.83-7.31c0.45-0.33,0.27-2.3-0.28-2.98c-0.57-0.71-2.23-1.36-2.91-1.03
	c-3.41,1.71-6.73,3.63-9.9,5.76c-0.63,0.42-0.84,2.2-0.52,3.1C51.69,109.08,52.93,109.63,54.17,110.67z M134.17,199.01
	c-0.88,3.25-2.15,5.7-1.59,6.23c2.96,2.8,6.29,5.25,9.73,7.45c0.41,0.26,2.29-1.77,3.48-2.74
	C142.39,206.74,138.98,203.53,134.17,199.01z M204.02,63.38c-0.83-0.92-1.59-2.36-2.72-2.78c-0.81-0.3-2.67,0.48-3.12,1.29
	c-1.49,2.73-2.78,5.63-3.65,8.6c-0.29,1.01,0.58,3.1,1.46,3.5c0.92,0.42,3.15-0.22,3.65-1.08C201.3,70.1,202.43,66.98,204.02,63.38z
	 M187.38,204.88c-0.49-1.42-0.53-2.39-0.94-2.59c-3.85-1.87-7.72-3.69-11.7-5.25c-0.5-0.2-2.29,1.2-2.31,1.9
	c-0.04,1.08,0.63,2.73,1.51,3.21c3.04,1.68,6.24,3.18,9.53,4.25C184.49,206.72,186.01,205.45,187.38,204.88z M59.84,144.79
	c0.36-2.4,1.38-4.56,0.69-5.61c-1.86-2.86-4.33-5.36-6.81-7.75c-0.63-0.61-2.85-0.71-3.2-0.23c-0.69,0.96-1.22,2.92-0.69,3.7
	c1.83,2.71,4.1,5.12,6.31,7.56C56.75,143.14,57.72,143.49,59.84,144.79z M83.06,67.42c3.6-0.94,6.72-1.5,9.6-2.65
	c1.18-0.47,1.85-2.22,2.75-3.39c-1.49-0.72-3.09-2.19-4.45-1.99c-2.9,0.43-5.76,1.54-8.46,2.75c-1.25,0.56-2.09,2-3.12,3.04
	C80.65,65.96,81.93,66.74,83.06,67.42z M100.37,185.85c-1.86,2.92-3.53,4.42-3.25,5.29c1.22,3.73,2.9,7.34,4.73,10.83
	c0.27,0.52,2.59,0.6,3.36,0.05c0.76-0.55,1.31-2.33,1-3.26c-1-2.98-2.42-5.81-3.71-8.69C102.03,189.03,101.47,188.03,100.37,185.85z
	 M211.97,91.46c1.04-0.78,2.42-1.52,3.32-2.65c0.27-0.34-0.61-2.32-1.3-2.57c-3.44-1.21-6.96-2.3-10.54-2.94
	c-0.95-0.17-2.89,1.21-3.13,2.18c-0.23,0.92,0.93,2.88,1.92,3.27C205.14,89.89,208.27,90.48,211.97,91.46z M166.46,211.26
	c-0.93-1-1.59-2.26-2.58-2.61c-0.77-0.27-2.52,0.3-2.85,0.97c-1.73,3.55-3.26,7.2-4.55,10.93c-0.23,0.67,0.78,2.28,1.59,2.65
	c0.7,0.32,2.44-0.22,2.82-0.89C162.83,218.89,164.48,215.29,166.46,211.26z M181.49,231.37c1.04-2.37,2.38-4.2,1.98-4.72
	c-2.48-3.27-5.28-6.31-8.24-9.16c-0.2-0.19-2.56,1.86-3.91,2.87C174.4,223.7,177.48,227.04,181.49,231.37z"/>
<path fill-rule="evenodd" clip-rule="evenodd" fill="#BD793F" d="M175.03,250.83c11.47,1.15,21.31-1.51,27.83-11.92
	c0.82-0.08,1.89,0.15,2.42-0.28c9.57-7.79,19.49-15.22,28.42-23.69c4.1-3.89,6.26-9.84,9.29-14.85c13-7.42,16.45-19.14,14.93-33.11
	c1.01-1.83,2.16-3.6,3.01-5.51c1.24-2.76,0.08-7.02,4.86-7.48c-0.86,13.44-4.46,26.2-9.94,38.42
	c-16.5,36.79-44.92,59.79-83.66,69.22c-50.55,12.3-104.13-10.47-131.06-57.94C32.55,188.57,27,172.5,26.06,155.11
	c-0.48-9.01,0.02-18.07,0.07-27.11c3.49-0.23,3.67,2.01,3.96,4.72c0.33,3.15,1.36,6.22,2.08,9.33c-6.35,13.64-5.73,26.39,4.86,37.86
	c1.44,3.29,2.99,6.54,4.31,9.87c6.29,15.93,18.06,27.66,30.18,39.05c3.06,2.87,7.02,4.78,10.57,7.13
	c5.95,3.44,11.9,6.88,17.86,10.31c1,0.72,1.89,1.73,3,2.14c16.52,6.04,33.64,8.75,51.14,7.37
	C161.15,255.21,168.05,252.54,175.03,250.83z"/>
<path fill-rule="evenodd" clip-rule="evenodd" fill="#C8834C" d="M254.03,92.14c-0.34-0.73-0.68-1.47-1.02-2.2
	C253.35,90.67,253.69,91.4,254.03,92.14z"/>
<g>
	<path fill-rule="evenodd" clip-rule="evenodd" fill="#EC8FA8" d="M77.02,193.92c3.78,15.38,11.92,32.02,27.08,34.55
		c2.08,0.35,4.26,0.17,6.38,0.24c1.42-0.59,2.84-1.19,4.26-1.79c6.11-1.31,12.16-3.05,18.33-3.85c10.52-1.35,19.82,3.23,28.89,7.53
		c18.1,8.57,28.88-2.04,35.23-15.37c2.47-5.19,6.59-9.6,9.96-14.36c2.05,1.85,3.98,3.88,6.23,5.46c0.7,0.49,2.71,0.14,3.31-0.54
		c0.59-0.67,0.59-2.5,0.08-3.36c-0.98-1.67-2.5-3.02-3.79-4.5c3.55-2.09,7-4.38,10.66-6.24c12.98-6.61,18.3-16.26,16.19-30.82
		c-0.98-6.74-2.8-13.35-4.23-20.02c1.95-1.95,3.84-3.98,5.87-5.85c3.23-3,2.59-4.9-1.51-5.99c-0.31-3.41-0.63-6.82-0.94-10.22
		c3.6-0.97,3.31-3.61,2.48-6.24c-0.69-2.17-1.76-4.22-2.66-6.32c-2.27-5.56-3.65-11.77-7.04-16.54
		c-4.54-6.39-11.09-11.32-15.9-17.55c-3.4-4.4-5.37-9.92-7.92-14.97c-0.51-1.01-0.43-2.68-1.19-3.16c-5.42-3.48-4.69-8.11-2.8-13.06
		c3.6,5.63,8.01,10.91,10.62,16.96c3.99,9.26,9.92,15.67,19.35,19.43c4.99,1.99,9.43,5.39,14.01,8.33c1.84,1.18,3.38,2.84,5.06,4.27
		l-0.02-0.02c0.34,0.73,0.68,1.47,1.02,2.2c1.65,4.16,3.3,8.33,4.96,12.49c0.68,8.88-1.52,17.08-5.26,25.08
		c-3.28,7.01-3.91,14.41-1.35,21.87c1.77,5.16,3.7,10.27,5.56,15.41c1.52,13.97-1.93,25.69-14.93,33.11
		c-6.48,1.98-12.94,4.01-19.44,5.94c-7.93,2.37-13.1,7.46-15.48,15.38c-1.75,5.83-3.48,11.66-5.22,17.5
		c-6.52,10.41-16.36,13.07-27.83,11.92c-5.02-2.13-10.4-3.7-15-6.52c-11.02-6.76-21.95-6.45-33.31-1.26
		c-8.54,3.91-17.5,5.08-26.77,3.2c-5.95-3.44-11.9-6.88-17.86-10.32c-3.25-8.08-7.24-15.96-9.55-24.3
		c-3.19-11.5-9.47-19.29-20.77-23.53c-5.21-1.95-9.84-5.43-14.74-8.21c-10.59-11.47-11.21-24.22-4.86-37.86
		c0.68-1.11,1.3-2.27,2.06-3.34c6.48-9.1,7.79-18.52,3.06-29c-1.76-3.9-1.6-8.66-2.31-13.03c2.04-4.24,4.09-8.49,6.13-12.73
		c3.26-1.61,6.37-3.78,9.81-4.72c10.7-2.92,19.23-8.12,22.89-19.26c5.99,8.01,4.74,12.99-2.85,18.81
		c-3.93,3.02-9.11,4.58-13.92,6.27c-11.79,4.13-16.46,11.88-12.42,23.75c3.43,10.09,1.78,19.04-2.57,28.2
		c-6.16,12.97-3.68,25.09,6.64,34.15c1.73,1.52,3.58,3.52,5.26-0.1c1.68-0.38,3.35-0.75,5.03-1.13c-5.06,9.2,4,10.25,8.15,14.13
		c0.52,1.87,0.45,4.46,1.68,5.47C71.15,191.46,74.24,192.5,77.02,193.92z"/>
	<path fill-rule="evenodd" clip-rule="evenodd" fill="#EC8FA8" d="M188.81,128.04c-3.76-6-7.77-11.86-11.21-18.05
		c-3.92-7.05-7.54-8.99-15.42-7.23c-3.4,0.76-6.8,1.46-10.21,2.19c-3.66-0.71-7.32-1.42-10.98-2.13
		c-6.69-2.93-13.37-4.68-20.03,0.07c-1.53,1.33-3.48,2.4-4.52,4.05c-2.41,3.82-4.39,7.92-6.55,11.91c-2.33,1.06-4.66,2.13-6.99,3.19
		c-0.72-2-1.45-4-2.17-6c-0.63-1.28-1.26-2.56-1.89-3.84c7.4-9.24,15.81-17.06,28.2-18.64c3.02-0.39,6.19,0.53,9.26,0.38
		c8.73-0.42,17.5-1.89,26.15-1.33c5.21,0.34,11.2,2.57,15.07,5.97c5.07,4.45,8.4,10.89,12.47,16.47
		C189.61,119.37,189.21,123.71,188.81,128.04z"/>
	<path fill-rule="evenodd" clip-rule="evenodd" fill="#EC8FA8" d="M101.99,147.97c-0.97,2.68-1.93,5.36-2.9,8.04
		c-2.01-3.21-3.99-4.78-8.3-2.69c-4.81,2.34-10.32,2.26-15.18-0.61c-1.49-0.88-3.5-2.84-3.35-4.08c0.19-1.64,2.02-3.98,3.58-4.39
		c3.59-0.95,7.47-0.68,11.15-1.38c1.46-0.28,2.68-1.81,4.01-2.77c3.19-2.76,6.38-5.52,9.57-8.27
		C101.05,137.2,101.52,142.58,101.99,147.97z"/>
	<path fill-rule="evenodd" clip-rule="evenodd" fill="#EC8FA8" d="M98.98,158.98c8.67,4.95,16,10.99,18.82,21.25
		c0.5,1.81,2.77,3.12,4.23,4.66c-6.73,3.35-11.61-0.88-16.52-4.25C98.81,176.05,96.16,166.74,98.98,158.98z"/>
	<path fill-rule="evenodd" clip-rule="evenodd" fill="#EC8FA8" d="M204.99,141.15c1.66-0.04,3.32-0.08,4.97-0.13
		c1.74,0.96,3.67,1.7,5.18,2.95c1.5,1.24,3.55,3,3.54,4.52c0,1.53-2.11,4.19-3.54,4.36c-4.67,0.58-9.5,0.66-14.15,0.06
		c-1.79-0.23-3.28-2.79-4.9-4.29c1.53-1.57,2.97-3.24,4.63-4.67C202,142.85,203.56,142.07,204.99,141.15z"/>
</g>
<g>
	<path fill-rule="evenodd" clip-rule="evenodd" fill="#FFFFFF" d="M219.56,111.94c-8.77-9.63-20.35-8.41-29.55,3.1
		c-0.4,4.33-0.79,8.67-1.19,13c1.46,2.58,2.91,5.17,4.37,7.75c3.94,1.79,7.87,3.57,11.81,5.36c1.66-0.04,3.32-0.08,4.97-0.13
		c1.23-0.49,2.48-0.93,3.69-1.46C224.42,134.82,227.45,120.6,219.56,111.94z M206.01,136.15c-7.08-0.12-12.9-5.99-12.71-12.83
		c-0.06-8.61,5.59-12.43,13.06-12.52c7.07-0.08,12.55,5.75,12.49,12.87C218.77,130.84,213.18,136.27,206.01,136.15z"/>
	<path fill-rule="evenodd" clip-rule="evenodd" fill="#FFFFFF" d="M98.85,112.19c-11.08-9.91-20.57-9.32-28.85,1.8
		c-4.14,6.91-4.04,13.42,0.31,19.37c4.79,6.56,12.05,8.92,20.7,6.73c3.19-2.76,6.38-5.52,9.57-8.27c0.4-0.98,0.81-1.96,1.21-2.95
		c0.38-2.28,0.75-4.56,1.13-6.83c-0.72-2-1.45-4-2.17-6C100.11,114.76,99.48,113.47,98.85,112.19z M95.54,129.95
		c-2.46,5.72-9.96,7.49-16.91,5.01c-4.12-1.47-7.61-9.15-6.3-14.25c0.49-1.89,1.49-3.65,2.27-5.48c8.43-7.13,15.61-6.11,22.18,3.16
		C96.42,122.27,97,126.54,95.54,129.95z"/>
</g>
<g>
	<path fill-rule="evenodd" clip-rule="evenodd" fill="#67B0BC" d="M161.39,46.12c4.73,3.57,8.35,6.19,11.77,9.04
		c0.34,0.28-0.17,2.29-0.84,2.91c-0.83,0.76-2.69,1.58-3.3,1.17c-3.29-2.2-6.54-4.57-9.31-7.38
		C159.12,51.26,160.61,48.62,161.39,46.12z"/>
	<path fill-rule="evenodd" clip-rule="evenodd" fill="#67B0BC" d="M114.35,64.99c-0.8,0.85-1.75,2.68-2.81,2.75
		c-1.06,0.07-2.85-1.41-3.25-2.57c-1.03-3.08-1.71-6.33-2.03-9.56c-0.11-1.06,1.3-2.27,2.01-3.41c1.21,0.81,3.1,1.38,3.51,2.49
		C112.91,57.75,113.42,61.04,114.35,64.99z"/>
	<path fill-rule="evenodd" clip-rule="evenodd" fill="#67B0BC" d="M233.24,156.42c0.88,1.85,2.39,3.5,2.19,4.92
		c-0.44,3.26-1.51,6.49-2.77,9.54c-0.41,0.98-2.2,1.72-3.44,1.88c-0.62,0.08-2.17-1.6-2.03-2.19c0.99-4.18,2.26-8.29,3.56-12.39
		C230.9,157.7,231.76,157.44,233.24,156.42z"/>
	<path fill-rule="evenodd" clip-rule="evenodd" fill="#67B0BC" d="M54.17,110.67c-1.24-1.04-2.47-1.59-2.78-2.46
		c-0.32-0.9-0.11-2.68,0.52-3.1c3.17-2.13,6.49-4.05,9.9-5.76c0.68-0.34,2.34,0.32,2.91,1.03c0.55,0.68,0.73,2.65,0.28,2.98
		C61.57,105.9,57.94,108.17,54.17,110.67z"/>
	<path fill-rule="evenodd" clip-rule="evenodd" fill="#67B0BC" d="M204.02,63.38c-1.59,3.6-2.72,6.72-4.38,9.53
		c-0.5,0.86-2.74,1.49-3.65,1.08c-0.88-0.4-1.75-2.49-1.46-3.5c0.87-2.98,2.16-5.87,3.65-8.6c0.44-0.81,2.31-1.59,3.12-1.29
		C202.44,61.02,203.19,62.46,204.02,63.38z"/>
</g>
<g>
	<path fill-rule="evenodd" clip-rule="evenodd" fill="#7CAD41" d="M189.18,75.96c-2.38,3.86-4.44,7.44-6.8,10.82
		c-0.36,0.52-2.32,0.51-3.07,0.02c-0.73-0.47-1.45-2.15-1.14-2.82c1.64-3.6,3.5-7.13,5.56-10.51c0.38-0.63,2.31-0.94,3.09-0.55
		C187.8,73.42,188.34,74.8,189.18,75.96z"/>
	<path fill-rule="evenodd" clip-rule="evenodd" fill="#7CAD41" d="M91.11,79.46c-2.75,3.51-5.27,6.9-8.05,10.07
		c-0.36,0.41-2.33,0.02-2.97-0.61c-0.64-0.63-1.07-2.33-0.66-3c1.87-3.08,3.96-6.04,6.22-8.85c0.51-0.63,2.19-0.84,3.05-0.5
		C89.57,76.91,90.08,78.16,91.11,79.46z"/>
	<path fill-rule="evenodd" clip-rule="evenodd" fill="#7CAD41" d="M114.75,226.92c-1.42,0.6-2.84,1.19-4.26,1.79
		c-1.61-3,0.85-13.83,3.55-15.09c0.75-0.35,2.26-0.37,2.65,0.1c0.73,0.88,1.43,2.36,1.19,3.36
		C117.06,220.41,115.83,223.65,114.75,226.92z"/>
	<path fill-rule="evenodd" clip-rule="evenodd" fill="#7CAD41" d="M187.38,204.88c-1.37,0.57-2.9,1.84-3.9,1.51
		c-3.3-1.07-6.49-2.57-9.53-4.25c-0.88-0.48-1.55-2.13-1.51-3.21c0.03-0.7,1.82-2.09,2.31-1.9c3.98,1.56,7.85,3.39,11.7,5.25
		C186.86,202.49,186.89,203.46,187.38,204.88z"/>
</g>
<g>
	<path fill-rule="evenodd" clip-rule="evenodd" fill="#F3D258" d="M159.7,66.02c1.86,1.71,2.7,2.23,3.2,2.98
		c2.1,3.18,4.25,6.35,6.04,9.72c0.51,0.96-0.15,2.55-0.27,3.85c-1.29-0.34-3.09-0.27-3.78-1.11c-2.52-3.06-4.94-6.29-6.79-9.77
		C157.53,70.65,158.92,68.56,159.7,66.02z"/>
	<path fill-rule="evenodd" clip-rule="evenodd" fill="#F3D258" d="M134.17,199.01c4.81,4.53,8.22,7.73,11.62,10.93
		c-1.2,0.97-3.07,3-3.48,2.74c-3.44-2.19-6.77-4.64-9.73-7.45C132.02,204.7,133.28,202.26,134.17,199.01z"/>
	<path fill-rule="evenodd" clip-rule="evenodd" fill="#F3D258" d="M211.97,91.46c-3.7-0.98-6.82-1.57-9.73-2.71
		c-0.99-0.39-2.15-2.35-1.92-3.27c0.24-0.97,2.18-2.35,3.13-2.18c3.58,0.65,7.1,1.73,10.54,2.94c0.7,0.25,1.57,2.23,1.3,2.57
		C214.39,89.94,213.01,90.68,211.97,91.46z"/>
</g>
<g>
	<path fill-rule="evenodd" clip-rule="evenodd" fill="#F2F1F0" d="M239.96,129.01c4.1,1.09,4.75,2.99,1.51,5.99
		c-2.02,1.88-3.91,3.9-5.87,5.85c-1.99,0.06-3.98,0.11-5.97,0.17c0.74-1.8,1.07-4,2.32-5.31
		C234.35,133.21,237.27,131.21,239.96,129.01z"/>
	<path fill-rule="evenodd" clip-rule="evenodd" fill="#F2F1F0" d="M132.8,54.48c3.66,2.69,7.27,5.22,10.68,8
		c0.36,0.29-0.08,2.4-0.74,2.92c-0.83,0.65-2.54,1.06-3.38,0.63c-2.92-1.52-5.78-3.26-8.32-5.33c-0.82-0.67-0.85-2.65-0.72-3.99
		C130.38,56.04,131.61,55.49,132.8,54.48z"/>
	<path fill-rule="evenodd" clip-rule="evenodd" fill="#F2F1F0" d="M213.06,170.16c-0.32,4.31-10.88,10.24-13.39,8.46
		c-0.78-0.55-1.1-3.48-0.59-3.84c3.35-2.37,6.89-4.53,10.59-6.27C210.49,168.13,212.22,169.72,213.06,170.16z"/>
	<path fill-rule="evenodd" clip-rule="evenodd" fill="#F2F1F0" d="M105.75,78.36c1.67,2.1,3.72,4,4.89,6.35
		c1.17,2.34,2.66,6.93,1.95,7.4c-4.18,2.76-4.75-2.32-6.84-4.13c-1.34-1.16-2.7-2.78-3.08-4.42c-0.34-1.48,0.63-3.27,1.03-4.92
		C104.38,78.54,105.06,78.45,105.75,78.36z"/>
	<path fill-rule="evenodd" clip-rule="evenodd" fill="#F2F1F0" d="M59.84,144.79c-2.11-1.31-3.09-1.66-3.7-2.33
		c-2.21-2.43-4.48-4.85-6.31-7.56c-0.53-0.78,0-2.75,0.69-3.7c0.35-0.48,2.56-0.38,3.2,0.23c2.48,2.38,4.95,4.89,6.81,7.75
		C61.21,140.23,60.19,142.39,59.84,144.79z"/>
	<path fill-rule="evenodd" clip-rule="evenodd" fill="#F2F1F0" d="M83.06,67.42c-1.12-0.68-2.4-1.46-3.69-2.24
		c1.03-1.04,1.88-2.48,3.12-3.04c2.71-1.21,5.56-2.32,8.46-2.75c1.36-0.2,2.96,1.28,4.45,1.99c-0.9,1.17-1.57,2.92-2.75,3.39
		C89.78,65.92,86.66,66.47,83.06,67.42z"/>
	<path fill-rule="evenodd" clip-rule="evenodd" fill="#F2F1F0" d="M100.37,185.85c1.11,2.18,1.67,3.18,2.13,4.22
		c1.29,2.88,2.71,5.71,3.71,8.69c0.31,0.92-0.24,2.71-1,3.26c-0.77,0.55-3.08,0.47-3.36-0.05c-1.83-3.49-3.5-7.1-4.73-10.83
		C96.84,190.27,98.5,188.77,100.37,185.85z"/>
	<path fill-rule="evenodd" clip-rule="evenodd" fill="#F2F1F0" d="M212.99,197.93c1.29,1.48,2.81,2.83,3.79,4.5
		c0.51,0.87,0.51,2.7-0.08,3.36c-0.6,0.68-2.61,1.03-3.31,0.54c-2.25-1.57-4.18-3.6-6.23-5.46c-0.44-2.17-0.88-4.35-1.32-6.52
		C208.23,195.54,210.61,196.73,212.99,197.93z"/>
	<path fill-rule="evenodd" clip-rule="evenodd" fill="#F2F1F0" d="M166.46,211.26c-1.98,4.03-3.63,7.63-5.56,11.06
		c-0.38,0.67-2.12,1.21-2.82,0.89c-0.81-0.37-1.83-1.98-1.59-2.65c1.29-3.73,2.82-7.38,4.55-10.93c0.33-0.68,2.07-1.25,2.85-0.97
		C164.87,209.01,165.53,210.27,166.46,211.26z"/>
</g>
<g>
	<path fill-rule="evenodd" clip-rule="evenodd" fill="#F43168" d="M58.97,169.91c-1.68,0.38-3.35,0.75-5.03,1.13
		c-0.25-1.07-1.07-2.48-0.67-3.14c1.81-2.96,3.77-5.89,6.1-8.44c0.82-0.89,2.86-0.67,4.34-0.96c-0.03,1.47,0.41,3.16-0.17,4.35
		C62.3,165.34,60.53,167.57,58.97,169.91z"/>
	<path fill-rule="evenodd" clip-rule="evenodd" fill="#F43168" d="M77.02,193.92c-2.78-1.42-5.87-2.46-8.22-4.4
		c-1.23-1.01-1.16-3.6-1.68-5.47c3.69,1.27,7.7,2,10.96,3.97C81.2,189.89,81.12,192.61,77.02,193.92z"/>
	<path fill-rule="evenodd" clip-rule="evenodd" fill="#F43168" d="M181.49,231.37c-4-4.33-7.09-7.67-10.17-11
		c1.35-1.01,3.71-3.06,3.91-2.87c2.96,2.85,5.76,5.89,8.24,9.16C183.87,227.17,182.53,229.01,181.49,231.37z"/>
	<path fill-rule="evenodd" clip-rule="evenodd" fill="#F43168" d="M238.84,106.23c0.9,2.1,1.98,4.15,2.66,6.32
		c0.83,2.62,1.11,5.27-2.48,6.24c-1.36-2.01-2.92-3.9-4.03-6.04C232.9,108.72,233.67,106.1,238.84,106.23z"/>
</g>
<g>
	<path fill-rule="evenodd" clip-rule="evenodd" fill="#C8834C" d="M253.03,89.95c-1.68-1.44-3.21-3.09-5.06-4.27
		c-4.58-2.94-9.02-6.35-14.01-8.33c-9.43-3.76-15.36-10.17-19.35-19.43C212,51.86,207.6,46.58,204,40.95
		c-6.72-5.05-14.12-6.61-22.51-5.46c-10.5,1.44-20.85,1.29-30.19-5.19c-5.82-4.03-12.52-5.09-19.56-4.15
		c-0.86,0.11-1.83-0.53-2.74-0.83c26.17-5.21,50.59,0.14,73.75,12.52c21.74,11.62,38.14,28.63,49.88,50.21
		C252.92,88.6,252.9,89.32,253.03,89.95z"/>
	<path fill-rule="evenodd" clip-rule="evenodd" fill="#C8834C" d="M73.81,59.96C70.15,71.1,61.62,76.3,50.92,79.22
		c-3.44,0.94-6.55,3.11-9.81,4.72c6.28-11.97,14.93-22.06,25.13-30.78c13.9-11.88,29.23-21.3,47.3-25.45
		c2.98-0.69,6.19-0.38,9.29-0.54c-0.95,1.37-1.65,3.02-2.89,4.05c-8.21,6.86-17.89,10.19-28.36,11.86
		C81.79,44.65,75.91,50.5,73.81,59.96z"/>
	<path fill-rule="evenodd" clip-rule="evenodd" fill="#C8834C" d="M265.8,153.99c-4.78,0.46-3.61,4.72-4.86,7.48
		c-0.86,1.9-2,3.67-3.01,5.51c-1.86-5.13-3.79-10.24-5.56-15.41c-2.56-7.45-1.93-14.85,1.35-21.87c3.74-8,5.95-16.21,5.26-25.08
		c5.04,11.09,7.04,22.8,6.99,34.91C265.96,144.36,265.86,149.17,265.8,153.99z"/>
	<path fill-rule="evenodd" clip-rule="evenodd" fill="#C8834C" d="M32.17,142.04c-0.73-3.1-1.75-6.18-2.08-9.33
		c-0.29-2.71-0.46-4.94-3.96-4.72c2.95-10.44,5.89-20.88,8.84-31.33c0.71,4.37,0.55,9.13,2.31,13.03c4.73,10.48,3.43,19.91-3.06,29
		C33.48,139.76,32.86,140.92,32.17,142.04z"/>
	<path fill-rule="evenodd" clip-rule="evenodd" fill="#C8834C" d="M82.09,235.95c-3.55-2.35-7.51-4.25-10.57-7.13
		c-12.12-11.38-23.88-23.12-30.18-39.05c-1.32-3.34-2.87-6.58-4.31-9.87c4.89,2.79,9.53,6.26,14.74,8.21
		c11.29,4.24,17.57,12.03,20.77,23.53C74.85,219.98,78.84,227.86,82.09,235.95z"/>
	<path fill-rule="evenodd" clip-rule="evenodd" fill="#C8834C" d="M175.03,250.83c-6.98,1.71-13.88,4.38-20.94,4.93
		c-17.5,1.38-34.61-1.33-51.14-7.37c-1.11-0.41-2.01-1.41-3-2.14c9.28,1.88,18.23,0.71,26.77-3.2c11.36-5.2,22.29-5.5,33.31,1.26
		C164.63,247.14,170,248.7,175.03,250.83z"/>
	<path fill-rule="evenodd" clip-rule="evenodd" fill="#C8834C" d="M243,200.09c-3.04,5.01-5.19,10.96-9.29,14.85
		c-8.93,8.47-18.85,15.9-28.42,23.69c-0.53,0.43-1.6,0.2-2.42,0.28c1.74-5.83,3.46-11.67,5.21-17.5
		c2.38-7.92,7.55-13.01,15.48-15.38C230.05,204.1,236.52,202.07,243,200.09z"/>
</g>
<path fill-rule="evenodd" clip-rule="evenodd" fill="#C8834C" d="M193.18,135.79c-1.46-2.58-2.91-5.17-4.37-7.75
	c-3.76-6-7.77-11.86-11.21-18.05c-3.92-7.05-7.54-8.99-15.42-7.23c-3.4,0.76-6.8,1.46-10.21,2.19c0,0,0,0,0,0
	c-3.66-0.71-7.32-1.42-10.98-2.13c0,0,0,0,0,0c-6.69-2.93-13.37-4.68-20.03,0.07c-1.53,1.33-3.48,2.4-4.52,4.04
	c-2.41,3.82-4.39,7.92-6.55,11.91c-2.33,1.06-4.66,2.13-6.99,3.19c-0.38,2.28-0.75,4.56-1.13,6.83c-0.4,0.98-0.81,1.96-1.21,2.95
	c0.47,5.38,0.94,10.77,1.42,16.15c-0.97,2.68-1.93,5.36-2.9,8.04c-0.04,0.99-0.07,1.98-0.11,2.96c8.67,4.95,16,10.99,18.82,21.25
	c0.5,1.81,2.77,3.12,4.23,4.66c10.07,0.92,19.81,2.68,29.4,6.5c12.46,4.97,21.5-1.19,24.62-14.25c1.08-4.54,3.67-9.45,7.06-12.55
	C191.86,156.59,195.95,147.54,193.18,135.79z M182.04,149.14c-1.38,13.8-13.7,26.48-28.32,29.93c-16.73,3.95-37.9-5.33-44.31-27.04
	c0,0,0,0,0,0c0.1-6.01,0.19-12.01,0.29-18.02c1.7-3.68,3.4-7.36,5.1-11.04c5.99-6.32,12.36-12.06,21.17-14.17
	c1.34-0.25,2.67-0.49,4-0.74c3.37-0.04,6.74-0.07,10.11-0.11c3.76,1.2,7.65,2.1,11.27,3.65
	C176.63,118.11,183.83,131.33,182.04,149.14z"/>
<path fill-rule="evenodd" clip-rule="evenodd" d="M193.29,123.32c-0.06-8.61,5.59-12.43,13.06-12.52
	c7.07-0.08,12.55,5.75,12.49,12.87c-0.07,7.16-5.66,12.59-12.83,12.47C198.93,136.03,193.11,130.16,193.29,123.32z"/>
<path fill-rule="evenodd" clip-rule="evenodd" d="M74.59,115.23c8.43-7.13,15.61-6.11,22.18,3.16c-0.34,3.88,0.23,8.16-1.23,11.56
	c-2.46,5.72-9.96,7.49-16.91,5.01c-4.12-1.47-7.61-9.15-6.3-14.25C72.81,118.81,73.82,117.05,74.59,115.23z"/>
</svg>
