<?xml version="1.0" encoding="utf-8"?>
<!-- Generator: Adobe Illustrator 16.0.0, SVG Export Plug-In . SVG Version: 6.00 Build 0)  -->
<!DOCTYPE svg PUBLIC "-//W3C//DTD SVG 1.1//EN" "http://www.w3.org/Graphics/SVG/1.1/DTD/svg11.dtd">
<svg version="1.1" id="Layer_1" xmlns="http://www.w3.org/2000/svg" xmlns:xlink="http://www.w3.org/1999/xlink" x="0px" y="0px"
	 width="320.96px" height="354px" viewBox="0 0 320.96 354" enable-background="new 0 0 320.96 354" xml:space="preserve">
<path fill-rule="evenodd" clip-rule="evenodd" fill="#F8E3A2" d="M187.36,185.8c1.18-0.87,2.77-1.5,3.49-2.66
	c6.23-10.08,13.28-19.5,23.8-25.38c19.61-10.95,41.48-6.79,56.01,11.72c11.84,15.09,18.23,32.79,19.3,52.16
	c0.05,0.83,0.29,1.84-0.08,2.47c-1.66,2.88-2.94,7.03-5.44,8.05c-1.98,0.8-6.12-1.67-8.29-3.74c-6.55-6.26-12.26-13.41-18.95-19.5
	c-6.41-5.84-13.04-11.76-22.13-13.39c-12.38-2.22-23.72,0.25-33.75,7.81c-1.63,1.23-2.27,3.76-3.38,5.68
	c-1.08,0.65-2.54,1.04-3.19,1.98c-5.03,7.34-10.18,14.62-14.71,22.27c-1.92,3.25-3.43,4.01-6.96,2.7
	c-6.94-2.59-14.06-4.67-21.11-6.95c-11.82-4.07-23.54-4.52-35.09,0.98c-7.9,2.61-11.71,9.18-13.6,16.3
	c-2.26,8.55-2.89,17.52-4.31,26.3c-2.91,17.96-14.59,31.3-32.19,34.77c-13.37,2.63-26.48,0.44-37.93-7.61
	c-2-1.41-4.29-4.71-3.92-6.65c0.5-2.61,3.01-5.53,5.46-6.93c6.41-3.68,13.45-6.26,19.88-9.91c7.68-4.37,10.91-12.05,11.54-20.31
	c0.57-7.54-0.76-15.21-0.69-22.82c0.1-12.11,0.4-24.37,9.33-34.02c7.08-7.66,15.99-10.64,26.37-9.18c1.47,0.21,2.99,0.02,4.49,0.02
	c1.95,0.19,4.04,0,5.83,0.65c10.34,3.74,20.61,7.68,30.9,11.55c11.24,6.99,22.49,13.98,33.94,21.11
	C177.2,210.53,182.28,198.17,187.36,185.8z"/>
<path fill-rule="evenodd" clip-rule="evenodd" fill="#F8CB3F" d="M151.97,229c7.05,2.29,14.17,4.37,21.11,6.95
	c3.52,1.31,5.03,0.55,6.96-2.7c4.53-7.65,9.67-14.93,14.71-22.27c0.65-0.95,2.11-1.33,3.19-1.98c10.22,16.57,22.8,31.19,37.03,44.4
	c11.28,10.48,23.05,20.46,33.96,31.3c4.54,4.51,7.44,10.68,11.08,16.1c-2.46,3.81-4.93,7.62-7.39,11.43
	c-17.13-1.72-33.56-6.19-48.85-14c-22.55-11.53-41.75-27.37-57.21-47.48C161.24,243.85,156.81,236.27,151.97,229z"/>
<path fill-rule="evenodd" clip-rule="evenodd" fill="#F5BC27" d="M151.97,229c4.83,7.27,9.27,14.85,14.58,21.76
	c15.46,20.11,34.66,35.95,57.21,47.48c15.29,7.82,31.72,12.28,48.85,14c0.16,3.47,0.33,6.94,0.49,10.41
	c-31.96,8.83-61.05,0.41-88.41-15.69c-28.59-16.83-49.99-40.78-65.5-70.03c-1.13-2.13-1.56-4.63-2.32-6.95
	C128.44,224.48,140.16,224.93,151.97,229z"/>
<path fill-rule="evenodd" clip-rule="evenodd" fill="#F8CB3F" d="M181.78,168.05c-2.44,0.01-4.98,0.45-7.29-0.1
	c-1.63-0.39-2.95-2.11-4.41-3.23c1.1-1.32,2.11-2.74,3.33-3.94c0.8-0.79,1.91-1.26,2.89-1.88c-6.09,0.64-10.1-2.71-13.57-7.09
	c-2.98-10.86-0.47-15.48,11.65-20.77c-0.93-6.82-1.89-13.8-2.84-20.78c-1.7-12.37-5.88-23.82-12.76-34.27
	c-4.59-1.37-9.19-2.74-13.78-4.1c-3.86,11.41-8.53,22.63-11.34,34.3c-2.6,10.82-3.18,22.13-4.7,33.22
	c-0.21,1.56-0.72,3.08-1.09,4.61c0,3.97-0.01,7.94-0.01,11.9c0.7,2.11,1.97,4.2,2.01,6.32c0.25,11.39,3.64,22.06,7.1,32.73
	c0.35,2.39,0.7,4.77,1.05,7.16c11.24,6.99,22.49,13.98,33.94,21.11c5.22-12.71,10.3-25.07,15.38-37.44
	C185.5,179.88,183.64,173.97,181.78,168.05z M134.38,167.51c-0.96-1.47-1.29-3.36-1.92-5.05c0.49-0.27,0.97-0.54,1.46-0.8
	c0.93,1.26,1.94,2.48,2.79,3.79c5.14,7.89,15.06,7.91,20.49,0.01c0.27-1.38,0.33-2.85,0.86-4.13c0.48-1.15,1.46-2.1,2.22-3.13
	c0.55,1.19,1.8,2.59,1.51,3.52c-0.84,2.76-2.29,5.34-3.5,8c0.81,0.19,1.79,0.21,2.6,0.39c-0.81-0.19-1.8-0.21-2.6-0.39
	C149.25,176.7,139.86,175.88,134.38,167.51z"/>
<path fill-rule="evenodd" clip-rule="evenodd" fill="#F5BC27" d="M159.8,42.68c-4.31-0.5-8.37-3.17-12.54-4.87
	c-2.73,10.64-5.45,21.27-8.18,31.91c-8.46,4.74-16.31,10.35-22.06,18.24c-12.57,17.22-17.61,37.09-18.94,57.96
	c-0.94,14.76,0.28,29.48,3.22,44.01c1.95,0.19,4.04,0,5.83,0.65c10.34,3.74,20.61,7.68,30.9,11.55c-0.35-2.39-0.7-4.77-1.05-7.16
	c-3.46-10.67-6.85-21.33-7.1-32.73c-0.05-2.12-1.31-4.22-2.01-6.32c-5.31,6.72-11.46,9.29-17.04,6.96c-5.22-2.17-8.34-6.12-8.5-11.8
	c-0.17-5.79,2.54-10.21,7.79-12.82c4.81-2.38,10.81-1.37,14.81,2.4c1.08,1.02,1.97,2.23,2.95,3.35c0.37-1.54,0.87-3.05,1.09-4.61
	c1.52-11.09,2.1-22.39,4.7-33.22c2.8-11.67,7.48-22.89,11.34-34.3c4.59,1.37,9.19,2.74,13.78,4.1c1.58-10.34,6.54-18.99,13.36-26.72
	c2.02-2.3,3.89-4.73,5.83-7.09C171.9,42.43,165.75,43.37,159.8,42.68z"/>
<path fill-rule="evenodd" clip-rule="evenodd" fill="#734526" d="M177.96,42.18c-6.06,0.24-12.21,1.19-18.16,0.5
	c-4.31-0.5-8.37-3.17-12.54-4.87c0.22-2.26,0.17-4.59,0.73-6.76c1.46-5.68,4.86-8.05,10.59-6.95c7.96,1.53,14.27,6.03,19,12.48
	C178.52,37.84,177.88,40.28,177.96,42.18z"/>
<path fill-rule="evenodd" clip-rule="evenodd" fill="#734526" d="M273.1,322.65c-0.16-3.47-0.33-6.94-0.49-10.41
	c2.46-3.81,4.93-7.62,7.39-11.43c6.82,4.1,6.59,15.1-0.6,19.75C277.61,321.72,275.22,321.97,273.1,322.65z"/>
<ellipse fill-rule="evenodd" clip-rule="evenodd" fill="#FFFFFF" cx="174.75" cy="145.38" rx="14" ry="14.38"/>
<path fill-rule="evenodd" clip-rule="evenodd" d="M174.95,155.05c-5.43-0.09-9.83-4.5-9.78-9.82c0.05-5.22,4.35-9.43,9.57-9.36
	c5.54,0.08,9.76,4.34,9.7,9.81C184.38,150.99,180.19,155.13,174.95,155.05z"/>
<path fill-rule="evenodd" clip-rule="evenodd" fill="#E99B9B" d="M181.78,168.05c-2.44,0.01-4.98,0.45-7.29-0.1
	c-1.63-0.39-4.32-0.7-4.41-3.23c0.42-3.55,1.62-3.27,2.84-4.47c0.8-0.79,2.4-0.73,3.38-1.35c6.04-0.23,9.71,0.77,11.61,3.56
	C188.17,165.67,184.5,167.42,181.78,168.05z"/>
<path fill-rule="evenodd" clip-rule="evenodd" fill="#FFFFFF" d="M127.87,155.93c-5.31,6.72-11.46,9.29-17.04,6.96
	c-5.22-2.17-8.34-6.12-8.5-11.8c-0.17-5.79,2.54-10.21,7.79-12.82c4.81-2.38,10.81-1.37,14.81,2.4c1.08,1.02,1.97,2.23,2.95,3.35
	C127.88,147.99,127.87,151.96,127.87,155.93z M125.03,150.53c0.07-5.64-4.02-9.76-9.66-9.71c-5.06,0.04-9.28,4.03-9.3,8.81
	c-0.03,5.36,4.02,10.65,8.14,10.62C120.59,160.21,124.96,156.29,125.03,150.53z"/>
<path fill-rule="evenodd" clip-rule="evenodd" d="M157.21,165.46c0.27-1.38,0.33-2.85,0.86-4.13c0.48-1.15,1.46-2.1,2.22-3.13
	c0.55,1.19,1.8,2.59,1.51,3.52c-0.84,2.76-2.29,5.34-3.5,8c-9.05,6.98-18.44,6.17-23.92-2.21c-0.96-1.47-1.29-3.36-1.92-5.05
	c0.49-0.27,0.97-0.54,1.46-0.8c0.93,1.26,1.94,2.48,2.79,3.79C141.85,173.34,151.78,173.35,157.21,165.46z"/>
<path fill-rule="evenodd" clip-rule="evenodd" fill="#E99B9B" d="M119.6,164.09c2.14,0.15,5.95,1.56,5.99,4.24
	c0.03,1.7-0.94,3.94-2.38,4.88c-1.46,0.95-3.38,0.85-5.05,0.9c-1.5,0.04-3.26,0.17-4.61,0.06c-2.84-0.24-6.52-0.58-6.59-4.21
	c-0.03-1.44,1.94-2.96,2.95-3.46C112.52,165.2,116.28,163.87,119.6,164.09z"/>
<path fill-rule="evenodd" clip-rule="evenodd" d="M125.03,150.53c-0.07,5.76-4.43,9.68-10.82,9.72c-4.12,0.02-8.17-5.27-8.14-10.62
	c0.03-4.78,4.24-8.77,9.3-8.81C121,140.78,125.1,144.89,125.03,150.53z"/>
</svg>
