<?xml version="1.0" encoding="utf-8"?>
<!-- Generator: Adobe Illustrator 16.0.0, SVG Export Plug-In . SVG Version: 6.00 Build 0)  -->
<!DOCTYPE svg PUBLIC "-//W3C//DTD SVG 1.1//EN" "http://www.w3.org/Graphics/SVG/1.1/DTD/svg11.dtd">
<svg version="1.1" id="Layer_1" xmlns="http://www.w3.org/2000/svg" xmlns:xlink="http://www.w3.org/1999/xlink" x="0px" y="0px"
	 width="333.96px" height="245.97px" viewBox="0 0 333.96 245.97" enable-background="new 0 0 333.96 245.97" xml:space="preserve">
<path fill-rule="evenodd" clip-rule="evenodd" fill="#2C2C2B" d="M287.14,202.07c-4.76,16.82-19.56,22.29-35.41,16.83
	c-7.9-2.72-12.92-8.36-14.3-16.85c0.42-1.34,1.26-2.7,1.18-4.01c-0.43-7.07,1.42-13.43,5.54-19.12
	c9.93-13.71,29.86-13.35,39.22,0.75C287.91,186.52,288.69,194.13,287.14,202.07z M254.97,194.83c-0.04,6.65,3.72,11.06,9.41,11.06
	c5.54,0,9.53-4.62,9.58-11.08c0.06-6.56-3.76-10.97-9.5-10.98C258.75,183.82,255.01,188.15,254.97,194.83z"/>
<path fill-rule="evenodd" clip-rule="evenodd" fill="#2C2C2B" d="M169.79,201.81c-1.75,3.36-3.11,7.01-5.33,10.03
	c-6.67,9.04-16.06,10.41-26.34,8.36c-9.14-1.82-15.08-7.22-17.51-16.3c-0.17-0.62-0.07-1.31-0.09-1.96
	c0.53-6.74,1.08-13.47,4.44-19.56c4.7-8.52,11.5-13.66,21.63-13.49c9.92,0.17,17.21,5.17,20.61,13.97
	C169.42,188.65,169.01,195.46,169.79,201.81z M156.79,195.22c0.1-6.58-4.12-11.64-9.72-11.66c-5.37-0.02-9.54,4.89-9.59,11.28
	c-0.05,6.47,3.87,11.06,9.52,11.14C152.86,206.05,156.69,201.85,156.79,195.22z"/>
<path fill-rule="evenodd" clip-rule="evenodd" fill="#2C2C2B" d="M185.98,202.03c13.04,0.1,26.07,0.2,39.1,0.3
	c-2.32,9.02-8.32,14.35-17.26,15.81c-10.21,1.67-19.19-0.93-25.56-9.75c-0.96-1.33-1.55-2.93-2.31-4.4
	c0.04-0.52,0.07-1.05,0.11-1.57C182.03,202.29,184.01,202.16,185.98,202.03z"/>
<path fill-rule="evenodd" clip-rule="evenodd" fill="#2C2C2B" d="M49.9,203.96c15.13,0,30.26-0.01,45.39-0.01
	c-2.86,9.35-10.5,14.91-20.82,15.14C62.02,219.38,53.45,214.1,49.9,203.96z"/>
<path fill-rule="evenodd" clip-rule="evenodd" fill="#FFFFFF" d="M32.01,159.08c2.76-3.41,5.6-6.86,10.7-5.4
	c4.17,1.19,6.96,3.98,7.26,8.45c0.29,4.42-1.85,7.96-5.93,9.37c-4.22,1.46-8.53,1.19-11.06-3.56c-0.62-1.33-1.24-2.66-1.86-3.99
	c-0.01-0.96-0.02-1.93-0.03-2.89C31.4,160.39,31.7,159.73,32.01,159.08z M46.8,163.22c-0.1-3.91-3.02-6.71-6.45-6.46
	c-3.51,0.26-5.4,2.26-5.54,5.75c-0.14,3.44,2.85,6.57,6.14,6.39C44.69,168.69,46.48,166.41,46.8,163.22z"/>
<path fill-rule="evenodd" clip-rule="evenodd" fill="#C9CACB" d="M31.3,180.75c0.03,1.07,0.07,2.13,0.1,3.2
	C31.37,182.88,31.33,181.81,31.3,180.75z"/>
<path fill-rule="evenodd" clip-rule="evenodd" fill="#C9CACB" d="M31.26,173.78c0,0.47,0.01,0.94,0.01,1.4
	C31.26,174.72,31.26,174.25,31.26,173.78z"/>
<path fill-rule="evenodd" clip-rule="evenodd" fill="#C9CACB" d="M74.28,75.75c0.32,0.27,0.64,0.53,0.96,0.8
	C74.92,76.29,74.6,76.02,74.28,75.75z"/>
<path fill-rule="evenodd" clip-rule="evenodd" fill="#FFFFFF" d="M102.35,162.02c-0.07,0.97-0.14,1.95-0.21,2.92
	c-2.27,3.94-4.58,7.78-10.13,7.01c-4.37-0.61-8.46-4.5-8.99-8.65c-0.45-3.55,3.51-8.81,7.62-9.86c4.72-1.2,7.98,1.08,10.37,4.88
	C101.69,159.41,101.92,160.78,102.35,162.02z M93.22,156.6c-3.85-0.07-6.53,2.44-6.4,5.84c0.14,3.6,2.02,5.96,5.68,6.37
	c3.29,0.36,6.57-2.85,6.31-6.18C98.54,159.05,96.52,156.91,93.22,156.6z"/>
<g>
	<path fill-rule="evenodd" clip-rule="evenodd" fill="#AFB0B1" d="M31.82,185.92c12.05-0.27,24.1-0.54,36.15-0.81
		c3.34-0.02,6.68-0.03,10.02-0.05c8,0,15.99,0,23.99,0c4.59,0.21,8.71,1.25,10.69,6.07c-0.53,3.58-1.06,7.16-1.59,10.74
		c-5.26,0.69-10.52,1.38-15.79,2.06c-15.13,0-30.26,0.01-45.39,0.01c-4.97,0-9.94-0.03-14.92,0c-4.42,0.03-7.98-1.43-8.9-6.12
		C24.8,191.28,26.48,188.13,31.82,185.92z"/>
	<path fill-rule="evenodd" clip-rule="evenodd" fill="#AFB0B1" d="M296.93,202.1c-0.08-3.75-0.02-7.52-0.28-11.26
		c-0.33-4.52,1.56-7.15,6.01-7.96c6.95,2.82,9.52,8.74,6.91,15.9C307.72,203.84,302.47,205.22,296.93,202.1z"/>
	<path fill-rule="evenodd" clip-rule="evenodd" fill="#AFB0B1" d="M66.76,162.2c3.65,0,7.31-0.12,10.96,0.09
		c0.85,0.05,1.64,1.19,2.45,1.82c-0.79,0.62-1.56,1.73-2.39,1.79c-6.74,0.47-13.5,0.93-20.25,0.95c-1.53,0-3.07-1.71-4.61-2.63
		c1.46-0.69,2.87-1.83,4.38-1.98c3.13-0.31,6.3-0.09,9.46-0.09C66.76,162.16,66.76,162.18,66.76,162.2z"/>
	<path fill-rule="evenodd" clip-rule="evenodd" fill="#AFB0B1" d="M68.01,181.02c-4.14-0.07-8.29-0.02-12.42-0.3
		c-1.02-0.07-1.97-1.19-2.96-1.82c0.97-0.64,1.92-1.8,2.9-1.83c7.29-0.18,14.59-0.21,21.89-0.09c1.05,0.02,2.08,1.04,3.12,1.6
		c-0.85,0.81-1.71,1.62-2.56,2.42C74.65,181.01,71.33,181.02,68.01,181.02z"/>
	<path fill-rule="evenodd" clip-rule="evenodd" fill="#AFB0B1" d="M79.74,159c-8.12,0-16.24,0.05-24.36-0.08
		c-0.82-0.01-1.63-1.11-2.44-1.71c0.79-0.69,1.56-1.97,2.36-1.98c7.32-0.14,14.64-0.16,21.96,0.07c1.05,0.03,2.06,1.61,3.09,2.48
		C80.15,158.18,79.94,158.59,79.74,159z"/>
	<path fill-rule="evenodd" clip-rule="evenodd" fill="#AFB0B1" d="M51.89,169.78c9.72,0,18.09-0.03,26.46,0.06
		c0.56,0.01,1.46,0.86,1.55,1.42c0.08,0.47-0.79,1.59-1.24,1.59c-8.25,0.04-16.5-0.04-24.75-0.18
		C53.57,172.67,53.25,171.76,51.89,169.78z"/>
</g>
<g>
	<path fill-rule="evenodd" clip-rule="evenodd" fill="#E74744" d="M106.9,66.02c0.75-0.65,1.43-1.43,2.27-1.93
		c1.12-0.67,2.38-1.12,4.05-1.88c1.42,1.54,3.68,2.97,4.29,4.93c0.71,2.24,0.71,5.37-0.39,7.32c-0.87,1.54-4.21,2.99-5.82,2.48
		c-1.89-0.6-3.36-3.21-4.51-5.23c-0.67-1.17-0.37-2.9-0.51-4.38C106.49,66.89,106.69,66.45,106.9,66.02z"/>
	<path fill-rule="evenodd" clip-rule="evenodd" fill="#E74744" d="M71.93,71.86c0.04-0.16,0.08-0.32,0.11-0.49
		c0.92-5.9,3.6-8.99,7.33-8.1c4.64,1.1,5.06,4.75,4.63,8.65c-0.48,4.29-2.48,5.35-8.57,4.71c0,0-0.19-0.08-0.19-0.08
		c-0.32-0.26-0.64-0.53-0.96-0.8C73.5,74.46,72.72,73.16,71.93,71.86z"/>
	<path fill-rule="evenodd" clip-rule="evenodd" fill="#E74744" d="M113.99,80.28c-2.31-0.11-4.63-0.23-6.94-0.34
		c-7.69,0-15.37,0.01-23.06,0.01c-2.66,0-5.31,0-7.97,0c-4.99,0.04-9.97,0.13-14.96,0.13c-9.56,0-13.02,2.59-14.64,11.98
		c-2.6,15.06-4.85,30.18-7.37,45.26c-0.25,1.5-1.25,2.89-1.95,4.3c-1.73,3.5-3.49,6.98-5.24,10.47c0.05,2.33,0.09,4.67,0.14,7
		c2.76-3.41,5.6-6.86,10.7-5.4c4.17,1.19,6.96,3.98,7.26,8.45c0.29,4.42-1.85,7.96-5.93,9.37c-4.22,1.46-8.53,1.19-11.06-3.57
		c-0.58,0.74-1.16,1.48-1.74,2.22c0.01,1.21,0.01,2.42,0.02,3.63c0,0.47,0.01,0.94,0.01,1.4c0.01,1.86,0.02,3.71,0.03,5.57
		c0.03,1.07,0.07,2.13,0.1,3.2c0.14,0.66,0.28,1.32,0.42,1.98c12.05-0.27,24.1-0.54,36.15-0.81c3.34-0.02,6.68-0.03,10.02-0.05
		c8,0,15.99,0,23.99,0c0.31-5.95,0.66-11.9,0.9-17.86c0.03-0.75-0.48-1.51-0.74-2.27c-2.27,3.94-4.58,7.78-10.13,7.01
		c-4.37-0.61-8.46-4.5-8.99-8.65c-0.45-3.55,3.51-8.81,7.62-9.86c4.72-1.2,7.98,1.08,10.37,4.88c0.68,1.09,0.9,2.46,1.34,3.7
		c0.21-3.96,0.32-7.92,0.68-11.86c0.18-1.93,0.19-4.54,1.38-5.61c5.24-4.72,4.51-11.23,5.44-17.08c1.97-12.39,3.45-24.87,4.83-37.35
		C115.04,86.9,114.25,83.56,113.99,80.28z M57.3,162.24c3.13-0.31,6.3-0.09,9.46-0.09c0,0.02,0,0.03,0,0.05
		c3.65,0,7.31-0.12,10.96,0.09c0.85,0.05,1.64,1.19,2.45,1.82c-0.79,0.62-1.56,1.73-2.39,1.79c-6.74,0.47-13.5,0.93-20.25,0.95
		c-1.53,0-3.07-1.71-4.61-2.63C54.37,163.53,55.79,162.39,57.3,162.24z M52.94,157.21c0.79-0.69,1.56-1.97,2.36-1.98
		c7.32-0.14,14.64-0.16,21.96,0.07c1.05,0.03,2.06,1.61,3.09,2.48c-0.2,0.41-0.4,0.82-0.61,1.22c-8.12,0-16.24,0.05-24.36-0.08
		C54.56,158.91,53.76,157.8,52.94,157.21z M78.35,169.84c0.56,0.01,1.46,0.86,1.55,1.42c0.08,0.47-0.79,1.59-1.24,1.59
		c-8.25,0.04-16.5-0.04-24.75-0.18c-0.34-0.01-0.66-0.91-2.02-2.89C61.61,169.78,69.98,169.75,78.35,169.84z M77.98,181
		c-3.32,0.01-6.65,0.02-9.97,0.02c-4.14-0.07-8.29-0.02-12.42-0.3c-1.02-0.07-1.97-1.19-2.96-1.82c0.97-0.64,1.92-1.8,2.9-1.83
		c7.29-0.18,14.59-0.21,21.89-0.09c1.05,0.02,2.08,1.04,3.12,1.6C79.69,179.39,78.83,180.19,77.98,181z M109.92,96.86
		c-1.42,12.19-3.22,24.33-4.98,36.47c-0.58,3.98-3.3,5.57-7.07,5.56c-14.96-0.04-29.92-0.14-44.87-0.21
		c-3.02-0.55-7.23,2.63-8.71-2.77c0.52-3.29,1.04-6.59,1.55-9.88c1.72-10.21,3.36-20.42,5.19-30.61c0.74-4.13,3.55-6.35,7.72-6.36
		c11.43-0.01,22.87,0.14,34.3,0.22c4.98,0.3,9.95,0.61,14.93,0.91C108.67,92.42,110.16,94.74,109.92,96.86z"/>
</g>
<g>
	<path fill-rule="evenodd" clip-rule="evenodd" fill="#9DD5E1" d="M45.84,126.03c1.72-10.21,3.36-20.42,5.19-30.61
		c0.74-4.13,3.55-6.35,7.72-6.36c11.43-0.01,22.87,0.14,34.3,0.22c-2.65,2.37-5.17,4.93-7.99,7.08
		C72.04,106.32,58.93,116.15,45.84,126.03z"/>
	<path fill-rule="evenodd" clip-rule="evenodd" fill="#9DD5E1" d="M107.98,90.2c-6.9,5.4-13.8,10.79-20.7,16.19
		c-9.11,7.14-18.22,14.29-27.33,21.43c4.15,0.22,6.88,2.13,8.16,6.29c-0.83,0.21-1.31,0.44-1.4,0.33c-3.86-4.35-7.68-6.3-11.64-0.07
		c-0.14,0.22-1.19-0.14-1.82-0.23c0,0-0.1-0.05-0.1-0.05c-2.96,0.61-5.91,1.22-8.87,1.83c1.48,5.4,5.69,2.22,8.71,2.77
		c14.96,0.07,29.92,0.17,44.87,0.21c3.77,0.01,6.5-1.59,7.07-5.56c1.76-12.14,3.55-24.29,4.98-36.47
		C110.16,94.74,108.67,92.42,107.98,90.2z M94.08,134.58c-1.92-1.39-3.83-3.86-5.76-3.89c-2.35-0.03-4.74,2-7.63,3.38
		c0.61-3.57,2.57-5.46,5.71-5.97c4.28-0.69,6.74,1.79,8.44,5.26C94.59,133.77,94.33,134.18,94.08,134.58z"/>
</g>
<g>
	<path fill-rule="evenodd" clip-rule="evenodd" fill="#AFB0B1" d="M205.98,81.98c9.02,2.01,18.03,4.06,27.06,6.02
		c2.25,0.49,4.55,0.71,6.83,1.05c0.25-3.04,0.49-6.08,0.74-9.12c-4.76-0.22-9.53-0.43-15.67-0.71c4.18-5.68,7.34-9.98,11.49-15.62
		c1.65,5.85,2.91,10.31,4.17,14.76c1.46-2.09,2.92-4.19,4.38-6.28c-0.95-2.74-1.91-5.48-3.08-8.87c4.88,1.06,8.96,2.14,13.11,2.77
		c3.07,0.47,2.79,2.03,1.94,4.1c1.33,1.3,2.67,2.61,4.01,3.91c2.62-3.94,5.56-6.51,10.88-4.34c0.88,0.36,3.86-2.26,4.37-3.96
		c0.32-1.07-1.89-4.02-3.37-4.36c-17.22-3.92-34.52-7.5-51.8-11.18c-1.78-0.4-3.55-0.81-5.33-1.2
		c-35.05-7.62-70.1-15.24-105.15-22.85c-7.91-1.72-15.82-3.46-23.75-5.1c-2.97-0.61-5.37,0.86-5.23,3.69
		c0.07,1.5,2.45,3.55,4.21,4.18c4.1,1.48,8.45,2.26,13.67,3.56c-4.51,5.78-7.67,11.96-12.7,15.47c-2.81,1.96-8.71-0.51-13.22-0.98
		c-0.17-0.02-0.33-0.01-0.5-0.01c-1.95-0.41-4-1.35-5.81-1.01c-0.9,0.17-2.29,3.22-1.83,4.02c1,1.72,2.98,2.93,4.71,4.14
		c0.75,0.52,1.86,0.54,2.8,0.78c6.8,1.4,13.62,2.69,20.38,4.23c5.08,1.15,10.73,1.4,13.6,6.96c0.75-0.65,1.43-1.43,2.27-1.93
		c1.12-0.67,2.38-1.12,4.05-1.88c1.42,1.54,3.68,2.97,4.29,4.93c0.71,2.24,0.71,5.37-0.39,7.32c-0.87,1.54-4.21,2.99-5.82,2.48
		c-1.89-0.6-3.36-3.21-4.51-5.23c-0.67-1.17-0.37-2.9-0.51-4.38c-4.94-0.11-9.9,0-14.81-0.44c-1.72-0.15-3.77-1.25-4.88-2.58
		c-2.46-2.93-7.51-4.51-11.09-2.88c-3.48,1.59-4.99,6-3.57,10.44c0.04-0.16,0.08-0.32,0.11-0.49c0.92-5.9,3.6-8.99,7.33-8.1
		c4.64,1.1,5.06,4.75,4.63,8.65c-0.48,4.29-2.48,5.35-8.57,4.71c0.2,1.1,0.39,2.21,0.59,3.31c2.65,0,5.31,0,7.97,0
		c0.31-4.14,2.21-6.33,6.68-5.97c3.14,0.25,6.32,0.16,9.48,0.04c4.2-0.15,6.64,1.57,6.89,5.92c2.32,0.11,4.63,0.23,6.94,0.34
		c2-0.09,3.99-0.18,5.99-0.27c1.66-4.68,3.32-9.35,4.98-14.02c0.34-0.33,0.69-0.65,1.03-0.98
		C152.65,70.66,179.32,76.32,205.98,81.98 M207.93,73.96c-0.97,0.04-1.94,0.08-2.91,0.12 M214.12,74.89
		c-1.55-6.02-3.1-12.05-4.81-18.67c3.97,0.66,7.77,1.29,11.56,1.92c3.17,0.81,6.33,1.62,10.56,2.71
		c-3.96,5.35-7.55,10.58-11.66,15.34C219.18,76.87,216.06,75.37,214.12,74.89 M205.01,74.07c-4.92-1.04-9.83-2.07-15.74-3.32
		c4.44-5.94,8.21-10.99,11.98-16.04c0.63,0.05,1.27,0.1,1.91,0.16c1.59,6.36,3.18,12.73,4.77,19.09 M93.94,50.52
		c3.94-5.85,7.19-10.67,10.44-15.5c0.46,0.03,0.92,0.05,1.38,0.08c1.53,5.67,3.06,11.34,4.93,18.25
		C104.73,52.34,100.01,51.55,93.94,50.52z M122.48,51.55c-1.29,1.5-3.58,2.12-5.42,3.15c-1.6-6.32-3.2-12.65-5.23-20.7
		c7.03,2.21,13.13,4.12,19.22,6.03C128.23,43.9,125.59,47.93,122.48,51.55z M126.07,57.88c3.01-5.25,6.02-10.49,9.03-15.74
		c0,0,0,0,0,0c0.98,1.15,2.41,2.15,2.85,3.48c1.53,4.69,2.71,9.49,4.4,15.61C136.33,60,131.2,58.94,126.07,57.88z M148.35,61.91
		c-1.96-6.48-3.93-12.95-6.21-20.49c6.75,1.32,12.61,2.46,19.11,3.73c-4.13,6.16-7.74,11.53-11.35,16.9
		C149.39,62.01,148.87,61.96,148.35,61.91z M155.64,63.61c3.35-5.04,6.2-9.45,9.18-13.76c1.03-1.48,2.4-2.8,3.32,0.21h0
		c1.26,5.64,2.52,11.28,3.78,16.92C166.7,65.9,161.49,64.82,155.64,63.61z M182.89,68.78c-0.43,0.51-1.9,0.14-2.89,0.18
		c-2.06-6.66-4.13-13.32-6.19-19.98h0c6.94,1.08,13.88,2.16,22.24,3.45C191.21,58.52,187.13,63.72,182.89,68.78z"/>
	<path fill-rule="evenodd" clip-rule="evenodd" fill="#AFB0B1" d="M263.93,87.01c0.67,2.57,1.34,5.15,2.01,7.72
		c0.34,0.1,0.69,0.2,1.03,0.31c2.33-0.08,4.66-0.16,6.99-0.25C273.84,88.56,272.22,87.31,263.93,87.01z"/>
</g>
<path fill-rule="evenodd" clip-rule="evenodd" fill="#C9CACB" d="M260.95,103.74c6.01-0.03,12.02-0.05,18.04-0.08
	c0.66,0.07,1.31,0.18,1.97,0.2c10.41,0.26,10.41,0.25,11.57,10.27c-0.03,3.29-0.07,6.58-0.1,9.87c-0.03,5.99-0.05,11.97-0.08,17.96
	c-0.48,4.67-0.96,9.34-1.44,14.01c-2.63,0.11-5.27,0.23-7.9,0.34c-5.02-0.01-10.04-0.03-15.06-0.04
	c-9.44-0.09-18.89-0.21-28.33-0.28c-7.06-0.05-7.49-0.43-7.52-7.72c-0.06-13.76-0.07-27.51-0.1-41.27c1.99-1.18,3.97-2.36,5.96-3.54
	C245.61,103.55,253.28,103.64,260.95,103.74z M292.07,114.66c-1.89-1.17-2.17-1.5-2.45-1.5c-17.63-0.07-35.26-0.15-52.89-0.07
	c-0.88,0-1.75,1.35-2.62,2.08c1,0.6,1.99,1.72,3,1.73c16.64,0.11,33.27,0.13,49.91,0C288.38,116.89,289.74,115.73,292.07,114.66z
	 M234.21,145.51c3.7,2.41,51.84,2.15,54.46-0.29C284.52,143.18,237.22,143.43,234.21,145.51z M290.83,131.25
	c-4.68-3.17-52.82-2.98-56.19,0C253.42,131.25,271.57,131.25,290.83,131.25z"/>
<path fill-rule="evenodd" clip-rule="evenodd" fill="#AFB0B1" d="M254.97,194.83c0.04-6.69,3.78-11.01,9.49-11
	c5.74,0.01,9.56,4.42,9.5,10.98c-0.05,6.46-4.04,11.08-9.58,11.08C258.69,205.9,254.93,201.48,254.97,194.83z"/>
<path fill-rule="evenodd" clip-rule="evenodd" fill="#AFB0B1" d="M156.79,195.22c-0.1,6.63-3.93,10.83-9.8,10.75
	c-5.65-0.08-9.57-4.66-9.52-11.14c0.05-6.38,4.23-11.29,9.59-11.28C152.68,183.58,156.9,188.63,156.79,195.22z"/>
<path fill-rule="evenodd" clip-rule="evenodd" fill="#2C2C2B" d="M245.99,94.88c4.01-0.35,8.02-0.69,12.03-1.04
	c2.64,0.3,5.28,0.6,7.92,0.9c-0.67-2.57-1.34-5.15-2.01-7.72c-0.99-4.34-1.98-8.68-2.97-13.02c-1.34-1.3-2.67-2.61-4.01-3.91
	c-3.99,0.67-7.98,1.33-11.97,2c-1.46,2.09-2.92,4.19-4.38,6.28c0,0.52,0,1.05,0.01,1.57c-0.25,3.04-0.49,6.08-0.74,9.11
	c-0.47,1.93-0.94,3.87-1.41,5.8c0.83,0.14,1.66,0.28,2.48,0.42C242.63,95.14,244.31,95.01,245.99,94.88"/>
<path fill-rule="evenodd" clip-rule="evenodd" fill="#DC3B3B" d="M302.59,108.97c0.06-1.99,0.22-3.99,0.18-5.98
	c-0.13-5.6-2.31-7.88-7.82-8.03c-3.65-0.1-7.31,0.08-10.97,0.13c-3.33-0.1-6.67-0.2-10.01-0.3c-2.33,0.08-4.66,0.16-6.99,0.25
	c-0.34-0.1-0.69-0.2-1.03-0.31c-2.64-0.3-5.28-0.6-7.92-0.9c-4.01,0.35-8.02,0.69-12.03,1.04c-1.68,0.13-3.36,0.26-5.04,0.39
	c-0.83-0.14-1.66-0.28-2.48-0.42c-5.52,0.11-11.03,0.23-16.55,0.34c0.03,3.92,0.06,7.85,0.09,11.77
	c-0.02,25.56-0.11,51.13,0.03,76.69c0.02,4-0.9,5.54-5.2,5.41c-9.95-0.3-19.92-0.08-29.88-0.08c-3.64-0.02-7.27-0.03-10.91-0.05
	c-0.01,4.34-0.03,8.69-0.04,13.03c0.33,0.08,0.65,0.16,0.98,0.24c1.02,0.06,2.04,0.13,3.06,0.2c1.97-0.13,3.95-0.25,5.92-0.38
	c13.04,0.1,26.07,0.2,39.1,0.3c2.28-0.17,4.56-0.35,6.83-0.53c0.39-5.28,0.17-10.7,1.3-15.82c3.51-15.98,15.62-24.71,33.73-24.96
	c4.36,1.88,8.71,3.76,13.07,5.64c2.31,2.09,4.95,3.92,6.88,6.32c6.88,8.56,7.42,18.76,6.93,29.14c1.04,0,2.07-0.01,3.11-0.01
	c-0.08-3.75-0.02-7.52-0.28-11.26c-0.33-4.52,1.56-7.15,6.01-7.96c-0.02-13.36-0.04-26.73-0.06-40.09
	C302.59,131.52,302.59,120.24,302.59,108.97z"/>
<path fill-rule="evenodd" clip-rule="evenodd" d="M46.8,163.22c-0.32,3.19-2.11,5.47-5.85,5.67c-3.29,0.18-6.27-2.95-6.14-6.39
	c0.14-3.49,2.02-5.49,5.54-5.75C43.78,156.51,46.7,159.31,46.8,163.22z"/>
<g>
	<path fill-rule="evenodd" clip-rule="evenodd" fill="#C5E6ED" d="M45.84,126.03c13.08-9.88,26.2-19.72,39.23-29.67
		c2.82-2.15,5.33-4.71,7.99-7.08c4.98,0.3,9.95,0.61,14.93,0.91c-6.9,5.4-13.8,10.79-20.7,16.19c-9.11,7.14-18.22,14.29-27.33,21.43
		c-2.27,2.09-4.54,4.18-6.8,6.27c-2.96,0.61-5.91,1.22-8.87,1.83C44.8,132.62,45.32,129.33,45.84,126.03z"/>
	<path fill-rule="evenodd" clip-rule="evenodd" fill="#C5E6ED" d="M150.04,92.32c3.11-0.06,6.22-0.12,9.34-0.19
		c2.68-0.06,4.05,1.06,3.56,3.89c-4.95,7.6-10.04,15.12-14.82,22.82c-3.9,6.29-7.45,12.8-11.15,19.21c-5.36,0-10.71-0.01-16.07-0.01
		c1.03-1.85,1.95-3.77,3.09-5.55C132.65,119.08,141.35,105.71,150.04,92.32z"/>
</g>
<g>
	<path fill-rule="evenodd" clip-rule="evenodd" fill="#9DD5E1" d="M150.04,92.32c-8.69,13.38-17.39,26.76-26.04,40.16
		c-1.15,1.78-2.07,3.7-3.09,5.55c-0.92-0.91-2.72-1.92-2.63-2.71c1.52-12.88,3.07-25.77,5.25-38.55c0.31-1.84,3.86-4.27,6.07-4.44
		C136.36,91.81,143.22,92.25,150.04,92.32z"/>
	<path fill-rule="evenodd" clip-rule="evenodd" fill="#9DD5E1" d="M136.97,138.05c3.7-6.41,7.25-12.92,11.15-19.21
		c4.78-7.7,9.86-15.22,14.82-22.82c0.15,0.68,0.3,1.35,0.45,2.03c-0.16,0.3-0.15,0.59,0.05,0.87c0,12.89,0,25.78,0,39.13
		C154.11,138.05,145.54,138.05,136.97,138.05z"/>
</g>
<path fill-rule="evenodd" clip-rule="evenodd" d="M156.07,149.88c-1.81,0-3.72,0.34-5.41-0.12c-1.1-0.3-2.65-1.76-2.63-2.67
	c0.03-1,1.56-2.7,2.55-2.79c3.76-0.36,7.6-0.42,11.35-0.06c1.09,0.1,2.02,1.99,3.02,3.06c-0.98,0.88-1.85,2.27-2.98,2.52
	c-1.89,0.42-3.93,0.12-5.91,0.12C156.07,149.92,156.07,149.9,156.07,149.88z"/>
<path fill-rule="evenodd" clip-rule="evenodd" fill="#DC3B3B" d="M175.87,90.91c-0.22-7.07-3.07-10.25-10.48-10.44
	c-12.64-0.32-25.29-0.21-37.93-0.3c-2.49-0.02-4.98-0.11-7.48-0.17c-2,0.09-3.99,0.18-5.99,0.27c0.26,3.28,1.05,6.62,0.69,9.84
	c-1.38,12.48-2.86,24.95-4.83,37.35c-0.93,5.85-0.19,12.36-5.44,17.08c-1.19,1.07-1.2,3.68-1.38,5.61
	c-0.36,3.94-0.47,7.91-0.68,11.86c-0.07,0.97-0.14,1.95-0.21,2.92c0.26,0.76,0.77,1.52,0.74,2.27c-0.24,5.96-0.59,11.91-0.9,17.86
	c4.59,0.21,8.71,1.25,10.69,6.07c-0.53,3.58-1.06,7.16-1.59,10.74c1.34-0.29,2.69-0.58,4.03-0.87c0.21-3.69,0.42-7.37,0.62-11.06
	c0.44-1.77,0.83-3.55,1.33-5.3c5.42-19.15,25.26-28.69,42.24-20.26c9.14,4.54,13.69,12.62,16.45,21.99
	c0.06-25.36,0.13-50.71,0.19-76.07c0.01-5.14,0.04-10.28,0.06-15.41C175.96,93.57,175.91,92.24,175.87,90.91z M136.97,138.05
	c-5.36,0-10.71-0.01-16.07-0.01c-0.92-0.91-2.72-1.92-2.63-2.71c1.52-12.88,3.07-25.77,5.25-38.55c0.31-1.84,3.86-4.27,6.07-4.44
	c6.78-0.52,13.63-0.08,20.45-0.01c3.11-0.06,6.22-0.12,9.34-0.19c2.68-0.06,4.05,1.06,3.56,3.89c0.15,0.68,0.3,1.35,0.45,2.03
	c-0.16,0.3-0.15,0.59,0.05,0.87c0,12.89,0,25.78,0,39.13C154.11,138.05,145.54,138.05,136.97,138.05z M161.98,149.82
	c-1.89,0.42-3.93,0.12-5.91,0.12c0-0.02,0-0.04,0-0.05c-1.81,0-3.72,0.34-5.41-0.12c-1.1-0.3-2.65-1.76-2.63-2.67
	c0.03-1,1.56-2.7,2.55-2.79c3.76-0.36,7.6-0.42,11.35-0.06c1.09,0.1,2.02,1.99,3.02,3.06C163.98,148.18,163.11,149.57,161.98,149.82
	z"/>
<path fill-rule="evenodd" clip-rule="evenodd" d="M53.25,134.13c0,0-0.1-0.05-0.1-0.05c0.81-1.55,1.02-4.08,6.8-6.27
	c4.15,0.22,6.88,2.13,8.16,6.29c-0.83,0.21-1.31,0.44-1.4,0.33c-3.86-4.35-7.68-6.3-11.64-0.07
	C54.94,134.59,53.88,134.22,53.25,134.13z"/>
<path fill-rule="evenodd" clip-rule="evenodd" d="M94.08,134.58c-1.92-1.39-3.83-3.86-5.76-3.89c-2.35-0.03-4.74,2-7.63,3.38
	c0.61-3.57,2.57-5.46,5.71-5.97c4.28-0.69,6.74,1.79,8.44,5.26C94.59,133.77,94.33,134.18,94.08,134.58z"/>
<path fill-rule="evenodd" clip-rule="evenodd" d="M93.22,156.6c3.3,0.31,5.31,2.45,5.59,6.03c0.26,3.32-3.03,6.54-6.31,6.18
	c-3.66-0.41-5.54-2.77-5.68-6.37C86.7,159.03,89.37,156.53,93.22,156.6z"/>
<g>
	<path fill-rule="evenodd" clip-rule="evenodd" fill="#AFB0B1" d="M287.14,202.07c1.55-7.94,0.78-15.55-3.77-22.4
		c-9.36-14.1-29.3-14.46-39.22-0.75c-4.12,5.69-5.97,12.05-5.54,19.12c0.08,1.31-0.76,2.67-1.18,4.01
		c-1.84-0.08-3.67-0.17-5.51-0.25c0.4-5.28,0.17-10.7,1.3-15.82c3.51-15.98,15.62-24.71,33.73-24.96c4.36,1.88,8.71,3.76,13.07,5.63
		c2.31,2.09,4.95,3.92,6.88,6.32c6.88,8.56,7.42,18.76,6.93,29.14C291.59,202.1,289.36,202.08,287.14,202.07z"/>
	<path fill-rule="evenodd" clip-rule="evenodd" fill="#AFB0B1" d="M169.79,201.81c-0.77-6.35-0.36-13.16-2.6-18.95
		c-3.4-8.81-10.69-13.8-20.61-13.97c-10.13-0.18-16.93,4.96-21.63,13.49c-3.36,6.09-3.91,12.82-4.44,19.56
		c-1.8-0.31-3.61-0.61-5.41-0.92c0.21-3.69,0.42-7.37,0.62-11.06c0.44-1.77,0.83-3.55,1.33-5.3c5.42-19.15,25.26-28.69,42.24-20.26
		c9.14,4.54,13.69,12.62,16.46,21.99c0.1,0.85,0.21,1.71,0.31,2.56c-0.01,4.34-0.03,8.69-0.04,13.03
		C173.94,201.92,171.86,201.87,169.79,201.81z"/>
	<path fill-rule="evenodd" clip-rule="evenodd" fill="#AFB0B1" d="M292.07,114.66c-2.33,1.07-3.69,2.23-5.06,2.24
		c-16.64,0.12-33.27,0.11-49.91,0c-1-0.01-2-1.13-3-1.73c0.87-0.72,1.75-2.07,2.62-2.08c17.63-0.08,35.26,0,52.89,0.07
		C289.9,113.16,290.18,113.48,292.07,114.66z"/>
	<path fill-rule="evenodd" clip-rule="evenodd" fill="#AFB0B1" d="M234.21,145.51c3.01-2.08,50.31-2.33,54.46-0.29
		C286.05,147.66,237.92,147.92,234.21,145.51z"/>
	<path fill-rule="evenodd" clip-rule="evenodd" fill="#AFB0B1" d="M290.83,131.25c-19.26,0-37.42,0-56.19,0
		C238.01,128.27,286.16,128.08,290.83,131.25z"/>
	<path fill-rule="evenodd" clip-rule="evenodd" fill="#AFB0B1" d="M213.78,145.04c0,8.82,0.07,17.64-0.06,26.45
		c-0.02,1.47-0.89,2.93-1.37,4.4c-1.46-0.63-2.91-1.32-4.4-1.89c-1.14-0.44-2.33-1.02-3.51-1.07c-3.99-0.15-7.99-0.25-11.97-0.03
		c-1.4,0.08-2.74,1.16-4.13,1.75c-1.11,0.47-2.41,1.45-3.32,1.17c-0.84-0.25-1.79-1.86-1.8-2.88c-0.06-18.47-0.02-36.93,0.12-55.4
		c0.01-1.11,0.74-2.77,1.6-3.16c0.76-0.34,2.16,0.73,3.27,1.21c1.13,0.48,2.23,1.38,3.36,1.41c4.49,0.14,8.98,0.12,13.47-0.07
		c1.12-0.05,2.19-0.97,3.3-1.45c1.24-0.54,2.73-1.68,3.69-1.35c0.87,0.3,1.62,2.23,1.64,3.45c0.13,9.15,0.07,18.3,0.07,27.45
		C213.75,145.04,213.76,145.04,213.78,145.04z M207.67,136.1c0-4.89,0-9.69,0-15.05c-6.69,0.42-13,0.81-19.69,1.23
		c0.31,4.92,0.58,9.29,0.86,13.83C195.39,136.1,201.32,136.1,207.67,136.1z M207.81,152.96c0-4.28,0-8.01,0-11.76
		c-6.54,0-12.73,0-18.75,0c0,4.2,0,7.91,0,11.76C195.46,152.96,201.4,152.96,207.81,152.96z M210.04,162.7
		c-2.2-1.9-3.77-4.19-4.85-3.98c-1.59,0.31-3.95,2.45-3.9,3.74c0.05,1.45,2.21,3.5,3.83,3.97
		C206.1,166.72,207.8,164.49,210.04,162.7z M192.25,156.73c-1.97,3.04-3.96,4.76-3.78,6.2c0.19,1.49,2.49,2.71,3.86,4.06
		c1.24-1.32,3.39-2.58,3.46-3.96C195.88,161.47,194.09,159.81,192.25,156.73z"/>
</g>
<g>
	<path fill-rule="evenodd" clip-rule="evenodd" fill="#C22F31" d="M176,94.9c15.3,0.1,30.61,0.2,45.92,0.29
		c0.03,3.92,0.06,7.85,0.09,11.77c-0.02,25.56-0.11,51.13,0.03,76.69c0.02,4-0.9,5.54-5.2,5.41c-9.95-0.3-19.92-0.08-29.88-0.08
		c-3.64-0.02-7.27-0.03-10.91-0.05c-0.1-0.85-0.21-1.71-0.31-2.56c0.06-25.35,0.13-50.71,0.19-76.07
		C175.95,105.18,175.98,100.04,176,94.9z M213.78,145.04c-0.01,0-0.03,0-0.04,0c0-9.15,0.06-18.3-0.07-27.45
		c-0.02-1.22-0.78-3.15-1.64-3.45c-0.96-0.33-2.45,0.81-3.69,1.35c-1.11,0.48-2.18,1.4-3.3,1.45c-4.48,0.19-8.98,0.22-13.47,0.07
		c-1.13-0.04-2.23-0.93-3.36-1.41c-1.11-0.47-2.51-1.54-3.27-1.21c-0.85,0.38-1.59,2.05-1.6,3.16c-0.14,18.47-0.18,36.93-0.12,55.4
		c0,1.01,0.96,2.63,1.8,2.88c0.91,0.27,2.21-0.7,3.32-1.17c1.38-0.59,2.72-1.67,4.13-1.75c3.98-0.22,7.98-0.12,11.97,0.03
		c1.18,0.05,2.37,0.63,3.51,1.07c1.49,0.58,2.94,1.26,4.4,1.89c0.48-1.47,1.35-2.93,1.37-4.4
		C213.84,162.67,213.78,153.86,213.78,145.04z"/>
	<path fill-rule="evenodd" clip-rule="evenodd" fill="#C22F31" d="M207.67,136.1c-6.35,0-12.28,0-18.83,0
		c-0.28-4.54-0.55-8.9-0.86-13.83c6.69-0.42,13-0.81,19.69-1.23C207.67,126.41,207.67,131.21,207.67,136.1z"/>
	<path fill-rule="evenodd" clip-rule="evenodd" fill="#C22F31" d="M207.81,152.96c-6.41,0-12.35,0-18.75,0c0-3.85,0-7.57,0-11.76
		c6.02,0,12.21,0,18.75,0C207.81,144.95,207.81,148.69,207.81,152.96z"/>
</g>
<path fill-rule="evenodd" clip-rule="evenodd" d="M210.04,162.7c-2.24,1.79-3.95,4.02-4.92,3.74c-1.63-0.47-3.78-2.52-3.83-3.97
	c-0.05-1.29,2.32-3.43,3.9-3.74C206.27,158.51,207.84,160.8,210.04,162.7z"/>
<path fill-rule="evenodd" clip-rule="evenodd" d="M192.25,156.73c1.84,3.07,3.63,4.73,3.54,6.29c-0.07,1.38-2.23,2.65-3.46,3.96
	c-1.38-1.34-3.68-2.57-3.86-4.06C188.29,161.49,190.28,159.77,192.25,156.73z"/>
</svg>
