<?xml version="1.0" encoding="utf-8"?>
<!-- Generator: Adobe Illustrator 16.0.0, SVG Export Plug-In . SVG Version: 6.00 Build 0)  -->
<!DOCTYPE svg PUBLIC "-//W3C//DTD SVG 1.1//EN" "http://www.w3.org/Graphics/SVG/1.1/DTD/svg11.dtd">
<svg version="1.1" id="Layer_1" xmlns="http://www.w3.org/2000/svg" xmlns:xlink="http://www.w3.org/1999/xlink" x="0px" y="0px"
	 width="336px" height="212px" viewBox="0 0 336 212" enable-background="new 0 0 336 212" xml:space="preserve">
<circle fill="#FFFFFF" cx="43.25" cy="126.5" r="10"/>
<path fill="#7FB847" d="M295.89,64.97c4.399,0.32,8.79,0.75,13.189,0.92c4.131,0.16,8.261,0.03,12.71,0.03
	c-0.079,3.68,1.15,7.23-3.67,8.58c-0.729,0.2-1,2.29-1.35,3.54c-4.15,14.97-8.45,29.91-12.29,44.97c-0.88,3.45-2.38,4.03-5.45,4.07
	c-5.06,0.061-10.109,0.62-15.159,0.97c-2.16-0.04-4.33-0.11-6.49-0.11c-29.12-0.039-58.23-0.08-87.351-0.109
	c-1.38-10.5-2.75-21-4.159-31.49c-2.271-16.88-4.73-33.75-6.74-50.66c-0.44-3.71-1.67-4.82-5.21-4.78
	c-12.99,0.14-25.99,0.06-38.99,0.06c-10.71,0-21.41,0-33.21,0c0.57-4.86,1-8.64,1.479-12.73c2.011-0.09,3.631-0.23,5.25-0.23
	c25.99-0.02,51.98,0.06,77.971-0.11c4.069-0.03,6.479,0.69,7.13,5.23c0.34,2.38,2.03,4.56,3.11,6.83
	c1.77,7.06,3.659,14.1,5.26,21.21c0.68,3,2.13,3.94,5.17,3.93C236.7,64.96,266.29,64.99,295.89,64.97z M236.34,76.01
	c1.28,12.01,2.59,23.14,3.61,34.3c1.21,13.18,1.09,13.149,14.46,12.699c2.949-0.1,4.439-0.39,3.819-4.27
	c-1.22-7.641-1.42-15.44-2.35-23.13c-0.67-5.56-1.67-11.08-2.851-16.55c-0.25-1.17-1.859-2.82-2.939-2.9
	C245.68,75.82,241.22,76.01,236.34,76.01z M226.66,122c0.14-1.859,0.39-2.859,0.27-3.83c-1.64-13.3-3.29-26.59-5.11-39.86
	c-0.119-0.87-1.609-2.18-2.5-2.22c-4.92-0.22-9.859-0.1-14.909-0.1c0.569,6,0.93,11.28,1.6,16.521c1.11,8.69,2.32,17.37,3.78,26.009
	c0.22,1.301,1.939,3.221,3.1,3.32C217.32,122.23,221.8,122,226.66,122z M267.9,76.01c0.2,3.02,0.261,5.44,0.53,7.83
	c1.15,10.18,2.71,20.32,3.44,30.53c0.609,8.601,0.189,8.63,8.779,8.61c0.5,0,1,0.01,1.5,0c6.28-0.15,7.431-1.25,6.771-7.34
	c-1.25-11.661-2.57-23.321-4.16-34.94c-0.23-1.68-2-4.29-3.33-4.48C277.22,75.64,272.89,76.01,267.9,76.01z"/>
<path fill="#4F890B" d="M134.94,40.96c13,0,25.99,0.07,38.99-0.06c3.54-0.04,4.76,1.08,5.21,4.78c2.01,16.92,4.47,33.78,6.74,50.66
	c1.41,10.49,2.77,20.99,4.16,31.49c-5.23,0-10.46,0-15.87,0c0,6.29,0,11.6,0,16.9c-0.05,5.699-0.09,11.399-0.141,17.09
	c-0.39-0.021-0.779-0.041-1.17-0.061c-0.01-0.66-0.02-1.33-0.02-1.99c-0.03-15.109-8.15-25.189-22.76-28.24
	c-11.67-2.43-25.021,4.871-29.79,17.311c-1.891,4.93-1.61,10.689-2.32,16.08c-2.24-0.04-4.49-0.07-6.729-0.1
	c3.93-11.09,1.01-15.43-10.711-15.92c-0.17-0.01-0.329-0.051-0.489-0.08c0-5.301-0.011-10.61-0.011-15.91
	c3.62-6.62,3.421-8.93-1.319-14.76c1.16-6.121,4.47-10.541,9.96-13.63c1.26-0.71,1.93-3.05,2.229-4.76
	c1.82-10.39,3.311-20.84,5.2-31.21c1.271-6.95,1.74-13.75-1.09-20.43c6.72,0,13.44,0,20.35,0C135.2,45.63,135.07,43.3,134.94,40.96z
	 M139.94,102.99c7.431,0,14.851,0,22.45,0c0-11.31,0-22.2,0-33.09c0-3.15,0-6.3,0-9.58c-3.84,0-6.59,0-9.34,0
	c-6.8-0.07-13.61-0.18-20.41-0.21c-4.42-0.02-6.68,2.53-7.3,6.65c-1.55,10.33-2.8,20.7-4.59,30.979c-0.84,4.83,0.91,6.03,5.189,5.3
	C130.6,103.03,135.27,103.01,139.94,102.99z M154,115.93c0,0.01,0,0.021,0,0.03c1.979,0,4.02,0.31,5.91-0.12
	c1.13-0.25,2.72-1.609,2.779-2.55c0.05-1-1.39-2.931-2.29-3c-4.09-0.3-8.229-0.28-12.319,0.08c-0.96,0.08-1.75,1.95-2.63,2.989
	c1.039,0.851,1.97,2.16,3.149,2.451C150.3,116.25,152.19,115.93,154,115.93z"/>
<path fill="#2A2A29" d="M174.16,144.73c0-5.311,0-10.621,0-16.9c5.409,0,10.64,0,15.869,0c29.12,0.04,58.23,0.07,87.351,0.109
	c2.16,0,4.33,0.07,6.49,0.11c-0.66,1.45-1.33,2.91-2.07,4.54c7.09,3.609,12.92,8.561,15.06,16.311c2.9,10.459,1.58,20.31-6.47,28.41
	c-8.12,8.18-17.92,9.049-28.439,6.16c-10.61-2.921-17.141-9.48-18.12-20.851c-0.051-0.601-0.521-1.171-0.79-1.75
	c0.939-5.271,1.88-10.54,2.88-16.14C222.08,144.73,198.12,144.73,174.16,144.73z M284,158.23c0.02-6.76-4.71-12.16-10.65-12.16
	c-6.06,0.01-10.56,5.109-10.62,12.02c-0.06,7.311,3.87,11.77,10.46,11.891C279.47,170.09,283.98,165.189,284,158.23z"/>
<path fill="#7FB847" d="M100.01,132.91c0,5.3,0.01,10.609,0.01,15.91c-21.99,0.039-43.99,0.08-65.979,0.119c0-6.33,0-12.649,0-18.64
	c2.819,1.75,5.68,4.89,8.63,4.96c2.89,0.08,6.2-2.57,8.71-4.73c2.53-2.189,0.39-9.289-3.07-11.649c-3.96-2.7-10.7-0.61-13.74,4.261
	c-1.25-7.16,1.471-13.211,8.42-16.33c4.961-2.23,6.391-5.721,7.131-10.67c2.02-13.42,4.46-26.78,6.92-40.13
	c0.89-4.86,4.939-8.01,10-8.021C83.02,47.97,99,48.07,114.98,48.12c2.83,6.68,2.36,13.48,1.09,20.43
	c-1.89,10.37-3.38,20.82-5.199,31.21c-0.301,1.71-0.971,4.05-2.23,4.76c-5.49,3.089-8.8,7.509-9.96,13.63
	c-0.76-0.301-1.51-0.67-2.29-0.9c-4.97-1.42-9.18,0.109-11.57,4.15c-2.409,4.08-2.06,9.129,0.811,11.789
	c3.64,3.381,8.55,3.58,13.149,0.531C99.2,133.471,99.6,133.189,100.01,132.91z M55.25,90.06c-0.471,2.67-0.94,5.34-1.41,8
	c-1.08,4.17,0.63,5.84,4.83,5.82c13.99-0.08,27.97-0.01,41.96-0.02c4.25,0,6.83-1.83,7.43-6.34c1.23-9.22,2.83-18.39,3.98-27.61
	c0.46-3.67,0.14-7.44,0.17-11.17c-4.4-0.61-8.8-1.22-13.2-1.83c-10.44-0.02-20.88,0.08-31.31-0.13c-4.7-0.09-7.07,2.02-7.83,6.44
	C58.35,72.17,56.79,81.11,55.25,90.06z M53.85,136.91c1.82,5.6,8.25,9.02,14.83,8.6c6.25-0.39,11.44-3.75,12.76-9.16
	C72.05,144.6,62.99,144.57,53.85,136.91z"/>
<path fill="#824B2E" d="M295.89,64.97c-29.59,0.02-59.189-0.01-88.78,0.11c-3.029,0.01-4.489-0.93-5.17-3.93
	c-1.6-7.1-3.489-14.14-5.26-21.21c4.93-3.18,9.811-6.45,14.82-9.52c6.2-3.8,17.87-2.55,23.189,2.91c3.33,3.41,6.391,4.22,10.99,2.81
	c9.05-2.77,11.84-0.97,16.59,7.65c1.24,2.26,4.09,4.09,6.61,5.07c3.17,1.24,6.75,1.49,10.18,2.02
	C287.53,52.19,293.12,56.88,295.89,64.97z"/>
<path fill="#2A2A29" d="M117.96,164.93c0.71-5.39,0.43-11.15,2.319-16.08c4.771-12.449,18.131-19.75,29.79-17.31
	c14.601,3.05,22.73,13.13,22.761,28.239c0,0.671,0.01,1.33,0.02,1.99c-0.64,1.631-1.39,3.23-1.91,4.9
	c-3.489,11.221-10.979,17.859-22.68,19c-8.11,0.79-21.99-2.57-26.76-11.67C119.99,171.141,119.12,167.96,117.96,164.93z
	 M136.75,158.49c-0.04,7.1,4.62,12.47,10.779,12.42c5.65-0.051,10.421-5.37,10.54-11.77c0.131-6.951-4.689-12.391-10.89-12.301
	C141.33,146.93,136.78,152,136.75,158.49z"/>
<path fill="#CDCECD" d="M34.04,148.95c21.989-0.04,43.989-0.08,65.979-0.12c0.16,0.029,0.33,0.07,0.49,0.08
	c11.72,0.49,14.64,4.83,10.71,15.92c-4.14,0.811-8.28,1.609-12.42,2.42c-15.17-0.061-30.34-0.13-45.521-0.189
	c-4.88-0.051-9.779,0.189-14.619-0.23c-3.801-0.33-7.45-1.49-9.08-5.71c-1.58-4.091,0.64-6.94,2.859-9.86
	C33.01,150.51,33.51,149.721,34.04,148.95z"/>
<path fill="#747676" d="M174.16,144.73c23.96,0,47.909,0,71.76,0c-1,5.609-1.94,10.879-2.88,16.14c-3.53,0.38-7.07,0.76-10.601,1.13
	c-17.319,0-34.63,0-51.95-0.01c-2.159-0.061-4.31-0.12-6.47-0.18C174.07,156.13,174.11,150.43,174.16,144.73z"/>
<path fill="#2A2A29" d="M180.48,162c17.32,0,34.63,0,51.95,0.01c-2.8,11.11-9.85,18.18-21.13,19.62
	c-10.48,1.341-20.29-1.33-27.11-10.159C182.21,168.9,181.68,165.189,180.48,162z"/>
<path fill="#2A2A29" d="M53.29,167.061c15.17,0.06,30.35,0.129,45.52,0.189c-2.649,9.75-10.3,13.32-19.14,14.5
	c-8.351,1.12-20.75-2.13-25.48-11.05C53.61,169.63,53.57,168.279,53.29,167.061z"/>
<path d="M49.93,128.561c-1.2,0.899-3.16,3.459-5.52,3.91c-3.91,0.739-7.271-2.771-6.931-6.49c0.29-3.19,1.11-6.16,5.48-5.961
	C47.05,120.2,50.01,122.84,49.93,128.561z"/>
<path fill="#4F890B" d="M236.34,76.01c4.87,0,9.34-0.19,13.76,0.14c1.08,0.08,2.68,1.73,2.94,2.9c1.18,5.47,2.18,11,2.85,16.55
	c0.92,7.7,1.13,15.49,2.35,23.13c0.62,3.879-0.869,4.17-3.819,4.27c-13.37,0.45-13.26,0.48-14.46-12.7
	C238.93,99.15,237.62,88.02,236.34,76.01z"/>
<path fill="#4F890B" d="M226.66,122c-4.87,0-9.351,0.23-13.771-0.16c-1.16-0.1-2.88-2.029-3.1-3.32
	c-1.46-8.64-2.66-17.319-3.78-26.009c-0.67-5.24-1.03-10.521-1.6-16.521c5.05,0,9.989-0.11,14.909,0.1c0.9,0.04,2.381,1.35,2.5,2.22
	c1.82,13.27,3.46,26.56,5.11,39.86C227.05,119.13,226.81,120.141,226.66,122z"/>
<path fill="#4F890B" d="M267.9,76.01c4.99,0,9.32-0.37,13.521,0.21c1.33,0.18,3.1,2.79,3.33,4.48c1.59,11.62,2.91,23.28,4.16,34.94
	c0.649,6.09-0.5,7.189-6.771,7.34c-0.5,0.01-1,0-1.5,0c-8.59,0.01-8.17-0.021-8.78-8.61c-0.72-10.21-2.29-20.35-3.439-30.53
	C268.16,81.44,268.1,79.03,267.9,76.01z"/>
<path fill="#C3E6EC" d="M125.93,103.04c0.62-1.46,1.03-3.06,1.88-4.37c8.37-12.81,16.811-25.57,25.23-38.35c2.75,0,5.5,0,9.34,0
	c0,3.28,0,6.43,0,9.58c-3.59,4.69-7.43,9.22-10.72,14.11c-4.141,6.17-7.841,12.64-11.73,18.979
	C135.27,103.01,130.6,103.03,125.93,103.04z"/>
<g>
	<path fill="#99D6E0" d="M125.93,103.04c-4.28,0.73-6.03-0.47-5.19-5.3c1.79-10.28,3.04-20.66,4.591-30.979
		c0.62-4.12,2.88-6.67,7.3-6.65c6.8,0.03,13.609,0.14,20.41,0.21c-8.42,12.78-16.86,25.54-25.23,38.35
		C126.96,99.98,126.55,101.58,125.93,103.04z"/>
	<path fill="#99D6E0" d="M139.94,102.99c3.891-6.34,7.58-12.81,11.73-18.979c3.29-4.9,7.13-9.42,10.72-14.11
		c0,10.89,0,21.78,0,33.09C154.8,102.99,147.37,102.99,139.94,102.99z"/>
</g>
<path fill="#FFFFFF" d="M100.01,132.91c-0.41,0.279-0.81,0.55-1.22,0.83c-4.601,3.039-9.511,2.84-13.15-0.53
	c-2.87-2.67-3.22-7.72-0.81-11.79c2.39-4.05,6.6-5.57,11.569-4.15c0.79,0.221,1.53,0.59,2.29,0.9
	C103.43,123.98,103.63,126.29,100.01,132.91z M98.92,126.3c-0.05-3.45-3.01-6.46-6.36-6.159c-3.899,0.359-5.89,2.75-5.83,6.609
	c0.061,3.79,2.431,5.67,5.96,5.91C95.95,132.88,98.97,129.609,98.92,126.3z"/>
<path d="M154,115.93c-1.811,0-3.7,0.311-5.41-0.109c-1.18-0.291-2.11-1.6-3.15-2.45c0.87-1.05,1.67-2.91,2.63-2.99
	c4.08-0.36,8.23-0.38,12.32-0.08c0.9,0.07,2.351,2,2.29,3c-0.05,0.94-1.65,2.3-2.78,2.55c-1.88,0.42-3.93,0.121-5.91,0.121
	C154,115.95,154,115.939,154,115.93z"/>
<g>
	<path fill="#99D6E0" d="M112.21,58.73c-0.03,3.73,0.29,7.5-0.17,11.17c-1.15,9.23-2.75,18.4-3.98,27.61
		c-0.6,4.52-3.18,6.34-7.43,6.34c-13.99,0.01-27.97-0.06-41.96,0.02c-4.2,0.02-5.91-1.64-4.83-5.82c2.39,0.26,4.83-4.62,7.18,0.07
		c1.38,3.36,2.5,1.54,3.78-0.13c2.37-3.09,4.96-2.68,7.56-0.27c0.82,0.76,1.601,1.55,2.4,2.32c0.34-4.59-2.36-6.24-5.82-7.18
		c0.471-0.83,0.74-1.91,1.44-2.46c6.229-4.9,12.5-9.75,18.83-14.53C96.85,70.12,104.54,64.45,112.21,58.73z M87.56,100.88
		c4.43-8.35,8.78-5.1,13.19-0.69c-0.641-5.24-3.21-7.31-7.55-6.94C89.63,93.57,87.4,95.4,87.56,100.88z"/>
	<path fill="#99D6E0" d="M55.25,90.06c1.54-8.95,3.1-17.89,4.62-26.84c0.75-4.43,3.119-6.54,7.83-6.44
		c10.43,0.21,20.869,0.1,31.31,0.13c-4.22,3.41-8.34,6.96-12.68,10.21C76.03,74.84,65.62,82.42,55.25,90.06z"/>
</g>
<path fill="#C3E6EC" d="M55.25,90.06c10.37-7.64,20.77-15.22,31.08-22.95c4.34-3.25,8.46-6.8,12.68-10.21
	c4.4,0.61,8.8,1.22,13.2,1.83c-7.66,5.71-15.36,11.39-22.98,17.15c-6.33,4.78-12.6,9.63-18.83,14.53
	c-0.689,0.55-0.97,1.63-1.439,2.46c-2.641,1.75-5.29,3.5-7.931,5.26c-2.35-4.69-4.79,0.2-7.18-0.07
	C54.31,95.4,54.78,92.73,55.25,90.06z"/>
<path d="M53.85,136.91c9.14,7.67,18.2,7.689,27.59-0.561c-1.319,5.41-6.52,8.76-12.76,9.16C62.1,145.92,55.67,142.51,53.85,136.91z"
	/>
<g>
	<path fill="#747676" d="M284,158.23c-0.021,6.959-4.53,11.859-10.8,11.75c-6.591-0.121-10.521-4.58-10.46-11.891
		c0.05-6.91,4.56-12.01,10.619-12.02C279.29,146.07,284.02,151.471,284,158.23z"/>
	<path fill="#747676" d="M136.75,158.49c0.04-6.49,4.58-11.561,10.43-11.641c6.2-0.09,11.021,5.351,10.89,12.301
		c-0.119,6.399-4.88,11.72-10.54,11.77C141.37,170.971,136.71,165.59,136.75,158.49z"/>
</g>
<path d="M98.92,126.3c0.05,3.31-2.96,6.591-6.23,6.36c-3.529-0.24-5.899-2.12-5.96-5.91c-0.06-3.859,1.931-6.25,5.83-6.609
	C95.9,119.83,98.86,122.85,98.92,126.3z"/>
<path d="M87.56,100.88c-0.16-5.48,2.07-7.31,5.65-7.62c4.33-0.37,6.91,1.7,7.55,6.94C96.34,95.78,91.99,92.53,87.56,100.88z"/>
<path d="M61.03,98.13c2.28-3.07,4.66-4.69,7.931-5.26c3.46,0.94,6.149,2.59,5.819,7.18c-0.8-0.78-1.579-1.57-2.399-2.32
	c-2.601-2.41-5.19-2.82-7.561,0.27C63.53,99.67,62.41,101.49,61.03,98.13z"/>
</svg>
