<?xml version="1.0" encoding="utf-8"?>
<!-- Generator: Adobe Illustrator 16.0.0, SVG Export Plug-In . SVG Version: 6.00 Build 0)  -->
<!DOCTYPE svg PUBLIC "-//W3C//DTD SVG 1.1//EN" "http://www.w3.org/Graphics/SVG/1.1/DTD/svg11.dtd">
<svg version="1.1" id="Layer_1" xmlns="http://www.w3.org/2000/svg" xmlns:xlink="http://www.w3.org/1999/xlink" x="0px" y="0px"
	 width="310.48px" height="329.98px" viewBox="0 0 310.48 329.98" enable-background="new 0 0 310.48 329.98" xml:space="preserve">
<path fill-rule="evenodd" clip-rule="evenodd" fill="#F4AEC2" d="M42.88,127.32c-1.16-15.2,2.54-29.19,12.15-40.94
	c12.94-15.81,29.68-23.42,50.43-20.16c3.42,0.54,4.6-0.8,5.6-3.85c5.62-17.15,16.49-28.86,34.23-34.34
	c15.95-4.92,30.16-1.5,43.06,7.71c5.18,3.7,8.67,9.74,13.05,14.6c1.37,1.52,2.94,3.3,4.76,3.89c11.46,3.68,19.36,11.25,24.49,21.86
	c1.32,2.73,3.01,3.38,5.8,3.35c24.59-0.26,45.2,20.96,47.58,44.23c1.25,12.26-2.39,22.66-8.52,32.77c-1.66,2.73-2.5,5.96-3.71,8.97
	c-1.59,1.11-3.42,1.99-4.73,3.35c-16.8,17.54-49.79,19.49-67.5-0.25c-2.82-3.14-5.29-6.59-7.2-8.99c-6.1,2.75-11.78,5.3-17.46,7.86
	c-8.55,1.73-17.1,2.58-25.67,0.18c-5.07-2.28-10.14-4.56-15.38-6.92c-2.91,3.52-5.95,7.18-8.99,10.84c-2.9,2.28-5.8,4.55-8.7,6.83
	c-2.87,0.76-5.76,1.46-8.61,2.31c-9.48,2.81-19.02,2.76-28.36-0.18C56.35,173.26,41.53,150.46,42.88,127.32z"/>
<path fill-rule="evenodd" clip-rule="evenodd" fill="#9A592E" d="M116.15,178.31c2.9-2.28,5.8-4.55,8.7-6.83
	c7.36,7.6,14.73,15.21,23.09,23.84c0.48-10.37,0.88-19.07,1.28-27.77c8.57,2.4,17.13,1.56,25.67-0.18
	c0.84,10.64,1.68,21.28,2.59,32.82c8.19-6.54,15.39-12.3,22.14-17.69c2.59,2.15,4.61,3.82,7.92,6.56c-2.17,1.44-3.9,2.24-5.19,3.49
	c-6.65,6.44-13.18,13-19.75,19.52c-3.25,1.59-4.2,4.13-3.81,7.71c1.53,14.02,2.73,28.07,4.29,42.09
	c2.1,18.82,12.57,31.53,29.41,39.43c2.18,1.02,4.29,2.21,7.43,3.83c-37.78,0-74.42,0-111.95,0c4.1-2.31,7.46-4.24,10.86-6.1
	c14.08-7.71,22.37-19.45,23.92-35.47c1.32-13.7,2.08-27.45,3.09-41.18c1.73-5.84,0.8-10.38-3.93-15.13
	C132.82,198.1,124.69,188.01,116.15,178.31z"/>
<g>
	<path fill-rule="evenodd" clip-rule="evenodd" fill="#F29CB5" d="M182.6,212.08c6.57-6.52,13.11-13.08,19.75-19.52
		c1.29-1.25,3.02-2.05,5.19-3.49c-3.31-2.74-5.32-4.41-7.92-6.56c-6.75,5.4-13.95,11.15-22.14,17.69
		c-0.91-11.54-1.75-22.18-2.59-32.82c5.68-2.56,11.35-5.11,17.46-7.86c1.92,2.4,4.38,5.85,7.2,8.99
		c17.71,19.74,50.71,17.79,67.5,0.25c1.31-1.37,3.14-2.25,4.73-3.35c-0.77,13.67-4.91,25.74-15.49,35.2
		c-9.62,8.6-20.74,10.82-33.16,9.55c-2.98-0.3-6.5,0.3-9.12,1.71C203.47,217.53,193.12,218.73,182.6,212.08z"/>
</g>
<path fill-rule="evenodd" clip-rule="evenodd" fill="#F6D8D9" d="M228.4,146.38c6.82,0,12.51,5.55,12.45,12.11
	c-0.07,6.63-6.3,12.97-12.63,12.85c-6.17-0.12-12.1-6.29-12.27-12.75C215.79,152.23,221.76,146.37,228.4,146.38z"/>
<path fill-rule="evenodd" clip-rule="evenodd" fill="#F6D8D9" d="M104.9,94.02c-0.03,6.34-5.71,12.25-11.87,12.35
	c-6.54,0.11-12.17-5.65-12.16-12.46c0.01-7.73,4.84-12.64,12.32-12.52C100.35,81.5,104.93,86.44,104.9,94.02z"/>
<path fill-rule="evenodd" clip-rule="evenodd" fill="#F6D8D9" d="M259.88,103.59c-0.06,6.85-5.73,13.04-12.08,12.64
	c-5.82-0.37-12.72-5.17-12.06-13.21c0.56-6.76,4.92-11.62,11.63-11.63C254.03,91.38,259.94,97.14,259.88,103.59z"/>
<path fill-rule="evenodd" clip-rule="evenodd" fill="#F6D8D9" d="M146.86,59.88c0.01-7.13,4.85-12.4,11.46-12.44
	c6.58-0.05,12.48,5.76,12.54,12.34c0.06,6.65-5.77,12.7-12.14,12.59C151.5,72.26,146.85,67.37,146.86,59.88z"/>
<path fill-rule="evenodd" clip-rule="evenodd" fill="#F6D8D9" d="M218.89,77.12c-0.06,6.92-4.58,11.32-11.62,11.31
	c-7.64-0.02-12.51-4.88-12.39-12.37c0.12-6.91,5.06-11.67,12.09-11.65C214.5,64.42,218.96,69.18,218.89,77.12z"/>
<path fill-rule="evenodd" clip-rule="evenodd" fill="#F6D8D9" d="M67.87,154.95c-0.02-7.59,4.05-11.64,11.66-11.6
	c6.38,0.03,12.18,5.66,12.28,11.92c0.09,5.88-5.83,11.97-11.76,12.09C73.55,167.5,67.89,161.72,67.87,154.95z"/>
<g>
	<path fill-rule="evenodd" clip-rule="evenodd" fill="#F29AB3" d="M116.15,178.31c8.54,9.7,16.67,19.79,25.77,28.93
		c4.72,4.74,5.66,9.29,3.93,15.13c-10.4-1.79-20.18-4.82-28.19-12.3c-1.23-1.15-4.78-1.21-6.44-0.3
		c-16.87,9.31-38.22,6.73-50.82-7.66C55,195.95,50.11,189.76,43.21,185c-9.27-6.4-13.73-16.36-14.08-27.32
		c-0.38-12,3.51-22.81,13.75-30.36c-1.35,23.14,13.47,45.93,36.3,53.12c9.34,2.94,18.88,2.99,28.36,0.18
		C110.39,179.77,113.28,179.08,116.15,178.31z"/>
	<path fill-rule="evenodd" clip-rule="evenodd" fill="#F29AB3" d="M149.23,167.55c-0.4,8.7-0.8,17.4-1.28,27.77
		c-8.37-8.64-15.73-16.24-23.09-23.84c3.04-3.67,6.08-7.33,8.99-10.84C139.09,162.99,144.16,165.27,149.23,167.55z"/>
</g>
<path fill-rule="evenodd" clip-rule="evenodd" fill="#FFFFFF" d="M198.93,128.25c-3.32-2.26-7.51-3.87-9.79-6.92
	c-5.35-7.13-3.05-16.27,4.42-21.03c6.85-4.37,15.86-2.08,20.27,5.15c4.37,7.15,2.02,15.87-5.6,20.66c-1.12,0.7-2.34,1.24-3.51,1.86
	C202.8,128.06,200.87,128.16,198.93,128.25z M201.17,123.68c6.05,0.08,10.68-4.56,10.63-10.67c-0.04-5.92-4.85-10.62-10.85-10.61
	c-5.7,0.01-10.31,4.7-10.32,10.49C190.62,119.07,195.06,123.6,201.17,123.68z"/>
<path fill-rule="evenodd" clip-rule="evenodd" fill="#FFFFFF" d="M114.03,128.01c-11.07-4.37-15.27-12.9-10.64-21.61
	c3.22-6.07,9.58-9.14,16.24-7.85c5.17,1,10.64,6.52,11.24,11.34c1.02,8.2-1.75,13.66-8.49,16.75c-1.19,0.54-2.38,1.08-3.56,1.62
	C117.22,128.16,115.63,128.09,114.03,128.01z M127.06,113.27c0-6.06-4.61-10.82-10.6-10.93c-5.87-0.11-10.56,4.38-10.65,10.19
	c-0.1,6.34,4.56,11.1,10.88,11.09C122.7,123.62,127.06,119.27,127.06,113.27z"/>
<path fill-rule="evenodd" clip-rule="evenodd" d="M175.52,119.78c0.21,1.95,0.8,3.5,0.45,4.8c-1.69,6.31-9.14,10.88-17.32,10.86
	c-7.47-0.01-14.8-4.65-16.43-10.66c-0.33-1.21,0.35-2.69,0.57-4.04c1,0.78,2.46,1.35,2.93,2.37c2.83,6.11,6.81,8.82,13.61,8.7
	c6.19-0.11,10.88-2.61,13.25-8.64c0.3-0.76,0.61-1.51,1-2.22C173.72,120.71,174.12,120.61,175.52,119.78z"/>
<g>
	<path fill-rule="evenodd" clip-rule="evenodd" fill="#F29AB3" d="M114.03,128.01c1.6,0.08,3.19,0.16,4.79,0.23
		c0.52,0.38,1.09,0.7,1.54,1.14c1.76,1.73,3.49,3.49,5.22,5.24c-2.21,1.58-4.28,4.17-6.66,4.49c-3.46,0.47-7.23-0.36-10.68-1.33
		c-1.35-0.38-3.06-2.68-3-4.03c0.06-1.31,2.03-2.78,3.47-3.68C110.31,129.09,112.25,128.67,114.03,128.01z"/>
	<path fill-rule="evenodd" clip-rule="evenodd" fill="#F29AB3" d="M198.93,128.25c1.93-0.09,3.86-0.19,5.79-0.28
		c1.56,0.81,3.34,1.37,4.63,2.49c1.38,1.2,2.84,2.81,3.18,4.47c0.18,0.89-1.76,3.04-2.99,3.26c-3.85,0.68-7.87,1.21-11.72,0.79
		c-1.77-0.19-4.06-2.49-4.62-4.3c-0.34-1.09,2.12-3.13,3.43-4.64C197.27,129.33,198.16,128.84,198.93,128.25z"/>
</g>
<path fill-rule="evenodd" clip-rule="evenodd" d="M201.17,123.68c-6.11-0.08-10.55-4.62-10.54-10.78
	c0.01-5.79,4.62-10.48,10.32-10.49c6-0.01,10.81,4.69,10.85,10.61C211.85,119.12,207.22,123.76,201.17,123.68z"/>
<path fill-rule="evenodd" clip-rule="evenodd" d="M127.06,113.27c0,6-4.36,10.35-10.37,10.35c-6.32,0-10.98-4.75-10.88-11.09
	c0.09-5.81,4.78-10.29,10.65-10.19C122.45,102.46,127.06,107.21,127.06,113.27z"/>
</svg>
