<?xml version="1.0" encoding="utf-8"?>
<!-- Generator: Adobe Illustrator 16.0.0, SVG Export Plug-In . SVG Version: 6.00 Build 0)  -->
<!DOCTYPE svg PUBLIC "-//W3C//DTD SVG 1.1//EN" "http://www.w3.org/Graphics/SVG/1.1/DTD/svg11.dtd">
<svg version="1.1" id="Layer_1" xmlns="http://www.w3.org/2000/svg" xmlns:xlink="http://www.w3.org/1999/xlink" x="0px" y="0px"
	 width="326px" height="225px" viewBox="0 0 326 225" enable-background="new 0 0 326 225" xml:space="preserve">
<path fill="#FFFFFF" d="M54.312,135.162c-1.456-3.847-5.07-6.575-9.308-6.575c-3.879,0-7.234,2.285-8.893,5.619
	c-0.703,1.413-1.107,3.012-1.107,4.711c0,1.797,0.445,3.485,1.226,4.957c1.699,3.201,4.99,5.373,8.774,5.373
	c4.011,0,7.461-2.445,9.054-5.967c0.601-1.327,0.946-2.802,0.946-4.363C55.004,137.591,54.753,136.327,54.312,135.162z"/>
<path fill="#2C2B2B" d="M176.59,179.7c12.729,0.14,25.46,0.29,38.189,0.43c-3.069,10.03-9.939,15.431-20.3,16.2
	c-10.779,0.8-19.64-2.551-25.189-13.21c-6.04,12.45-15.471,17.89-28.9,15.29c-9.84-1.91-17.33-6.551-19.27-17.301
	c0.59-4.149,1.18-8.299,1.76-12.449c1.729-12.461,11.22-21.52,22.78-21.75c12.27-0.25,22.1,7.89,24.34,20.539
	c0.7,3.971,0.55,8.101,0.8,12.25C172.67,179.7,174.63,179.7,176.59,179.7z M157.13,172.73c-0.05-6.701-3.79-11.01-9.54-10.971
	c-5.93,0.04-9.7,4.221-9.73,10.811c-0.029,7.05,3.631,11.449,9.58,11.51C153.37,184.15,157.18,179.68,157.13,172.73z"/>
<path fill="#2C2B2B" d="M278.18,180.08c-3.3,9.02-8.47,16.109-18.52,18.35c-11.75,2.62-23.841-2.449-28.881-12.359
	c-0.939-1.85-1.189-4.051-1.76-6.09c0.41-1.59,0.79-3.19,1.23-4.78c1.649-5.97,2.31-12.49,5.21-17.79
	c4.77-8.73,13.33-11.48,23-10.34c8.51,1.01,14.04,6.209,17.71,13.58C279.24,166.84,279.43,173.4,278.18,180.08z M245.95,172.79
	c-0.051,6.69,3.92,11.26,9.85,11.319c5.71,0.061,10.02-4.879,9.92-11.359c-0.1-6.301-4.71-11.641-10.02-11.59
	C250.2,161.21,246,166.21,245.95,172.79z"/>
<path fill="#F0A02C" d="M241.24,85.91c14.971,0.08,29.931,0.15,44.9,0.23c1.17,0.01,2.561-0.38,3.44,0.13
	c1.229,0.71,2.069,2.09,3.069,3.18c-1.04,0.85-2.05,2.37-3.13,2.43c-4.95,0.26-9.93,0.12-15.27,0.12c0,7.64,0,14.88,0,22.88
	c4.229,0,8.64-0.06,13.05,0.03c2.15,0.04,5.4-0.83,4.75,2.92c-0.19,1.1-3.09,2.42-4.78,2.47c-8.47,0.21-16.95-0.01-25.43,0.03
	c-1.97,0.01-3.94,0.449-5.91,0.689c-12.93-0.01-25.86,0.03-38.79-0.09c-2.08-0.02-4.149-0.75-6.22-1.15
	c0.39-1.569,0.79-3.139,1.18-4.709c5.87,0,11.75,0,17.74,0c0-5.36,0-9.771,0-14.18c0-2.77,0-5.53,0-8.82
	c-5.01,0-9.65,0.23-14.25-0.12c-1.67-0.13-4.45-1.5-4.601-2.6c-0.449-3.3,2.381-3.25,4.801-3.26
	C224.28,86.04,232.76,85.96,241.24,85.91z M248.51,103.86c0.07-2.81,0-5.64,0.25-8.44c0.26-3.06-1.14-3.84-3.83-3.28
	c-2.77,0-5.54,0-8.8,0c0,4.38,0.01,8.32,0,12.26c-0.03,11.87-0.03,11.87,11.91,10.22c0.149-0.021,0.279-0.17,0.729-0.44
	c0-1.25,0-2.69,0-4.13C248.68,107.99,248.6,105.92,248.51,103.86z M254.58,92.19c0,7.52,0,14.88,0,22.281c4.319,0,8.67,0,12.83,0
	c0-7.631,0-14.861,0-22.281C263.15,92.19,259.37,92.19,254.58,92.19z"/>
<g>
	<path fill="#8E8D8B" d="M111.14,180.74c0.65-1.301,1.29-2.6,1.94-3.9c0.68-1.22,1.83-2.38,1.979-3.66
		c1.07-9.439,3.13-18.42,10.42-25.25c8.42-7.88,18.271-11.05,29.44-7.58c11.71,3.631,18.53,12.2,20.93,23.961
		c1.01,4.969,0.54,10.25,0.74,15.39c-1.96,0-3.92,0-5.79,0c-0.25-4.15-0.09-8.28-0.8-12.25c-2.23-12.65-12.061-20.79-24.34-20.54
		c-11.561,0.23-21.051,9.3-22.78,21.75c-0.58,4.15-1.17,8.3-1.76,12.449C117.8,180.99,114.47,180.859,111.14,180.74z"/>
	<path fill="#8E8D8B" d="M278.18,180.08c1.25-6.67,1.07-13.24-2.02-19.42c-3.681-7.37-9.2-12.57-17.71-13.58
		c-9.671-1.141-18.24,1.609-23,10.34c-2.891,5.301-3.561,11.811-5.211,17.79c-0.439,1.58-0.819,3.181-1.229,4.78
		c-2.01-0.03-4.021-0.051-6.021-0.08c0.33-8.49,0.91-16.881,5.25-24.561c5.94-10.529,18.75-17.77,28.841-16.02
		c14.93,2.59,24.699,11.619,26.85,25.38c0.79,5.04,0.62,10.24,0.89,15.37C282.6,180.07,280.39,180.07,278.18,180.08z"/>
</g>
<path fill="#2C2B2B" d="M54.16,182.2c15.27-0.06,30.529-0.12,45.8-0.171c-3.29,9.421-10.82,14.811-21,15.011
	C66.03,197.3,58.39,192.721,54.16,182.2z"/>
<g>
	<path fill="#CCCACA" d="M54,135.95c1.93-5.36,5.89-6.61,11.17-5.979c3.42,0.409,6.96,0.369,10.399,0.039
		c5.091-0.49,9.011,0.54,10.471,6.08c-0.03,1.99-0.061,3.98-0.09,5.971c-0.511,6.779-1.021,13.569-1.551,20.68
		c7.44,0,14.03,0,20.62,0c6.01,1.189,7.891,3.369,7.971,9.18c0.02,1.641,0.06,3.279,0.1,4.92c-0.65,1.301-1.29,2.6-1.94,3.9
		c-3.729,0.43-7.46,0.859-11.18,1.289c-15.27,0.061-30.53,0.121-45.8,0.17c-4.19-0.399-8.37-1.09-12.561-1.119
		c-4.18-0.03-8.069-0.04-9.88-4.721c-1.81-4.67-0.069-8.319,3.311-11.539c0.56-0.53,0.81-1.371,1.2-2.07c6.05,0,12.109,0,19.05,0
		c-0.391-6.65-0.771-13.109-1.141-19.57c-0.069-0.709-0.13-1.42-0.199-2.14C53.96,139.35,53.98,137.65,54,135.95z M61.8,147.01
		c0-3.47,0.11-6.949-0.08-10.42c-0.05-0.9-1.03-1.74-1.58-2.609c-0.67,0.91-1.89,1.81-1.91,2.729
		c-0.13,6.94-0.08,13.899,0.101,20.84c0.02,0.82,1.14,1.601,1.75,2.399c0.569-0.84,1.58-1.649,1.63-2.52
		C61.9,153.96,61.79,150.48,61.8,147.01z M75.02,147.1c-0.02,0-0.04,0-0.06,0c0-3.64,0.109-7.289-0.09-10.91
		c-0.04-0.739-1.301-1.41-2-2.119c-0.54,0.699-1.521,1.39-1.53,2.09c-0.11,7.109-0.13,14.23,0.02,21.34
		c0.021,0.811,1.23,1.59,1.88,2.38c0.591-0.95,1.631-1.88,1.7-2.86C75.15,153.73,75.02,150.41,75.02,147.1z M68.08,147.27
		c0.029,0,0.05,0,0.08,0c0-3.649,0.08-7.31-0.07-10.949c-0.03-0.75-0.92-1.461-1.41-2.19c-0.6,0.61-1.71,1.21-1.72,1.83
		c-0.12,7.3-0.13,14.61-0.01,21.91c0.01,0.67,1.039,1.33,1.6,1.989c0.51-0.709,1.42-1.399,1.46-2.129
		C68.17,154.25,68.08,150.76,68.08,147.27z M81.19,134.221c-0.479-0.121-0.96-0.24-1.439-0.361c-0.53,0.48-1.5,0.961-1.511,1.451
		c-0.149,7.609-0.21,15.229-0.17,22.85c0,0.561,0.9,1.119,1.391,1.689c0.58-0.64,1.649-1.279,1.649-1.92
		C81.23,150.02,81.19,142.12,81.19,134.221z"/>
	<path fill="#CCCACA" d="M111.18,49.27c-1.47,0.03-2.93,0.05-4.4,0.08c0-1.47,0-2.94,0-4.04c-1.71-1.26-3.189-2.35-4.659-3.45
		c7.33,1.62,11.739-1.92,10.83-8.7c-0.851-6.38-4.95-8.47-11.99-6.13c2.609-1.2,6.229-4.09,7.64-3.25
		c3.061,1.83,5.32,5.35,7.25,8.58c0.87,1.45,0.15,3.84,0.15,6.52c6.77,0,13.16,0.12,19.529-0.16c0.74-0.03,1.58-2.17,2.04-3.46
		c0.62-1.72,0.91-3.56,1.341-5.35c-0.341,4.33-0.45,8.6,3.35,11.75c-0.14,0.17-0.28,0.35-0.43,0.52
		c-7.91-0.06-15.811-0.15-23.721-0.17C111.94,42.01,111.22,42.8,111.18,49.27z"/>
	<path fill="#CCCACA" d="M288.57,180.42c-0.18-3.58-0.25-7.17-0.55-10.75c-0.38-4.49,1.13-7.65,5.7-8.92
		c4,3.62,7.62,7.23,5.729,13.529C297.67,180.18,294.66,182.1,288.57,180.42z"/>
	<path fill="#CCCACA" d="M142.25,41.67c3.489,1.04,7.33,0.93,8.52-2.71c1.01-3.1,0.811-7.17-0.33-10.27
		c-1.529-4.17-5.67-2.98-9.109-2.35c2.43-3.95,5.659-2.97,8.81-1.26c3.71,2,6.49,7.61,5.35,10.74c-0.609,1.68-1.869,3.11-2.5,4.79
		c-1.1,2.93-1.93,5.97-2.869,8.96c-1.45-0.09-2.9-0.18-4.351-0.27c-1.319-2.37-2.63-4.73-3.95-7.1
		C141.97,42.02,142.11,41.85,142.25,41.67z"/>
</g>
<path fill="#B8B7B7" d="M101.15,40.82c0.32,0.36,0.641,0.71,0.96,1.07C101.79,41.54,101.47,41.18,101.15,40.82z"/>
<path fill="#B8B7B7" d="M141.28,26.38c-0.3,0.34-0.609,0.68-0.909,1.03C140.67,27.06,140.97,26.72,141.28,26.38z"/>
<path fill="#CCCACA" d="M285.96,180.62c0.31,0.04,0.63,0.09,0.939,0.13C286.59,180.7,286.27,180.66,285.96,180.62z"/>
<g>
	<path fill="#9BD4E0" d="M142.94,109.02c-2.71,0.63-3.26-0.91-2.939-3.07c1.939-13.15,3.8-26.32,6.04-39.42
		c0.27-1.57,2.689-3.9,4.149-3.93c7.59-0.19,15.19,0.25,22.78,0.47c-0.76,1.27-1.49,2.57-2.3,3.81
		C161.45,80.93,152.19,94.97,142.94,109.02z"/>
	<path fill="#9BD4E0" d="M158.96,109.08c4.96-7.79,9.859-15.63,14.91-23.36c3.88-5.96,7.96-11.79,11.939-17.68
		c0,13.47,0,26.94,0,41.05C176.74,109.08,167.85,109.08,158.96,109.08z"/>
</g>
<path fill="#FFFFFF" d="M103.9,142.92c-5.979,8.59-13.29,8.23-17.96-0.859c0.03-1.99,0.061-3.98,0.09-5.971
	c5.391-7.311,9.885-8.016,16.564-2.506l0.088,0.166l0.118,0.29C103.17,137,103.54,139.96,103.9,142.92z M101.06,140.29
	c-0.16-3.521-1.43-6.34-5.28-6.72c-3.59-0.36-6.14,1.359-6.779,5.1c-0.58,3.391,2.1,6.92,5.46,7.09
	C98.18,145.939,100.27,143.85,101.06,140.29z"/>
<path fill="#BC1B26" d="M289.09,129.939c-10.66,0.121-21.32-0.129-31.97-0.239c-16.11,0.04-32.221,0.079-48.341,0.079
	c-0.609,0-1.21-0.439-1.819-0.67c-2.8,0-5.601,0-8.92,0c0-7.409,0-14.789,0-22.169c0.06-7.69,0.109-15.39,0.17-23.08
	c0-5.69,0-11.39,0-17.08c-0.08-1.81-0.221-3.62-0.24-5.44c-0.13-8.71-2.88-11.39-11.67-11.45c-12.061-0.08-24.12-0.22-36.19-0.33
	c-1.449-0.09-2.899-0.18-4.35-0.27c-2.93,0.2-5.87,0.39-8.8,0.59c-1.471,13.62-2.91,27.25-4.42,40.86
	c-0.4,3.6-1.33,7.17-1.511,10.78c-0.34,7.11-3.479,12.11-10.399,14.03c-9.57,2.66-14.846,9.094-18.046,18.034l0.088,0.166l0,0
	c0.01,0,0.107,0.29,0.107,0.29c0.37,2.96,0.73,5.92,1.101,8.88c0.359,4.48,0.77,8.95,1.06,13.43c0.141,2.121,0.04,4.26,0.05,6.391
	c6.011,1.189,7.891,3.369,7.971,9.18c0.02,1.641,0.06,3.28,0.1,4.92c0.68-1.22,1.83-2.38,1.98-3.66
	c1.069-9.439,3.13-18.42,10.42-25.25c8.42-7.88,18.27-11.05,29.439-7.58c11.71,3.631,18.53,12.2,20.931,23.961
	c1.01,4.969,0.54,10.25,0.739,15.39c12.73,0.14,25.46,0.29,38.19,0.43c2.74-0.08,5.47-0.159,8.2-0.229
	c0.33-8.49,0.91-16.881,5.25-24.561c5.939-10.529,18.75-17.77,28.84-16.02c14.93,2.59,24.7,11.619,26.85,25.38
	c0.79,5.04,0.62,10.239,0.891,15.37c0.38,0.18,0.76,0.369,1.149,0.55c0.311,0.04,0.63,0.09,0.94,0.13
	c0.55-0.109,1.109-0.221,1.67-0.33c-0.18-3.58-0.25-7.17-0.55-10.75c-0.38-4.49,1.13-7.65,5.7-8.92
	c0.05-8.66-0.051-17.33,0.239-25.99C294.07,131.01,292.79,129.9,289.09,129.939z M158.96,109.08c-5.34-0.02-10.67-0.04-16.01-0.06
	c-2.711,0.63-3.261-0.91-2.94-3.07c1.94-13.15,3.8-26.32,6.04-39.42c0.27-1.57,2.689-3.9,4.15-3.93
	c7.59-0.19,15.189,0.25,22.779,0.47c2.62-0.03,5.3,0.26,7.86-0.15c4.39-0.7,5.729,1.07,4.96,5.13c0,13.47,0,26.94,0,41.05
	C176.74,109.08,167.85,109.08,158.96,109.08z M182.09,123.59c-3.08,0.45-6.3-0.16-9.4,0.189c-4.51,0.511-5.04-1.649-4.06-6.369
	c4.729,0,9.2-0.27,13.609,0.15c1.48,0.14,2.801,2.049,4.19,3.149C184.98,121.721,183.64,123.37,182.09,123.59z"/>
<g>
	<path fill="#9BD4E0" d="M130.37,58.85c0.729,2.08,2.3,4.26,2.06,6.21c-1.61,12.87-3.58,25.7-5.49,38.53
		c-0.5,3.39-2.479,5.46-5.979,5.59c-6.65,0.25-13.311,0.47-19.96,0.5c-11,0.05-22,0.15-32.98-0.26c-2.37-0.09-4.66-2.25-6.99-3.45
		c1.881-0.65,3.761-1.31,5.641-1.96c0.99-0.6,2.22-1,2.92-1.85c3.56-4.32,7.06-4.3,10.42,0.18c0.61,0.81,1.39,1.49,2.67,2.85
		c0.5-5.22-2.45-6.91-5.49-8.54C94.93,84.05,112.65,71.45,130.37,58.85z M113.03,104.92c0.141-1.14,0.74-2.47,0.36-3.4
		c-1.78-4.38-6.7-6.44-11.04-4.88c-3.92,1.41-5.46,3.86-4.59,7.29C104.98,96.9,108.25,97.1,113.03,104.92z"/>
	<path fill="#9BD4E0" d="M63.44,93.08c1.82-9.69,3.521-19.41,5.511-29.06c0.77-3.71,3.189-6.19,7.31-6.18
		c12.25,0.01,24.5,0.08,36.75,0.12c-1.91,1.81-3.64,3.85-5.75,5.38c-9.4,6.78-18.85,13.51-28.4,20.06
		C73.86,86.83,68.59,89.87,63.44,93.08z"/>
</g>
<g>
	<path fill="#C4E6EE" d="M142.94,109.02c9.25-14.05,18.5-28.1,27.74-42.15c0.81-1.24,1.53-2.54,2.3-3.81
		c2.62-0.03,5.3,0.26,7.86-0.15c4.39-0.7,5.729,1.07,4.96,5.13c-3.99,5.89-8.06,11.73-11.94,17.68
		c-5.05,7.74-9.949,15.57-14.909,23.36C153.62,109.06,148.28,109.04,142.94,109.02z"/>
	<path fill="#C4E6EE" d="M63.44,93.08c5.15-3.22,10.42-6.25,15.431-9.68c9.56-6.55,19-13.28,28.399-20.06
		c2.11-1.52,3.84-3.57,5.75-5.38c5.79,0.3,11.57,0.59,17.351,0.89c-17.721,12.6-35.45,25.2-53.17,37.8
		c-6.79-0.4-8.851,1.04-10.521,7.36c-1.88,0.65-3.76,1.31-5.64,1.96C61.84,101.68,62.64,97.38,63.44,93.08z"/>
</g>
<path fill="#8E8D8B" d="M157.13,172.73c0.05,6.949-3.76,11.42-9.69,11.35c-5.95-0.061-9.609-4.46-9.58-11.51
	c0.03-6.59,3.79-10.771,9.73-10.811C153.34,161.721,157.08,166.029,157.13,172.73z"/>
<path fill="none" d="M68.96,64.02c-2.01,9.66-3.7,19.37-5.521,29.06c-0.8,4.3-1.6,8.59-2.399,12.89c2.33,1.2,4.62,3.36,6.989,3.45
	c10.98,0.41,21.98,0.31,32.971,0.26c6.66-0.03,13.31-0.25,19.96-0.5c3.5-0.13,5.479-2.2,5.979-5.59c1.9-12.83,3.88-25.66,5.49-38.53
	c0.24-1.96-1.32-4.13-2.06-6.21c-5.78-0.3-11.57-0.59-17.351-0.89c-12.25-0.05-24.5-0.11-36.75-0.12
	C72.15,57.84,69.73,60.31,68.96,64.02z"/>
<g>
	<path fill="#E34443" d="M102.11,41.9l0.011-0.03c7.34,1.61,11.739-1.92,10.83-8.7c-0.86-6.38-4.961-8.47-11.99-6.13
		c-3.46,5.18-3.41,8.53,0.189,13.79C101.47,41.19,101.79,41.54,102.11,41.9z"/>
	<path fill="#E34443" d="M150.44,28.69c-1.529-4.17-5.67-2.98-9.109-2.35l-0.051,0.03c-0.3,0.34-0.609,0.69-0.909,1.03
		c-0.49,0.84-0.98,1.68-1.471,2.52c-0.34,4.33-0.449,8.6,3.351,11.75c3.489,1.04,7.33,0.93,8.52-2.71
		C151.78,35.86,151.58,31.79,150.44,28.69z"/>
</g>
<g>
	<path fill="#E34443" d="M106.77,49.36c-9.14-0.03-18.29-0.06-27.439-0.07c-8.11-0.01-12.66,2.99-14.17,10.45
		c-2.931,14.45-5.78,28.94-7.87,43.53c-0.9,6.28-2.601,10.56-8.811,13.35c-7.06,3.181-10.649,9.601-12.46,17.63
		c0.031-0.015,0.06-0.029,0.091-0.044c1.659-3.334,5.014-5.619,8.893-5.619c4.238,0,7.853,2.729,9.308,6.575
		c2.028-4.682,5.844-5.779,10.849-5.182c3.43,0.41,6.96,0.369,10.399,0.039c5.09-0.49,9.01,0.541,10.47,6.08
		c5.391-7.31,9.885-8.016,16.564-2.506c3.2-8.939,8.476-15.373,18.046-18.033c6.92-1.92,10.061-6.92,10.4-14.031
		c0.18-3.61,1.109-7.18,1.51-10.78c1.51-13.61,2.95-27.24,4.42-40.86c-8.6-0.21-17.19-0.41-25.8-0.61
		C109.7,49.31,108.23,49.33,106.77,49.36z M130.37,58.85c0.739,2.08,2.3,4.25,2.06,6.21c-1.61,12.87-3.59,25.7-5.49,38.53
		c-0.5,3.39-2.479,5.46-5.979,5.59c-6.65,0.25-13.3,0.47-19.96,0.5c-10.99,0.05-21.99,0.15-32.971-0.26
		c-2.369-0.09-4.659-2.25-6.989-3.45c0.8-4.3,1.6-8.59,2.399-12.89c1.82-9.69,3.511-19.4,5.521-29.06
		c0.77-3.71,3.189-6.18,7.31-6.18c12.25,0.01,24.5,0.07,36.75,0.12C118.8,58.26,124.59,58.55,130.37,58.85z"/>
	<path fill="#E34443" d="M45.004,149.247c-3.784,0-7.075-2.172-8.774-5.373c0,6.446,0,12.666,0,18.876c6.061,0,12.11,0,19.05,0
		c-0.39-6.641-0.76-13.109-1.14-19.57c-0.027,0.033-0.055,0.067-0.082,0.101C52.465,146.802,49.014,149.247,45.004,149.247z"/>
	<path fill="#E34443" d="M103.91,142.92c-5.99,8.59-13.301,8.24-17.96-0.859c-0.511,6.779-1.021,13.56-1.551,20.68
		c7.44,0,14.03,0,20.62,0c-0.01-2.131,0.08-4.27-0.05-6.391C104.68,151.87,104.27,147.4,103.91,142.92z"/>
	<path fill="#E34443" d="M61.72,136.59c-0.05-0.89-1.03-1.74-1.58-2.609c-0.67,0.91-1.89,1.81-1.91,2.729
		c-0.13,6.95-0.08,13.899,0.101,20.84c0.02,0.81,1.14,1.601,1.75,2.4c0.569-0.841,1.58-1.65,1.63-2.521
		c0.189-3.47,0.08-6.949,0.08-10.42C61.8,143.54,61.91,140.061,61.72,136.59z"/>
	<path fill="#E34443" d="M74.96,147.1c0-3.64,0.12-7.279-0.09-10.91c-0.051-0.75-1.301-1.42-2-2.119
		c-0.53,0.699-1.521,1.38-1.53,2.09c-0.12,7.109-0.13,14.23,0.02,21.34c0.021,0.8,1.221,1.59,1.88,2.38
		c0.601-0.95,1.641-1.87,1.7-2.86c0.21-3.289,0.08-6.609,0.08-9.92C75,147.1,74.98,147.1,74.96,147.1z"/>
	<path fill="#E34443" d="M66.68,134.13c-0.6,0.61-1.71,1.21-1.72,1.83c-0.12,7.3-0.12,14.61-0.01,21.91
		c0.01,0.67,1.04,1.33,1.6,1.989c0.51-0.709,1.43-1.399,1.46-2.129c0.16-3.48,0.07-6.971,0.07-10.461c0.029,0,0.05,0,0.08,0
		c0-3.649,0.08-7.299-0.07-10.949C68.06,135.57,67.17,134.859,66.68,134.13z"/>
	<path fill="#E34443" d="M79.75,133.84c-0.53,0.48-1.5,0.96-1.511,1.45c-0.149,7.62-0.21,15.229-0.17,22.851
		c0.011,0.569,0.91,1.129,1.391,1.689c0.569-0.641,1.64-1.27,1.649-1.92c0.12-7.891,0.08-15.79,0.08-23.689
		C80.71,134.1,80.23,133.98,79.75,133.84z"/>
</g>
<path fill="#8E8D8B" d="M245.95,172.79c0.05-6.569,4.25-11.58,9.76-11.63c5.31-0.051,9.92,5.289,10.02,11.59
	c0.101,6.48-4.22,11.42-9.92,11.359C249.88,184.04,245.91,179.48,245.95,172.79z"/>
<g>
	<path fill="#8E8D8B" d="M229.84,100.87c0,4.41,0,8.83,0,14.18c-5.99,0-11.87,0-17.74,0c-4.689-2.7-9.37-5.4-14.06-8.11
		c0.06-7.69,0.109-15.38,0.17-23.08c1.359-0.24,3.49-0.02,3.97-0.8c3.17-5.16,5.98-10.54,8.91-15.85c4.12,1.48,8.25,2.96,12.37,4.45
		c-1.51,0.47-2.99,1.1-4.53,1.38c-7.89,1.43-13.25,13.59-8.79,20.07C214.4,99.32,222.32,102.43,229.84,100.87z"/>
	<path fill="#8E8D8B" d="M210.92,119.76c2.069,0.4,4.14,1.131,6.22,1.15c12.93,0.119,25.86,0.08,38.79,0.09
		c0.4,2.9,0.79,5.8,1.19,8.7c-16.11,0.04-32.221,0.079-48.341,0.079c-0.609,0-1.21-0.439-1.819-0.67
		C208.28,125.99,209.6,122.88,210.92,119.76z"/>
	<path fill="#8E8D8B" d="M248.76,110.06c0,1.44,0,2.88,0,4.129c-0.45,0.271-0.58,0.42-0.73,0.44
		c-11.93,1.649-11.93,1.649-11.909-10.22c0.01-3.94,0-7.89,0-12.26c3.26,0,6.029,0,8.8,0c0.39,3.94,0.79,7.88,1.18,11.81
		c-1.63,1.69-3.26,3.38-5.88,6.1C244.25,110.06,246.51,110.06,248.76,110.06z"/>
</g>
<g>
	<path fill="#B8B7B7" d="M229.84,100.87c-7.51,1.57-15.43-1.55-19.71-7.76c-4.46-6.47,0.899-18.64,8.79-20.07
		c1.54-0.28,3.02-0.91,4.53-1.38c5.93,4.75,11.859,9.5,17.789,14.25c-8.479,0.06-16.96,0.13-25.449,0.16
		c-2.42,0.01-5.25-0.04-4.801,3.26c0.15,1.1,2.931,2.47,4.601,2.6c4.6,0.36,9.24,0.12,14.25,0.12
		C229.84,95.33,229.84,98.1,229.84,100.87z"/>
	<path fill="#B8B7B7" d="M211.09,67.22c-2.93,5.31-5.74,10.68-8.91,15.85c-0.479,0.78-2.6,0.56-3.97,0.8c0-5.69,0-11.39,0-17.08
		C202.5,66.93,206.8,67.07,211.09,67.22z"/>
	<path fill="#B8B7B7" d="M246.1,103.96c0.8-0.03,1.61-0.07,2.41-0.1c0.08,2.06,0.17,4.13,0.25,6.2c-2.25,0-4.51,0-8.54,0
		C242.84,107.34,244.47,105.65,246.1,103.96z"/>
</g>
<g>
	<path d="M49.069,143.909c-1.753,1.48-4.133,2.33-6.296,1.576c-2.116-0.737-3.386-3.232-3.53-5.354
		c-0.153-2.257,0.454-4.825,2.627-5.939c2.318-1.188,5.859-0.447,7.705,1.278c1.77,1.656,2.55,4.32,1.209,6.476
		C50.342,142.658,49.753,143.332,49.069,143.909z"/>
	<path d="M168.62,117.41c4.729,0,9.199-0.27,13.609,0.15c1.48,0.14,2.8,2.049,4.19,3.149c-1.44,1.011-2.78,2.649-4.33,2.88
		c-3.08,0.45-6.3-0.16-9.4,0.189C168.17,124.3,167.64,122.13,168.62,117.41z"/>
	<path d="M101.06,140.29c-0.79,3.56-2.88,5.649-6.609,5.47c-3.351-0.16-6.03-3.699-5.461-7.09c0.641-3.74,3.19-5.46,6.78-5.1
		C99.63,133.95,100.9,136.77,101.06,140.29z"/>
	<path d="M113.03,104.92c-4.779-7.82-8.06-8.01-15.27-0.99c-0.87-3.43,0.67-5.88,4.59-7.29c4.34-1.57,9.26,0.5,11.04,4.88
		C113.77,102.45,113.18,103.77,113.03,104.92z"/>
	<path d="M66.68,104.01c1.67-6.32,3.73-7.76,10.521-7.36c3.029,1.63,5.989,3.32,5.489,8.54c-1.29-1.36-2.069-2.04-2.67-2.85
		c-3.35-4.48-6.859-4.5-10.42-0.18C68.9,103.01,67.67,103.41,66.68,104.01z"/>
</g>
</svg>
