<?xml version="1.0" encoding="utf-8"?>
<!-- Generator: Adobe Illustrator 16.0.0, SVG Export Plug-In . SVG Version: 6.00 Build 0)  -->
<!DOCTYPE svg PUBLIC "-//W3C//DTD SVG 1.1//EN" "http://www.w3.org/Graphics/SVG/1.1/DTD/svg11.dtd">
<svg version="1.1" id="Layer_1" xmlns="http://www.w3.org/2000/svg" xmlns:xlink="http://www.w3.org/1999/xlink" x="0px" y="0px"
	 width="313px" height="292px" viewBox="0 0 313 292" enable-background="new 0 0 313 292" xml:space="preserve">
<path fill-rule="evenodd" clip-rule="evenodd" fill="#9B612D" d="M130.77,39.87c0.14,0.1,0.36,0.17,0.4,0.29
	c4.37,14.51,16.03,20.65,29.15,24.3c12.15,3.38,20.89,10.35,28.38,20.31c7.9,10.52,18.57,18.45,29.52,25.68
	c10.88,7.18,17.13,17.7,22.49,29.05c2.51,5.33,4.43,10.94,9.64,14.71c1.43,1.03,1.71,4.27,1.7,6.49c-0.01,2.23-1.04,4.45-1.65,6.79
	c-1.44-0.17-2.89-0.34-4.34-0.51c-5.79-13.88-13.17-26.79-23.17-38.11c-2.31-2.58-4.61-5.17-6.92-7.75
	c-8.07-8.26-15.71-17.02-24.32-24.68c-14.78-13.15-31.23-24.02-49.11-32.62c-3.72-1.79-7.59-3.27-11.39-4.89
	C128.51,52.64,127.61,46.3,130.77,39.87z"/>
<g>
	<path fill-rule="evenodd" clip-rule="evenodd" fill="#D4914F" d="M215.99,181.97c0.82-2.81,1.98-5.55,5.39-5.58
		c9.42-0.11,17.02-4.79,24.68-9.4c1.45,0.17,2.89,0.34,4.34,0.51c0.61-2.34,1.64-4.57,1.65-6.79c0.01-2.22-0.27-5.46-1.7-6.49
		c-5.21-3.77-7.13-9.38-9.64-14.71c-5.36-11.35-11.61-21.87-22.49-29.05c-10.96-7.23-21.62-15.16-29.52-25.68
		c-7.49-9.96-16.23-16.93-28.38-20.31c-13.12-3.65-24.78-9.79-29.15-24.3c-0.04-0.13-0.26-0.19-0.4-0.29
		c4.11-11.43,16.09-17.45,27.51-11.91c16.85,8.17,33.72,16.74,49.21,27.18c30.84,20.8,55.74,47.72,75.2,79.52
		c3.47,5.68,7,11.47,5.71,18.6c-1.35,7.4-5.57,13.01-12.48,15.59c-19.58,7.32-39.36,14.15-59.05,21.17
		C216.57,187.34,216.28,184.66,215.99,181.97z"/>
	<path fill-rule="evenodd" clip-rule="evenodd" fill="#D4914F" d="M40.25,241.98c9.91,1.24,18.27-2.02,26.27-7.84
		c9.46-6.88,18.78-5.42,25.3,2.91c-11.25,4.27-22.37,8.92-33.79,12.68C49.13,252.66,44.8,250.33,40.25,241.98z"/>
	<path fill-rule="evenodd" clip-rule="evenodd" fill="#D4914F" d="M112.06,230.25c0.04-6.29,3.94-9.71,9.07-12.21
		c4.1-1.67,8.25-3.23,12.29-5.05c5.27-2.38,10.34-5.24,15.7-7.4c5.68-2.29,10.01,0.66,10.8,6.83
		C143.96,218.36,128.01,224.3,112.06,230.25z"/>
	<path fill-rule="evenodd" clip-rule="evenodd" fill="#D4914F" d="M200.88,192c0.04,1.63,0.07,3.27,0.11,4.91
		c-8.34,2.97-16.69,5.93-25.03,8.9c0.39-9.94,4.63-15.1,14.14-17.37C194.48,187.38,198.25,187.91,200.88,192z"/>
</g>
<path fill-rule="evenodd" clip-rule="evenodd" fill="#D83B39" d="M142.86,134.07c-13.24-0.13-23.83-11.34-23.72-25.1
	c0.11-13.54,11.82-25.08,25.34-24.96c13.65,0.12,24.64,11.64,24.45,25.63C168.76,122.76,157.53,134.42,142.86,134.07z M159.13,99.4
	c-4.8-0.92-7.04,0.74-8.08,5.11C155.46,105.6,157.73,103.96,159.13,99.4z M146.49,117.37c-1.03,0.08-2.07,0.16-3.1,0.24
	c0.17,2.51,0.29,5.02,0.65,7.5c0.02,0.16,1.92,0.05,2.95,0.07C146.82,122.57,146.65,119.97,146.49,117.37z M137.19,115.11
	c-0.49-0.92-0.98-1.84-1.47-2.76c-2.16,1.21-4.31,2.41-6.47,3.62c0.52,0.91,1.42,2.63,1.49,2.6
	C132.95,117.53,135.06,116.31,137.19,115.11z M151.08,113.83c2.96,1.07,5.23,1.89,7.49,2.7c0.27-1.12,1.06-3,0.73-3.23
	C157.17,111.84,154.84,109.77,151.08,113.83z M141.58,100.51c5.31-1.72,4.53-4.52,3.89-6.91c-0.16-0.6-2.05-0.74-3.14-1.08
	C142.11,94.85,141.89,97.19,141.58,100.51z M134.23,106.52c0.78-0.75,1.56-1.5,2.34-2.25c-1.45-1.41-2.8-2.98-4.44-4.11
	c-0.4-0.27-1.79,0.91-2.73,1.42C131.01,103.23,132.62,104.87,134.23,106.52z"/>
<path fill-rule="evenodd" clip-rule="evenodd" fill="#D83B39" d="M101.81,203.61c-5.14,7.67-11.72,13.09-21.45,13.36
	c-12.78,0.35-23.04-7.27-25.35-18.75c-2.51-12.48,3.51-23.56,15.45-28.45c1.21-0.49,2.4-1.01,3.6-1.52
	c15.97-1.21,26.33,4.46,29.03,17.5C104.27,191.37,102.34,197.63,101.81,203.61z M71.85,197.1c-0.29-0.53-0.58-1.07-0.87-1.6
	c-2.25,1.17-4.5,2.34-6.74,3.51c0.7,0.93,1.33,2.61,2.1,2.67C69.61,201.98,71.15,199.89,71.85,197.1z M77.93,183.8
	c1.06,0.01,2.13,0.01,3.19,0.02c0-2.31,0.12-4.64-0.14-6.92c-0.03-0.3-1.99-0.38-3.05-0.57C77.93,178.82,77.93,181.31,77.93,183.8z
	 M63.81,185.79c2.42,1.17,4.84,2.34,7.26,3.51C69.95,183.09,68.81,182.47,63.81,185.79z M86.72,186.08
	c0.57,0.85,1.15,1.71,1.72,2.56c1.78-1.17,3.63-2.27,5.26-3.62c0.19-0.15-0.82-1.75-1.28-2.68
	C90.52,183.6,88.62,184.84,86.72,186.08z M88.56,195.2c-0.52,0.86-1.03,1.71-1.55,2.57c2.02,1.02,4.02,2.1,6.11,2.94
	c0.19,0.08,1-1.35,1.52-2.08C92.62,197.49,90.59,196.34,88.56,195.2z M81.33,201.25c-4.53,4.07-4.08,6.23,0.75,7.42
	C81.82,206.01,81.58,203.63,81.33,201.25z"/>
<path fill-rule="evenodd" clip-rule="evenodd" fill="#FFFFFF" d="M103.44,161.95l0.11,0.01c-10.41-12-10.15-20.03,0.89-28.1
	c9.4-3.24,16.1-1.84,21.12,4.4c3.98,4.95,4.44,12.27,1.11,17.76c-3.4,5.62-10.6,8.82-17.17,7.61c-1.46-0.27-2.91-0.62-4.36-0.93
	C104.57,162.45,104.01,162.2,103.44,161.95z M124.08,147.92c0.08-6.44-4.8-11.31-11.34-11.31c-6.55,0-11.48,4.68-11.68,11.1
	c-0.21,6.46,4.61,11.47,11.1,11.54C119.01,159.33,123.99,154.6,124.08,147.92z"/>
<path fill-rule="evenodd" clip-rule="evenodd" fill="#FFFFFF" d="M211.01,151.95c-6.16,13.43-17.99,14.19-24.8,8.73
	c-1.28-1.03-2.57-2.05-3.86-3.08c-2.72-4.55-3.69-9.41-2.53-14.64c2.74-5.68,6.85-9.79,13.28-10.81c8.44-1.34,14.31,2.7,18.05,12.07
	C211.1,146.8,211.05,149.38,211.01,151.95z M194.89,159.16c6.81,0.07,11.9-4.72,11.98-11.3c0.08-6.3-5.37-11.65-11.82-11.59
	c-6.51,0.06-11.23,4.82-11.3,11.4C183.68,154.14,188.48,159.09,194.89,159.16z"/>
<g>
	<path fill-rule="evenodd" clip-rule="evenodd" fill="#68A248" d="M145.16,184.87c0.06,12.83-12.89,21.26-24.36,15.8
		c-2.49-1.18-4.97-2.74-3.52-6.05c1.42-3.26,3.81-2.02,6.26-1c5.65,2.36,10.83,0.47,12.93-4.46c2.2-5.16,0.3-10.14-4.97-12.94
		c-0.88-0.47-2.25-0.65-2.59-1.36c-0.85-1.74-1.81-3.79-1.57-5.55c0.11-0.79,3.21-1.96,4.63-1.62
		C139.7,169.56,145.12,176.86,145.16,184.87z"/>
	<path fill-rule="evenodd" clip-rule="evenodd" fill="#68A248" d="M211.01,151.95c0.05-2.58,0.1-5.15,0.15-7.73
		c4.8-4.47,5.61-7.86,3.04-12.68c-2.12-3.97-6.17-5.54-11.66-4.28c-2.64,0.61-5.44,1.86-6.31-2.1c-0.82-3.72,2-5.69,4.75-5.7
		c5-0.03,10,1.04,15,1.66c2.31,2.59,4.61,5.17,6.92,7.75c0,4.17,0.62,8.45-0.12,12.48C221.54,147.96,216.44,152.08,211.01,151.95z"
		/>
	<path fill-rule="evenodd" clip-rule="evenodd" fill="#68A248" d="M104.44,133.86c-11.04,8.07-11.3,16.1-0.89,28.1
		c-6.8,0.2-10.64-4.33-14.4-8.99c-3.26-4.79-3.69-8.69-1.06-14.99c2.97-3.45,5.64-7.26,9.07-10.17c1.41-1.2,5.06-1.36,6.56-0.34
		C104.87,128.26,104.26,131.64,104.44,133.86z"/>
</g>
<path fill-rule="evenodd" clip-rule="evenodd" fill="#D83B39" d="M179.82,142.96c-1.16,5.23-0.19,10.08,2.53,14.64
	c-2.79,1.79-5.58,3.57-8.38,5.36c-0.71-0.02-1.43-0.04-2.14-0.06c0.14-0.63,0.46-1.29,0.38-1.9c-0.2-1.36-0.6-2.69-0.92-4.03
	c-1.07,0.93-2.25,1.76-3.16,2.83c-0.77,0.9-1.22,2.08-1.81,3.13c-5.2-7.27-2.9-14.13,6.38-18.26
	C174.88,143.69,177.43,143.51,179.82,142.96z"/>
<path fill-rule="evenodd" clip-rule="evenodd" d="M166.31,162.93c0.59-1.05,1.04-2.23,1.81-3.13c0.91-1.07,2.09-1.9,3.16-2.83
	c0.32,1.34,0.72,2.67,0.92,4.03c0.09,0.6-0.24,1.26-0.38,1.9c-0.66,0.85-1.32,1.71-1.98,2.56c-0.43,0.56-0.86,1.13-1.3,1.69
	l-0.29,0.29c-5.46,5.65-11.38,6.32-18.27,6.55c-4.95,0.17-14.26-8.59-14.89-13.64c-0.13-1.02,0.81-2.17,1.26-3.25
	c0.86,0.85,2.09,1.55,2.52,2.59c4.17,10.05,13.32,12.42,21.65,8.49C162.79,167.11,164.4,164.71,166.31,162.93z"/>
<g>
	<path fill-rule="evenodd" clip-rule="evenodd" fill="#EE9899" d="M111.37,176.08c-5.12-0.3-9.54-0.58-11.12-5.38
		c-0.87-2.63,4.84-5.76,10.3-5.71c2.3,0.02,4.82-0.08,6.82,0.81c1.81,0.81,4.34,3.01,4.22,4.39c-0.15,1.69-2.47,3.65-4.32,4.61
		C115.31,175.82,112.8,175.8,111.37,176.08z"/>
	<path fill-rule="evenodd" clip-rule="evenodd" fill="#EE9899" d="M197.01,164.5c2.16,0.57,4.57,0.78,6.5,1.85
		c1.49,0.83,3.31,2.77,3.28,4.18c-0.03,1.41-2.05,3.81-3.41,3.97c-4.3,0.5-8.73,0.48-13.03-0.04c-1.53-0.19-4.06-2.57-3.92-3.68
		c0.22-1.73,2.02-3.74,3.69-4.68C192.02,165.04,194.52,165.03,197.01,164.5z"/>
</g>
<path fill-rule="evenodd" clip-rule="evenodd" fill="#68A248" d="M103.44,161.95c0.57,0.25,1.13,0.5,1.7,0.75
	C104.57,162.45,104.01,162.2,103.44,161.95z"/>
<g>
	<g>
		<path fill-rule="evenodd" clip-rule="evenodd" fill="#F6CF59" d="M103.44,161.95c0.01,0,0.02,0.01,0.03,0.01c0.03,0,0.05,0,0.08,0
			L103.44,161.95z"/>
		<path fill-rule="evenodd" clip-rule="evenodd" fill="#F6CF59" d="M83,135c-2.21,3.67-4.42,7.33-6.63,11
			c-2.53,4.31-5.05,8.61-7.58,12.92c-3.31,4.95-6.97,9.71-9.87,14.89c-8.57,15.32-17.43,30.52-25.01,46.32
			c-5.07,10.57-2.89,15.28,6.34,21.84c9.91,1.24,18.27-2.02,26.27-7.84c9.46-6.88,18.78-5.42,25.3,2.91
			c4.17,4.19,4.9,9.55,5.24,15.08c0.24,3.94,0.34,7.95,1.17,11.78c0.33,1.51,2.51,3.7,3.82,3.68c1.96-0.03,4.36-1.32,5.7-2.85
			c1.3-1.49,1.94-3.91,2.09-5.98c0.54-7.42,0.7-14.86,1.14-22.29c0.12-2.09,0.7-4.15,1.08-6.22c0.04-6.29,3.94-9.71,9.07-12.21
			c0,0,0,0,0,0c4.1-1.68,8.25-3.23,12.29-5.06c5.27-2.38,10.34-5.24,15.7-7.4c5.68-2.29,10.01,0.66,10.8,6.83
			c0.43,1.18,0.86,2.36,1.29,3.55c0.51,4.04,0.39,8.31,1.8,12.01c0.73,1.9,4.24,3.87,6.38,3.75c1.82-0.09,4.08-2.86,5.03-4.96
			c0.87-1.92,0.22-4.51,0.25-6.81c0.43-4.72,0.87-9.44,1.31-14.15c0.38-9.94,4.63-15.1,14.14-17.37c4.38-1.05,8.14-0.52,10.78,3.57
			c0.04,1.63,0.07,3.27,0.11,4.91c0.23,0.8,0.53,1.58,0.69,2.4c0.73,3.77,1.84,7.64,6.53,7.32c4.43-0.3,6.31-3.67,6.89-7.91
			c0.4-2.92,1.16-5.79,1.76-8.68c-0.29-2.69-0.58-5.37-0.87-8.06c0.82-2.81,1.98-5.55,5.39-5.58c9.42-0.11,17.02-4.79,24.68-9.4
			c-5.79-13.88-13.18-26.79-23.17-38.11c0,4.17,0.62,8.45-0.12,12.48c-1.22,6.59-6.32,10.72-11.75,10.58
			c-6.16,13.43-17.99,14.19-24.8,8.73c-1.28-1.03-2.57-2.05-3.86-3.08c-2.79,1.79-5.58,3.58-8.38,5.36
			c-0.71-0.02-1.43-0.04-2.14-0.06c-0.66,0.85-1.32,1.71-1.98,2.56c-0.43,0.56-0.86,1.12-1.29,1.69c0,0-0.29,0.29-0.29,0.3
			c-5.46,5.65-12.7,5.11-19.58,5.34c-4.95,0.17-12.95-7.39-13.58-12.44c-0.13-1.02,0.81-2.17,1.26-3.25
			c0.86,0.85,2.09,1.55,2.52,2.59c4.17,10.05,13.32,12.42,21.65,8.49c2.25-1.06,3.87-3.46,5.77-5.25c-5.2-7.27-2.9-14.13,6.38-18.26
			c2.19-0.98,4.75-1.16,7.13-1.7c2.74-5.68,6.85-9.79,13.28-10.81c8.44-1.34,14.31,2.7,18.05,12.07c4.8-4.47,5.61-7.86,3.04-12.68
			c-2.12-3.97-6.17-5.54-11.66-4.28c-2.64,0.61-5.44,1.86-6.31-2.1c-0.82-3.72,2-5.69,4.75-5.7c5-0.03,10,1.04,15,1.66
			c-8.07-8.26-15.71-17.02-24.32-24.68c-14.78-13.15-31.23-24.02-49.11-32.62c-3.72-1.79-7.59-3.27-11.39-4.89
			c-5.9,8.81-12.02,17.48-17.65,26.46C103.18,101.85,93.15,118.46,83,135 M89.15,152.98c-3.26-4.79-2.7-7.96-1.6-13.06l0.54-1.93
			c2.97-3.45,5.64-7.26,9.06-10.17c1.41-1.2,5.06-1.36,6.56-0.34c1.16,0.78,0.55,4.16,0.73,6.39c9.4-3.24,16.1-1.84,21.12,4.4
			c3.98,4.95,4.44,12.27,1.11,17.76c-3.4,5.62-10.6,8.82-17.17,7.61c-1.46-0.27-2.91-0.62-4.36-0.93c-0.56-0.25-1.11-0.49-1.67-0.74
			C96.72,162.13,92.9,157.61,89.15,152.98 M119.14,108.97c0.11-13.54,11.82-25.08,25.34-24.96c13.65,0.12,24.64,11.64,24.45,25.63
			c-0.18,13.12-11.4,24.79-26.08,24.44C129.62,133.94,119.03,122.73,119.14,108.97z M110.54,165c2.3,0.02,4.82-0.08,6.82,0.81
			c1.81,0.81,4.34,3.01,4.22,4.39c-0.15,1.69-2.47,3.65-4.32,4.61c-1.96,1.02-4.47,1-5.9,1.28c-5.12-0.3-9.54-0.58-11.12-5.38
			C99.38,168.07,105.09,164.94,110.54,165z M80.37,216.96c-12.78,0.35-23.04-7.27-25.35-18.75c-2.51-12.48,3.51-23.56,15.45-28.45
			c1.21-0.49,2.4-1.01,3.6-1.52l0,0c15.97-1.21,26.33,4.46,29.03,17.5c1.17,5.63-0.76,11.89-1.29,17.87
			C96.67,211.28,90.1,216.7,80.37,216.96z M120.79,200.68c-2.49-1.18-4.97-2.74-3.52-6.05c1.42-3.26,3.81-2.02,6.26-1
			c5.65,2.36,10.83,0.47,12.93-4.46c2.2-5.16,0.3-10.14-4.97-12.94c-0.88-0.47-2.25-0.65-2.59-1.36c-0.85-1.74-1.81-3.79-1.57-5.55
			c0.11-0.79,3.21-1.96,4.63-1.62c7.74,1.86,13.15,9.17,13.19,17.18C145.22,197.71,132.26,206.14,120.79,200.68z M190.35,174.46
			c-1.53-0.19-4.06-2.57-3.92-3.68c0.22-1.73,2.02-3.74,3.69-4.68c1.91-1.07,4.4-1.08,6.89-1.61c2.16,0.57,4.57,0.78,6.5,1.85
			c1.49,0.83,3.31,2.77,3.28,4.18c-0.03,1.41-2.05,3.81-3.41,3.97C199.08,175.01,194.64,174.99,190.35,174.46z"/>
	</g>
	<path fill-rule="evenodd" clip-rule="evenodd" fill="#F6CF59" d="M159.13,99.4c-1.4,4.56-3.67,6.21-8.08,5.11
		C152.08,100.14,154.33,98.48,159.13,99.4z"/>
	<path fill-rule="evenodd" clip-rule="evenodd" fill="#F6CF59" d="M146.49,117.37c0.17,2.6,0.33,5.21,0.5,7.81
		c-1.03-0.02-2.92,0.09-2.95-0.07c-0.36-2.48-0.48-4.99-0.65-7.5C144.42,117.53,145.45,117.45,146.49,117.37z"/>
	<path fill-rule="evenodd" clip-rule="evenodd" fill="#F6CF59" d="M137.19,115.11c-2.13,1.2-4.25,2.42-6.44,3.46
		c-0.07,0.03-0.98-1.69-1.49-2.6c2.16-1.21,4.31-2.41,6.47-3.62C136.21,113.28,136.7,114.2,137.19,115.11z"/>
	<path fill-rule="evenodd" clip-rule="evenodd" fill="#F6CF59" d="M151.08,113.83c3.77-4.06,6.09-1.99,8.22-0.53
		c0.34,0.23-0.46,2.11-0.73,3.23C156.31,115.72,154.04,114.9,151.08,113.83z"/>
	<path fill-rule="evenodd" clip-rule="evenodd" fill="#F6CF59" d="M141.58,100.51c0.31-3.32,0.53-5.66,0.76-7.99
		c1.09,0.35,2.98,0.49,3.14,1.08C146.1,95.99,146.88,98.79,141.58,100.51z"/>
	<path fill-rule="evenodd" clip-rule="evenodd" fill="#F6CF59" d="M134.23,106.52c-1.61-1.65-3.22-3.29-4.83-4.94
		c0.94-0.51,2.33-1.69,2.73-1.42c1.65,1.13,2.99,2.7,4.44,4.11C135.79,105.02,135.01,105.77,134.23,106.52z"/>
	<path fill-rule="evenodd" clip-rule="evenodd" fill="#F6CF59" d="M71.85,197.1c-0.7,2.79-2.24,4.88-5.51,4.58
		c-0.77-0.07-1.4-1.74-2.1-2.67c2.25-1.17,4.5-2.34,6.74-3.51C71.27,196.03,71.56,196.57,71.85,197.1z"/>
	<path fill-rule="evenodd" clip-rule="evenodd" fill="#F6CF59" d="M77.93,183.8c0-2.49,0-4.98,0-7.48c1.06,0.18,3.01,0.27,3.05,0.57
		c0.26,2.28,0.14,4.61,0.14,6.92C80.06,183.81,78.99,183.81,77.93,183.8z"/>
	<path fill-rule="evenodd" clip-rule="evenodd" fill="#F6CF59" d="M63.81,185.79c5-3.31,6.13-2.7,7.26,3.51
		C68.66,188.13,66.24,186.96,63.81,185.79z"/>
	<path fill-rule="evenodd" clip-rule="evenodd" fill="#F6CF59" d="M86.72,186.08c1.9-1.24,3.8-2.49,5.7-3.73
		c0.46,0.93,1.46,2.52,1.28,2.68c-1.63,1.35-3.48,2.45-5.26,3.62C87.86,187.79,87.29,186.94,86.72,186.08z"/>
	<path fill-rule="evenodd" clip-rule="evenodd" fill="#F6CF59" d="M88.56,195.2c2.03,1.15,4.05,2.29,6.08,3.43
		c-0.52,0.73-1.32,2.16-1.52,2.08c-2.09-0.84-4.09-1.92-6.11-2.94C87.53,196.91,88.05,196.06,88.56,195.2z"/>
	<path fill-rule="evenodd" clip-rule="evenodd" fill="#F6CF59" d="M81.33,201.25c0.24,2.38,0.48,4.76,0.75,7.42
		C77.26,207.49,76.8,205.32,81.33,201.25z"/>
</g>
<path fill-rule="evenodd" clip-rule="evenodd" d="M124.08,147.92c-0.09,6.68-5.07,11.41-11.92,11.33
	c-6.49-0.08-11.3-5.08-11.1-11.54c0.2-6.42,5.13-11.1,11.68-11.1C119.28,136.61,124.16,141.48,124.08,147.92z"/>
<path fill-rule="evenodd" clip-rule="evenodd" d="M194.89,159.16c-6.4-0.07-11.21-5.02-11.14-11.49c0.07-6.57,4.79-11.34,11.3-11.4
	c6.44-0.06,11.9,5.29,11.82,11.59C206.78,154.43,201.7,159.23,194.89,159.16z"/>
<path fill-rule="evenodd" clip-rule="evenodd" fill="#F6CF59" d="M169.85,165.46c-0.43,0.56-0.86,1.12-1.29,1.69
	C168.99,166.59,169.42,166.03,169.85,165.46z"/>
</svg>
