<?xml version="1.0" encoding="utf-8"?>
<!-- Generator: Adobe Illustrator 16.0.0, SVG Export Plug-In . SVG Version: 6.00 Build 0)  -->
<!DOCTYPE svg PUBLIC "-//W3C//DTD SVG 1.1//EN" "http://www.w3.org/Graphics/SVG/1.1/DTD/svg11.dtd">
<svg version="1.1" id="Layer_1" xmlns="http://www.w3.org/2000/svg" xmlns:xlink="http://www.w3.org/1999/xlink" x="0px" y="0px"
	 width="347.98px" height="217.49px" viewBox="0 0 347.98 217.49" enable-background="new 0 0 347.98 217.49" xml:space="preserve">
<circle fill="#FFFFFF" cx="42.9" cy="135.49" r="10.42"/>
<path fill-rule="evenodd" clip-rule="evenodd" fill="#2C2B2A" d="M185.75,177.19c15.34-0.01,30.68-0.02,46.02-0.03
	c-2.84,10.44-10.67,16.54-21.38,16.67C197.63,193.99,189.02,188.17,185.75,177.19z"/>
<path fill-rule="evenodd" clip-rule="evenodd" fill="#2C2B2A" d="M53.42,178.93c15.3,0.02,30.59,0.04,45.89,0.06
	c-3.37,9.7-10.59,14.69-20.42,15.41c-9.49,0.69-18.12-1.76-23.6-10.5C54.36,182.44,54.03,180.6,53.42,178.93z"/>
<g>
	<path fill-rule="evenodd" clip-rule="evenodd" fill="#CCCCCB" d="M73.39,159.76c11.33-0.06,22.67-0.13,34.01-0.19
		c1,0.03,2,0.06,2.99,0.09c4.96,0.86,6.9,4.26,6.95,8.82c0.03,2.76-0.63,5.53-0.98,8.29c-5.68,0.74-11.36,1.48-17.04,2.22
		c-15.3-0.02-30.59-0.04-45.89-0.06c-2.35-0.18-4.7-0.39-7.05-0.53c-4.41-0.27-9.12,0.41-13.16-0.94c-7.92-2.65-7.6-11.47,0.3-17.66
		c10.29-0.02,20.58-0.03,30.88-0.05C67.39,159.76,70.39,159.76,73.39,159.76z"/>
	<path fill-rule="evenodd" clip-rule="evenodd" fill="#CCCCCB" d="M307.27,176.84c-0.38-1.44-0.77-2.87-1.13-4.31
		c-2.19-8.73,1.75-13.82,10.7-13.82c1.49,0,2.99,0.03,4.48,0.05c2.02,2.6,5.38,4.99,5.81,7.83c1.45,9.52-6.33,15.08-15.7,11.83
		C310.03,177.92,308.65,177.36,307.27,176.84z"/>
</g>
<path fill-rule="evenodd" clip-rule="evenodd" d="M42.26,129.21c3.69-0.09,7.34,3.15,7.02,6.7c-0.3,3.33-1.84,5.91-5.79,6.02
	c-4.07,0.12-6.74-2.39-7.05-6.52C36.11,131.12,38.62,129.67,42.26,129.21z"/>
<g>
	<path fill-rule="evenodd" clip-rule="evenodd" fill="#99D6E2" d="M134.34,91.89c-0.6,3.33-1.2,6.66-1.8,10
		c-2.02,1.35-4.02,3.85-6.06,3.89c-20.27,0.32-40.54,0.3-60.81,0.14c-1.35-0.01-2.69-1.96-4.04-3c1.52-1.03,3.04-2.06,4.56-3.09
		c1.1-0.43,2.59-0.54,3.23-1.34c3.33-4.16,8.02-4.05,10.95,0.41c0.56,0.85,1.33,1.55,2.56,2.98c0.74-5.5-2.54-7.19-5.57-9.04
		c0.59-0.93,0.97-2.15,1.8-2.74c8.02-5.78,16.09-11.49,24.19-17.16c9.99-6.98,20.02-13.89,30.03-20.84c4.07,0.82,4.65,3.8,4.28,7.2
		c-0.97,8.89-2.06,17.77-3.04,26.66C134.41,87.91,134.43,89.91,134.34,91.89z"/>
	<path fill-rule="evenodd" clip-rule="evenodd" fill="#99D6E2" d="M63.46,87.94c1.02-10.31,1.88-20.65,3.21-30.92
		c0.23-1.8,2.46-3.34,3.77-4.99c9.31-0.16,18.62-0.32,27.94-0.48c5.01,0.13,10.03,0.26,15.04,0.39c-1.27,1.28-2.39,2.76-3.83,3.8
		c-9.2,6.68-18.42,13.34-27.74,19.86C75.81,79.84,69.6,83.83,63.46,87.94z"/>
</g>
<g>
	<path fill-rule="evenodd" clip-rule="evenodd" fill="#99D6E2" d="M194.26,106.12c4.63-6.62,9.08-13.37,13.95-19.82
		c6.26-8.31,12.86-16.37,19.31-24.54c0.22,8.54,0.51,17.09,0.63,25.63c0.08,5.44-0.1,10.89-0.16,16.33
		c-1.55,1.02-3.11,2.04-4.66,3.05c-7.32,0.01-14.63,0.02-21.95,0.03C199,106.58,196.63,106.35,194.26,106.12z"/>
	<path fill-rule="evenodd" clip-rule="evenodd" fill="#99D6E2" d="M216.37,51.96c-9.43,12.49-18.85,25-28.33,37.47
		c-0.99,1.3-2.3,2.35-3.47,3.51c-0.14-2.68-0.29-5.36-0.43-8.04c0.05-9.16,0.25-18.32,0.07-27.47c-0.08-4.22,1.17-6.06,5.69-5.87
		C198.71,51.92,207.54,51.85,216.37,51.96z"/>
</g>
<g>
	<path fill-rule="evenodd" clip-rule="evenodd" fill="#99D6E2" d="M234.64,97.97c-0.09-13.82-0.14-27.64-0.27-41.46
		c-0.04-3.68,1.72-4.9,5.26-4.85c9.83,0.13,19.65,0.03,29.48,0.03c2.82,0,5.58,0.11,5.19,4.15c-1.34,0.89-2.95,1.53-3.97,2.7
		c-7.05,8.06-13.86,16.35-20.99,24.33C244.65,88.1,239.55,92.95,234.64,97.97z"/>
	<path fill-rule="evenodd" clip-rule="evenodd" fill="#99D6E2" d="M244.37,105.94c9.96-11.01,19.93-22.02,29.89-33.03
		c0.12,6.66,0.25,13.33,0.37,19.99c-0.07,3.07-0.35,6.15-0.16,9.21c0.2,3.14-1.15,4.48-4.11,4.58c-6-0.01-12-0.01-17.99-0.02
		c-1,0.01-1.99,0.01-2.99,0.02C247.71,106.43,246.04,106.18,244.37,105.94z"/>
</g>
<g>
	<path fill-rule="evenodd" clip-rule="evenodd" fill="#99D6E2" d="M302.36,106.77c-5.65-0.19-11.31-0.52-16.96-0.52
		c-3.24,0-4.75-1.04-3.96-4.41c4.4-4.47,8.8-8.93,13.19-13.41c5.4-5.52,10.79-11.05,16.18-16.58c0.12,10.05,0.3,20.09,0.27,30.13
		c0,1.33-1.1,2.66-1.7,3.99c-0.71,0.23-1.41,0.46-2.12,0.69C305.63,106.69,303.99,106.73,302.36,106.77z"/>
	<path fill-rule="evenodd" clip-rule="evenodd" fill="#99D6E2" d="M308.41,53.02c-2.96,3.71-5.67,7.65-8.94,11.07
		c-5.83,6.1-12,11.89-18.03,17.81c-0.08-8.45-0.3-16.9-0.13-25.34c0.03-1.57,1.63-4.44,2.5-4.44
		C292.02,52.14,300.22,52.65,308.41,53.02z"/>
</g>
<g>
	<path fill-rule="evenodd" clip-rule="evenodd" fill="#99D6E2" d="M146.51,97.89c1.93-15.01,3.87-30.01,5.8-45.02
		c7.54-0.33,15.07-0.81,22.61-0.82c0.91,0,2.46,2.43,2.62,3.85c0.36,3.26,0.05,6.59,0.01,9.89c-1.49,1.3-3.1,2.49-4.46,3.92
		C164.2,79.08,155.37,88.5,146.51,97.89z"/>
	<path fill-rule="evenodd" clip-rule="evenodd" fill="#99D6E2" d="M155.37,105.91c2.04-2.74,3.87-5.67,6.16-8.18
		c5.22-5.73,10.67-11.25,16.03-16.85c0.23,1.34,0.46,2.68,0.7,4.02c-0.29,7-0.58,14-0.87,21C170.04,105.9,162.7,105.9,155.37,105.91
		z"/>
</g>
<path fill-rule="evenodd" clip-rule="evenodd" fill="#F2BB29" d="M307.26,106.66c0.71-0.23,1.41-0.46,2.12-0.69
	C308.67,106.2,307.97,106.43,307.26,106.66z"/>
<path fill-rule="evenodd" clip-rule="evenodd" fill="#FEFEFE" d="M104.92,129.04c2.81,3.86,3.2,7.93,1.09,12.22
	c-6.45,6.42-13.99,5.6-17.23-1.74c-1.98-4.49-0.21-7.99,2.76-10.96c3.16-3.16,7.02-3.42,10.94-1.21
	C103.34,127.83,104.11,128.47,104.92,129.04z M104.14,135.64c-0.34-3.4-2.17-5.9-6.05-6.31c-3.55-0.37-6.85,2.81-6.69,6.41
	c0.17,3.77,2.12,6.26,6,6.68C100.94,142.81,104.06,139.69,104.14,135.64z"/>
<g>
	<path fill-rule="evenodd" clip-rule="evenodd" fill="#C3E6ED" d="M216.37,51.96c0.66-0.06,1.32-0.16,1.98-0.18
		c9.63-0.22,9.89,0.07,9.17,9.98c-6.45,8.17-13.04,16.23-19.31,24.54c-4.86,6.45-9.31,13.2-13.95,19.82
		c-11.88,0.48-9.6,0.74-9.88-9.26c-0.04-1.3,0.12-2.61,0.19-3.92c1.16-1.17,2.48-2.22,3.47-3.51
		C197.52,76.96,206.93,64.45,216.37,51.96z"/>
	<path fill-rule="evenodd" clip-rule="evenodd" fill="#C3E6ED" d="M234.64,97.97c4.91-5.02,10.01-9.87,14.69-15.1
		c7.14-7.99,13.94-16.27,20.99-24.33c1.02-1.17,2.63-1.81,3.97-2.7c-0.01,5.69-0.02,11.38-0.03,17.07
		c-9.96,11.01-19.93,22.02-29.89,33.03c-3.41-0.45-7.43,2.07-10.1-2.04C234.39,101.92,234.51,99.94,234.64,97.97z"/>
	<path fill-rule="evenodd" clip-rule="evenodd" fill="#C3E6ED" d="M310.81,71.84c-5.39,5.53-10.78,11.06-16.18,16.58
		c-4.39,4.48-8.79,8.94-13.19,13.41c-0.14-2.98-0.28-5.96-0.41-8.93c0.14-3.67,0.28-7.33,0.43-11c6.03-5.92,12.19-11.7,18.03-17.81
		c3.27-3.42,5.98-7.36,8.94-11.07c0.73,1.18,2.02,2.33,2.09,3.55C310.8,61.65,310.74,66.75,310.81,71.84z"/>
	<path fill-rule="evenodd" clip-rule="evenodd" fill="#C3E6ED" d="M146.51,97.89c8.85-9.4,17.69-18.81,26.58-28.17
		c1.36-1.43,2.96-2.62,4.46-3.92c0,5.02,0,10.05,0,15.07c-5.36,5.61-10.8,11.13-16.03,16.85c-2.29,2.51-4.12,5.44-6.16,8.18
		c-0.32,0.21-0.64,0.42-0.96,0.62c-0.49-0.05-0.97-0.12-1.46-0.14C145.32,106.11,144.85,105.48,146.51,97.89z"/>
	<path fill-rule="evenodd" clip-rule="evenodd" fill="#C3E6ED" d="M113.42,51.94c-1.27,1.28-2.39,2.76-3.83,3.8
		c-9.2,6.68-18.42,13.34-27.74,19.86c-6.05,4.23-12.26,8.23-18.4,12.33c-0.28,1.3-0.56,2.6-0.84,3.9
		c-0.33,3.69-0.66,7.38-0.99,11.07c1.52-1.03,3.04-2.06,4.56-3.09c1.15-1.91,2.3-3.83,3.45-5.74c0,0,0,0,0,0
		c2.58-0.42,5.15-0.84,7.73-1.26c0.59-0.93,0.97-2.15,1.8-2.74c8.02-5.78,16.09-11.49,24.19-17.16
		c9.99-6.98,20.02-13.89,30.03-20.84C126.74,52.04,120.08,51.99,113.42,51.94z"/>
</g>
<path fill="#F9C330" d="M180.4,113.17c7.65,0.03,15.31,0.05,22.96,0.08c8.35-0.04,16.69-0.07,25.04-0.11
	c5.34,0,10.69-0.01,16.03-0.01c1.81,0.13,3.62,0.38,5.43,0.38c23.93,0.07,47.86,0.11,71.79,0.16c-0.01-0.97-0.02-1.93-0.03-2.9
	c0.16-21.64,0.37-43.27,0.47-64.9c0.05-10.58-4.23-14.71-14.92-14.62c-18.96,0.16-37.91,0.43-56.87,0.5
	c-34.28,0.12-68.56,0.18-102.84,0.08c-6.21-0.02-12.52-2.07-18.48-3.61c-7.73-1.99-16-1.05-23.86-0.65
	c-4.58,0.24-9.13-0.47-13.7-0.39c-4.35,0.07-8.51,1.71-12.87,1.68c-3.63-0.02-8.32,0.42-10.27,4.03c4.7-0.36,9.43-1.29,14.1-1.94
	c0.24,0.35,0.47,0.71,0.71,1.06c0,5.54,0,11.07,0,17.35c-4.95,0-9.33,0-13.71,0c-4.95-0.23-2.3-4.27-3.26-6.5
	c0.18-0.31,0.19-0.63,0.02-0.95c0.01-0.67,0.03-1.34,0.04-2.01c-0.19-1.47-0.38-2.93-0.57-4.4c-0.42,1.09-0.85,2.19-1.27,3.28
	c-0.65,1.45-1.73,2.85-1.88,4.35C60.71,61.47,59,79.81,57.49,98.15c-0.58,7.03-2.24,12.34-10.2,14.83
	c-7.56,2.37-12.79,8-13.56,16.98c5.23-4.76,12.04-4.22,15.67-0.58c3.53,3.54,4.02,7.46,1.12,11.63c-1.41,1.29-2.56,2.69-4.17,3.73
	c-5.55,1.98-9.41-0.59-12.83-5.63c0,7.51,0,14.1,0,20.68c10.29-0.02,20.58-0.03,30.88-0.05c3,0,6,0,8.99,0
	c11.33-0.06,22.67-0.13,34.01-0.19v0c1,0.03,2,0.06,2.99,0.09c4.96,0.86,6.9,4.26,6.95,8.82c0.03,2.76-0.63,5.53-0.98,8.29
	c1.7,0.02,3.4,0.05,5.1,0.07c0.47-4.93,0.94-9.86,1.4-14.79c3.93-5.01,7.85-10.02,11.78-15.03c3.25-1.12,6.5-2.25,9.75-3.37
	c17.34-0.92,29.67,13.44,26.74,33.2c4.88,0.12,9.75,0.23,14.63,0.35c15.34-0.01,30.68-0.02,46.02-0.03
	c5.83,0.01,11.66,0.02,17.49,0.03c0.58-5.09,0.45-10.39,1.87-15.24c3.62-12.38,15.44-19.79,27.56-18.04
	c11.38,1.65,20.48,12.74,20.66,25.3c0.04,2.49-0.25,4.98-0.39,7.47c2.77,0.05,5.53,0.1,8.3,0.16c-0.38-1.44-0.77-2.87-1.13-4.31
	c-2.19-8.73,1.75-13.82,10.7-13.82c1.49,0,2.99,0.03,4.48,0.05c0.05-7.24,0.1-14.47,0.14-21.7c-40.48,0.04-80.97,0.09-121.45,0.13
	c-14.83,0.01-29.66,0.09-44.48-0.11c-2.26-0.03-6.44-1.4-6.44-2.19c-0.04-4.43,3.79-3.09,6.34-3.09
	c49.32-0.05,98.63-0.01,147.95-0.01c5.66,0,11.32-0.13,16.98-0.2c0.37,0.09,0.73,0.19,1.1,0.28c0.04-0.33,0.08-0.66,0.11-0.99
	c0.02-0.34,0.04-0.67,0.05-1.01c0-1.33,0-2.66,0-3.99c-0.03-2.36-0.06-4.71-0.09-7.07c-3.05,0.1-6.1,0.2-9.16,0.3
	c-32.89-0.06-65.79-0.15-98.68-0.16c-20.76,0-41.53,0.13-62.3,0.2c-0.7-1.29-1.39-2.57-2.09-3.85c2.02-0.75,4.05-1.49,6.07-2.24
	C163.71,113.09,172.05,113.13,180.4,113.17z M281.32,56.56c0.03-1.57,1.63-4.44,2.5-4.44c8.2,0.02,16.39,0.53,24.59,0.9
	c0.73,1.18,2.02,2.33,2.09,3.55c0.3,5.08,0.24,10.18,0.31,15.27c0.12,10.05,0.3,20.09,0.27,30.13c0,1.33-1.1,2.66-1.7,3.99
	c-0.71,0.23-1.41,0.46-2.12,0.69c-1.63,0.04-3.27,0.07-4.9,0.11c-5.65-0.19-11.31-0.52-16.96-0.52c-3.24,0-4.75-1.04-3.96-4.41
	c-0.14-2.98-0.28-5.96-0.41-8.93c0.14-3.67,0.28-7.33,0.43-11C281.37,73.46,281.15,65,281.32,56.56z M234.36,56.51
	c-0.04-3.68,1.72-4.9,5.26-4.85c9.83,0.13,19.65,0.03,29.48,0.03c2.82,0,5.58,0.11,5.19,4.15c-0.01,5.69-0.02,11.38-0.03,17.07
	c0.12,6.66,0.25,13.33,0.37,19.99c-0.07,3.07-0.35,6.15-0.16,9.21c0.2,3.14-1.15,4.48-4.11,4.58c0,0,0,0,0,0
	c-6-0.01-12-0.01-17.99-0.02c-1,0.01-1.99,0.01-2.99,0.02c0,0,0,0,0,0c-1.67-0.25-3.34-0.5-5.01-0.74
	c-3.41-0.45-7.43,2.07-10.1-2.04c0.12-1.98,0.24-3.95,0.36-5.93C234.55,84.15,234.49,70.33,234.36,56.51z M184.22,57.43
	c-0.08-4.22,1.17-6.06,5.69-5.87c8.81,0.36,17.64,0.29,26.47,0.4c0.66-0.06,1.32-0.16,1.98-0.18c9.63-0.22,9.89,0.07,9.17,9.98
	c0.22,8.54,0.51,17.09,0.63,25.63c0.08,5.44-0.1,10.89-0.16,16.33h0c-1.55,1.02-3.11,2.04-4.66,3.05
	c-7.32,0.01-14.63,0.02-21.95,0.03c-2.37-0.23-4.75-0.46-7.12-0.69c-11.88,0.48-9.6,0.74-9.88-9.26c-0.04-1.3,0.12-2.61,0.19-3.92
	c-0.15-2.68-0.29-5.36-0.43-8.04C184.19,75.74,184.39,66.58,184.22,57.43z M120.19,35.57c-0.27-3.74,1.25-5.35,4.73-4.81
	c3.18,0.49,6.28,1.52,9.41,2.31c3.98,4.54,2.74,9.94,2.85,16.54c-5.98-0.59-11.52-1.14-17.05-1.69
	C120.17,43.79,120.48,39.66,120.19,35.57z M106.01,141.26L106.01,141.26c-6.45,6.42-13.99,5.6-17.23-1.74
	c-1.98-4.49-0.21-7.99,2.76-10.96c3.16-3.16,7.02-3.42,10.94-1.21c0.86,0.48,1.63,1.13,2.44,1.69
	C107.73,132.89,108.12,136.96,106.01,141.26z M137.68,59.28c-0.97,8.89-2.06,17.77-3.04,26.66c-0.22,1.97-0.2,3.97-0.29,5.95
	c-0.6,3.33-1.2,6.66-1.8,10c-2.02,1.35-4.02,3.85-6.06,3.89c-20.27,0.32-40.54,0.3-60.81,0.14c-1.35-0.01-2.69-1.96-4.04-3
	c0.33-3.69,0.66-7.38,0.99-11.07c0.28-1.3,0.56-2.6,0.84-3.9c1.02-10.31,1.88-20.65,3.21-30.92c0.23-1.8,2.46-3.34,3.77-4.99
	c9.31-0.16,18.62-0.32,27.94-0.48c5.01,0.13,10.03,0.26,15.04,0.39c6.66,0.05,13.32,0.09,19.97,0.14
	C137.47,52.9,138.05,55.88,137.68,59.28z M154.4,106.54c-0.49-0.05-0.97-0.12-1.46-0.14c-7.63-0.29-8.1-0.92-6.44-8.5
	c1.93-15.01,3.87-30.01,5.8-45.02c7.54-0.33,15.07-0.81,22.61-0.82c0.91,0,2.46,2.43,2.62,3.85c0.36,3.26,0.05,6.59,0.01,9.89
	c0,5.02,0,10.05,0,15.07c0.23,1.34,0.46,2.68,0.7,4.02h0c-0.29,7-0.58,14-0.87,21c-7.34,0.01-14.67,0.01-22.01,0.02
	C155.05,106.12,154.73,106.33,154.4,106.54z"/>
<path fill-rule="evenodd" clip-rule="evenodd" d="M104.14,135.64c-0.08,4.05-3.21,7.17-6.75,6.79c-3.87-0.42-5.83-2.92-6-6.68
	c-0.16-3.6,3.14-6.79,6.69-6.41C101.97,129.74,103.81,132.24,104.14,135.64z"/>
<path fill-rule="evenodd" clip-rule="evenodd" fill="#2C2B2A" d="M138.34,169.67c-0.09,6.89,4.13,11.84,10.05,11.79
	c5.29-0.04,9.52-4.92,9.75-11.25c0.23-6.38-4.41-11.99-10.02-12.12C142.69,157.98,138.42,163.03,138.34,169.67z M122.86,162.05
	c3.2-8.14,9.33-13.11,11.78-15.03s6.5-2.25,9.75-3.37c17.34-0.92,29.67,13.44,26.74,33.2c-3.1,7.88-5.58,10.66-9.73,14.53
	c-10.19,9.5-37.61,5.95-39.93-14.53C121.93,171.91,119.66,170.19,122.86,162.05z"/>
<path fill-rule="evenodd" clip-rule="evenodd" fill="#CCCCCB" d="M138.34,169.67c0.09-6.64,4.35-11.7,9.77-11.58
	c5.61,0.13,10.26,5.74,10.02,12.12c-0.23,6.33-4.47,11.22-9.75,11.25C142.46,181.51,138.25,176.56,138.34,169.67z"/>
<path fill-rule="evenodd" clip-rule="evenodd" fill="#2C2B2A" d="M249.27,177.19c-0.37-9.29,0.45-10.39,1.87-15.24
	c3.62-12.38,15.44-19.79,27.56-18.04c11.38,1.65,20.48,12.74,20.66,25.3c0.04,2.49-0.25,4.98-0.39,7.47
	c-3.13,4.94-5.25,11.13-9.56,14.61C275.34,202.65,255,195.16,249.27,177.19z M266.2,170.37c0.07,6.46,4.56,11.38,10.2,11.15
	c5.28-0.22,9.38-5.59,9.25-12.15c-0.12-6.14-4.47-11.16-9.74-11.22C270.43,158.08,266.13,163.49,266.2,170.37z"/>
<path fill-rule="evenodd" clip-rule="evenodd" fill="#CCCCCB" d="M266.2,170.37c-0.07-6.88,4.23-12.29,9.71-12.22
	c5.26,0.06,9.62,5.08,9.74,11.22c0.13,6.56-3.97,11.93-9.25,12.15C270.76,181.75,266.27,176.83,266.2,170.37z"/>
<g>
	<path fill-rule="evenodd" clip-rule="evenodd" fill="#2C2B2A" d="M69.37,49.37c-4.95-0.23-2.3-4.27-3.26-6.5
		c0.18-0.31,0.19-0.63,0.02-0.95c0.01-0.67,0.03-1.34,0.04-2.01c-0.19-1.47-0.38-2.93-0.57-4.4c0.87-0.87,1.74-1.73,2.61-2.6
		c4.72-0.65,9.44-1.31,14.16-1.96c0.24,0.35,0.47,0.71,0.71,1.06c0,5.54,0,11.07,0,17.35C78.13,49.37,73.75,49.37,69.37,49.37z"/>
	<path fill-rule="evenodd" clip-rule="evenodd" fill="#2C2B2A" d="M134.32,33.06c-3.13-0.79-6.23-1.81-9.41-2.31
		c-3.48-0.54-5,1.07-4.73,4.81c0.29,4.09-0.02,8.22-0.07,12.34c5.54,0.55,11.08,1.1,17.05,1.69C137.06,43,138.31,37.6,134.32,33.06z
		"/>
	<path fill-rule="evenodd" clip-rule="evenodd" fill="#2C2B2A" d="M321.46,137.05c-40.48,0.04-80.97,0.09-121.45,0.13
		c-14.83,0.01-29.66,0.09-44.48-0.11c-2.26-0.03-6.44-1.4-6.44-2.19c-0.04-4.43,3.79-3.09,6.34-3.09
		c49.32-0.05,98.63-0.01,147.95-0.01c5.66,0,11.32-0.13,16.98-0.2c0.37,0.09,0.73,0.19,1.1,0.28
		C321.45,133.59,321.45,135.32,321.46,137.05z"/>
	<path fill-rule="evenodd" clip-rule="evenodd" fill="#2C2B2A" d="M312.36,119.09c-32.89-0.06-65.79-0.15-98.68-0.16
		c-20.76,0-41.53,0.13-62.3,0.2c-1.14-0.05-2.39-2.59-2.28-3.24c0.3-1.64,2.82-2.63,6.25-2.85c8.34,0.04,16.69,0.08,25.03,0.12
		c7.65,0.03,15.31,0.05,22.96,0.08c8.35-0.04,16.69-0.07,25.04-0.11c5.34,0,10.69-0.01,16.03-0.01c1.81,0.13,3.62,0.38,5.43,0.38
		c23.93,0.07,47.86,0.11,71.79,0.16c-0.04,1.71-0.09,3.42-0.13,5.13C318.47,118.89,315.42,118.99,312.36,119.09z"/>
</g>
<path fill-rule="evenodd" clip-rule="evenodd" d="M55.68,155.74c-0.87-2.74-0.16-4.01,2.34-4.09c7.87-0.26,16.37-0.15,24.24-0.47
	c2.26,0.6,2.45,1.1,2.57,3.53c-0.87,0.88-2.62,1.12-3.97,1.26c-2.46,0.26-4.96,0.21-7.45,0.29c-3.01-0.01-6.03-0.02-9.04-0.03
	C61.48,156.07,58.58,155.91,55.68,155.74z"/>
<path fill-rule="evenodd" clip-rule="evenodd" d="M55.68,148.93c-0.87-2.74-0.16-4.01,2.34-4.09c7.87-0.26,16.37-0.15,24.24-0.47
	c2.26,0.6,2.45,1.1,2.57,3.53c-0.87,0.88-2.62,1.12-3.97,1.26c-2.46,0.26-4.96,0.21-7.45,0.29c-3.01-0.01-6.03-0.02-9.04-0.03
	C61.48,149.25,58.58,149.09,55.68,148.93z"/>
<path fill-rule="evenodd" clip-rule="evenodd" d="M55.68,141.62c-0.87-2.74-0.16-4.01,2.34-4.09c7.87-0.26,16.37-0.15,24.24-0.47
	c2.26,0.6,2.45,1.1,2.57,3.53c-0.87,0.88-2.62,1.12-3.97,1.26c-2.46,0.26-4.96,0.21-7.45,0.29c-3.01-0.01-6.03-0.02-9.04-0.03
	C61.48,141.94,58.58,141.78,55.68,141.62z"/>
<path fill-rule="evenodd" clip-rule="evenodd" d="M55.68,135.18c-0.87-2.74-0.16-4.01,2.34-4.09c7.87-0.26,16.37-0.15,24.24-0.47
	c2.26,0.6,2.45,1.1,2.57,3.53c-0.87,0.88-2.62,1.12-3.97,1.26c-2.46,0.26-4.96,0.21-7.45,0.29c-3.01-0.01-6.03-0.02-9.04-0.03
	C61.48,135.5,58.58,135.34,55.68,135.18z"/>
<path fill-rule="evenodd" clip-rule="evenodd" d="M117.99,101.99c-5.55-7.13-11.01-10.66-16.88-0.09c-0.36-0.62-0.72-1.25-1.09-1.87
	c1.24-1.9,1.99-4.74,3.62-5.62c3.56-1.94,5.96-1.91,8.88-1.21C115.73,93.97,118.1,97.48,117.99,101.99z"/>
<path fill-rule="evenodd" clip-rule="evenodd" d="M66.19,99.82c0.58-1.75,1.16-3.2,3.45-5.74c2.47-1.67,5.05-1.5,7.73-1.26
	c3.03,1.85,6.31,3.53,5.57,9.04c-1.24-1.42-2-2.13-2.56-2.98c-2.93-4.46-7.63-4.57-10.95-0.41C68.79,99.27,67.29,99.39,66.19,99.82z
	"/>
<g>
	<circle fill-rule="evenodd" clip-rule="evenodd" fill="#C94111" cx="74.96" cy="40.59" r="5.19"/>
	<circle fill-rule="evenodd" clip-rule="evenodd" fill="#C94111" cx="128.59" cy="40.34" r="5.19"/>
</g>
</svg>
