<?xml version="1.0" encoding="utf-8"?>
<!-- Generator: Adobe Illustrator 16.0.0, SVG Export Plug-In . SVG Version: 6.00 Build 0)  -->
<!DOCTYPE svg PUBLIC "-//W3C//DTD SVG 1.1//EN" "http://www.w3.org/Graphics/SVG/1.1/DTD/svg11.dtd">
<svg version="1.1" id="Layer_1" xmlns="http://www.w3.org/2000/svg" xmlns:xlink="http://www.w3.org/1999/xlink" x="0px" y="0px"
	 width="265px" height="288px" viewBox="0 0 265 288" enable-background="new 0 0 265 288" xml:space="preserve">
<path fill="#71AA3E" d="M109.1,105.83c-4.95,2.96-9.9,5.92-15.41,9.22c-2.37-2.82-4.87-5.78-7.36-8.74
	c-0.47,0.29-0.95,0.59-1.42,0.88c0.47,2.98,1.27,5.96,1.31,8.94c0.03,2-0.39,4.68-1.69,5.89c-5.2,4.82-10.83,9.18-16.49,13.86
	c-2.2-2.44-4.44-4.93-6.68-7.41c-0.42,0.19-0.83,0.39-1.25,0.58c0.49,3.26,1.14,6.51,1.4,9.79c0.13,1.65,0.15,3.85-0.78,4.97
	c-4.85,5.87-10.02,11.469-15.1,17.19c-9.19-26.18,5.23-77.72,52.4-87.14c-2.05-1.16-3.31-1.88-4.7-2.67c0.65-3.53,1.33-7.18,2-10.84
	c-0.35-0.26-0.7-0.52-1.04-0.78c-1.76,1.5-3.84,2.77-5.22,4.56c-2.78,3.64-5.58,4.55-10.11,2.72c-5.92-2.38-12.27-3.7-19.03-5.65
	c1.02-3.01,2.15-6.31,3.28-9.62c-0.31-0.27-0.62-0.54-0.92-0.8c-1.44,1.08-3.01,2.01-4.28,3.26c-3.83,3.79-7.36,7.02-13.75,5.15
	c-5.37-1.57-11.25-1.42-18.11-2.16c16.74-16.68,35.03-26.52,58.06-26.16c23.39,0.36,40.25,12,53.39,31.78
	c9.871-23.06,26.23-36.6,49.78-39.51c21.83-2.7,41.479,3.76,58.91,18.07c-6.84,1.8-13.2,3.19-19.36,5.22
	c-3.43,1.13-6.1,1.17-8.949-1.23c-1.83-1.54-4.181-2.45-7.36-2.87c1.06,2.63,2.11,5.26,3.29,8.22
	c-7.48,3.14-14.939,6.64-22.689,9.25c-1.841,0.62-4.721-1.63-7.041-2.73c-1.83-0.87-3.52-2.01-5.279-3.03
	c0.029-0.25,0.06-0.49,0.09-0.74c-0.19,0.03-0.381,0.06-0.57,0.1c0.189,0.2,0.38,0.39,0.57,0.59c1.289,2.85,2.57,5.7,3.949,8.74
	c-1,0.92-2.08,1.91-3.859,3.56c21.52,2.55,37.029,13.24,47.49,30.78c8.76,14.69,12.33,30.81,10.039,48.34
	c-5.77-5.13-11.409-9.97-16.789-15.07c-1.12-1.07-1.66-3.13-1.791-4.78c-0.27-3.41-0.079-6.86-0.079-10.29
	c-0.44-0.18-0.87-0.36-1.31-0.54c-1.771,2.72-3.551,5.44-5.44,8.34c-6.71-4.12-13.511-7.89-19.75-12.44
	c-1.44-1.05-1.14-4.77-1.22-7.28c-0.061-2.03,0.51-4.07,0.799-6.11c-0.469-0.26-0.939-0.52-1.42-0.79c-2.5,3.05-5,6.1-7.439,9.08
	c-3.13-1.25-6.311-2.52-9.48-3.79c-0.09-2.96,0.351-6.06-0.369-8.86c-3.551-13.69-18.141-18.77-30.01-10.79
	c-1.34,0.9-3.791,1.45-5.11,0.84c-7.69-3.59-14.99-3.03-21.53,2.06C108.89,90.25,106.7,97.43,109.1,105.83z"/>
<path fill="#95C047" d="M185.84,238.02c0,5.48,0,10.971,0,16.451c0.43,0.319,0.85,0.629,1.28,0.949
	c2.409-2.189,4.76-4.43,7.229-6.55c2.471-2.12,5.051-4.12,7.58-6.16c0.471,0.22,0.93,0.45,1.4,0.67
	c-1.65,5.63-3.301,11.261-5.051,17.19c4.941,0.629,10.461,0.31,14.591,5.91c-1.97,0.219-3.31,0.49-4.64,0.49
	c-30.801,0.02-61.601-0.051-92.4,0.079c-3.8,0.021-5.37-1.43-5.89-4.96c-0.61-4.189-1.48-8.35-2.53-14.1
	c4.29,3.76,7.41,6.49,11.74,10.289c-0.32-7.01-0.58-12.5-0.83-18c0.39-0.389,0.78-0.779,1.17-1.17c3.19,4.73,6.39,9.461,9.58,14.19
	c0.81-0.659,1.63-1.319,2.44-1.989c0.56-5.23,1.12-10.471,1.79-16.66c3.99,4.369,7.31,8,10.63,11.619c1.93,3.24,3.85,6.48,6.4,10.78
	c3.279-7.18,5.85-12.79,8.41-18.399c0.59-0.061,1.18-0.121,1.77-0.18c3.03,6.059,6.07,12.109,9.36,18.67
	c1.58-2.381,2.659-4.441,4.13-6.131C177.85,246.6,181.88,242.34,185.84,238.02z"/>
<path fill="#7B4728" d="M109.1,105.83c-2.4-8.4-0.21-15.58,6.57-20.86c6.54-5.09,13.84-5.65,21.53-2.06
	c1.319,0.62,3.78,0.06,5.11-0.84c11.859-7.98,26.459-2.9,30.01,10.79c0.72,2.8,0.279,5.9,0.369,8.86
	c-2.979,4.04-5.949,8.07-8.92,12.11c-6.51,2.73-13.199,2.84-20,1.33l0.041,0.01c-0.291-0.39-0.57-0.79-0.86-1.18
	c-1-0.14-2.24-0.74-2.95-0.36c-14.12,7.69-21.3,6-30.13-7.23C109.7,106.16,109.36,106.02,109.1,105.83z M111.98,96.64
	c-0.08,4.97,1.56,7.25,5.3,7.33c3.6,0.08,6.67-3.72,6.72-8.31c0.04-3.49-3.02-7.3-5.92-7.37C114.91,88.21,112.06,92.12,111.98,96.64
	z M169,93.8c-0.061-5.21-2.359-7.78-6.91-7.83c-4.3-0.04-5.24,2.55-5.14,6.21c0.13,4.93,3.12,8.92,7,8.7
	C168.34,100.62,169.17,97.49,169,93.8z"/>
<path fill="#C88445" d="M142.95,114c0.29,0.39,0.569,0.79,0.86,1.18C143.52,114.79,143.24,114.39,142.95,114z"/>
<path fill="#FEFEFE" d="M178.98,54c-0.19-0.2-0.381-0.39-0.57-0.59c0.189-0.03,0.38-0.06,0.57-0.1c-0.03,0.25-0.061,0.49-0.09,0.74
	C178.88,54.05,178.98,54,178.98,54z"/>
<g>
	<path fill="#955B36" d="M151.061,219.971c4.289,1,8.549,2.709,12.869,2.84c7.62,0.229,15.26-0.49,22.9-0.82c0,1.32,0,2.63,0,3.949
		c-12.561,3.061-24.84,2.57-36.7-2.979C150.439,221.971,150.75,220.971,151.061,219.971z"/>
	<path fill="#955B36" d="M155.141,187.02c7.51,3.23,15.18,3.381,23.02,1.4c2.52-0.641,5.13-0.97,7.689-1.449
		c-0.01,1.319-0.02,2.639-0.029,3.959c-2.53,0.67-5.07,1.311-7.59,2c-7.951,2.17-15.59,0.76-23.121-1.99
		C155.12,189.641,155.13,188.33,155.141,187.02z"/>
	<path fill="#955B36" d="M154.13,159c8.86,0.52,17.521-0.25,25.72-4.01c0.15,0.96,0.301,1.92,0.45,2.88
		c-8.09,4.86-16.97,5.69-26.13,5.069C154.15,161.62,154.141,160.311,154.13,159z"/>
	<path fill="#955B36" d="M149.13,132c6.62-2.34,13.25-4.69,19.87-7.03c0.391,0.98,0.79,1.96,1.18,2.93
		c-5.68,5.25-12.359,7.67-20.109,7.07C149.76,133.98,149.439,132.99,149.13,132z"/>
	<path fill="#955B36" d="M111.98,96.64c0.08-4.52,2.94-8.43,6.1-8.35c2.9,0.07,5.96,3.88,5.92,7.37c-0.05,4.59-3.12,8.39-6.72,8.31
		C113.54,103.89,111.89,101.61,111.98,96.64z"/>
	<path fill="#955B36" d="M169,93.8c0.17,3.69-0.66,6.82-5.05,7.08c-3.89,0.23-6.87-3.77-7-8.7c-0.101-3.66,0.84-6.25,5.14-6.21
		C166.641,86.02,168.939,88.59,169,93.8z"/>
</g>
<g>
	<path fill="#C88445" d="M185.84,238.02c-3.96,4.33-7.99,8.59-11.84,13c-1.48,1.701-2.55,3.75-4.13,6.131
		c-3.29-6.561-6.32-12.61-9.36-18.67c-0.59,0.06-1.18,0.119-1.77,0.18c-2.561,5.609-5.131,11.22-8.41,18.4
		c-2.551-4.301-4.48-7.541-6.4-10.781c2.07-7.77,4.131-15.549,6.2-23.319c11.86,5.55,24.14,6.04,36.7,2.979
		C186.5,229.971,186.17,233.99,185.84,238.02z"/>
	<path fill="#C88445" d="M155.141,187.02c-0.32-8.029-0.65-16.06-0.971-24.09c9.16,0.62,18.03-0.209,26.13-5.07
		c1.851,9.701,3.7,19.41,5.55,29.111c-2.56,0.469-5.17,0.809-7.689,1.449C170.32,190.4,162.641,190.25,155.141,187.02z"/>
	<path fill="#C88445" d="M170.18,127.9c3.221,9.03,6.44,18.06,9.66,27.1c-8.189,3.76-16.859,4.529-25.72,4.01
		c-1.351-8.01-2.7-16.02-4.05-24.03C157.82,135.57,164.5,133.15,170.18,127.9z"/>
	<path fill="#C88445" d="M143.76,115.17c6.801,1.51,13.48,1.4,20-1.33c1.75,3.71,3.49,7.42,5.24,11.13
		c-6.62,2.34-13.25,4.69-19.87,7.03C147.34,126.39,145.55,120.78,143.76,115.17z"/>
	<path fill="#C88445" d="M152.35,207.891c-0.47,4.409-0.879,8.25-1.279,12.08c4.289,1,8.55,2.709,12.869,2.84
		c7.621,0.229,15.261-0.49,22.9-0.82c0.07-4.461,0.32-8.94,0.16-13.391c-0.221-5.89-0.76-11.77-1.16-17.66
		c-2.529,0.67-5.07,1.311-7.59,2c-7.95,2.17-15.59,0.76-23.12-1.99c-0.45,3.611-0.899,7.221-1.351,10.841
		c-0.279,0.88-0.569,1.76-0.85,2.63L152.35,207.891z"/>
</g>
<path fill="#FFFFFF" d="M190.339,202.4c-2.011-1.376-4.544-2.35-5.936-4.188c-3.245-4.329-1.855-9.863,2.674-12.753
	c4.144-2.645,9.614-1.268,12.29,3.122c2.643,4.328,1.221,9.616-3.401,12.521c-0.681,0.418-1.422,0.758-2.133,1.129
	C192.673,202.276,191.499,202.34,190.339,202.4z M191.683,199.635c3.666,0.045,6.479-2.77,6.448-6.462
	c-0.032-3.587-2.938-6.431-6.57-6.431c-3.446,0-6.245,2.844-6.261,6.353C185.3,196.82,187.974,199.588,191.683,199.635z"/>
<path fill="#FFFFFF" d="M148.212,203.079c-6.71-2.644-9.26-7.823-6.446-13.109c1.948-3.678,5.798-5.534,9.848-4.762
	c3.137,0.604,6.446,3.943,6.817,6.866c0.617,4.96-1.052,8.284-5.147,10.155c-0.713,0.324-1.438,0.648-2.165,0.974
	C150.145,203.173,149.171,203.126,148.212,203.079z M156.097,194.146c0-3.681-2.799-6.555-6.431-6.618
	c-3.557-0.061-6.4,2.659-6.463,6.168c-0.062,3.85,2.768,6.726,6.602,6.726C153.452,200.421,156.097,197.792,156.097,194.146z"/>
<path d="M181.634,201.602c0.122,1.175,0.478,2.118,0.278,2.906c-1.021,3.834-5.535,6.6-10.498,6.585
	c-4.529,0-8.964-2.814-9.955-6.461c-0.2-0.728,0.218-1.625,0.342-2.442c0.601,0.463,1.482,0.817,1.776,1.437
	c1.717,3.711,4.128,5.351,8.255,5.271c3.758-0.062,6.602-1.576,8.039-5.239c0.186-0.464,0.371-0.914,0.604-1.346
	C180.55,202.159,180.798,202.096,181.634,201.602z"/>
<path d="M191.683,199.635c-3.709-0.047-6.397-2.799-6.383-6.54c0-3.509,2.798-6.353,6.261-6.353c3.632,0,6.554,2.844,6.57,6.431
	C198.162,196.865,195.363,199.68,191.683,199.635z"/>
<path d="M156.097,194.146c0,3.632-2.645,6.275-6.292,6.275c-3.834,0-6.648-2.876-6.602-6.726c0.063-3.523,2.906-6.244,6.463-6.168
	C153.313,187.591,156.097,190.479,156.097,194.146z"/>
</svg>
