<?xml version="1.0" encoding="utf-8"?>
<!-- Generator: Adobe Illustrator 16.0.0, SVG Export Plug-In . SVG Version: 6.00 Build 0)  -->
<!DOCTYPE svg PUBLIC "-//W3C//DTD SVG 1.1//EN" "http://www.w3.org/Graphics/SVG/1.1/DTD/svg11.dtd">
<svg version="1.1" id="Layer_1" xmlns="http://www.w3.org/2000/svg" xmlns:xlink="http://www.w3.org/1999/xlink" x="0px" y="0px"
	 width="324px" height="273px" viewBox="0 0 324 273" enable-background="new 0 0 324 273" xml:space="preserve">
<path fill-rule="evenodd" clip-rule="evenodd" fill="#ED9B34" d="M42.89,120.94c1.56-19.04,9.47-35.47,21.01-50.32
	c17.55-22.59,41.47-34.5,68.98-39.35c18.3-3.23,36.86-3.01,55.44-1.42c17.05,1.46,33.64,4.53,48.99,12.25
	c28.69,14.43,46.72,37.7,55.48,68.39c0.31,1.09,0.19,2.31,0.27,3.47c-0.6,0.25-1.52,0.33-1.75,0.78
	c-4.46,8.62-12.68,11.88-21.13,14.62c-29.63,9.63-60.46,11.04-91.19,12.46c-14.41,0.66-28.92-0.12-43.34-0.91
	c-17.01-0.93-34.08-1.87-50.94-4.13C69.75,134.76,54.18,133.17,42.89,120.94z"/>
<path fill-rule="evenodd" clip-rule="evenodd" fill="#F6C534" d="M186.05,202.02c-10.05,5.63-20.1,5.6-30.16,0.01
	c-5.36-1.63-10.71-3.35-16.1-4.89c-10.15-2.88-20.33-5.66-30.5-8.49c-4.86-1.54-9.66-3.36-14.6-4.58
	c-16.82-4.18-33.7-8.15-50.55-12.2c-2.53-0.83-5.06-1.66-7.99-2.62c2.79-2.65,5.51-5.25,8.24-7.83c4.11,1.77,8.07,4.45,12.35,5.12
	c12.12,1.89,24.34,3.87,36.56,4.12c15.08,0.31,30.25-0.52,45.27-1.99c8.27-0.81,16.3-4,24.48-5.96c1.31-0.32,2.91-0.13,4.22,0.3
	c16.09,5.37,32.8,7.4,49.55,7.69c17.08,0.29,34.21-0.74,51.27-1.93c8.21-0.57,16.53-2.08,23.54-7.19c2.9,2.62,5.79,5.23,8.54,7.71
	c-2.71,0.81-5.54,1.67-8.38,2.52c-5.94,1.38-11.94,2.54-17.81,4.18c-15.72,4.4-31.39,9.01-47.08,13.54
	C213.28,193.69,199.67,197.85,186.05,202.02z"/>
<path fill-rule="evenodd" clip-rule="evenodd" fill="#CA3636" d="M291.63,161.57c-7.01,5.11-15.33,6.62-23.54,7.19
	c-17.06,1.19-34.19,2.22-51.27,1.93c-16.75-0.28-33.47-2.31-49.55-7.69c-1.31-0.44-2.9-0.62-4.22-0.3
	c-8.17,1.96-16.2,5.15-24.48,5.96c-15.02,1.47-30.19,2.3-45.27,1.99c-12.22-0.25-24.44-2.22-36.56-4.12
	c-4.28-0.67-8.24-3.35-12.35-5.12c-0.13-3.42-0.38-6.83-0.35-10.25c0.05-4.71,3.85-6.32,7.21-8.22c1.32,0.11,2.7,0.03,3.97,0.34
	c25.28,6.22,51.16,7.89,76.97,8.43c31.6,0.67,63.25-0.14,94.86-0.91c11.21-0.27,22.42-2.08,33.57-3.6
	c7.87-1.07,15.63-2.85,23.45-4.31C292.57,146.87,293.14,148.29,291.63,161.57z"/>
<path fill-rule="evenodd" clip-rule="evenodd" fill="#DD8C2B" d="M284.06,142.9c-7.81,1.46-15.58,3.24-23.45,4.31
	c-11.15,1.52-22.36,3.33-33.57,3.6c-31.61,0.77-63.26,1.58-94.86,0.91c-25.81-0.54-51.69-2.21-76.97-8.43
	c-1.27-0.31-2.65-0.24-3.97-0.34c-1.05-1.11-2.02-2.31-3.18-3.3c-5.53-4.7-7.46-11.57-5.18-18.72
	c11.29,12.23,26.86,13.82,41.82,15.82c16.86,2.26,33.93,3.2,50.94,4.13c14.43,0.79,28.94,1.58,43.34,0.91
	c30.73-1.42,61.56-2.83,91.19-12.46c8.44-2.74,16.66-6,21.13-14.62c0.23-0.44,1.15-0.53,1.75-0.78
	C297.19,130.53,295.94,135.02,284.06,142.9z"/>
<path fill-rule="evenodd" clip-rule="evenodd" fill="#7D472A" d="M109.29,188.66c10.17,2.82,20.35,5.6,30.5,8.49
	c5.39,1.53,10.73,3.25,16.1,4.89c-1.55,0.32-3.1,0.93-4.65,0.93c-30.11,0.08-60.22,0.21-90.33-0.02c-3.92-0.03-7.83-1.95-11.74-3
	c-1-2.65-2.01-5.29-3.01-7.94c5.14-0.92,10.54-1.13,15.36-2.92c7.64-2.84,13.92-2.48,19.95,3.57c5.24,5.25,11.79,5.8,18.33,2.33
	C103.14,193.21,106.14,190.79,109.29,188.66z"/>
<path fill-rule="evenodd" clip-rule="evenodd" fill="#7D472A" d="M186.05,202.02c13.62-4.17,27.23-8.33,40.85-12.5
	c1.83,1.12,3.74,2.11,5.46,3.36c8.23,6.01,15.64,5.67,23.28-1c4.95-4.32,10.23-5.72,16.92-3.43c5.81,1.99,12.15,2.41,18.26,3.53
	c-0.74,2.54-1.48,5.08-2.22,7.62c-4.57,1.13-9.13,3.2-13.72,3.25c-27.9,0.31-55.81,0.18-83.71,0.12
	C189.47,202.97,187.76,202.35,186.05,202.02z"/>
<path fill-rule="evenodd" clip-rule="evenodd" fill="#72AC46" d="M109.29,188.66c-3.15,2.13-6.15,4.55-9.49,6.32
	c-6.54,3.47-13.09,2.92-18.33-2.33c-6.04-6.05-12.31-6.41-19.95-3.57c-4.82,1.79-10.22,2-15.36,2.92c-1.04-0.69-2.02-1.51-3.13-2.06
	c-5.18-2.55-6.58-7.31-3.37-12.2c1.35-2.06,2.99-3.92,4.49-5.87c16.85,4.05,33.73,8.02,50.55,12.2
	C99.63,185.31,104.43,187.12,109.29,188.66z"/>
<path fill-rule="evenodd" clip-rule="evenodd" fill="#72AC46" d="M290.82,191.99c-6.11-1.12-12.45-1.54-18.26-3.53
	c-6.69-2.29-11.97-0.89-16.92,3.43c-7.64,6.67-15.05,7-23.28,1c-1.72-1.26-3.64-2.25-5.46-3.36c15.69-4.53,31.36-9.14,47.08-13.54
	c5.87-1.64,11.87-2.8,17.81-4.18c1.21,1.33,2.38,2.7,3.63,3.98c5.47,5.57,4.67,10.9-2.21,14.63
	C292.38,190.87,291.62,191.46,290.82,191.99z"/>
<path fill-rule="evenodd" clip-rule="evenodd" fill="#FFFFFF" d="M119.01,115.99c-9.47-0.05-16.94-7.68-16.96-17.32
	c-0.02-9.68,7.85-17.65,17.35-17.58c9.27,0.07,17.1,8.11,17,17.44C136.29,108.44,128.72,116.04,119.01,115.99z M119.2,111.12
	c6.78,0.05,12.39-5.46,12.45-12.24c0.06-7-5.6-12.76-12.55-12.77c-6.93-0.01-12.26,5.31-12.32,12.27
	C106.72,105.57,112.08,111.06,119.2,111.12z"/>
<path fill-rule="evenodd" clip-rule="evenodd" fill="#FFFFFF" d="M237.89,98.58c0.04,9.77-8.53,18.52-17.95,18.3
	c-8.28-0.19-16.79-9.36-16.82-18.13c-0.03-9.64,8.07-17.71,17.72-17.65C229.33,81.15,237.85,89.88,237.89,98.58z M220.77,111.15
	c7.02-0.04,12.25-5.29,12.26-12.31c0.02-7.15-5.88-12.9-13.06-12.73c-6.73,0.16-12.04,5.75-11.97,12.59
	C208.08,105.88,213.53,111.19,220.77,111.15z"/>
<path fill-rule="evenodd" clip-rule="evenodd" d="M171.95,125.06c-9.36,0.04-15.51-2.66-19.82-8.9c-1.01-1.46-1.78-3.24-2.09-4.98
	c-0.18-1.01,0.77-2.22,1.21-3.34c0.92,0.71,2.24,1.22,2.69,2.15c4.53,9.29,12.28,12.92,22.02,10.16c5.11-1.45,8.68-4.57,10.77-9.52
	c0.51-1.21,1.91-2.05,2.91-3.06c0.33,1.59,1.3,3.37,0.89,4.75C188.25,120.17,180.06,125.11,171.95,125.06z"/>
<g>
	<path fill-rule="evenodd" clip-rule="evenodd" fill="#F2DAA3" d="M118.47,117.34c3.02,0.99,6.33,1.57,9.1,3.11
		c2.89,1.61,2.93,4.22,0.21,6.44c-4.62,3.78-14.52,3.78-19.19,0.03c-3.25-2.62-3.22-5.01,0.55-6.78
		C111.91,118.84,115.05,118.33,118.47,117.34z"/>
	<path fill-rule="evenodd" clip-rule="evenodd" fill="#F2DAA3" d="M223.39,117.37c2.64,1.03,5.89,1.81,8.58,3.49
		c2.96,1.85,2.62,4.76-0.31,6.36c-5.84,3.2-12.03,3.63-18,0.31c-1.39-0.77-3.05-2.72-2.97-4.03c0.08-1.35,1.9-3.14,3.37-3.75
		C216.75,118.64,219.74,118.25,223.39,117.37z"/>
	<path fill-rule="evenodd" clip-rule="evenodd" fill="#F2DAA3" d="M91.78,89.85c-2.24,2.53-3.78,4.27-5.32,6.01
		c-1.16-2.32-3.09-4.6-3.22-6.97c-0.1-1.85,2.06-3.83,3.22-5.75C88.02,85.11,89.57,87.06,91.78,89.85z"/>
	<path fill-rule="evenodd" clip-rule="evenodd" fill="#F2DAA3" d="M189.15,99.31c-2.45-1.99-4.06-3.29-5.67-4.6
		c2.53-1.5,4.91-3.54,7.65-4.27c1.21-0.33,3.13,1.98,4.73,3.09C193.8,95.3,191.75,97.07,189.15,99.31z"/>
	<path fill-rule="evenodd" clip-rule="evenodd" fill="#F2DAA3" d="M190.94,59.73c1.38,1.51,3.22,2.81,4,4.58
		c0.85,1.94,0.81,4.3,0.91,6.49c0.02,0.33-1.64,1.22-1.9,1.02c-1.86-1.42-4.12-2.76-5.14-4.71c-0.84-1.59-0.23-3.99-0.06-6.01
		C188.78,60.74,189.76,60.45,190.94,59.73z"/>
	<path fill-rule="evenodd" clip-rule="evenodd" fill="#F2DAA3" d="M139.32,72.93c2.78-2.93,4.98-5.24,7.17-7.56
		c1.08,1.03,3.23,2.71,3.06,2.98c-1.78,2.93-3.93,5.63-5.98,8.39C142.53,75.81,141.47,74.86,139.32,72.93z"/>
	<path fill-rule="evenodd" clip-rule="evenodd" fill="#F2DAA3" d="M124.17,52.09c-0.38-0.31-2.27-1.1-2.68-2.38
		c-0.69-2.15,4.25-5.69,7.75-5.31c1.36,0.15,3.35,1.64,3.64,2.85C133.47,49.72,129.46,52.19,124.17,52.09z"/>
	<path fill-rule="evenodd" clip-rule="evenodd" fill="#F2DAA3" d="M235.96,64.13c-2.4,1.9-3.6,2.85-4.81,3.79
		c-1.74-2.55-3.77-4.97-5.02-7.74c-0.34-0.75,1.64-2.56,2.55-3.89C230.85,58.63,233.01,60.96,235.96,64.13z"/>
	<path fill-rule="evenodd" clip-rule="evenodd" fill="#F2DAA3" d="M165.67,43.4c2.44,1.9,4.17,3.26,5.9,4.61
		c-2.1,1.27-4.17,3.44-6.33,3.54c-1.91,0.08-3.91-2.15-5.88-3.36C161.24,46.77,163.1,45.35,165.67,43.4z"/>
	<path fill-rule="evenodd" clip-rule="evenodd" fill="#F2DAA3" d="M255.71,83.57c-2.05,2.43-3.25,3.85-4.45,5.28
		c-1.42-2.36-3.39-4.58-4.01-7.12c-0.31-1.27,1.86-3.15,2.9-4.75C251.84,78.98,253.53,80.99,255.71,83.57z"/>
	<path fill-rule="evenodd" clip-rule="evenodd" fill="#F2DAA3" d="M113.86,61.88c-2.8,3.15-4.81,5.41-6.82,7.68
		c-0.89-1.22-2.78-2.8-2.5-3.59c1.02-2.83,2.78-5.39,4.26-8.06C110.11,58.93,111.41,59.95,113.86,61.88z"/>
	<path fill-rule="evenodd" clip-rule="evenodd" fill="#F2DAA3" d="M175.02,83.37c-2.03,2.34-3.49,4.03-4.95,5.72
		c-1.23-1.87-3.39-3.73-3.43-5.62c-0.04-2.04,1.92-4.11,3-6.17C171.25,79.1,172.85,80.91,175.02,83.37z"/>
	<path fill-rule="evenodd" clip-rule="evenodd" fill="#F2DAA3" d="M200.7,42.67c4.3,0.62,7.73,1.26,8.2,5.42
		c0.1,0.85-1.85,2.59-3.06,2.81c-3.2,0.57-8.28-3.12-7.74-5.49C198.37,44.22,200.02,43.35,200.7,42.67z"/>
</g>
<path fill-rule="evenodd" clip-rule="evenodd" d="M119.2,111.12c-7.12-0.06-12.48-5.55-12.42-12.74
	c0.06-6.97,5.39-12.28,12.32-12.27c6.95,0.01,12.61,5.77,12.55,12.77C131.59,105.66,125.98,111.17,119.2,111.12z"/>
<path fill-rule="evenodd" clip-rule="evenodd" d="M220.77,111.15c-7.24,0.04-12.69-5.26-12.77-12.44
	c-0.07-6.84,5.24-12.43,11.97-12.59c7.18-0.17,13.08,5.58,13.06,12.73C233.02,105.86,227.79,111.11,220.77,111.15z"/>
<path fill="#DD8C2B" d="M49.06,215.42c3.18,10.27,11.54,19.5,21.68,21.36c17.1,3.14,34.41,5.36,51.71,7.02
	c14.65,1.41,29.43,1.92,44.15,1.96c12.88,0.03,25.81-0.75,38.65-1.89c18.34-1.62,36.64-3.73,54.92-5.93
	c12.94-1.55,22.28-8.48,26.5-18.53c-16.73,5.3-50.06,9.28-116.17,10.09C97.45,230.4,62.56,220.71,49.06,215.42z"/>
<path fill="#ED9B34" d="M288.6,199.6c-4.57,1.13-9.13,3.2-13.72,3.25c-27.9,0.31-55.81,0.18-83.71,0.12c-1.71,0-3.42-0.62-5.13-0.95
	c-10.05,5.63-20.1,5.6-30.16,0.01c-1.55,0.32-3.1,0.93-4.65,0.93c-30.11,0.08-60.22,0.21-90.33-0.02c-3.92-0.03-7.83-1.95-11.74-3
	c-0.34,0.57-0.85,1.09-0.98,1.7c-0.71,3.36-0.65,6.91,0.03,10.43c0.22,1.12,0.5,2.24,0.84,3.34c13.5,5.29,48.39,14.98,121.44,14.09
	c66.11-0.8,99.44-4.79,116.17-10.09c1.15-2.73,1.92-5.7,2.28-8.85C289.34,207.12,289.24,203.45,288.6,199.6z"/>
</svg>
