<?xml version="1.0" encoding="utf-8"?>
<!-- Generator: Adobe Illustrator 16.0.0, SVG Export Plug-In . SVG Version: 6.00 Build 0)  -->
<!DOCTYPE svg PUBLIC "-//W3C//DTD SVG 1.1//EN" "http://www.w3.org/Graphics/SVG/1.1/DTD/svg11.dtd">
<svg version="1.1" id="Layer_1" xmlns="http://www.w3.org/2000/svg" xmlns:xlink="http://www.w3.org/1999/xlink" x="0px" y="0px"
	 width="262px" height="316px" viewBox="0 0 262 316" enable-background="new 0 0 262 316" xml:space="preserve">
<path fill-rule="evenodd" clip-rule="evenodd" fill="#94BF48" d="M34.88,132.53c-0.65-4.07-1.44-8.12-1.94-12.21
	c-2.72-21.99,5.01-40.87,18.24-57.66c18.52-23.51,43.48-36.67,72.74-40.34c41.33-5.19,76.98,7.1,104.25,39.41
	c13.38,15.85,20.21,34.64,18.71,55.74c-0.42,5.91-2.01,11.73-3.07,17.59c-0.66,1.31-1.37,2.59-1.96,3.94
	c-4.94,11.31-12.58,20.14-23.61,25.87c-11.96,6.22-24.44,6.28-37.19,3.09c-3.34-1.29-6.67-2.57-10.01-3.86
	c-0.27-0.76-0.37-1.65-0.84-2.26c-6.81-8.91-8.03-9.2-18.41-4.71c-7.54,1.91-15.08,1.86-22.63-0.03c-3.54-1.28-7.08-2.56-9.98-3.61
	c-5,4.41-9.65,8.52-14.31,12.63c-3.33,0.94-6.66,1.88-9.99,2.83C67.03,174.91,41.09,157.59,34.88,132.53z"/>
<path fill-rule="evenodd" clip-rule="evenodd" fill="#8A522E" d="M129.17,157.11c7.54,1.88,15.08,1.94,22.63,0.02
	c0.29,8.05,0.59,16.1,0.89,24.34c6.61-6.26,12.48-11.82,18.36-17.37c3.34,1.29,6.67,2.57,10.01,3.86
	c-8,8.81-16.12,17.52-23.89,26.53c-1.65,1.91-2.6,4.86-2.85,7.43c-0.3,3.05,0.5,6.22,0.83,9.33c0.89,14.97,1.74,29.94,2.69,44.9
	c0.21,3.26,0.77,6.49,1.18,9.74c-3.77,4.74-7.55,9.48-11.53,14.48c-2.97-6-5.74-11.61-8.51-17.21c-0.5,0.05-1.01,0.1-1.51,0.14
	c-2.71,5.48-5.43,10.96-8.47,17.11c-2.96-4.61-5.46-8.49-7.96-12.36c0.55-4.76,1.3-9.51,1.61-14.28
	c0.85-13.27,1.51-26.55,2.24-39.82c0.78-5.54-0.26-10.27-4.46-14.56c-5.1-5.21-9.5-11.1-14.17-16.72
	c-3.8-4.56-7.57-9.14-11.35-13.72c3.33-0.94,6.66-1.88,9.99-2.83c4.07,4.52,8.14,9.05,12.22,13.56c3.14,3.48,6.3,6.94,10.46,11.51
	C128.15,178.74,128.66,167.92,129.17,157.11z"/>
<path fill-rule="evenodd" clip-rule="evenodd" fill="#94BF48" d="M121.02,268.05c2.5,3.88,4.99,7.76,7.96,12.36
	c3.04-6.15,5.76-11.63,8.47-17.11c0.5-0.05,1.01-0.1,1.51-0.14c2.77,5.61,5.54,11.21,8.51,17.21c3.98-5,7.76-9.74,11.53-14.48
	c1.3-0.96,2.6-1.93,4.83-3.58c0.59,5.83,1.1,10.96,1.66,16.46c5.05-4.24,10.09-8.46,15.13-12.69c0.55,0.36,1.1,0.73,1.66,1.09
	c-1.67,5.5-3.33,10.99-4.95,16.32c4.57,1.45,9.2,2.93,13.82,4.4c-0.14,0.6-0.28,1.19-0.42,1.79c-6,0.43-12.01,1.2-18.01,1.23
	c-25.8,0.13-51.6-0.03-77.4,0.12c-3.64,0.02-5.53-0.88-5.91-4.67c-0.44-4.33-1.2-8.63-1.82-12.94c0.75-0.51,1.5-1.03,2.24-1.54
	c2.03,3.34,4.06,6.67,6.08,10.01c0.63-0.51,1.26-1.03,1.89-1.54c0-5.34,0-10.68,0-16.01c0.39-0.27,0.78-0.55,1.17-0.82
	c4.07,4.29,8.14,8.57,12.68,13.35c0.29-6.38,0.55-11.97,0.86-18.63C116,262.25,118.51,265.15,121.02,268.05z"/>
<g>
	<path fill-rule="evenodd" clip-rule="evenodd" fill="#76AB3F" d="M94.9,168.95c3.78,4.57,7.55,9.16,11.35,13.72
		c4.68,5.62,9.08,11.51,14.17,16.72c4.2,4.29,5.24,9.01,4.46,14.56c-7.53-3.32-14.99-6.8-22.63-9.81c-1.78-0.7-4.46-0.34-6.3,0.48
		c-24.25,10.77-51.82,1.71-64.42-21.34c-8.65-15.82-7.16-38.35,3.36-50.74C41.09,157.59,67.03,174.91,94.9,168.95z"/>
	<path fill-rule="evenodd" clip-rule="evenodd" fill="#76AB3F" d="M129.17,157.11c-0.51,10.82-1.02,21.63-1.6,34.09
		c-4.16-4.57-7.32-8.03-10.46-11.51c-4.08-4.51-8.15-9.04-12.22-13.56c4.65-4.11,9.31-8.21,14.31-12.63
		C122.09,154.54,125.63,155.83,129.17,157.11z"/>
</g>
<path fill-rule="evenodd" clip-rule="evenodd" fill="#FFFFFF" d="M178.92,114.12c-1.45-0.78-2.91-1.56-4.36-2.35
	c-6.01-3.27-9.09-10.13-7.39-16.48c1.74-6.5,7.99-11.26,14.4-10.95c6.34,0.31,12.11,5.29,13.38,11.56
	c1.41,6.94-1.92,13.32-8.51,16.31c-1.16,0.53-2.29,1.11-3.44,1.67C181.64,113.96,180.28,114.04,178.92,114.12z M180.72,109.28
	c5.79,0.1,10.22-4.08,10.39-9.79c0.18-5.97-4.15-10.6-10.04-10.73c-5.79-0.13-10.2,4.05-10.35,9.8
	C170.57,104.6,174.83,109.18,180.72,109.28z"/>
<path fill-rule="evenodd" clip-rule="evenodd" fill="#FFFFFF" d="M112.35,98.95c0.35,7.03-7.55,14.93-14.75,14.45
	c-9.09-0.61-14.01-7.58-14.35-14.57c-0.37-7.61,7.34-14.5,14.97-14.35C106.12,84.64,112.45,91.11,112.35,98.95z M97.95,88.83
	c-6.36-0.08-10.24,3.58-10.4,9.78c-0.16,6.07,4.41,10.74,10.51,10.75c5.68,0.01,10-4.28,10.07-10.03
	C108.21,93.38,103.87,88.9,97.95,88.83z"/>
<g>
	<path fill-rule="evenodd" clip-rule="evenodd" fill="#76AB3F" d="M155.14,211.25c-0.33-3.12-1.13-6.28-0.83-9.33
		c0.25-2.57,1.2-5.52,2.85-7.43c7.77-9.01,15.89-17.71,23.89-26.53c12.75,3.19,25.22,3.13,37.19-3.09
		c11.04-5.74,18.68-14.57,23.61-25.87c0.59-1.34,1.3-2.63,1.96-3.94c12.18,29.4-4.73,62.83-35.6,70.4
		c-10.36,2.54-20.31,0.67-30.29-2.31c-2.11-0.63-4.94,0.03-7.12,0.9C165.48,206.19,160.35,208.81,155.14,211.25z"/>
	<path fill-rule="evenodd" clip-rule="evenodd" fill="#76AB3F" d="M171.04,164.1c-5.87,5.56-11.74,11.12-18.36,17.37
		c-0.3-8.24-0.59-16.29-0.89-24.34c10.38-4.5,11.59-4.2,18.41,4.71C170.67,162.45,170.77,163.34,171.04,164.1z"/>
</g>
<path fill-rule="evenodd" clip-rule="evenodd" d="M156.52,106.46c-0.1,1.65,0.27,3.53-0.4,4.92c-3.32,6.92-9.33,9.6-16.64,9.52
	c-7.01-0.08-12.52-3.04-15.54-9.59c-0.65-1.42-0.33-3.28,0.52-5.45c3.37,6.85,7.63,11.51,15.52,11.45
	c7.7-0.05,12.29-3.97,14.26-11.66C155,105.92,155.76,106.19,156.52,106.46z"/>
<g>
	<path fill-rule="evenodd" clip-rule="evenodd" fill="#F18E97" d="M178.92,114.12c1.36-0.08,2.72-0.16,4.08-0.23
		c2.3,0.84,4.72,1.47,6.86,2.62c1.17,0.62,2.7,2.23,2.57,3.2c-0.17,1.33-1.5,3-2.77,3.62c-4.55,2.2-9.31,1.94-13.87-0.09
		c-3.67-1.63-3.82-4.38-0.55-6.74C176.42,115.63,177.69,114.9,178.92,114.12z"/>
	<path fill-rule="evenodd" clip-rule="evenodd" fill="#F18E97" d="M97.33,114.91c4.12,0.23,9.44-0.04,9.45,5
		c0.01,5.04-5.38,4.89-9.29,5.01c-5.56,0.17-10.75-2.44-10.12-5.07C88.67,114.46,93.47,115.32,97.33,114.91z"/>
</g>
<g>
	<path fill-rule="evenodd" clip-rule="evenodd" fill="#ACCE57" d="M146.01,41.96c-0.18,6.17-6,10.99-10.96,9.81
		c-1.16-0.28-2.49-1.17-3.11-2.17c-2.26-3.67-0.03-6.42,2.6-8.51c2.97-2.35,6.42-4.54,10.35-2.22
		C145.82,39.42,145.85,41.47,146.01,41.96z"/>
	<path fill-rule="evenodd" clip-rule="evenodd" fill="#ACCE57" d="M112.98,68.35c-0.02-5.12,2.93-8.26,7.4-8.4
		c4.05-0.12,5.78,1.77,5.62,5.74c-0.15,3.67-4.43,8.36-7.95,8.18C114.55,73.71,112.46,71.92,112.98,68.35z"/>
	<path fill-rule="evenodd" clip-rule="evenodd" fill="#ACCE57" d="M115.4,40c6.07-0.01,11.13,4.42,10.35,8.43
		c-0.4,2.06-2.73,4.67-4.72,5.28c-3.31,1.01-9.4-5.47-8.75-9.24C112.6,42.56,114.7,40.95,115.4,40z"/>
	<path fill-rule="evenodd" clip-rule="evenodd" fill="#ACCE57" d="M145.99,64.06c-0.04,3.54-1.92,5.07-5.38,4.93
		c-4.7-0.19-9.19-3.61-8.38-7.3c0.46-2.14,3.02-4.96,5.06-5.37C141.29,55.49,146.01,60.29,145.99,64.06z"/>
</g>
<g>
	<path fill-rule="evenodd" clip-rule="evenodd" fill="#ACCE57" d="M44.99,117.24c0.02-5.83,3.06-9.22,7.9-9.26
		c3.53-0.03,5.17,1.71,5.1,5.2c-0.08,4.48-4.15,8.63-8.37,8.85C45.73,122.23,44.58,120.32,44.99,117.24z"/>
	<path fill-rule="evenodd" clip-rule="evenodd" fill="#ACCE57" d="M69.29,104.96c4.72-0.16,5.66,2.72,5.69,6.17
		c0.04,4.39-2.53,6.84-6.65,6.9c-4.39,0.07-5.27-2.76-5.32-6.2C62.95,107.45,65.54,104.89,69.29,104.96z"/>
	<path fill-rule="evenodd" clip-rule="evenodd" fill="#ACCE57" d="M59.01,96.53c0.2,3.51-0.47,6.35-4.83,6.46
		c-3.78,0.09-6.1-2.66-6.22-7.28c-0.1-3.65,1.41-6.22,5.12-6.6C56.66,88.73,59.03,91.96,59.01,96.53z"/>
</g>
<g>
	<path fill-rule="evenodd" clip-rule="evenodd" fill="#ACCE57" d="M225.95,132.06c-0.12,2.51-1.86,3.98-5.09,3.93
		c-4.41-0.06-9.5-4.46-8.63-8.43c0.46-2.12,3.06-4.83,5.16-5.32C221.48,121.27,225.91,126.45,225.95,132.06z"/>
	<path fill-rule="evenodd" clip-rule="evenodd" fill="#ACCE57" d="M210.92,113.1c0.13-6.17,3.3-10.3,6.58-9.93
		c3.64,0.41,5.42,2.92,5.43,6.52c0,3.53-4.73,9.02-7.36,7.97C213.32,116.76,211.8,114.03,210.92,113.1z"/>
	<path fill-rule="evenodd" clip-rule="evenodd" fill="#ACCE57" d="M194.95,127.94c-0.23-3.89,1.42-6.74,5.4-6.84
		c4.02-0.1,5.71,2.7,5.64,6.6c-0.08,4.39-2.46,7.61-5.73,7.23C196.26,134.46,194.71,131.8,194.95,127.94z"/>
</g>
<path fill-rule="evenodd" clip-rule="evenodd" d="M180.72,109.28c-5.89-0.1-10.15-4.68-9.99-10.73c0.15-5.75,4.56-9.92,10.35-9.8
	c5.89,0.13,10.22,4.76,10.04,10.73C190.94,105.2,186.51,109.38,180.72,109.28z"/>
<path fill-rule="evenodd" clip-rule="evenodd" d="M97.95,88.83c5.92,0.07,10.26,4.55,10.18,10.5c-0.08,5.75-4.39,10.05-10.07,10.03
	c-6.1-0.01-10.66-4.69-10.51-10.75C87.71,92.4,91.6,88.75,97.95,88.83z"/>
</svg>
