<?xml version="1.0" encoding="utf-8"?>
<!-- Generator: Adobe Illustrator 16.0.0, SVG Export Plug-In . SVG Version: 6.00 Build 0)  -->
<!DOCTYPE svg PUBLIC "-//W3C//DTD SVG 1.1//EN" "http://www.w3.org/Graphics/SVG/1.1/DTD/svg11.dtd">
<svg version="1.1" id="Layer_1" xmlns="http://www.w3.org/2000/svg" xmlns:xlink="http://www.w3.org/1999/xlink" x="0px" y="0px"
	 width="279px" height="317px" viewBox="0 0 279 317" enable-background="new 0 0 279 317" xml:space="preserve">
<path fill="#59913D" d="M139.89,89.04c-4.26,0.32-8.51,0.81-12.78,0.92C100.2,90.68,80.8,71.19,77,46.59
	c-0.75-4.84-1.24-9.73-1.85-14.59c1.68,0.9,3.6,1.53,4.98,2.76c5.82,5.19,11.35,10.7,17.22,15.82
	c10.97,9.58,22.06,19.02,33.19,28.42c2.99,2.52,6.29,4.69,9.44,7.01C139.96,87.02,139.92,88.03,139.89,89.04z"/>
<path fill="#71AB3F" d="M139.99,86.01c-3.16-2.33-6.45-4.49-9.44-7.01c-11.13-9.4-22.22-18.84-33.19-28.42
	c-5.87-5.13-11.4-10.64-17.22-15.82c-1.38-1.23-3.31-1.85-4.98-2.76c0.97-0.67,1.9-1.86,2.9-1.91c15.75-0.78,30.5,2.12,43.24,12.17
	c10.26,8.09,15.84,18.78,17.78,31.57c0.22,1.47,1.25,2.83,1.91,4.24C140.65,80.71,140.32,83.36,139.99,86.01z"/>
<path fill="#7A462A" d="M139.99,86.01c0.331-2.65,0.661-5.3,0.981-7.95c1.329-3.85,2.309-7.87,4.069-11.51
	c2.86-5.9,5.83-11.81,9.489-17.22c4.141-6.12,14.98-4.83,18.031,1.91c0.479,1.05-0.121,3.42-1.031,4.15
	c-12.35,9.84-17.909,23.28-20.469,38.26c-0.74,4.36-0.721,8.84-1.051,13.27c-3.07,0-6.19,0.324-9.26,0.314
	c-0.311-5.96-0.55-12.234-0.86-18.194C139.92,88.03,139.96,87.02,139.99,86.01z"/>
<path fill="#E34140" d="M106.82,278.73c22.74-0.83,43.88-7.26,63.14-19.971c16.13-10.65,29.34-24.039,38.89-40.58
	c6.09-10.55,10.811-22.06,14.851-33.6c5.29-15.109,7.29-30.97,6.17-47.01c-0.54-7.73-2.11-15.38-3.19-23.07
	c-0.229-1.63-0.4-3.26-0.6-4.89v0.01c-8.38-6.27-18.061-9.6-28.24-10.47c-14.939-1.27-29.25,2.48-43.189,7.63
	c5.939,1.07,11.879,2.13,17.82,3.2c0.639,0.11,1.27,0.25,1.979,0.38c-8.79,11.23-46.51,12.61-60.23,0.5
	c8.67-1.21,17.17-2.39,25.66-3.57c-6.22-1.61-12.49-3.05-18.65-4.86c-19.75-5.79-39.15-5.11-56.66,6.07
	c-20.2,12.9-29.04,33.15-31.46,56.25c-1.46,13.93,0.12,27.779,3.82,41.391c7.36,27.109,20.45,50.75,41.29,69.85
	c0.004,0,0.007,0.001,0.011,0.001c-0.004-0.004-0.008-0.007-0.011-0.011C87.75,276.971,97.33,279.08,106.82,278.73z"/>
<g>
	<path fill="#B7252F" d="M253.891,148.84c-4.771-16.11-12.75-30.26-27.811-39.23c0.199,1.63,0.37,3.26,0.6,4.89
		c1.08,7.69,2.65,15.34,3.19,23.07c1.12,16.04-0.88,31.901-6.17,47.01c-4.04,11.54-8.761,23.05-14.851,33.6
		c-9.55,16.541-22.76,29.93-38.89,40.58c-19.26,12.711-40.4,19.141-63.14,19.971c-9.49,0.35-19.07-1.76-28.6-2.75
		c0.003,0.004,0.007,0.007,0.011,0.011l0,0c1.969,1.967,3.993,3.834,6.084,5.568c0.314,0.261,0.636,0.507,0.954,0.762
		c0.386,0.31,0.77,0.626,1.16,0.927c0.381,0.293,0.771,0.569,1.157,0.853c0.335,0.246,0.666,0.501,1.004,0.739
		c0.414,0.293,0.837,0.566,1.257,0.847c0.318,0.213,0.632,0.436,0.954,0.642c0.558,0.357,1.125,0.693,1.691,1.029
		c0.191,0.113,0.377,0.235,0.569,0.346c0.606,0.35,1.224,0.676,1.842,0.999c0.159,0.084,0.314,0.176,0.475,0.258
		c0.706,0.359,1.422,0.696,2.144,1.02c0.077,0.034,0.151,0.074,0.228,0.108c0.784,0.347,1.579,0.671,2.382,0.973
		c0.017,0.007,0.033,0.015,0.049,0.021c0.788,0.296,1.587,0.566,2.394,0.816c0.033,0.011,0.065,0.024,0.099,0.034
		c0.773,0.238,1.559,0.449,2.35,0.644c0.07,0.017,0.137,0.04,0.207,0.057c1.627,0.391,3.298,0.679,5.007,0.873
		c0.103,0.012,0.203,0.032,0.306,0.043c1.817,0.193,3.682,0.271,5.597,0.222c7.59-0.189,15.18-2.379,22.66-4.109
		c4.22-0.98,8.08-1.37,12.38-0.07c6.26,1.891,12.711,3.57,19.19,4.24c15.06,1.57,27.399-5.21,38.351-14.54
		c22.389-19.08,36.35-43.53,44.229-71.63C258.42,188.15,259.7,168.45,253.891,148.84z"/>
	<path fill="#B7252F" d="M174.45,110.36c-0.71-0.13-1.341-0.27-1.979-0.38c-5.941-1.07-11.881-2.13-17.82-3.2
		c-1.551,0.05-3.09,0.09-4.641,0.14c-3.07-0.01-5.972,0.189-9.041,0.189c-0.311,0.13-0.779,0.051-1.089,0.181
		c-8.49,1.18-16.99,2.36-25.66,3.57C127.94,122.97,165.66,121.59,174.45,110.36z"/>
</g>
<path fill="#FFFFFF" d="M195.939,196.221c-10.189,0.01-18.18-7.871-18.119-17.871c0.06-9.91,8.32-18.039,18.22-17.949
	c9.5,0.09,17.69,8.439,17.69,18.029C213.73,188.141,205.66,196.21,195.939,196.221z"/>
<path fill="#FFFFFF" d="M85.97,195.061c-8.25-4.49-12.13-12.701-9.97-21.08c2.02-7.84,9.17-13.5,17.13-13.561
	c8.05-0.061,15.11,5.35,17.29,13.32c2.85,10.42-4.1,21.92-17.32,22.699C90.72,195.99,88.34,195.529,85.97,195.061z"/>
<g>
	<path fill="#FFABAB" d="M89.28,126.27c2.9-6.99-0.32-11.71-7.77-11.22c-2.58,0.17-5.38,0.8-7.59,2.07
		c-15.65,9-24.21,22.65-25.91,38.45c-0.06,11.1,3.14,15.39,9.89,15.411c5.51,0.02,9.34-2.951,11.84-9.69
		c3.84-10.33,8.34-20.23,15.76-28.6C87.12,130.86,88.33,128.55,89.28,126.27z"/>
	<path fill="#FFABAB" d="M92.318,202.469c-1.438-0.249-3.418-0.533-5.346-0.482c-2.002,0.053-3.947,0.467-5.17,1.654
		c-2.994,2.906-1.683,7.934,1.968,9.569c5.889,2.62,11.898,2.54,17.607-0.858c2.298-1.368,3.627-4.615,1.418-6.734
		C100.995,203.89,94.917,202.921,92.318,202.469z"/>
	<path fill="#FFABAB" d="M208.63,205.42c-4.775-4.61-18.971-5.698-23.027,0.536c-3.689,5.669,3.348,5.094,6.502,6.11
		c1.756,0.567,3.726,1.795,5.74,2.67c2.058,0.893,4.162,1.416,6.136,0.487c1.393-0.655,4.05-2.937,5.095-4.041
		C210.847,209.31,210.44,207.168,208.63,205.42z"/>
</g>
<g>
	<path d="M145.68,210.46c-9.88,0.101-18.8-6.16-21.06-15.14c-0.39-1.541,0.7-3.45,1.11-5.18c1.08,1.189,2.65,2.189,3.16,3.58
		c2.84,7.869,8.78,12.289,16.9,12.209c8.149-0.09,14.29-4.619,17.04-12.16c0.529-1.449,2.27-2.449,3.449-3.66
		c0.25,1.771,1.101,3.711,0.641,5.271C164.279,204.34,155.6,210.35,145.68,210.46z"/>
	<path d="M195.51,191.35c-7.25-0.08-12.85-5.85-12.76-13.149c0.09-7.341,5.77-12.7,13.27-12.53c6.98,0.16,12.701,6,12.621,12.87
		C208.55,185.84,202.83,191.42,195.51,191.35z"/>
	<path d="M92.94,165.561c7.3-0.08,13.11,5.59,13.12,12.83c0.01,7.189-5.37,12.77-12.46,12.909c-7.44,0.14-13.54-5.79-13.46-13.1
		C80.22,171.15,85.79,165.65,92.94,165.561z"/>
</g>
</svg>
