<?xml version="1.0" encoding="utf-8"?>
<!-- Generator: Adobe Illustrator 16.0.0, SVG Export Plug-In . SVG Version: 6.00 Build 0)  -->
<!DOCTYPE svg PUBLIC "-//W3C//DTD SVG 1.1//EN" "http://www.w3.org/Graphics/SVG/1.1/DTD/svg11.dtd">
<svg version="1.1" id="Layer_1" xmlns="http://www.w3.org/2000/svg" xmlns:xlink="http://www.w3.org/1999/xlink" x="0px" y="0px"
	 width="303px" height="317px" viewBox="0 0 303 317" enable-background="new 0 0 303 317" xml:space="preserve">
<path fill="#578C3C" d="M31.04,140c1.31,3.96,2.84,7.87,3.899,11.89c3.801,14.37,20.811,28.129,35.141,30.28
	c18.92,2.84,33.819-3.391,46.31-17.08c0.99-1.08,2.16-2,3.2-2.96c21.53,11.979,42.689,13.78,63.61-1.09
	c7.97,9.739,17.6,16.979,29.899,19.351c19.04,3.67,38.88-6.17,44.07-25.101c2.47-9,0.88-18.08-2.71-26.82
	c-5.19,3.63-10.03,7.69-15.521,10.52c-2.25,1.17-6.21,0.42-8.779-0.77c-2.771-1.28-3.78-4.26-2.591-7.72
	c1.12-3.27,1.931-6.71,2.32-10.14c0.771-6.9,3.23-9.57,10.28-10.37c1.97-0.22,3.95-0.75,5.89-0.64c1.771,0.11,3.49,0.91,5.851,1.58
	c2.89-7.74,4.89-15.51,3.569-23.66c-1.109-6.83-2.97-13.55-4.5-20.31c8.721,8.47,13.32,18.49,13.15,30.94
	c-0.11,7.92-0.55,15.5-4,22.79c-0.48,1.02,0.79,3.54,1.96,4.56c24.13,21.05,20.26,58.48-7.99,73.6
	c-15.25,8.16-30.979,7.36-46.6,0.49c-2.07-0.91-4.261-1.52-6.4-2.26c-5.01-5.061-10.02-10.109-15.03-15.17
	c-0.97-3.46-1.71-7.77-6.76-5.75c-5.34,2.141-10.33,5.13-15.479,7.75c-8.301,0.01-16.59,0.02-24.891,0.04
	c-5.56-2.91-11.13-5.81-17.14-8.95c-1.26,2.67-2.47,5.25-3.68,7.83c-5.48,4.939-10.96,9.88-16.44,14.811
	c-1.84,0.649-3.74,1.17-5.51,1.959c-23.101,10.28-49.311,4.11-61.851-15.209C25.22,170.41,23.58,155.43,31.04,140z"/>
<path fill="#619B40" d="M254.46,128.48c-5.19,3.63-10.03,7.69-15.521,10.52c-2.25,1.17-6.21,0.42-8.779-0.77
	c-2.771-1.28-3.78-4.26-2.591-7.72c1.12-3.271,1.931-6.71,2.32-10.14c0.771-6.9,3.23-9.57,10.28-10.37
	c1.97-0.22,3.95-0.75,5.89-0.64c1.771,0.11,3.49,0.91,5.851,1.58c2.89-7.74,4.89-15.51,3.569-23.66
	c-1.109-6.83-2.97-13.55-4.5-20.31c-13.17-14.07-29.42-17.11-47.43-12.72c-4.12,1-5.84,0.74-7.68-3.53
	c-13.61-31.43-57.16-38.17-79.65-12.3c-4.46,5.14-7.63,11.4-11.47,17.26c-8.851-3.53-18.41-4.16-28-1.92
	c-29.7,6.92-45,35.979-33.99,64.41c1.24,3.21,1.56,5.18-1.43,8.06c-4.07,3.92-6.91,9.11-10.28,13.75c1.31,3.96,2.84,7.87,3.9,11.89
	c3.8,14.37,20.81,28.13,35.14,30.28c18.92,2.84,33.82-3.391,46.31-17.08c0.99-1.08,2.16-2,3.2-2.961
	c21.53,11.98,42.69,13.781,63.61-1.09c7.97,9.74,17.6,16.98,29.899,19.351c19.04,3.67,38.881-6.17,44.07-25.1
	C259.64,146.3,258.05,137.22,254.46,128.48z"/>
<g>
	<path fill="#8ABE46" d="M116.86,262.96c0.04,4.431-0.199,8.899,0.271,13.28c0.21,1.99,1.85,3.82,2.84,5.72
		c1.04,0.771,1.99,1.761,3.15,2.28c18.33,8.189,36.689,7.68,55.119,0.25c5.24-2.11,6.341-6.24,6.45-11.211
		c0.15-6.979,0.13-13.979,0.761-20.92c1.75-19.369,7.369-37.699,15.649-55.25c-5.01-5.06-10.02-10.109-15.03-15.17
		c-3.409,6.031-6.72,12.121-10.279,18.061c-1.44,2.4-2.811,6.51-6.37,4.66c-2.181-1.131-3.69-4.68-4.3-7.42
		c-0.96-4.311-0.91-8.85-1.29-13.29c-8.301,0.01-16.591,0.021-24.891,0.04c-0.319,4.6-0.239,9.279-1.109,13.77
		c-0.431,2.24-2.591,4.15-3.971,6.2c-1.899-1.28-4.43-2.149-5.6-3.92c-3.66-5.54-6.8-11.431-10.14-17.181
		c-5.48,4.941-10.96,9.881-16.44,14.811c2.85,7.189,6.29,14.221,8.4,21.62c2.479,8.71,3.79,17.75,5.609,26.649
		C115.68,245.939,116.8,258.25,116.86,262.96z"/>
</g>
<path fill="#CBE29F" d="M121.997,242.222c-0.913-4.151-1.548-8.347-1.436-12.287c0.208-7.287,9.354-9.392,13.556-4.145
	c5.324,6.648,5.261,15.828,5.261,23.896c0,3.966,2.345,15.184-3.557,16.204c-6.716,1.161-9.523-7.155-10.846-12.104
	C124.004,250.146,122.873,246.203,121.997,242.222z"/>
<path fill="#FEFEFE" d="M199.96,129.38c-9.021-1.53-15.391-8.17-15.88-16.55c-0.471-8.16,4.97-15.61,13.05-17.88
	c8.03-2.25,16.32,1.34,20.27,8.78c4.21,7.93,1.761,16.6-6.529,23.1C207.23,127.68,203.6,128.53,199.96,129.38z M201.6,123.99
	c7.53,0.01,12.59-4.94,12.61-12.33c0.02-7.13-5.51-12.52-12.771-12.47c-6.85,0.05-12.319,5.49-12.439,12.38
	C188.88,118.74,194.19,123.98,201.6,123.99z"/>
<path fill="#FEFEFE" d="M100.32,129.46c-9.67,0.09-18-8.06-17.979-17.58c0.02-9.39,7.92-17.31,17.46-17.51
	c9.21-0.19,17.6,7.98,17.77,17.31C117.74,120.96,109.58,129.38,100.32,129.46z M99.94,99.97c-6.67-0.03-12.66,4.48-12.72,9.58
	c-0.09,8.81,4.9,14.68,12.58,14.79c7.21,0.1,12.7-5.33,12.62-12.49C112.35,104.87,107.23,100,99.94,99.97z"/>
<path d="M152.6,138.03c-8.62,0.41-14.55-2.49-19.08-8.15c-1.2-1.5-2.109-3.43-2.479-5.29c-0.21-1.06,0.97-2.38,1.52-3.59
	c0.891,0.78,2.141,1.38,2.62,2.35c4.61,9.39,13.19,12.96,23.05,9.5c4.521-1.58,7.57-4.53,9.391-9c0.46-1.13,2.1-1.78,3.199-2.66
	c0.261,1.49,1.07,3.13,0.7,4.44c-1.79,6.26-9.52,11.84-16.7,12.38C153.66,138.1,152.5,138.03,152.6,138.03z"/>
<path fill="#ED9695" d="M98.61,143.39c-2.699-0.78-5.87-1.25-8.6-2.59c-3.98-1.96-4.02-5.37-0.21-7.52
	c5.36-3.03,11.12-3.23,16.67-0.73c1.7,0.77,3.78,3.04,3.77,4.6c-0.02,1.5-2.279,3.46-4,4.33
	C104.11,142.55,101.52,142.71,98.61,143.39z"/>
<path fill="#ED9695" d="M210.88,132.13c1.38,1.84,2.77,3.68,4.149,5.52c-2.02,1.5-3.93,4.05-6.079,4.26
	c-4.44,0.44-9.061-0.06-13.48-0.84c-1.54-0.27-3.9-2.66-3.78-3.87c0.16-1.68,2.11-3.43,3.681-4.65c1.229-0.96,3.05-1.15,4.609-1.69
	C203.61,131.28,207.25,131.71,210.88,132.13z"/>
<g>
	<path fill="#8ABE46" d="M72.27,73.97c7.32,0.1,10.46,4.63,7.71,9.8C77.2,89,73.83,93.94,70.54,98.88
		c-2.25,3.38-5.79,4.21-9.21,2.51c-3.17-1.57-3.91-4.57-3.65-8.4c0.521-7.55,4.76-12.58,10.04-17.04
		C69.24,74.68,71.52,74.28,72.27,73.97z"/>
	<path fill="#8ABE46" d="M158.63,47.23c-2.271,2.57-3.521,5.08-5.51,6c-4.311,1.99-8.91,3.72-13.57,4.42
		c-2.43,0.37-6.57-0.96-7.5-2.78c-1.16-2.25-0.68-6.29,0.66-8.69c3.03-5.42,15.09-8.38,20.66-5.3
		C155.31,41.97,156.44,44.5,158.63,47.23z"/>
	<path fill="#8ABE46" d="M124.83,82c-4.61-0.04-6.84-2.18-6.851-6.55c-0.01-5.22,3.17-8.52,8.16-8.47c4.68,0.05,6.96,2.61,6.85,7.71
		C132.9,79.14,129.66,82.04,124.83,82z"/>
	<path fill="#8ABE46" d="M51.01,141.98c4.47,0.02,8.77,4.28,7.65,8.16c-0.87,3.01-4.051,6.13-6.99,7.52c-2.5,1.18-5.66-4.2-5.7-8.89
		C45.93,144.58,47.89,142.36,51.01,141.98z"/>
</g>
<path d="M201.6,123.99c-7.41-0.01-12.72-5.25-12.6-12.41c0.12-6.89,5.59-12.33,12.439-12.38c7.261-0.06,12.79,5.34,12.771,12.47
	C214.2,119.06,209.13,124.01,201.6,123.99z"/>
<path d="M99.94,99.97c7.29,0.03,12.41,4.9,12.48,11.88c0.08,7.16-5.41,12.59-12.62,12.49c-7.68-0.11-12.67-5.97-12.58-14.79
	C87.27,104.46,93.26,99.94,99.94,99.97z"/>
</svg>
