<?xml version="1.0" encoding="utf-8"?>
<!-- Generator: Adobe Illustrator 16.0.0, SVG Export Plug-In . SVG Version: 6.00 Build 0)  -->
<!DOCTYPE svg PUBLIC "-//W3C//DTD SVG 1.1//EN" "http://www.w3.org/Graphics/SVG/1.1/DTD/svg11.dtd">
<svg version="1.1" id="Layer_1" xmlns="http://www.w3.org/2000/svg" xmlns:xlink="http://www.w3.org/1999/xlink" x="0px" y="0px"
	 width="296px" height="285px" viewBox="0 0 296 285" enable-background="new 0 0 296 285" xml:space="preserve">
<path fill-rule="evenodd" clip-rule="evenodd" fill="#BA7943" d="M177.97,31.12c14.08,0.55,26.32,5.71,34.56,17.12
	c13.5,18.69,27.75,36.66,43.53,53.5c8.05,8.59,11.31,19.53,11.74,31.26c-0.93,0.67-2.58,1.24-2.69,2.03
	c-2.56,17.58-13.65,30.19-24.59,42.95c-8.54,9.96-16.46,20.28-21.71,32.56c-4.38,10.25-10.59,19.42-22.51,22.22
	c-5.92,1.39-11.98,3-17.99,3.05c-17.44,0.15-34.76,0.52-51.99,3.97c-15.01,3-27.21-2.01-36.14-14.92
	c-7.35-10.63-15.27-20.75-26.06-28.44c-9.9-7.05-18.43-15.96-20.38-28.42c-2.11-13.53-3.1-27.3-3.53-40.99
	c-0.33-10.3,4.41-18.86,12.65-25.38c2.69-2.13,5.5-4.44,7.33-7.27c3.62-5.61,6.59-11.65,9.52-16.95c5.77-0.82,11.57-1.64,17.37-2.47
	c7.29,3.74,8.94,3.31,15.44-3.99c5.17-5.81,4.7-10.37-1.52-14.92c-0.77-0.57-1.39-1.34-2.08-2.02c13.92-3.6,27.83-7.24,41.77-10.77
	c5.12-1.29,10.37-2.09,15.47-3.48c6.37-1.74,12.67-3.76,18.92-5.88C176.22,33.5,177.01,32.07,177.97,31.12z"/>
<path fill-rule="evenodd" clip-rule="evenodd" fill="#B37039" d="M267.8,132.99c-0.93,0.67-2.58,1.24-2.69,2.03
	c-2.56,17.58-13.65,30.19-24.59,42.95c-8.54,9.96-16.46,20.28-21.71,32.56c-4.38,10.25-10.59,19.42-22.51,22.22
	c-5.92,1.39-11.98,3-17.99,3.05c-17.44,0.15-34.76,0.52-51.99,3.97c-15.01,3-27.21-2.01-36.14-14.92
	c-7.35-10.63-15.27-20.75-26.06-28.44c-9.9-7.05-18.43-15.96-20.38-28.42c-2.11-13.53-3.1-27.3-3.53-40.99
	c-0.33-10.3,4.41-18.86,12.65-25.38c2.69-2.13,5.5-4.44,7.33-7.27c3.62-5.61,6.59-11.65,9.52-16.95c5.77-0.82,11.57-1.64,17.37-2.47
	c-3.97-4.54-3.87-9.3-1.41-14.63c2.77-6.03,7.9-6.19,13.25-6.29c13.92-3.6,27.83-7.24,41.77-10.77c5.12-1.29,10.37-2.09,15.47-3.48
	c6.37-1.74,12.67-3.76,18.92-5.88c1.14-0.39,1.93-1.82,2.89-2.77c-14.5,1.08-28.99,2.28-43.49,3.2c-5.64,0.36-11.56,1.15-16.92-0.11
	c-7.91-1.85-15.74-3.13-23.63-1.61C74.4,36.33,62.95,49.04,57.01,67.33c-4.25,13.07-9.46,25.62-17.96,36.61
	c-5.79,7.49-9.03,15.92-9.18,25.55c-0.11,6.95-0.32,13.95-1.23,20.83c-2.51,18.87,0,35.99,15.24,49.34c1.63,1.43,2.6,3.62,3.87,5.46
	c2.04,1.03,4.17,1.91,6.09,3.12c9.15,5.75,16.39,13.41,22.05,22.58c6.21,7.86,11.34,16.62,20.18,22.17
	c15.12,9.5,30.93,9.64,47.58,4.91c10.24-2.91,20.72-5.13,31.22-6.86c8.11-1.33,16.53-0.82,24.63-2.21
	c15.06-2.58,27.08-10.06,34.23-24.14c4.15-10.88,8.29-21.76,12.44-32.63c4.18-8.47,8.12-17.06,12.6-25.36
	C264.49,156.13,268.11,145.12,267.8,132.99z"/>
<path fill-rule="evenodd" clip-rule="evenodd" fill="#714229" d="M47.75,205.12c2.04,1.03,4.17,1.91,6.09,3.12
	c9.15,5.75,16.39,13.41,22.05,22.58C50,243.33,40.67,215,47.75,205.12z"/>
<path fill-rule="evenodd" clip-rule="evenodd" fill="#FFFFFF" d="M113.1,124.24c0.04,9.7-7.29,17.3-16.83,17.44
	c-9.73,0.15-18.1-8-18.07-17.58c0.03-9.31,7.95-17.45,17.04-17.53C105.1,106.49,113.05,114.36,113.1,124.24z M95.64,111.78
	c-6.87-0.09-12.36,5.22-12.51,12.1c-0.15,7.07,5.7,12.98,12.87,13.01c6.58,0.02,11.97-5.26,12.15-11.91
	C108.35,117.58,102.94,111.88,95.64,111.78z"/>
<path fill-rule="evenodd" clip-rule="evenodd" fill="#FFFFFF" d="M179.6,124.43c0.03-9.86,7.68-17.58,17.07-17.87
	c9.46-0.29,18.3,9.26,18.17,17.38c-0.15,9.95-8,17.82-18.26,17.84C187.57,141.79,179.57,133.62,179.6,124.43z M196.37,136.92
	c7.6,0.12,13.24-5.06,13.45-12.34c0.2-6.93-5.44-12.71-12.46-12.79c-6.17-0.07-13.53,5.4-13.33,10.33
	C184.33,129.21,188.16,137.74,196.37,136.92z"/>
<path fill-rule="evenodd" clip-rule="evenodd" d="M148.75,150.87c-11.22,0.07-19.33-4.71-21.82-12.11c-0.5-1.49,0.4-3.45,0.66-5.19
	c1.14,1.15,2.74,2.09,3.35,3.47c2.93,6.64,8.16,9.17,15.08,9.28c7.43,0.12,13.24-2.29,16.65-9.38c0.69-1.44,2.41-2.38,3.65-3.55
	c0.13,1.9,0.99,4.16,0.26,5.66C162.64,147.19,155.58,150.55,148.75,150.87z"/>
<g>
	<path fill-rule="evenodd" clip-rule="evenodd" fill="#EE9898" d="M95.79,156.45c-3.97-1.26-7.4-1.96-10.46-3.43
		c-3.25-1.56-3.3-4.83-0.55-7.23c4.48-3.92,16.2-3.65,20.47,0.53c1.97,1.93,2.47,4.34-0.05,5.87
		C102.2,154.02,98.77,155.14,95.79,156.45z"/>
	<path fill-rule="evenodd" clip-rule="evenodd" fill="#EE9898" d="M198.84,155.43c-2.42-0.46-4.9-0.45-6.89-1.44
		c-1.89-0.94-4.52-2.92-4.53-4.45c0-1.63,2.41-3.77,4.26-4.81c5.05-2.83,10.37-1.96,15.32,0.42c1.58,0.76,3.71,3.01,3.51,4.24
		c-0.27,1.69-2.26,3.63-3.99,4.42C204.2,154.87,201.42,154.94,198.84,155.43z"/>
</g>
<g>
	<path fill-rule="evenodd" clip-rule="evenodd" fill="#714229" d="M87.09,74.94c-3.97-4.54-3.87-9.3-1.41-14.63
		c2.77-6.03,7.9-6.19,13.25-6.29c0.69,0.68,1.31,1.46,2.08,2.02c6.21,4.54,6.69,9.1,1.52,14.92C96.02,78.25,94.37,78.68,87.09,74.94
		z"/>
	<path fill-rule="evenodd" clip-rule="evenodd" fill="#714229" d="M119.32,103.06c-3.87,0.08-9.32-5.13-9.3-9.42
		c0.02-3.8,2.68-5.19,5.8-5.5c4.22-0.42,9.91,5.12,9.73,9.52C125.41,101.02,123.48,103.14,119.32,103.06z"/>
</g>
<g>
	<path fill-rule="evenodd" clip-rule="evenodd" fill="#714229" d="M177.88,195.78c-0.05-7.14,8.37-13.83,17.21-13.67
		c6.58,0.12,13.81,9.64,13.88,18.29c0.06,7.28-7.03,13.63-15.1,13.51C184.59,213.77,177.96,206.25,177.88,195.78z"/>
	<path fill-rule="evenodd" clip-rule="evenodd" fill="#714229" d="M230.52,108.02c5.96,0.02,10.82,4.49,11.3,10.37
		c0.46,5.62-4.08,12.37-9.04,13.43c-0.48,0.1-0.99,0.1-1.48,0.12c-5.51,0.18-9.06-5.86-9.23-15.75
		C221.97,111.09,225.18,108,230.52,108.02z"/>
	<path fill-rule="evenodd" clip-rule="evenodd" fill="#714229" d="M233.8,161.32c-2.46,2.43-4.1,4.05-5.74,5.68
		c-1.37-1.73-3.56-3.29-3.93-5.21c-0.56-2.9,0.05-6.71,4.01-6.49C229.83,155.39,231.34,158.57,233.8,161.32z"/>
</g>
<g>
	<path fill-rule="evenodd" clip-rule="evenodd" fill="#714229" d="M184.21,84.57c-3.73-0.68-7.62-0.89-11.14-2.13
		c-6.85-2.4-9.56-8.42-6.2-14.8c2.34-4.45,5.78-8.53,9.45-12.01c3.48-3.3,7.94-3.34,12.59-1.33c6.86,2.97,11.21,7.73,12.01,15.19
		C202.04,79.9,197.18,84.04,184.21,84.57z"/>
	<path fill-rule="evenodd" clip-rule="evenodd" fill="#714229" d="M185.65,95.98c0.73,1.12,2.68,2.83,2.93,4.76
		c0.5,3.86-4.05,8.49-7.88,7.97c-1.7-0.23-4.08-2.31-4.48-3.96C175.33,101.06,180.18,96.14,185.65,95.98z"/>
	<path fill-rule="evenodd" clip-rule="evenodd" fill="#714229" d="M147.05,55.32c-3.09-2.47-5.4-4.31-7.7-6.15
		c1.68-1.32,3.77-4.03,4.97-3.68c2.45,0.71,4.52,2.96,6.41,4.9C150.92,50.58,148.77,53.05,147.05,55.32z"/>
</g>
<g>
	<path fill-rule="evenodd" clip-rule="evenodd" fill="#714229" d="M62.04,174.39c0.02-7.11,5.38-13.4,11.39-13.37
		c4.6,0.03,10.51,6.16,10.52,10.93c0.02,5.36-6.34,12.92-10.91,12.97C67.24,184.98,62.03,179.99,62.04,174.39z"/>
	<path fill-rule="evenodd" clip-rule="evenodd" fill="#714229" d="M65.42,126.8c-2.04,2.17-3.36,3.58-4.69,4.98
		c-1.17-1.4-3.38-2.93-3.24-4.18c0.19-1.62,2.11-3.24,3.66-4.32C61.49,123.04,63.43,125.12,65.42,126.8z"/>
</g>
<g>
	<path fill-rule="evenodd" clip-rule="evenodd" fill="#714229" d="M113.34,206.97c7.56,0.12,13.53,5.92,13.5,13.1
		c-0.03,7.75-6.69,14.05-14.6,13.82c-7.37-0.22-12.54-6.58-12.34-15.18C100.06,212.18,106.15,206.86,113.34,206.97z"/>
	<path fill-rule="evenodd" clip-rule="evenodd" fill="#714229" d="M157.09,218.32c1.83,2.29,4.01,4.33,3.72,4.77
		c-1.04,1.6-2.79,3.39-4.51,3.67c-1.19,0.19-2.77-1.97-4.18-3.08C153.5,222.2,154.87,220.71,157.09,218.32z"/>
	<path fill-rule="evenodd" clip-rule="evenodd" fill="#714229" d="M122.32,179.68c1.64,2.4,3.11,3.76,3.4,5.34
		c0.14,0.76-2.15,2.87-2.99,2.7c-1.63-0.33-3.01-1.85-4.5-2.88C119.33,183.45,120.43,182.07,122.32,179.68z"/>
</g>
<path fill-rule="evenodd" clip-rule="evenodd" d="M95.64,111.78c7.3,0.1,12.71,5.8,12.51,13.19c-0.18,6.65-5.57,11.94-12.15,11.91
	c-7.17-0.03-13.02-5.94-12.87-13.01C83.28,117,88.77,111.69,95.64,111.78z"/>
<path fill-rule="evenodd" clip-rule="evenodd" d="M196.37,136.92c-8.21,0.82-12.04-7.71-12.33-14.8
	c-0.21-4.93,7.16-10.4,13.33-10.33c7.02,0.08,12.65,5.86,12.46,12.79C209.61,131.86,203.97,137.04,196.37,136.92z"/>
</svg>
