<?xml version="1.0" encoding="utf-8"?>
<!-- Generator: Adobe Illustrator 16.0.0, SVG Export Plug-In . SVG Version: 6.00 Build 0)  -->
<!DOCTYPE svg PUBLIC "-//W3C//DTD SVG 1.1//EN" "http://www.w3.org/Graphics/SVG/1.1/DTD/svg11.dtd">
<svg version="1.1" id="Layer_1" xmlns="http://www.w3.org/2000/svg" xmlns:xlink="http://www.w3.org/1999/xlink" x="0px" y="0px"
	 width="325px" height="227px" viewBox="0 0 325 227" enable-background="new 0 0 325 227" xml:space="preserve">
<circle fill="#FFFFFF" cx="47.06" cy="145.06" r="10.56"/>
<rect x="161.5" y="112.5" fill="#FFFFFF" width="97.5" height="73.5"/>
<path fill="#308FBB" d="M88.16,67.98c1.25,0,2.5,0,3.76,0C89.9,78.3,87.88,88.61,85.86,98.93c-0.949,3.61-2.109,7.18-2.8,10.84
	c-0.68,3.64,0.73,5.77,4.851,4.98c1.979,0.1,3.96,0.29,5.939,0.29c16.73,0.08,33.45,0.12,50.18,0.17
	c-1.239,0.94-2.34,2.261-3.729,2.761c-4.37,1.559-8.86,2.77-13.29,4.18c-9.13,2.91-16.6,7.629-19.26,17.629
	c-0.141,0.531-0.87,0.91-1.32,1.361c-0.479-0.67-0.91-1.391-1.44-2.021c-3.449-4.101-8.109-5.101-12.399-2.69
	c-4.15,2.33-6.08,7.19-4.72,11.9c2.229,7.779,10.72,9.01,17.869,2.6c0.421,3.78,0.91,7.551,1.221,11.34
	c0.17,2.121,0.04,4.26,0.05,6.391c-22.96,0.07-45.93,0.13-68.89,0.199c-0.24-6.109-0.49-12.209-0.66-18.319
	c0-0.11,0.87-0.24,1.33-0.36c3.109,4.771,7.55,6.24,12.26,4.051c4.52-2.101,6.79-6.98,5.36-11.53
	c-1.631-5.181-6.021-7.79-11.41-6.771c-2.05,0.93-4.09,1.85-6.48,2.94c1.681-6.511,5.63-10.761,11.62-12.96
	c6.78-2.5,13.64-4.79,20.561-6.86c4.76-1.42,7.359-4.149,8.369-9.13C81.9,95.89,85.1,81.95,88.16,67.98z M84.51,155.84
	c-7.6,6.301-15.43,9.631-24.17,2.641c0.81,4.6,5.84,7.149,12.68,6.439C79.85,164.21,84.78,160.55,84.51,155.84z"/>
<g>
	<path d="M122.91,180c1.369-7.05,2.909-14.04,8.119-19.48c7.15-7.459,15.78-10.199,25.86-7.67c10.64,2.67,16.66,9.971,18.99,20.301
		c0.89,3.93,0.55,8.14,0.79,12.58c3.04,0,6.31,0,9.58,0c11.979,0,23.96,0,36.71,0c-2.78,8.83-8.41,13.369-16.51,15.609
		c-11.2,3.09-22.931-1.33-31.551-12.4c-3.27,7.891-8.399,13.67-16.8,16.121c-11.68,3.41-31.89-1.83-34.149-18.32
		c-0.061-0.42-0.53-0.78-0.811-1.17C123.06,183.71,122.99,181.85,122.91,180z M141.82,179.38c-0.01,7.101,3.83,11.62,9.96,11.729
		c6.12,0.111,10.971-5.08,10.91-11.68c-0.06-6.47-5.17-12.119-10.89-12.029C146.09,167.49,141.83,172.62,141.82,179.38z"/>
	<path d="M237.8,186.24c0.93-6.16,0.83-12.721,3.02-18.391c4.431-11.459,18.091-18.02,29.78-15.51
		c12.58,2.7,21.2,13.381,21.29,26.439c0.021,2.32-0.11,4.641-0.17,6.961c-2.44,4.18-4.22,8.97-7.44,12.42
		c-13.79,14.76-39.659,8.5-45.579-10.74C238.55,186.971,238.1,186.63,237.8,186.24z M267.07,191.16
		c5.95-0.02,10.57-5.061,10.58-11.57c0.021-6.52-5-11.92-10.979-11.811c-6.11,0.111-10.66,5.351-10.561,12.171
		C256.21,186.311,260.96,191.17,267.07,191.16z"/>
	<path d="M54.08,188.109c15.29-0.029,30.58-0.06,45.88-0.08c-1.601,7.25-6.601,11.311-13.34,12.98
		C73.19,204.33,59.27,201.23,54.08,188.109z"/>
</g>
<g>
	<path fill="#9AD7E4" d="M165,113.99c2.58-14.28,5.109-28.56,7.76-42.82c0.67-3.57,3.06-5.35,6.74-5.34
		c9.13,0.02,18.26,0.08,27.39,0c4.82-0.04,4.1,3.2,3.96,6.2c-2.16,1.7-4.61,3.12-6.42,5.14c-10.04,11.17-19.93,22.48-29.84,33.78
		c-0.73,0.83-1.13,1.95-1.68,2.94C170.27,113.92,167.64,113.95,165,113.99z"/>
	<path fill="#9AD7E4" d="M187.02,113.94c6.82-7.65,13.61-15.32,20.49-22.91c0.84-0.92,2.14-1.42,3.229-2.11
		c0.12,8.31,0.24,16.62,0.36,24.93C203.08,113.88,195.05,113.91,187.02,113.94z"/>
</g>
<g>
	<path fill="#CDCDCD" d="M133.03,52.9c-1.97,0.1-3.939,0.19-5.92,0.29c-0.05-2.65-0.109-5.29-0.159-7.94
		c6.18-1.32,9.06-5.67,7.85-11.85c-1.2-6.09-5.13-8.3-12.23-6.88c1.79-4.07,5.311-2.73,8.03-2.05c4.18,1.04,6.601,4.3,7.311,8.53
		c0.319,1.93,0.06,3.97,0.06,6.32c11.57,4.13,23.01-0.85,34.46,0.77c0.47-3.57,0.84-6.47,1.22-9.37l0.38,0.32
		c-0.02,2.16-0.3,4.35-0.02,6.46c0.84,6.22,7.31,9.55,12.11,6.35c3.859-2.58,5.31-9.42,2.949-13.97
		c-2.189-4.23-5.75-5.21-11.47-3.15c-0.21-0.24-0.41-0.49-0.62-0.73c5.38-5.01,9.61-2.87,14.08,0.86
		c4.03,3.36,4.34,10.64,0.23,14.97c-3.32,3.5-4.95,6.73-3.42,11.33c-1.971-0.06-3.931-0.12-5.9-0.18c-0.43-1.53-0.41-3.87-1.39-4.42
		c-2.78-1.57-5.95-3.24-9.021-3.37c-10.109-0.41-20.26-0.17-30.39-0.15C134.97,45.04,133.59,46.39,133.03,52.9z"/>
	<path fill="#CDCDCD" d="M38.1,168.85c22.96-0.07,45.93-0.129,68.89-0.199c9.551,0.66,11.29,2.17,11.94,10.34
		c-0.65,1.99-1.29,3.99-1.94,5.98c-5.68,1.02-11.359,2.029-17.039,3.049c-15.29,0.03-30.58,0.061-45.881,0.08
		c-4-0.379-8.04-0.529-11.989-1.22c-2.801-0.489-6.061-1.021-8.091-2.739c-3.779-3.211-3.27-8.461,0.421-12.08
		C35.59,170.93,36.87,169.92,38.1,168.85z"/>
	<path fill="#CDCDCD" d="M295.99,184.98c-0.02-3.5,0.011-7-0.09-10.5c-0.09-3.17,0.87-5.561,4.17-6.51
		c6.641,3.469,8.431,7.02,6.681,13.239C305.25,186.59,301.329,187.96,295.99,184.98z"/>
</g>
<path fill="#CDCDCD" d="M173.66,30.72c0.39-0.62,0.79-1.24,1.18-1.86c0.13,0.11,0.26,0.22,0.39,0.33
	c-0.399,0.61-0.79,1.23-1.189,1.84L173.66,30.72z"/>
<path fill="#CDCDCD" d="M174.83,28.86c0.38-0.63,0.75-1.26,1.12-1.89c0.22,0.2,0.439,0.39,0.67,0.59c-0.471,0.54-0.94,1.09-1.4,1.63
	C175.09,29.09,174.96,28.98,174.83,28.86z"/>
<path fill="#CDCDCD" d="M175.96,26.98c0.34-0.33,0.68-0.65,1.02-0.98c0.21,0.24,0.41,0.49,0.62,0.73
	c-0.33,0.28-0.649,0.56-0.97,0.84C176.4,27.37,176.18,27.17,175.96,26.98z"/>
<path fill="#CDCDCD" d="M122.33,26.48c-0.33,0.33-0.67,0.66-1,1C121.67,27.14,122,26.81,122.33,26.48z"/>
<g>
	<path fill="#9AD7E4" d="M144.03,115.2c-16.729-0.05-33.449-0.101-50.18-0.171c-1.979-0.01-3.96-0.189-5.939-0.289
		c0.619-1.39,1.239-2.78,1.85-4.18c0.51-0.41,1.13-0.73,1.51-1.23c4.66-6.14,7.08-6.1,11.44,0.09c0.45,0.63,1.43,0.89,2.16,1.32
		c0.409-0.32,0.819-0.64,1.239-0.95c-1.409-2.15-2.83-4.31-4.239-6.46c1.79-1.81,3.34-3.98,5.409-5.39
		c11.591-7.93,23.36-15.59,34.931-23.55c5.08-3.5,9.83-7.49,14.729-11.25c0.971,2.19,3.05,4.54,2.74,6.53
		c-2.06,13.34-4.62,26.61-7.04,39.9C151.75,114.42,148.02,115.04,144.03,115.2z M120.72,110c2.9-1.74,5.81-4.89,8.521-4.73
		c2.989,0.17,5.8,3.38,8.97,5.45c-0.82-5.56-4.08-8.64-8.73-8.73C124.68,101.9,121.44,104.82,120.72,110z"/>
	<path fill="#9AD7E4" d="M85.86,98.92c2.021-10.31,4.04-20.63,6.061-30.95c1.729-3.67,4.62-5.23,8.68-5.24
		c9.43-0.02,18.86-0.23,28.29-0.36c0.73,0,1.46,0,2.18,0c2.301,0.19,4.601,0.38,6.91,0.57c-1.12,1.31-2.04,2.91-3.399,3.87
		c-10.12,7.11-20.25,14.22-30.551,21.07C98.13,91.81,91.93,95.26,85.86,98.92z"/>
</g>
<g>
	<path fill="#9AD7E4" d="M231.94,114.01c5.261-6.07,10.511-12.16,15.83-18.17c0.47-0.53,1.47-0.59,2.22-0.87
		c1.641,6.35,3.271,12.7,4.91,19.049C247.25,114.02,239.59,114.01,231.94,114.01z"/>
	<path fill="#9AD7E4" d="M247.65,83.09c-1.859,1.74-3.77,3.44-5.58,5.24c-6.93,6.9-13.81,13.85-20.77,20.73
		c-0.53,0.53-1.46,0.66-2.21,0.97c-0.09-13.59-0.23-27.19-0.19-40.79c0-1.12,1.28-3.2,1.94-3.19c5.1,0.07,10.42-0.27,15.22,1.09
		C243.66,69.29,246.4,75.86,247.65,83.09z"/>
</g>
<g>
	<path fill="#C2E7EE" d="M172.91,113.88c0.55-0.99,0.949-2.1,1.68-2.94c9.899-11.3,19.8-22.6,29.84-33.78
		c1.81-2.01,4.26-3.44,6.42-5.14c-0.04,5.63-0.07,11.26-0.11,16.89c-1.09,0.69-2.399,1.19-3.229,2.11
		c-6.88,7.59-13.67,15.26-20.49,22.91C182.32,113.92,177.62,113.9,172.91,113.88z"/>
	<path fill="#C2E7EE" d="M247.65,83.09c0.78,3.96,1.561,7.92,2.351,11.88c-0.75,0.28-1.75,0.34-2.221,0.87
		c-5.319,6.02-10.569,12.1-15.829,18.17c-4.391-0.05-8.78-0.1-13.171-0.15c0.11-1.28,0.221-2.55,0.33-3.83
		c0.75-0.31,1.681-0.44,2.21-0.97c6.95-6.88,13.841-13.83,20.771-20.73C243.88,86.53,245.78,84.84,247.65,83.09z"/>
	<path fill="#C2E7EE" d="M85.86,98.92c6.07-3.66,12.28-7.11,18.17-11.03c10.301-6.85,20.431-13.96,30.551-21.07
		c1.37-0.96,2.279-2.56,3.399-3.87c6.32,0.06,12.63,0.12,18.95,0.18c-4.9,3.77-9.64,7.76-14.729,11.25
		C130.63,82.34,118.85,90,107.27,97.93c-2.06,1.41-3.62,3.57-5.41,5.39c-1.569-0.39-3.13-1.02-4.729-1.12
		c-5.061-0.32-8.66,3.85-7.37,8.35c-0.62,1.39-1.24,2.79-1.85,4.181c-4.131,0.789-5.54-1.34-4.851-4.98
		C83.75,106.1,84.91,102.53,85.86,98.92z"/>
</g>
<path fill="#FFFFFF" d="M105.73,150.92c-7.149,6.42-15.63,5.18-17.87-2.6c-1.35-4.711,0.57-9.57,4.721-11.9
	c4.279-2.41,8.939-1.41,12.399,2.689c0.53,0.631,0.971,1.341,1.44,2.021C106.19,144.391,105.96,147.66,105.73,150.92z
	 M97.04,151.721c3.8-0.511,6.239-2.441,6.5-6.341c0.239-3.69-2.891-6.78-6.551-6.569c-3.979,0.219-6,2.549-6.05,6.449
	C90.89,149.311,93.36,151.13,97.04,151.721z"/>
<path fill="#034C87" d="M300.079,167.971c-1-9.32-1.85-18.66-3.029-27.951c-1.561-12.33-8.89-19.39-20.79-22.1
	c-2.09-0.47-4.08-1.439-6.17-1.779c-3.601-0.58-5.38-2.571-6.19-6.061C261.36,99.2,258.63,88.36,256,77.5
	c-2.99-12.36-15.801-24.3-29.931-23.7c-9.97,0.43-19.97,0.13-29.949,0.04c-2.75-0.02-5.5-0.45-8.25-0.69
	c-1.971-0.06-3.931-0.12-5.9-0.18c-16.31-0.02-32.63-0.05-48.95-0.07c-1.97,0.1-3.939,0.19-5.92,0.29
	c-7.38,0.24-14.76,0.62-22.14,0.67c-11.28,0.08-14.74,2.89-16.82,14.12c1.25,0,2.5,0,3.76,0c1.73-3.67,4.62-5.23,8.681-5.24
	c9.43-0.02,18.859-0.229,28.29-0.36l0,0c0.729,0,1.46,0,2.18,0c2.3,0.19,4.6,0.38,6.91,0.57c6.319,0.06,12.63,0.12,18.95,0.18
	c0.97,2.19,3.05,4.54,2.739,6.53c-2.06,13.34-4.62,26.61-7.04,39.9c-0.89,4.86-4.609,5.48-8.6,5.64c-1.24,0.94-2.34,2.26-3.73,2.76
	c-4.369,1.56-8.859,2.771-13.29,4.181c-9.13,2.91-16.6,7.629-19.26,17.629c-0.14,0.531-0.87,0.91-1.319,1.36
	c-0.23,3.261-0.46,6.53-0.69,9.79c0.42,3.78,0.91,7.551,1.22,11.34c0.17,2.12,0.04,4.26,0.05,6.391
	c9.551,0.67,11.29,2.17,11.94,10.34l0,0c-0.65,1.99-1.29,3.99-1.94,5.98c2.04,0.199,4.091,0.399,6.131,0.59
	c-0.07-1.86-0.15-3.721-0.221-5.57c1.37-7.051,2.91-14.04,8.12-19.48c7.15-7.46,15.78-10.199,25.86-7.67
	c10.64,2.67,16.66,9.971,18.99,20.301c0.89,3.93,0.55,8.139,0.79,12.58c3.04,0,6.31,0,9.579,0c-0.05-3.33,0.07-6.66-0.189-9.971
	c-1.05-13.471-6.53-24.21-19.061-30.609c-1.01-0.521-2.079-2.121-2.09-3.23c-0.1-9.311,0.03-18.62,0.09-27.92
	c2.58-14.28,5.11-28.56,7.761-42.82c0.67-3.57,3.06-5.35,6.739-5.34c9.131,0.02,18.261,0.08,27.391,0c4.82-0.04,4.1,3.2,3.96,6.2
	c-0.04,5.63-0.07,11.26-0.11,16.89c0.12,8.31,0.24,16.62,0.36,24.93c2.55,0,5.11,0.01,7.66,0.01c0.109-1.28,0.22-2.55,0.33-3.83
	c-0.091-13.6-0.23-27.19-0.19-40.79c0-1.12,1.28-3.2,1.94-3.19c5.1,0.07,10.42-0.27,15.22,1.09c7.59,2.14,10.33,8.72,11.57,15.95
	c0.779,3.96,1.56,7.92,2.35,11.88c1.64,6.35,3.27,12.7,4.91,19.049c0.95,9.351,1.899,18.69,2.84,27.92
	c-25.05,4.961-32.11,28.631-29.76,44.301c3.21,0,6.51,0,9.81,0c0.931-6.16,0.83-12.721,3.021-18.391
	c4.43-11.459,18.09-18.02,29.779-15.51c12.58,2.7,21.2,13.381,21.29,26.439c0.021,2.32-0.109,4.641-0.17,6.961
	c1.42-0.25,2.851-0.5,4.28-0.76c-0.02-3.5,0.01-7-0.09-10.5C295.82,171.32,296.77,168.92,300.079,167.971z"/>
<g>
	<path fill="#666666" d="M141.82,179.38c0.011-6.771,4.28-11.89,9.98-11.979c5.72-0.09,10.83,5.56,10.89,12.029
		c0.061,6.6-4.79,11.78-10.91,11.68C145.65,191,141.81,186.48,141.82,179.38z"/>
	<path fill="#666666" d="M267.07,191.16c-6.109,0.02-10.859-4.85-10.949-11.21c-0.101-6.82,4.449-12.06,10.56-12.171
		c5.97-0.109,10.99,5.301,10.98,11.811C277.64,186.1,273.02,191.141,267.07,191.16z"/>
</g>
<g>
	<path fill="#DE4643" d="M122.57,26.52c7.101-1.42,11.03,0.79,12.23,6.88c1.22,6.18-1.67,10.53-7.85,11.85
		c-9.181-2.41-11.49-9.73-5.62-17.77c0.33-0.33,0.67-0.67,1-1L122.57,26.52z"/>
	<path fill="#DE4643" d="M176.63,27.56c0.32-0.28,0.649-0.56,0.97-0.84c5.72-2.06,9.28-1.08,11.48,3.15
		c2.359,4.55,0.909,11.4-2.95,13.97c-4.79,3.2-11.271-0.13-12.11-6.35c-0.28-2.12,0-4.31,0.021-6.46
		c0.399-0.61,0.79-1.23,1.189-1.84C175.69,28.65,176.16,28.11,176.63,27.56z"/>
</g>
<g>
	<path d="M198.4,132.92c-3.59-2.061-5.739,0.68-7.8,4.49c0.13,4.609,1.271,8.34,5.91,7.67c2.11-0.301,5.21-3.1,5.39-5
		C202.13,137.75,200.41,134.07,198.4,132.92z M199.06,138.471c-0.33,1.569-1.43,3.639-2.88,4.299c-2.13-0.529-2.22-2.51-2.26-3.799
		c-0.04-1.441,1.17-2.91,1.84-4.371c0.49,0.01,0.99,0.01,1.479,0.021C197.9,135.92,199.29,137.37,199.06,138.471z"/>
	<path d="M231.22,144.561c0-3.931,0-7.74,0-11.621c3.01,0,5.85,0,8.68,0c0.04,0.451,0.07,0.9,0.101,1.351
		c-1.91,0.351-3.82,0.7-5.74,1.05c-0.09,0.311-0.17,0.631-0.26,0.939c1.7,0.681,3.399,1.361,6.3,2.521
		c-2.85,0.879-4.53,1.399-6.21,1.92c-0.05,0.379-0.101,0.76-0.15,1.149c2.05,0.53,4.101,1.06,6.15,1.59
		c-0.021,0.37-0.04,0.74-0.07,1.11C237.17,144.561,234.31,144.561,231.22,144.561z"/>
	<path d="M204.46,127.12c-0.99,0-1.971-0.011-2.96,0c-2.16,0.021-4.891,0.25-4.391-2.88c0.19-1.19,2.591-2.61,4.16-2.86
		c2.72-0.44,5.62-0.34,8.351,0.12c1.189,0.2,2.14,1.85,3.21,2.85c-1.141,0.92-2.15,2.25-3.45,2.65c-1.5,0.46-3.26,0.109-4.9,0.109
		C204.46,127.109,204.46,127.12,204.46,127.12z"/>
	<path d="M229.04,135.4c-3.59-0.82-6.74,1.029-6.13,5.029c0.27,1.73,3.359,1.721,5.869,3.69c-0.609,0.229-2.069,1.28-3.51,1.26
		c-3.42-0.04-6.09-2.239-5.78-5.46c0.24-2.5,1.23-5.93,4.16-7.02c1.21-0.451,3.65,0.17,5.561,0.34
		C229.16,133.971,229.1,134.689,229.04,135.4z"/>
	<path d="M204.02,145.42c0.29-4.96,0.53-9.029,0.771-13.109c0.689,0,1.39,0,2.08-0.011c0.189,3.3,0.38,6.601,0.58,10.22
		c1.689,0.25,3.369,0.51,5.05,0.76c0.029,0.521,0.06,1.041,0.09,1.561C210,145.02,207.42,145.189,204.02,145.42z"/>
	<path d="M217.15,131.76c0.061,3.57,0.21,7.15,0.101,10.711c-0.03,0.959-0.9,1.889-1.38,2.84c-0.54-0.891-1.5-1.761-1.551-2.681
		c-0.18-3.56-0.06-7.14-0.06-10.72C215.22,131.859,216.19,131.811,217.15,131.76z"/>
	<path d="M84.51,155.84c0.27,4.71-4.66,8.37-11.49,9.08c-6.84,0.71-11.87-1.84-12.68-6.439
		C69.07,165.471,76.91,162.141,84.51,155.84z"/>
	<path d="M120.72,110c0.72-5.19,3.96-8.1,8.76-8.01c4.65,0.09,7.91,3.17,8.73,8.73c-3.17-2.07-5.98-5.28-8.971-5.45
		C126.53,105.11,123.62,108.26,120.72,110z"/>
	<path d="M89.77,110.56c-1.29-4.51,2.311-8.67,7.37-8.35c1.59,0.1,3.15,0.73,4.73,1.12c1.409,2.15,2.83,4.31,4.239,6.46
		c-0.409,0.32-0.819,0.64-1.239,0.95c-0.73-0.43-1.721-0.69-2.16-1.32c-4.351-6.19-6.771-6.23-11.44-0.09
		C90.89,109.83,90.27,110.16,89.77,110.56z"/>
	<path d="M97.04,151.721c-3.681-0.591-6.16-2.41-6.101-6.471c0.051-3.9,2.07-6.23,6.051-6.45c3.659-0.2,6.789,2.89,6.55,6.57
		C103.29,149.279,100.84,151.21,97.04,151.721z"/>
	<path d="M180.42,132.73c0,4.42,0,8.379,0,12.51c1.26-0.35,1.24,0.5,2.56-0.561c0.94-0.75-0.85-3.689,0.38-4.84
		c1.03-0.96,2.48,1.6,6.45-2.09C188.26,131.891,184.17,132.49,180.42,132.73z M184.98,137.609c-1.08,0-1.96-0.649-1.96-1.449
		c0-0.801,0.88-1.45,1.96-1.45s1.96,0.649,1.96,1.45C186.94,136.96,186.06,137.609,184.98,137.609z"/>
</g>
</svg>
