<?xml version="1.0" encoding="utf-8"?>
<!-- Generator: Adobe Illustrator 16.0.0, SVG Export Plug-In . SVG Version: 6.00 Build 0)  -->
<!DOCTYPE svg PUBLIC "-//W3C//DTD SVG 1.1//EN" "http://www.w3.org/Graphics/SVG/1.1/DTD/svg11.dtd">
<svg version="1.1" id="Layer_1" xmlns="http://www.w3.org/2000/svg" xmlns:xlink="http://www.w3.org/1999/xlink" x="0px" y="0px"
	 width="630px" height="648px" viewBox="0 0 630 648" enable-background="new 0 0 630 648" xml:space="preserve">
<path fill="#E6A032" d="M534.068,474.276c-0.76-0.866-1.453-1.804-2.292-2.586c-1.612-1.504-1.812-5.295-4.438-4.578
	c-2.312,0.63-1.603,4.079-2.027,6.251c-1.759,8.967-3.746,17.852-7.146,26.365c-9.446,1.873-18.908,3.677-28.342,5.625
	c-37.366,7.721-75.146,12.638-113.187,14.837c-28.561,1.651-57.158,2.901-85.852,1.62c-28.108-1.255-56.145-2.688-84.098-6.135
	c-30.085-3.709-59.902-8.713-89.417-15.593c-1.714-0.398-3.569-1.444-4.793,0.884c-4.724-11.462-6.714-23.618-9.205-36.41
	c-2.568,3.468-4.853,6.546-7.134,9.623c-12.395-5.701-24.16-12.567-35.756-19.697c-10.742-6.604-21.424-13.342-30.923-21.736
	c3.22-12.11,8.54-23.284,15.155-33.876c0.556,0.359,1.164,0.658,1.655,1.093c15.409,13.598,32.789,24.211,50.966,33.6
	c1.366,0.706,3.373,2.857,4.416-0.152c1.234-3.561,3.7-2.649,6.087-2.18c4.056,0.801,8.079,1.741,12.116,2.623
	c0.766,0.04,1.526,0.08,2.29,0.12c3.402,1.473,6.973,2.124,10.665,2.146c0.724,0.585,1.534,0.721,2.421,0.492
	c0.908,0.378,1.784,0.914,2.73,1.111c22.474,4.676,45.166,8.079,67.918,10.966c25.088,3.182,50.36,4.392,75.604,5.726
	c6.762,0.357,13.595,1.038,20.368-0.199c6.745,1.057,13.495,0.993,20.25,0.103c17.28,1.155,34.48-0.019,51.665-1.745
	c1.133,0.374,2.244,0.378,3.323-0.186c1.141,0.12,2.299,0.433,3.42,0.331c15.69-1.426,31.424-2.553,47.059-4.462
	c20.082-2.455,40.119-5.35,59.963-9.393c12.162-2.478,24.441-4.452,36.303-8.266c0.851,0.261,1.644,0.176,2.354-0.396
	c2.828,6.487,6.799,3.724,10.732,1.333c0.852-0.517,1.714-1.02,2.595-1.482c16.521-8.718,31.746-19.356,46.138-31.224
	c6.541,10.934,11.813,22.432,15.37,34.688c-1.545,0.943-3.183,1.765-4.623,2.847C576.863,451.045,555.965,463.479,534.068,474.276z
	 M398.761,508.793c-0.479-1.716-1.436-3.317-3.534-3.266c-2.155,0.054-3.838,1.263-3.783,3.646c0.047,2.03,1.351,3.428,3.428,3.445
	C397.14,512.643,398.421,511.252,398.761,508.793z M411.812,459.161c-2.073,0.33-3.409,1.521-3.434,3.594
	c-0.029,2.447,1.634,3.625,3.891,3.456c2.083-0.156,3.299-1.704,3.184-3.747C415.336,460.387,413.916,459.281,411.812,459.161z
	 M208.854,489.745c-2.118,0.384-3.595,1.435-3.436,3.604c0.146,2.026,1.487,3.396,3.595,3.342c2.074-0.054,3.502-1.352,3.333-3.478
	C212.189,491.24,210.825,490.011,208.854,489.745z M192.209,480.553c2.018-0.239,3.372-1.318,3.458-3.4
	c0.085-2.08-1.196-3.557-3.187-3.654c-2.201-0.106-3.778,1.229-3.758,3.588C188.743,479.183,190.184,480.224,192.209,480.553z
	 M344.247,461.181c-1.897,0.271-3.146,1.368-3.185,3.545c-0.037,2.19,1.252,3.57,3.272,3.627c2.294,0.063,3.676-1.42,3.618-3.797
	C347.906,462.372,346.576,461.316,344.247,461.181z M175.585,488.218c-1.813,0.404-3.214,1.484-3.212,3.6
	c0.003,2.169,1.424,3.349,3.496,3.329c2.119-0.021,3.396-1.37,3.339-3.478C179.153,489.607,177.933,488.362,175.585,488.218z
	 M259.563,482.948c1.954-0.206,3.334-1.211,3.363-3.418c0.029-2.178-1.217-3.396-3.365-3.496c-2.097-0.097-3.707,0.899-3.785,3.056
	C255.695,481.339,257.003,482.783,259.563,482.948z M146.863,458.52c-0.188-2.008-1.268-3.371-3.412-3.339
	c-2.402,0.035-3.594,1.55-3.411,3.879c0.162,2.078,1.438,3.375,3.588,3.173C145.666,462.038,146.866,460.781,146.863,458.52z
	 M313.985,495.175c-0.051-2.118-1.377-3.306-3.395-3.436c-2.122-0.137-3.43,1.148-3.556,3.28c-0.143,2.403,1.12,3.804,3.54,3.764
	C312.734,498.75,313.82,497.405,313.985,495.175z M448.428,460.402c-0.558-2.007-1.732-3.389-3.892-3.044
	c-2.01,0.32-3.282,1.739-3.063,3.865c0.203,1.958,1.62,2.818,3.529,2.703C447.176,463.795,448.195,462.461,448.428,460.402z
	 M212.492,462.439c-0.466-1.992-1.561-3.317-3.723-3.341c-2.184-0.024-3.562,1.143-3.464,3.318c0.092,2.063,1.455,3.367,3.579,3.39
	C211.031,465.825,212.174,464.519,212.492,462.439z M398.613,478.416c-0.489-1.744-1.451-3.235-3.623-3.135
	c-2.069,0.1-3.424,1.418-3.413,3.454c0.012,2.048,1.247,3.297,3.483,3.222C397.245,481.882,398.244,480.59,398.613,478.416z
	 M228.97,508.418c-0.351-1.781-1.688-2.938-3.78-2.549c-1.912,0.355-4.192,1.052-3.789,3.634c0.28,1.785,1.499,3.399,3.792,3.042
	C227.3,512.214,229.029,511.368,228.97,508.418z M344.47,491.354c-1.913,0.46-3.336,1.42-3.395,3.575
	c-0.063,2.449,1.395,3.689,3.658,3.557c2.012-0.12,3.283-1.425,3.158-3.605C347.772,492.769,346.468,491.711,344.47,491.354z
	 M431.8,477.115c-0.138-2.087-1.206-3.574-3.264-3.672c-2.011-0.094-3.395,1.078-3.5,3.298c-0.104,2.206,1.078,3.494,3.149,3.641
	C430.324,480.531,431.442,479.156,431.8,477.115z M162.929,475.496c-0.025-2.242-1.173-3.648-3.188-3.799
	c-2.094-0.152-3.374,1.246-3.462,3.322c-0.087,2.098,1.149,3.461,3.213,3.629C161.661,478.824,162.776,477.526,162.929,475.496z
	 M276.505,498.576c1.752-0.396,3.273-1.279,3.306-3.481c0.028-2.146-1.281-3.522-3.314-3.586c-2.012-0.063-3.405,1.085-3.457,3.353
	C272.986,497.107,274.302,498.107,276.505,498.576z M130.881,473.004c-0.222-1.688-1.32-3.091-3.436-3.043
	c-2.07,0.046-3.357,1.347-3.301,3.521c0.059,2.1,1.12,3.447,3.368,3.381C129.686,476.801,130.775,475.555,130.881,473.004z
	 M378.284,460.599c-2.017,0.389-3.297,1.428-3.256,3.624c0.04,2.17,1.163,3.479,3.339,3.309c2.007-0.156,3.364-1.423,3.348-3.543
	C381.696,461.854,380.363,460.783,378.284,460.599z M327.384,506.902c-1.963,0.141-3.312,1.115-3.343,3.33
	c-0.03,2.117,1.028,3.479,3.213,3.57c2.385,0.103,3.719-1.149,3.713-3.563C330.961,508.017,329.629,507.026,327.384,506.902z
	 M293.525,513.853c2.104-0.166,3.387-1.271,3.4-3.423c0.017-2.422-1.36-3.618-3.759-3.488c-2.201,0.119-3.262,1.446-3.17,3.575
	C290.089,512.677,291.386,513.735,293.525,513.853z M364.907,509.951c-0.146-1.937-1.286-3.344-3.34-3.402
	c-2.045-0.062-3.354,1.231-3.506,3.37c-0.157,2.229,1.086,3.514,3.185,3.532C363.269,513.472,364.571,512.24,364.907,509.951z
	 M378.151,497.959c2.091-0.104,3.528-1.021,3.641-3.194c0.12-2.362-1.132-3.712-3.527-3.706c-2.178,0.005-3.29,1.286-3.325,3.406
	C374.902,496.602,376.007,497.801,378.151,497.959z M242.281,490.963c-2.116,0.164-3.314,1.285-3.24,3.464
	c0.071,2.136,1.313,3.367,3.429,3.37c2.344,0.002,3.703-1.238,3.504-3.696C245.795,491.921,244.388,491.015,242.281,490.963z
	 M411.783,496.865c2.126-0.097,3.501-1.243,3.569-3.306c0.068-2.057-1.192-3.382-3.343-3.487c-2.21-0.106-3.467,1.216-3.547,3.25
	C408.385,495.377,409.639,496.644,411.783,496.865z M111.955,460.683c2.179-0.253,3.108-1.575,3.014-3.691
	c-0.087-1.914-1.163-3.196-3.035-3.209c-2.041-0.011-3.467,1.213-3.419,3.382C108.56,459.236,109.819,460.434,111.955,460.683z
	 M293.368,483.431c1.967-0.299,3.414-1.209,3.451-3.396c0.038-2.161-1.32-3.432-3.306-3.506c-1.988-0.074-3.436,1.021-3.423,3.28
	C290.105,481.946,291.323,483.062,293.368,483.431z M496.889,473.356c-0.193-1.922-1.221-3.233-3.447-3.188
	c-1.921,0.036-3.136,1.101-3.253,3.043c-0.128,2.115,0.845,3.555,3.105,3.627C495.465,476.906,496.638,475.703,496.889,473.356z
	 M279.983,464.709c-0.118-2.156-1.175-3.472-3.362-3.51c-2.139-0.038-3.476,1.083-3.533,3.281c-0.061,2.181,1.169,3.416,3.326,3.483
	C278.573,468.031,279.762,466.846,279.983,464.709z M477.343,493.487c2.046-0.298,3.375-1.406,3.361-3.57
	c-0.011-1.926-1.213-3.222-3.074-3.269c-2.359-0.061-3.665,1.366-3.606,3.777C474.073,492.502,475.515,493.212,477.343,493.487z
	 M245.943,463.698c-0.361-2.077-1.653-3.313-3.75-3.172c-1.816,0.122-3.114,1.205-3.022,3.274c0.097,2.165,1.341,3.522,3.437,3.509
	C244.707,467.296,245.91,465.947,245.943,463.698z M228.948,478.31c-0.216-2.098-1.408-3.267-3.595-3.16
	c-2.222,0.109-3.294,1.431-3.108,3.622c0.162,1.968,1.418,2.97,3.322,2.989C227.757,481.781,228.943,480.64,228.948,478.31z
	 M364.959,479.769c0.061-1.847-0.781-3.304-2.942-3.605c-2.056-0.285-3.634,0.521-3.965,2.71c-0.343,2.271,0.526,3.921,3.045,4.116
	C363.199,483.155,364.535,482.162,364.959,479.769z M448.484,491.409c-0.428-1.93-1.523-3.292-3.724-3.136
	c-1.863,0.133-3.199,1.318-3.275,3.178c-0.087,2.097,1.087,3.446,3.354,3.455C447.079,494.916,448.069,493.533,448.484,491.409z
	 M262.845,509.477c-0.389-1.637-1.483-3.089-3.625-2.977c-2.103,0.107-3.368,1.407-3.172,3.656c0.17,1.935,1.343,3.149,3.261,3.088
	C261.321,513.182,262.795,512.174,262.845,509.477z M512.544,488.266c-0.499-2.079-1.724-3.398-3.875-3.095
	c-2.028,0.283-3.376,1.665-3.092,3.814c0.247,1.857,1.632,2.91,3.542,2.823C511.306,491.713,512.305,490.306,512.544,488.266z
	 M179.243,460.579c-0.392-2.019-1.396-3.471-3.581-3.327c-2.098,0.135-3.337,1.49-3.176,3.593c0.143,1.804,1.258,3.03,3.243,2.989
	C177.837,463.788,179.066,462.718,179.243,460.579z M310.517,468.513c2-0.431,3.425-1.417,3.341-3.656
	c-0.072-1.934-1.261-3.174-3.104-3.28c-2.101-0.121-3.483,1.098-3.58,3.271C307.072,467.073,308.572,468.037,310.517,468.513z
	 M464.543,475.019c-0.455-1.786-1.354-3.416-3.543-3.224c-2.097,0.184-3.081,1.73-3.011,3.792c0.068,1.938,1.223,3.104,3.127,3.036
	C463.194,478.551,464.323,477.23,464.543,475.019z M330.956,479.821c-0.168-2.106-1.46-3.39-3.496-3.338
	c-2.032,0.052-3.372,1.388-3.342,3.555c0.031,2.178,1.382,3.458,3.459,3.37C329.58,483.323,330.922,482.108,330.956,479.821z
	 M146.892,489.656c-0.313-1.678-1.363-3.181-3.441-3.125c-2.027,0.056-3.303,1.438-3.306,3.544c-0.004,2.152,1.338,3.438,3.38,3.404
	C145.562,493.448,146.76,492.117,146.892,489.656z M512.698,457.388c-0.138-1.966-1.079-3.208-3.063-3.296
	c-2.203-0.1-3.459,1.066-3.493,3.283c-0.03,1.9,0.869,3.286,2.896,3.328C511.197,460.75,512.31,459.383,512.698,457.388z
	 M480.842,458.548c-0.415-1.939-1.449-3.439-3.635-3.188c-2.021,0.231-3.273,1.544-3.104,3.75c0.155,2.012,1.443,2.906,3.333,2.883
	C479.6,461.967,480.76,460.797,480.842,458.548z"/>
<path fill="#E6A032" d="M67.559,364.778c6.771-10.371,15.214-19.301,24.021-27.923c5.666,6.643,12.835,11.578,19.438,17.155
	c2.356,1.99,3.286,1.534,4.222-1.568c4.167-13.816,9.958-27.061,14.816-40.637c1.617-4.52,3.706-6.136,8.775-4.813
	c24.479,6.378,49.343,10.791,74.394,14.365c23.919,3.415,47.933,5.473,72.04,6.275c30.641,1.021,61.28,0.688,91.868-1.828
	c20.232-1.665,40.361-4.168,60.374-7.558c18.037-3.058,36.043-6.354,53.694-11.219c5.161-1.422,7.451,0.149,9.067,5.061
	c4.368,13.268,10.415,25.954,13.818,39.566c0.813,3.245,2.25,4.648,5.396,1.989c6.482-5.475,13.366-10.489,19.089-16.826
	c9.188,8.511,17.157,18.075,24.463,28.217c-10.891,9.256-21.585,18.745-33.493,26.737c-3.133,2.104-4.33,1.3-4.933-2.169
	c-0.793-4.582-2.175-9.077-2.747-13.679c-0.582-4.678-2.979-5.259-6.888-4.243c-19.325,5.025-38.902,8.753-58.585,12.158
	c-41.904,7.248-84.144,10.409-126.57,11.331c-32.797,0.714-65.551-0.731-98.21-3.826c-18.869-1.788-37.659-4.308-56.372-7.334
	c-20.523-3.319-40.906-7.388-61.017-12.711c-3.499-0.927-4.93,0.247-5.593,3.479c-1.034,5.049-2.303,10.048-3.294,15.102
	c-0.613,3.124-1.992,4.243-4.733,2.188C89.159,383.497,77.663,374.979,67.559,364.778z M398.813,342.524
	c-0.501-1.76-1.521-3.251-3.65-3.17c-2.267,0.086-3.737,1.483-3.68,3.779c0.054,2.054,1.414,3.384,3.531,3.31
	C397.281,346.364,398.566,344.996,398.813,342.524z M460.885,367.434c-2.14,0.401-3.719,1.543-3.539,3.888
	c0.154,2.012,1.584,3.327,3.635,3.28c2.29-0.053,3.712-1.479,3.55-3.803C464.389,368.778,463,367.639,460.885,367.434z
	 M159.771,337.36c-2.007,0.395-3.438,1.501-3.37,3.622c0.075,2.319,1.578,3.727,3.885,3.561c2.063-0.149,3.335-1.58,3.066-3.735
	C163.106,338.836,161.965,337.481,159.771,337.36z M464.484,340.021c-0.396-1.717-1.062-3.472-3.343-3.373
	c-2.163,0.096-3.902,1.16-3.801,3.604c0.087,2.065,1.48,3.342,3.558,3.294C462.924,343.5,464.198,342.295,464.484,340.021z
	 M229.496,343.242c-0.394-2.119-1.526-3.513-3.635-3.487c-2.037,0.021-3.552,1.173-3.488,3.358c0.063,2.289,1.439,3.755,3.805,3.637
	C228.268,346.645,229.374,345.266,229.496,343.242z M477.357,358.641c1.964-0.375,3.399-1.445,3.372-3.554
	c-0.031-2.308-1.42-3.749-3.771-3.504c-1.987,0.207-3.349,1.557-3.173,3.688C473.949,357.288,475.18,358.53,477.357,358.641z
	 M179.763,357.3c-0.19-2.08-1.269-3.594-3.315-3.689c-2.002-0.094-3.519,1.106-3.603,3.282c-0.084,2.156,1.313,3.437,3.303,3.646
	C178.321,360.765,179.389,359.316,179.763,357.3z M143.749,359.354c2.02-0.082,3.459-1.038,3.536-3.201
	c0.069-2.029-1.028-3.587-3.101-3.771c-2.296-0.205-3.782,1.136-3.882,3.461C140.212,358.016,141.702,358.997,143.749,359.354z
	 M344.344,362.589c2.037-0.317,3.418-1.375,3.497-3.513c0.078-2.145-1.199-3.573-3.245-3.652c-2.251-0.086-3.813,1.229-3.771,3.652
	C340.862,361.238,342.35,362.225,344.344,362.589z M364.978,374.179c-0.036-2.229-1.272-3.584-3.305-3.684
	c-2.233-0.11-3.901,1.133-3.914,3.547c-0.014,2.164,1.461,3.362,3.537,3.362C363.323,377.406,364.726,376.333,364.978,374.179z
	 M313.914,358.685c-0.33-1.745-1.396-3.198-3.506-3.104c-1.961,0.087-3.498,1.306-3.563,3.39c-0.077,2.386,1.559,3.672,3.769,3.6
	C312.648,362.503,313.772,361.054,313.914,358.685z M394.973,376.883c2.249-0.193,3.688-1.37,3.703-3.709
	c0.012-1.923-1.238-3-3.131-3.115c-2.353-0.143-3.899,1.146-4.049,3.369C391.36,375.509,392.868,376.615,394.973,376.883z
	 M296.886,374.185c-0.138-2.105-1.379-3.173-3.521-3.172c-2.134,0.001-3.587,1.117-3.56,3.251c0.027,2.051,1.358,3.417,3.521,3.336
	C295.326,377.524,296.782,376.561,296.886,374.185z M143.531,321.547c-1.975,0.415-3.385,1.446-3.333,3.608
	c0.052,2.115,1.383,3.407,3.416,3.491c2.187,0.091,3.286-1.313,3.25-3.456C146.829,323.06,145.536,321.958,143.531,321.547z
	 M127.196,336.599c-1.849,0.48-3.133,1.677-2.93,3.793c0.198,2.057,1.564,3.327,3.66,3.244c2.19-0.087,3.214-1.518,3.024-3.664
	C130.765,337.85,129.435,336.813,127.196,336.599z M411.656,360.914c2.247-0.023,3.616-1.214,3.735-3.287
	c0.124-2.155-1.296-3.423-3.422-3.458c-2.134-0.034-3.483,1.267-3.646,3.348C408.149,359.769,409.548,360.807,411.656,360.914z
	 M212.937,357.987c-0.192-1.783-1.22-3.25-3.267-3.434c-2.032-0.183-3.493,0.859-3.667,3.066c-0.188,2.376,1.059,3.864,3.356,3.953
	C211.401,361.654,212.654,360.355,212.937,357.987z M364.892,343.739c-0.04-2.357-1.548-3.278-3.54-3.415
	c-2.211-0.148-3.508,1.223-3.587,3.297c-0.082,2.172,1.303,3.323,3.483,3.325C363.391,346.948,364.688,345.924,364.892,343.739z
	 M259.726,370.54c-2.04,0.16-3.479,1.08-3.714,3.217c-0.237,2.163,0.931,3.559,2.998,3.771c2.23,0.229,3.88-0.754,3.954-3.276
	C263.028,372.073,261.699,371.008,259.726,370.54z M242.304,355.239c-1.637,0.51-3.127,1.482-2.996,3.65
	c0.131,2.165,1.565,3.174,3.659,3.073c2.116-0.104,3.455-1.322,3.248-3.447C246.021,356.531,244.692,355.323,242.304,355.239z
	 M381.831,358.247c-0.283-2.096-1.488-3.226-3.672-3.109c-2.224,0.117-3.258,1.427-3.185,3.596c0.077,2.269,1.392,3.304,3.562,3.152
	C380.689,361.738,381.801,360.484,381.831,358.247z M327.406,340.418c-2.021,0.4-3.515,1.293-3.4,3.591
	c0.104,2.172,1.421,3.477,3.495,3.428c2.049-0.048,3.402-1.354,3.385-3.543C330.864,341.662,329.37,340.747,327.406,340.418z
	 M296.905,343.801c-0.285-2.103-1.577-3.323-3.646-3.234c-2.014,0.087-3.48,1.169-3.274,3.492c0.19,2.13,1.504,3.409,3.576,3.333
	C295.614,347.316,296.854,346.028,296.905,343.801z M431.783,341.167c-0.334-2.21-1.604-3.195-3.733-3.03
	c-2.147,0.166-3.294,1.558-3.351,3.535c-0.06,2.123,1.275,3.327,3.429,3.242C430.478,344.822,431.549,343.339,431.783,341.167z
	 M477.45,320.976c-2.075,0.026-3.616,0.939-3.68,3.089c-0.057,1.968,0.989,3.563,3.187,3.628c2.057,0.063,3.497-1.099,3.668-3.185
	C480.798,322.399,479.653,321.133,477.45,320.976z M444.785,353.01c-2.253,0.099-3.525,1.239-3.552,3.415
	c-0.024,2.303,1.534,3.272,3.586,3.246c1.912-0.026,3.076-1.191,3.158-3.167C448.071,354.285,446.983,353.08,444.785,353.01z
	 M428.312,369.006c-1.957,0.142-3.245,1.167-3.252,3.419c-0.006,1.995,1.1,3.18,3.028,3.253c2.07,0.078,3.59-0.933,3.711-3.166
	C431.918,370.315,430.732,369.119,428.312,369.006z M229.293,373.926c-0.188-1.763-0.897-3.427-3.098-3.612
	c-2.096-0.177-3.586,0.993-3.723,3.104c-0.115,1.77,0.799,3.211,2.787,3.472C227.365,377.164,228.773,376.315,229.293,373.926z
	 M324.005,374.642c0.149,1.861,1.231,3.178,3.398,3.039c1.952-0.125,3.475-1.127,3.499-3.346c0.027-2.222-1.305-3.27-3.417-3.27
	C325.35,371.067,324.189,372.229,324.005,374.642z M496.962,338.853c-0.292-1.997-1.529-3.063-3.678-2.904
	c-2.145,0.158-3.313,1.385-3.188,3.569c0.105,1.868,1.104,3.204,3.049,3.226C495.496,342.766,496.653,341.28,496.962,338.853z
	 M262.896,344.188c0.094-2.531-1.21-3.708-3.221-3.774c-1.917-0.064-3.607,0.77-3.646,3.063c-0.032,2.106,1.137,3.365,3.271,3.481
	C261.408,347.071,262.708,346.099,262.896,344.188z M195.948,341.779c-0.291-1.689-1.383-2.916-3.611-2.807
	c-1.973,0.096-3.169,1.172-3.082,3.141c0.104,2.354,1.532,3.701,3.9,3.532C195.126,345.505,195.966,344.111,195.948,341.779z
	 M193.026,376.071c1.571-0.178,2.91-0.973,2.959-3.002c0.053-2.156-1.247-3.522-3.246-3.667c-2.074-0.146-3.501,1.221-3.511,3.313
	C189.219,374.826,190.602,375.954,193.026,376.071z M279.951,358.971c-0.225-2.217-1.596-3.15-3.686-3.092
	c-1.891,0.052-3.158,1.002-3.227,3.004c-0.078,2.263,1.301,3.333,3.387,3.378C278.538,362.307,279.825,361.218,279.951,358.971z"/>
<path fill="#E6A032" d="M454.842,136.614c-10.152-1.618-20.296-3.292-30.457-4.848c-16.417-2.514-32.919-4.45-49.477-5.604
	c-25.384-1.771-50.816-2.68-76.27-2.021c-37.073,0.958-73.942,4.158-110.512,10.509c-4.076,0.708-8.23,0.958-12.353,1.421
	c2.491-5.01,4.983-10.021,7.476-15.029c2.949-2.523,5.087-5.648,6.755-9.121c0.322-0.512,0.399-0.621,0.757-0.96l0.138-0.199
	c0.365-0.915,0.646-1.056,1.268-1.763c0.246-0.267,0.492-0.53,0.735-0.795c9.077-9.063,18.346-17.918,28.365-25.947
	c4.925-2.291,9.369-5.366,13.799-8.463c12.038-5.171,23.9-10.802,36.799-13.677c41.225-9.192,81.201-6.371,119.553,12.317
	c1.179,0.574,2.428,1.003,3.644,1.5c4.29,3.236,8.786,6.134,13.726,8.297c8.512,7.59,17.844,14.278,25.188,23.148
	c1.104,1.336,2.048,3.121,4.198,3.178c0.206,0.448,0.413,0.897,0.619,1.346c0.583,0.881,0.771,1.114,1.21,1.969
	c1.614,3.47,3.837,6.446,7.012,8.653c0.604,4.192,3.826,7.048,5.472,10.708C453.285,133.019,454.057,134.819,454.842,136.614z
	 M263.658,77.629c0.353-1.397,0.042-3.314-1.388-3.022c-3.558,0.728-2.696,4.338-3.556,6.819c-0.474,1.37-0.479,3.317,1.149,3.027
	C263.452,83.814,262.559,80.07,263.658,77.629z M333.03,70.286c1.354,1.826-0.348,5.679,3.399,6.481
	c1.438,0.312,1.794-1.396,1.468-2.498c-0.746-2.523-0.201-5.958-3.484-6.939C333.064,66.927,333.029,68.755,333.03,70.286z
	 M233.318,91.007c-1.312,0.09-2.051,0.579-1.829,1.551c0.552,2.404,1.187,4.799,1.979,7.132c0.25,0.737,1.188,1.251,2.074,0.756
	c2.179-1.216,0.749-3,0.401-4.396C235.474,94.153,235.756,91.606,233.318,91.007z M213.976,112.555
	c-0.08-1.533,0.256-3.632-1.583-3.16c-2.869,0.737-2.491,3.938-3.239,6.164c-0.388,1.151-0.438,3.409,1.207,3.127
	C213.694,118.113,212.689,114.427,213.976,112.555z M398.576,94.171c-0.966-0.007-1.79,0.405-2.028,1.2
	c-0.745,2.472-2.145,4.863-1.395,7.585c0.169,0.613,0.896,1.09,1.587,0.778c2.791-1.251,2.033-4.228,2.946-6.388
	C400.198,96.143,400.294,94.711,398.576,94.171z M276.987,94.569c-0.048-1.55,0.319-3.646-1.42-3.278
	c-3.294,0.694-2.273,4.252-3.258,6.497c-0.507,1.158-0.448,3.206,1.332,2.888C277.108,100.055,275.555,96.281,276.987,94.569z
	 M372.412,80.644c1.098,2.333,0.178,5.845,3.58,6.896c1.022,0.314,1.885-0.946,1.521-1.964c-0.896-2.521-0.427-5.871-3.35-7.221
	C372.912,77.777,372.338,79.279,372.412,80.644z M298.502,106.904c-1.236-1.94,0.612-5.896-3.22-6.548
	c-1.608-0.271-1.549,1.96-1.243,3.138c0.574,2.229-0.018,5.297,2.98,6.115C298.339,109.97,298.789,108.506,298.502,106.904z
	 M293.982,72.247c1.476,1.524-0.274,5.047,2.797,6.269c1.294,0.515,2.231-0.932,1.751-2.135c-0.969-2.425,0.406-6.039-3.021-7.148
	C294.079,68.771,294.023,70.53,293.982,72.247z M251.293,104.865c-0.479,0.618-1.103,1.062-1.172,1.576
	c-0.367,2.677,0.64,5.114,1.643,7.502c0.16,0.386,1.2,0.76,1.64,0.601c1.549-0.56,1.737-1.875,1.173-3.225
	C253.678,109.188,253.855,106.479,251.293,104.865z M331.905,109.381c0.127,1.34-0.199,3.345,1.116,3.023
	c3.685-0.894,2.58-4.75,3.672-7.271c0.438-1.009-0.271-2.228-1.425-1.931C331.905,104.067,332.929,107.417,331.905,109.381z
	 M376.073,107.244c-0.061-1.438,0.252-3.53-1.6-3.03c-3.175,0.856-2.261,4.394-3.278,6.687c-0.48,1.088,0.058,2.781,1.511,2.354
	C375.63,112.394,375.115,109.255,376.073,107.244z M414.851,115.893c0.684,1.55-1.214,4.689,1.833,4.623
	c2.29-0.05,1.352-2.984,1.382-4.631c0.029-1.614,1.067-4.453-1.46-4.501C413.991,111.334,415.427,114.246,414.851,115.893z
	 M354.334,90.681c-0.972-1.271,1.113-4.431-2.087-4.374c-2.2,0.039-1.326,2.631-1.282,4.1c0.054,1.824-0.772,4.855,1.73,4.947
	C355.236,95.446,353.691,92.487,354.334,90.681z M320.313,89.465c-0.633-1.504,0.706-4.356-1.599-4.548
	c-2.688-0.225-1.687,2.641-1.691,4.188c-0.007,1.62-1.063,4.374,1.314,4.604C321.181,93.981,319.67,91.056,320.313,89.465z"/>
<path fill="#E6A032" d="M421.116,603.842c-4.999,0.759-9.394,3.25-14.057,4.959c-38.863,14.247-78.925,18.446-119.984,14.533
	c-25.384-2.422-49.875-8.362-73.41-18.219c-1.507-0.631-3.179-0.873-4.771-1.297c-2.214-2.397-5.229-3.501-8.052-4.885
	c-16.563-8.129-31.178-19.087-45.101-31.039c-1.173-1.006-3.219-2.15-2.278-3.992c0.907-1.78,2.949-0.803,4.502-0.525
	c11.947,2.116,23.89,4.202,35.911,5.935c32.313,4.654,64.788,7.353,97.391,8.387c25.474,0.811,50.938,0.073,76.393-1.479
	c31.747-1.938,63.243-5.756,94.604-10.971c4.854-0.807,9.704-2.906,15.539-1.819c-10.474,11.436-22.05,20.275-34.68,27.783
	C435.854,595.53,428.457,599.639,421.116,603.842z M366.79,601.108c-0.125-2.129-1.229-3.581-3.307-3.732
	c-2.329-0.171-3.883,1.192-3.916,3.559c-0.029,2.099,1.298,3.488,3.448,3.48C365.072,604.407,366.383,603.189,366.79,601.108z
	 M349.719,586.825c-0.392-1.891-1.424-3.354-3.529-3.389c-2.277-0.038-3.804,1.254-3.817,3.599
	c-0.013,2.087,1.351,3.433,3.407,3.482C348.051,590.573,349.381,589.216,349.719,586.825z M276.964,590.473
	c2.029-0.235,3.6-1.188,3.707-3.266c0.119-2.284-1.357-3.713-3.59-3.84c-2.061-0.116-3.529,1.174-3.64,3.203
	C273.324,588.815,274.699,590.17,276.964,590.473z M380.089,589.492c2.21-0.226,3.707-1.357,3.588-3.726
	c-0.104-2.062-1.482-3.325-3.545-3.305c-2.304,0.021-3.688,1.429-3.637,3.728C376.545,588.302,377.965,589.338,380.089,589.492z
	 M400.511,599.291c-0.413-1.757-1.343-3.392-3.465-3.452c-2.241-0.065-3.888,1.103-3.872,3.587c0.012,2.187,1.31,3.383,3.485,3.352
	C398.764,602.745,399.996,601.531,400.511,599.291z M263.487,600.563c-0.438-1.989-1.592-3.364-3.692-3.251
	c-2.278,0.122-3.729,1.519-3.455,3.888c0.24,2.089,1.835,3.164,3.854,3.021C262.266,604.068,263.343,602.656,263.487,600.563z
	 M229.77,598.787c-0.356-2.061-1.588-3.34-3.623-3.314c-2.38,0.027-3.592,1.603-3.352,3.884c0.218,2.074,1.774,3.171,3.786,3.051
	C228.674,602.281,229.699,600.865,229.77,598.787z M242.967,589.198c2.123-0.188,3.521-1.341,3.524-3.396
	c0.002-2.346-1.623-3.592-3.883-3.457c-2.049,0.122-3.34,1.49-3.235,3.593C239.477,588.073,240.963,589.022,242.967,589.198z
	 M329.271,604.971c1.639-0.342,3.346-1.332,3.173-3.719c-0.146-2.033-1.602-3.206-3.691-3.186c-2.34,0.025-3.739,1.229-3.58,3.664
	C325.31,603.86,326.634,604.908,329.271,604.971z M297.869,601.346c-0.267-2.149-1.473-3.346-3.641-3.278
	c-2.105,0.065-3.584,1.144-3.389,3.399c0.176,2.033,1.405,3.398,3.619,3.358C296.665,604.786,297.753,603.515,297.869,601.346z
	 M413.862,580.107c-2.304,0.099-3.523,1.266-3.584,3.4c-0.062,2.23,1.24,3.316,3.419,3.286c2.185-0.031,3.429-1.34,3.528-3.383
	C417.334,581.18,415.801,580.27,413.862,580.107z M311.531,619.02c2.063-0.069,3.638-0.938,3.669-3.158
	c0.03-2.084-1.202-3.496-3.388-3.482c-2.007,0.011-3.612,0.908-3.673,3.192C308.079,617.771,309.336,618.894,311.531,619.02z
	 M209.682,586.242c1.852-0.124,3.069-1.053,3.271-3.004c0.229-2.242-1.068-3.53-3.082-3.771c-2.145-0.256-3.503,1.06-3.621,3.178
	C206.127,584.851,207.605,585.871,209.682,586.242z M311.327,584.029c-1.813,0.204-3.185,1.07-3.112,3.103
	c0.082,2.367,1.51,3.705,3.88,3.549c1.938-0.129,2.932-1.443,2.854-3.398C314.864,585.038,313.573,584.027,311.327,584.029z
	 M183.147,573.104c-3.313-0.293-4.512,0.81-4.76,2.646c-0.288,2.137,0.936,3.646,3.026,3.778c2.072,0.131,3.434-1.156,3.495-3.348
	C184.966,574.185,183.802,573.176,183.147,573.104z M345.905,618.676c2.044-0.389,3.35-1.395,3.191-3.64
	c-0.137-1.965-1.284-3.004-3.195-2.995c-2.128,0.007-3.489,1.271-3.509,3.323C342.371,617.478,343.856,618.513,345.905,618.676z
	 M444.74,577.698c-0.256-2.19-1.62-3.308-3.649-3.171c-2.08,0.143-3.224,1.546-3.092,3.686c0.121,1.979,1.357,2.885,3.278,2.868
	C443.505,581.064,444.433,579.685,444.74,577.698z M280.653,615.19c-0.391-1.974-1.544-3.224-3.709-3.214
	c-1.941,0.008-3.293,1.141-3.347,3c-0.063,2.206,1.473,3.225,3.62,3.188C279.105,618.135,280.399,617.317,280.653,615.19z"/>
<path fill="#21808A" d="M148.771,560.109c-0.47-0.345-0.916-0.769-1.332-1.291c-3.715-4.671-8.228-8.644-11.46-13.747
	c-4.508-7.118-9.292-14.062-13.958-21.08c-3.729,2.021-7.461,4.044-11.189,6.066c19.216,25.554,28.42,54.841,32.134,86.175
	c1.646-0.183,3.314-0.254,4.938-0.567c20.335-3.929,40.663-7.892,60.992-11.846c-2.214-2.4-5.23-3.501-8.052-4.885
	c-16.564-8.129-31.178-19.087-45.101-31.039c-0.93-0.798-2.401-1.685-2.507-2.935C151.57,563.223,149.706,562.107,148.771,560.109z"
	/>
<path fill="#2EA3AE" d="M518.162,499.729c-9.446,1.873-18.908,3.677-28.342,5.625c-37.367,7.721-75.146,12.638-113.187,14.837
	c-28.561,1.651-57.159,2.901-85.852,1.62c-28.109-1.255-56.145-2.688-84.098-6.135c-30.085-3.709-59.902-8.713-89.417-15.592
	c-1.714-0.399-3.569-1.445-4.793,0.883c2.105,8.122,6.603,15.252,9.546,23.023c4.666,7.019,9.45,13.963,13.958,21.08
	c3.232,5.104,7.745,9.076,11.46,13.747c0.416,0.522,0.861,0.946,1.331,1.291c0.936,1.997,2.799,3.113,4.464,4.853
	c-0.026-0.327,0.034-0.678,0.229-1.06c0.907-1.78,2.949-0.802,4.502-0.526c11.947,2.118,23.89,4.204,35.911,5.936
	c32.313,4.655,64.788,7.353,97.391,8.387c25.474,0.811,50.938,0.074,76.393-1.479c31.747-1.938,63.243-5.756,94.604-10.97
	c4.799-0.798,9.597-2.854,15.345-1.852c1.409-1.385,2.805-2.313,3.846-3.81c1.688-1.005,3.068-2.397,4.358-4.032
	c6.879-8.721,13.969-17.321,19.09-27.28c0.784-1.523,1.82-2.772,3.388-3.53c-0.489-1.994,0.825-3.433,1.587-5.02
	C512.998,513.206,516.086,506.676,518.162,499.729z M141.966,513.869c3.278,1.356,1.854,4.778,2.824,6.733
	c0.136,1.465-0.313,3.086-1.085,2.676c-3.032-1.615-1.963-5.139-2.969-7.749C140.414,514.687,141.244,513.573,141.966,513.869z
	 M145.09,545.625c-0.521,0.438-1.375,0.453-1.768-0.188c-1.395-2.296-2.118-4.827-2.206-7.513c-0.027-0.797,0.567-1.096,1.479-1.065
	c1.926,1.273,1.866,3.623,2.598,5.571C145.594,543.489,146.224,544.66,145.09,545.625z M479.018,515.037
	c0.221-0.235,1.171-0.244,1.291-0.052c1.411,2.267-0.194,4.381-0.45,6.572c-0.116,0.994-0.495,2.203-1.622,2.14
	c-1.902-0.105-0.626-1.811-1.174-2.486C477.718,518.978,477.464,516.706,479.018,515.037z M466.202,536.657
	c-0.125-1.465-0.796-4.254,1.199-4.19c3.175,0.097,0.478,3.308,1.737,4.414c-0.551,1.85,0.581,4.642-1.417,4.567
	C464.806,541.345,466.349,538.356,466.202,536.657z M453.22,551.468c0.071-1.146,0.438-2.526,1.938-2.269
	c1.629,0.28,1.063,1.694,0.969,2.785c-0.738,2.077-0.089,4.637-2.23,6.161c-0.195,0.138-1.053-0.201-1.184-0.501
	C451.794,555.528,453.093,553.538,453.22,551.468z M447.236,526.446c0.461-1.901-0.3-4.787,2.52-5.195
	c1.684-0.242,0.815,1.689,1.166,2.726c-1.229,1.806,0.333,5.178-2.731,5.623C446.485,529.845,446.965,527.562,447.236,526.446z
	 M432.027,537.278c0.253-0.334,0.755-0.479,1.153-0.718c2.094,1.4,1.873,3.801,2.788,5.634c0.481,0.968,1.207,2.096,0.188,3.157
	c-0.269,0.279-0.902,0.412-1.305,0.321C433.642,545.397,431.258,538.295,432.027,537.278z M424.629,555.525
	c2.773-0.052,1.665,2.969,1.719,4.68c0.049,1.578,0.905,4.389-1.604,4.313c-2.462-0.074-1.083-2.879-1.551-4.45
	C423.67,558.472,422.319,555.571,424.629,555.525z M414.358,531.305c0.804-1.938-0.145-4.741,2.085-6.517
	c0.21-0.168,1.173,0.111,1.265,0.369c0.875,2.463-0.151,4.815-0.59,7.196c-0.178,0.971-0.518,2.1-1.834,1.751
	C414.03,533.774,414.269,532.601,414.358,531.305z M402.77,546.479c0.142-1.082,0.357-2.546,2.059-2.087
	c1.277,0.345,0.931,1.565,0.984,2.806c-0.749,1.879-0.284,4.383-1.807,6.289c-0.483,0.605-1.432,0.315-1.698-0.255
	C401.232,550.941,402.478,548.721,402.77,546.479z M389.506,558.763c3.056-0.243,1.226,3.715,2.078,5.508
	c-0.256,1.478,0.885,3.606-1.459,3.668c-1.713,0.045-1.64-1.986-1.588-3.146C388.633,562.666,386.823,558.976,389.506,558.763z
	 M382.678,529.946c0.17-0.271,0.881-0.417,1.259-0.313c1.411,0.379,3.66,7.277,2.772,8.475c-0.244,0.33-0.729,0.482-1.035,0.672
	c-1.888-0.687-1.886-2.399-2.248-3.723C382.97,533.404,381.515,531.806,382.678,529.946z M366.979,547.577
	c3.132,1.188,1.571,4.577,2.691,6.486c0.011,1.442-0.037,3.297-1.472,2.629c-2.854-1.332-1.519-4.634-2.354-6.981
	C365.487,548.698,365.981,547.198,366.979,547.577z M352.39,536.171c1.01-1.997-0.63-5.5,2.867-5.947
	c1.471-0.189,1.284,1.51,0.815,3.103c-0.799,1.698,0.097,5.059-2.705,5.79C351.594,539.581,351.904,537.132,352.39,536.171z
	 M349.224,567.803c0.978-2.222-0.285-5.668,3.036-6.519c1.112-0.282,1.008,1.348,0.76,2.646c-1.104,1.827,0.375,5.38-3.028,6.198
	C348.816,570.409,348.892,568.559,349.224,567.803z M334.853,549.573c0.146-0.984,0.534-2.186,1.703-2.005
	c1.495,0.23,1.285,1.608,1.172,2.954c-0.813,1.886-0.165,4.446-2.045,6.146c-0.244,0.222-1.21,0.148-1.306-0.047
	C333.199,554.209,334.505,551.916,334.853,549.573z M318.359,530.406c2.392,0.11,1.351,2.944,1.429,4.582
	c0.072,1.486,0.911,4.274-1.065,4.213c-2.882-0.09-0.92-3.178-1.718-4.711C317.563,533.021,315.968,530.298,318.359,530.406z
	 M315.825,569.735c0.588-2.787,0.272-5.914,2.536-8.064c1.183,0.031,2.045,0.608,1.828,1.441c-0.719,2.752-0.205,6.055-2.917,7.976
	C316.522,571.616,315.638,570.634,315.825,569.735z M296.772,546.461c0.178-0.185,0.61-0.115,0.924-0.164
	c1.271,0.244,3.732,7.331,2.847,8.349c-0.27,0.312-0.948,0.636-1.231,0.505c-2.342-1.087-1.771-3.655-2.665-5.497
	C296.138,548.607,295.804,547.46,296.772,546.461z M282.252,568.514c-0.236,0.204-1.165,0.084-1.315-0.164
	c-1.467-2.427-2.354-5.065-2.353-7.924c0-0.264,0.732-0.522,1.189-0.827c2.047,1.417,1.919,3.809,2.746,5.711
	C282.972,566.349,283.321,567.591,282.252,568.514z M278.181,537.036c0.734-2.423,0.5-5.295,2.579-6.919
	c1.51-0.036,2.178,0.707,1.914,1.521c-0.825,2.54-0.341,5.839-3.418,7.165C278.435,539.156,277.93,537.865,278.181,537.036z
	 M258.626,544.781c3.483,1.199,1.358,5.015,2.888,6.756c0.307,1.515-0.188,2.989-1.071,2.593c-3.027-1.368-2.03-4.785-3.041-7.227
	C256.987,545.899,257.657,544.448,258.626,544.781z M243.254,533.608c1.215-1.652-0.193-5.146,3.081-5.689
	c1.354-0.224,1.385,1.541,0.906,2.686c-0.887,2.107-0.004,5.374-3.04,6.019C242.809,536.916,243.19,534.982,243.254,533.608z
	 M243.34,560.773c0.142-0.485,0.893-0.793,1.195-1.043c1.315,0.256,1.82,0.879,1.553,1.82c-0.715,2.488-0.934,5.204-2.913,7.154
	c-0.161,0.158-1.194-0.142-1.25-0.368C241.266,565.629,242.612,563.243,243.34,560.773z M225.164,548.017
	c0.686-1.486-0.847-4.525,1.731-4.327c2.618,0.199,1.507,3.214,1.45,4.991c-0.051,1.563,0.934,4.535-1.658,4.313
	C223.87,552.752,225.783,549.736,225.164,548.017z M209.402,525.442c2.911,0.732,1.841,3.761,2.311,5.837
	c0.261,1.153,0.503,3.583-0.962,3.208c-3.039-0.779-1.431-4.188-2.408-5.997C208.379,527.111,208.082,525.111,209.402,525.442z
	 M204.312,561.973c0.975-2.485,0.785-5.688,3.668-7.068c0.765-0.366,1.384,0.6,1.229,1.928c-1.203,2.049-0.729,5.372-3.438,6.89
	C204.684,564.326,203.927,562.954,204.312,561.973z M187.39,545.142c1.315-2.32,0.842-5.82,4.118-6.801
	c0.819-0.246,1.201,0.881,0.998,1.938c-1.563,1.937-1.167,5.238-3.979,6.414C187.65,547.061,186.919,545.972,187.39,545.142z
	 M174.373,519.443c1.623-0.063,1.608,1.952,1.527,3.172c-0.135,2.021,2.26,5.423-1.056,5.725c-2.584,0.232-1.14-3.49-1.856-5.271
	C173.387,521.719,172.101,519.531,174.373,519.443z M170.391,557.393c1.396-1.598-0.254-5.102,2.943-5.908
	c1.05-0.265,1.253,1.287,0.855,2.297c-0.861,2.203,0.141,5.416-2.615,6.476C170.234,560.77,170.267,558.847,170.391,557.393z
	 M159.344,534.629c3.63-0.227,0.83,4.056,2.284,5.395c-0.223,1.846,0.727,3.949-1.448,4.052c-2.087,0.1-1.865-2.033-1.711-3.383
	C158.712,538.565,156.874,534.781,159.344,534.629z M486.052,543.922c-0.16,0.99-0.663,2.063-1.85,1.844
	c-1.644-0.303-1.039-1.705-1.014-2.915c1.1-1.839,0.497-4.495,2.49-6.072c0.239-0.188,1.155-0.024,1.271,0.213
	C488.17,539.469,486.422,541.613,486.052,543.922z M500.905,516.656c-0.974,1.777,0.656,5.853-2.127,5.595
	c-2.922-0.27-0.662-3.831-0.795-5.912c-0.073-1.157-0.207-3.14,1.666-3.034C501.661,513.413,500.682,515.298,500.905,516.656z"/>
<path fill="#21808A" d="M508.291,524.742c-1.569,0.756-2.604,2.005-3.39,3.53c-5.121,9.959-12.211,18.558-19.09,27.28
	c-1.289,1.634-2.67,3.024-4.355,4.03c-1.04,1.497-2.438,2.427-3.848,3.813c0.065,0.012,0.129,0.019,0.194,0.03
	c-10.473,11.435-22.05,20.275-34.682,27.782c-7.271,4.319-14.666,8.43-22.006,12.633c21.967,4.337,43.897,8.869,66.012,12.429
	c3.828-31.325,12.709-60.768,32.171-86.263C515.631,528.254,511.961,526.496,508.291,524.742z"/>
<path fill="#21808A" d="M102.564,393.064c-0.56-0.108-1.207-0.427-1.96-0.991c-11.442-8.574-22.939-17.095-33.045-27.295
	c-8.732,10.634-16.72,21.77-22.945,34.094c0.556,0.36,1.165,0.658,1.656,1.093c15.408,13.598,32.788,24.211,50.966,33.6
	c1.366,0.706,3.373,2.858,4.416-0.152c0.239-0.689,0.526-1.209,0.85-1.6c0-1.894,0-3.648,0-5.538
	c-1.003-1.681-0.838-4.283-0.413-9.274c0.517-6.075,0.812-12.484,3.018-18.021c0.126-0.316,0.241-0.636,0.358-0.953
	C105.463,396.766,104.055,394.191,102.564,393.064z"/>
<path fill="#21808A" d="M563.037,365.037c-10.89,9.256-21.585,18.747-33.491,26.737c-1.3,0.871-2.262,1.236-2.99,1.127
	c-0.946,0.47-1.808,1.109-2.653,1.78c1.84,6.614,3.613,13.235,3.818,20.168c0.151,5.133,1.952,10.549-1.534,15.357
	c2.83,6.482,6.8,3.719,10.734,1.328c0.852-0.516,1.714-1.019,2.595-1.482c16.522-8.717,31.746-19.357,46.136-31.223
	C579.367,386.728,571.49,375.691,563.037,365.037z"/>
<path fill="#2EA3AE" d="M235.068,73.791c-4.43,3.097-8.874,6.172-13.8,8.462c-0.782-2.007-1.628-3.99-2.33-6.022
	c-4.422-12.803-15.568-24.584-30.913-23.37c-12.485,0.988-22.551,12.809-21.792,25.351c0.86,14.229,12.31,26.376,26.671,29.992
	c-0.243,0.265-0.489,0.528-0.736,0.796c-0.666,0.877-0.791,1.063-1.267,1.762c0,0-0.138,0.199-0.137,0.199
	c-0.252,0.318-0.505,0.64-0.758,0.96c-1.668,3.473-3.806,6.598-6.755,9.121c-11.634-4.362-22.648-9.847-31.188-19.143
	c-17.599-19.165-15.723-49.922,3.823-65.51c21.559-17.192,50.98-13.095,66.697,9.288C228.593,54.229,232.503,63.712,235.068,73.791z
	"/>
<path fill="#E6A032" d="M110.831,530.059c19.216,25.554,28.42,54.841,32.134,86.175c-13.248,2.843-26.495,5.693-40.048,6.709
	c1.966-12.283,1.511-24.465-1.137-36.631c-3.345-15.38-8.645-29.97-16.717-43.515C93.556,538.352,101.9,533.613,110.831,530.059z"/>
<path fill="#E6A032" d="M487.127,616.271c3.83-31.324,12.71-60.767,32.171-86.263c8.797,3.702,17.263,8.063,25.562,12.761
	c-1.342,2.481-2.768,4.921-4.015,7.449c-11.32,22.95-17.493,46.877-13.659,72.68C513.649,621.795,500.378,619.096,487.127,616.271z"
	/>
<path fill="#2EA3AE" d="M527.186,622.897c-3.834-25.803,2.339-49.729,13.659-72.68c1.247-2.528,2.673-4.97,4.015-7.449
	c4.412-2.859,7.99-6.85,12.787-9.22c9.89-4.888,19.643-5.45,29.195,0.707c2.021,1.305,4.317,2.637,4.342,5.602
	c-6.063-0.032-10.961,2.278-15.843,6.025c-9.28,7.123-14.337,16.934-18.678,27.148c-4.222,9.939-7.118,20.48-6.484,31.383
	c0.397,6.868,1.549,14.146,9.892,16.705c-3.855,2.613-8.363,2.68-12.715,2.92C540.612,624.411,533.829,624.619,527.186,622.897z"/>
<path fill="#2EA3AE" d="M85.065,542.797c8.072,13.545,13.372,28.135,16.719,43.515c2.646,12.166,3.101,24.348,1.135,36.631
	c-10.364,1.806-20.692,2.464-30.895-0.966c2.906-3.774,6.06-7.254,7.111-12.271c2.359-11.229-0.205-21.771-4.174-32.007
	c-6.813-17.563-14.47-34.594-35.906-38.693c5.347-7.722,15.319-10.842,25.743-8.412C72.933,532.484,78.817,537.891,85.065,542.797z"
	/>
<path fill="#21808A" d="M29.459,432.744c9.499,8.396,20.181,15.134,30.923,21.736c11.596,7.13,23.361,13.996,35.756,19.697
	c-7.972,12.199-18.28,21.277-33.357,22.688c-18.484,1.729-35.019-12.611-37.626-32.391C23.72,453.599,25.295,442.951,29.459,432.744
	z"/>
<path fill="#21808A" d="M534.068,474.276c21.896-10.797,42.795-23.229,62.332-37.911c1.44-1.082,3.078-1.9,4.623-2.847
	c4.216,11.276,5.844,22.852,3.148,34.695c-6.045,26.567-34.492,37.116-56.345,20.975
	C542.307,485.108,537.676,480.151,534.068,474.276z"/>
<path fill="#21808A" d="M39.056,539.003c21.438,4.102,29.095,21.13,35.906,38.693c3.969,10.235,6.533,20.777,4.174,32.007
	c-1.054,5.02-4.205,8.497-7.111,12.271c-4.931-0.188-8.707-3.012-12.411-5.734c-17.102-12.566-29.801-47.799-24.771-68.379
	C35.634,544.619,36.591,541.45,39.056,539.003z"/>
<path fill="#21808A" d="M560.07,621.119c-8.343-2.56-9.492-9.837-9.892-16.705c-0.634-10.9,2.265-21.441,6.484-31.383
	c4.341-10.217,9.396-20.025,18.678-27.148c4.882-3.747,9.777-6.06,15.843-6.025c5.317,5.379,5.327,12.384,5.118,19.074
	c-0.599,19.084-7.354,36.052-19.172,50.953C572.74,615.42,567.45,619.952,560.07,621.119z"/>
<path fill="#21808A" d="M130.617,310.411c0.624-1.377,1.346-2.385,2.271-3.025c0.462-1.143,0.735-2.395,1.011-3.61
	c-0.368-0.462-0.663-1.032-0.854-1.752c-15.205,9.966-29.023,21.582-41.466,34.832c5.666,6.642,12.835,11.578,19.438,17.155
	c2.357,1.991,3.286,1.535,4.223-1.568c4.168-13.817,9.958-27.061,14.815-40.637C130.235,311.303,130.422,310.843,130.617,310.411"/>
<path fill="#21808A" d="M496.899,301.83c0.041,0.205,0.049,0.377,0.063,0.557c0.683,1.642,0.534,3.499,0.781,5.297
	c1.063,0.912,1.854,2.367,2.525,4.406c4.368,13.267,10.415,25.954,13.819,39.566c0.811,3.245,2.249,4.648,5.396,1.989
	c6.483-5.474,13.366-10.488,19.089-16.826C526.025,323.557,512.026,312.018,496.899,301.83z"/>
<path fill="#2EA3AE" d="M496.962,302.387c0.001,0.007-0.001,0.012-0.001,0.019c-0.016-0.185-0.023-0.362-0.065-0.574
	c-0.596-0.991-1.369-1.915-1.76-2.979c-7.226-19.676-13.811-39.522-17.22-60.305c-3.152-19.198-3.835-38.736-7.925-57.791
	c-3.282-15.303-7.348-30.373-15.149-44.143c-10.153-1.618-20.296-3.292-30.455-4.846c-16.417-2.513-32.919-4.45-49.477-5.604
	c-25.384-1.771-50.817-2.68-76.27-2.021c-37.074,0.958-73.942,4.158-110.512,10.509c-4.077,0.708-8.231,0.958-12.353,1.421
	c-0.93,1.566-1.997,3.067-2.766,4.707c-8.83,18.852-13.646,38.784-16.063,59.379c-2.167,18.475-3.854,37.014-8.124,55.189
	c-3.5,14.9-8.864,29.2-13.604,43.703v0.001c-0.097,0.315-0.195,0.632-0.291,0.949h0.001c0,0-0.001,0-0.002,0.001
	c-0.629,0.674-1.258,1.348-1.887,2.021c0.19,0.722,0.486,1.292,0.857,1.755c-0.275,1.215-0.549,2.467-1.011,3.608
	c1.388-0.959,3.239-1.098,5.941-0.394c24.479,6.378,49.343,10.791,74.394,14.365c23.919,3.415,47.934,5.472,72.04,6.275
	c30.64,1.023,61.28,0.688,91.868-1.828c20.232-1.665,40.362-4.168,60.374-7.558c18.036-3.058,36.043-6.354,53.694-11.219
	c3.018-0.83,5.049-0.63,6.542,0.653C497.496,305.885,497.645,304.029,496.962,302.387z M440.975,239.521
	c12.188,9.739,10.38,24.484-3.911,31.201c-4.858,2.282-9.989,3.717-14.687,3.379c-6.555,0.055-11.995-1.301-17.112-3.941
	c-13.735-7.096-15.011-21.64-2.742-31.081C412.477,231.414,431.1,231.629,440.975,239.521z M383.734,147.946
	c22.055-0.017,39.912,18.143,40.038,40.713c0.12,21.274-18.425,39.923-39.815,40.033c-22.392,0.117-40.677-18.151-40.696-40.665
	C343.239,165.673,361.12,147.964,383.734,147.946z M301.139,258.694c14.313,6.08,34.032,3.116,42.608-13.918
	c0.738-1.469,1.231-3.117,2.826-4.001c1.63-0.902,3.2-0.869,4.649,0.319c1.827,1.497,1.915,3.389,1.05,5.419
	c-4.987,11.697-14.054,18.68-25.95,22.326c-3.691,1.131-7.519,1.396-11.421,1.275c-15.431-0.379-27.468-6.801-35.569-20.174
	c-0.517-0.85-0.944-1.759-1.343-2.67c-1.215-2.774-1.154-5.449,1.912-6.765c2.886-1.237,4.698,0.644,5.886,3.129
	C289.074,250.529,294.143,255.722,301.139,258.694z M247.69,147.927c21.662,0.295,39.104,18.594,39.063,40.984
	c-0.04,21.978-18.671,39.99-40.935,39.573c-22.242-0.416-39.465-18.296-39.174-40.674
	C206.942,164.973,224.806,147.614,247.69,147.927z M187.702,240.722c11.197-10.19,31.857-9.766,42.521,0.873
	c8.813,8.792,7.347,20.866-3.4,27.427c-5.659,3.457-11.783,5.408-18.441,5.021c-6.442,0.357-12.235-1.508-17.655-4.704
	C179.035,262.445,177.709,249.814,187.702,240.722z"/>
<path fill="#E6A3A1" d="M208.38,274.043c-6.442,0.357-12.235-1.508-17.653-4.703c-11.688-6.896-13.017-19.525-3.021-28.617
	c11.196-10.188,31.856-9.766,42.521,0.873c8.813,8.792,7.347,20.866-3.398,27.427C221.162,272.479,215.038,274.43,208.38,274.043z"
	/>
<path fill="#E6A3A1" d="M422.377,274.101c-6.555,0.056-11.995-1.301-17.112-3.941c-13.735-7.096-15.011-21.64-2.742-31.081
	c9.954-7.663,28.577-7.447,38.452,0.442c12.188,9.739,10.38,24.484-3.911,31.201C432.204,273.004,427.073,274.438,422.377,274.101z"
	/>
<path fill="#2A2727" d="M314.903,270.115c-15.432-0.379-27.469-6.801-35.569-20.175c-0.517-0.85-0.943-1.759-1.342-2.67
	c-1.216-2.773-1.155-5.448,1.911-6.765c2.886-1.237,4.698,0.644,5.886,3.129c3.286,6.893,8.354,12.086,15.352,15.058
	c14.313,6.08,34.032,3.116,42.607-13.918c0.739-1.469,1.232-3.118,2.827-4.001c1.631-0.901,3.2-0.868,4.649,0.319
	c1.827,1.497,1.915,3.389,1.05,5.419c-4.987,11.697-14.054,18.681-25.95,22.326C322.631,269.971,318.806,270.237,314.903,270.115z"
	/>
<path fill="#2EA3AE" d="M523.835,430.597c0.851,0.259,1.644,0.174,2.354-0.392c3.486-4.809,1.687-10.225,1.534-15.357
	c-0.205-6.933-1.979-13.554-3.817-20.167c0.845-0.671,1.706-1.311,2.651-1.779c-1.03-0.153-1.591-1.264-1.943-3.296
	c-0.793-4.582-2.175-9.077-2.747-13.679c-0.582-4.678-2.979-5.259-6.888-4.243c-19.325,5.025-38.902,8.753-58.585,12.158
	c-41.904,7.248-84.141,10.409-126.57,11.331c-32.797,0.714-65.551-0.731-98.21-3.826c-18.867-1.788-37.658-4.308-56.37-7.334
	c-20.526-3.319-40.909-7.388-61.019-12.711c-3.499-0.927-4.93,0.247-5.593,3.48c-1.034,5.048-2.302,10.047-3.294,15.101
	c-0.445,2.266-1.295,3.469-2.773,3.18c1.492,1.127,2.999,4.155,2.899,4.959c-0.116,0.317-0.231,0.635-0.357,0.951
	c-2.206,5.538-2.501,11.947-3.018,18.021c-0.432,5.073-0.593,7.677,0.466,9.354c-0.017-0.027-0.038-0.05-0.054-0.077
	c0,1.89,0,3.646,0,5.538c1.34-1.621,3.313-0.96,5.237-0.58c4.055,0.801,8.079,1.741,12.116,2.623
	c-0.023-0.048-0.053-0.089-0.078-0.136c0.025,0.047,0.055,0.086,0.079,0.134c0.766,0.04,1.527,0.08,2.292,0.118
	c0,0.001-0.001,0.001-0.002,0.002c3.403,1.472,6.973,2.124,10.667,2.149c0-0.001,0-0.001-0.001-0.002
	c0.001,0,0.002,0.001,0.003,0.001c0.722,0.58,1.532,0.716,2.419,0.487c0.037-0.001,0.074,0.002,0.111,0.002
	c-0.038,0-0.075-0.001-0.113,0c0.909,0.378,1.785,0.914,2.73,1.111c22.474,4.676,45.166,8.079,67.918,10.966
	c25.088,3.182,50.362,4.392,75.604,5.726c6.762,0.358,12.938,0.76,20.37-0.195 M301.856,454.215
	c6.743,1.053,13.493,0.992,20.247,0.099v0.001c17.28,1.156,34.482-0.018,51.667-1.744l0.001-0.001
	c1.131,0.373,2.242,0.376,3.321-0.187c0,0.001-0.001,0.001-0.001,0.002c1.14,0.12,2.299,0.432,3.419,0.333
	c15.691-1.425,31.424-2.552,47.059-4.462c20.082-2.455,40.119-5.35,59.963-9.393c12.162-2.478,24.442-4.452,36.301-8.265
	 M112.124,422.063c-2.257-0.19-0.311-3.144-1.276-4.418c0.604-1.665-0.836-4.362,1.416-4.312c2.525,0.057,1.42,2.86,1.445,4.454
	C113.733,419.359,114.704,422.281,112.124,422.063z M118.649,387.475c-1.195,1.826-0.461,5.114-3.064,6.553
	c-1.185,0.652-1.72-0.94-1.333-1.852c0.988-2.337,0.502-5.485,3.266-6.829C118.253,384.989,118.831,386.082,118.649,387.475z
	 M130.546,408.087c-0.263,1.289-0.626,2.952-2.566,3.602c-0.362-0.323-1.283-0.88-1.207-1.106c0.867-2.61,1.813-5.201,2.915-7.721
	c0.285-0.648,1.228-0.479,1.662,0.142C132.675,404.892,130.887,406.422,130.546,408.087z M278.288,410.38
	c0.913-1.874,0.428-4.574,2.758-5.946c0.266-0.156,1.141,0.12,1.247,0.39c0.962,2.407-0.732,4.409-1.151,6.616
	c-0.187,0.983-0.695,2.197-1.823,1.987C277.778,413.138,278.146,411.701,278.288,410.38z M282.7,442.872
	c-0.146,0.275-0.883,0.438-1.272,0.347c-1.226-0.291-3.621-7.445-2.831-8.424c0.265-0.329,0.772-0.461,1.096-0.645
	c1.664,0.524,1.921,1.897,2.161,3.136C282.216,439.143,283.77,440.848,282.7,442.872z M258.438,419.144
	c1.924,0.544,2.223,2.326,2.192,3.569c-0.043,1.959,2.71,4.939-0.071,5.605c-2.813,0.674-1.979-3.021-2.549-4.859
	C257.57,422.034,256.363,420.374,258.438,419.144z M244.456,403.677c0.229-1.216,0.963-1.696,2.123-1.316
	c1.045,0.345,0.956,1.228,0.693,2.037c-0.812,2.525-0.612,5.53-3.583,7.756C242.586,408.679,243.969,406.236,244.456,403.677z
	 M241.517,441.763c0.621-2.61,0.21-5.736,3.044-7.367c0.491-0.282,1.349,0.538,1.148,1.219c-0.751,2.571-0.506,5.501-2.309,7.608
	C242.104,443.212,241.313,442.617,241.517,441.763z M225.189,422.82c0.753-1.425-1.015-4.459,1.604-4.33
	c2.654,0.134,1.394,3.153,1.503,4.903c0.091,1.458,0.684,4.083-1.584,3.935C224.057,427.152,225.704,424.425,225.189,422.82z
	 M209.584,399.965c2.502,0.995,1.938,3.84,2.188,6.045c0.165,1.456-0.102,3.986-1.55,3.351c-2.726-1.192-0.77-4.687-1.966-6.566
	C208.332,401.359,208.086,399.37,209.584,399.965z M204.304,436.399c1.092-2.443,0.703-5.81,3.624-7.094
	c1.155-0.507,1.368,0.992,1.202,2.255c-1.063,2.265-0.842,5.551-3.667,6.907C204.44,438.959,203.902,437.297,204.304,436.399z
	 M190.23,413.043c0.252-0.29,0.906-0.475,1.275-0.366c0.669,0.196,1.078,0.748,0.802,1.763c-0.156,0.399-0.276,1.106-0.658,1.617
	c-1.305,1.744-1.019,4.649-3.78,5.285c-0.31,0.068-1.138-0.694-1.102-0.77C187.973,418.083,188.35,415.2,190.23,413.043z
	 M173.749,393.87c3.072-0.324,1.355,3.275,2.297,4.677c-0.658,1.557,0.709,3.845-1.268,3.992c-2.138,0.158-1.102-2.217-1.522-3.452
	c-0.05-0.149-0.092-0.358-0.029-0.482C174.042,397.014,170.433,394.22,173.749,393.87z M170.471,431.898
	c0.991-2.052-0.436-5.402,2.683-6.129c1.327-0.31,1.392,1.411,0.813,2.538c-0.248,2.396,0.187,5.322-2.571,6.24
	C170.135,434.966,170.023,432.827,170.471,431.898z M159.244,409.481c3.446,0.888,0.421,4.694,2.137,6.299
	c0.149,1.403-0.276,2.855-1.173,2.597c-3.12-0.901-1.56-3.773-1.895-5.796C158.141,411.525,157.615,409.063,159.244,409.481z
	 M143.413,387.74c3.216,1.114,1.567,4.641,2.561,6.334c0.175,1.574,0.272,3.237-0.859,2.936c-3.421-0.917-2.111-4.322-2.853-6.646
	C141.931,389.322,142.061,387.272,143.413,387.74z M139.249,426.031c0.938-2.341,0.592-5.461,3.422-6.688
	c0.936-0.405,1.168,0.815,1.102,2.136c-1.311,1.707-0.411,5.084-3.398,6.259C139.533,428.071,138.918,426.856,139.249,426.031z
	 M299.567,429.649c-3.348-1.169-2.23-4.684-3.338-7.063c-0.347-0.746,0.146-2.129,0.941-1.836c3.267,1.2,2.068,4.815,3.418,6.702
	C300.769,428.756,300.321,429.909,299.567,429.649z M319.8,439.156c-0.688,1.956-0.382,4.449-2.086,6.233
	c-0.522,0.546-1.364,0.272-1.597-0.411c-0.796-2.349,0.536-4.451,0.954-6.66c0.186-0.971,0.506-2.104,1.788-1.823
	C320.164,436.781,319.806,438.006,319.8,439.156z M318.435,413.423c-2.55-0.233-2.394-3.131-2.188-5.225
	c0.138-1.379-1.115-3.96,1.535-3.809c3.447,0.196,1.334,3.369,2.128,4.98C319.413,410.886,320.772,413.635,318.435,413.423z
	 M337.616,425.049c-1.125,1.986,0.597,5.794-2.82,5.965c-1.911,0.096-0.465-2.43-0.646-3.819c0.879-1.592-1.133-4.813,2.485-4.846
	C338.34,422.334,338.07,424.25,337.616,425.049z M353.057,438.252c-0.79,2.136-0.042,5.332-3.238,6.325
	c-1.159,0.36-1.752-0.45-1.042-1.754c1.305-2.396-0.482-6.313,3.192-7.392C353.325,435.033,353.202,436.924,353.057,438.252z
	 M356.432,406.376c-1.12,2.37-0.259,5.785-3.396,7.153c-0.821,0.359-1.725-0.729-1.254-1.475c1.538-2.435-0.112-6.281,3.252-7.717
	C356.063,403.899,356.647,405.147,356.432,406.376z M368.037,431.27c-2.898-1.354-0.97-4.784-2.647-6.431
	c0.346-1.41,0.17-3.507,1.532-2.889c3.063,1.396,1.366,5.021,2.592,7.441C369.994,430.347,368.947,431.694,368.037,431.27z
	 M386.563,412.499c-0.418,0.638-1.278,0.508-1.733,0.001c-1.965-2.192-1.927-5.237-3.113-7.775
	c-0.026-0.057,0.938-0.576,1.304-0.798c2.544,0.581,2.488,2.719,3.163,4.312C386.759,409.602,387.519,411.041,386.563,412.499z
	 M389.807,442.392c-2.784-0.569-0.53-3.466-1.533-4.996c0.32-1.426-0.751-4.062,0.961-3.863c2.971,0.347,1.466,3.696,2.213,5.639
	C391.95,440.48,391.823,442.805,389.807,442.392z M404.829,426.476c-0.063,1.098-0.714,1.965-1.892,1.703
	c-1.244-0.276-1.116-1.41-0.983-2.585c0.694-2.127,0.019-4.809,1.878-6.764c0.196-0.209,1.139-0.136,1.289,0.099
	C406.791,421.483,404.975,423.952,404.829,426.476z M416.214,408.422c-0.193,0.229-1.138,0.243-1.313,0.021
	c-1.604-2.019-0.188-4.101,0.041-6.146c0.136-1.2-0.074-3.092,1.853-2.882c1.585,0.173,0.892,1.836,1.077,2.959
	C417.579,404.427,417.684,406.656,416.214,408.422z M424.863,439.132c-3.003,0.009-0.876-3.132-1.729-4.545
	c0.592-1.712-0.942-4.635,1.747-4.566c2.529,0.062,1.38,2.919,1.426,4.528C426.354,436.195,427.241,439.125,424.863,439.132z
	 M435.843,420.144c-0.729,0.554-1.399,0.04-1.618-0.521c-0.898-2.312-1.699-4.661-2.45-7.024c-0.229-0.727,0.208-1.239,1.138-1.373
	c2.398,0.901,2.045,3.49,2.833,5.34C436.175,417.568,437.406,418.956,435.843,420.144z M450.707,397.948
	c-0.664,2.202,0.321,5.494-2.524,6.27c-1.389,0.377-0.885-2.033-0.955-3.127c0.332-2.146-0.478-4.856,2.202-5.583
	C451.159,395.037,450.986,397.028,450.707,397.948z M455.213,429.055c-1.176,1.507,0.858,5.94-2.732,5.279
	c-2.614-0.48-0.093-3.918-0.041-6.028c0.028-1.181,0.018-3.065,1.985-2.589C455.824,426.056,455.424,427.572,455.213,429.055z
	 M467.318,412.527c-1.43,1.622,1.063,5.292-2.506,5.989c-1.314,0.258-1.654-1.703-1.158-2.715c0.972-1.982-0.405-5.142,2.464-5.981
	C467.502,409.416,467.771,411.015,467.318,412.527z M480.983,393.24c-0.631,1.8,0.99,4.636-2.28,5.125
	c-0.919,0.141-2.038-1.18-1.431-2.111c1.433-2.2-0.417-6.278,2.567-6.839C482.531,388.906,480.115,391.97,480.983,393.24z
	 M487.897,428.61c-0.347,0.631-1.217,0.824-1.692,0.206c-1.782-2.325-2.133-5.127-2.313-7.937c-0.016-0.215,0.705-0.479,1.019-0.679
	c1.603,0.652,1.8,1.965,2.156,3.252C487.537,425.155,488.942,426.715,487.897,428.61z M497.041,410.373
	c-2.937-0.08-0.66-3.204-1.546-4.604c0.456-1.651-0.686-4.31,1.434-4.33c2.711-0.024,1.487,2.767,1.545,4.336
	C498.533,407.452,499.158,410.431,497.041,410.373z M510.399,392.532c-2.188,0.104-1.324-2.604-1.22-4.011
	c0.126-1.701-1.156-4.679,1.598-4.749c1.874-0.048,0.773,2.732,1.163,4.245C511.426,389.584,512.771,392.418,510.399,392.532z
	 M515.758,420.489c-2.543-0.019-0.717-2.926-1.342-4.396c0.608-1.611-0.845-4.439,1.564-4.587c2.77-0.171,1.643,2.653,1.596,4.183
	C517.525,417.462,518.24,420.506,515.758,420.489z"/>
<path fill="#21808A" d="M408.785,82.23c3.174-8.013,5.928-16.228,12.699-22.225c7.583-6.715,16.31-8.918,25.873-5.975
	c13.665,4.208,20.194,19.852,14.688,33.082c-3.928,9.438-11.505,14.706-19.916,19.309c-1.313,0.717-2.635,1.419-3.955,2.132
	c-2.155-0.054-3.099-1.839-4.203-3.175C426.629,96.509,417.297,89.82,408.785,82.23z"/>
<path fill="#21808A" d="M192.904,108.201c-14.361-3.616-25.811-15.764-26.671-29.992c-0.759-12.542,9.307-24.36,21.792-25.351
	c15.345-1.214,26.491,10.567,30.913,23.37c0.702,2.032,1.548,4.018,2.33,6.022C211.248,90.283,201.981,99.139,192.904,108.201z"/>
<path fill="#2EA3AE" d="M440,111.869c1.614,3.468,3.837,6.445,7.012,8.652c10.741-3.094,20.102-8.688,28.476-15.963
	c18.157-15.771,19.518-45.942,2.976-64.313c-16.052-17.823-45.356-19.346-62.997-3.284c-10.998,10.013-16.85,22.854-20.403,36.97
	c4.29,3.236,8.787,6.134,13.726,8.297c3.173-8.013,5.928-16.228,12.699-22.225c7.583-6.715,16.31-8.918,25.873-5.975
	c13.665,4.208,20.194,19.852,14.688,33.082c-3.928,9.438-11.506,14.706-19.916,19.309c-1.313,0.717-2.635,1.419-3.955,2.132
	c0.201,0.452,0.407,0.901,0.613,1.349C439.172,110.719,439.452,111,440,111.869"/>
<path fill="#2A2727" d="M404.176,188.815c-0.063,14.597-11.735,26.205-26.378,26.232c-14.69,0.025-26.391-12.003-26.178-26.921
	c0.204-14.349,11.952-26.039,26.132-26.008C392.655,162.153,404.238,173.855,404.176,188.815z M395.735,178.772
	c0.089-4.297-3.465-7.803-7.939-7.835c-4.25-0.03-7.53,3.164-7.681,7.479c-0.15,4.429,3.268,8.123,7.582,8.191
	C392.005,186.68,395.645,183.131,395.735,178.772z"/>
<path fill="#2A2727" d="M252.136,215.065c-14.368-0.024-26.291-12.016-26.276-26.424c0.017-14.705,12.038-26.644,26.717-26.526
	c14.349,0.114,26.229,12.316,26.004,26.705C278.348,203.47,266.638,215.092,252.136,215.065z M270.112,178.737
	c-0.039-4.649-3.284-7.873-7.851-7.789c-4.504,0.084-7.702,3.512-7.563,8.104c0.131,4.258,3.479,7.615,7.629,7.646
	C266.773,186.731,270.151,183.279,270.112,178.737z"/>
</svg>
