<?xml version="1.0" encoding="utf-8"?>
<!-- Generator: Adobe Illustrator 16.0.0, SVG Export Plug-In . SVG Version: 6.00 Build 0)  -->
<!DOCTYPE svg PUBLIC "-//W3C//DTD SVG 1.1//EN" "http://www.w3.org/Graphics/SVG/1.1/DTD/svg11.dtd">
<svg version="1.1" id="Layer_1" xmlns="http://www.w3.org/2000/svg" xmlns:xlink="http://www.w3.org/1999/xlink" x="0px" y="0px"
	 width="1831.93px" height="1024px" viewBox="0 0 1831.93 1024" enable-background="new 0 0 1831.93 1024" xml:space="preserve">
<rect x="-0.18" fill-rule="evenodd" clip-rule="evenodd" fill="#A1DBE1" width="1834.08" height="1021.56"/>
<path fill-rule="evenodd" clip-rule="evenodd" fill="#C6D88A" d="M15.52,671.1c0,0,339.93-100.5,901.05-100.5
	s756.07,64.83,902.74,95.42S15.52,671.1,15.52,671.1z"/>
<path fill-rule="evenodd" clip-rule="evenodd" fill="#A3A3A3" d="M0.91,1025.02c0-37.33,0-74.67,0-112
	c2.39-0.01,4.77-0.04,7.16-0.04c605.6,0,1211.19,0,1816.79,0c2.98,0,5.96,0.08,8.94,0.12c0.04,36.15,0.1,72.3,0.1,108.46
	c0,1.09-0.64,2.17-1.04,3.46C1221.85,1025.02,611.38,1025.02,0.91,1025.02z"/>
<path fill-rule="evenodd" clip-rule="evenodd" fill="#D4D4D4" d="M1833.8,913.1c-2.98-0.06-5.96-0.18-8.94-0.18
	c-605.6-0.01-1211.2-0.01-1816.79,0c-2.39,0-4.77,0.04-7.16,0.06c0-11.43,0-22.86,0-34.29c21.7,0.49,43.41,1.17,65.11,1.38
	c8.57,0.08,17.16-1.32,25.74-1.32c229.35-0.08,458.7-0.07,688.05-0.06c351.33,0.01,702.67,0.02,1054,0.03
	C1833.81,890.18,1833.81,901.64,1833.8,913.1z"/>
<path fill-rule="evenodd" clip-rule="evenodd" fill="#CDCDCE" d="M15.75,990.67c-0.16-1.3-0.36-2.26-0.38-3.22
	c-0.05-2.48-0.02-4.97-0.02-7.93c27.36,0,54.32,0,81.64,0c0,3.72,0,7.27,0,11.05c-1.02,0.2-1.8,0.47-2.58,0.49
	c-12.95,0.31-25.9,0.87-38.85,0.81C42.47,991.79,29.38,991.1,15.75,990.67z"/>
<path fill-rule="evenodd" clip-rule="evenodd" fill="#CDCDCE" d="M148.75,990.67c-0.16-1.3-0.36-2.26-0.38-3.22
	c-0.05-2.48-0.02-4.97-0.02-7.93c27.36,0,54.32,0,81.64,0c0,3.72,0,7.27,0,11.05c-1.02,0.2-1.8,0.47-2.58,0.49
	c-12.95,0.31-25.9,0.87-38.85,0.81C175.47,991.79,162.38,991.1,148.75,990.67z"/>
<path fill-rule="evenodd" clip-rule="evenodd" fill="#CDCDCE" d="M281.75,990.67c-0.16-1.3-0.36-2.26-0.38-3.22
	c-0.05-2.48-0.02-4.97-0.02-7.93c27.36,0,54.32,0,81.64,0c0,3.72,0,7.27,0,11.05c-1.02,0.2-1.8,0.47-2.58,0.49
	c-12.95,0.31-25.9,0.87-38.85,0.81C308.47,991.79,295.38,991.1,281.75,990.67z"/>
<path fill-rule="evenodd" clip-rule="evenodd" fill="#CDCDCE" d="M414.75,990.67c-0.16-1.3-0.36-2.26-0.38-3.22
	c-0.05-2.48-0.02-4.97-0.02-7.93c27.36,0,54.32,0,81.64,0c0,3.72,0,7.27,0,11.05c-1.02,0.2-1.8,0.47-2.58,0.49
	c-12.95,0.31-25.9,0.87-38.85,0.81C441.47,991.79,428.38,991.1,414.75,990.67z"/>
<path fill-rule="evenodd" clip-rule="evenodd" fill="#CDCDCE" d="M547.75,990.67c-0.16-1.3-0.36-2.26-0.38-3.22
	c-0.05-2.48-0.02-4.97-0.02-7.93c27.36,0,54.32,0,81.64,0c0,3.72,0,7.27,0,11.05c-1.02,0.2-1.8,0.47-2.58,0.49
	c-12.95,0.31-25.9,0.87-38.85,0.81C574.47,991.79,561.38,991.1,547.75,990.67z"/>
<path fill-rule="evenodd" clip-rule="evenodd" fill="#CDCDCE" d="M680.75,990.67c-0.16-1.3-0.36-2.26-0.38-3.22
	c-0.05-2.48-0.02-4.97-0.02-7.93c27.36,0,54.32,0,81.64,0c0,3.72,0,7.27,0,11.05c-1.02,0.2-1.8,0.47-2.58,0.49
	c-12.95,0.31-25.9,0.87-38.85,0.81C707.47,991.79,694.38,991.1,680.75,990.67z"/>
<path fill-rule="evenodd" clip-rule="evenodd" fill="#CDCDCE" d="M813.75,990.67c-0.16-1.3-0.36-2.26-0.38-3.22
	c-0.05-2.48-0.02-4.97-0.02-7.93c27.36,0,54.32,0,81.64,0c0,3.72,0,7.27,0,11.05c-1.02,0.2-1.8,0.47-2.58,0.49
	c-12.95,0.31-25.9,0.87-38.85,0.81C840.47,991.79,827.38,991.1,813.75,990.67z"/>
<path fill-rule="evenodd" clip-rule="evenodd" fill="#CDCDCE" d="M946.75,990.67c-0.16-1.3-0.36-2.26-0.38-3.22
	c-0.05-2.48-0.02-4.97-0.02-7.93c27.36,0,54.32,0,81.64,0c0,3.72,0,7.27,0,11.05c-1.02,0.2-1.8,0.47-2.58,0.49
	c-12.95,0.31-25.9,0.87-38.85,0.81C973.47,991.79,960.38,991.1,946.75,990.67z"/>
<path fill-rule="evenodd" clip-rule="evenodd" fill="#CDCDCE" d="M1079.75,990.67c-0.16-1.3-0.36-2.26-0.38-3.22
	c-0.05-2.48-0.02-4.97-0.02-7.93c27.36,0,54.32,0,81.64,0c0,3.72,0,7.27,0,11.05c-1.02,0.2-1.8,0.47-2.58,0.49
	c-12.95,0.31-25.9,0.87-38.85,0.81C1106.47,991.79,1093.38,991.1,1079.75,990.67z"/>
<path fill-rule="evenodd" clip-rule="evenodd" fill="#CDCDCE" d="M1212.75,990.67c-0.16-1.3-0.36-2.26-0.38-3.22
	c-0.05-2.48-0.02-4.97-0.02-7.93c27.36,0,54.32,0,81.64,0c0,3.72,0,7.27,0,11.05c-1.02,0.2-1.8,0.47-2.58,0.49
	c-12.95,0.31-25.9,0.87-38.85,0.81C1239.47,991.79,1226.38,991.1,1212.75,990.67z"/>
<path fill-rule="evenodd" clip-rule="evenodd" fill="#CDCDCE" d="M1345.75,990.67c-0.16-1.3-0.36-2.26-0.38-3.22
	c-0.05-2.48-0.02-4.97-0.02-7.93c27.36,0,54.32,0,81.64,0c0,3.72,0,7.27,0,11.05c-1.02,0.2-1.8,0.47-2.58,0.49
	c-12.95,0.31-25.9,0.87-38.85,0.81C1372.47,991.79,1359.38,991.1,1345.75,990.67z"/>
<path fill-rule="evenodd" clip-rule="evenodd" fill="#CDCDCE" d="M1478.75,990.67c-0.16-1.3-0.36-2.26-0.38-3.22
	c-0.05-2.48-0.02-4.97-0.02-7.93c27.36,0,54.32,0,81.64,0c0,3.72,0,7.27,0,11.05c-1.02,0.2-1.8,0.47-2.58,0.49
	c-12.95,0.31-25.9,0.87-38.85,0.81C1505.47,991.79,1492.38,991.1,1478.75,990.67z"/>
<path fill-rule="evenodd" clip-rule="evenodd" fill="#CDCDCE" d="M1611.75,990.67c-0.16-1.3-0.36-2.26-0.38-3.22
	c-0.05-2.48-0.02-4.97-0.02-7.93c27.36,0,54.32,0,81.64,0c0,3.72,0,7.27,0,11.05c-1.02,0.2-1.8,0.47-2.58,0.49
	c-12.95,0.31-25.9,0.87-38.85,0.81C1638.47,991.79,1625.38,991.1,1611.75,990.67z"/>
<path fill-rule="evenodd" clip-rule="evenodd" fill="#CDCDCE" d="M1744.75,990.67c-0.16-1.3-0.36-2.26-0.38-3.22
	c-0.05-2.48-0.02-4.97-0.02-7.93c27.36,0,54.32,0,81.64,0c0,3.72,0,7.27,0,11.05c-1.02,0.2-1.8,0.47-2.58,0.49
	c-12.95,0.31-25.9,0.87-38.85,0.81C1771.47,991.79,1758.38,991.1,1744.75,990.67z"/>
<path fill-rule="evenodd" clip-rule="evenodd" fill="#C6D88A" d="M1833.8,885.1c-2.98-0.28-5.96-0.79-8.94-0.79
	c-605.6-0.03-1211.2-0.03-1816.79-0.01c-2.39,0-4.77,0.16-7.16,0.25c0-49.95,0-99.89,0-149.84c21.7,2.15,33.49,0.61,55.2,1.51
	c8.57,0.36,27.08-1.24,35.66-1.25c229.35-0.35,458.7-0.29,688.05-0.26c351.33,0.04,702.67,0.1,1054,0.15
	C1833.81,784.94,1833.81,835.02,1833.8,885.1z"/>
<path fill-rule="evenodd" clip-rule="evenodd" fill="#87AE3F" d="M1664.92,823.32c0.19,0.03,0.37,0.07,0.56,0.11
	c3.73,0.77,7.55,2.55,10.89,4.33c10.26,5.44,15.69,14.43,17.98,25.56c0.16,0.76,0.35,1.51,0.71,3.11c3.38-3.17,7.65-4.65,12.18-5.19
	c2.61-0.31,5.25-0.37,7.88-0.51c2.32-0.12,4.71-0.06,6.43,1.74c1.48,1.55,2.51,4.81,5.18,4.51c2.25-0.25,2.36-2.67,3.9-3.77
	c1.61-1.14,3.62-0.01,4.01,1.77c0.42,1.9-0.74,4.33-1.62,5.96c-2.87,5.28-1.33,10.98-2.02,16.69c-0.04,0.36-0.12,2.24-0.75,2.29
	c-1.32,0.11-2.64,0.31-3.96,0.32c-45.02,0.07-90.04,0.12-135.06,0.15c-0.99,0-1.97-0.18-2.96-0.27c-2.8-7.87,0.02-14.6,5.09-20.23
	c8.07-8.96,18.39-9.6,29.54-6.08c1.51-8.8,5-16.39,11.88-21.6c2.9-2.19,6.09-3.94,9.23-5.76c3.08-1.8,6.38-3.56,10.04-3.48
	C1657.67,823.03,1661.34,822.69,1664.92,823.32z"/>
<path fill-rule="evenodd" clip-rule="evenodd" fill="#A3A3A3" d="M0.91,738.02c0-20.01,0-40.01,0-60.02
	c2.39-0.01,4.77-0.02,7.16-0.02c605.6,0,1211.19,0,1816.79,0c2.98,0,5.96,0.04,8.94,0.07c0.04,19.37,0.1,38.75,0.1,58.12
	c0,0.58-0.64,1.16-1.04,1.85C1221.85,738.02,611.38,738.02,0.91,738.02z"/>
<path fill-rule="evenodd" clip-rule="evenodd" fill="#D4D4D4" d="M1833.6,680.18c-114.52-0.03-229.04-0.07-343.55-0.07
	c-292.86,0-585.72-0.03-878.58,0.05c-61.99,0.02-123.98,0.71-185.97,0.69c-74.81-0.02-149.63-0.5-224.44-0.69
	c-9.8-0.03-19.6,0.75-29.4,0.71c-56.92-0.21-113.83-0.56-170.75-0.86c0-4.67,0-9.33,0-14c12.04-0.02,24.07-0.04,36.11-0.06
	c17.03,0.04,34.06,0.08,51.09,0.11c9.24-0.03,18.47-0.05,27.71-0.08c21.24-0.04,42.48-0.09,63.72-0.13
	c22.33,0.01,44.67,0.02,67,0.02c3.26,0.08,6.53,0.22,9.79,0.22c47.6,0.03,95.21,0.06,142.81,0.03c17.55-0.01,35.09-0.16,52.64-0.24
	c2.48,0,4.97-0.01,7.45-0.01c7.19,0.05,14.37,0.1,21.56,0.14c10.6-0.03,21.21-0.06,31.81-0.08c23.97,0.01,47.95,0.02,71.92,0.02
	c23.19-0.02,46.38-0.04,69.58-0.07c23.88,0.02,47.77,0.05,71.65,0.07c9.04-0.02,18.08-0.05,27.13-0.07
	c33.75,0.04,67.49,0.07,101.24,0.1c27.94-0.03,55.88-0.07,83.82-0.1c33.67,0.01,67.35,0.02,101.02,0.03
	c17.44-0.02,34.89-0.05,52.33-0.07c1.14,0,2.29,0,3.44,0c2.41,0,4.83,0,7.24,0.01c25.62,0.01,51.25,0.02,76.87,0.03
	c18.38,0.02,36.76,0.05,55.14,0.07c29.89-0.02,59.77-0.04,89.66-0.06c6.6,0.02,13.19,0.05,19.79,0.08
	c32.09,0.01,64.18,0.02,96.28,0.02c14.33-0.02,28.66-0.04,42.99-0.06c30.53-0.01,61.06-0.02,91.58-0.02
	c19.29-0.01,38.58-0.03,57.86-0.04c2.82,0.04,5.64,0.09,8.46,0.13c30.89,0.02,61.79,0.04,92.68,0.05
	c9.57-0.04,19.14-0.07,28.71-0.11c16.8,0.01,33.61,0.03,50.41,0.04c7.14,0,14.27,0,21.4,0
	C1833.75,670.73,1833.67,675.46,1833.6,680.18z"/>
<path fill-rule="evenodd" clip-rule="evenodd" fill="#FCFCFC" d="M339.11,219.84c0.89-6.61,1.3-12.91,2.64-19
	c4.7-21.3,21.7-38.08,46.65-39.64c9.87-0.62,19.02,2.59,27.34,7.99c1.35,0.88,2.71,1.74,3.98,2.55c2.13-7.37,3.59-14.71,6.33-21.53
	c8.85-21.98,24.17-37.33,47.61-43.14c26.7-6.62,53.44,4.15,69.39,27.05c6.41,9.21,10.27,19.33,11.99,30.35
	c0.1,0.64,0.33,1.27,0.54,1.89c0.04,0.13,0.25,0.19,0.93,0.68c18.14-19.61,40.08-26.09,64.91-14.58
	c24.57,11.38,33.34,32.97,33.35,59.45c1.83-0.61,3-0.95,4.15-1.38c22.2-8.41,47.35,3.02,52.39,27.36
	c4.2,20.29-6.59,38.83-26.04,44.5c-2.03,0.59-4.26,0.72-6.4,0.72c-116.96,0.04-233.93,0.06-350.9,0.04
	c-14.43,0-28.27-10.23-31.72-23.75c-4.73-18.52,6.73-35.94,24.36-39.21c4.78-0.89,9.85-0.27,14.78-0.33
	C336.68,219.82,337.97,219.84,339.11,219.84z"/>
<path fill-rule="evenodd" clip-rule="evenodd" fill="#FCFCFC" d="M717.43,343.33c0.12-29.78,26.96-40.15,45.97-27.34
	c0.54-2.19,1.01-4.18,1.53-6.16c4-15.08,12.48-26,28.25-29.91c18.8-4.65,36.94,5.08,43.69,23.33c1.02,2.75,1.83,5.58,2.91,8.92
	c11.02-10.06,23.09-13.76,36.83-7.38c13.9,6.45,17.47,19.07,18.6,33.19c2.19-0.47,3.95-0.81,5.68-1.22
	c12.1-2.9,23.49,4.64,25.79,17.27c1.7,9.31-4.16,22.48-17.1,24.17c-2.46,0.32-4.95,0.72-7.42,0.72
	c-62.32,0.04-124.63,0.05-186.95,0.02c-8.43,0-15.95-2.23-20.12-10.38c-5.95-11.62,1.95-24.97,15.02-25.56
	C712.42,342.9,714.75,343.2,717.43,343.33z"/>
<path fill-rule="evenodd" clip-rule="evenodd" fill="#FCFCFC" d="M874.35,74.75c10.04-10.87,21.04-13.62,33.61-7.78
	c12.46,5.79,15.72,17.18,17.07,29.6c3.79-0.24,7.21-0.58,10.62-0.65c9.63-0.21,18.19,8.85,18.04,18.95
	c-0.18,12.31-10.11,19.31-18.26,19.3c-59.3-0.13-118.59-0.05-177.89-0.08c-9.71-0.01-16.29-6.71-16.8-16.11
	c-0.43-7.99,4.53-15.39,15.56-16.74c1.89-0.23,3.89,0.37,6.37,0.65c0.51-10.66,2.72-20.53,12.46-26.39
	c9.66-5.82,19.34-4.93,29.08,1.42c3.58-18.38,12.25-32.25,32.31-33.86C858.15,41.33,868.86,54.47,874.35,74.75z"/>
<path fill-rule="evenodd" clip-rule="evenodd" fill="#FCFCFC" d="M1081.11,233.84c0.89-6.61,1.3-12.91,2.64-19
	c4.7-21.3,21.7-38.08,46.65-39.64c9.87-0.62,19.03,2.59,27.34,7.99c1.35,0.88,2.71,1.74,3.98,2.55c2.13-7.37,3.59-14.71,6.33-21.53
	c8.85-21.98,24.17-37.33,47.61-43.14c26.7-6.62,53.44,4.15,69.39,27.05c6.41,9.21,10.27,19.33,11.99,30.35
	c0.1,0.64,0.33,1.27,0.54,1.89c0.04,0.13,0.25,0.19,0.93,0.68c18.14-19.61,40.08-26.09,64.91-14.58
	c24.57,11.38,33.34,32.97,33.35,59.45c1.83-0.61,3-0.95,4.15-1.38c22.2-8.41,47.35,3.02,52.39,27.36
	c4.2,20.29-6.59,38.83-26.04,44.5c-2.03,0.59-4.26,0.72-6.4,0.72c-116.96,0.04-233.93,0.06-350.9,0.04
	c-14.43,0-28.27-10.23-31.72-23.75c-4.73-18.52,6.73-35.94,24.36-39.21c4.78-0.89,9.84-0.27,14.78-0.33
	C1078.68,233.82,1079.97,233.84,1081.11,233.84z"/>
<path fill-rule="evenodd" clip-rule="evenodd" fill="#FCFCFC" d="M1553.43,337.33c0.12-29.78,26.96-40.15,45.97-27.34
	c0.54-2.19,1.01-4.18,1.53-6.16c4-15.08,12.48-26,28.25-29.91c18.8-4.65,36.94,5.08,43.69,23.33c1.02,2.75,1.83,5.58,2.91,8.92
	c11.02-10.06,23.09-13.76,36.83-7.38c13.9,6.45,17.47,19.07,18.6,33.19c2.19-0.47,3.95-0.81,5.68-1.22
	c12.1-2.9,23.49,4.64,25.79,17.27c1.7,9.31-4.16,22.48-17.1,24.17c-2.46,0.32-4.95,0.72-7.42,0.72
	c-62.32,0.04-124.63,0.05-186.95,0.02c-8.43,0-15.95-2.23-20.12-10.38c-5.95-11.62,1.95-24.97,15.02-25.56
	C1548.42,336.9,1550.75,337.2,1553.43,337.33z"/>
<path fill-rule="evenodd" clip-rule="evenodd" fill="#FCFCFC" d="M1692.35,74.75c10.04-10.87,21.04-13.62,33.61-7.78
	c12.46,5.79,15.72,17.18,17.07,29.6c3.79-0.24,7.21-0.58,10.62-0.65c9.63-0.21,18.19,8.85,18.04,18.95
	c-0.18,12.31-10.11,19.31-18.26,19.3c-59.3-0.13-118.59-0.05-177.89-0.08c-9.71-0.01-16.29-6.71-16.8-16.11
	c-0.43-7.99,4.53-15.39,15.56-16.74c1.89-0.23,3.89,0.37,6.37,0.65c0.51-10.66,2.72-20.53,12.46-26.39
	c9.66-5.82,19.34-4.93,29.08,1.42c3.58-18.38,12.25-32.25,32.31-33.86C1676.15,41.33,1686.86,54.47,1692.35,74.75z"/>
<path fill-rule="evenodd" clip-rule="evenodd" fill="#FCFCFC" d="M86.46,108.35c-1.97-25.14,21.67-35.02,37.82-23.58
	c3.05-17.81,12.2-30.68,31.07-31.38c18.48-0.69,28.54,11.06,32.68,28.95c9.34-9.61,19.74-12.27,31.24-6.64
	c11.28,5.52,15.12,15.67,14.93,28.17c1.68-0.37,2.91-0.58,4.1-0.92c7.39-2.14,15.22,0,19.32,5.65c4.96,6.84,5.48,14.13,0.93,21.41
	c-3.55,5.69-9.02,8.02-15.66,8.01c-29.64-0.03-59.28,0-88.92,0.01c-24.15,0.01-48.29-0.01-72.44,0.03c-6.82,0.01-12-2.85-15-8.89
	c-4.66-9.41,2.35-20.52,13.16-21.13C81.83,107.93,83.98,108.23,86.46,108.35z"/>
<path fill-rule="evenodd" clip-rule="evenodd" fill="#87AE3F" d="M79.72,647.32c0.3,1.42,0.59,2.84,0.98,4.7
	c1.64-0.57,2.87-0.89,4.01-1.41c4.55-2.08,8.85-1.42,12.62,1.59c3.73,2.97,4.64,7.1,3.65,11.69c-0.14,0.65-0.19,1.32-0.28,1.98
	c-11.87,0.04-23.73,0.09-35.6,0.13c-0.11-0.98,0.15-2.4-0.4-2.88c-3.71-3.25-2.54-7.51-2.63-11.49c-0.13-5.79-0.11-11.58-0.15-17.37
	C70.9,634.46,75.92,640.06,79.72,647.32z"/>
<path fill-rule="evenodd" clip-rule="evenodd" fill="#87AE3F" d="M52.55,635.89c0.05,7.25,0.16,14.51,0.09,21.76
	c-0.01,1.19-0.76,2.37-1.19,3.55c-0.6,1.63-1.22,3.25-1.84,4.87c-9.51-0.04-19.03-0.08-28.54-0.11
	c-0.47-11.32,6.36-16.83,19.36-15.4C42.52,644.13,45.91,638.64,52.55,635.89z"/>
<g>
	<path fill-rule="evenodd" clip-rule="evenodd" fill="#3F3E3B" d="M1742.63,666.08c0.05-0.81-0.24-1.93,0.19-2.39
		c4.84-5.25,2.51-11.54,2.7-17.46c0.07-2.66-0.11-5.37,0.3-7.97c0.3-1.95,1.46-3.75,2.07-5.66c0.44-1.35,0.86-2.79,0.86-4.19
		c0.03-22.33,0.01-44.67-0.03-67c-0.01-7.48-0.94-8.4-8.33-8.09c-1.63,0.07-3.24,0.57-4.87,0.88c-5.54-0.02-11.08-0.04-16.62-0.05
		c-0.92-0.21-1.84-0.42-2.79-0.64c2.23-6.88,11.07-9.8,17.69-5.55c2.75,1.77,5.33,2.16,8.32,2.13c7.67-0.06,9.99,2.31,9.98,10.17
		c-0.02,22.26-0.07,44.53-0.09,66.79c0,2.42-0.46,4.86,2.09,6.73c0.87,0.63,0.86,2.73,0.91,4.17c0.16,4.64,0.17,9.29,0.23,13.94
		c0.34,3.05,0.48,6.15,1.1,9.14c0.36,1.74,1.52,3.31,2.31,4.96C1753.32,666.01,1747.98,666.05,1742.63,666.08z"/>
	<path fill-rule="evenodd" clip-rule="evenodd" fill="#F5CB69" d="M1718.91,554.13c5.54,0.02,11.08,0.04,16.62,0.05
		c-2.51,4.96-5.15,6.81-9.48,6.11C1722.52,559.73,1719.22,558.57,1718.91,554.13z"/>
</g>
<g>
	<path fill-rule="evenodd" clip-rule="evenodd" fill="#3F3E3B" d="M61.92,634.25c0.04,5.79,0.02,11.58,0.15,17.37
		c0.09,3.98-1.08,8.25,2.63,11.49c0.55,0.48,0.29,1.9,0.4,2.88c-5.16,0.03-10.32,0.05-15.48,0.08c0.61-1.62,1.24-3.24,1.84-4.87
		c0.43-1.18,1.18-2.36,1.19-3.55c0.06-7.25-0.04-14.51-0.09-21.76c4.18-3.48,3.08-8.26,3.08-12.73c0.01-20.96-0.04-41.92-0.04-62.88
		c0-7.61,2.6-10.25,10.09-10.25c3.15,0,5.9-0.27,8.8-2.31c5.97-4.2,14.1-1.56,17.28,5.34c-1.03,0.36-2.02,0.7-3.01,1.04
		c-5.34,0.03-10.68,0.05-16.02,0.08c-2.29-0.32-4.58-0.87-6.88-0.92c-5.17-0.1-6.84,1.62-6.91,6.77c-0.05,4.31,0,8.63,0,12.94
		c0.01,18.58,0.08,37.16-0.02,55.74C58.92,631.34,59.41,633.22,61.92,634.25z"/>
	<path fill-rule="evenodd" clip-rule="evenodd" fill="#F5CB69" d="M72.75,554.18c5.34-0.03,10.68-0.05,16.02-0.08
		c-1.24,4.73-2.57,5.86-7.05,5.99C76.58,560.23,74.41,558.8,72.75,554.18z"/>
</g>
<path fill-rule="evenodd" clip-rule="evenodd" fill="#CDCDCE" d="M15.63,709.71c-0.11-0.89-0.25-1.55-0.26-2.21
	c-0.03-1.71-0.01-3.41-0.01-5.45c18.8,0,37.33,0,56.1,0c0,2.55,0,4.99,0,7.59c-0.7,0.14-1.23,0.32-1.77,0.34
	c-8.9,0.22-17.8,0.6-26.7,0.55C33.99,710.48,24.99,710.01,15.63,709.71z"/>
<path fill-rule="evenodd" clip-rule="evenodd" fill="#CDCDCE" d="M107.02,709.71c-0.11-0.89-0.25-1.55-0.26-2.21
	c-0.03-1.71-0.01-3.41-0.01-5.45c18.8,0,37.33,0,56.1,0c0,2.55,0,4.99,0,7.59c-0.7,0.14-1.23,0.32-1.77,0.34
	c-8.9,0.22-17.8,0.6-26.7,0.55C125.38,710.48,116.39,710.01,107.02,709.71z"/>
<path fill-rule="evenodd" clip-rule="evenodd" fill="#CDCDCE" d="M198.42,709.71c-0.11-0.89-0.25-1.55-0.26-2.21
	c-0.03-1.71-0.01-3.41-0.01-5.45c18.8,0,37.33,0,56.1,0c0,2.55,0,4.99,0,7.59c-0.7,0.14-1.23,0.32-1.77,0.34
	c-8.9,0.22-17.8,0.6-26.7,0.55C216.78,710.48,207.78,710.01,198.42,709.71z"/>
<path fill-rule="evenodd" clip-rule="evenodd" fill="#CDCDCE" d="M289.81,709.71c-0.11-0.89-0.25-1.55-0.26-2.21
	c-0.03-1.71-0.01-3.41-0.01-5.45c18.8,0,37.33,0,56.1,0c0,2.55,0,4.99,0,7.59c-0.7,0.14-1.23,0.32-1.77,0.34
	c-8.9,0.22-17.8,0.6-26.7,0.55C308.17,710.48,299.17,710.01,289.81,709.71z"/>
<path fill-rule="evenodd" clip-rule="evenodd" fill="#CDCDCE" d="M381.2,709.71c-0.11-0.89-0.25-1.55-0.26-2.21
	c-0.03-1.71-0.01-3.41-0.01-5.45c18.8,0,37.33,0,56.1,0c0,2.55,0,4.99,0,7.59c-0.7,0.14-1.23,0.32-1.77,0.34
	c-8.9,0.22-17.8,0.6-26.7,0.55C399.56,710.48,390.57,710.01,381.2,709.71z"/>
<path fill-rule="evenodd" clip-rule="evenodd" fill="#CDCDCE" d="M472.6,709.71c-0.11-0.89-0.25-1.55-0.26-2.21
	c-0.03-1.71-0.01-3.41-0.01-5.45c18.8,0,37.33,0,56.1,0c0,2.55,0,4.99,0,7.59c-0.7,0.14-1.23,0.32-1.77,0.34
	c-8.9,0.22-17.8,0.6-26.7,0.55C490.96,710.48,481.96,710.01,472.6,709.71z"/>
<path fill-rule="evenodd" clip-rule="evenodd" fill="#CDCDCE" d="M563.99,709.71c-0.11-0.89-0.25-1.55-0.26-2.21
	c-0.03-1.71-0.01-3.41-0.01-5.45c18.8,0,37.33,0,56.1,0c0,2.55,0,4.99,0,7.59c-0.7,0.14-1.23,0.32-1.77,0.34
	c-8.9,0.22-17.8,0.6-26.7,0.55C582.35,710.48,573.35,710.01,563.99,709.71z"/>
<path fill-rule="evenodd" clip-rule="evenodd" fill="#CDCDCE" d="M655.38,709.71c-0.11-0.89-0.25-1.55-0.26-2.21
	c-0.03-1.71-0.01-3.41-0.01-5.45c18.8,0,37.33,0,56.1,0c0,2.55,0,4.99,0,7.59c-0.7,0.14-1.23,0.32-1.77,0.34
	c-8.9,0.22-17.8,0.6-26.7,0.55C673.74,710.48,664.75,710.01,655.38,709.71z"/>
<path fill-rule="evenodd" clip-rule="evenodd" fill="#CDCDCE" d="M746.78,709.71c-0.11-0.89-0.25-1.55-0.26-2.21
	c-0.03-1.71-0.01-3.41-0.01-5.45c18.8,0,37.33,0,56.1,0c0,2.55,0,4.99,0,7.59c-0.7,0.14-1.23,0.32-1.77,0.34
	c-8.9,0.22-17.8,0.6-26.7,0.55C765.14,710.48,756.14,710.01,746.78,709.71z"/>
<path fill-rule="evenodd" clip-rule="evenodd" fill="#CDCDCE" d="M838.17,709.71c-0.11-0.89-0.25-1.55-0.26-2.21
	c-0.03-1.71-0.01-3.41-0.01-5.45c18.8,0,37.33,0,56.1,0c0,2.55,0,4.99,0,7.59c-0.7,0.14-1.23,0.32-1.77,0.34
	c-8.9,0.22-17.8,0.6-26.7,0.55C856.53,710.48,847.54,710.01,838.17,709.71z"/>
<path fill-rule="evenodd" clip-rule="evenodd" fill="#CDCDCE" d="M929.56,709.71c-0.11-0.89-0.25-1.55-0.26-2.21
	c-0.03-1.71-0.01-3.41-0.01-5.45c18.8,0,37.33,0,56.1,0c0,2.55,0,4.99,0,7.59c-0.7,0.14-1.24,0.32-1.77,0.34
	c-8.9,0.22-17.8,0.6-26.7,0.55C947.93,710.48,938.93,710.01,929.56,709.71z"/>
<path fill-rule="evenodd" clip-rule="evenodd" fill="#CDCDCE" d="M1020.96,709.71c-0.11-0.89-0.25-1.55-0.26-2.21
	c-0.03-1.71-0.01-3.41-0.01-5.45c18.8,0,37.33,0,56.1,0c0,2.55,0,4.99,0,7.59c-0.7,0.14-1.24,0.32-1.77,0.34
	c-8.9,0.22-17.8,0.6-26.7,0.55C1039.32,710.48,1030.32,710.01,1020.96,709.71z"/>
<path fill-rule="evenodd" clip-rule="evenodd" fill="#CDCDCE" d="M1112.35,709.71c-0.11-0.89-0.25-1.55-0.26-2.21
	c-0.03-1.71-0.01-3.41-0.01-5.45c18.8,0,37.33,0,56.1,0c0,2.55,0,4.99,0,7.59c-0.7,0.14-1.24,0.32-1.77,0.34
	c-8.9,0.22-17.8,0.6-26.7,0.55C1130.71,710.48,1121.72,710.01,1112.35,709.71z"/>
<path fill-rule="evenodd" clip-rule="evenodd" fill="#CDCDCE" d="M1203.75,709.71c-0.11-0.89-0.25-1.55-0.26-2.21
	c-0.03-1.71-0.01-3.41-0.01-5.45c18.8,0,37.33,0,56.1,0c0,2.55,0,4.99,0,7.59c-0.7,0.14-1.23,0.32-1.77,0.34
	c-8.9,0.22-17.8,0.6-26.7,0.55C1222.11,710.48,1213.11,710.01,1203.75,709.71z"/>
<path fill-rule="evenodd" clip-rule="evenodd" fill="#CDCDCE" d="M1295.02,709.71c-0.11-0.89-0.25-1.55-0.26-2.21
	c-0.03-1.71-0.01-3.41-0.01-5.45c18.8,0,37.33,0,56.1,0c0,2.55,0,4.99,0,7.59c-0.7,0.14-1.23,0.32-1.77,0.34
	c-8.9,0.22-17.8,0.6-26.7,0.55C1313.38,710.48,1304.38,710.01,1295.02,709.71z"/>
<path fill-rule="evenodd" clip-rule="evenodd" fill="#CDCDCE" d="M1386.41,709.71c-0.11-0.89-0.25-1.55-0.26-2.21
	c-0.03-1.71-0.01-3.41-0.01-5.45c18.8,0,37.33,0,56.1,0c0,2.55,0,4.99,0,7.59c-0.7,0.14-1.23,0.32-1.77,0.34
	c-8.9,0.22-17.8,0.6-26.7,0.55C1404.77,710.48,1395.78,710.01,1386.41,709.71z"/>
<path fill-rule="evenodd" clip-rule="evenodd" fill="#CDCDCE" d="M1477.81,709.71c-0.11-0.89-0.25-1.55-0.26-2.21
	c-0.03-1.71-0.01-3.41-0.01-5.45c18.8,0,37.33,0,56.1,0c0,2.55,0,4.99,0,7.59c-0.7,0.14-1.24,0.32-1.77,0.34
	c-8.9,0.22-17.8,0.6-26.7,0.55C1496.17,710.48,1487.17,710.01,1477.81,709.71z"/>
<path fill-rule="evenodd" clip-rule="evenodd" fill="#CDCDCE" d="M1569.2,709.71c-0.11-0.89-0.25-1.55-0.26-2.21
	c-0.03-1.71-0.01-3.41-0.01-5.45c18.8,0,37.33,0,56.1,0c0,2.55,0,4.99,0,7.59c-0.7,0.14-1.24,0.32-1.77,0.34
	c-8.9,0.22-17.8,0.6-26.7,0.55C1587.56,710.48,1578.56,710.01,1569.2,709.71z"/>
<path fill-rule="evenodd" clip-rule="evenodd" fill="#CDCDCE" d="M1660.59,709.71c-0.11-0.89-0.25-1.55-0.26-2.21
	c-0.03-1.71-0.01-3.41-0.01-5.45c18.8,0,37.33,0,56.1,0c0,2.55,0,4.99,0,7.59c-0.7,0.14-1.24,0.32-1.77,0.34
	c-8.9,0.22-17.8,0.6-26.7,0.55C1678.95,710.48,1669.96,710.01,1660.59,709.71z"/>
<path fill-rule="evenodd" clip-rule="evenodd" fill="#CDCDCE" d="M1751.99,709.71c-0.11-0.89-0.25-1.55-0.26-2.21
	c-0.03-1.71-0.01-3.41-0.01-5.45c18.8,0,37.33,0,56.1,0c0,2.55,0,4.99,0,7.59c-0.7,0.14-1.23,0.32-1.77,0.34
	c-8.9,0.22-17.8,0.6-26.7,0.55C1770.35,710.48,1761.35,710.01,1751.99,709.71z"/>
<g>
	<path fill-rule="evenodd" clip-rule="evenodd" fill="#3F3E3B" d="M1680.98,736.02c0.14,19.26,0.36,38.52,0.39,57.78
		c0.02,8.96-0.32,17.93-0.48,26.89c-0.04,2.15-0.01,4.29-0.01,6.73c4.9,1.9,5.67,5.87,5.62,10.53c-0.15,12.95-0.05,25.9-0.05,38.78
		c1.72,1.25,3.32,2.4,4.91,3.55c0.16,2.09,0.33,4.18,0.52,6.67c-9.08,0-17.71,0-26.79,0c0-2.25,0-4.49,0-6.73
		c1.48-1.02,2.97-2.04,4.82-3.31c0-12.16-0.01-24.63,0.01-37.1c0.01-4.6-0.9-9.5,4.5-12.24c0.63-0.32,0.74-2.1,0.74-3.2
		c-0.04-29.46-0.12-58.93-0.19-88.39c0.03-10.09,0.13-20.18,0.04-30.27c-0.05-5.49-3.22-8.8-8.58-8.73
		c-4.57,0.06-9.13,0.75-13.7,1.15c-9.94-0.01-19.87-0.03-29.81-0.04c-1.47-0.07-2.94-0.15-5.58-0.28c0.86-2.27,1.2-4.33,2.3-5.84
		c2.75-3.79,6.81-5.92,11.31-6.65c7.99-1.31,15.88-1.6,22.46,4.6c0.83,0.79,2.35,1.06,3.59,1.16c2.31,0.19,4.64,0.07,6.96,0.08
		c10.64,0.04,15.07,3.64,17.17,13.96c0,2.61-0.01,5.23-0.01,7.84C1681.06,720.63,1681.02,728.33,1680.98,736.02z"/>
	<path fill-rule="evenodd" clip-rule="evenodd" fill="#F5CB69" d="M1649.71,704.72c-2.43,1.39-4.72,3.14-7.31,4.11
		c-6.47,2.42-12.01-0.18-17.23-3.83c-0.75-2.3-1.49-4.6-2.24-6.9c9.94,0.01,19.87,0.03,29.81,0.04
		C1651.73,700.33,1650.72,702.52,1649.71,704.72z"/>
</g>
<g>
	<path fill-rule="evenodd" clip-rule="evenodd" fill="#3F3E3B" d="M332.08,787.05c0,13.32,0,26.63,0,40.35
		c4.5,2.15,5.35,6.23,5.28,11.07c-0.18,12.65-0.06,25.31-0.06,38.12c1.52,1.39,3.21,2.93,4.89,4.46c0,1.82,0,3.64,0,5.91
		c-8.84,0-17.52,0-26.84,0c0.17-2.35,0.32-4.59,0.48-6.84c1.51-0.98,3.02-1.97,5.01-3.26c0-8.92,0-18.23,0-27.53
		c0-4.17,0.17-8.34-0.04-12.49c-0.21-4.24,0.97-7.55,5.31-9.31c0-1.78,0-3.43,0-5.09c0.01-26.99,0.02-53.98,0.02-80.97
		c0-1.83-0.11-3.66-0.17-5.49c-0.07-7.68-0.14-15.35-0.2-23.03c0.01-2.63,0.02-5.26,0.03-7.89c1.49-9.92,6.02-13.87,15.99-13.93
		c1.66-0.01,3.33-0.06,4.98,0.01c3.71,0.16,6.81-0.5,10.03-3.02c7.84-6.11,22.44-4.86,29.68,1.92c2.07,1.94,4.1,4,3.18,7.8
		c-1.47,0.07-3.06,0.14-4.66,0.22c-9.95-0.02-19.91-0.04-29.86-0.06c-5.08-0.33-10.16-0.86-15.25-0.93
		c-5.1-0.07-7.46,2.58-7.78,8.01c0.02,2.61,0.03,5.22,0.05,7.82c-0.05,7.66-0.1,15.33-0.15,22.99c0.03,15.69,0.06,31.37,0.09,47.06
		C332.09,784.33,332.09,785.69,332.08,787.05z"/>
	<path fill-rule="evenodd" clip-rule="evenodd" fill="#F5CB69" d="M355.14,698.02c9.95,0.02,19.91,0.04,29.86,0.06
		c-0.77,6.27-5.3,10.33-13.11,11.35C364.67,710.37,355.5,705.34,355.14,698.02z"/>
</g>
<path fill-rule="evenodd" clip-rule="evenodd" fill="#87AE3F" d="M71.77,880.13c-3.16-16.42,11.73-33.5,34.72-26.37
	c5.36-20.35,18.29-32.21,39.8-30.42c18.98,1.59,29.73,13.8,33.22,32.61c3.03-1.38,5.61-2.9,8.39-3.77
	c7.78-2.45,15.22-1.81,21.47,3.89c6.56,5.98,7.84,13.56,5.78,21.92c-0.2,0.81-0.42,1.61-0.63,2.41c-3.31,0.1-6.63,0.29-9.94,0.29
	c-38.12,0.01-76.24,0.02-114.35-0.03C84.06,880.66,77.92,880.31,71.77,880.13z"/>
<path fill-rule="evenodd" clip-rule="evenodd" fill="#87AE3F" d="M868.5,822.94c3.8,1.59,7.76,2.9,11.38,4.82
	c10.26,5.44,15.69,14.43,17.98,25.56c0.16,0.76,0.35,1.51,0.71,3.11c7.26-6.8,16.14-4.89,24.6-6.1c2.45,2.64,5.11,5.51,7.82,8.42
	c2.97-2.42,1.41-7.29,5.7-8.62c2.5,2.59,0.83,5.21-0.26,7.27c-1.77,3.35-2.31,6.4-1.73,10.28c0.59,3.95-0.55,8.16-0.93,12.26
	c-1.32,0.11-2.64,0.31-3.96,0.32c-45.02,0.07-90.04,0.12-135.06,0.15c-0.99,0-1.97-0.18-2.96-0.27c-2.8-7.87,0.02-14.6,5.09-20.23
	c8.07-8.96,18.39-9.6,29.54-6.08c1.51-8.8,5-16.39,11.88-21.6c4.82-3.65,10.49-6.18,15.78-9.21
	C858.89,822.97,863.69,822.96,868.5,822.94z"/>
<path fill-rule="evenodd" clip-rule="evenodd" fill="#87AE3F" d="M808.5,822.94c3.8,1.59,7.76,2.9,11.38,4.82
	c10.26,5.44,15.69,14.43,17.98,25.56c0.16,0.76,0.35,1.51,0.71,3.11c7.26-6.8,16.14-4.89,24.6-6.1c2.45,2.64,5.11,5.51,7.82,8.42
	c2.97-2.42,1.41-7.29,5.7-8.62c2.5,2.59,0.83,5.21-0.26,7.27c-1.77,3.35-2.31,6.4-1.73,10.28c0.59,3.95-0.55,8.16-0.93,12.26
	c-1.32,0.11-2.64,0.31-3.96,0.32c-45.02,0.07-90.04,0.12-135.06,0.15c-0.99,0-1.97-0.18-2.96-0.27c-2.8-7.87,0.02-14.6,5.09-20.23
	c8.07-8.96,18.39-9.6,29.54-6.08c1.51-8.8,5-16.39,11.88-21.6c4.82-3.65,10.49-6.18,15.78-9.21
	C798.89,822.97,803.7,822.96,808.5,822.94z"/>
<g>
	<path fill-rule="evenodd" clip-rule="evenodd" fill="#87AE3F" d="M516.4,848.88c12.89-1.22,22.56-8.3,31.25-17.16
		c0.86-2.18,1.62-4.41,2.6-6.53c9-19.33,8.05-37.67-4.97-55.09c-1.74-2.34-2.41-5.72-2.85-8.73c-0.46-3.18,0.21-6.51-0.06-9.73
		c-2-23.9-24.79-37.52-44.48-26.42c-12.13,6.84-16.09,18.1-15.94,31.47c0.05,3.91,0.15,8.91-2.03,11.56
		c-8.56,10.43-11.72,22.32-11.99,35.37c2.21,18.8,11.16,33.07,28.4,41.5c3.35,1.64,7.21,2.23,10.83,3.31L516.4,848.88z"/>
	<path fill-rule="evenodd" clip-rule="evenodd" fill="#3F3E3B" d="M517.49,847.56c-0.06,10.38-0.12,20.76-0.2,31.14
		c-0.01,1.81-0.16,3.62-0.25,5.42c-2.05-0.02-4.1-0.04-6.16-0.06c-0.17-12.19-0.34-24.39-0.52-36.58
		c0.07-7.65,0.14-15.29,0.21-22.94c0.01-1.16,0.03-2.33,0.04-3.49c0.03-2.2,1.07-3.43,3.35-3.41c2.29,0.02,3.27,1.3,3.27,3.49
		c0,5.49-0.04,10.98,0,16.46C517.26,840.92,517.4,844.24,517.49,847.56z"/>
</g>
<g>
	<path fill-rule="evenodd" clip-rule="evenodd" fill="#87AE3F" d="M1330.4,848.88c12.89-1.22,22.56-8.3,31.25-17.16
		c0.86-2.18,1.62-4.41,2.6-6.53c9-19.33,8.05-37.67-4.97-55.09c-1.74-2.34-2.41-5.72-2.85-8.73c-0.46-3.18,0.21-6.51-0.06-9.73
		c-2-23.9-24.79-37.52-44.48-26.42c-12.13,6.84-16.09,18.1-15.94,31.47c0.05,3.91,0.15,8.91-2.03,11.56
		c-8.56,10.43-11.72,22.32-11.99,35.37c2.21,18.8,11.16,33.07,28.4,41.5c3.35,1.64,7.21,2.23,10.83,3.31L1330.4,848.88z"/>
	<path fill-rule="evenodd" clip-rule="evenodd" fill="#3F3E3B" d="M1331.49,847.56c-0.06,10.38-0.12,20.76-0.2,31.14
		c-0.01,1.81-0.16,3.62-0.25,5.42c-2.05-0.02-4.1-0.04-6.16-0.06c-0.17-12.19-0.34-24.39-0.52-36.58
		c0.07-7.65,0.14-15.29,0.21-22.94c0.01-1.16,0.03-2.33,0.04-3.49c0.03-2.2,1.07-3.43,3.35-3.41c2.29,0.02,3.27,1.3,3.27,3.49
		c0,5.49-0.04,10.98,0,16.46C1331.26,840.92,1331.4,844.24,1331.49,847.56z"/>
</g>
<g>
	<path fill-rule="evenodd" clip-rule="evenodd" fill="#55B3CE" d="M413.44,665.98c-13.39-0.01-26.79-0.02-40.18-0.02
		c-0.16-7.65-0.45-15.29-0.46-22.94c-0.03-18.63,0.08-37.26,0.13-55.88c0.11-1.99,0.33-3.98,0.33-5.97
		c0.02-43.45,0.02-86.91,0.02-130.36c0-21.64,0.01-43.28,0.01-64.92c0-1.65,0-3.3,0-5.9c3.42,0,6.5,0,9.57,0
		c33.21,0.01,66.42,0.01,99.63,0.02c2.98,0,5.97,0,9.98,0c0,64.2,0,128.06,0,191.93c-0.05,1.99-0.13,3.98-0.13,5.96
		c-0.01,29.36-0.01,58.72-0.01,88.08c-13.34-0.02-26.68-0.05-40.03-0.07c-0.29-12.8-0.57-25.6-0.88-38.4
		c-0.02-0.62-0.33-1.23-0.55-2c-12.35,0-24.53,0-37.44,0C413.44,639.12,413.44,652.55,413.44,665.98z M419.55,391.24
		c0.3,4.64,0.8,8.72,0.78,12.8c-0.21,36.79-0.67,73.58-0.73,110.38c-0.04,22.46,0.53,44.93,0.76,67.39c0.09,8.83,0,17.66,0.03,26.49
		c0.01,1.76,0.21,3.51,0.34,5.68c2.79-0.14,4.99-0.26,7.12-0.37c0-74.46,0-148.32,0-222.38
		C425.08,391.24,422.79,391.24,419.55,391.24z M437.91,391.38c0,74.55,0,148.39,0,222.69c2.75-0.18,4.96-0.32,6.97-0.45
		c0-74.49,0-148.33,0-222.24C442.28,391.38,440.19,391.38,437.91,391.38z M402.99,391.26c0,74.47,0,148.41,0,222.44
		c1.48,0.12,2.47,0.29,3.45,0.26c1.12-0.04,2.23-0.27,3.44-0.42c0-74.21,0-148.15,0-222.27
		C407.41,391.26,405.45,391.26,402.99,391.26z M392.89,613.64c0-74.52,0-148.36,0-222.64c-2.73,0.17-4.94,0.3-6.99,0.42
		c0,74.47,0,148.3,0,222.22C388.48,613.64,390.58,613.64,392.89,613.64z M472.76,391.4c0,74.2,0,148.04,0,221.82
		c6.75,1.45,7.53,0.9,7.53-5.21c0.02-70.63,0.03-141.26,0.03-211.89c0-1.58-0.24-3.15-0.37-4.71
		C477.23,391.4,475.14,391.4,472.76,391.4z M462.15,391.79c-6.93-1.36-7.69-0.87-7.6,5.29c0.19,12.96,0.66,25.92,0.75,38.89
		c0.13,18.6,0.1,37.2-0.02,55.79c-0.05,8.42-0.72,16.84-0.69,25.26c0.03,10.3,0.58,20.59,0.74,30.9c0.13,8.66,0.12,17.32-0.01,25.97
		c-0.08,5.47-0.72,10.94-0.69,16.41c0.03,7.73,0.45,15.46,0.7,23.26c2.77,0,4.65,0,6.83,0
		C462.15,539.47,462.15,465.76,462.15,391.79z"/>
	<path fill-rule="evenodd" clip-rule="evenodd" fill="#3380A4" d="M482.49,380c-33.21-0.01-66.42-0.02-99.63-0.02
		c0-3.31,0-6.63,0-10.52c2.92-0.18,5.83-0.36,9.29-0.58c0.19-3.24,0.38-6.47,0.6-10.41c20.17,0,40.21,0,60.67,0
		c0.12-2.64,0.27-4.59,0.28-6.53c0.04-12.83,0.08-25.66,0.06-38.48c0-2.97,0.57-5.01,4.8-3.47c0,15.82,0,31.73,0,48.23
		c4.97,0,9.37,0,14.26,0c0.21,3.78,0.4,7.01,0.6,10.64c2.92,0.18,5.66,0.35,9.06,0.55C482.49,373.1,482.49,376.55,482.49,380z"/>
	<path fill-rule="evenodd" clip-rule="evenodd" fill="#3380A4" d="M413.44,665.98c0-13.43,0-26.86,0-40.46c12.9,0,25.09,0,37.44,0
		c0.22,0.77,0.54,1.38,0.55,2c0.31,12.8,0.59,25.6,0.88,38.4C439.35,665.93,426.4,665.95,413.44,665.98z"/>
	<path fill-rule="evenodd" clip-rule="evenodd" fill="#3380A4" d="M419.55,391.24c3.24,0,5.54,0,8.31,0c0,74.06,0,147.92,0,222.38
		c-2.13,0.11-4.34,0.22-7.12,0.37c-0.14-2.17-0.34-3.93-0.34-5.68c-0.03-8.83,0.06-17.66-0.03-26.49
		c-0.23-22.46-0.8-44.93-0.76-67.39c0.06-36.79,0.52-73.58,0.73-110.38C420.35,399.96,419.84,395.88,419.55,391.24z"/>
	<path fill-rule="evenodd" clip-rule="evenodd" fill="#3380A4" d="M437.91,391.38c2.27,0,4.36,0,6.97,0c0,73.91,0,147.76,0,222.24
		c-2.01,0.13-4.22,0.27-6.97,0.45C437.91,539.77,437.91,465.93,437.91,391.38z"/>
	<path fill-rule="evenodd" clip-rule="evenodd" fill="#3380A4" d="M402.99,391.26c2.45,0,4.41,0,6.89,0c0,74.12,0,148.06,0,222.27
		c-1.21,0.16-2.32,0.38-3.44,0.42c-0.98,0.04-1.97-0.14-3.45-0.26C402.99,539.67,402.99,465.73,402.99,391.26z"/>
	<path fill-rule="evenodd" clip-rule="evenodd" fill="#3380A4" d="M392.89,613.64c-2.31,0-4.41,0-6.99,0c0-73.91,0-147.75,0-222.22
		c2.05-0.13,4.26-0.26,6.99-0.42C392.89,465.28,392.89,539.11,392.89,613.64z"/>
	<path fill-rule="evenodd" clip-rule="evenodd" fill="#3380A4" d="M472.76,391.4c2.39,0,4.48,0,7.18,0
		c0.13,1.56,0.37,3.14,0.37,4.71c0.01,70.63-0.01,141.26-0.03,211.89c0,6.11-0.78,6.66-7.53,5.21
		C472.76,539.45,472.76,465.6,472.76,391.4z"/>
	<path fill-rule="evenodd" clip-rule="evenodd" fill="#3380A4" d="M462.15,391.79c0,73.98,0,147.68,0,221.77c-2.17,0-4.06,0-6.83,0
		c-0.25-7.8-0.67-15.53-0.7-23.26c-0.02-5.47,0.61-10.94,0.69-16.41c0.13-8.66,0.14-17.32,0.01-25.97
		c-0.16-10.3-0.71-20.6-0.74-30.9c-0.02-8.42,0.64-16.84,0.69-25.26c0.12-18.6,0.15-37.2,0.02-55.79
		c-0.09-12.96-0.55-25.92-0.75-38.89C454.46,390.92,455.23,390.43,462.15,391.79z"/>
</g>
<g>
	<path fill-rule="evenodd" clip-rule="evenodd" fill="#55B3CE" d="M1394.39,665.98c-13.39-0.01-26.79-0.02-40.18-0.02
		c-0.16-7.65-0.45-15.29-0.46-22.94c-0.03-18.63,0.08-37.26,0.13-55.88c0.11-1.99,0.33-3.98,0.33-5.97
		c0.02-43.45,0.02-86.91,0.02-130.36c0-21.64,0.01-43.28,0.01-64.92c0-1.65,0-3.3,0-5.9c3.42,0,6.5,0,9.57,0
		c33.21,0.01,66.42,0.01,99.63,0.02c2.98,0,5.97,0,9.98,0c0,64.2,0,128.06,0,191.93c-0.05,1.99-0.13,3.98-0.13,5.96
		c-0.01,29.36-0.01,58.72-0.01,88.08c-13.34-0.02-26.68-0.05-40.03-0.07c-0.29-12.8-0.57-25.6-0.88-38.4
		c-0.02-0.62-0.33-1.23-0.55-2c-12.35,0-24.53,0-37.44,0C1394.39,639.12,1394.39,652.55,1394.39,665.98z M1400.5,391.24
		c0.3,4.64,0.8,8.72,0.78,12.8c-0.21,36.79-0.67,73.58-0.73,110.38c-0.04,22.46,0.53,44.93,0.76,67.39c0.09,8.83,0,17.66,0.04,26.49
		c0.01,1.76,0.21,3.51,0.34,5.68c2.79-0.14,4.99-0.26,7.12-0.37c0-74.46,0-148.32,0-222.38
		C1406.03,391.24,1403.74,391.24,1400.5,391.24z M1418.86,391.38c0,74.55,0,148.39,0,222.69c2.75-0.18,4.96-0.32,6.97-0.45
		c0-74.49,0-148.33,0-222.24C1423.23,391.38,1421.14,391.38,1418.86,391.38z M1383.94,391.26c0,74.47,0,148.41,0,222.44
		c1.48,0.12,2.47,0.29,3.45,0.26c1.12-0.04,2.23-0.27,3.44-0.42c0-74.21,0-148.15,0-222.27
		C1388.36,391.26,1386.4,391.26,1383.94,391.26z M1373.84,613.64c0-74.52,0-148.36,0-222.64c-2.73,0.17-4.94,0.3-6.99,0.42
		c0,74.47,0,148.3,0,222.22C1369.44,613.64,1371.53,613.64,1373.84,613.64z M1453.71,391.4c0,74.2,0,148.04,0,221.82
		c6.75,1.45,7.53,0.9,7.53-5.21c0.02-70.63,0.03-141.26,0.03-211.89c0-1.58-0.24-3.15-0.37-4.71
		C1458.19,391.4,1456.1,391.4,1453.71,391.4z M1443.1,391.79c-6.93-1.36-7.69-0.87-7.6,5.29c0.2,12.96,0.66,25.92,0.75,38.89
		c0.13,18.6,0.1,37.2-0.02,55.79c-0.05,8.42-0.72,16.84-0.69,25.26c0.03,10.3,0.58,20.59,0.74,30.9c0.13,8.66,0.12,17.32-0.01,25.97
		c-0.08,5.47-0.72,10.94-0.69,16.41c0.03,7.73,0.45,15.46,0.7,23.26c2.77,0,4.66,0,6.83,0
		C1443.1,539.47,1443.1,465.76,1443.1,391.79z"/>
	<path fill-rule="evenodd" clip-rule="evenodd" fill="#3380A4" d="M1463.44,380c-33.21-0.01-66.42-0.02-99.63-0.02
		c0-3.31,0-6.63,0-10.52c2.92-0.18,5.83-0.36,9.29-0.58c0.19-3.24,0.38-6.47,0.6-10.41c20.17,0,40.21,0,60.67,0
		c0.12-2.64,0.27-4.59,0.28-6.53c0.04-12.83,0.08-25.66,0.06-38.48c0-2.97,0.57-5.01,4.8-3.47c0,15.82,0,31.73,0,48.23
		c4.97,0,9.37,0,14.26,0c0.21,3.78,0.4,7.01,0.6,10.64c2.92,0.18,5.66,0.35,9.06,0.55C1463.44,373.1,1463.44,376.55,1463.44,380z"/>
	<path fill-rule="evenodd" clip-rule="evenodd" fill="#3380A4" d="M1394.39,665.98c0-13.43,0-26.86,0-40.46c12.9,0,25.09,0,37.44,0
		c0.22,0.77,0.54,1.38,0.55,2c0.31,12.8,0.59,25.6,0.88,38.4C1420.3,665.93,1407.35,665.95,1394.39,665.98z"/>
	<path fill-rule="evenodd" clip-rule="evenodd" fill="#3380A4" d="M1400.5,391.24c3.24,0,5.54,0,8.31,0c0,74.06,0,147.92,0,222.38
		c-2.13,0.11-4.34,0.22-7.12,0.37c-0.14-2.17-0.34-3.93-0.34-5.68c-0.03-8.83,0.06-17.66-0.04-26.49
		c-0.23-22.46-0.79-44.93-0.76-67.39c0.06-36.79,0.52-73.58,0.73-110.38C1401.3,399.96,1400.79,395.88,1400.5,391.24z"/>
	<path fill-rule="evenodd" clip-rule="evenodd" fill="#3380A4" d="M1418.86,391.38c2.27,0,4.36,0,6.97,0c0,73.91,0,147.76,0,222.24
		c-2.01,0.13-4.22,0.27-6.97,0.45C1418.86,539.77,1418.86,465.93,1418.86,391.38z"/>
	<path fill-rule="evenodd" clip-rule="evenodd" fill="#3380A4" d="M1383.94,391.26c2.45,0,4.42,0,6.89,0c0,74.12,0,148.06,0,222.27
		c-1.21,0.16-2.32,0.38-3.44,0.42c-0.98,0.04-1.97-0.14-3.45-0.26C1383.94,539.67,1383.94,465.73,1383.94,391.26z"/>
	<path fill-rule="evenodd" clip-rule="evenodd" fill="#3380A4" d="M1373.84,613.64c-2.31,0-4.41,0-6.99,0c0-73.91,0-147.75,0-222.22
		c2.05-0.13,4.26-0.26,6.99-0.42C1373.84,465.28,1373.84,539.11,1373.84,613.64z"/>
	<path fill-rule="evenodd" clip-rule="evenodd" fill="#3380A4" d="M1453.71,391.4c2.39,0,4.48,0,7.18,0
		c0.13,1.56,0.37,3.14,0.37,4.71c0.01,70.63-0.01,141.26-0.03,211.89c0,6.11-0.78,6.66-7.53,5.21
		C1453.71,539.45,1453.71,465.6,1453.71,391.4z"/>
	<path fill-rule="evenodd" clip-rule="evenodd" fill="#3380A4" d="M1443.1,391.79c0,73.98,0,147.68,0,221.77c-2.17,0-4.06,0-6.83,0
		c-0.25-7.8-0.67-15.53-0.7-23.26c-0.03-5.47,0.61-10.94,0.69-16.41c0.13-8.66,0.14-17.32,0.01-25.97
		c-0.16-10.3-0.71-20.6-0.74-30.9c-0.02-8.42,0.64-16.84,0.69-25.26c0.12-18.6,0.15-37.2,0.02-55.79
		c-0.09-12.96-0.55-25.92-0.75-38.89C1435.41,390.92,1436.18,390.43,1443.1,391.79z"/>
</g>
<g>
	<path fill-rule="evenodd" clip-rule="evenodd" fill="#F5CB69" d="M776.48,588.18c-0.04-6.08-0.08-12.16-0.11-18.24
		c0.03-25.5,0.04-50.99,0.09-76.48c0.03-14.5,0.12-28.99,0.18-43.49c43.09,0,86.18,0,129.27,0c0.11,2.16,0.33,4.31,0.33,6.47
		c0.02,39.63,0.02,79.25,0.04,118.87c0,2.16,0.2,4.31,0.31,6.47c-0.07,2.15-0.21,4.31-0.21,6.46c-0.03,25.89-0.03,51.79-0.04,77.68
		c-16.69,0.02-33.39,0.04-50.08,0.06c0-14.06,0-28.12,0-42.32c-10.65,0-20.62,0-30.81,0c0,14.38,0,28.32,0,42.25
		c-14.31-0.01-28.63-0.02-42.94-0.03l-5.97-0.01c0-6.52-0.01-13.04-0.01-19.57L776.48,588.18z M850.78,555.88
		c-6.49,0-12.55,0-18.75,0c0,11.6,0,22.8,0,34.26c6.35,0,12.4,0,18.75,0C850.78,578.63,850.78,567.42,850.78,555.88z M831.98,499.25
		c6.46,0,12.65,0,18.65,0c0-11.61,0-22.79,0-33.95c-6.44,0-12.37,0-18.65,0C831.98,476.61,831.98,487.68,831.98,499.25z
		 M810.3,590.22c0-11.52,0-22.77,0-34.37c-6.25,0-12.3,0-18.54,0c0,11.55,0,22.79,0,34.37C798.02,590.22,804.07,590.22,810.3,590.22
		z M850.73,510.36c-6.35,0-12.39,0-18.74,0c0,11.65,0,22.9,0,34.41c6.32,0,12.38,0,18.74,0
		C850.73,533.18,850.73,521.79,850.73,510.36z M872.54,465.19c0,11.6,0,22.7,0,34.15c6.24,0,12.28,0,18.35,0
		c0-11.58,0-22.79,0-34.15C884.72,465.19,878.93,465.19,872.54,465.19z M810.31,510.33c-6.42,0-12.31,0-18.49,0
		c0,11.66,0,23.02,0,34.37c6.37,0,12.41,0,18.49,0C810.31,533.12,810.31,521.99,810.31,510.33z M791.83,465.3
		c0,11.47,0,22.67,0,34.12c6.37,0,12.4,0,18.43,0c0-11.6,0-22.81,0-34.12C803.95,465.3,798.04,465.3,791.83,465.3z M890.92,544.83
		c0-11.85,0-23.18,0-34.48c-6.29,0-12.19,0-18.18,0c0,11.66,0,22.99,0,34.48C878.9,544.83,884.67,544.83,890.92,544.83z
		 M872.57,590.14c6.38,0,12.4,0,18.26,0c0-11.65,0-22.85,0-34.02c-6.3,0-12.19,0-18.26,0C872.57,567.56,872.57,578.65,872.57,590.14
		z"/>
	<path fill-rule="evenodd" clip-rule="evenodd" fill="#B44B40" d="M905.91,449.97c-43.09,0-86.18,0-129.27,0
		c-2.6-0.21-5.21-0.43-8-0.66c0-3.41,0-6.51,0-10.08c48.42,0,96.67,0,145.19,0c0.13,1.1,0.33,2.22,0.36,3.34
		c0.06,2.13,0.02,4.25,0.02,6.59C911.11,449.45,908.51,449.71,905.91,449.97z"/>
	<path fill-rule="evenodd" clip-rule="evenodd" fill="#3F3E3B" d="M825.44,665.91c0-13.93,0-27.87,0-42.25c10.18,0,20.16,0,30.81,0
		c0,14.2,0,28.26,0,42.32C845.98,665.96,835.71,665.93,825.44,665.91z"/>
	<path fill-rule="evenodd" clip-rule="evenodd" fill="#3F3E3B" d="M850.78,555.88c0,11.53,0,22.75,0,34.26c-6.35,0-12.4,0-18.75,0
		c0-11.46,0-22.66,0-34.26C838.23,555.88,844.28,555.88,850.78,555.88z"/>
	<path fill-rule="evenodd" clip-rule="evenodd" fill="#3F3E3B" d="M831.98,499.25c0-11.57,0-22.64,0-33.95c6.27,0,12.2,0,18.65,0
		c0,11.16,0,22.34,0,33.95C844.63,499.25,838.44,499.25,831.98,499.25z"/>
	<path fill-rule="evenodd" clip-rule="evenodd" fill="#3F3E3B" d="M810.3,590.22c-6.23,0-12.28,0-18.54,0c0-11.58,0-22.82,0-34.37
		c6.24,0,12.29,0,18.54,0C810.3,567.44,810.3,578.69,810.3,590.22z"/>
	<path fill-rule="evenodd" clip-rule="evenodd" fill="#3F3E3B" d="M850.73,510.36c0,11.43,0,22.82,0,34.41c-6.36,0-12.42,0-18.74,0
		c0-11.51,0-22.76,0-34.41C838.33,510.36,844.37,510.36,850.73,510.36z"/>
	<path fill-rule="evenodd" clip-rule="evenodd" fill="#3F3E3B" d="M872.54,465.19c6.38,0,12.17,0,18.35,0c0,11.36,0,22.58,0,34.15
		c-6.07,0-12.12,0-18.35,0C872.54,487.89,872.54,476.79,872.54,465.19z"/>
	<path fill-rule="evenodd" clip-rule="evenodd" fill="#3F3E3B" d="M810.31,510.33c0,11.67,0,22.79,0,34.37c-6.08,0-12.12,0-18.49,0
		c0-11.34,0-22.71,0-34.37C798,510.33,803.9,510.33,810.31,510.33z"/>
	<path fill-rule="evenodd" clip-rule="evenodd" fill="#3F3E3B" d="M791.83,465.3c6.21,0,12.12,0,18.43,0c0,11.31,0,22.52,0,34.12
		c-6.02,0-12.06,0-18.43,0C791.83,487.96,791.83,476.77,791.83,465.3z"/>
	<path fill-rule="evenodd" clip-rule="evenodd" fill="#3F3E3B" d="M890.92,544.83c-6.25,0-12.03,0-18.18,0c0-11.49,0-22.82,0-34.48
		c5.99,0,11.89,0,18.18,0C890.92,521.65,890.92,532.99,890.92,544.83z"/>
	<path fill-rule="evenodd" clip-rule="evenodd" fill="#3F3E3B" d="M872.57,590.14c0-11.49,0-22.58,0-34.02c6.06,0,11.95,0,18.26,0
		c0,11.18,0,22.37,0,34.02C884.97,590.14,878.95,590.14,872.57,590.14z"/>
</g>
<g>
	<path fill-rule="evenodd" clip-rule="evenodd" fill="#E37258" d="M707.3,665.94c-18.81-0.01-37.62-0.02-56.43-0.03
		c0-12.74,0-25.48,0-38.25c-15.92,0-31.11,0-46.82,0c0,13.1,0,25.73,0,38.36c-18.85-0.04-37.7-0.07-56.55-0.1
		c-0.05-29.55-0.1-59.11-0.17-88.66c-0.01-2.15-0.19-4.3-0.28-6.45c0.08-20.56,0.16-41.12,0.24-61.67
		c53.39-0.02,106.78-0.04,160.17-0.06c0.01,19.66,0.02,39.33,0.03,58.99c-0.04,3.33-0.13,6.65-0.13,9.98
		C707.33,607.34,707.31,636.64,707.3,665.94z M675.42,597.03c0,2.43,0,4.86,0,7.6c6.24,0,11.76,0,17.63,0
		c-0.28-3,2.22-6.24-2.18-7.77c0-8.71,0-17.43,0-26.34c-8.53,0-16.87,0-25.17,0c0,8.94,0,17.49,0,26.51
		C669.17,597.03,672.3,597.03,675.42,597.03z M640.07,544.67c0-9.11,0-17.78,0-26.31c-8.71,0-16.94,0-25.16,0
		c0,8.97,0,17.52,0,26.31C623.41,544.67,631.51,544.67,640.07,544.67z M563.62,544.5c8.78,0,17.12,0,25.35,0c0-9.05,0-17.61,0-26.15
		c-8.66,0-16.9,0-25.35,0C563.62,527.15,563.62,535.6,563.62,544.5z M690.92,544.68c0-9.2,0-17.77,0-26.35c-8.64,0-16.88,0-25.29,0
		c0,8.92,0,17.49,0,26.35C674.15,544.68,682.38,544.68,690.92,544.68z M614.79,596.63c8.82,0,17.03,0,25.43,0
		c0-8.87,0-17.39,0-26.03c-8.67,0-17,0-25.43,0C614.79,579.44,614.79,587.84,614.79,596.63z M563.68,596.61c8.76,0,17.09,0,25.31,0
		c0-8.98,0-17.52,0-26.11c-8.63,0-16.83,0-25.31,0C563.68,579.29,563.68,587.71,563.68,596.61z M685.78,548.12c0,3.33,0,5.75,0,8.92
		c6-0.5,11.61-0.96,17.42-1.44c-0.31-3.28,1.74-7.09-3.2-7.41C695.43,547.88,690.81,548.12,685.78,548.12z M600,548.82
		c-4.94-0.24-9.65-0.62-14.37-0.65c-3.44-0.02-3.09,2.73-3.13,5.05c-0.04,2.41,1,3.88,3.52,3.68c4.56-0.37,9.1-0.91,13.97-1.41
		C600,553.59,600,551.84,600,548.82z M698.4,645.68c-0.16-2.87-0.29-5.07-0.41-7.17c-6.14,0-11.65,0-17.58,0
		c0.15,2.7,0.27,4.91,0.4,7.17C686.81,645.68,692.21,645.68,698.4,645.68z M611.03,559.37c-5.87,0-11.38,0-17.23,0
		c0,2.56,0,4.77,0,7.24c5.86,0,11.37,0,17.23,0C611.03,564.07,611.03,561.88,611.03,559.37z M569.37,602.34
		c0.18,2.87,0.31,5.08,0.44,7.19c6.15,0,11.68,0,17.64,0c-0.16-2.71-0.29-4.92-0.43-7.19C581,602.34,575.59,602.34,569.37,602.34z
		 M672.75,566.57c6.07,0,11.57,0,17.16,0c0-2.62,0-4.81,0-7.12c-5.92,0-11.41,0-17.16,0C672.75,561.95,672.75,564.03,672.75,566.57z
		 M580.78,622.96c4.1,0,7.87,0.02,11.64,0c6.1-0.04,7.06-1.53,4.9-7.57c-5.4,0-10.8,0-16.54,0
		C580.78,617.92,580.78,620.12,580.78,622.96z M566.09,605.43c-5.67,0-10.86,0-16.24,0c0,2.57,0,4.77,0,7.18c5.58,0,10.76,0,16.24,0
		C566.09,610.15,566.09,608.07,566.09,605.43z M669.45,628.32c0.13,2.54,0.23,4.42,0.32,6.23c5.81,0,11.01,0,16.58,0
		c-0.13-2.38-0.23-4.25-0.33-6.23C680.35,628.32,675.27,628.32,669.45,628.32z"/>
	<path fill-rule="evenodd" clip-rule="evenodd" fill="#B44B40" d="M707.45,509.07c-53.39,0.02-106.78,0.04-160.17,0.06
		c-2.26,0-4.52,0-6.96,0c0-3.89,0-7.23,0-11.2c5.57,0,10.79,0,16.01,0c47.32,0.02,94.64,0.05,141.96,0.07c5.1,0,10.2,0,15.64,0
		c0,3.73,0,7.1,0,11.08C711.66,509.07,709.55,509.07,707.45,509.07z"/>
	<path fill-rule="evenodd" clip-rule="evenodd" fill="#E37258" d="M698.28,497.99c-47.32-0.02-94.64-0.05-141.96-0.07
		c0-2.98,0-5.96,0-9.35c47.3,0,94.16,0,141.38,0C697.9,491.76,698.09,494.87,698.28,497.99z"/>
	<path fill-rule="evenodd" clip-rule="evenodd" fill="#3F3E3B" d="M604.04,666.01c0-12.63,0-25.26,0-38.36c15.71,0,30.9,0,46.82,0
		c0,12.78,0,25.51,0,38.25C635.26,665.94,619.65,665.98,604.04,666.01z"/>
	<path fill-rule="evenodd" clip-rule="evenodd" fill="#3F3E3B" d="M640.07,544.67c-8.56,0-16.66,0-25.16,0c0-8.79,0-17.35,0-26.31
		c8.22,0,16.45,0,25.16,0C640.07,526.89,640.07,535.57,640.07,544.67z"/>
	<path fill-rule="evenodd" clip-rule="evenodd" fill="#3F3E3B" d="M563.62,544.5c0-8.9,0-17.35,0-26.15c8.45,0,16.69,0,25.35,0
		c0,8.54,0,17.1,0,26.15C580.75,544.5,572.4,544.5,563.62,544.5z"/>
	<path fill-rule="evenodd" clip-rule="evenodd" fill="#3F3E3B" d="M690.92,544.68c-8.54,0-16.77,0-25.29,0c0-8.87,0-17.43,0-26.35
		c8.42,0,16.65,0,25.29,0C690.92,526.91,690.92,535.48,690.92,544.68z"/>
	<path fill-rule="evenodd" clip-rule="evenodd" fill="#3F3E3B" d="M675.42,597.03c-3.12,0-6.24,0-9.73,0c0-9.02,0-17.57,0-26.51
		c8.3,0,16.64,0,25.17,0c0,8.91,0,17.63,0,26.34C685.71,596.92,680.56,596.98,675.42,597.03z"/>
	<path fill-rule="evenodd" clip-rule="evenodd" fill="#3F3E3B" d="M614.79,596.63c0-8.78,0-17.18,0-26.03c8.44,0,16.76,0,25.43,0
		c0,8.64,0,17.16,0,26.03C631.83,596.63,623.61,596.63,614.79,596.63z"/>
	<path fill-rule="evenodd" clip-rule="evenodd" fill="#3F3E3B" d="M563.68,596.61c0-8.91,0-17.32,0-26.11c8.48,0,16.68,0,25.31,0
		c0,8.59,0,17.13,0,26.11C580.77,596.61,572.44,596.61,563.68,596.61z"/>
	<path fill-rule="evenodd" clip-rule="evenodd" fill="#B44B40" d="M685.78,548.12c5.03,0,9.64-0.24,14.23,0.06
		c4.94,0.32,2.89,4.13,3.2,7.41c-5.81,0.48-11.42,0.95-17.42,1.44C685.78,553.87,685.78,551.46,685.78,548.12z"/>
	<path fill-rule="evenodd" clip-rule="evenodd" fill="#B44B40" d="M600,548.82c0,3.02,0,4.77,0,6.67c-4.87,0.5-9.42,1.03-13.97,1.41
		c-2.52,0.21-3.57-1.26-3.52-3.68c0.04-2.32-0.3-5.07,3.13-5.05C590.35,548.2,595.06,548.58,600,548.82z"/>
	<path fill-rule="evenodd" clip-rule="evenodd" fill="#B44B40" d="M698.4,645.68c-6.2,0-11.59,0-17.59,0
		c-0.13-2.27-0.25-4.47-0.4-7.17c5.93,0,11.45,0,17.58,0C698.12,640.6,698.24,642.81,698.4,645.68z"/>
	<path fill-rule="evenodd" clip-rule="evenodd" fill="#B44B40" d="M611.03,559.37c0,2.5,0,4.69,0,7.24c-5.85,0-11.37,0-17.23,0
		c0-2.48,0-4.68,0-7.24C599.65,559.37,605.16,559.37,611.03,559.37z"/>
	<path fill-rule="evenodd" clip-rule="evenodd" fill="#B44B40" d="M569.37,602.34c6.23,0,11.64,0,17.65,0
		c0.14,2.27,0.27,4.48,0.43,7.19c-5.96,0-11.49,0-17.64,0C569.68,607.42,569.54,605.21,569.37,602.34z"/>
	<path fill-rule="evenodd" clip-rule="evenodd" fill="#B44B40" d="M675.42,597.03c5.15-0.06,10.3-0.11,15.45-0.17
		c4.41,1.53,1.9,4.77,2.18,7.77c-5.87,0-11.39,0-17.63,0C675.42,601.9,675.42,599.47,675.42,597.03z"/>
	<path fill-rule="evenodd" clip-rule="evenodd" fill="#B44B40" d="M672.75,566.57c0-2.54,0-4.62,0-7.12c5.75,0,11.24,0,17.16,0
		c0,2.31,0,4.51,0,7.12C684.32,566.57,678.83,566.57,672.75,566.57z"/>
	<path fill-rule="evenodd" clip-rule="evenodd" fill="#B44B40" d="M580.78,622.96c0-2.84,0-5.04,0-7.58c5.74,0,11.14,0,16.54,0
		c2.17,6.04,1.21,7.53-4.9,7.57C588.66,622.98,584.89,622.96,580.78,622.96z"/>
	<path fill-rule="evenodd" clip-rule="evenodd" fill="#B44B40" d="M566.09,605.43c0,2.64,0,4.73,0,7.18c-5.48,0-10.66,0-16.24,0
		c0-2.41,0-4.6,0-7.18C555.23,605.43,560.42,605.43,566.09,605.43z"/>
	<path fill-rule="evenodd" clip-rule="evenodd" fill="#B44B40" d="M669.45,628.32c5.82,0,10.9,0,16.57,0
		c0.11,1.98,0.21,3.86,0.33,6.23c-5.57,0-10.77,0-16.58,0C669.68,632.73,669.58,630.85,669.45,628.32z"/>
</g>
<g>
	<path fill-rule="evenodd" clip-rule="evenodd" fill="#E37258" d="M1689.75,665.94c-18.81-0.01-37.62-0.02-56.43-0.03
		c0-12.74,0-25.48,0-38.25c-15.92,0-31.11,0-46.82,0c0,13.1,0,25.73,0,38.36c-18.85-0.04-37.7-0.07-56.55-0.1
		c-0.05-29.55-0.1-59.11-0.17-88.66c-0.01-2.15-0.19-4.3-0.28-6.45c0.08-20.56,0.16-41.12,0.24-61.67
		c53.39-0.02,106.78-0.04,160.17-0.06c0.01,19.66,0.02,39.33,0.03,58.99c-0.04,3.33-0.13,6.65-0.13,9.98
		C1689.78,607.34,1689.77,636.64,1689.75,665.94z M1657.87,597.03c0,2.43,0,4.86,0,7.6c6.24,0,11.76,0,17.63,0
		c-0.28-3,2.22-6.24-2.18-7.77c0-8.71,0-17.43,0-26.34c-8.53,0-16.87,0-25.17,0c0,8.94,0,17.49,0,26.51
		C1651.63,597.03,1654.75,597.03,1657.87,597.03z M1622.52,544.67c0-9.11,0-17.78,0-26.31c-8.71,0-16.94,0-25.16,0
		c0,8.97,0,17.52,0,26.31C1605.86,544.67,1613.96,544.67,1622.52,544.67z M1546.08,544.5c8.78,0,17.12,0,25.35,0
		c0-9.05,0-17.61,0-26.15c-8.66,0-16.9,0-25.35,0C1546.08,527.15,1546.08,535.6,1546.08,544.5z M1673.37,544.68
		c0-9.2,0-17.77,0-26.35c-8.64,0-16.88,0-25.29,0c0,8.92,0,17.49,0,26.35C1656.6,544.68,1664.83,544.68,1673.37,544.68z
		 M1597.24,596.63c8.82,0,17.03,0,25.43,0c0-8.87,0-17.39,0-26.03c-8.67,0-17,0-25.43,0
		C1597.24,579.44,1597.24,587.84,1597.24,596.63z M1546.13,596.61c8.76,0,17.09,0,25.31,0c0-8.98,0-17.52,0-26.11
		c-8.63,0-16.83,0-25.31,0C1546.13,579.29,1546.13,587.71,1546.13,596.61z M1668.23,548.12c0,3.33,0,5.75,0,8.92
		c6-0.5,11.61-0.96,17.42-1.44c-0.31-3.28,1.74-7.09-3.2-7.41C1677.88,547.88,1673.26,548.12,1668.23,548.12z M1582.45,548.82
		c-4.94-0.24-9.65-0.62-14.37-0.65c-3.44-0.02-3.09,2.73-3.13,5.05c-0.04,2.41,1,3.88,3.52,3.68c4.56-0.37,9.1-0.91,13.97-1.41
		C1582.45,553.59,1582.45,551.84,1582.45,548.82z M1680.86,645.68c-0.16-2.87-0.29-5.07-0.41-7.17c-6.14,0-11.65,0-17.58,0
		c0.15,2.7,0.27,4.91,0.4,7.17C1669.26,645.68,1674.66,645.68,1680.86,645.68z M1593.48,559.37c-5.87,0-11.38,0-17.23,0
		c0,2.56,0,4.77,0,7.24c5.86,0,11.37,0,17.23,0C1593.48,564.07,1593.48,561.88,1593.48,559.37z M1551.82,602.34
		c0.18,2.87,0.31,5.08,0.44,7.19c6.15,0,11.68,0,17.64,0c-0.16-2.71-0.29-4.92-0.43-7.19
		C1563.45,602.34,1558.05,602.34,1551.82,602.34z M1655.21,566.57c6.07,0,11.57,0,17.16,0c0-2.62,0-4.81,0-7.12
		c-5.92,0-11.41,0-17.16,0C1655.21,561.95,1655.21,564.03,1655.21,566.57z M1563.24,622.96c4.1,0,7.87,0.02,11.64,0
		c6.1-0.04,7.06-1.53,4.9-7.57c-5.4,0-10.8,0-16.54,0C1563.24,617.92,1563.24,620.12,1563.24,622.96z M1548.54,605.43
		c-5.67,0-10.86,0-16.24,0c0,2.57,0,4.77,0,7.18c5.58,0,10.76,0,16.24,0C1548.54,610.15,1548.54,608.07,1548.54,605.43z
		 M1651.9,628.32c0.13,2.54,0.23,4.42,0.32,6.23c5.81,0,11.01,0,16.58,0c-0.13-2.38-0.23-4.25-0.33-6.23
		C1662.8,628.32,1657.72,628.32,1651.9,628.32z"/>
	<path fill-rule="evenodd" clip-rule="evenodd" fill="#B44B40" d="M1689.9,509.07c-53.39,0.02-106.78,0.04-160.17,0.06
		c-2.26,0-4.52,0-6.96,0c0-3.89,0-7.23,0-11.2c5.57,0,10.79,0,16.01,0c47.32,0.02,94.64,0.05,141.96,0.07c5.1,0,10.2,0,15.64,0
		c0,3.73,0,7.1,0,11.08C1694.11,509.07,1692,509.07,1689.9,509.07z"/>
	<path fill-rule="evenodd" clip-rule="evenodd" fill="#E37258" d="M1680.73,497.99c-47.32-0.02-94.64-0.05-141.96-0.07
		c0-2.98,0-5.96,0-9.35c47.3,0,94.16,0,141.38,0C1680.35,491.76,1680.54,494.87,1680.73,497.99z"/>
	<path fill-rule="evenodd" clip-rule="evenodd" fill="#3F3E3B" d="M1586.49,666.01c0-12.63,0-25.26,0-38.36c15.71,0,30.9,0,46.82,0
		c0,12.78,0,25.51,0,38.25C1617.71,665.94,1602.1,665.98,1586.49,666.01z"/>
	<path fill-rule="evenodd" clip-rule="evenodd" fill="#3F3E3B" d="M1622.52,544.67c-8.56,0-16.66,0-25.16,0c0-8.79,0-17.35,0-26.31
		c8.22,0,16.45,0,25.16,0C1622.52,526.89,1622.52,535.57,1622.52,544.67z"/>
	<path fill-rule="evenodd" clip-rule="evenodd" fill="#3F3E3B" d="M1546.08,544.5c0-8.9,0-17.35,0-26.15c8.45,0,16.69,0,25.35,0
		c0,8.54,0,17.1,0,26.15C1563.2,544.5,1554.85,544.5,1546.08,544.5z"/>
	<path fill-rule="evenodd" clip-rule="evenodd" fill="#3F3E3B" d="M1673.37,544.68c-8.54,0-16.77,0-25.29,0c0-8.87,0-17.43,0-26.35
		c8.42,0,16.65,0,25.29,0C1673.37,526.91,1673.37,535.48,1673.37,544.68z"/>
	<path fill-rule="evenodd" clip-rule="evenodd" fill="#3F3E3B" d="M1657.87,597.03c-3.12,0-6.24,0-9.73,0c0-9.02,0-17.57,0-26.51
		c8.3,0,16.64,0,25.17,0c0,8.91,0,17.63,0,26.34C1668.17,596.92,1663.02,596.98,1657.87,597.03z"/>
	<path fill-rule="evenodd" clip-rule="evenodd" fill="#3F3E3B" d="M1597.24,596.63c0-8.78,0-17.18,0-26.03c8.44,0,16.76,0,25.43,0
		c0,8.64,0,17.16,0,26.03C1614.28,596.63,1606.06,596.63,1597.24,596.63z"/>
	<path fill-rule="evenodd" clip-rule="evenodd" fill="#3F3E3B" d="M1546.13,596.61c0-8.91,0-17.32,0-26.11c8.48,0,16.68,0,25.31,0
		c0,8.59,0,17.13,0,26.11C1563.22,596.61,1554.89,596.61,1546.13,596.61z"/>
	<path fill-rule="evenodd" clip-rule="evenodd" fill="#B44B40" d="M1668.23,548.12c5.03,0,9.64-0.24,14.23,0.06
		c4.94,0.32,2.89,4.13,3.2,7.41c-5.81,0.48-11.42,0.95-17.42,1.44C1668.23,553.87,1668.23,551.46,1668.23,548.12z"/>
	<path fill-rule="evenodd" clip-rule="evenodd" fill="#B44B40" d="M1582.45,548.82c0,3.02,0,4.77,0,6.67
		c-4.87,0.5-9.42,1.03-13.97,1.41c-2.52,0.21-3.57-1.26-3.52-3.68c0.04-2.32-0.3-5.07,3.13-5.05
		C1572.8,548.2,1577.51,548.58,1582.45,548.82z"/>
	<path fill-rule="evenodd" clip-rule="evenodd" fill="#B44B40" d="M1680.86,645.68c-6.2,0-11.59,0-17.59,0
		c-0.13-2.27-0.25-4.47-0.4-7.17c5.93,0,11.45,0,17.58,0C1680.57,640.6,1680.69,642.81,1680.86,645.68z"/>
	<path fill-rule="evenodd" clip-rule="evenodd" fill="#B44B40" d="M1593.48,559.37c0,2.5,0,4.69,0,7.24c-5.85,0-11.37,0-17.23,0
		c0-2.48,0-4.68,0-7.24C1582.1,559.37,1587.61,559.37,1593.48,559.37z"/>
	<path fill-rule="evenodd" clip-rule="evenodd" fill="#B44B40" d="M1551.82,602.34c6.23,0,11.64,0,17.65,0
		c0.14,2.27,0.27,4.48,0.43,7.19c-5.96,0-11.49,0-17.64,0C1552.13,607.42,1551.99,605.21,1551.82,602.34z"/>
	<path fill-rule="evenodd" clip-rule="evenodd" fill="#B44B40" d="M1657.87,597.03c5.15-0.06,10.3-0.11,15.45-0.17
		c4.41,1.53,1.9,4.77,2.18,7.77c-5.87,0-11.39,0-17.63,0C1657.87,601.9,1657.87,599.47,1657.87,597.03z"/>
	<path fill-rule="evenodd" clip-rule="evenodd" fill="#B44B40" d="M1655.21,566.57c0-2.54,0-4.62,0-7.12c5.75,0,11.24,0,17.16,0
		c0,2.31,0,4.51,0,7.12C1666.77,566.57,1661.28,566.57,1655.21,566.57z"/>
	<path fill-rule="evenodd" clip-rule="evenodd" fill="#B44B40" d="M1563.24,622.96c0-2.84,0-5.04,0-7.58c5.74,0,11.14,0,16.54,0
		c2.17,6.04,1.21,7.53-4.9,7.57C1571.11,622.98,1567.34,622.96,1563.24,622.96z"/>
	<path fill-rule="evenodd" clip-rule="evenodd" fill="#B44B40" d="M1548.54,605.43c0,2.64,0,4.73,0,7.18c-5.48,0-10.66,0-16.24,0
		c0-2.41,0-4.6,0-7.18C1537.68,605.43,1542.87,605.43,1548.54,605.43z"/>
	<path fill-rule="evenodd" clip-rule="evenodd" fill="#B44B40" d="M1651.9,628.32c5.82,0,10.9,0,16.57,0
		c0.11,1.98,0.21,3.86,0.33,6.23c-5.57,0-10.77,0-16.58,0C1652.13,632.73,1652.03,630.85,1651.9,628.32z"/>
</g>
<g>
	<path fill-rule="evenodd" clip-rule="evenodd" fill="#F5CB69" d="M1021.17,666.02c-17.93-0.01-35.86-0.02-53.78-0.02
		c0-12.78,0.02-25.57-0.02-38.35c-0.04-14.94-0.13-29.87-0.19-44.81c0.01-5.55,0.03-11.09,0.04-16.64c1.28-0.27,2.56-0.77,3.84-0.77
		c41.79,0,83.59,0.06,125.38,0.1c0.08,16.71,0.16,33.43,0.24,50.14c-0.1,1.82-0.28,3.64-0.28,5.46
		c-0.04,14.94-0.04,29.87-0.05,44.81c-17.05,0.01-34.11,0.02-51.16,0.02c0-11.11,0-22.21,0-33.54c-8.16,0-15.9,0-24.01,0
		C1021.17,643.8,1021.17,654.91,1021.17,666.02z M1088.41,577.86c-38.36,0-76.52,0-114.64,0c0,5.13,0,9.73,0,14.4
		c38.36,0,76.41,0,114.64,0C1088.41,587.26,1088.41,582.64,1088.41,577.86z M973.67,617.61c38.43,0,76.5,0,114.77,0
		c0-5.02,0-9.73,0-14.58c-38.4,0-76.44,0-114.77,0C973.67,607.97,973.67,612.57,973.67,617.61z"/>
	<path fill-rule="evenodd" clip-rule="evenodd" fill="#B44B40" d="M1096.43,565.53c-41.79-0.04-83.59-0.1-125.38-0.1
		c-1.28,0-2.56,0.5-3.84,0.77c-2.26-0.27-4.53-0.54-7.04-0.83c0-3.07,0-5.98,0-9.16c47.46,0,94.58,0,142.29,0c0,3.05,0,5.97,0,8.9
		c-0.38,0.18-0.77,0.36-1.15,0.54C1099.69,565.6,1098.06,565.57,1096.43,565.53z"/>
	<path fill-rule="evenodd" clip-rule="evenodd" fill="#3F3E3B" d="M1021.17,666.02c0-11.11,0-22.23,0-33.6c8.12,0,15.85,0,24.01,0
		c0,11.33,0,22.43,0,33.54C1037.18,665.98,1029.17,666,1021.17,666.02z"/>
	<path fill-rule="evenodd" clip-rule="evenodd" fill="#3F3E3B" d="M1088.41,577.86c0,4.78,0,9.4,0,14.4c-38.22,0-76.28,0-114.64,0
		c0-4.67,0-9.26,0-14.4C1011.89,577.86,1050.05,577.86,1088.41,577.86z"/>
	<path fill-rule="evenodd" clip-rule="evenodd" fill="#3F3E3B" d="M973.67,617.61c0-5.03,0-9.64,0-14.58c38.33,0,76.37,0,114.77,0
		c0,4.85,0,9.56,0,14.58C1050.18,617.61,1012.11,617.61,973.67,617.61z"/>
</g>
<g>
	<path fill-rule="evenodd" clip-rule="evenodd" fill="#E37258" d="M315.41,640.7c0.03,8.45,0.05,16.89,0.08,25.34
		c-4.02-0.05-8.03-0.1-12.04-0.14l-4.16,0.01c-9.8,0.08-19.6,0.23-29.41,0.24c-26.59,0.02-53.19-0.01-79.78-0.03
		c-1.82,0-3.65-0.14-5.47-0.22c-0.09-12.64-0.19-25.28-0.28-37.91c0.03-16.95,0.05-33.89,0.08-50.84
		c40.27-0.04,80.54-0.09,120.81-0.11c3.49,0,6.98,0.16,10.47,0.24c0.12,4.16,0.23,8.33,0.35,12.49c-0.2,4.22-0.4,8.44-0.61,12.66
		L315.41,640.7z M212.07,587.97c-5.37,0-10.21,0-14.81,0c0,9.55,0,18.57,0,27.46c5.32,0,10.03,0,14.81,0
		C212.07,606.18,212.07,597.41,212.07,587.97z M211.89,652.69c0-9.4,0-18.27,0-27.25c-5.15,0-9.88,0-14.87,0c0,9.2,0,18.08,0,27.25
		C202.07,652.69,206.81,652.69,211.89,652.69z M273.94,615.59c0-9.55,0-18.43,0-27.44c-5.11,0-9.84,0-14.87,0
		c0,9.31,0,18.32,0,27.44C264.21,615.59,268.95,615.59,273.94,615.59z M259.25,652.67c5.06,0,9.78,0,14.66,0c0-9.33,0-18.32,0-27.34
		c-5,0-9.57,0-14.66,0C259.25,634.61,259.25,643.6,259.25,652.67z M228.33,652.57c5.22,0,9.9,0,14.63,0c0-9.27,0-18.12,0-27.11
		c-5.05,0-9.75,0-14.63,0C228.33,634.6,228.33,643.35,228.33,652.57z M243.01,615.62c0-9.41,0-18.31,0-27.4c-5.06,0-9.78,0-14.57,0
		c0,9.29,0,18.2,0,27.4C233.34,615.62,237.94,615.62,243.01,615.62z"/>
	<path fill-rule="evenodd" clip-rule="evenodd" fill="#B44B40" d="M315.71,577.28c-3.49-0.08-6.98-0.25-10.47-0.24
		c-40.27,0.02-80.54,0.07-120.81,0.11c-1.81-0.1-3.61-0.2-5.75-0.31c0-2.79,0-5.39,0-8.4c47.31,0,94.68,0,142.48,0
		c0,2.61,0,5.3,0,8.2C319.27,576.85,317.49,577.06,315.71,577.28z"/>
	<path fill-rule="evenodd" clip-rule="evenodd" fill="#3F3E3B" d="M212.07,587.97c0,9.44,0,18.22,0,27.46c-4.77,0-9.49,0-14.81,0
		c0-8.89,0-17.91,0-27.46C201.86,587.97,206.7,587.97,212.07,587.97z"/>
	<path fill-rule="evenodd" clip-rule="evenodd" fill="#3F3E3B" d="M211.89,652.69c-5.08,0-9.82,0-14.87,0c0-9.17,0-18.05,0-27.25
		c4.99,0,9.71,0,14.87,0C211.89,634.42,211.89,643.29,211.89,652.69z"/>
	<path fill-rule="evenodd" clip-rule="evenodd" fill="#3F3E3B" d="M273.94,615.59c-4.98,0-9.72,0-14.87,0c0-9.12,0-18.13,0-27.44
		c5.03,0,9.76,0,14.87,0C273.94,597.16,273.94,606.04,273.94,615.59z"/>
	<path fill-rule="evenodd" clip-rule="evenodd" fill="#3F3E3B" d="M259.25,652.67c0-9.07,0-18.06,0-27.34c5.09,0,9.66,0,14.66,0
		c0,9.03,0,18.02,0,27.34C269.03,652.67,264.31,652.67,259.25,652.67z"/>
	<path fill-rule="evenodd" clip-rule="evenodd" fill="#3F3E3B" d="M303.81,615.59c-4.98,0-9.72,0-14.87,0c0-9.12,0-18.13,0-27.44
		c5.03,0,9.76,0,14.87,0C303.81,597.16,303.81,606.04,303.81,615.59z"/>
	<path fill-rule="evenodd" clip-rule="evenodd" fill="#3F3E3B" d="M289.12,652.67c0-9.07,0-18.06,0-27.34c5.09,0,9.66,0,14.66,0
		c0,9.03,0,18.02,0,27.34C298.9,652.67,294.18,652.67,289.12,652.67z"/>
	<path fill-rule="evenodd" clip-rule="evenodd" fill="#3F3E3B" d="M228.33,652.57c0-9.23,0-17.97,0-27.11c4.88,0,9.58,0,14.63,0
		c0,8.99,0,17.84,0,27.11C238.23,652.57,233.55,652.57,228.33,652.57z"/>
	<path fill-rule="evenodd" clip-rule="evenodd" fill="#3F3E3B" d="M243.01,615.62c-5.07,0-9.66,0-14.57,0c0-9.21,0-18.11,0-27.4
		c4.79,0,9.5,0,14.57,0C243.01,597.31,243.01,606.21,243.01,615.62z"/>
</g>
<g>
	<path fill-rule="evenodd" clip-rule="evenodd" fill="#E37258" d="M1306.86,640.7c0.03,8.45,0.05,16.89,0.08,25.34
		c-4.01-0.05-8.03-0.1-12.04-0.14l-4.16,0.01c-9.8,0.08-19.61,0.23-29.41,0.24c-26.59,0.02-53.19-0.01-79.78-0.03
		c-1.82,0-3.65-0.14-5.47-0.22c-0.09-12.64-0.19-25.28-0.28-37.91c0.03-16.95,0.05-33.89,0.08-50.84
		c40.27-0.04,80.54-0.09,120.81-0.11c3.49,0,6.98,0.16,10.47,0.24c0.12,4.16,0.23,8.33,0.35,12.49c-0.2,4.22-0.4,8.44-0.61,12.66
		L1306.86,640.7z M1203.52,587.97c-5.37,0-10.21,0-14.81,0c0,9.55,0,18.57,0,27.46c5.32,0,10.04,0,14.81,0
		C1203.52,606.18,1203.52,597.41,1203.52,587.97z M1203.34,652.69c0-9.4,0-18.27,0-27.25c-5.15,0-9.88,0-14.87,0
		c0,9.2,0,18.08,0,27.25C1193.52,652.69,1198.26,652.69,1203.34,652.69z M1265.39,615.59c0-9.55,0-18.43,0-27.44
		c-5.12,0-9.84,0-14.87,0c0,9.31,0,18.32,0,27.44C1255.66,615.59,1260.4,615.59,1265.39,615.59z M1250.7,652.67
		c5.06,0,9.78,0,14.66,0c0-9.33,0-18.32,0-27.34c-5,0-9.57,0-14.66,0C1250.7,634.61,1250.7,643.6,1250.7,652.67z M1219.78,652.57
		c5.22,0,9.9,0,14.63,0c0-9.27,0-18.12,0-27.11c-5.05,0-9.75,0-14.63,0C1219.78,634.6,1219.78,643.35,1219.78,652.57z
		 M1234.46,615.62c0-9.41,0-18.31,0-27.4c-5.06,0-9.78,0-14.57,0c0,9.29,0,18.2,0,27.4
		C1224.79,615.62,1229.39,615.62,1234.46,615.62z"/>
	<path fill-rule="evenodd" clip-rule="evenodd" fill="#B44B40" d="M1307.16,577.28c-3.49-0.08-6.98-0.25-10.47-0.24
		c-40.27,0.02-80.54,0.07-120.81,0.11c-1.81-0.1-3.61-0.2-5.75-0.31c0-2.79,0-5.39,0-8.4c47.31,0,94.68,0,142.48,0
		c0,2.61,0,5.3,0,8.2C1310.72,576.85,1308.94,577.06,1307.16,577.28z"/>
	<path fill-rule="evenodd" clip-rule="evenodd" fill="#3F3E3B" d="M1203.52,587.97c0,9.44,0,18.22,0,27.46c-4.77,0-9.49,0-14.81,0
		c0-8.89,0-17.91,0-27.46C1193.31,587.97,1198.15,587.97,1203.52,587.97z"/>
	<path fill-rule="evenodd" clip-rule="evenodd" fill="#3F3E3B" d="M1203.34,652.69c-5.08,0-9.82,0-14.87,0c0-9.17,0-18.05,0-27.25
		c4.99,0,9.71,0,14.87,0C1203.34,634.42,1203.34,643.29,1203.34,652.69z"/>
	<path fill-rule="evenodd" clip-rule="evenodd" fill="#3F3E3B" d="M1265.39,615.59c-4.99,0-9.72,0-14.87,0c0-9.12,0-18.13,0-27.44
		c5.03,0,9.76,0,14.87,0C1265.39,597.16,1265.39,606.04,1265.39,615.59z"/>
	<path fill-rule="evenodd" clip-rule="evenodd" fill="#3F3E3B" d="M1250.7,652.67c0-9.07,0-18.06,0-27.34c5.09,0,9.66,0,14.66,0
		c0,9.03,0,18.02,0,27.34C1260.48,652.67,1255.76,652.67,1250.7,652.67z"/>
	<path fill-rule="evenodd" clip-rule="evenodd" fill="#3F3E3B" d="M1295.26,615.59c-4.99,0-9.72,0-14.87,0c0-9.12,0-18.13,0-27.44
		c5.03,0,9.76,0,14.87,0C1295.26,597.16,1295.26,606.04,1295.26,615.59z"/>
	<path fill-rule="evenodd" clip-rule="evenodd" fill="#3F3E3B" d="M1280.57,652.67c0-9.07,0-18.06,0-27.34c5.09,0,9.66,0,14.66,0
		c0,9.03,0,18.02,0,27.34C1290.35,652.67,1285.63,652.67,1280.57,652.67z"/>
	<path fill-rule="evenodd" clip-rule="evenodd" fill="#3F3E3B" d="M1219.78,652.57c0-9.23,0-17.97,0-27.11c4.88,0,9.58,0,14.63,0
		c0,8.99,0,17.84,0,27.11C1229.68,652.57,1225,652.57,1219.78,652.57z"/>
	<path fill-rule="evenodd" clip-rule="evenodd" fill="#3F3E3B" d="M1234.46,615.62c-5.07,0-9.66,0-14.57,0c0-9.21,0-18.11,0-27.4
		c4.79,0,9.5,0,14.57,0C1234.46,597.31,1234.46,606.21,1234.46,615.62z"/>
</g>
<path fill-rule="evenodd" clip-rule="evenodd" fill="#ACC868" d="M280.22,830.39c1.7,3.03-0.04,10.2-3.2,13.21
	C273.94,840.6,275.64,833.57,280.22,830.39z"/>
<path fill-rule="evenodd" clip-rule="evenodd" fill="#ACC868" d="M265.65,842.13c-2.16-4.13-2.53-8.3-2.54-13.22
	c4.59,1.58,4.57,5.28,5.52,8.17C269.24,838.97,269.23,841.14,265.65,842.13z"/>
<path fill-rule="evenodd" clip-rule="evenodd" fill="#ACC868" d="M46.08,787.05c0-1.36,0.01-2.72,0.01-4.08
	c4.67-0.43,4.85,3.41,6.04,6.32c0.99,2.42,0.65,4.33-1.7,5.7C47.26,793.01,51.06,787.69,46.08,787.05z"/>
<path fill-rule="evenodd" clip-rule="evenodd" fill="#ACC868" d="M60.35,794.78c-3.66-4.5-2.65-8.93,2.58-12.11
	C61.95,787.26,61.15,791.02,60.35,794.78z"/>
<g>
	<path fill-rule="evenodd" clip-rule="evenodd" fill="#63BED4" d="M1527.57,827.49c-8.4-1-16.82-1.9-25.2-3.07
		c-2.26-0.32-4.48-1.29-6.6-2.23c-5.24-2.3-5.13-2.36-4.68-8.08c0.3-3.88-2.49-5.64-5.55-6.7c-4.39-1.52-8.91-2.68-13.37-3.99
		c0.36-1.63,0.72-3.27,1.08-4.9c9.79,1.66,19.56,3.38,29.36,4.95c3.64,0.58,4.48,1.41,2.8,4.84c-1.75,3.58,0.06,5.34,2.68,6.83
		c1.27,0.72,2.8,1.06,4.26,1.35c11.76,2.35,23.46,0.49,35.17-0.56c2.11-0.19,4.18-0.69,7.1-1.19c-1.27-0.7-1.55-1-1.83-0.99
		c-10.95,0.25-21.9,0.73-32.84,0.69c-4.27-0.02-8.9-0.07-12.35-3.4c3.12-6.86,1.67-9.46-5.42-10.47c-4.91-0.7-9.84-1.33-14.76-1.98
		c-4.91-0.65-9.82-1.28-14.72-1.92c-1.12-1.36-2.24-2.72-3.35-4.09c1.87-3.59,5.27-5.01,8.87-5.8c7.25-1.59,14.57-2.91,21.86-4.32
		c2.9-0.56,5.81-1.06,8.72-1.58c-0.87-1.07-1.67-1.43-2.39-1.31c-10.58,1.76-21.2,3.31-31.68,5.54c-3.33,0.71-7.14,2.18-8.17,6.47
		c-5.45,0-10.91,0-16.36,0.01c3.55-6,9.67-8.49,15.61-10.94c20.47-8.41,42.17-10.27,63.94-10.83c15.93-0.41,31.83,1.18,47.57,3.92
		c11.32,1.98,22.46,4.57,32.68,10.11c4.47,2.42,8.54,5.26,9.55,10.78c-1.83,1.36-3.52,2.99-5.51,4.04
		c-10.15,5.31-21.36,7.19-32.34,9.79c-2.25,0.53-4.73,0.97-6.53,2.26c-1.68,1.19-3.57,3.43-3.63,5.26
		c-0.11,3.58-1.94,5.39-4.75,6.15c-6.23,1.68-12.57,2.96-18.87,4.34c-1.94,0.42-3.92,0.66-5.87,0.97
		C1537.19,827.46,1532.38,827.47,1527.57,827.49z M1589.79,783.09c-0.17,0.35-0.35,0.7-0.53,1.05c1.22,0.78,2.57,1.41,3.61,2.38
		c1.25,1.15,3.39,3.1,3.08,3.81c-0.69,1.58-2.61,2.67-4.12,3.83c-0.48,0.36-1.27,0.35-1.93,0.44c-9.51,1.33-19.03,2.63-28.54,3.97
		c-1.36,0.19-2.71,0.51-4.07,0.77c0.11,0.59,0.21,1.18,0.32,1.77c7.89-0.69,15.82-1.13,23.67-2.16c4.57-0.59,9.15-1.74,13.48-3.32
		c4.11-1.5,5.19-6.29,2.16-8.8C1594.92,785.15,1592.2,784.31,1589.79,783.09z"/>
	<path fill-rule="evenodd" clip-rule="evenodd" fill="#ACC868" d="M1619.51,794.64c-1.01-5.52-5.08-8.35-9.55-10.78
		c-10.22-5.54-21.36-8.13-32.68-10.11c-15.74-2.75-31.63-4.33-47.57-3.92c-21.77,0.56-43.47,2.42-63.94,10.83
		c-5.95,2.44-12.06,4.94-15.61,10.94c-2.23,0.03-4.47,0.06-6.7,0.09c-0.17-0.64-0.27-1.31-0.52-1.92
		c-2.54-6.27-1.46-10.23,4.24-14.08c10.38-7.03,22.26-10.3,34.27-13.09c20.69-4.8,41.75-6.16,62.85-4.91
		c21.86,1.29,43.7,3.68,64.28,11.92c5.59,2.24,11.06,5.53,15.58,9.48C1630.12,784.28,1627.36,792.4,1619.51,794.64z"/>
	<path fill-rule="evenodd" clip-rule="evenodd" fill="#ACC868" d="M1634.64,796.34c1.05,0.67,2.57,1.09,3.05,2.04
		c1.09,2.17,1.89,4.56,2.31,6.95c0.15,0.85-1.11,1.96-1.73,2.95c-0.91-0.74-2.36-1.32-2.63-2.25c-0.81-2.81-1.16-5.75-1.7-8.63
		C1634.18,797.05,1634.41,796.7,1634.64,796.34z"/>
	<path fill-rule="evenodd" clip-rule="evenodd" fill="#96D0D9" d="M1472.68,796.67c4.91,0.64,9.82,1.27,14.72,1.92
		c4.92,0.65,9.85,1.28,14.76,1.98c7.09,1.01,8.54,3.61,5.42,10.47c3.45,3.33,8.08,3.39,12.35,3.4c10.95,0.04,21.9-0.44,32.84-0.69
		c0.28-0.01,0.56,0.29,1.83,0.99c-2.92,0.5-4.99,1-7.1,1.19c-11.71,1.05-23.41,2.91-35.17,0.56c-1.46-0.29-2.99-0.63-4.26-1.35
		c-2.62-1.49-4.43-3.26-2.68-6.83c1.67-3.42,0.84-4.25-2.8-4.84c-9.8-1.56-19.58-3.29-29.36-4.95
		C1473.05,797.91,1472.86,797.29,1472.68,796.67z"/>
	<path fill-rule="evenodd" clip-rule="evenodd" fill="#96D0D9" d="M1466.53,791.58c1.02-4.28,4.84-5.76,8.17-6.47
		c10.48-2.23,21.1-3.79,31.68-5.54c0.72-0.12,1.52,0.24,2.39,1.31c-2.91,0.53-5.82,1.02-8.72,1.58c-7.29,1.41-14.61,2.73-21.86,4.32
		c-3.6,0.79-7,2.21-8.87,5.8C1468.39,792.25,1467.46,791.92,1466.53,791.58z"/>
	<path fill-rule="evenodd" clip-rule="evenodd" fill="#96D0D9" d="M1589.79,783.09c2.41,1.21,5.13,2.05,7.15,3.73
		c3.03,2.52,1.95,7.3-2.16,8.8c-4.33,1.58-8.91,2.72-13.48,3.32c-7.85,1.02-15.78,1.47-23.67,2.16c-0.11-0.59-0.21-1.18-0.32-1.77
		c1.35-0.26,2.7-0.58,4.07-0.77c9.51-1.33,19.02-2.64,28.54-3.97c0.66-0.09,1.45-0.07,1.93-0.44c1.52-1.16,3.44-2.25,4.12-3.83
		c0.31-0.71-1.84-2.65-3.08-3.81c-1.04-0.97-2.4-1.6-3.61-2.38C1589.44,783.8,1589.62,783.45,1589.79,783.09z"/>
</g>
<g>
	<path fill-rule="evenodd" clip-rule="evenodd" fill="#3F3E3B" d="M1241.23,880.76c-0.06-2.91-0.13-5.81-0.19-8.72
		c0.05-4.24,0.09-8.47,0.14-12.71c1.88,0.05,3.76,0.11,5.64,0.16c0.06,4.18,0.13,8.36,0.19,12.55c-0.02,2.97-0.03,5.93-0.05,8.9
		c-0.12,1.6-0.25,3.2-0.39,5.13c-1.56,0-3.07,0-4.8,0C1241.57,884.23,1241.4,882.49,1241.23,880.76z"/>
	<path fill-rule="evenodd" clip-rule="evenodd" fill="#3F3E3B" d="M1241.21,835.34c1.76,0.01,3.52,0.02,5.29,0.04
		c-0.05,4.74-0.1,9.48-0.15,14.22c-1.7,0.05-3.41,0.1-5.11,0.14C1241.23,844.94,1241.22,840.14,1241.21,835.34z"/>
	<path fill-rule="evenodd" clip-rule="evenodd" fill="#3F3E3B" d="M1102.74,880.11c0.03-22.16,0.06-44.31,0.09-66.47
		c0-3.8,0-7.6,0-11.66c-1.83-0.1-3.29-0.14-4.74-0.26c-3.73-0.32-6.03-2.33-6.56-5.68c-0.53-3.4,1.25-6.86,4.6-7.97
		c2-0.66,4.24-0.8,6.38-0.8c47.16-0.01,94.31,0.02,141.47,0.04c1,0,1.99-0.09,2.99-0.13c2.23-0.03,4.47-0.06,6.7-0.09
		c5.45,0,10.91-0.01,16.36-0.01c0.93,0.33,1.86,0.67,2.79,1c1.12,1.36,2.24,2.73,3.35,4.09c0.19,0.62,0.37,1.23,0.56,1.85
		c-0.36,1.63-0.72,3.27-1.08,4.9c-3.13,1.21-6.26,2.42-9.75,3.76c0.02-0.07-0.2,0.41-0.2,0.88c0.04,25.49,0.1,50.99,0.15,76.48
		c-0.19,2.08-0.38,4.15-0.6,6.52c-1.99,0-3.85,0-6.08,0c-0.18-1.83-0.37-3.71-0.56-5.6c0-26.38,0-52.76,0-79.21
		c-49.88,0-99.19,0-148.61,0c0,26.45,0,52.41,0,78.37c-0.13,1.96-0.26,3.92-0.42,6.27c-2.04,0-4.04,0-6.32,0
		C1103.1,884.27,1102.92,882.19,1102.74,880.11z"/>
	<path fill-rule="evenodd" clip-rule="evenodd" fill="#C6D88A" d="M1110.03,880.14c0-25.96,0-51.92,0-78.37
		c49.42,0,98.73,0,148.61,0c0,26.44,0,52.83,0,79.21c-3.89-0.01-7.79-0.03-11.68-0.04c0.02-2.97,0.04-5.93,0.05-8.9
		c2.44,0,4.88,0,7.65,0c0.12-2.23,0.28-3.85,0.29-5.47c0.05-10.94,0.08-21.89,0.08-32.83c0-4.83-0.06-9.66-0.15-14.48
		c-0.09-4.8-0.78-5.33-5.62-5.1c-6.8,0.32-13.61,0.72-20.41,0.73c-36.29,0.08-72.58,0.04-108.87,0.06c-1.92,0-3.84,0.17-6.01,0.27
		c-2.13,19.29-0.53,37.92,0.24,56.93c2.87,0,5.19,0,7.5,0c0,2.94,0,5.89,0,8.83C1117.81,880.7,1113.92,880.42,1110.03,880.14z"/>
	<path fill-rule="evenodd" clip-rule="evenodd" fill="#C6D88A" d="M1241.23,880.76c-34.07,0.06-68.15,0.11-102.22,0.18
		c-3.82,0.01-7.64,0.04-11.47,0.07c-0.03-2.98-0.07-5.95-0.1-8.93c37.87-0.01,75.73-0.02,113.6-0.03
		C1241.1,874.95,1241.16,877.85,1241.23,880.76z"/>
	<path fill-rule="evenodd" clip-rule="evenodd" fill="#3F3E3B" d="M1127.44,872.07c0.03,2.98,0.07,5.95,0.1,8.93
		c-0.11,1.64-0.23,3.28-0.37,5.38c-1.62,0.08-3.17,0.16-5.03,0.25c-0.16-2.12-0.3-3.89-0.44-5.66c0-2.94,0-5.89,0-8.83
		c0.06-4.28,0.11-8.55,0.17-12.83c1.77-0.03,3.54-0.05,5.31-0.08C1127.26,863.51,1127.35,867.79,1127.44,872.07z"/>
	<path fill-rule="evenodd" clip-rule="evenodd" fill="#96D0D9" d="M1121.87,859.31c-0.06,4.28-0.11,8.55-0.17,12.83
		c-2.32,0-4.63,0-7.5,0c-0.77-19.01-2.37-37.64-0.24-56.93c2.17-0.1,4.09-0.27,6.01-0.27c36.29-0.02,72.58,0.02,108.87-0.06
		c6.8-0.01,13.61-0.41,20.41-0.73c4.84-0.23,5.54,0.3,5.62,5.1c0.09,4.83,0.15,9.65,0.15,14.48c0,10.94-0.04,21.89-0.08,32.83
		c-0.01,1.62-0.17,3.24-0.29,5.47c-2.77,0-5.21,0-7.65,0c-0.06-4.18-0.13-8.36-0.19-12.55c2.23-0.22,4.46-0.44,7.01-0.69
		c-1.13-4.67-3.59-7.51-7.47-9.2c0.05-4.74,0.1-9.48,0.15-14.22c2.55-0.37,5.45,0.02,5.8-3.89c0.39-4.26-1.19-5.69-7.01-5.7
		c-40.54-0.03-81.08-0.06-121.63-0.08c-1.16,0-2.56-0.35-3.43,0.17c-1.38,0.81-3.08,2.04-3.46,3.41c-1.13,4.11,0.22,5.45,5.22,6.04
		c0.05,4.81,0.11,9.62,0.16,14.44c-4.7,1-6.75,4.14-7.34,9.06C1117.37,858.99,1119.62,859.15,1121.87,859.31z"/>
	<path fill-rule="evenodd" clip-rule="evenodd" fill="#96D0D9" d="M1127.44,872.07c-0.09-4.28-0.17-8.56-0.26-12.84
		c1.49-0.06,2.98-0.18,4.47-0.18c30.21,0,60.42,0,90.62,0.04c6.3,0.01,12.6,0.15,18.91,0.23c-0.05,4.24-0.09,8.47-0.14,12.71
		C1203.17,872.05,1165.3,872.06,1127.44,872.07z"/>
	<path fill-rule="evenodd" clip-rule="evenodd" fill="#E37258" d="M1241.17,859.33c-6.3-0.08-12.6-0.22-18.91-0.23
		c-30.21-0.04-60.41-0.04-90.62-0.04c-1.49,0-2.98,0.11-4.47,0.18c-1.77,0.03-3.54,0.05-5.31,0.08c-2.25-0.16-4.5-0.32-7.05-0.5
		c0.59-4.92,2.64-8.05,7.34-9.06c1.73,0,3.46,0,5.18,0.01c0.83,0.08,1.65,0.22,2.48,0.22c36.32,0.01,72.63,0.01,108.95,0
		c0.83,0,1.65-0.16,2.47-0.24c1.7-0.05,3.41-0.1,5.11-0.14c3.88,1.69,6.34,4.53,7.47,9.2c-2.55,0.25-4.78,0.47-7.01,0.69
		C1244.93,859.44,1243.05,859.38,1241.17,859.33z"/>
	<path fill-rule="evenodd" clip-rule="evenodd" fill="#E37258" d="M1122,835.32c-5.01-0.59-6.35-1.92-5.22-6.04
		c0.38-1.38,2.08-2.6,3.46-3.41c0.87-0.52,2.27-0.17,3.43-0.17c40.54,0.02,81.08,0.05,121.63,0.08c5.82,0,7.4,1.44,7.01,5.7
		c-0.36,3.91-3.26,3.52-5.8,3.89c-1.76-0.01-3.53-0.02-5.29-0.04c-6.31-0.08-12.61-0.24-18.92-0.24
		c-31.57,0.03-63.14,0.1-94.71,0.15C1125.72,835.28,1123.86,835.3,1122,835.32z"/>
	<path fill-rule="evenodd" clip-rule="evenodd" fill="#3F3E3B" d="M1122,835.32c1.86-0.02,3.72-0.04,5.59-0.06
		c-0.08,4.84-0.16,9.67-0.24,14.51c-1.73,0-3.46,0-5.18-0.01C1122.1,844.94,1122.05,840.13,1122,835.32z"/>
	<path fill-rule="evenodd" clip-rule="evenodd" fill="#96D0D9" d="M1127.34,849.76c0.08-4.84,0.16-9.67,0.24-14.51
		c31.57-0.06,63.14-0.13,94.71-0.15c6.31-0.01,12.61,0.15,18.92,0.24c0.01,4.8,0.02,9.6,0.03,14.4c-0.83,0.08-1.65,0.24-2.47,0.24
		c-36.32,0.01-72.63,0.01-108.95,0C1128.99,849.98,1128.17,849.84,1127.34,849.76z"/>
</g>
<g>
	<path fill-rule="evenodd" clip-rule="evenodd" fill="#A3A3A3" d="M1067.02,880.82c0-13.79,0.04-27.58-0.05-41.37
		c-0.01-1.94-0.63-3.88-0.97-5.82c0.27-1.95,0.76-3.89,0.78-5.84c0.11-11.15,0.11-22.3,0.14-33.46c1.74-0.01,3.49-0.02,5.23-0.03
		c0.01,10.11,0.03,20.22,0.04,30.33c-0.06,17.6-0.13,35.2-0.14,52.81c0,1.12,0.51,2.23,0.79,3.35c0,0.99-0.05,1.98-0.01,2.96
		c0.16,3.64-1.59,4.72-5.5,3.62C1067.24,885.29,1067.13,883.05,1067.02,880.82z"/>
	<path fill-rule="evenodd" clip-rule="evenodd" fill="#E37258" d="M1072.16,794.29c-1.74,0.01-3.49,0.02-5.23,0.03
		c-20.44-3.93-27.05-25.82-15.59-40.83c3.8-4.98,9.32-6.68,14.8-8.6c4.08,0.47,8.4,0.24,12.18,1.56
		c9.26,3.24,14.6,10.25,15.61,19.96c1.08,10.34-2.43,18.88-11.67,24.5c-0.98,0.6-1.92,1.29-2.87,1.94
		C1076.98,793.33,1074.57,793.81,1072.16,794.29z M1069.94,789.16c10.84,0.08,19.15-8.57,19.16-19.91
		c0.01-10.99-8.25-19.44-19.05-19.5c-11.08-0.06-19.96,8.84-19.92,19.96C1050.16,780.54,1058.85,789.08,1069.94,789.16z"/>
	<path fill-rule="evenodd" clip-rule="evenodd" fill="#FCFCFC" d="M1069.94,789.16c-11.08-0.08-19.78-8.61-19.82-19.45
		c-0.04-11.12,8.84-20.01,19.92-19.96c10.8,0.06,19.06,8.5,19.05,19.5C1089.09,780.59,1080.78,789.23,1069.94,789.16z
		 M1064.02,775.08c3.31-0.08,6.62-0.17,9.92-0.25l0.16,0.23c0.47,1.07,0.74,2.32,1.5,3.1c0.29,0.3,2.44-0.42,2.46-0.75
		c0.19-3.23,3.31-1.9,5.25-3.34c-0.47-4.26-0.96-8.63-1.47-13.22c-8.57,0-16.5,0-25.26,0c-0.46,4.67-0.92,9.28-1.3,13.18
		c2.25,1.19,3.5,1.82,4.72,2.5c1.03,0.58,2.02,1.21,3.04,1.82c0.36-1.12,0.72-2.24,1.08-3.35L1064.02,775.08z"/>
	<path fill-rule="evenodd" clip-rule="evenodd" fill="#3F3E3B" d="M1064.11,774.99c-0.36,1.12-0.72,2.24-1.08,3.35
		c-1.01-0.61-2.01-1.24-3.04-1.82c-1.22-0.68-2.47-1.31-4.72-2.5c0.38-3.9,0.84-8.51,1.3-13.18c8.76,0,16.7,0,25.26,0
		c0.51,4.59,0.99,8.96,1.47,13.22c-1.95,1.44-5.06,0.11-5.25,3.34c-0.02,0.33-2.17,1.05-2.46,0.75c-0.76-0.79-1.03-2.04-1.5-3.1
		c0.41-0.24,0.82-0.49,1.24-0.73c0.85-0.24,1.71-0.47,2.56-0.71c-0.11-0.38-0.23-0.75-0.34-1.13c-1.05,0.34-2.1,0.67-3.15,1.01
		c-0.15,0.44-0.3,0.89-0.45,1.33c-3.31,0.08-6.62,0.17-9.92,0.25c0.1-2.61-1.29-2.25-3.06-0.77
		C1062,774.54,1063.05,774.76,1064.11,774.99z M1064.38,762.41c-2.3,0-4.21,0-6.48,0c-0.21,1.6-0.4,2.98-0.64,4.77
		c2.68,0,4.9,0,7.51,0C1064.63,765.43,1064.51,764.03,1064.38,762.41z M1066.38,767.03c2.58,0,4.78,0,7.38,0
		c-0.26-1.76-0.46-3.12-0.64-4.36C1066.28,761.89,1066.18,761.95,1066.38,767.03z M1075.25,762.41c0.13,2.06,0.22,3.47,0.34,5.35
		c1.95-0.2,3.51-0.36,5.35-0.55c-0.17-1.87-0.3-3.29-0.44-4.8C1078.74,762.41,1077.31,762.41,1075.25,762.41z"/>
	<path fill-rule="evenodd" clip-rule="evenodd" fill="#DCDDDD" d="M1064.38,762.41c0.13,1.63,0.25,3.02,0.39,4.77
		c-2.61,0-4.82,0-7.51,0c0.24-1.79,0.42-3.17,0.64-4.77C1060.17,762.41,1062.08,762.41,1064.38,762.41z"/>
	<path fill-rule="evenodd" clip-rule="evenodd" fill="#DCDDDD" d="M1066.38,767.03c-0.2-5.08-0.1-5.14,6.74-4.36
		c0.18,1.24,0.38,2.6,0.64,4.36C1071.16,767.03,1068.96,767.03,1066.38,767.03z"/>
	<path fill-rule="evenodd" clip-rule="evenodd" fill="#D4D4D4" d="M1075.25,762.41c2.06,0,3.49,0,5.25,0
		c0.14,1.51,0.27,2.93,0.44,4.8c-1.84,0.19-3.4,0.35-5.35,0.55C1075.47,765.88,1075.38,764.47,1075.25,762.41z"/>
	<path fill-rule="evenodd" clip-rule="evenodd" fill="#A3A3A3" d="M1064.11,774.99c-1.05-0.23-2.1-0.46-3.16-0.69
		c1.77-1.48,3.16-1.83,3.06,0.77L1064.11,774.99z"/>
	<path fill-rule="evenodd" clip-rule="evenodd" fill="#CDCDCE" d="M1074.39,773.5c1.05-0.34,2.1-0.67,3.15-1.01
		c0.12,0.38,0.23,0.75,0.34,1.13c-0.85,0.24-1.71,0.47-2.56,0.71C1075.02,774.05,1074.7,773.77,1074.39,773.5z"/>
	<path fill-rule="evenodd" clip-rule="evenodd" fill="#CDCDCE" d="M1075.33,774.32c-0.41,0.24-0.82,0.49-1.24,0.73l-0.16-0.23
		c0.15-0.44,0.3-0.89,0.45-1.33C1074.7,773.77,1075.02,774.05,1075.33,774.32z"/>
</g>
<g>
	<path fill-rule="evenodd" clip-rule="evenodd" fill="#B44B40" d="M272.94,646.99c-0.68,4.31-1.47,8.6-2,12.92
		c-0.25,1.96-0.01,3.98,0.01,5.98c-1.39,0-2.78,0.01-4.16,0.01c0.05-4.19,0.1-8.38,0.15-12.57c0-2.24-0.01-4.49-0.01-6.73
		c0.11-4.79,0.22-9.57,0.33-14.36c0.62-0.09,1.24-0.18,1.85-0.27c0.55,1.29,1.44,2.55,1.57,3.88c0.25,2.62-0.13,5.3,0.18,7.91
		C271,644.9,272.22,645.92,272.94,646.99z"/>
	<path fill-rule="evenodd" clip-rule="evenodd" fill="#87AE3F" d="M272.94,646.99c-0.73-1.07-1.95-2.08-2.09-3.23
		c-0.32-2.6,0.07-5.29-0.18-7.91c-0.13-1.33-1.02-2.59-1.57-3.88c-0.62,0.09-1.24,0.18-1.85,0.27c-0.11,4.79-0.22,9.57-0.33,14.36
		c-3.28-1.29-6.56-2.58-9.84-3.86c-2.98-4.28-6.66-8-7.5-13.67c-0.91-6.1,0.4-11.4,3.39-16.56c0.87-1.5,1.6-3.17,2.01-4.85
		c0.89-3.65,1.53-7.36,2.28-11.05c3.7-4.95,8.62-7.2,14.79-6.68c6.1,2.02,8.72,7.06,10.91,12.5c-0.33,4.71,0.38,8.93,3.05,13.2
		c4.35,6.96,3.06,14.31-0.7,21.29c-0.71,1.31-1.59,2.53-2.39,3.79C279.59,642.79,276.27,644.89,272.94,646.99z"/>
</g>
<g>
	<path fill-rule="evenodd" clip-rule="evenodd" fill="#B44B40" d="M672.21,646.47c-0.01,6.47-0.03,12.93-0.04,19.4
		c-1.35,0-2.7,0-4.05-0.01c-0.04-6.45-0.08-12.91-0.12-19.36c0.07-3.79,0.01-7.6,0.29-11.38c0.07-1.01,1.17-1.94,1.79-2.91
		c0.63,0.96,1.73,1.88,1.81,2.88C672.17,638.88,672.13,642.68,672.21,646.47z"/>
	<path fill-rule="evenodd" clip-rule="evenodd" fill="#87AE3F" d="M668,646.51c-0.6-0.07-1.21-0.14-1.81-0.21
		c-15.94-4.58-21.15-24.6-11.29-35.95c0.95-1.09,1.23-3.05,1.24-4.6c0.04-7.79,2.84-13.9,10.02-17.57c7.41-1.05,13.1,1.45,16.6,8.21
		c0.67,1.3,1.3,2.85,1.24,4.25c-0.2,4.94,1.08,9.17,3.64,13.55c6.71,11.47,1.2,29.4-15.43,32.28c-0.08-3.79-0.03-7.59-0.32-11.37
		c-0.08-1-1.18-1.92-1.81-2.88c-0.63,0.97-1.72,1.9-1.79,2.91C668.01,638.91,668.07,642.72,668,646.51z"/>
</g>
<g>
	<path fill-rule="evenodd" clip-rule="evenodd" fill="#3F3E3B" d="M956.09,666.08c0.05-0.81-0.24-1.93,0.19-2.39
		c4.84-5.25,2.51-11.54,2.7-17.46c0.07-2.66-0.11-5.37,0.3-7.97c0.3-1.95,1.46-3.75,2.07-5.66c0.44-1.35,0.86-2.79,0.86-4.19
		c0.03-22.33,0.01-44.67-0.03-67c-0.01-7.48-0.94-8.4-8.33-8.09c-1.63,0.07-3.24,0.57-4.87,0.88c-5.54-0.02-11.08-0.04-16.62-0.05
		c-0.92-0.21-1.84-0.42-2.79-0.64c2.23-6.88,11.07-9.8,17.69-5.55c2.75,1.77,5.33,2.16,8.32,2.13c7.67-0.06,9.99,2.31,9.98,10.17
		c-0.02,22.26-0.07,44.53-0.09,66.79c0,2.42-0.46,4.86,2.09,6.73c0.87,0.63,0.86,2.73,0.91,4.17c0.16,4.64,0.17,9.29,0.23,13.94
		c0.34,3.05,0.48,6.15,1.1,9.14c0.36,1.74,1.52,3.31,2.31,4.96C966.79,666.01,961.44,666.05,956.09,666.08z"/>
	<path fill-rule="evenodd" clip-rule="evenodd" fill="#F5CB69" d="M932.38,554.13c5.54,0.02,11.08,0.04,16.62,0.05
		c-2.51,4.96-5.15,6.81-9.48,6.11C935.98,559.73,932.69,558.57,932.38,554.13z"/>
</g>
<path fill-rule="evenodd" clip-rule="evenodd" fill="#A3A3A3" d="M971.32,565.64c0.38-0.18,0.77-0.36,1.15-0.54
	C972.09,565.28,971.71,565.46,971.32,565.64z"/>
<g>
	<path fill-rule="evenodd" clip-rule="evenodd" fill="#87AE3F" d="M1088.37,618.13c0.15-7.33,1.93-14.01,6.74-19.87
		c1.22-1.49,1.17-4.3,1.14-6.5c-0.09-7.51,2.14-13.83,8.95-17.68c11.06-6.24,23.87,1.41,24.99,14.84c0.15,1.81-0.22,3.68,0.04,5.47
		c0.25,1.69,0.62,3.59,1.6,4.9c7.31,9.79,7.85,20.09,2.79,30.95c-0.55,1.19-0.98,2.44-1.46,3.67c-4.88,4.98-10.32,8.96-17.56,9.64
		c-0.21-6.02-0.42-12.04-0.63-18.07c-4.15,0.38-4.27,0.38-4.37,3.47c-0.16,4.78-0.13,9.57-0.19,14.36c-2.04-0.6-4.21-0.94-6.09-1.86
		C1094.64,636.7,1089.61,628.69,1088.37,618.13z"/>
	<path fill-rule="evenodd" clip-rule="evenodd" fill="#B44B40" d="M1110.61,665.9c-0.06-7.53-0.13-15.06-0.19-22.6
		c0.05-4.79,0.03-9.58,0.19-14.36c0.1-3.09,0.22-3.09,4.37-3.47c0.21,6.04,0.42,12.06,0.63,18.07c-0.09,7.49-0.18,14.99-0.27,22.48
		C1113.76,665.99,1112.18,665.94,1110.61,665.9z"/>
</g>
</svg>
