<?xml version="1.0" encoding="utf-8"?>
<!-- Generator: Adobe Illustrator 16.0.0, SVG Export Plug-In . SVG Version: 6.00 Build 0)  -->
<!DOCTYPE svg PUBLIC "-//W3C//DTD SVG 1.1//EN" "http://www.w3.org/Graphics/SVG/1.1/DTD/svg11.dtd">
<svg version="1.1" xmlns="http://www.w3.org/2000/svg" xmlns:xlink="http://www.w3.org/1999/xlink" x="0px" y="0px" width="1376px"
	 height="768px" viewBox="0 0 1376 768" enable-background="new 0 0 1376 768" xml:space="preserve">
<g id="Layer_1">
	<path fill-rule="evenodd" clip-rule="evenodd" fill="#ADDDE3" d="M1,455C1,303.67,1,152.33,1,1c458.67,0,917.33,0,1376,0
		c0,146.67,0,293.33,0,440c-4.14-0.32-8.27-0.84-12.41-0.93c-23.76-0.55-47.21,2.52-69.98,8.82c-29.47,8.15-58.54,17.75-87.79,26.7
		c-1.89,0.58-3.84,0.93-5.76,1.39c-20.23-4.64-40.37-9.78-60.72-13.78c-16.93-3.32-34.04-6.16-51.21-7.67
		c-18.43-1.63-36.95,0.26-55.04,4.16c-14.58,3.14-28.92,7.46-43.36,11.26c-9.04-2.09-18.07-4.29-27.14-6.26
		c-18.45-4.01-36.87-8.17-55.4-11.78c-34.07-6.63-68.43-11.46-103.06-13.88c-28.32-1.98-56.68-4.24-85.04-4.7
		c-29.91-0.48-59.86,0.8-89.78,1.79c-15.92,0.52-31.86,1.56-47.7,3.23c-19.63,2.07-39.21,4.71-58.71,7.71
		c-22.63,3.48-45.18,7.51-67.73,11.52c-10.78,1.92-21.46,4.35-32.19,6.55c-0.88-0.47-1.73-1.02-2.65-1.39
		c-26.79-10.78-54.79-16.42-83.46-18.52c-33.94-2.48-66.88,3.92-99.65,12.1c-22.89,5.71-46.11,10.09-69.18,15.06
		c-2.13-0.32-4.3-0.47-6.39-0.98c-20.94-5.17-41.71-11.25-62.85-15.35c-16.53-3.21-33.51-5.32-50.32-5.48
		C33.33,450.41,17.16,453.39,1,455z"/>
	<path fill-rule="evenodd" clip-rule="evenodd" fill="#C4D586" d="M1328.74,724.65c10.89,8.07,21.76,16.18,32.68,24.21
		c5.14,3.78,10.39,7.43,15.58,11.14c0,3,0,6,0,9c-458.67,0-917.33,0-1376,0c0-3,0-6,0-9c1.49-0.67,3.22-1.05,4.44-2.05
		c29.42-24.02,60.1-46.3,92.81-65.59c28.79-16.98,57.58-34.12,87.37-49.23c29.79-15.12,60.56-28.43,91.39-41.36
		c23.77-9.96,48.08-18.77,72.53-26.92c43.43-14.48,87.69-26.06,132.74-34.36c23.18-4.27,46.46-8.12,69.82-11.24
		c18.74-2.5,37.64-3.93,56.51-5.26c23.03-1.63,46.08-3.11,69.15-3.79c16.28-0.48,32.61,0.23,48.9,0.83
		c19.25,0.72,38.54,1.36,57.72,3.01c24.95,2.15,50.01,4.17,74.69,8.23c32.76,5.39,65.42,11.82,97.73,19.44
		c34.66,8.17,68.62,18.98,102.1,31.29c38,13.97,75.51,29.13,111.6,47.45c29.82,15.13,59.19,31.22,88.27,47.75
		c16.02,9.1,31.03,19.97,46.49,30.05L1328.74,724.65z M1032.1,619.31c0,0,0.25-0.19,0.25-0.19c2.87-2.45,6.94-4.37,8.33-7.48
		c1.98-4.46-1.12-8.23-5.22-10.6c-2.44-1.41-4.92-2.83-7.54-3.87c-21.13-8.42-43.39-11.12-65.84-12.04
		c-22.83-0.94-45.58,0.79-67.61,7.18c-8.18,2.37-15.94,6.52-23.44,10.68c-2.1,1.16-3.69,5.3-3.53,7.95c0.2,3.23,1.9,6.89,6.37,7.17
		c2.5,1.57,4.81,3.72,7.53,4.61c8.2,2.68,16.63,4.68,24.82,7.38c2.21,0.73,5.64,3.17,5.53,4.59c-0.61,7.9,4.92,9.52,10.31,10.11
		c12.83,1.41,25.74,2.47,38.64,2.77c6.2,0.14,12.58-1.26,18.6-2.97c3.15-0.9,7.25-3.45,8.15-6.17c1.41-4.24,3.65-5.72,7.44-6.81
		c12.1-3.48,24.12-7.23,36.16-10.87C1031.4,620.27,1031.75,619.79,1032.1,619.31z M1058.14,730.89c-0.75-0.28-1.51-0.56-2.26-0.85
		c-1.22,2.75-2.54,5.47-3.55,8.29c-0.19,0.53,0.75,1.71,1.45,2.19c0.35,0.24,1.8-0.29,1.94-0.73
		C1056.64,736.87,1057.36,733.87,1058.14,730.89z M498.16,642.25c0.38,2.96,0.63,5.63,1.2,8.23c0.07,0.31,2.42,0.69,2.88,0.23
		C504.27,648.59,502.12,643.56,498.16,642.25z M123.11,728.85c-0.79-0.19-1.58-0.38-2.38-0.58c-0.81,2.9-1.68,5.78-2.38,8.71
		c-0.09,0.37,0.74,1.34,1.15,1.34c0.67,0.01,1.84-0.42,1.95-0.87C122.14,734.62,122.59,731.72,123.11,728.85z M1060.27,620.01
		c-5.75,2.61-6.51,6.1-3.02,10.13C1058.34,626.49,1059.3,623.25,1060.27,620.01z M512.84,642.13c-3.94,1.36-6.46,6.05-5.18,8.48
		c0.26,0.49,1.05,1.11,1.45,1.03c0.65-0.14,1.52-0.72,1.7-1.29C511.55,647.88,512.07,645.36,512.84,642.13z M337.65,611.08
		c0.85,0.26,1.7,0.52,2.55,0.78c2.38-2.66,2.59-5.9,2.26-9.29c-0.65-0.2-1.31-0.4-1.96-0.59
		C339.55,605.02,338.6,608.05,337.65,611.08z M878.53,651.03c-0.85,0.21-1.7,0.41-2.55,0.61c0.47,2.75,0.88,5.51,1.46,8.24
		c0.08,0.36,1.19,0.87,1.57,0.71c0.66-0.28,1.67-1.14,1.59-1.57C880.05,656.33,879.24,653.69,878.53,651.03z M213.11,658.87
		c-0.98-0.31-1.96-0.61-2.95-0.92c-0.79,2.74-1.58,5.48-2.38,8.22c0.92,0.29,1.85,0.57,2.77,0.86
		C211.41,664.31,212.26,661.59,213.11,658.87z M1017.32,665.68c-5.68,3.85-6.39,6.66-3.38,11.82
		C1015.07,673.54,1016.01,670.26,1017.32,665.68z M321.81,707.22c0.94,0.21,1.88,0.41,2.82,0.62c0.76-3.06,1.51-6.12,2.27-9.18
		c-0.85-0.21-1.71-0.43-2.56-0.64C323.5,701.08,322.65,704.15,321.81,707.22z M500.8,559.09c-3.61,1.45-6.24,6.15-5.2,8.34
		c0.23,0.48,1.1,1.12,1.43,1c0.68-0.25,1.5-0.86,1.7-1.49C499.48,564.62,500,562.22,500.8,559.09z M931.08,557.49
		c-5.18,2.12-4.79,5.78-5.55,8.75c-0.08,0.31,0.9,1.29,1.24,1.23c0.7-0.14,1.67-0.65,1.87-1.24
		C929.47,563.79,930.06,561.26,931.08,557.49z M488.32,567.88c3.61-4.76,3.03-7.15-1.75-9.58
		C487.24,561.96,487.78,564.92,488.32,567.88z M1046.42,619.4c0.25,2.72,0.43,5.28,0.78,7.81c0.07,0.53,0.66,1.26,1.15,1.39
		c0.5,0.13,1.34-0.2,1.71-0.62C1051.65,626.19,1049.4,620.39,1046.42,619.4z M714.76,746.2c0.94,0.22,1.87,0.43,2.81,0.65
		c0.76-3,1.53-6,2.29-9c-0.84-0.21-1.68-0.42-2.52-0.64C716.48,740.21,715.62,743.21,714.76,746.2z M889.11,652.83
		c-0.76-0.2-1.52-0.4-2.28-0.6c-0.79,2.38-1.68,4.73-2.32,7.14c-0.15,0.56,0.59,1.35,0.93,2.03c0.77-0.42,2.06-0.69,2.23-1.27
		C888.34,657.75,888.66,655.27,889.11,652.83z M200.77,667.72c0.49-0.05,0.97-0.11,1.46-0.16c2.04-3.77,1.19-6.86-3.52-9.45
		C199.5,661.85,200.13,664.78,200.77,667.72z M1245.04,714.12c1.24-4.14,2.13-7.13,3.22-10.76
		C1243,705.63,1242.1,708.24,1245.04,714.12z M918.58,566.67c0.54-0.14,1.08-0.28,1.62-0.42c1.57-5.54,1.2-6.78-3.68-9.01
		C917.31,560.88,917.95,563.78,918.58,566.67z M111.22,728.43c-0.51,0.14-1.02,0.28-1.53,0.42c0.71,2.91,1.43,5.82,2.14,8.74
		C114.79,732.38,114.47,730.82,111.22,728.43z M706.26,736.99c0.39,2.92,0.61,5.31,1.11,7.65c0.11,0.51,1.21,1.02,1.9,1.1
		c0.42,0.05,1.39-0.8,1.34-1.13C710.17,741.85,711.22,738.22,706.26,736.99z M331.76,613.12c3.26-5.77,2.66-8.37-2.09-10.81
		C330.36,605.91,330.93,608.86,331.76,613.12z M1004.54,675.61c0.9-0.19,1.8-0.37,2.7-0.56c-0.58-2.96-1.15-5.92-1.73-8.88
		c-0.87,0.16-1.73,0.32-2.6,0.49C1003.46,669.64,1004,672.62,1004.54,675.61z M315.02,707.44c0.66-0.05,1.32-0.09,1.98-0.14
		c2.08-3.35,0.39-6.05-1.12-8.78c-0.65,0.1-1.29,0.2-1.94,0.29C314.3,701.69,314.66,704.57,315.02,707.44z M1235.56,711.63
		c3.5-4.52,3-6.78-1.61-8.5C1234.55,706.31,1235.05,708.97,1235.56,711.63z M1045.72,730.31c-0.6,0.16-1.21,0.32-1.81,0.48
		c0.57,2.68,1.14,5.37,1.7,8.05c0.51-0.11,1.03-0.22,1.54-0.33C1048.4,735.45,1048.79,732.55,1045.72,730.31z"/>
	<path fill-rule="evenodd" clip-rule="evenodd" fill="#A3A4A2" d="M1305.25,708.24c-15.46-10.07-30.47-20.95-46.49-30.05
		c-29.08-16.52-58.45-32.61-88.27-47.75c-36.09-18.32-73.6-33.47-111.6-47.45c-33.48-12.31-67.44-23.12-102.1-31.29
		c-32.32-7.62-64.97-14.04-97.73-19.44c-24.68-4.06-49.73-6.08-74.69-8.23c-19.19-1.65-38.47-2.29-57.72-3.01
		c-16.29-0.61-32.62-1.32-48.9-0.83c-23.07,0.68-46.12,2.17-69.15,3.79c-18.87,1.33-37.77,2.76-56.51,5.26
		c-23.36,3.12-46.64,6.97-69.82,11.24c-45.04,8.3-89.31,19.88-132.74,34.36c-24.46,8.15-48.77,16.96-72.53,26.92
		c-30.83,12.93-61.59,26.24-91.39,41.36c-29.79,15.11-58.58,32.25-87.37,49.23c-32.71,19.29-63.39,41.58-92.81,65.59
		c-1.22,1-2.95,1.38-4.44,2.05c0-11.67,0-23.33,0-35c1.45-0.78,2.99-1.44,4.34-2.37c8.36-5.75,16.66-11.6,25.02-17.36
		c4.51-3.11,4.58-3.55,0.08-8.1c-6.09,4.12-12.22,8.38-18.47,12.44c-3.54,2.3-7.3,4.27-10.96,6.38c0-12,0-24,0-36
		c8.77-5.39,17.41-11,26.33-16.14c32.15-18.52,64.1-37.41,96.69-55.1c20.16-10.94,41.04-20.72,62.17-29.68
		c35.98-15.28,72.1-30.33,108.73-43.95c38.38-14.26,77.73-25.73,117.71-34.76c25.76-5.81,51.52-11.96,77.58-16.05
		c34.73-5.45,69.7-9.51,104.67-13.27c23.09-2.48,46.33-4.32,69.54-4.77c30.95-0.6,61.93,0.28,92.89,0.84
		c10.95,0.2,21.91,0.98,32.81,2.08c20.14,2.03,40.32,3.86,60.32,6.9c29.37,4.46,58.69,9.39,87.84,15.08
		c42.02,8.19,83.26,19.68,123.7,33.59c32.86,11.3,65.21,24.16,97.51,37.01c36.39,14.48,71.33,32.11,105.96,50.37
		c36.7,19.35,72.09,40.86,106.61,63.85c1.45,0.97,3.29,1.36,4.95,2.02c0,27.33,0,54.67,0,82c-5.2-3.71-10.44-7.35-15.58-11.14
		c-10.92-8.03-21.79-16.14-32.68-24.21L1305.25,708.24z M510.61,513.66c10.23-1.44,20.2-2.83,30.17-4.25
		c4.75-0.67,9.54-1.2,14.23-2.2c1.09-0.23,2.64-2.25,2.5-3.23c-0.15-1.08-1.88-2.41-3.16-2.75c-1.51-0.4-3.28,0.08-4.92,0.29
		c-6.74,0.85-13.48,1.65-20.2,2.63c-6.64,0.97-13.24,2.12-20.2,3.25C509.67,509.94,510.1,511.65,510.61,513.66z M594.98,503.96
		c12.56-1.01,24.95-2.09,37.37-2.93c2.85-0.19,4.32-1.39,3.43-3.92c-0.45-1.28-2.64-2.86-3.95-2.78
		c-13.08,0.78-26.14,1.92-39.21,2.85c-2.92,0.21-3.61,1.77-3.45,4.31C589.48,506.44,593,503.5,594.98,503.96z M1160.04,592.12
		c-13.52-5.83-26.29-11.41-39.12-16.83c-4.55-1.92-5.52-1.08-6.13,4.88c14.11,5.88,28.3,11.79,42.92,17.88
		C1158.54,595.96,1159.17,594.34,1160.04,592.12z M173,615.55c-4.4,2.22-8.85,4.43-13.26,6.7c-8.27,4.26-16.55,8.52-24.78,12.86
		c-3.13,1.65-3.84,4.77-1.3,6.04c1.26,0.63,3.51,0.1,4.97-0.62c11.04-5.4,21.98-10.99,32.97-16.5
		C176.85,621.39,176.98,620.78,173,615.55z M1232.29,626.82c-14.22-7.13-27.83-13.95-41.34-20.72c-3.96,5.08-3.84,5.37,1.09,7.86
		c7.12,3.58,14.14,7.35,21.24,10.97c5.24,2.67,10.54,5.25,16.04,7.97C1230.38,630.74,1231.16,629.15,1232.29,626.82z
		 M1302.01,666.51c-12.79-7.64-25.45-15.25-38.22-22.67c-0.73-0.42-3.04,0.41-3.45,1.24c-0.58,1.17-0.54,3.15,0.11,4.28
		c0.66,1.15,2.37,1.73,3.65,2.49c10.15,6.03,20.41,11.89,30.41,18.14C1298.48,672.49,1300.48,671.7,1302.01,666.51z M1010.2,543.49
		c0.54-2.14,1-3.98,1.6-6.34c-4.92-1.38-9.36-2.64-13.8-3.87c-9.44-2.61-18.87-5.3-28.37-7.67c-1.06-0.26-3.4,1.14-3.7,2.19
		c-0.32,1.09,0.84,3.63,1.83,3.92C981.6,535.73,995.54,539.47,1010.2,543.49z M399.97,536.05c-0.12-3.77-1.13-5.56-4.34-4.61
		c-13.21,3.92-26.43,7.8-39.56,11.93c-1.08,0.34-1.57,2.53-2.33,3.85c1.49,0.79,3.24,2.56,4.43,2.24
		c12.97-3.51,25.87-7.31,38.74-11.17C398.21,537.91,399.24,536.6,399.97,536.05z M1331.74,685c-0.68,0.17-1.36,0.35-2.04,0.52
		c0,2.2-0.9,5.66,0.14,6.41c10.8,7.74,21.87,15.12,33.01,22.36c1.13,0.73,3.24-0.05,4.89-0.13c-0.42-1.66-0.28-4.09-1.35-4.86
		C1354.96,701.06,1343.32,693.07,1331.74,685z M100.59,653.82c-12.14,7.23-24.05,14.38-36.03,21.41c-2.54,1.49-4.7,2.94-2.61,6.15
		c2.06,3.16,4.02,0.71,5.86-0.38c10.71-6.32,21.35-12.75,32.09-19.01C104.83,659.12,104.93,659.11,100.59,653.82z M1086.41,561.98
		c-13.18-4.6-26.36-9.05-39.41-13.82c-4.43-1.62-6.18-0.34-6.31,4.34c0.83,0.42,1.66,0.97,2.57,1.29
		c12.33,4.37,24.72,8.6,36.99,13.12C1084.46,568.46,1086.13,567.14,1086.41,561.98z M322.28,554.09
		c-14.22,5.11-27.85,9.92-41.36,15.02c-1.09,0.41-2.07,2.94-1.94,4.38c0.25,2.9,2.38,2.54,4.49,1.66c1.99-0.83,4.05-1.5,6.08-2.25
		c11.36-4.19,22.72-8.39,34.34-12.68C323.36,558.22,322.91,556.5,322.28,554.09z M206.59,606.86c13.08-5.6,25.97-11.2,38.94-16.6
		c2.62-1.09,3.86-2.1,2.59-5.09c-1.39-3.25-3.38-1.81-5.28-0.98c-11.54,5.05-22.98,10.33-34.62,15.13
		C204.03,601.05,203.76,603.01,206.59,606.86z M863.84,504.2c-14.8-2.04-29.19-4.08-43.6-5.87c-0.92-0.11-2.65,1.55-3,2.7
		c-0.63,2.1,0.04,3.67,2.88,3.97c7.41,0.77,14.78,1.86,22.17,2.85c6.66,0.9,13.32,1.84,20.21,2.79
		C862.96,508.43,863.32,506.7,863.84,504.2z M935.84,518.03c-3.67-0.9-6.68-1.73-9.73-2.37c-10.71-2.22-21.41-4.49-32.17-6.43
		c-1.42-0.25-4,0.89-4.57,2.09c-1.25,2.62,0.9,3.81,3.25,4.27c13.79,2.71,27.59,5.4,41.64,8.15
		C934.76,521.93,935.19,520.38,935.84,518.03z M476.28,519.93c0.11-4.3-0.86-6.58-5.15-5.66c-12.47,2.68-24.99,5.18-37.42,8.03
		c-1.35,0.31-2.27,2.45-3.39,3.74c1.64,0.86,3.46,2.7,4.89,2.43c7.98-1.49,15.84-3.59,23.78-5.3
		C464.76,521.94,470.6,520.99,476.28,519.93z M746.55,493.39c-0.24,0.27-1.9,1.3-2.3,2.7c-0.73,2.55,0.56,3.9,3.46,3.94
		c3.8,0.05,7.59,0.57,11.39,0.83c8.43,0.56,16.85,1.14,25.29,1.52c1.13,0.05,3.27-0.99,3.28-1.53c0-1.59-0.49-3.46-1.46-4.68
		c-0.65-0.81-2.45-0.88-3.75-0.95C771.04,494.59,759.62,494.04,746.55,493.39z M712.69,499.84c0.56-0.69,1.87-1.61,2.13-2.77
		c0.56-2.47-0.34-4.07-3.38-4.04c-12.97,0.1-25.94,0.02-38.91,0.11c-3.04,0.02-4.89,3.17-3.07,5.34c0.83,0.99,2.89,1.28,4.39,1.3
		C686.45,499.88,699.05,499.84,712.69,499.84z"/>
	<path fill-rule="evenodd" clip-rule="evenodd" fill="#C4D586" d="M1377,678c-1.66-0.66-3.5-1.05-4.95-2.02
		c-34.52-22.98-69.91-44.49-106.61-63.85c-34.63-18.26-69.57-35.89-105.96-50.37c-32.3-12.85-64.65-25.71-97.51-37.01
		c-40.44-13.91-81.68-25.4-123.7-33.59c-29.15-5.68-58.47-10.61-87.84-15.08c-20-3.04-40.18-4.87-60.32-6.9
		c-10.9-1.1-21.86-1.88-32.81-2.08c-30.96-0.56-61.94-1.44-92.89-0.84c-23.21,0.45-46.45,2.29-69.54,4.77
		c-34.96,3.76-69.94,7.82-104.67,13.27c-26.06,4.09-51.82,10.24-77.58,16.05c-39.98,9.02-79.33,20.49-117.71,34.76
		c-36.63,13.61-72.75,28.67-108.73,43.95c-21.12,8.97-42.01,18.74-62.17,29.68c-32.6,17.69-64.55,36.58-96.69,55.1
		C18.41,669,9.77,674.61,1,680c0-15.33,0-30.67,0-46c10.34-5.67,20.5-11.7,31.06-16.92c21.63-10.7,43.3-21.35,65.28-31.3
		c25.6-11.58,51.34-22.91,77.41-33.4c37.03-14.91,74.41-28.93,111.61-43.41c1.41-0.55,2.52-1.87,3.78-2.83
		c2.91-0.55,5.98-0.69,8.7-1.72c34.63-13.09,69.88-24.23,105.7-33.56c6.53-1.7,12.95-3.82,19.42-5.74
		c10.73-2.2,21.42-4.64,32.19-6.56c22.54-4.01,45.09-8.04,67.73-11.52c19.51-3,39.09-5.64,58.71-7.71
		c15.84-1.67,31.78-2.7,47.7-3.23c29.92-0.98,59.87-2.26,89.78-1.79c28.37,0.45,56.72,2.71,85.04,4.7
		c34.63,2.42,68.99,7.25,103.06,13.88c18.53,3.61,36.95,7.77,55.4,11.78c9.07,1.97,18.09,4.17,27.14,6.26
		c1.84,0.75,3.63,1.62,5.51,2.24c28.73,9.51,57.48,18.99,86.22,28.47c5.5,1.82,11,3.65,16.5,5.48c1.44,0.81,2.81,1.8,4.34,2.42
		c22.84,9.21,45.75,18.26,68.55,27.58c19.4,7.93,38.75,16.01,57.99,24.32c17.87,7.72,35.77,15.42,53.31,23.86
		c22.19,10.67,44.1,21.97,66,33.22c9.45,4.85,18.59,10.29,27.87,15.47C1377,648.67,1377,663.33,1377,678z M346.7,503.5
		c0.66,0.15,1.33,0.3,1.99,0.46c0.75-3.11,1.5-6.22,2.25-9.33c-0.69-0.16-1.39-0.32-2.08-0.48
		C346.1,496.81,345.4,499.93,346.7,503.5z M340.52,503.97c0.74-0.24,1.48-0.48,2.21-0.72c-0.53-3.18,0.58-6.96-3.06-9.03
		c-0.59,0.19-1.19,0.38-1.78,0.57C338.77,497.85,339.64,500.91,340.52,503.97z M63.18,614.29c0.25,2.33,0.35,3.25,0.46,4.18
		c0.12,0.99,0.22,1.97,0.39,2.95c0.52,3.01,2.96,4.15,3.31,2.05c0.37-2.22-0.66-4.72-1.29-7.03
		C65.89,615.88,64.9,615.55,63.18,614.29z M1051.17,511.89c1.03-4.08,1.8-7.16,2.77-11.01
		C1048.95,503.35,1048.08,506.67,1051.17,511.89z M1301.26,612.47c-0.81,0.14-1.61,0.28-2.42,0.42c0.51,2.99,1.01,5.97,1.52,8.96
		c0.85-0.15,1.7-0.29,2.55-0.44C1302.36,618.43,1301.81,615.45,1301.26,612.47z M1311.2,612.79c-0.73-0.17-1.46-0.34-2.19-0.5
		c-2.36,2.41-2.81,5.16,0.45,8.59C1310.04,618.18,1310.62,615.49,1311.2,612.79z M71.97,623.15c0.57,0.09,1.15,0.17,1.72,0.26
		c1.73-2.8,3.36-5.62,1.33-8.65c-0.6-0.05-1.2-0.11-1.81-0.16C72.8,617.46,72.38,620.3,71.97,623.15z M1042.27,509.69
		c0.72-0.1,1.44-0.2,2.16-0.3c-0.28-2.27-0.38-4.58-0.94-6.77c-0.17-0.64-1.66-0.94-3.58-1.94
		C1040.94,504.65,1041.61,507.17,1042.27,509.69z"/>
	<path fill-rule="evenodd" clip-rule="evenodd" fill="#A8C46E" d="M290.13,506.14c-1.25,0.96-2.36,2.28-3.78,2.83
		c-37.2,14.48-74.58,28.5-111.61,43.41c-26.06,10.49-51.81,21.82-77.41,33.4c-21.98,9.94-43.65,20.6-65.28,31.3
		C21.5,622.3,11.34,628.33,1,634c0-59.67,0-119.33,0-179c16.16-1.61,32.33-4.59,48.47-4.44c16.8,0.16,33.79,2.27,50.32,5.48
		c21.15,4.1,41.91,10.18,62.85,15.35c2.08,0.51,4.25,0.66,6.39,0.98c1.19,0.77,2.28,1.87,3.58,2.25
		c10.96,3.21,21.92,6.44,32.95,9.37C233.73,491.45,261.94,498.77,290.13,506.14z"/>
	<path fill-rule="evenodd" clip-rule="evenodd" fill="#A8C46E" d="M1377,634c-9.28-5.17-18.43-10.61-27.87-15.47
		c-21.91-11.26-43.81-22.55-66-33.22c-17.54-8.43-35.43-16.14-53.31-23.86c-19.24-8.31-38.59-16.39-57.99-24.32
		c-22.8-9.32-45.7-18.37-68.55-27.58c-1.52-0.61-2.89-1.6-4.34-2.42c3.65-0.87,7.34-1.58,10.94-2.63
		c26.73-7.75,53.44-15.53,80.13-23.4c3.76-1.11,7.36-2.75,11.04-4.14c1.92-0.46,3.88-0.81,5.76-1.39
		c29.25-8.95,58.32-18.54,87.79-26.7c22.77-6.3,46.22-9.37,69.98-8.82c4.14,0.1,8.28,0.61,12.41,0.93
		C1377,505.33,1377,569.67,1377,634z"/>
	<path fill-rule="evenodd" clip-rule="evenodd" fill="#ADDDE3" d="M1,716c3.66-2.12,7.42-4.08,10.96-6.38
		c6.26-4.06,12.38-8.32,18.47-12.44c4.5,4.55,4.43,4.99-0.08,8.1c-8.36,5.76-16.66,11.6-25.02,17.36C3.99,723.56,2.45,724.22,1,725
		C1,722,1,719,1,716z"/>
	<path fill-rule="evenodd" clip-rule="evenodd" fill="#96B46D" d="M290.13,506.14c-28.19-7.38-56.4-14.69-84.57-22.16
		c-11.04-2.93-21.99-6.16-32.95-9.37c-1.3-0.38-2.39-1.49-3.58-2.25c23.07-4.97,46.29-9.35,69.18-15.06
		c32.77-8.18,65.71-14.58,99.65-12.1c28.66,2.1,56.66,7.74,83.46,18.52c0.92,0.37,1.77,0.92,2.65,1.39
		c-6.47,1.92-12.89,4.04-19.42,5.74c-35.83,9.33-71.07,20.47-105.7,33.56C296.11,505.45,293.04,505.59,290.13,506.14z"/>
	<path fill-rule="evenodd" clip-rule="evenodd" fill="#96B46D" d="M1201.05,476.97c-3.67,1.39-7.28,3.03-11.04,4.14
		c-26.69,7.87-53.41,15.65-80.13,23.4c-3.6,1.04-7.29,1.76-10.94,2.63c-5.5-1.83-11-3.66-16.5-5.48
		c-28.74-9.49-57.48-18.96-86.22-28.47c-1.88-0.62-3.67-1.49-5.51-2.24c14.44-3.8,28.77-8.12,43.36-11.26
		c18.1-3.9,36.61-5.78,55.04-4.16c17.17,1.51,34.28,4.34,51.21,7.67C1160.69,467.19,1180.82,472.32,1201.05,476.97z"/>
	<path fill-rule="evenodd" clip-rule="evenodd" fill="#65BACE" d="M1031.05,620.75c-12.05,3.64-24.07,7.39-36.16,10.87
		c-3.79,1.09-6.04,2.57-7.44,6.81c-0.9,2.72-4.99,5.27-8.15,6.17c-6.01,1.71-12.4,3.12-18.6,2.97c-12.9-0.29-25.8-1.36-38.64-2.77
		c-5.39-0.59-10.92-2.21-10.31-10.11c0.11-1.42-3.32-3.86-5.53-4.59c-8.19-2.71-16.62-4.7-24.82-7.38
		c-2.72-0.89-5.03-3.04-7.53-4.61c3.03-7.17,9.61-9.79,16.13-12.28c19.83-7.59,40.7-9.35,61.6-9.57
		c13.37-0.14,26.91,0.94,40.08,3.21c11.48,1.97,22.62,6.17,33.77,9.79c4.36,1.42,7.08,4.84,6.9,9.86c0,0-0.25,0.19-0.25,0.19
		C1031.75,619.79,1031.4,620.27,1031.05,620.75z"/>
	<path fill-rule="evenodd" clip-rule="evenodd" fill="#A8C46E" d="M1032.35,619.12c0.19-5.03-2.53-8.45-6.9-9.86
		c-11.16-3.62-22.29-7.82-33.77-9.79c-13.17-2.26-26.72-3.35-40.08-3.21c-20.89,0.21-41.77,1.98-61.6,9.57
		c-6.52,2.49-13.09,5.12-16.13,12.28c-4.48-0.28-6.18-3.94-6.38-7.17c-0.16-2.65,1.43-6.79,3.53-7.95
		c7.5-4.16,15.26-8.31,23.44-10.68c22.03-6.39,44.78-8.12,67.61-7.18c22.45,0.92,44.71,3.62,65.84,12.04
		c2.61,1.04,5.09,2.46,7.54,3.87c4.1,2.37,7.2,6.14,5.22,10.6C1039.29,614.75,1035.22,616.67,1032.35,619.12z"/>
	<path fill-rule="evenodd" clip-rule="evenodd" fill="#A8C46E" d="M1058.14,730.89c-0.79,2.98-1.5,5.98-2.43,8.91
		c-0.14,0.44-1.59,0.97-1.94,0.73c-0.7-0.48-1.63-1.67-1.45-2.19c1.01-2.83,2.34-5.54,3.55-8.29
		C1056.64,730.33,1057.39,730.61,1058.14,730.89z"/>
	<path fill-rule="evenodd" clip-rule="evenodd" fill="#A8C46E" d="M498.16,642.25c3.97,1.31,6.12,6.34,4.08,8.46
		c-0.45,0.47-2.81,0.08-2.88-0.23C498.79,647.88,498.54,645.21,498.16,642.25z"/>
	<path fill-rule="evenodd" clip-rule="evenodd" fill="#A8C46E" d="M123.11,728.85c-0.52,2.88-0.97,5.77-1.65,8.61
		c-0.11,0.45-1.28,0.88-1.95,0.87c-0.42-0.01-1.24-0.98-1.15-1.34c0.69-2.93,1.56-5.81,2.38-8.71
		C121.53,728.46,122.32,728.65,123.11,728.85z"/>
	<path fill-rule="evenodd" clip-rule="evenodd" fill="#A8C46E" d="M1060.27,620.01c-0.97,3.24-1.93,6.48-3.02,10.13
		C1053.76,626.12,1054.52,622.63,1060.27,620.01z"/>
	<path fill-rule="evenodd" clip-rule="evenodd" fill="#A8C46E" d="M512.84,642.13c-0.78,3.23-1.29,5.76-2.03,8.21
		c-0.17,0.58-1.05,1.15-1.7,1.29c-0.4,0.09-1.19-0.53-1.45-1.03C506.38,648.18,508.9,643.49,512.84,642.13z"/>
	<path fill-rule="evenodd" clip-rule="evenodd" fill="#A8C46E" d="M337.65,611.08c0.95-3.03,1.9-6.07,2.85-9.1
		c0.65,0.2,1.31,0.39,1.96,0.59c0.33,3.39,0.12,6.63-2.26,9.29C339.35,611.61,338.5,611.34,337.65,611.08z"/>
	<path fill-rule="evenodd" clip-rule="evenodd" fill="#A8C46E" d="M878.53,651.03c0.72,2.66,1.52,5.3,2.07,7.99
		c0.09,0.43-0.92,1.29-1.59,1.57c-0.38,0.16-1.49-0.35-1.57-0.71c-0.58-2.72-1-5.49-1.46-8.24
		C876.83,651.44,877.68,651.23,878.53,651.03z"/>
	<path fill-rule="evenodd" clip-rule="evenodd" fill="#A8C46E" d="M213.11,658.87c-0.85,2.72-1.7,5.44-2.55,8.17
		c-0.92-0.29-1.85-0.58-2.77-0.86c0.79-2.74,1.58-5.48,2.38-8.22C211.15,658.26,212.13,658.56,213.11,658.87z"/>
	<path fill-rule="evenodd" clip-rule="evenodd" fill="#A8C46E" d="M1017.32,665.68c-1.31,4.58-2.25,7.86-3.38,11.82
		C1010.93,672.34,1011.64,669.53,1017.32,665.68z"/>
	<path fill-rule="evenodd" clip-rule="evenodd" fill="#A8C46E" d="M321.81,707.22c0.84-3.07,1.68-6.14,2.53-9.21
		c0.85,0.21,1.71,0.43,2.56,0.64c-0.76,3.06-1.51,6.12-2.27,9.18C323.69,707.63,322.75,707.42,321.81,707.22z"/>
	<path fill-rule="evenodd" clip-rule="evenodd" fill="#A8C46E" d="M500.8,559.09c-0.8,3.13-1.32,5.53-2.07,7.85
		c-0.21,0.64-1.03,1.24-1.7,1.49c-0.32,0.12-1.2-0.52-1.43-1C494.55,565.24,497.18,560.54,500.8,559.09z"/>
	<path fill-rule="evenodd" clip-rule="evenodd" fill="#A8C46E" d="M931.08,557.49c-1.03,3.78-1.61,6.3-2.44,8.74
		c-0.2,0.58-1.17,1.1-1.87,1.24c-0.34,0.07-1.32-0.92-1.24-1.23C926.29,563.27,925.91,559.61,931.08,557.49z"/>
	<path fill-rule="evenodd" clip-rule="evenodd" fill="#A8C46E" d="M488.32,567.88c-0.54-2.96-1.08-5.92-1.75-9.58
		C491.34,560.73,491.93,563.12,488.32,567.88z"/>
	<path fill-rule="evenodd" clip-rule="evenodd" fill="#A8C46E" d="M1046.42,619.4c2.98,0.99,5.22,6.8,3.64,8.58
		c-0.37,0.42-1.22,0.75-1.71,0.62c-0.49-0.13-1.08-0.86-1.15-1.39C1046.86,624.67,1046.68,622.11,1046.42,619.4z"/>
	<path fill-rule="evenodd" clip-rule="evenodd" fill="#A8C46E" d="M714.76,746.2c0.86-3,1.72-5.99,2.58-8.99
		c0.84,0.21,1.68,0.42,2.52,0.64c-0.76,3-1.53,6-2.29,9C716.63,746.63,715.69,746.42,714.76,746.2z"/>
	<path fill-rule="evenodd" clip-rule="evenodd" fill="#A8C46E" d="M889.11,652.83c-0.45,2.44-0.77,4.92-1.43,7.29
		c-0.16,0.59-1.46,0.86-2.23,1.27c-0.33-0.68-1.07-1.47-0.93-2.03c0.63-2.42,1.52-4.77,2.32-7.14
		C887.59,652.43,888.35,652.63,889.11,652.83z"/>
	<path fill-rule="evenodd" clip-rule="evenodd" fill="#A8C46E" d="M200.77,667.72c-0.63-2.94-1.26-5.87-2.07-9.61
		c4.71,2.59,5.56,5.68,3.52,9.45C201.74,667.61,201.25,667.67,200.77,667.72z"/>
	<path fill-rule="evenodd" clip-rule="evenodd" fill="#A8C46E" d="M1245.04,714.12c-2.94-5.87-2.04-8.49,3.22-10.76
		C1247.17,706.99,1246.28,709.98,1245.04,714.12z"/>
	<path fill-rule="evenodd" clip-rule="evenodd" fill="#A8C46E" d="M918.58,566.67c-0.63-2.89-1.27-5.79-2.06-9.42
		c4.87,2.23,5.24,3.47,3.68,9.01C919.66,566.39,919.12,566.53,918.58,566.67z"/>
	<path fill-rule="evenodd" clip-rule="evenodd" fill="#A8C46E" d="M111.22,728.43c3.25,2.39,3.57,3.95,0.61,9.16
		c-0.71-2.91-1.43-5.82-2.14-8.74C110.2,728.71,110.71,728.57,111.22,728.43z"/>
	<path fill-rule="evenodd" clip-rule="evenodd" fill="#A8C46E" d="M706.26,736.99c4.95,1.23,3.9,4.86,4.35,7.62
		c0.05,0.32-0.92,1.17-1.34,1.13c-0.69-0.08-1.79-0.59-1.9-1.1C706.87,742.3,706.66,739.91,706.26,736.99z"/>
	<path fill-rule="evenodd" clip-rule="evenodd" fill="#A8C46E" d="M331.76,613.12c-0.83-4.26-1.4-7.21-2.09-10.81
		C334.42,604.75,335.01,607.35,331.76,613.12z"/>
	<path fill-rule="evenodd" clip-rule="evenodd" fill="#A8C46E" d="M1004.54,675.61c-0.54-2.99-1.08-5.97-1.62-8.96
		c0.87-0.16,1.73-0.32,2.6-0.49c0.58,2.96,1.15,5.92,1.73,8.88C1006.34,675.23,1005.44,675.42,1004.54,675.61z"/>
	<path fill-rule="evenodd" clip-rule="evenodd" fill="#A8C46E" d="M315.02,707.44c-0.36-2.88-0.72-5.75-1.08-8.62
		c0.65-0.1,1.29-0.2,1.94-0.29c1.51,2.73,3.19,5.42,1.12,8.78C316.34,707.35,315.68,707.39,315.02,707.44z"/>
	<path fill-rule="evenodd" clip-rule="evenodd" fill="#A8C46E" d="M1235.56,711.63c-0.5-2.66-1.01-5.32-1.61-8.5
		C1238.56,704.85,1239.05,707.11,1235.56,711.63z"/>
	<path fill-rule="evenodd" clip-rule="evenodd" fill="#A8C46E" d="M1045.72,730.31c3.06,2.25,2.67,5.14,1.43,8.2
		c-0.51,0.11-1.03,0.22-1.54,0.33c-0.57-2.68-1.14-5.37-1.7-8.05C1044.51,730.63,1045.12,730.47,1045.72,730.31z"/>
	<path fill-rule="evenodd" clip-rule="evenodd" fill="#A8C46E" d="M1031.05,620.75c0.35-0.48,0.7-0.97,1.05-1.45
		C1031.75,619.79,1031.4,620.27,1031.05,620.75z"/>
	<path fill-rule="evenodd" clip-rule="evenodd" fill="#ADDDE3" d="M510.61,513.66c-0.51-2.01-0.95-3.72-1.58-6.24
		c6.96-1.13,13.57-2.28,20.2-3.25c6.72-0.98,13.46-1.79,20.2-2.63c1.64-0.21,3.41-0.69,4.92-0.29c1.28,0.34,3.01,1.66,3.16,2.75
		c0.14,0.98-1.41,3-2.5,3.23c-4.69,1-9.48,1.52-14.23,2.2C530.81,510.83,520.84,512.22,510.61,513.66z"/>
	<path fill-rule="evenodd" clip-rule="evenodd" fill="#ADDDE3" d="M594.98,503.96c-1.98-0.46-5.5,2.48-5.81-2.48
		c-0.16-2.54,0.53-4.1,3.45-4.31c13.07-0.93,26.13-2.07,39.21-2.85c1.31-0.08,3.5,1.5,3.95,2.78c0.89,2.52-0.58,3.73-3.43,3.92
		C619.94,501.87,607.54,502.95,594.98,503.96z"/>
	<path fill-rule="evenodd" clip-rule="evenodd" fill="#ADDDE3" d="M1160.04,592.12c-0.87,2.21-1.5,3.83-2.32,5.92
		c-14.63-6.09-28.81-12-42.92-17.88c0.61-5.95,1.57-6.8,6.13-4.88C1133.75,580.71,1146.52,586.29,1160.04,592.12z"/>
	<path fill-rule="evenodd" clip-rule="evenodd" fill="#ADDDE3" d="M173,615.55c3.98,5.23,3.86,5.84-1.4,8.48
		c-10.98,5.51-21.93,11.1-32.97,16.5c-1.46,0.71-3.71,1.25-4.97,0.62c-2.54-1.27-1.83-4.39,1.3-6.04c8.23-4.34,16.5-8.6,24.78-12.86
		C164.15,619.98,168.59,617.77,173,615.55z"/>
	<path fill-rule="evenodd" clip-rule="evenodd" fill="#ADDDE3" d="M1232.29,626.82c-1.14,2.33-1.92,3.93-2.97,6.09
		c-5.5-2.73-10.8-5.3-16.04-7.97c-7.1-3.62-14.12-7.39-21.24-10.97c-4.93-2.48-5.05-2.77-1.09-7.86
		C1204.46,612.87,1218.07,619.69,1232.29,626.82z"/>
	<path fill-rule="evenodd" clip-rule="evenodd" fill="#ADDDE3" d="M1302.01,666.51c-1.53,5.19-3.52,5.98-7.5,3.49
		c-10.01-6.26-20.26-12.11-30.41-18.14c-1.29-0.76-2.99-1.34-3.65-2.49c-0.65-1.13-0.68-3.11-0.11-4.28
		c0.41-0.83,2.72-1.67,3.45-1.24C1276.56,651.27,1289.21,658.88,1302.01,666.51z"/>
	<path fill-rule="evenodd" clip-rule="evenodd" fill="#ADDDE3" d="M1010.2,543.49c-14.66-4.01-28.59-7.75-42.45-11.77
		c-0.98-0.29-2.14-2.83-1.83-3.92c0.3-1.05,2.64-2.45,3.7-2.19c9.5,2.37,18.93,5.06,28.37,7.67c4.45,1.23,8.88,2.49,13.8,3.87
		C1011.2,539.51,1010.74,541.35,1010.2,543.49z"/>
	<path fill-rule="evenodd" clip-rule="evenodd" fill="#ADDDE3" d="M399.97,536.05c-0.73,0.55-1.76,1.85-3.06,2.25
		c-12.88,3.86-25.77,7.66-38.74,11.17c-1.19,0.32-2.94-1.44-4.43-2.24c0.76-1.33,1.26-3.52,2.33-3.85
		c13.14-4.14,26.35-8.02,39.56-11.93C398.83,530.49,399.85,532.28,399.97,536.05z"/>
	<path fill-rule="evenodd" clip-rule="evenodd" fill="#ADDDE3" d="M1331.74,685c11.58,8.06,23.22,16.05,34.66,24.31
		c1.06,0.77,0.93,3.2,1.35,4.86c-1.66,0.08-3.77,0.86-4.89,0.13c-11.14-7.25-22.21-14.62-33.01-22.36
		c-1.04-0.75-0.14-4.21-0.14-6.41C1330.38,685.35,1331.06,685.18,1331.74,685z"/>
	<path fill-rule="evenodd" clip-rule="evenodd" fill="#ADDDE3" d="M100.59,653.82c4.34,5.29,4.24,5.3-0.68,8.17
		c-10.74,6.26-21.38,12.7-32.09,19.01c-1.84,1.08-3.8,3.54-5.86,0.38c-2.09-3.21,0.07-4.66,2.61-6.15
		C76.54,668.2,88.45,661.05,100.59,653.82z"/>
	<path fill-rule="evenodd" clip-rule="evenodd" fill="#ADDDE3" d="M1086.41,561.98c-0.27,5.16-1.95,6.48-6.17,4.93
		c-12.28-4.52-24.66-8.75-36.99-13.12c-0.91-0.32-1.74-0.87-2.57-1.29c0.13-4.67,1.88-5.95,6.31-4.34
		C1060.05,552.93,1073.22,557.39,1086.41,561.98z"/>
	<path fill-rule="evenodd" clip-rule="evenodd" fill="#ADDDE3" d="M322.28,554.09c0.63,2.41,1.08,4.13,1.61,6.13
		c-11.62,4.29-22.98,8.49-34.34,12.68c-2.03,0.75-4.09,1.42-6.08,2.25c-2.1,0.88-4.23,1.24-4.49-1.66
		c-0.13-1.44,0.85-3.97,1.94-4.38C294.43,564.01,308.06,559.2,322.28,554.09z"/>
	<path fill-rule="evenodd" clip-rule="evenodd" fill="#ADDDE3" d="M206.59,606.86c-2.83-3.85-2.57-5.81,1.64-7.54
		c11.64-4.8,23.08-10.08,34.62-15.13c1.9-0.83,3.89-2.27,5.28,0.98c1.27,2.99,0.03,4-2.59,5.09
		C232.56,595.66,219.67,601.26,206.59,606.86z"/>
	<path fill-rule="evenodd" clip-rule="evenodd" fill="#ADDDE3" d="M863.84,504.2c-0.52,2.49-0.88,4.22-1.34,6.43
		c-6.88-0.95-13.54-1.89-20.21-2.79c-7.38-0.99-14.76-2.08-22.17-2.85c-2.84-0.29-3.52-1.87-2.88-3.97c0.35-1.14,2.08-2.81,3-2.7
		C834.66,500.12,849.04,502.16,863.84,504.2z"/>
	<path fill-rule="evenodd" clip-rule="evenodd" fill="#ADDDE3" d="M935.84,518.03c-0.65,2.35-1.08,3.9-1.58,5.72
		c-14.06-2.75-27.85-5.44-41.64-8.15c-2.35-0.46-4.5-1.65-3.25-4.27c0.57-1.2,3.16-2.34,4.57-2.09c10.76,1.94,21.46,4.21,32.17,6.43
		C929.16,516.3,932.17,517.13,935.84,518.03z"/>
	<path fill-rule="evenodd" clip-rule="evenodd" fill="#ADDDE3" d="M476.28,519.93c-5.68,1.06-11.52,2.01-17.29,3.25
		c-7.94,1.71-15.8,3.8-23.78,5.3c-1.43,0.27-3.25-1.57-4.89-2.43c1.12-1.29,2.05-3.43,3.39-3.74c12.43-2.85,24.95-5.35,37.42-8.03
		C475.42,513.35,476.38,515.63,476.28,519.93z"/>
	<path fill-rule="evenodd" clip-rule="evenodd" fill="#ADDDE3" d="M746.55,493.39c13.07,0.65,24.49,1.2,35.9,1.82
		c1.3,0.07,3.1,0.14,3.75,0.95c0.97,1.22,1.46,3.09,1.46,4.68c0,0.54-2.15,1.58-3.28,1.53c-8.43-0.38-16.86-0.96-25.29-1.52
		c-3.8-0.25-7.59-0.77-11.39-0.83c-2.9-0.04-4.19-1.4-3.46-3.94C744.65,494.69,746.3,493.66,746.55,493.39z"/>
	<path fill-rule="evenodd" clip-rule="evenodd" fill="#ADDDE3" d="M712.69,499.84c-13.64,0-26.24,0.04-38.84-0.06
		c-1.51-0.01-3.57-0.31-4.39-1.3c-1.82-2.17,0.03-5.32,3.07-5.34c12.97-0.1,25.94-0.01,38.91-0.11c3.04-0.02,3.94,1.57,3.38,4.04
		C714.57,498.23,713.25,499.15,712.69,499.84z"/>
	<path fill-rule="evenodd" clip-rule="evenodd" fill="#A8C46E" d="M346.7,503.5c-1.3-3.57-0.6-6.69,2.16-9.35
		c0.69,0.16,1.39,0.32,2.08,0.48c-0.75,3.11-1.5,6.22-2.25,9.33C348.03,503.81,347.36,503.66,346.7,503.5z"/>
	<path fill-rule="evenodd" clip-rule="evenodd" fill="#A8C46E" d="M340.52,503.97c-0.87-3.06-1.75-6.12-2.62-9.18
		c0.59-0.19,1.19-0.38,1.78-0.57c3.63,2.06,2.52,5.84,3.06,9.03C341.99,503.49,341.25,503.73,340.52,503.97z"/>
	<path fill-rule="evenodd" clip-rule="evenodd" fill="#A8C46E" d="M63.18,614.29c1.73,1.26,2.71,1.59,2.86,2.15
		c0.63,2.32,1.66,4.81,1.29,7.03c-0.35,2.1-2.79,0.96-3.31-2.05c-0.17-0.98-0.27-1.97-0.39-2.95
		C63.53,617.55,63.43,616.62,63.18,614.29z"/>
	<path fill-rule="evenodd" clip-rule="evenodd" fill="#A8C46E" d="M1051.17,511.89c-3.1-5.22-2.22-8.54,2.77-11.01
		C1052.98,504.72,1052.2,507.81,1051.17,511.89z"/>
	<path fill-rule="evenodd" clip-rule="evenodd" fill="#A8C46E" d="M1301.26,612.47c0.55,2.98,1.1,5.96,1.65,8.94
		c-0.85,0.15-1.7,0.29-2.55,0.44c-0.51-2.99-1.01-5.97-1.52-8.96C1299.65,612.75,1300.46,612.61,1301.26,612.47z"/>
	<path fill-rule="evenodd" clip-rule="evenodd" fill="#A8C46E" d="M1311.2,612.79c-0.58,2.69-1.16,5.39-1.74,8.08
		c-3.26-3.43-2.81-6.17-0.45-8.59C1309.74,612.46,1310.47,612.62,1311.2,612.79z"/>
	<path fill-rule="evenodd" clip-rule="evenodd" fill="#A8C46E" d="M71.97,623.15c0.41-2.85,0.83-5.7,1.24-8.54
		c0.6,0.05,1.2,0.11,1.81,0.16c2.04,3.03,0.4,5.84-1.33,8.65C73.12,623.33,72.54,623.24,71.97,623.15z"/>
	<path fill-rule="evenodd" clip-rule="evenodd" fill="#A8C46E" d="M1042.27,509.69c-0.66-2.52-1.33-5.05-2.37-9.01
		c1.92,1,3.42,1.3,3.58,1.94c0.57,2.19,0.67,4.5,0.94,6.77C1043.71,509.49,1042.99,509.59,1042.27,509.69z"/>
</g>
<g id="Layer_2">
	<g>
		<path fill-rule="evenodd" clip-rule="evenodd" fill="#FDFEFE" d="M557.88,164.09c-0.73-16.88,4.11-30.67,18.17-39.42
			c14.07-8.75,28.22-7.13,41.83,2.46c7.59-31.22,23.69-52.37,58.72-49.88c18.82,1.34,38.7,15.75,45.27,46.07
			c14.29-14.71,31.02-19.2,49.47-10.81c18.46,8.4,25.07,24.61,25.01,44.65c3.44-0.86,6.23-1.69,9.07-2.24
			c15.86-3.09,30.54,6.91,34.08,23.18c3.29,15.12-6.37,29.9-21.93,33.46c-1.44,0.33-2.97,0.38-4.46,0.38
			c-87.95,0.01-175.9,0.04-263.85-0.03c-17.67-0.01-30.15-17.3-23.95-33.08c4.35-11.07,14.63-16.42,26.92-15.28
			C553.85,163.72,555.47,163.87,557.88,164.09z"/>
		<path fill-rule="evenodd" clip-rule="evenodd" fill="#FDFEFE" d="M1088.54,132.02c-0.43-33.13,29.74-45.82,50.09-30.63
			c5.28-24.27,17.05-42.21,44.72-41.28c23.57,0.8,35.01,16.3,40.47,38.31c11.9-12.56,25.54-16.35,40.64-8.95
			c14.61,7.16,20.14,20.46,20.56,35.28c6,0,11.53-0.86,16.69,0.17c12.7,2.54,19.83,13.58,18.25,26.87
			c-1.4,11.8-11.03,20.14-23.47,20.14c-71.14,0.03-142.28,0.04-213.42,0.01c-12.77-0.01-22.28-9.38-22.06-21.49
			c0.21-11.46,11.46-20.81,22.82-18.98C1085.26,131.71,1086.71,131.81,1088.54,132.02z"/>
		<path fill-rule="evenodd" clip-rule="evenodd" fill="#FDFEFE" d="M468.26,277.06c8.98-9.01,19.25-11,30.08-6.2
			c11.15,4.94,14.83,14.98,14.9,26.05c4.75,0,9.11-0.68,13.17,0.14c8.15,1.64,13.56,10.46,12.46,19.07
			c-1.03,8.06-7.75,13.93-16.22,13.94c-52.46,0.01-104.91,0-157.37-0.05c-7.91-0.01-13.46-3.79-15.47-10.19
			c-1.78-5.66,0.14-12.35,5.86-15.59c3.92-2.22,8.88-2.61,14.1-4.01c0-8.21,2.47-16.57,11.11-21.79c8.51-5.14,16.81-4.08,25.45,1.56
			c3.63-17.59,12.68-30.36,31.6-30.24C454.62,249.87,463.61,261.25,468.26,277.06z"/>
		<path fill-rule="evenodd" clip-rule="evenodd" fill="#FDFEFE" d="M871.8,256.7c-0.37-9.05,2.51-16.68,10.19-21.53
			c7.59-4.8,15.47-4.37,23.71,0.86c4.55-18.1,14.47-30.17,34.25-27.65c13.27,1.69,20.46,11.43,23.74,24.91
			c8.58-7.35,17.92-10.44,28.19-5.58c10.13,4.79,13.53,14.03,14.14,24.66c3.67-0.27,6.98-1.08,10.12-0.65
			c9.31,1.29,14.24,7.84,13.83,17.63c-0.32,7.64-6.64,13.68-15.19,14.46c-1.32,0.12-2.66,0.05-4,0.05
			c-45.81,0.01-91.61,0.03-137.42-0.02c-3.14,0-6.32-0.34-9.4-0.93c-7.96-1.54-12.4-8.35-10.83-16.27
			c1.25-6.31,8.71-11.12,15.7-10.14C869.63,256.61,870.43,256.61,871.8,256.7z"/>
		<path fill-rule="evenodd" clip-rule="evenodd" fill="#FDFEFE" d="M909.48,54.86c3.97-14.79,11.43-25.41,28.45-24.93
			c14.72,0.41,20.95,10.21,24.74,22.6c22-12.27,32.78-7.28,39.1,18.25c6.17-2.16,11.79-1.78,16.91,3.14
			c4.77,4.59,5.52,10.02,3.72,15.56c-1.89,5.83-6.8,8.92-12.97,9.39c-3.48,0.27-6.99,0.08-10.49,0.08c-40.96,0-81.92,0.02-122.89,0
			c-8.09,0-13.65-4.45-14.12-11.09c-0.6-8.51,3.71-13.31,12.69-13.72c2.72-0.13,4.14-0.53,4.41-3.77
			c1.25-15.17,14.05-22.6,27.87-16.42C907.64,54.28,908.42,54.49,909.48,54.86z"/>
		<path fill-rule="evenodd" clip-rule="evenodd" fill="#FDFEFE" d="M1219.09,287.9c4.75-15.7,12.11-23.35,22.64-23.91
			c13.92-0.73,20.27,4.13,28.07,21.81c7.24-5.89,15.09-9.19,24.2-4.7c8.72,4.3,12.06,11.91,12.21,21.32
			c3.12-0.33,5.93-1.09,8.62-0.8c7.27,0.76,12.87,7.16,12.94,14.23c0.07,6.73-6.29,13.19-13.84,14c-0.99,0.11-2,0.06-3,0.06
			c-40.99,0-81.98,0.03-122.98-0.06c-2.6-0.01-5.35-0.49-7.76-1.43c-5.66-2.21-8.32-7.77-7.07-13.87c0.93-4.53,5.75-8.6,11.07-8.44
			c4.19,0.13,5.77-0.81,5.93-5.4c0.41-11.83,13.27-19.37,24.54-14.8C1216.03,286.46,1217.36,287.12,1219.09,287.9z"/>
		<path fill-rule="evenodd" clip-rule="evenodd" fill="#FDFEFE" d="M50.32,275.47c5.35-21.43,10.65-24.64,30.15-18.29
			c2.79-13.28,9.99-23.13,24.18-23.82c13.89-0.68,21.5,8.54,25.33,21.21c16.44-14.12,35.99-2.58,36.57,17.09
			c1.6-0.2,3.16-0.44,4.73-0.59c7.42-0.73,14.5,4.58,15.58,11.67c1.1,7.21-3.48,13.7-11.06,15.44c-1.92,0.44-3.94,0.64-5.92,0.64
			c-39.62,0.03-79.25,0.03-118.87-0.02c-2.14,0-4.32-0.29-6.41-0.76c-6.82-1.55-10.42-6.53-9.56-13.01
			c0.82-6.22,6.04-10.18,12.92-9.79C48.76,275.31,49.56,275.4,50.32,275.47z"/>
		<path fill-rule="evenodd" clip-rule="evenodd" fill="#FDFEFE" d="M221.04,162.91c4.49-15.57,11.6-23.21,23.26-23.66
			c14.42-0.56,22.04,8.14,25.55,21.33c17.99-14.86,35.95-1.92,36.6,16c3.75,0.26,7.64-0.13,11.11,0.91
			c6.67,2.01,10.17,8.25,9.11,14.76c-1.17,7.18-5.99,11.43-13.39,11.66c-3.83,0.12-7.66,0.04-11.49,0.04
			c-36.98,0.01-73.95,0.11-110.93-0.14c-3.68-0.03-7.76-1.55-10.91-3.56c-4.03-2.57-4.92-6.96-3.01-11.54
			c1.88-4.49,5.16-7.72,10.14-7.57c4.55,0.13,5.88-1.2,6.03-5.81c0.37-11.42,12.43-18.84,23.04-14.63
			C217.68,161.31,219.15,162.06,221.04,162.91z"/>
		<path fill-rule="evenodd" clip-rule="evenodd" fill="#FDFEFE" d="M393.81,61.46c2.59-12.54,8.29-22.01,21.89-23.44
			c15.03-1.58,22.55,7.26,26.38,20.43c20.87-10.44,30.54-5.98,36.16,16.48c2.38,0,4.81-0.04,7.25,0.01
			c7.07,0.13,12.32,5.23,12.56,12.16c0.28,8.07-4.47,14.1-11.68,14.8c-0.83,0.08-1.66,0.04-2.5,0.04
			c-40.28,0.01-80.57,0-120.85,0.05c-4.75,0.01-9.01-1.08-11.9-5.03c-5.37-7.35-0.75-16.89,8.82-17.75
			c3.67-0.33,4.98-1.08,5.33-5.06C366.21,63.06,377.93,52.13,393.81,61.46z"/>
		<path fill-rule="evenodd" clip-rule="evenodd" fill="#FDFEFE" d="M178.14,75.57c12.2-1.67,17.69,1.06,19.85,9.33
			c2.35,9-3.93,16.99-13.58,17.03c-19.48,0.08-38.96,0.04-58.45,0.04c-20.81,0-41.63,0.04-62.44-0.02
			c-8.72-0.03-13.65-4.4-13.56-11.78c0.08-6.42,4.47-10.78,11.58-11.1c2.67-0.12,4.52-0.35,4.43-3.71
			c-0.34-13.45,13.53-21.93,26.2-15.26c0.55,0.29,1.2,0.39,2.08,0.66c2.91-12.67,8.8-22.19,23.16-22.84
			c14.42-0.66,21.32,8,25.19,21.39c7.09-6.31,14.67-8.9,23.39-4.81C174.8,58.64,177.21,66.59,178.14,75.57z"/>
	</g>
</g>
</svg>
