<?xml version="1.0" encoding="UTF-8"?>
<svg id="_레이어_1" data-name="레이어_1" xmlns="http://www.w3.org/2000/svg" version="1.1" viewBox="0 0 453.4 433.4">
  <!-- Generator: Adobe Illustrator 29.7.0, SVG Export Plug-In . SVG Version: 2.1.1 Build 138)  -->
  <defs>
    
  </defs>
  <g>
    <g>
      <g>
        <path class="st20" d="M279.4,361.8c0,1.7-.4,3.3-.6,5-1.3,11.5-2.3,21.5-6.7,32.3-5.8-3.6-7.9,2.2-7.2,7.2-.2,0-.4.5-.6.6-.8-12.8-11.8-8.8-10.6,2.2-.4,0-.7,0-1.1,0,1.7-11.3-9-12.1-9.5-1.1-3.3-.5-6.2-.6-9.5-2s-5.5-4-6.1-4.2c-2.4-5.4-4.5-11.2-4.5-17.3,20.4-1.4,40.5-10.3,56.2-22.9Z" fill="#647887"/>
        <path class="st18" d="M264.3,407c-3.4,1.3-7,2-10.6,2.2-1.3-11,9.7-15,10.6-2.2Z" fill="#e9e4d2"/>
        <path class="st12" d="M252.6,409.2c-.2,0-.4,0-.6,0-3.8,0-5.5-.5-8.9-1.1.4-11,11.2-10.1,9.5,1.1Z" fill="#e4e0ce"/>
        <path class="st12" d="M272.1,399.2c-.2.5.2,1.7,0,2.2s-4,3.7-4.9,4.3-1.8.5-2.3.7c-.7-5.1,1.4-10.8,7.2-7.2Z" fill="#e4e0ce"/>
      </g>
      <path class="st20" d="M319.5,291.6c-.4,1.8,1.3,3.5,1.7,4.5,1.4,4.5,2.8,11.5,2.8,16.2-5.6-.7-6.8,3.4-4.5,7.8-.7,1.2.5.3-1.1,1.7,0-3.4-3.5-7.8-6.8-5s-.6,6.1-1,8.9c-.2,0-.4,0-.6,0-1.2-8.9-9.1-8.1-7.8,1.1-.6,0-1.1,0-1.7,0,.5-2.4,1-7.8,1.1-10.3s0-21.7-1.7-22.9c-19.4-2.5-38-10.1-53.8-21.4l-1.4,1.7c0-1.6-.6-2.8-.6-3.9s1-1.5.6-2.2c22.1,15,47.4,25.5,74.6,24Z" fill="#647887"/>
      <g>
        <path class="st20" d="M203.1,384.1c-.5,6.8-1.7,14.4-5.6,20.1-.4.2-.8.7-1.7,1.1-2.4-9.6-10.1-5.2-8.4,3.3-.3,0-.8,0-1.1,0,0-12.4-11.6-11.8-10.6.6-.4,0-.7,0-1.1,0,1.4-10.4-8.2-12.5-9.5-1.7-3.7-1.1-6.9-1.9-9.5-5-4.9-5.9-8.8-26-10-34s-.5-2.1-.6-2.8,0-1.9,0-2.8v-1.1c0-.7,0-1.5,0-2.2,15.4,13.7,37.4,22.5,57.9,24.5Z" fill="#647887"/>
        <path class="st18" d="M186.4,408.7c-2,.2-3.3.5-5.6.6s-3.4,0-5,0c-1-12.3,10.5-12.9,10.6-.6Z" fill="#e9e4d2"/>
        <path class="st18" d="M174.7,409.2c-4.2-.2-5.6-.5-9.5-1.7,1.3-10.8,10.8-8.7,9.5,1.7Z" fill="#e9e4d2"/>
        <path class="st18" d="M195.8,405.3c-3.8,2-3.3,2.5-8.4,3.3-1.7-8.6,5.9-13,8.4-3.3Z" fill="#e9e4d2"/>
      </g>
      <path class="st11" d="M156.3,253.1c11.7,2.9,23.2,7.6,35.1,10h.7s.4,0,.4,0c.4,0,.7,0,1.1,0,3.6,1.8,6.4,2.4,10.5,3.2,7.2,1.4,14.6,1.6,21.8,2.4,0,.3,0,.8,0,1.1-1.3,1.4-.5,3.5,0,5,3.3,10.9,18.6,10,18.9-1.1l1.4-1.7c15.8,11.4,34.4,18.9,53.8,21.4,1.7,1.2,1.8,19.9,1.7,22.9s-.7,7.9-1.1,10.3-.8,2.9-1.1,3.9c-1,3.7-2.9,7-4.8,10.3s-3.2,5.7-4.7,8.5-1.3,2.6-2.3,3.7-1,1.1-1.5,1.7-1.2,1-1.5,1.5l-4.8,5.1c-.1.1-.3.3-.4.4-15.8,12.6-35.8,21.5-56.2,22.9-6.4.4-13.7,0-20-.6-20.5-2.1-42.5-10.8-57.9-24.5s-6.8-5.9-7.8-7.2c-4-5.6-9.7-14.8-11.1-21.7s-.7-.7-1.1-1.1.1-1.3,0-1.7c6.1,1.5,11,3.5,17.5,2.8,15.3-1.6,20-23.3,23.9-35.7s3.5-9.9,3-11.3-2.4-1.1-2.8.3c-3.1,9.3-5.7,18.9-9.3,28-2.8,7-3.9,11.1-11.1,14.2.9-4.6-4.1-8.9-6.9-3.9-1,1.8-.5,3.4-1.4,5-.2,0-.4,0-.6,0,3-10.4-7.4-13.8-9.5-2.8-.3-.1-.9.1-1.1,0,3.5-5.9-1.3-13.2-6.7-7.2-1.8.3-1.1-.7-1-1.8,2-22,11.9-44.1,29.1-58.4s5.1-4.3,8.1-3.9Z" fill="#7f9aae"/>
      <path class="st12" d="M323.9,312.2c0,1.8-.5,3.3-.6,5-.5,1-3.8,2.6-3.9,2.8-2.3-4.4-1.2-8.5,4.5-7.8Z" fill="#e4e0ce"/>
      <path class="st12" d="M318.4,321.7c-2.6,2.2-4.5,2.9-7.8,3.9.3-2.8-1.7-6.7,1-8.9s6.9,1.7,6.8,5Z" fill="#e4e0ce"/>
      <path class="st12" d="M310,325.6c-3.2.8-4.3,1.1-7.8,1.1-1.3-9.2,6.6-10.1,7.8-1.1Z" fill="#e4e0ce"/>
      <path class="st4" d="M156.3,253.1c-3-.4-5.9,2.1-8.1,3.9-17.2,14.3-27.1,36.4-29.1,58.4,0,1.1-.8,2,1,1.8-.1.2-.1.9-.6,1.1,0,0-.9.1-1.1-.4-4.9-9.3,2.5-32.4,6.6-41.8s6.6-14.3,10.1-18.6c4.9-6.1,14.1-8,21.2-4.5Z" fill="#66767f"/>
      <path class="st20" d="M125.1,327.8c-.5-1.4-1.3-2.9-1.7-4.5,1.1.6,2.4.7,3.3,1.1s.8-.1,1.1,0c4.8,2,3.6,2.3,9.5,2.8.2,0,.4,0,.6,0,1.3,0,2.4.8,4.7.5s2.6-1.1,3.7-1.6c7.2-3.1,8.3-7.2,11.1-14.2,3.6-9.1,6.2-18.7,9.3-28,.4-1.5,2.4-1.9,2.8-.3s-2.4,9.2-3,11.3c-4,12.4-8.6,34.1-23.9,35.7-6.5.7-11.4-1.2-17.5-2.8Z" fill="#647887"/>
      <path class="st18" d="M137.4,327.3c-5.8-.5-4.6-.8-9.5-2.8,2.1-11,12.5-7.7,9.5,2.8Z" fill="#e9e4d2"/>
      <path class="st18" d="M126.8,324.5c-1-.4-2.2-.5-3.3-1.1s-2.9-2.5-3.4-3.1-.4-1.8-.5-2c.4-.2.4-1,.6-1.1,5.4-5.9,10.1,1.3,6.7,7.2Z" fill="#e9e4d2"/>
      <path class="st18" d="M146.3,326.2c-1.1.5-1.4,1.3-3.7,1.6s-3.4-.4-4.7-.5c1-1.5.5-3.2,1.4-5,2.8-5,7.8-.8,6.9,3.9Z" fill="#e9e4d2"/>
    </g>
    <g>
      <path class="st17" d="M169.7,251.5c7.7,4.5,16,7.8,23.9,11.7-.4,0-.7,0-1.1,0s-.8,0-1.1,0c-11.9-2.4-23.4-7.1-35.1-10-7-3.5-16.2-1.6-21.2,4.5-2.8.6-5.8,3.2-8.1,5-24.4,19.6-39.8,50.3-42.6,81.4-.3,3.3,0,7.9-.6,10.9s-.2,1.1-.8,1.3c-7.7-1.3-14-5.8-20.4-9.9-.8-1-1.1-1.4-2.2-2.2,0-.8-.3-1.4-1.1-1.7,0-.6,0-1.1,0-1.7,8.9-21.2,20.3-41.2,35.4-58.5,4.7-5.4,10.7-11.9,15.9-16.7s.4-.4.6-.6.9-.1,1.4-.5c10.5-9.5,21.5-18.7,34.8-24,5.7,4,15.6,8.9,22.3,11.1Z" fill="#dcbc6d"/>
      <path class="st19" d="M233.2,262.1c1.1,0,2.6,0,3.3,0,2.7.2,5.8,3.8,8.4,5.6.4.8-.6,2.1-.6,2.2l-2.8-1.7c1.6,13.8-14.5,13.7-11.7-.6-1.3,0-3.5-.4-3.9,1.1-7.3-.8-14.6-1-21.8-2.4s-6.9-1.4-10.5-3.2c-8-3.9-16.3-7.2-23.9-11.7,21,7.2,41.4,9.8,63.5,10.6Z" fill="#b5944f"/>
      <path class="st0" d="M60.5,344c-.2-.2-1,0-1.4-.5s.3-1.1.3-1.1c.8.2,1.1.9,1.1,1.7Z" fill="#f6f5f1"/>
      <path class="st17" d="M91.1,344h-.6c0,0,.2,0,.6,0Z" fill="#dcbc6d"/>
      <path class="st17" d="M244.3,269.9l-2.8-1.7c1.6,13.8-14.5,13.7-11.7-.6-1.3,0-3.5-.4-3.9,1.1,0,.3,0,.8,0,1.1-1.3,1.4-.5,3.5,0,5,3.3,10.9,18.6,10,18.9-1.1,0-1.6-.6-2.8-.6-3.9Z" fill="#dcbc6d"/>
      <path class="st6" d="M126.2,330.6c-.5-2.2-.7-.7-1.1-1.1-.2-.2.1-1.3,0-1.7-.5-1.4-1.3-2.9-1.7-4.5-.5-.3-2.9-2.5-3.4-3.1-.6-.7-.4-1.8-.5-2,0,0-.9.1-1.1-.4-4.9-9.3,2.5-32.4,6.6-41.8,2.2-5.2,6.6-14.3,10.1-18.6-2.8.6-5.8,3.2-8.1,5-24.4,19.6-39.8,50.3-42.6,81.4,2.2-1.1,4-.2,6.1,0,0,0,.2,0,.6,0,10.4,1.4,19.1,6.6,29.4,8.2,5.5.9,11.4,1.2,16.8.2-4-5.6-9.7-14.8-11.1-21.7Z" fill="#ba9042"/>
    </g>
  </g>
  <g>
    <g>
      <path class="st14" d="M254.3,69.7c0,.5,0,1.2,0,1.7-.9,4.8-5.1,5.4-9.5,6.4-10.9,2.7-28.1,2.9-39.1.7s-10.3-1.7-9.9-7.7c.2,0,.4,0,.6,0,5.9.2,13.8,2.9,20.3,3.3,12.7.8,25.5-.5,37.6-4.5Z" fill="#f2cc52"/>
      <path class="st1" d="M207.5,33c.2.3.4.4.6.6,2.1,2,.3,4.9.6,6.3s1,.8,1,.9c.1.2.4.4.6.6s.1.9.5,1.4c1,1.3,2.7,2.2,3.4,3.6s.5.9.5,1.4c0,1.1-2.8,7.1-3.7,7.4-1.9.6-8.4-4.1-8.5-6.1s2.5-6.6,1.4-8.9-1.6-1.1-1.8-2.1c-1.1-3.7,2-5.8,5.5-5.2Z" fill="#c09942"/>
      <path class="st13" d="M253.2,67.5c.2,0,.8.9,1.1,1.1,0,.3,0,.8,0,1.1-12.1,3.9-24.9,5.2-37.6,4.5s-14.5-3.1-20.3-3.3c0-.5.1-1.2,0-1.7l-.6-.6c0-.2,0-.4,0-.6,15.2,3.4,30.9,4.7,46.3,2.1s9.8-2.8,11-2.6Z" fill="#c79f36"/>
      <path class="st1" d="M247.6,44.7v.6c.1.5.6,1.1.6,1.1,0,.6.1,1.8,0,2.2-.2.8-5.7,6.2-6.3,6.1-1.8-2.2-5.5-6.6-4.2-9.4s3.5-4.1,3.8-5.4-.6-2.5-.5-3.8c.2-4.8,9.2-4,6.6,2.1-.4.9-1.5,1.4-1.5,2.4s1.4,3.2,1.6,4.2Z" fill="#c09942"/>
      <path class="st14" d="M264.3,35.7c0-.1,0-.3-.1-.4-.2-.4-.5-.7-.8-1.1-.8-.9-1.5-1.7-2.8-1.9-1.8-.3-3.8.4-4.8,2-.8,1.2-.9,2.8-.8,4.2,0,.2,0,.4,0,.6,0,.2.2.3.3.5.3.4.3,1,0,1.5-.3.7-1,1-1.6,1.4s-1.2,1.3-1.7,1.9c-1,1.1-2.2,2.1-3.8,2,0,.6.1,1.8,0,2.2-.2.8-5.7,6.2-6.3,6.1-1.8-2.2-5.5-6.6-4.2-9.4-1.2,0-1.5-.8-2-1.6-.8-1.2-6.1-10.3-6.2-11.1-.5-2.6,2.7-4,1.2-7.8-2.3-5.5-11.3-3.2-10,3.3.3,1.6,2.1,2.7,1.9,4.3-.1,1.1-5.1,11.2-6,12.4-.6.8-1,1.5-2.1,1.5.2.5.5.9.5,1.4,0,1.1-2.8,7.1-3.7,7.4-1.9.6-8.4-4.1-8.5-6.1-1.9-.6-8.4-4.8-9.2-6.1-.7-1.1,2-5.6-2.1-7.4-3.4-1.5-5.7.5-7.1,3.5,0,.6,0,1.1,0,1.7.6,2.1,4.8,3.5,5.3,4.5,1.2,2.3,2.9,12.2,3.9,15.6.7,2.5,1.6,4.8,2.5,7.2,15.2,3.4,30.9,4.7,46.3,2.1,2.2-.4,9.8-2.8,11-2.6.2,0,.8.9,1.1,1.1-.1,0,.5-2.8.6-3.1.2-1.2.4-2.5.6-3.7.5-2.7.9-5.4,1.5-8s.8-3.6,1.3-5.3.4-1.5.7-2.2.3-.6.4-.9c.2-.8,0-1.8-.2-2.6,0,0,0-.2,0-.2,0,0,0,0,.1-.1.8-.4,1.6.5,2.3,0,.1,0,.2-.2.3-.3.5-.6,1.1-1,1.5-1.6.9-1,.9-2.4,1-3.7,0-.4,0-.7,0-1.1ZM226.8,66.9l-5.3-8.1c0-1.3,4.1-8.4,5.3-8.6.8-.2,5.7,7,5.8,8,0,1.5-4.3,8.9-5.7,8.6Z" fill="#f2cc52"/>
      <path class="st2" d="M196.4,69.2c0-.1-.5-.3-.6-.6l.6.6Z" fill="#eccb5c"/>
      <path class="st13" d="M226.8,50.3c.8-.2,5.7,7,5.8,8s-4.3,8.9-5.7,8.6l-5.3-8.1c0-1.3,4.1-8.4,5.3-8.6Z" fill="#c79f36"/>
    </g>
    <path class="st11" d="M397.8,238.5c-.3-1.9-2.8-6.4-2.6-7.1h-.6c-.9,2.2-3.9,6.9-3.9,8.9,0,.3,1.2,1.3.3,2.8-2,3.3-10.2.5-12.7-1.2-2.1-1.5-8.5-10.1-5-11.1,2.1-.6,1.5,1.2,3,1.1,1.4-2.3,2.5-4.8,3.6-7.3.3-.7.2-2.1.3-2.2-4-1.7-11.7.5-14.8,3.3-3.9,3.8-3.2,9.5-4.7,13.9-.7,2-4.5,4.7-6.5,6-7.7,5.3-15.2,7.9-24.7,7.3-.2,2.2-1.5,3.8-2.1,6-.7,2.6-.3,4.8-.7,7.1-.1.7-.5,1.6-1.4,1.4-3.2-4-.2-10.3,1.4-14.5-5.3-1-10-5-13.9-8.4-12.2-10.6-11.7-23.2-15.9-37.9-.6-2.2-3.4-8-3.5-9.3-.1-1.3,1.9-2.9,3.1-.9,3,4.9,4.6,16.1,6.2,21.9,7,5,14,8.7,22.8,6.7,1.6-2,3-5.1,4-7.4,11.1-26.3,6.9-60.9-3.7-86.8-2.3-5.7-5.3-11-8-16.6,8.9-13.2,25.7-19.8,40.6-12.2,22.2,11.4,31.8,43.9,35.6,66.6,0,.2,0,.4,0,.6.2-.1.5-.3.6-.6,1.8-5.1,3.4-11.3,3.3-16.7-.3-21.5-17.9-57.1-34-71.4-1.2-1-3.7-3-5-3.9-10.3-6.9-23.5-9.8-35.6-6.7-5.8,1.5-16.6,7.8-21.2,11.7-2.2,1.9-5.1,5.4-6.8,7.7h-.8c-11.9-8.8-25.6-15.8-40.4-18.3-.9,4.8-5.1,5.4-9.5,6.4-10.9,2.7-28.1,2.9-39.1.7-4.6-.9-10.3-1.7-9.9-7.7-3.1.1-11.8,2.8-15,3.9-7.9,2.8-15.6,7-22.6,11.6-4.1-3.3-8.5-6.8-13.1-9.4-10.4-5.8-23.7-9.3-35.6-8.9-12.4.4-25.7,5.5-35.6,12.8-.6.4-1.3.9-1.7,1.1-5.8,4.5-10.8,10.2-15.4,16-1.7,2.1-3.4,4.2-4.9,6.4s-3.1,4.6-4.6,6.8c-2.5,3.6-4.8,7.1-6.8,11s-3.9,8.3-5.4,12.5-1.4,4.2-2.1,6.3c-.3,1-.6,1.9-.8,2.9-.7,2.7-1.3,5.5-1.8,8.3-2,13-.5,25.1,7.8,35.7h.6c-2.2-45,37-105.3,87.8-79.8,8.9,4.5,15.5,10.9,21.9,18.3-12.5,24.8-16.7,54.3-10.9,81.7.7,3.5,3.6,10.4,3.7,13.1.1,3.4-2.4,7.9-3.9,10.9,3.3,1.8,5.9,5,8.9,7.2.5.4.9,1,1.1,1.1,5.7,4,15.6,8.9,22.3,11.1,21,7.2,41.4,9.8,63.5,10.6l-6.1-7.8c-5.6,0-18.7-3.9-22.3-8.4-2.1,1.6-3.9-.7-4.6-2.4-2.5-6.3.9-15.4,7.4-18,2.5-1,6.7-2.2,6.1,1.9,1.6.3,5.4,4.1,7.3,5.2,7.7,4.7,15.6,4.4,22.7-1.1,2.1-1.6,9.8-11.6,11.7-10.3,1.3,4,0,8.5-1.3,12.4-3.6,10.8-11.9,18.3-23.2,20,.4,3.3,4.7,5.1,5.6,8.4,2.7.2,5.8,3.8,8.4,5.6,22.1,15,47.4,25.5,74.6,24,13-.8,25.4-5.3,36.2-12.3,3.3-9.3,7.4-18.2,11.1-27.3l-1.1-5.6c3.1-.2,4.4,3.7,7.1,5.5,3,2,7.7,3.6,11.3,4,.2.7-.1,1.6,0,2.2,3.1-.3,8.6-2.6,10.6-5,2.9-3.6,3.9-10.1,3.2-14.6ZM302.2,163.4c3.6-7.9,12.8-10.7,19.8-5,10,8.1,10.4,26.8,3.4,36.9-5.9,8.5-16.8,9.2-22.6.5-7.7-6-8-25.8-.6-32.3ZM209.2,198c1.1.2-.6,1.5-.8,1.7-20,13.4-42.4-5.4-34.8-27.6,5.1-15.1,24.3-20,36.3-9.5l1.6,2.5c10.8,7.4,9.1,26.8-2.2,32.9ZM246.8,218c-3.8-1.1,1.4-5.7,3.1-7,5.8-4.6,14.3-7.9,21.6-8.5,2.5-.2,15.2.3,15.7,2.9.1.6-.4,1.2-.9,1.3-1.3.4-7.2-1.5-9.4-1.6-10.9-.6-23,4.7-30.1,12.8ZM262.9,235.3c-1.3,1.4-2.3,5.2-4.5,3.4-1.1-1.6,2-5.2,3.1-6.4,5.3-6.3,14.5-11,22.7-11.8,2.1-.2,6.2-.4,8.1.5,2.2,1.2.9,2.7-1.5,2.7-12.8-.2-19.1,2-27.9,11.6ZM302.8,239.5c-7.2.9-13.3,4.5-17.8,10-1.2,1.5-4.2,8.2-5.9,5.9-.7-1.7,1.2-4.3,2.1-5.8,3.2-5.1,12.2-11.7,18.1-12.5,1.9-.3,4.9,0,3.5,2.4ZM306.4,266l-2.5.5c-.5-5.2,3.2-11.7,7.3-14.7,2-1.5,6-4,6.1.2-6.3,1.3-9.8,8.1-10.8,14Z" fill="#7f9aae"/>
    <path class="st8" d="M38.8,187.9c-2.2-45,37-105.3,87.8-79.8,8.9,4.5,15.5,10.9,21.9,18.3-12.5,24.8-16.7,54.3-10.9,81.7.7,3.5,3.6,10.4,3.7,13.1s-2.4,7.9-3.9,10.9-2.8,5.3-3.9,6.7c-6.4,8.6-16,13.1-26.7,12.3-26.6-2.2-27.6-35.5-45.4-47.4-7.6-5.1-17-7.6-22.6-15.6Z" fill="#617686"/>
    <path class="st8" d="M394.1,169c0,.2,0,.4,0,.6s0,.4,0,.6c-2.6,2.9-4.6,6.4-7.2,9.2s-5.7,4.8-8.4,8.1c-10.5,12.9-9.2,32.5-21.2,45.7s-10.8,9.3-14.7,10.6c-8,2.7-10.8.5-18.1,0,2.6-2,5.7-2.7,8.5-4.6,7-4.6,12.4-14.2,13.2-22.5,1.3-13.9-8.6,1.7-12.5,4.7s-5.2,3.3-8.1,3.9c1.6-2,3-5.1,4-7.4,11.1-26.3,6.9-60.9-3.7-86.8s-5.3-11-8-16.6c8.9-13.2,25.7-19.8,40.6-12.2,22.2,11.4,31.8,43.9,35.6,66.6Z" fill="#617686"/>
    <path class="st10" d="M324.5,243.7c-2.7-.2-8.3.3-11.1.6-6-7.9-8-16.3-10.6-25.6,7,5,14,8.7,22.8,6.7s5.7-2.1,8.1-3.9c3.9-3.1,13.8-18.6,12.5-4.7-.8,8.3-6.2,17.9-13.2,22.5s-6,2.5-8.5,4.6Z" fill="#f1ead1"/>
    <path class="st20" d="M302.8,218.6c2.6,9.3,4.5,17.7,10.6,25.6-.3,0-.5.3-.6.6-12.2-10.6-11.7-23.2-15.9-37.9-.6-2.2-3.4-8-3.5-9.3s1.9-2.9,3.1-.9c3,4.9,4.6,16.1,6.2,21.9Z" fill="#647887"/>
    <path class="st20" d="M271.5,202.6c2.5-.2,15.2.3,15.7,2.9.1.6-.4,1.2-.9,1.3-1.3.4-7.2-1.5-9.4-1.6-10.9-.6-23,4.7-30.1,12.8-3.8-1.1,1.4-5.7,3.1-7,5.8-4.6,14.3-7.9,21.6-8.5Z" fill="#647887"/>
    <path class="st8" d="M284.3,220.4c2.1-.2,6.2-.4,8.1.5s.9,2.7-1.5,2.7c-12.8-.2-19.1,2-27.9,11.6-1.3,1.4-2.3,5.2-4.5,3.4-1.1-1.6,2-5.2,3.1-6.4,5.3-6.3,14.5-11,22.7-11.8Z" fill="#617686"/>
    <path class="st8" d="M299.3,237.1c1.9-.3,4.9,0,3.5,2.4-7.2.9-13.3,4.5-17.8,10s-4.2,8.2-5.9,5.9c-.7-1.7,1.2-4.3,2.1-5.8,3.2-5.1,12.2-11.7,18.1-12.5Z" fill="#617686"/>
    <g>
      <path class="st10" d="M213.7,227.5c1.6.3,5.4,4.1,7.3,5.2,7.7,4.7,15.6,4.4,22.7-1.1s9.8-11.6,11.7-10.3c1.3,4,0,8.5-1.3,12.4-3.6,10.8-11.9,18.3-23.2,20s-2.9.6-3.9.6c-5.6,0-18.7-3.9-22.3-8.4s-2.6-6.4-2.2-9.2c.7-4.6,6.2-10.2,11.1-9.2Z" fill="#f1ead1"/>
      <path class="st4" d="M213.7,227.5c-4.9-.9-10.4,4.7-11.1,9.2s.4,7,2.2,9.2c-2.1,1.6-3.9-.7-4.6-2.4-2.5-6.3.9-15.4,7.4-18s6.7-2.2,6.1,1.9Z" fill="#66767f"/>
    </g>
    <path class="st4" d="M390.8,240.3c0,.3,1.2,1.3.3,2.8-2,3.3-10.2.5-12.7-1.2s-8.5-10.1-5-11.1,1.5,1.2,3,1.1c-.6,7,8.6,11.6,14.5,8.4Z" fill="#66767f"/>
    <path class="st20" d="M366.8,252l-1.1-5.6c3.1-.2,4.4,3.7,7.1,5.5s7.7,3.6,11.3,4c.2.7-.1,1.6,0,2.2-1.1.1-2.8.1-3.9,0-2-.2-4.7-1.2-6.5-2.1s-4.2-3.6-6.9-4Z" fill="#647887"/>
    <path class="st8" d="M317.2,252c-6.3,1.3-9.8,8.1-10.8,14l-2.5.5c-.5-5.2,3.2-11.7,7.3-14.7s6-4,6.1.2Z" fill="#617686"/>
    <path class="st20" d="M329.5,253.1c-.2,2.2-1.5,3.8-2.1,6s-.3,4.8-.7,7.1-.5,1.6-1.4,1.4c-3.2-4-.2-10.3,1.4-14.5.8.1,1.9,0,2.8,0Z" fill="#647887"/>
    <path class="st20" d="M230.9,253.7c.4,3.3,4.7,5.1,5.6,8.4-.7,0-2.2,0-3.3,0l-6.1-7.8c1,0,2.7-.4,3.9-.6Z" fill="#647887"/>
    <g>
      <path class="st5" d="M209.2,198c1.1.2-.6,1.5-.8,1.7-20,13.4-42.4-5.4-34.8-27.6,5.1-15.1,24.3-20,36.3-9.5l1.6,2.5c-13.9-9.5-30.8,2.3-28.9,18.6s15.3,20.4,26.7,14.3Z" fill="#fafbfb"/>
      <g>
        <path class="st16" d="M211.4,165.1c10.8,7.4,9.1,26.8-2.2,32.9s-25.2-1.6-26.7-14.3,15-28.1,28.9-18.6ZM205.1,168c-4.6,1.4-4.2,10.6,1.6,11.1,9,.7,7.2-13.7-1.6-11.1Z" fill="#2c2c2c"/>
        <path class="st5" d="M205.1,168c8.8-2.6,10.5,11.7,1.6,11.1-5.8-.4-6.2-9.7-1.6-11.1Z" fill="#fafbfb"/>
      </g>
    </g>
    <g>
      <path class="st16" d="M302.8,195.7c-7.7-6-8-25.8-.6-32.3s12.7-3.3,17,2.2c6.5,8.4,5.6,23.7-3.1,30.4s-9.7,2.6-13.4-.3ZM303.5,167.5c-4.2,4.6,1.6,13.7,6.2,8.2s-2.1-12.7-6.2-8.2Z" fill="#2c2c2c"/>
      <path class="st5" d="M302.8,195.7c3.7,2.9,9.6,3.2,13.4.3,8.7-6.7,9.6-22,3.1-30.4-4.3-5.5-11.4-7.1-17-2.2,3.6-7.9,12.8-10.7,19.8-5,10,8.1,10.4,26.8,3.4,36.9-5.9,8.5-16.8,9.2-22.6.5Z" fill="#fafbfb"/>
      <path class="st3" d="M303.5,167.5c4.1-4.5,10.7,2.8,6.2,8.2s-10.4-3.6-6.2-8.2Z" fill="#f5f6f5"/>
    </g>
    <g>
      <path class="st7" d="M424.5,152.3c.4,1.1.8,2.3,1.2,3.5,1,3.2,1.6,6.6,1.8,10,0,1.3-.1,2.6-.4,3.9s-.4,2.6-.8,3.8c0,.2-.4,1.6-.6,1.7-2.7,1.2-5.9.6-6.6-2.6-.4-2.1.8-4.7-1.8-5.5s-2.9,1.1-4.8,1.4c-4.4.7-5.6-.6-5.3-5,0-.4,1.2-1.3,1.4-1.6,1.3-1.3,2.8-2.5,4.3-3.5,1.3-.9,2.8-1.7,3.9-2.9.6-.6,1-1.2,1.4-1.9.6-1.1,1.1-2.3,1.3-3.6s0-2.2.5-2.7c1.1-.9,2.4,1,2.9,1.8.6,1,.9,2,1.3,3.1s0,.1,0,.2Z" fill="#5e89b0"/>
      <path class="st6" d="M385.7,214.1c2.1-.4,2.9,1.8,3.7,2.1s1.6,0,1.8.1-.2.8.7,1.3c2.1,1.2,4.7,2.4,7.1,2.6-1.5,3.7-2.9,7.5-4.5,11.1s-3.9,6.9-3.9,8.9c-5.9,3.3-15.1-1.4-14.5-8.4,1.4-2.3,2.5-4.8,3.6-7.3s.2-2.1.3-2.2,1.2,0,1.6-.9c1.3-2.5,2.6-5,4-7.5Z" fill="#ba9042"/>
      <path class="st6" d="M425.8,175.1c0,.4,0,.8,0,1.1s-.3.7-.5,1c-.7,1.1-1.6,2.1-2.3,3.3-.8,1.2-1.7,2.5-2.8,3.6-1.1,1.1-2.5,1.8-4,2.5s-3.2,1.4-4.9,1.3c-.6,0-7.5-3-7.8-3.3s-1.4-3.3-1.5-3.8c-2-7.3.7-12.3,5.4-17.4-.3,4.3.9,5.7,5.3,5s2.9-2,4.8-1.4,1.3,3.4,1.8,5.5c.7,3.2,3.9,3.8,6.6,2.6Z" fill="#ba9042"/>
      <path class="st9" d="M411.4,187.9c-1.4,5.5-3.6,10.8-5.6,16.2l-11.1-5.6c.8-1.3,1.5-3.4,2.6-5,2-3.1,4.1-6.2,6.4-9,.3.3,7.2,3.3,7.8,3.3Z" fill="#b0b5b4"/>
      <path class="st6" d="M380.2,258.2c-2-.2-4.7-1.2-6.5-2.1-2.3-1.2-4.2-3.6-6.9-4-3.8,9.1-7.8,18.1-11.1,27.3-2.2,6.2-4.7,12.5-6.1,19s-.7,3.5-.6,5.3c0,0,0,.2,0,.3,0,0,.1.1.2.2.6.3,1.3.5,1.9.5.8,0,1.5-.5,2.1-1,1.9-1.7,3.4-4.1,4.8-6.2s2.3-3.4,3.4-5.2c1.9-2.9,3.6-5.9,5.3-9s3.6-5.8,5.3-8.8c1.3-2.3,2.4-4.7,3.6-7,.7-1.3,1.4-2.6,2.1-3.9.5-.9,1.1-1.8,1.6-2.7.1-.2.2-.4.3-.6,0-.1,0-.2,0-.4,0-.2.2-.3.4-.4.2-.1.3-1.3.2-1.4Z" fill="#ba9042"/>
      <path class="st15" d="M394.7,198.5c-3.4,5.6-5.8,9.8-8.9,15.6,2.1-.4,2.9,1.8,3.7,2.1.6.3,1.6,0,1.8.1,0,0-.2.8.7,1.3,2.1,1.2,4.7,2.4,7.1,2.6,2.3-5.4,4.6-10.4,6.7-16.2l-11.1-5.6Z" fill="#c03132"/>
    </g>
  </g>
</svg>