<?xml version="1.0" encoding="utf-8"?>
<!-- Generator: Adobe Illustrator 16.0.0, SVG Export Plug-In . SVG Version: 6.00 Build 0)  -->
<!DOCTYPE svg PUBLIC "-//W3C//DTD SVG 1.1//EN" "http://www.w3.org/Graphics/SVG/1.1/DTD/svg11.dtd">
<svg version="1.1" id="Layer_1" xmlns="http://www.w3.org/2000/svg" xmlns:xlink="http://www.w3.org/1999/xlink" x="0px" y="0px"
	 width="544.6px" height="512.16px" viewBox="0 0 544.6 512.16" enable-background="new 0 0 544.6 512.16" xml:space="preserve">
<g transform="matrix(.35278 0 0 -.35278 103.89 198.8)">
	<path fill="#A95439" d="M804.23-205.58c17.23-32.83,55.1-80.22-6.76-141.14l68.93-47.12c53.15,56.64,59.87,126.5,20.94,200.32
		C851.51-125.6,796-58.91,830.46,9.35c36.81,72.95,155.79,80.75,207.7,20.07c27.48-32.12,21.69-75.92-13.02-104.24
		c-82.98-67.73-17.44-150.03,76.89-47.81c82.89,89.83,13.04,203.51-43.36,237.94c-66.48,40.57-174.37,69.3-272.47-32.44
		C682.78-24.38,787.02-172.76,804.23-205.58"/>
</g>
<g transform="matrix(.35278 0 0 -.35278 104.64 198.56)">
	<path fill="#C4623C" d="M827.84-198.03c17.23-32.84,50.5-102.61-11.37-163.55l47.72-32.62c53.17,56.64,59.88,126.5,20.95,200.33
		c-35.83,67.91-91.34,134.6-56.89,202.85c36.81,72.96,155.8,80.75,207.7,20.08c27.48-32.13,21.69-75.93-13.02-104.26
		c-82.97-67.72-16.81-147.28,65.07-38.08c73.34,97.78,7.77,170.66-48.64,205.1c-66.49,40.57-159.31,53.49-240.88-31.05
		C712.45-28.35,810.6-165.2,827.84-198.03"/>
</g>
<g transform="matrix(.35278 0 0 -.35278 106.76 201.53)">
	<path fill="#D8875F" d="M894.55-291.49c-5.46-56.49-45.91-87.91-45.91-87.91l9.51-6.5c53.17,56.65,59.87,126.5,20.95,200.32
		c-11.04,20.89-23.93,41.71-35.5,62.47C872.26-177.04,899.1-244.42,894.55-291.49"/>
</g>
<g transform="matrix(.35278 0 0 -.35278 110.71 191.94)">
	<path fill="#D8875F" d="M1018.86,10.29c27.46-32.11,21.67-75.91-13.02-104.25c-21.11-17.22-32.56-35.19-36.57-50.66
		c7.89,24.5,30.78,36.07,37.94,41.43c42.33,33.09,53.25,84.66,20.98,119.02c-32.27,34.36-92.96,69.16-174.89,17.66
		C904.7,62.65,980.28,55.38,1018.86,10.29"/>
</g>
<g transform="matrix(.35278 0 0 -.35278 103.39 190.41)">
	<path fill="#773A30" d="M788.5,58.43c108.32,112.35,225.69,59.99,271.11,32.26c32.9-20.03,72.4-68.6,79.79-125.67
		c5.26-40.66-7.42-78.9-36.67-110.57c-45.55-49.37-82.12-53.85-99.6-42.69c-7.95,5.07-12.67,13.67-13.28,24.22
		c-1.19,20.36,12.83,44.54,37.5,64.68c17.84,14.57,28.68,33.71,30.48,53.9c1.65,18.46-4.5,36.88-17.33,51.89
		c-6.72,7.86-14.75,14.8-23.85,20.6c-31.2,19.93-74.5,25.74-112.97,15.19c-33.22-9.11-59.03-29.01-72.69-56.06
		c-28.4-56.28,4.29-112.4,35.9-166.67c7.09-12.18,14.44-24.78,21-37.21c38.94-73.8,31.95-142.37-20.15-198.36l-67.05,45.83
		c54.84,54.76,30.04,98.69,11.91,130.82c-2.13,3.75-4.1,7.28-5.89,10.69c-1.68,3.18-4.11,7.36-7.2,12.66
		C771.11-167.33,695.66-37.85,788.5,58.43 M797.65-217.16c3.07-5.28,5.48-9.44,7.15-12.59c1.8-3.44,3.8-6.98,5.91-10.74
		c17.88-31.7,42.37-75.11-12.48-129.13l-0.94-0.92l70.79-48.38l0.64,0.69c53.39,56.85,60.7,126.55,21.13,201.57
		c-6.58,12.46-13.93,25.08-21.05,37.28c-32.76,56.23-63.71,109.35-35.85,164.57c13.37,26.5,38.7,46,71.33,54.94
		c37.9,10.4,80.51,4.67,111.21-14.93c8.92-5.7,16.78-12.47,23.36-20.17c12.62-14.76,18.44-32.14,16.82-50.27
		c-1.76-19.6-12.31-38.22-29.7-52.4c-25.59-20.89-39.54-45.13-38.3-66.51c0.66-11.25,5.73-20.47,14.3-25.93
		c18.19-11.62,55.92-7.31,102.38,43.04c29.7,32.19,42.57,71.04,37.23,112.35c-7.34,56.66-46.04,105.07-78.91,126.06
		c-0.63,0.39-1.28,0.79-1.92,1.18c-28.34,17.29-73.03,37.82-124.95,37.31c-54.56-0.53-104.66-24.06-148.87-69.92
		C692.94-37.52,769.01-168.05,797.65-217.16"/>
	<path fill="none" stroke="#773A30" stroke-width="0.9776" stroke-miterlimit="10" d="M788.5,58.43
		c108.32,112.35,225.69,59.99,271.11,32.26c32.9-20.03,72.4-68.6,79.79-125.67c5.26-40.66-7.42-78.9-36.67-110.57
		c-45.55-49.37-82.12-53.85-99.6-42.69c-7.95,5.07-12.67,13.67-13.28,24.22c-1.19,20.36,12.83,44.54,37.5,64.68
		c17.84,14.57,28.68,33.71,30.48,53.9c1.65,18.46-4.5,36.88-17.33,51.89c-6.72,7.86-14.75,14.8-23.85,20.6
		c-31.2,19.93-74.5,25.74-112.97,15.19c-33.22-9.11-59.03-29.01-72.69-56.06c-28.4-56.28,4.29-112.4,35.9-166.67
		c7.09-12.18,14.44-24.78,21-37.21c38.94-73.8,31.95-142.37-20.15-198.36l-67.05,45.83c54.84,54.76,30.04,98.69,11.91,130.82
		c-2.13,3.75-4.1,7.28-5.89,10.69c-1.68,3.18-4.11,7.36-7.2,12.66C771.11-167.33,695.66-37.85,788.5,58.43z M797.65-217.16
		c3.07-5.28,5.48-9.44,7.15-12.59c1.8-3.44,3.8-6.98,5.91-10.74c17.88-31.7,42.37-75.11-12.48-129.13l-0.94-0.92l70.79-48.38
		l0.64,0.69c53.39,56.85,60.7,126.55,21.13,201.57c-6.58,12.46-13.93,25.08-21.05,37.28c-32.76,56.23-63.71,109.35-35.85,164.57
		c13.37,26.5,38.7,46,71.33,54.94c37.9,10.4,80.51,4.67,111.21-14.93c8.92-5.7,16.78-12.47,23.36-20.17
		c12.62-14.76,18.44-32.14,16.82-50.27c-1.76-19.6-12.31-38.22-29.7-52.4c-25.59-20.89-39.54-45.13-38.3-66.51
		c0.66-11.25,5.73-20.47,14.3-25.93c18.19-11.62,55.92-7.31,102.38,43.04c29.7,32.19,42.57,71.04,37.23,112.35
		c-7.34,56.66-46.04,105.07-78.91,126.06c-0.63,0.39-1.28,0.79-1.92,1.18c-28.34,17.29-73.03,37.82-124.95,37.31
		c-54.56-0.53-104.66-24.06-148.87-69.92C692.94-37.52,769.01-168.05,797.65-217.16z"/>
</g>
<g transform="matrix(.35278 0 0 -.35278 103.66 198.44)">
	<path fill="#773A30" d="M797-194.26l-0.11-0.05L797-194.26z M803.18-347.06l63.52-43.4c50.35,55.03,56.79,122.3,18.62,194.66
		c-6.52,12.36-13.84,24.9-20.89,37.02C832.48-103.92,799.5-47.3,828.4,9.98c13.91,27.58,40.21,47.87,74,57.14
		c39.01,10.69,82.93,4.79,114.63-15.45c9.25-5.92,17.44-12.99,24.29-21c13.21-15.44,19.55-34.4,17.85-53.43
		c-1.87-20.75-12.97-40.39-31.25-55.32c-24.16-19.71-37.89-43.25-36.74-62.97c0.58-9.84,4.96-17.87,12.33-22.57
		c16.82-10.73,52.29-6.08,96.96,42.33c28.81,31.22,41.32,68.89,36.12,108.91c-7.02,54.28-44.96,103.55-78.8,124.16
		c-45,27.47-161.25,79.33-268.55-31.93l-1.49,1.44l1.49-1.44c-91.75-95.15-16.85-223.65,11.35-272.02
		c2.96-5.08,5.53-9.48,7.24-12.74c1.83-3.5,3.97-7.28,5.85-10.61C831.93-247.88,856.82-292.03,803.18-347.06 M867.62-398.78
		l-74.36,50.8l2.77,2.69c53.71,52.91,29.69,95.52,12.12,126.63c-2.15,3.82-4.14,7.35-5.94,10.79c-1.69,3.23-4.34,7.73-7.1,12.5
		c-28.85,49.51-105.48,181.02-10.43,279.61c44.63,46.28,95.21,70.02,150.35,70.55c0.64,0.01,1.27,0.01,1.9,0.01
		c51.62,0,95.93-20.4,124.15-37.61c0.65-0.4,1.31-0.81,1.95-1.22c33.25-21.24,72.43-70.2,79.85-127.55
		c5.44-41.94-7.63-81.37-37.76-114.02c-47.33-51.29-86.15-55.42-105.02-43.37c-9.15,5.83-14.55,15.61-15.26,27.56
		c-1.28,22.04,12.96,46.92,39.07,68.22c16.94,13.83,27.23,31.94,28.94,50.98c1.56,17.56-4.08,34.4-16.33,48.74
		c-6.44,7.54-14.15,14.19-22.92,19.78c-30.22,19.29-72.18,24.91-109.54,14.68c-32.05-8.79-56.9-27.93-70.01-53.89
		c-27.36-54.21,3.31-106.86,35.78-162.59c7.12-12.27,14.49-24.89,21.08-37.37c40.01-75.87,32.61-146.4-21.46-203.95L867.62-398.78z"
		/>
	<path fill="none" stroke="#773A30" stroke-width="0.9776" stroke-miterlimit="10" d="M797-194.26l-0.11-0.05L797-194.26z
		 M803.18-347.06l63.52-43.4c50.35,55.03,56.79,122.3,18.62,194.66c-6.52,12.36-13.84,24.9-20.89,37.02
		C832.48-103.92,799.5-47.3,828.4,9.98c13.91,27.58,40.21,47.87,74,57.14c39.01,10.69,82.93,4.79,114.63-15.45
		c9.25-5.92,17.44-12.99,24.29-21c13.21-15.44,19.55-34.4,17.85-53.43c-1.87-20.75-12.97-40.39-31.25-55.32
		c-24.16-19.71-37.89-43.25-36.74-62.97c0.58-9.84,4.96-17.87,12.33-22.57c16.82-10.73,52.29-6.08,96.96,42.33
		c28.81,31.22,41.32,68.89,36.12,108.91c-7.02,54.28-44.96,103.55-78.8,124.16c-45,27.47-161.25,79.33-268.55-31.93l-1.49,1.44
		l1.49-1.44c-91.75-95.15-16.85-223.65,11.35-272.02c2.96-5.08,5.53-9.48,7.24-12.74c1.83-3.5,3.97-7.28,5.85-10.61
		C831.93-247.88,856.82-292.03,803.18-347.06z M867.62-398.78l-74.36,50.8l2.77,2.69c53.71,52.91,29.69,95.52,12.12,126.63
		c-2.15,3.82-4.14,7.35-5.94,10.79c-1.69,3.23-4.34,7.73-7.1,12.5c-28.85,49.51-105.48,181.02-10.43,279.61
		c44.63,46.28,95.21,70.02,150.35,70.55c0.64,0.01,1.27,0.01,1.9,0.01c51.62,0,95.93-20.4,124.15-37.61
		c0.65-0.4,1.31-0.81,1.95-1.22c33.25-21.24,72.43-70.2,79.85-127.55c5.44-41.94-7.63-81.37-37.76-114.02
		c-47.33-51.29-86.15-55.42-105.02-43.37c-9.15,5.83-14.55,15.61-15.26,27.56c-1.28,22.04,12.96,46.92,39.07,68.22
		c16.94,13.83,27.23,31.94,28.94,50.98c1.56,17.56-4.08,34.4-16.33,48.74c-6.44,7.54-14.15,14.19-22.92,19.78
		c-30.22,19.29-72.18,24.91-109.54,14.68c-32.05-8.79-56.9-27.93-70.01-53.89c-27.36-54.21,3.31-106.86,35.78-162.59
		c7.12-12.27,14.49-24.89,21.08-37.37c40.01-75.87,32.61-146.4-21.46-203.95L867.62-398.78z"/>
</g>
<g transform="matrix(.35278 0 0 -.35278 88.031 209.85)">
	<path fill="#773A30" d="M305.18-553.32c-139.02,45.85-166.77,130.08-166.77,130.08c0.29-0.76,34.55-77.28,169.48-121.78
		L305.18-553.32z"/>
	<path fill="none" stroke="#773A30" stroke-width="0.9776" stroke-miterlimit="10" d="M305.18-553.32
		c-139.02,45.85-166.77,130.08-166.77,130.08c0.29-0.76,34.55-77.28,169.48-121.78L305.18-553.32z"/>
</g>
<g transform="matrix(.35278 0 0 -.35278 93.561 194.27)">
	<path fill="#A95439" d="M479.19-63.03C379.88-65,262.76-103.53,252.3-222.8c-10.43-119.28,47.59-426.5,223.07-430.63
		c175.5-4.15,268.38,276.48,253.43,400.48C713.83-128.89,646.59-59.74,479.19-63.03"/>
	<path fill="#C4623C" d="M479.19-63.03C379.88-65,262.76-103.53,252.3-222.8c-10.43-119.28,491.46-154.15,476.51-30.15
		C713.83-128.89,646.59-59.75,479.19-63.03"/>
</g>
<g transform="matrix(.35278 0 0 -.35278 93.29 194.39)">
	<path fill="#773A30" d="M470.67-66.81c-47.11-2.01-201.74-19.26-213.71-155.93c-8.17-93.33,24.99-278.67,106.33-369.6
		c32.83-36.68,70.84-55.77,112.96-56.77c3.52-0.11,7.01-0.05,10.49,0.09c49.27,2.1,94.64,27.22,134.84,74.57
		c74.87,88.17,114.28,237.42,104.15,321.47C709.78-120.98,634.02-63.48,480.02-66.51C476.95-66.56,473.8-66.65,470.67-66.81
		 M487.06-656.8h-0.01c-3.63-0.13-7.31-0.19-11.01-0.11c-44.34,1.05-84.23,21.06-118.54,59.39
		c-82.79,92.54-116.6,280.78-108.29,375.5C261.73-79.07,421.64-61.1,470.33-59.01c3.19,0.13,6.39,0.25,9.57,0.28
		c158.83,3.14,237.03-56.47,253.55-193.32c10.32-85.7-29.77-237.72-105.95-327.42C585.86-628.58,538.6-654.54,487.06-656.8"/>
	<path fill="none" stroke="#773A30" stroke-width="0.9776" stroke-miterlimit="10" d="M470.67-66.81
		c-47.11-2.01-201.74-19.26-213.71-155.93c-8.17-93.33,24.99-278.67,106.33-369.6c32.83-36.68,70.84-55.77,112.96-56.77
		c3.52-0.11,7.01-0.05,10.49,0.09c49.27,2.1,94.64,27.22,134.84,74.57c74.87,88.17,114.28,237.42,104.15,321.47
		C709.78-120.98,634.02-63.48,480.02-66.51C476.95-66.56,473.8-66.65,470.67-66.81z M487.06-656.8h-0.01
		c-3.63-0.13-7.31-0.19-11.01-0.11c-44.34,1.05-84.23,21.06-118.54,59.39c-82.79,92.54-116.6,280.78-108.29,375.5
		C261.73-79.07,421.64-61.1,470.33-59.01c3.19,0.13,6.39,0.25,9.57,0.28c158.83,3.14,237.03-56.47,253.55-193.32
		c10.32-85.7-29.77-237.72-105.95-327.42C585.86-628.58,538.6-654.54,487.06-656.8z"/>
</g>
<g transform="matrix(.35278 0 0 -.35278 97.447 203.68)">
	<path fill="#F8956B" d="M601.48-359.15c15.63-100.57-12.65-182.86-128.4-187.83c-106.75-4.58-160.82,58.96-150.16,175.85
		c9.15,100.16,65.51,185.12,134.51,188.09C526.44-180.1,586.03-259.77,601.48-359.15"/>
</g>
<g transform="matrix(.35278 0 0 -.35278 97.107 203.44)">
	<path fill="#F8A47C" d="M590.78-351.61c15.65-100.54-4.33-165.06-120.07-170.01c-106.77-4.61-156.15,56.74-146.82,149.73
		c10.03,100.06,65.5,185.11,134.51,188.09C527.42-180.85,575.33-252.23,590.78-351.61"/>
</g>
<g transform="matrix(.35278 0 0 -.35278 91.736 207.77)">
	<path fill="#FCBA8C" d="M421.77-487.86c63.16-22.15,130.4,5.6,165.24,63.11c19.73,36.33,25.12,76.13,22.12,116.1
		c-23.12,80.48-75.79,139.85-135.5,137.3c-69.01-2.98-125.35-87.94-134.5-188.09c-1.31-14.59-1.61-28.26-0.94-41.12
		C358.93-435.38,376.29-471.93,421.77-487.86"/>
</g>
<g transform="matrix(.35278 0 0 -.35278 93.252 198.66)">
	<path fill="#773A30" d="M469.47-201.18c-65.2-2.8-121.39-82.14-130.78-184.53c-5.48-60.08,5.98-105.46,34.04-134.92
		c25.23-26.45,62.93-38.79,112.08-36.67c45.4,1.95,79.29,16.18,100.72,42.32c25.63,31.24,33.69,78.69,24,141.02
		C593.79-272.72,533.59-198.43,469.47-201.18 M485.16-565.1c-51.52-2.22-91.21,10.92-118.06,39.08
		c-29.69,31.15-41.86,78.58-36.14,141.01c9.68,106.25,69.11,188.64,138.19,191.6c68.06,2.93,131.71-74.19,148.1-179.38
		c10.05-64.6,1.36-114.1-25.69-147.12C568.65-547.83,532.85-563.04,485.16-565.1"/>
	<path fill="none" stroke="#773A30" stroke-width="0.9776" stroke-miterlimit="10" d="M469.47-201.18
		c-65.2-2.8-121.39-82.14-130.78-184.53c-5.48-60.08,5.98-105.46,34.04-134.92c25.23-26.45,62.93-38.79,112.08-36.67
		c45.4,1.95,79.29,16.18,100.72,42.32c25.63,31.24,33.69,78.69,24,141.02C593.79-272.72,533.59-198.43,469.47-201.18z M485.16-565.1
		c-51.52-2.22-91.21,10.92-118.06,39.08c-29.69,31.15-41.86,78.58-36.14,141.01c9.68,106.25,69.11,188.64,138.19,191.6
		c68.06,2.93,131.71-74.19,148.1-179.38c10.05-64.6,1.36-114.1-25.69-147.12C568.65-547.83,532.85-563.04,485.16-565.1z"/>
</g>
<g transform="matrix(.35278 0 0 -.35278 90.161 205.48)">
	<path fill="#773A30" d="M372.2-415.8c-13.89,29.59-49.21,45.22-49.59,45.38c0,0,41.47-9.76,56.62-42.05L372.2-415.8z"/>
	<path fill="none" stroke="#773A30" stroke-width="0.9776" stroke-miterlimit="10" d="M372.2-415.8
		c-13.89,29.59-49.21,45.22-49.59,45.38c0,0,41.47-9.76,56.62-42.05L372.2-415.8z"/>
</g>
<g transform="matrix(.35278 0 0 -.35278 106.67 214.18)">
	<path fill="#F8956B" d="M891.72-689.57c-0.06-0.71-0.12-1.42-0.2-2.11c0-0.08,0-0.16-0.02-0.21c-0.03-0.57-0.11-1.12-0.19-1.69
		c-0.07-0.54-0.17-1.07-0.27-1.59c-0.07-0.58-0.19-1.15-0.3-1.7c-0.11-0.55-0.22-1.1-0.34-1.65c-0.16-0.64-0.33-1.31-0.51-1.95
		c-0.17-0.69-0.39-1.4-0.6-2.08c-0.21-0.6-0.39-1.21-0.61-1.81c-0.08-0.19-0.16-0.42-0.24-0.63c-0.2-0.59-0.45-1.18-0.67-1.77
		l-0.05-0.17l-0.02-0.26c-0.01-6.98-1.21-13.39-3.54-19.18c-0.27-0.7-0.57-1.36-0.89-2.02c-2.43-5.33-5.91-10.09-10.38-14.28
		c-12.75-11.94-33.24-17.95-56.16-16.48h-0.08c-0.5,0.04-1.02,0.07-1.53,0.12l-0.32,0.01l-0.26-0.19c-0.05-0.05-0.11-0.07-0.14-0.11
		c-3.4-2.6-6.85-4.92-10.39-7c-0.58-0.33-1.17-0.68-1.76-1c-7.73-4.34-15.72-7.4-23.9-9.18c-0.99-0.22-2-0.44-2.99-0.59
		c-6.43-1.15-12.99-1.51-19.62-1.1c-33.29,2.13-63.67,23.79-83.29,41.56c-3.3,2.98-7.29,6.8-11.67,11.12
		c-0.64,0.63-1.26,1.25-1.89,1.89c-4.49,4.45-9.35,9.33-14.19,14.34c-0.91,0.92-1.83,1.87-2.75,2.82c-0.47,0.47-0.93,0.97-1.42,1.45
		c-1.77,1.85-3.57,3.69-5.31,5.54c-8.46,8.77-31.29,29.82-36.84,35.81c-0.01,0.01-0.02,0.04-0.02,0.04
		c-1.28,1.36-2.38,2.56-3.39,3.65c-0.84,0.73-1.58,1.41-2.23,1.97c-0.32,0.28-0.63,0.53-0.87,0.79c-0.44,0.39-0.83,0.73-1.16,1.03
		c-0.11,0.08-0.2,0.16-0.28,0.25c-0.3,0.26-0.5,0.46-0.65,0.61c-0.04,0.04-0.05,0.05-0.08,0.07c-0.04,0.01-0.06,0.03-0.07,0.04
		c-0.03,0.05-0.06,0.07-0.09,0.11c-0.03,0.01-0.05,0.04-0.06,0.05l-0.01,0.01c0.66,2.49,1.43,4.87,2.27,7.15
		c0.21,0.58,0.41,1.12,0.65,1.67c0.27,0.72,0.58,1.43,0.89,2.14c0.29,0.67,0.59,1.36,0.89,2.02c0.36,0.74,0.73,1.5,1.1,2.22
		c0.27,0.56,0.59,1.12,0.88,1.68c0.34,0.61,0.7,1.25,1.04,1.83c0.37,0.64,0.72,1.23,1.11,1.83c0.36,0.6,0.74,1.17,1.12,1.75
		c0.36,0.6,0.76,1.17,1.15,1.74c0.65,0.9,1.31,1.78,2,2.66c0.55,0.74,1.14,1.47,1.74,2.18c0.46,0.55,0.92,1.07,1.41,1.61l1,1.11
		c1,1.07,2.03,2.1,3.08,3.08c0.46,0.45,0.94,0.9,1.43,1.32c0.46,0.44,0.94,0.85,1.45,1.29c0.48,0.42,0.98,0.83,1.49,1.22
		c0,0.04,0.02,0.05,0.04,0.05c0.48,0.38,0.98,0.79,1.49,1.17c0.51,0.4,1.03,0.8,1.54,1.17c0.08,0.07,0.17,0.14,0.27,0.19
		c22.16,15.05,47.68,21.97,65.97,21.43l0.08-0.01c0.58-0.07,1.17-0.14,1.73-0.22c0.47-0.06,0.91-0.13,1.35-0.21
		c1.04-0.15,2.01-0.33,2.93-0.53c0.39-0.09,0.77-0.18,1.16-0.27c0.41-0.09,0.8-0.21,1.2-0.32c0.78-0.21,1.49-0.46,2.17-0.7
		c0.63-0.24,1.33-0.46,2.12-0.69c0.35-0.09,0.72-0.2,1.13-0.29c0.76-0.23,1.56-0.39,2.45-0.58c1.12-0.23,2.36-0.48,3.67-0.71
		c0.87-0.15,1.78-0.31,2.7-0.46c0.12-0.01,0.21-0.02,0.31-0.04c1.68-0.25,3.48-0.52,5.35-0.77c0.65-0.09,1.3-0.18,1.97-0.25
		l0.08-0.01c3.13-0.4,6.46-0.79,9.98-1.16c0.89-0.09,1.76-0.21,2.69-0.3c2.69-0.28,5.53-0.57,8.43-0.85c1.5-0.17,3.05-0.32,4.6-0.46
		c0.84-0.09,1.7-0.19,2.59-0.26c1.55-0.15,3.12-0.32,4.7-0.47c1.41-0.13,2.82-0.27,4.24-0.44c4.19-0.4,8.44-0.84,12.73-1.31
		c0.93-0.11,1.85-0.21,2.78-0.31c1.83-0.2,3.72-0.43,5.57-0.64c1.85-0.22,3.72-0.43,5.58-0.66c6.75-0.84,31.58-18.64,38.07-19.68
		c1.98-0.34,3.91-0.66,5.84-1.03c1.95-0.34,3.9-0.71,5.79-1.09c0.03,0,0.04-0.01,0.08-0.02c0.19-0.01,0.36-0.03,0.52-0.08
		c2.01-0.41,3.96-0.84,5.89-1.24c0.78-0.19,1.53-0.37,2.29-0.54c1.38-0.33,2.76-0.69,4.1-1.03c1.35-0.35,2.66-0.71,3.93-1.1
		c0.66-0.16,1.29-0.35,1.9-0.55c1.15-0.35,2.26-0.73,3.36-1.08c0.7-0.23,1.4-0.47,2.07-0.73c0.55-0.2,1.08-0.39,1.62-0.61
		c0.45-0.16,0.87-0.33,1.29-0.51c0.47-0.17,0.92-0.37,1.33-0.54c0.77-0.32,1.46-0.65,2.19-0.98c0.47-0.21,0.92-0.42,1.37-0.65
		c0.46-0.22,0.9-0.45,1.33-0.67c5.44-2.8,10.06-5.95,13.96-9.41c2.01-1.95,3.47-3.85,4.49-5.7c0.45-0.5,0.87-1.02,1.29-1.54
		c0.43-0.52,0.87-1.06,1.27-1.59c1.32-1.75,2.52-3.57,3.59-5.43v-0.01c0.22-0.39,0.46-0.8,0.65-1.21c0.22-0.37,0.42-0.72,0.57-1.1
		c1.25-2.45,2.24-4.94,3.03-7.46c0.14-0.43,0.28-0.85,0.39-1.28c0.09-0.36,0.21-0.73,0.29-1.09c0.16-0.58,0.29-1.19,0.42-1.77
		c0.39-1.77,0.7-3.57,0.86-5.37c0.15-1.19,0.24-2.39,0.28-3.57c0.02-0.64,0.05-1.27,0.05-1.89c-0.01-0.56-0.01-1.12-0.02-1.67
		C891.78-688.32,891.77-688.93,891.72-689.57"/>
</g>
<g transform="matrix(.35278 0 0 -.35278 106.31 214.06)">
	<path fill="#F8A47C" d="M880.39-685.8c-0.26-0.63-0.53-1.26-0.77-1.91c-0.11-37.37-18.58-49.38-56.29-46.83
		c-0.6,0.03-1.18,0.08-1.76,0.12h-0.01c-73.78-56.32-191.6,41.88-222.21,70.26c-0.02,0.01-0.02,0.01-0.04,0.02
		c-4.67,4.36-7.65,7.35-8.59,8.33c-0.02,0.02-0.05,0.04-0.07,0.05c-0.02,0.02-0.02,0.03-0.05,0.06c0,0.01-0.02,0.02-0.04,0.05
		c0,0.01,0,0.01-0.02,0.02c-0.01,0.02-0.03,0.02-0.05,0.04c-0.03,0.02-0.05,0.03-0.07,0.04l-0.02,0.03
		c0.69,2.48,1.43,4.86,2.29,7.15c0.2,0.56,0.43,1.11,0.63,1.66c0.31,0.72,0.59,1.44,0.9,2.14c0.3,0.7,0.59,1.37,0.9,2.02
		c0.34,0.74,0.71,1.5,1.1,2.22c0.26,0.56,0.56,1.11,0.87,1.68c0.32,0.61,0.69,1.25,1.04,1.84c0.34,0.62,0.71,1.23,1.09,1.82
		c0.38,0.6,0.74,1.19,1.12,1.76c0.39,0.59,0.78,1.15,1.16,1.72c0.67,0.92,1.31,1.8,1.98,2.66c0.56,0.75,1.16,1.47,1.76,2.19
		c0.46,0.53,0.92,1.08,1.41,1.61l1,1.1c0.99,1.06,2.02,2.1,3.07,3.08c0.47,0.46,0.95,0.9,1.44,1.32c0.45,0.44,0.95,0.85,1.44,1.29
		c0.5,0.41,0.97,0.82,1.48,1.22c0.01,0.04,0.04,0.06,0.06,0.06c0.5,0.38,0.97,0.78,1.48,1.15c0.51,0.41,1.03,0.8,1.55,1.18
		c0.11,0.08,0.18,0.15,0.26,0.19c0.84,0.57,1.67,1.12,2.53,1.67c6.36,4.1,12.98,7.55,19.59,10.38c15.73,6.69,31.47,9.75,43.88,9.37
		h0.06c0.57-0.06,1.16-0.14,1.72-0.21c0.46-0.08,0.9-0.13,1.32-0.21c1.05-0.17,2.02-0.33,2.96-0.53c0.4-0.11,0.78-0.2,1.16-0.27
		c0.39-0.11,0.82-0.21,1.22-0.34c0.76-0.21,1.49-0.45,2.16-0.67c0.61-0.26,1.35-0.47,2.1-0.7c0.37-0.09,0.74-0.2,1.15-0.3
		c0.76-0.2,1.55-0.39,2.43-0.59c1.15-0.22,2.38-0.47,3.7-0.69c0.84-0.16,1.75-0.32,2.68-0.45c0.11-0.01,0.2-0.03,0.33-0.06
		c1.67-0.23,3.44-0.51,5.31-0.74c0.64-0.11,1.33-0.19,1.99-0.27l0.08-0.02c3.12-0.39,6.47-0.78,9.98-1.15
		c0.87-0.08,1.77-0.19,2.68-0.29c2.7-0.27,5.51-0.58,8.42-0.87c1.51-0.14,3.04-0.3,4.58-0.46c0.87-0.08,1.73-0.15,2.6-0.26
		c1.54-0.14,3.13-0.31,4.7-0.46c1.39-0.13,2.83-0.26,4.24-0.43c4.16-0.41,8.45-0.83,12.73-1.31c0.91-0.11,1.86-0.19,2.79-0.31
		c1.83-0.2,3.7-0.41,5.57-0.64c1.84-0.21,3.7-0.43,5.56-0.65c0.05,0,0.08-0.02,0.12-0.04c2-0.29,5.46-1.96,9.54-4.23
		c0.01,0,0.01-0.01,0.02-0.01c10.06-5.56,23.79-14.68,28.37-15.42c1.98-0.32,3.91-0.65,5.86-0.99c1.96-0.37,3.89-0.73,5.79-1.1
		c0.04,0,0.05-0.01,0.08-0.01c0.18-0.04,0.33-0.07,0.52-0.11c2.02-0.39,3.96-0.82,5.86-1.23c0.13-0.05,0.25-0.06,0.35-0.09
		c0.65-0.14,1.31-0.31,1.95-0.46c1.4-0.34,2.75-0.68,4.1-1.03c1.35-0.35,2.65-0.72,3.96-1.1c0.63-0.16,1.24-0.34,1.89-0.56
		c1.13-0.35,2.24-0.72,3.33-1.07c0.71-0.21,1.41-0.47,2.06-0.71c0.55-0.22,1.11-0.42,1.65-0.64c0.44-0.17,0.85-0.32,1.27-0.51
		c0.48-0.18,0.92-0.35,1.35-0.53c0.38-0.17,0.73-0.33,1.12-0.5c0.35-0.17,0.69-0.33,1.05-0.48c0.48-0.24,0.92-0.43,1.4-0.66
		c6.37-3.06,11.33-5.99,15.16-8.85c3.21-2.75,6.04-5.71,8.45-8.93l0.01-0.02c1.23-2.14,1.98-4.3,2.28-6.52v-0.03
		C887.28-668.82,884.19-676.43,880.39-685.8"/>
</g>
<g transform="matrix(.35278 0 0 -.35278 106.03 213.74)">
	<path fill="#FCBA8C" d="M871.58-675.72c0-0.78-0.02-1.57-0.02-2.34v-0.01c-0.7-36-14.74-45.79-52.83-42.79
		c-0.46-0.35-0.91-0.7-1.38-1.03c-76.55-56.5-195.75,38.89-220.66,60.53c-0.84,0.73-1.61,1.41-2.24,1.99
		c-0.33,0.27-0.61,0.53-0.89,0.78c-0.43,0.39-0.8,0.74-1.14,1.03c-0.11,0.09-0.2,0.19-0.3,0.25c-0.28,0.25-0.49,0.47-0.65,0.61
		c-0.03,0.04-0.05,0.05-0.08,0.07c-0.04,0.05-0.07,0.08-0.11,0.12c-0.01,0.01-0.02,0.01-0.05,0.04c-0.02,0.01-0.05,0.03-0.06,0.05
		l-0.01,0.02c0.66,2.48,1.41,4.86,2.27,7.15c0.2,0.55,0.41,1.11,0.63,1.65c0.29,0.72,0.59,1.42,0.9,2.14
		c0.29,0.69,0.58,1.36,0.9,2.02c0.37,0.75,0.71,1.5,1.1,2.24c0.27,0.54,0.57,1.1,0.87,1.67c0.33,0.61,0.69,1.25,1.04,1.84
		c0.37,0.61,0.7,1.22,1.1,1.82c0.37,0.6,0.74,1.18,1.11,1.76c0.39,0.59,0.78,1.16,1.17,1.72c0.65,0.9,1.3,1.8,2,2.66
		c0.56,0.74,1.13,1.46,1.74,2.17c0.46,0.55,0.92,1.08,1.41,1.61l1,1.11c1,1.08,2.03,2.1,3.08,3.08c0.46,0.45,0.93,0.9,1.43,1.33
		c0.46,0.44,0.95,0.86,1.46,1.29c0.48,0.42,0.97,0.83,1.47,1.21c0.01,0.04,0.04,0.06,0.05,0.06c0.49,0.39,0.99,0.79,1.49,1.17
		c0.51,0.4,1.03,0.79,1.55,1.18c0.08,0.06,0.16,0.12,0.26,0.18c22.16,15.04,47.7,21.98,65.98,21.43l0.07-0.01
		c0.57-0.07,1.17-0.14,1.74-0.22c0.46-0.06,0.9-0.13,1.33-0.2c1.04-0.16,2.01-0.34,2.94-0.54c0.4-0.09,0.78-0.18,1.15-0.27
		c0.43-0.11,0.83-0.2,1.23-0.32c0.76-0.21,1.49-0.46,2.16-0.69c0.37,0.19,0.72,0.36,1.07,0.53c3.68-1.19,8.79-1.98,15.97-2.44
		c6.07-0.39,13.04-0.52,20.37-0.65c8.7-0.14,17.67-0.29,26.91-0.89c15.68-1,43.5-19.99,80.5-30.85c6.33-1.85,12.55-4.1,18.52-6.9
		c0.19-0.09,0.37-0.18,0.58-0.27c0.47-0.22,0.92-0.45,1.38-0.66c0.46-0.22,0.9-0.45,1.34-0.67c6.25-3.17,10.78-6.33,13.94-9.41
		c2.01-1.94,3.48-3.85,4.5-5.7C886.45-664.42,878.04-672.9,871.58-675.72"/>
</g>
<g transform="matrix(.35278 0 0 -.35278 106.64 213.6)">
	<path fill="#EA6142" d="M890.78-671.33c-1.78,5.32-4.4,10.27-7.82,14.77v0.03c-2.42,3.21-5.22,6.16-8.46,8.92
		c-4.62,3.94-10.03,7.41-16.19,10.31c-2.34,1.09-6.08,2.5-10.74,4.04c-18.2,6.04-66.62,29.37-86.13,32.81
		c-0.64,0.12-1.26,0.21-1.84,0.29c-0.41,0.04-0.81,0.09-1.23,0.12c-9.23,0.58-18.21,0.73-26.88,0.87
		c-7.35,0.14-14.33,0.26-20.41,0.65c-7.16,0.46-12.28,1.23-15.98,2.44c-0.25,0.1-0.52,0.17-0.77,0.26c-1.82,0.68-4.04,1.1-6.63,1.28
		c-1.32,0.08-2.73,0.13-4.21,0.18h-0.06c-12.38,0.39-28.14-2.67-43.88-9.37c17.58,6.8,35.79,8.26,48.04,7.46
		c2.4-0.17,4.48-0.56,6.16-1.15c3.86-1.42,9.35-2.34,17.22-2.82c0.92-0.07,1.82-0.13,2.78-0.17l0.09-0.02
		c5.39-0.24,11.35-0.35,17.59-0.45c8.69-0.15,17.62-0.3,26.82-0.89c6.52-0.43,13.17-2.78,19.58-5.53c3.25-1.38,6.43-2.84,9.51-4.23
		c0.01,0,0.01-0.01,0.04-0.01c1.3-0.58,2.61-1.15,3.88-1.69c7.15-2.98,14.43-5.66,21.63-8.42c3.31-1.25,6.6-2.52,9.89-3.89
		c3.13-1.27,6.24-2.6,9.3-4.03c0.71-0.33,1.44-0.64,2.14-0.94c7.65-3.17,15.9-4.84,23.38-8.35c9.15-4.29,16.24-9.68,21.52-15.66
		c0.45-0.51,0.89-1.02,1.31-1.55c0.43-0.52,0.86-1.06,1.27-1.58c1.31-1.77,2.51-3.56,3.58-5.42v-0.03c0.24-0.4,0.46-0.81,0.68-1.18
		c0.18-0.38,0.39-0.73,0.55-1.12c1.24-2.44,2.23-4.92,3.03-7.45c0.12-0.43,0.26-0.86,0.38-1.28c0.1-0.38,0.2-0.73,0.28-1.1
		c0.18-0.58,0.31-1.19,0.43-1.76c0.4-1.79,0.7-3.57,0.87-5.36c0.14-1.21,0.22-2.39,0.25-3.59c0.05-0.62,0.06-1.25,0.06-1.88
		c0-0.55,0-1.11-0.01-1.65c-0.05-0.64-0.06-1.25-0.11-1.9c-0.03-0.7-0.11-1.41-0.18-2.13c0-0.06-0.01-0.14-0.02-0.21
		c-0.05-0.55-0.12-1.11-0.21-1.68c-0.08-0.55-0.17-1.09-0.25-1.6c-0.08-0.56-0.2-1.15-0.32-1.7c-0.11-0.56-0.22-1.09-0.35-1.63
		c-0.14-0.58-0.28-1.16-0.43-1.74c-0.05-0.17-0.08-0.3-0.13-0.46c-0.24-0.72-0.44-1.44-0.66-2.17c0-0.01-0.02-0.05-0.02-0.06
		c-0.16-0.49-0.3-0.96-0.48-1.42v-0.01c-0.07-0.2-0.12-0.43-0.22-0.63c-0.2-0.59-0.43-1.19-0.68-1.79l-0.07-0.14l-0.01-0.21v-0.07
		c-0.02-6.96-1.18-13.38-3.54-19.16c-0.25-0.7-0.56-1.36-0.86-2.03c-2.45-5.32-5.9-10.08-10.36-14.28
		c-12.76-11.95-33.26-17.95-56.17-16.5l-0.1,0.02h-0.02c-0.48,0.02-0.99,0.07-1.5,0.12l-0.32,0.02l-0.27-0.21
		c-0.01-0.01-0.05-0.04-0.06-0.05c0,0,0-0.02-0.02-0.02c0-0.01,0-0.01-0.02-0.02c-3.43-2.61-6.88-4.93-10.4-7
		c-0.59-0.33-1.16-0.68-1.76-0.99c-7.72-4.35-15.71-7.41-23.91-9.21c-0.99-0.21-1.98-0.43-2.98-0.58
		c-6.42-1.17-12.96-1.53-19.63-1.09c-33.27,2.1-63.68,23.77-83.31,41.54c-3.26,2.98-7.26,6.81-11.65,11.13
		c-0.63,0.61-1.25,1.25-1.9,1.87c-4.47,4.47-9.32,9.35-14.18,14.34c-0.91,0.93-1.81,1.88-2.73,2.83c-0.48,0.47-0.96,0.97-1.43,1.45
		c-1.77,1.83-3.57,3.69-5.31,5.53c-2.13,2.2-5.14,5.15-8.54,8.47c-0.85,0.81-1.75,1.66-2.64,2.54c-1.78,1.7-3.66,3.5-5.53,5.27
		c-1.87,1.8-3.76,3.59-5.58,5.33c-2.74,2.61-5.36,5.12-7.66,7.33c-0.77,0.74-1.49,1.44-2.15,2.11c-2.04,1.97-3.68,3.64-4.73,4.76
		c-0.03,0.01-0.03,0.01-0.04,0.02c-1.25,1.37-2.36,2.59-3.37,3.67c-2.61,2.82-4.27,4.66-4.57,5.11
		c5.36,19.66,16.41,33.29,29.58,42.57c-0.84-0.55-1.69-1.1-2.53-1.69c-0.08-0.02-0.16-0.09-0.25-0.18
		c-12.86-8.78-23.52-21.76-28.6-40.64l-0.08-0.38l0.21-0.34c0.15-0.18,61.05-62.92,82.49-82.35c19.86-18,50.59-39.9,84.39-42.05
		c21.1-1.33,41.2,5.09,59.69,19.12l1.28-0.08c23.42-1.49,44.34,4.68,57.47,16.97c9.95,9.3,15.27,21.97,15.34,36.65
		C894.22-697.01,894.73-683.25,890.78-671.33 M619.95-614.1c6.36,4.09,12.98,7.55,19.59,10.36
		C632.81-606.36,626.14-609.76,619.95-614.1"/>
</g>
<g transform="matrix(.35278 0 0 -.35278 97.965 213.15)">
	<path fill="#EA6142" d="M617.79-657.17c0.68-0.78,1.88-2.1,3.66-4.02l1.4-1.53c0.61-0.67,1.27-1.37,1.97-2.14
		c1.08-1.16,2.73-2.81,4.67-4.69c0.67-0.7,1.39-1.4,2.15-2.1c2.29-2.22,4.92-4.73,7.66-7.34l0.41-0.4c1.69-1.61,3.43-3.26,5.17-4.9
		l5.54-5.31c0.9-0.89,1.77-1.71,2.62-2.54c3.84-3.71,6.67-6.51,8.6-8.53c1.76-1.86,3.53-3.69,5.3-5.52
		c0.49-0.48,0.95-0.97,1.41-1.43l2.77-2.86c4.77-4.9,9.67-9.85,14.16-14.31l1.87-1.83c4.36-4.32,8.36-8.12,11.61-11.08
		c19.35-17.54,49.25-38.85,81.79-40.92c6.46-0.41,12.87-0.06,19.04,1.07c0.99,0.15,1.93,0.33,2.88,0.57
		c7.98,1.72,15.79,4.74,23.24,8.93c0.54,0.29,0.98,0.55,1.43,0.81l0.31,0.18c3.34,1.96,6.7,4.23,9.97,6.71l0.63,0.6l0.19,0.01
		l0.44,0.34l1.23-0.06c0.59-0.07,1.07-0.11,1.53-0.13l0.24-0.02c22.22-1.38,41.95,4.4,54.2,15.86c4.21,3.95,7.5,8.49,9.81,13.49
		c0.32,0.67,0.58,1.26,0.81,1.88c2.23,5.51,3.37,11.65,3.38,18.31l0.05,0.87l0.18,0.4c0.26,0.61,0.47,1.15,0.65,1.69l0.27,0.78
		c0.11,0.27,0.2,0.55,0.3,0.84l0.14,0.41c0.22,0.77,0.44,1.5,0.67,2.24l0.12,0.44c0.12,0.44,0.26,0.99,0.39,1.55l0.04,0.15
		c0.11,0.46,0.21,0.92,0.3,1.37c0.12,0.58,0.22,1.1,0.29,1.62c0.12,0.59,0.19,1.1,0.27,1.61c0.07,0.5,0.13,1.02,0.18,1.52l0.03,0.32
		c0.08,0.64,0.14,1.29,0.17,1.94c0.04,0.47,0.06,0.85,0.08,1.24l0.03,0.67c0.01,0.45,0.01,0.99,0.01,1.53
		c0,0.58-0.01,1.17-0.04,1.74c-0.04,1.25-0.13,2.35-0.26,3.43c-0.17,1.71-0.45,3.38-0.83,5.13l-0.07,0.31
		c-0.09,0.42-0.2,0.89-0.32,1.33c-0.09,0.4-0.17,0.71-0.27,0.99c-0.14,0.51-0.26,0.92-0.39,1.33c-0.76,2.44-1.72,4.81-2.86,7.05
		c-0.18,0.39-0.31,0.63-0.44,0.89l-0.28,0.51c-0.13,0.22-0.26,0.46-0.4,0.71l-0.38,0.65c-0.89,1.51-1.9,3.03-3.1,4.62
		c-0.37,0.48-0.76,0.99-1.17,1.48c-0.44,0.55-0.85,1.03-1.27,1.51c-5.35,6.04-12.34,11.11-20.73,15.05
		c-3.98,1.88-8.13,3.19-12.53,4.57c-3.54,1.14-7.2,2.29-10.73,3.76c-0.74,0.29-1.5,0.63-2.24,0.98c-2.74,1.25-5.66,2.53-9.21,3.98
		c-3.06,1.25-6.13,2.46-9.83,3.85l-4.83,1.86c-5.53,2.08-11.26,4.25-16.85,6.59c-1.13,0.47-2.29,0.98-3.46,1.5h-0.48l-0.4,0.41
		l-2.05,0.91c-2.31,1.04-4.67,2.1-7.06,3.11c-5.28,2.26-12.17,4.91-18.78,5.33c-8.43,0.54-16.71,0.71-24.72,0.85l-1.97,0.04
		c-5.86,0.09-12.07,0.2-17.68,0.46l-0.25,0.02c-0.91,0.04-1.79,0.1-2.68,0.17c-8.04,0.5-13.72,1.44-17.88,2.97
		c-1.45,0.52-3.31,0.86-5.48,1c-5.64,0.36-25.71,0.9-46.94-7.28c-6.7-2.86-13.14-6.28-19.14-10.14
		C632.12-627.03,622.61-640.44,617.79-657.17 M785.76-785.42c-1.87,0-3.75,0.06-5.63,0.18c-34.49,2.2-65.73,24.42-85.88,42.66
		c-21.25,19.26-82.64,82.49-82.82,82.72l-0.85,1.31l0.29,1.37c4.81,17.84,14.72,31.97,29.52,42.12c0.14,0.09,0.29,0.21,0.47,0.33
		c0.81,0.55,1.61,1.07,2.41,1.59c5.93,4.16,12.67,7.73,20.04,10.61c15.23,6.47,31.6,9.94,44.88,9.56c1.57-0.05,3-0.12,4.34-0.21
		c2.82-0.17,5.31-0.65,7.32-1.39c0.22-0.11,0.45-0.17,0.66-0.24c3.47-1.14,8.51-1.9,15.4-2.35c6.17-0.37,13.34-0.51,20.27-0.63
		l0.32-0.01c8.61-0.13,17.53-0.28,26.7-0.87c0.49-0.05,0.91-0.08,1.37-0.13c0.63-0.07,1.3-0.17,1.98-0.29
		c12.55-2.23,36.18-12.23,57.01-21.05c11.73-4.98,22.81-9.66,29.46-11.88c4.78-1.57,8.59-3.01,11.02-4.15
		c6.26-2.93,11.91-6.52,16.74-10.65c3.34-2.85,6.28-5.96,8.73-9.22l0.08-0.12c3.56-4.68,6.31-9.87,8.18-15.46l0.01-0.01
		c4.09-12.34,3.62-26.53-1.28-39c-0.21-15.17-5.78-28.29-16.12-37.98c-13.61-12.72-35.23-19.13-59.3-17.61l-0.39,0.02
		C823.6-778.96,805.15-785.42,785.76-785.42"/>
</g>
<g transform="matrix(.35278 0 0 -.35278 106.55 214.7)">
	<path fill="#EA6142" d="M887.94-705.94c-9.31,34.54-39.7,48.13-63.56,53.43c-25.96,5.79-50.07,3.3-50.3,3.27
		c0,0,24.38,4.24,50.63-1.57c34.9-7.76,57.34-26.66,64.89-54.68L887.94-705.94z"/>
</g>
<g transform="matrix(.35278 0 0 -.35278 106.57 214.77)">
	<path fill="#EA6142" d="M888.57-708.14c-1.3-0.35-2.66,0.42-3.01,1.75c-8.98,33.34-38.52,46.49-61.71,51.65
		c-20.91,4.66-40.7,3.85-47.25,3.4c-1.28-0.08-2.41,0.84-2.59,2.11l-0.02,0.15c-0.18,1.35,0.77,2.59,2.1,2.78
		c6.9,0.92,27.25,2.92,49.16-1.96c35.85-7.96,58.92-27.48,66.71-56.43c0.37-1.31-0.42-2.66-1.72-3.01L888.57-708.14z"/>
</g>
<g transform="matrix(.35278 0 0 -.35278 104.45 216.25)">
	<path fill="#EA6142" d="M821.86-754.72l-1.36,1.06c0.08,0.11,8.43,10.97,6.23,25.46c-1.74,11.6-9.58,22.33-23.29,31.9
		c-31.6,22.02-43.22,19.65-43.34,19.63c0,0,11.85,4.4,44.32-18.22c14.13-9.84,22.22-20.98,24.03-33.07
		C830.71-743.21,822.2-754.26,821.86-754.72"/>
</g>
<g transform="matrix(.35278 0 0 -.35278 104.41 216.3)">
	<path fill="#EA6142" d="M820.6-756.29l-1.36,1.06c-1.08,0.84-1.27,2.38-0.41,3.45c0.05,0.1,7.73,10.27,5.73,23.58
		c-1.64,10.91-9.15,21.08-22.29,30.25c-23.48,16.37-35.58,18.9-39.77,19.22c-1.03,0.08-1.9,0.78-2.17,1.79l-0.1,0.33
		c-0.42,1.51,0.64,3.03,2.21,3.11c5.46,0.27,18.72-1.66,43.63-18.99c14.71-10.26,23.14-21.94,25.05-34.74
		c2.42-16.29-6.71-28.12-7.1-28.63C823.2-756.94,821.67-757.12,820.6-756.29"/>
</g>
<g transform="matrix(.35278 0 0 -.35278 99.188 203.51)">
	<path fill="#A95439" d="M656.27-353.8c31.05,22.82,115.32,66.96,169.91,53.31c54.54-13.63,70.86-62.02,58.72-136.19
		c-12.15-74.16-60.8-130.07-82.26-150.51c-7.98-14.24,8.01-52.05,18.94-65.25c-14.1-1.51-47.95,13.4-62.12,23.61
		c-2.92-8.44-3.78-29.45-0.57-40.01c-12.14,0.59-33.82,23.01-43.13,35.31c-9.3-12.94-41.86-24.23-70.22-23.24
		C654.26-633.99,643.4-367.23,656.27-353.8"/>
</g>
<g transform="matrix(.35278 0 0 -.35278 101.74 210.12)">
	<path fill="#C4623C" d="M736.57-561.8c63.39,52.36,97.44,127.24,78.44,203.86c-20.54-69.81-102.66-103.38-172.83-91.33
		c0.26,58.25,1.46,108.7,6.88,114.36c31.05,22.8,115.32,66.96,169.9,53.3c48.18-12.03,66.5-51.28,61.74-111.43
		C867.03-469.33,812.23-538.63,736.57-561.8"/>
</g>
<g transform="matrix(.35278 0 0 -.35278 99.385 203.92)">
	<path fill="#D8875F" d="M662.47-366.71c0.58,2.32-7.5,13.54-6.77,14.32c31.07,22.79,115.33,66.95,169.91,53.3
		c37.17-9.28,56.48-34.79,61.25-73.47C870.82-284.57,751.71-297.78,662.47-366.71"/>
</g>
<g transform="matrix(.35278 0 0 -.35278 102.27 211.42)">
	<path fill="#773A30" d="M753.26-602.72c12.08-8.7,36.08-19.3,50.88-22.18c-10.15,16.95-22.07,48.03-14.04,62.4l0.8,1.03
		c11.22,10.69,67.86,68.07,80.96,148.05c12.43,75.9-5.73,118.82-55.5,131.27c-11.06,2.77-24.19,3.17-39.02,1.19
		c-47.64-6.32-102.72-35.95-126.72-53.42c-5.79-9.77-5.71-99.73-5.63-165.59c0.06-67.56-0.11-112.6-2.75-129.91
		c4.15,0.06,8.4,0.39,12.76,0.97c21.63,2.88,42.01,11.47,48.45,20.48l3.45,4.81l3.58-4.72c8.52-11.26,23.66-26.37,33.95-31.66
		c-1.54,11.84-0.42,27.65,2.15,35.15l1.9,5.55L753.26-602.72z M749.94-650.63c-13.66,0.65-33.7,21.52-43.13,32.94
		c-9.92-9.22-29.6-17.04-50.65-19.85c-6.7-0.89-13.27-1.22-19.46-1.03l-6.13,0.24l2.19,5.71c3.65,9.5,3.58,72.11,3.53,132.67
		c-0.11,110.89,0.67,163.95,8.69,172.23c25.37,18.65,81.29,48.81,131.23,55.45c15.91,2.1,30.14,1.62,42.29-1.42
		c54.24-13.56,75.1-61.05,61.97-141.12c-13.33-81.55-70.31-140.24-83.03-152.45c-5.6-11.78,7.76-46.53,18.77-59.87l5.19-6.22
		l-8.09-0.86c-13.86-1.5-43.08,10.61-59.78,20.89c-1.51-9.41-1.56-23.91,0.84-31.68l1.8-5.91L749.94-650.63z"/>
	<path fill="none" stroke="#773A30" stroke-width="0.9776" stroke-miterlimit="10" d="M753.26-602.72
		c12.08-8.7,36.08-19.3,50.88-22.18c-10.15,16.95-22.07,48.03-14.04,62.4l0.8,1.03c11.22,10.69,67.86,68.07,80.96,148.05
		c12.43,75.9-5.73,118.82-55.5,131.27c-11.06,2.77-24.19,3.17-39.02,1.19c-47.64-6.32-102.72-35.95-126.72-53.42
		c-5.79-9.77-5.71-99.73-5.63-165.59c0.06-67.56-0.11-112.6-2.75-129.91c4.15,0.06,8.4,0.39,12.76,0.97
		c21.63,2.88,42.01,11.47,48.45,20.48l3.45,4.81l3.58-4.72c8.52-11.26,23.66-26.37,33.95-31.66c-1.54,11.84-0.42,27.65,2.15,35.15
		l1.9,5.55L753.26-602.72z M749.94-650.63c-13.66,0.65-33.7,21.52-43.13,32.94c-9.92-9.22-29.6-17.04-50.65-19.85
		c-6.7-0.89-13.27-1.22-19.46-1.03l-6.13,0.24l2.19,5.71c3.65,9.5,3.58,72.11,3.53,132.67c-0.11,110.89,0.67,163.95,8.69,172.23
		c25.37,18.65,81.29,48.81,131.23,55.45c15.91,2.1,30.14,1.62,42.29-1.42c54.24-13.56,75.1-61.05,61.97-141.12
		c-13.33-81.55-70.31-140.24-83.03-152.45c-5.6-11.78,7.76-46.53,18.77-59.87l5.19-6.22l-8.09-0.86
		c-13.86-1.5-43.08,10.61-59.78,20.89c-1.51-9.41-1.56-23.91,0.84-31.68l1.8-5.91L749.94-650.63z"/>
</g>
<g transform="matrix(.35278 0 0 -.35278 99.078 210.35)">
	<path fill="#773A30" d="M652.81-569.05C791.8-523.22,819.6-438.99,819.6-438.99c-0.32-0.76-34.6-77.28-169.52-121.81L652.81-569.05
		z"/>
	<path fill="none" stroke="#773A30" stroke-width="0.9776" stroke-miterlimit="10" d="M652.81-569.05
		C791.8-523.22,819.6-438.99,819.6-438.99c-0.32-0.76-34.6-77.28-169.52-121.81L652.81-569.05z"/>
</g>
<g transform="matrix(.35278 0 0 -.35278 94.871 211.1)">
	<path fill="#F8956B" d="M520.42-592.65c0,0-57.99-60.29-68.89-98.16c-10.9-37.86-6.31-88.94,50.48-96.4
		c34.44-24.1,84.36-26.98,110.74-3.44c27.54-9.18,79.75-2.88,91.8,30.98c9.18,28.67-3.44,71.14-49.34,65.4
		c1.72,17.8,18.97,70.61-40.13,107.36C597.88-578.3,520.42-592.65,520.42-592.65"/>
	<path fill="#F8A47C" d="M520.42-592.65c0,0-57.99-60.29-68.89-98.16c-10.9-37.86-3.31-78.61,43.7-85.56
		c34.43-24.1,72.48-28.75,98.87-5.22c27.55-9.18,87.95-7.05,100,26.8c9.17,28.68,7.02,66.26-38.88,60.52
		c1.72,17.8,18.97,70.61-40.13,107.35C597.88-578.3,520.42-592.65,520.42-592.65"/>
</g>
<g transform="matrix(.35278 0 0 -.35278 98.8 214.06)">
	<path fill="#FCBA8C" d="M644.06-685.8c0.2,2.1-1.41-14.35-24.67-42.87c-0.86,1.72,34.9,59.78,1.85,90.77
		c-17.11,16.04-30.38,47.87-49.54,61.78c-28.06-1.72-62.43-8.07-62.43-8.07s-57.99-60.31-68.89-98.17
		c-10.9-37.86,7.27-66.59,36.14-68.08c34.45-24.1,69.13-33.73,95.55-10.21c27.52-9.18,90.49-16.01,102.53,17.83
		C677.6-723.53,689.97-680.07,644.06-685.8"/>
</g>
<g transform="matrix(.35278 0 0 -.35278 94.881 211.12)">
	<path fill="#EA6142" d="M520.74-593.28c-3.33-2.67-58.04-61.45-68.44-97.59c-3.72-12.94-10.63-45.67,5.48-70.28
		c9.13-13.94,24.04-22.36,44.3-25.02l0.21-0.04l0.16-0.12c17.72-12.41,40.25-19.5,61.86-19.5c19.26,0,36.25,5.69,47.82,15.99
		l0.38,0.33l0.47-0.17c7.4-2.46,16.37-3.76,25.98-3.76c24.25,0,55.76,8.97,64.74,34.23c5.4,16.86,2.86,36-6.45,48.75
		c-9.02,12.36-23.69,17.81-41.96,15.52l-1.07-0.13l0.1,1.08c0.2,2.02,0.55,4.3,0.93,6.7c2.92,18.81,11.3,67.52-40.65,99.81
		c-3.46,1.74-10.01,2.64-19.39,2.64C567.61-584.84,524.15-592.65,520.74-593.28 M564.31-807.54c-21.87,0-44.7,7.17-62.66,19.7
		c-20.68,2.74-35.93,11.42-45.31,25.75c-16.52,25.2-9.48,58.53-5.7,71.7c10.85,37.7,68.63,98.17,69.18,98.6l0.18,0.13l0.2,0.05
		c0.46,0.08,46.24,8.5,74.98,8.5c9.66,0,16.46-0.96,20.23-2.85c52.99-32.92,44.51-82.35,41.52-101.56c-0.31-1.98-0.6-3.85-0.81-5.56
		c18.48,2.02,33.28-3.71,42.49-16.34c9.63-13.19,12.27-32.94,6.7-50.31c-9.3-26.13-41.56-35.41-66.37-35.41
		c-9.57,0-18.58,1.29-26.05,3.71C601.02-801.83,583.8-807.54,564.31-807.54"/>
</g>
<g transform="matrix(.35278 0 0 -.35278 94.914 211.19)">
	<path fill="#EA6142" d="M521.78-595.48c-5.72-5.49-57.29-61.56-67.21-95.99c-3.63-12.61-10.38-44.5,5.18-68.25
		c8.72-13.32,23.03-21.38,42.57-23.93l0.8-0.11l0.66-0.47c17.3-12.12,39.34-19.06,60.45-19.06c18.66,0,35.06,5.46,46.18,15.4
		l1.43,1.26l1.83-0.61c7.15-2.36,15.85-3.63,25.2-3.63c23.45,0,53.87,8.53,62.43,32.59c5.14,16.06,2.74,34.33-6.13,46.49
		c-8.52,11.68-22.24,16.69-39.68,14.52l-4.1-0.52l0.39,4.12c0.2,2.08,0.56,4.36,0.93,6.76l0.13,0.87
		c3.07,19.62,10.23,65.52-39.54,96.5c-2.2,1.08-7.15,2.33-18.19,2.33C568.93-587.21,527.79-594.4,521.78-595.48 M564.22-809.92
		c-22.16,0-45.28,7.22-63.58,19.82c-21.1,2.92-36.74,11.93-46.44,26.76c-17.06,26.05-9.88,60.22-5.99,73.72
		c11.16,38.75,69.48,99.43,70.02,99.85l0.65,0.51l0.79,0.14c0.46,0.08,46.51,8.55,75.43,8.55c10.17,0,17.16-1.02,21.32-3.08
		l0.21-0.12c53.66-33.34,45.75-84.14,42.76-103.26l-0.12-0.78c-0.13-0.85-0.26-1.67-0.38-2.46c17.98,1.2,32.34-4.85,41.62-17.59
		c10.08-13.82,12.85-34.43,7.06-52.53c-9.75-27.39-43.1-37.08-68.71-37.08c-9.27,0-18.05,1.17-25.5,3.4
		C601.11-804.31,583.71-809.92,564.22-809.92"/>
</g>
<g transform="matrix(.35278 0 0 -.35278 98.062 215.33)">
	<path fill="#EA6142" d="M620.83-725.76c0.24,0.24,22.76,25.79,25.46,50.79l1.7-0.18C645.26-700.73,620.83-725.76,620.83-725.76"/>
</g>
<g transform="matrix(.35278 0 0 -.35278 98.061 215.33)">
	<path fill="#EA6142" d="M620.81-725.76l-0.09,0.08c-0.95,0.89-1.05,2.34-0.21,3.33c5.01,6.12,21.17,27.21,23.34,47.7
		c0.16,1.35,1.37,2.33,2.72,2.16l1.72-0.17c1.35-0.14,2.31-1.37,2.16-2.7c-2.39-22.42-20.43-43.96-26.15-50.26
		C623.39-726.63,621.8-726.69,620.81-725.76"/>
</g>
<g transform="matrix(.35278 0 0 -.35278 99.009 215.94)">
	<path fill="#EA6142" d="M650.63-744.96c0.09,0.37,8.49,37.65-8.6,62.42l1.42,0.98C660.98-706.96,650.63-744.96,650.63-744.96"/>
</g>
<g transform="matrix(.35278 0 0 -.35278 99.009 215.94)">
	<path fill="#EA6142" d="M650.63-744.96l-0.1,0.04c-1.24,0.31-2.04,1.52-1.82,2.8c1.46,8.29,5.37,37.89-8.67,58.24
		c-0.76,1.12-0.48,2.65,0.63,3.42l1.42,0.98c1.12,0.77,2.66,0.48,3.42-0.63c15.57-22.6,10.14-54.01,8.13-63
		C653.34-744.46,651.97-745.29,650.63-744.96"/>
</g>
<g transform="matrix(.35278 0 0 -.35278 97.801 216.96)">
	<path fill="#EA6142" d="M612.63-777.06c-0.52,0.07-12.1,2.79-26.85,12.08c-28.19,17.76-34.13,65.67-34.13,65.67
		c6.18-36.16,22.54-54.93,35.16-64.29c13.64-10.11,25.92-11.72,26.03-11.73L612.63-777.06z"/>
</g>
<g transform="matrix(.35278 0 0 -.35278 97.872 216.97)">
	<path fill="#EA6142" d="M614.86-777.38c-0.17-1.33-1.4-2.29-2.75-2.14c-0.09,0.01-12.03,2.47-27.84,12.44
		c-25.45,16.04-33.25,54.76-34.9,65c-0.22,1.35,0.71,2.6,2.07,2.8l0.09,0.01c1.3,0.2,2.52-0.7,2.77-2
		c6.32-33.85,21.78-51.5,33.77-60.39c12.95-9.62,24.77-11.27,24.89-11.28c1.34-0.17,2.28-1.4,2.11-2.72L614.86-777.38z"/>
</g>
<g transform="matrix(.35278 0 0 -.35278 94.395 216.84)">
	<path fill="#EA6142" d="M505.44-773.27c-33.53,32.74-12.23,65.47-12.23,65.47c-17.85-37.41,13.02-63.88,13.33-64.16L505.44-773.27z
		"/>
</g>
<g transform="matrix(.35278 0 0 -.35278 94.401 216.95)">
	<path fill="#EA6142" d="M505.64-776.75l-1.9,1.85c-34.58,33.76-12.79,68.24-12.56,68.58l4.25-2.4
		c-16.94-35.47,12.42-60.97,12.72-61.22l1.84-1.57L505.64-776.75z"/>
</g>
<g transform="matrix(.35278 0 0 -.35278 80.63 214.18)">
	<path fill="#F8956B" d="M72.28-689.57c0.05-0.71,0.11-1.42,0.18-2.11c0.01-0.08,0.01-0.16,0.04-0.21c0.04-0.57,0.12-1.12,0.2-1.69
		c0.07-0.54,0.15-1.07,0.25-1.59c0.08-0.58,0.21-1.15,0.33-1.7c0.09-0.55,0.21-1.1,0.34-1.65c0.17-0.64,0.32-1.31,0.51-1.95
		c0.18-0.69,0.38-1.4,0.6-2.08c0.2-0.6,0.39-1.21,0.61-1.81c0.07-0.19,0.14-0.42,0.22-0.63c0.21-0.59,0.45-1.18,0.67-1.77l0.06-0.17
		l0.02-0.26c0.01-6.98,1.2-13.39,3.54-19.18c0.26-0.7,0.55-1.36,0.89-2.02c2.44-5.33,5.9-10.09,10.36-14.28
		c12.76-11.94,33.24-17.95,56.17-16.48h0.08c0.5,0.04,1.02,0.07,1.53,0.12l0.32,0.01l0.26-0.19c0.04-0.05,0.09-0.07,0.12-0.11
		c3.42-2.6,6.88-4.92,10.41-7c0.58-0.33,1.16-0.68,1.75-1c7.74-4.34,15.72-7.4,23.91-9.18c0.99-0.22,2-0.44,2.99-0.59
		c6.42-1.15,12.97-1.51,19.62-1.1c33.29,2.13,63.67,23.79,83.29,41.56c3.29,2.98,7.28,6.8,11.67,11.12
		c0.63,0.63,1.26,1.25,1.89,1.89c4.49,4.45,9.32,9.33,14.19,14.34c0.91,0.92,1.83,1.87,2.74,2.82c0.47,0.47,0.93,0.97,1.42,1.45
		c1.78,1.85,3.57,3.69,5.32,5.54c8.46,8.77,31.29,29.82,36.83,35.81c0.02,0.01,0.04,0.04,0.04,0.04c1.27,1.36,2.38,2.56,3.39,3.65
		c0.82,0.73,1.58,1.41,2.23,1.97c0.32,0.28,0.6,0.53,0.87,0.79c0.44,0.39,0.82,0.73,1.15,1.03c0.11,0.08,0.2,0.16,0.29,0.25
		c0.29,0.26,0.5,0.46,0.65,0.61l0.07,0.07c0.04,0.01,0.05,0.03,0.07,0.04c0.02,0.05,0.06,0.07,0.09,0.11
		c0.02,0.01,0.04,0.04,0.06,0.05l0.02,0.01c-0.67,2.49-1.43,4.87-2.28,7.15c-0.2,0.58-0.43,1.12-0.64,1.67
		c-0.29,0.72-0.58,1.43-0.89,2.14c-0.29,0.67-0.59,1.36-0.9,2.02c-0.35,0.74-0.72,1.5-1.1,2.22c-0.27,0.56-0.58,1.12-0.87,1.68
		c-0.33,0.61-0.69,1.25-1.04,1.83c-0.35,0.64-0.71,1.23-1.1,1.83c-0.37,0.6-0.74,1.17-1.12,1.75c-0.39,0.6-0.77,1.17-1.15,1.74
		c-0.66,0.9-1.31,1.78-2,2.66c-0.56,0.74-1.15,1.47-1.75,2.18c-0.47,0.55-0.92,1.07-1.41,1.61l-1,1.11c-1,1.07-2.03,2.1-3.08,3.08
		c-0.47,0.45-0.93,0.9-1.43,1.32c-0.46,0.44-0.96,0.85-1.46,1.29c-0.47,0.42-0.97,0.83-1.48,1.22c0,0.04-0.04,0.05-0.04,0.05
		c-0.48,0.38-0.98,0.79-1.49,1.17c-0.52,0.4-1.04,0.8-1.56,1.17c-0.08,0.07-0.18,0.14-0.26,0.19
		c-22.16,15.05-47.7,21.97-65.98,21.43l-0.07-0.01c-0.58-0.07-1.17-0.14-1.74-0.22c-0.46-0.06-0.9-0.13-1.34-0.21
		c-1.04-0.15-2.01-0.33-2.93-0.53c-0.4-0.09-0.77-0.18-1.17-0.27c-0.4-0.09-0.8-0.21-1.2-0.32c-0.77-0.21-1.5-0.46-2.18-0.7
		c-0.62-0.24-1.32-0.46-2.1-0.69c-0.37-0.09-0.73-0.2-1.16-0.29c-0.75-0.23-1.55-0.39-2.42-0.58c-1.12-0.23-2.36-0.48-3.68-0.71
		c-0.86-0.15-1.77-0.31-2.69-0.46c-0.12-0.01-0.21-0.02-0.33-0.04c-1.67-0.25-3.45-0.52-5.33-0.77c-0.65-0.09-1.31-0.18-1.99-0.25
		l-0.08-0.01c-3.12-0.4-6.45-0.79-9.98-1.16c-0.9-0.09-1.77-0.21-2.68-0.3c-2.7-0.28-5.53-0.57-8.42-0.85
		c-1.5-0.17-3.05-0.32-4.6-0.46c-0.85-0.09-1.71-0.19-2.59-0.26c-1.55-0.15-3.13-0.32-4.72-0.47c-1.4-0.13-2.82-0.27-4.23-0.44
		c-4.19-0.4-8.45-0.84-12.73-1.31c-0.93-0.11-1.85-0.21-2.79-0.31c-1.84-0.2-3.71-0.43-5.57-0.64c-1.85-0.22-3.71-0.43-5.57-0.66
		c-6.75-0.84-31.59-18.64-38.07-19.68c-1.98-0.34-3.91-0.66-5.84-1.03c-1.96-0.34-3.91-0.71-5.8-1.09c-0.04,0-0.05-0.01-0.08-0.02
		c-0.18-0.01-0.34-0.03-0.52-0.08c-2.01-0.41-3.97-0.84-5.87-1.24c-0.78-0.19-1.54-0.37-2.29-0.54c-1.39-0.33-2.77-0.69-4.1-1.03
		c-1.36-0.35-2.66-0.71-3.95-1.1c-0.65-0.16-1.28-0.35-1.9-0.55c-1.15-0.35-2.24-0.73-3.34-1.08c-0.71-0.23-1.4-0.47-2.07-0.73
		c-0.55-0.2-1.09-0.39-1.63-0.61c-0.45-0.16-0.86-0.33-1.29-0.51c-0.46-0.17-0.91-0.37-1.33-0.54c-0.76-0.32-1.47-0.65-2.18-0.98
		c-0.47-0.21-0.92-0.42-1.38-0.65c-0.46-0.22-0.91-0.45-1.34-0.67c-5.42-2.8-10.04-5.95-13.95-9.41c-2.01-1.95-3.47-3.85-4.49-5.7
		c-0.45-0.5-0.89-1.02-1.3-1.54c-0.44-0.52-0.87-1.06-1.25-1.59c-1.34-1.75-2.53-3.57-3.59-5.43v-0.01
		c-0.24-0.39-0.46-0.8-0.66-1.21c-0.21-0.37-0.4-0.72-0.57-1.1c-1.24-2.45-2.23-4.94-3.02-7.46c-0.13-0.43-0.27-0.85-0.39-1.28
		c-0.09-0.36-0.2-0.73-0.29-1.09c-0.15-0.58-0.29-1.19-0.42-1.77c-0.39-1.77-0.69-3.57-0.88-5.37c-0.13-1.19-0.22-2.39-0.26-3.57
		c-0.02-0.64-0.04-1.27-0.04-1.89c0.01-0.56,0.01-1.12,0.02-1.67C72.21-688.32,72.23-688.93,72.28-689.57"/>
</g>
<g transform="matrix(.35278 0 0 -.35278 80.989 214.06)">
	<path fill="#F8A47C" d="M83.58-685.8c0.25-0.63,0.53-1.26,0.77-1.91c0.11-37.37,18.57-49.38,56.29-46.83
		c0.59,0.03,1.17,0.08,1.75,0.12h0.02c73.78-56.32,191.59,41.88,222.21,70.26c0.02,0.01,0.02,0.01,0.04,0.02
		c4.67,4.36,7.65,7.35,8.59,8.33c0.02,0.02,0.03,0.04,0.07,0.05c0.03,0.02,0.03,0.03,0.05,0.06c0,0.01,0.02,0.02,0.03,0.05
		c0,0.01,0,0.01,0.01,0.02c0.02,0.02,0.03,0.02,0.06,0.04c0.02,0.02,0.05,0.03,0.06,0.04l0.02,0.03c-0.67,2.48-1.43,4.86-2.28,7.15
		c-0.21,0.56-0.42,1.11-0.64,1.66c-0.3,0.72-0.59,1.44-0.89,2.14c-0.3,0.7-0.59,1.37-0.9,2.02c-0.36,0.74-0.71,1.5-1.1,2.22
		c-0.27,0.56-0.55,1.11-0.89,1.68c-0.32,0.61-0.67,1.25-1.03,1.84c-0.35,0.62-0.72,1.23-1.1,1.82c-0.37,0.6-0.74,1.19-1.11,1.76
		c-0.39,0.59-0.78,1.15-1.17,1.72c-0.66,0.92-1.3,1.8-1.98,2.66c-0.56,0.75-1.15,1.47-1.75,2.19c-0.46,0.53-0.92,1.08-1.4,1.61
		l-1.01,1.1c-0.99,1.06-2.03,2.1-3.07,3.08c-0.47,0.46-0.96,0.9-1.44,1.32c-0.46,0.44-0.94,0.85-1.45,1.29
		c-0.5,0.41-0.97,0.82-1.48,1.22c-0.01,0.04-0.04,0.06-0.05,0.06c-0.5,0.38-0.98,0.78-1.49,1.15c-0.51,0.41-1.03,0.8-1.54,1.18
		c-0.11,0.08-0.19,0.15-0.26,0.19c-0.84,0.57-1.68,1.12-2.53,1.67c-6.37,4.1-12.98,7.55-19.59,10.38
		c-15.73,6.69-31.48,9.75-43.88,9.37h-0.06c-0.58-0.06-1.17-0.14-1.74-0.21c-0.46-0.08-0.9-0.13-1.31-0.21
		c-1.07-0.17-2.02-0.33-2.97-0.53c-0.39-0.11-0.77-0.2-1.16-0.27c-0.38-0.11-0.8-0.21-1.21-0.34c-0.78-0.21-1.49-0.45-2.16-0.67
		c-0.63-0.26-1.35-0.47-2.11-0.7c-0.35-0.09-0.73-0.2-1.15-0.3c-0.76-0.2-1.55-0.39-2.44-0.59c-1.13-0.22-2.36-0.47-3.69-0.69
		c-0.85-0.16-1.75-0.32-2.68-0.45c-0.11-0.01-0.21-0.03-0.33-0.06c-1.67-0.23-3.45-0.51-5.32-0.74c-0.65-0.11-1.32-0.19-1.98-0.27
		l-0.09-0.02c-3.12-0.39-6.46-0.78-9.98-1.15c-0.86-0.08-1.76-0.19-2.68-0.29c-2.7-0.27-5.51-0.58-8.42-0.87
		c-1.51-0.14-3.05-0.3-4.58-0.46c-0.86-0.08-1.72-0.15-2.61-0.26c-1.54-0.14-3.12-0.31-4.69-0.46c-1.42-0.13-2.83-0.26-4.24-0.43
		c-4.17-0.41-8.45-0.83-12.74-1.31c-0.9-0.11-1.85-0.19-2.78-0.31c-1.83-0.2-3.71-0.41-5.56-0.64c-1.85-0.21-3.71-0.43-5.57-0.65
		c-0.05,0-0.08-0.02-0.12-0.04c-2.01-0.29-5.46-1.96-9.54-4.23c-0.01,0-0.01-0.01-0.04-0.01c-10.05-5.56-23.8-14.68-28.37-15.42
		c-1.98-0.32-3.91-0.65-5.85-0.99c-1.97-0.37-3.89-0.73-5.79-1.1c-0.04,0-0.05-0.01-0.08-0.01c-0.18-0.04-0.34-0.07-0.52-0.11
		c-2.02-0.39-3.96-0.82-5.89-1.23c-0.11-0.05-0.22-0.06-0.34-0.09c-0.65-0.14-1.3-0.31-1.94-0.46c-1.4-0.34-2.77-0.68-4.1-1.03
		c-1.36-0.35-2.66-0.72-3.96-1.1c-0.64-0.16-1.25-0.34-1.89-0.56c-1.14-0.35-2.25-0.72-3.34-1.07c-0.71-0.21-1.4-0.47-2.07-0.71
		c-0.56-0.22-1.09-0.42-1.63-0.64c-0.44-0.17-0.86-0.32-1.28-0.51c-0.47-0.18-0.92-0.35-1.35-0.53c-0.37-0.17-0.73-0.33-1.11-0.5
		c-0.35-0.17-0.7-0.33-1.06-0.48c-0.47-0.24-0.91-0.43-1.4-0.66c-6.36-3.06-11.33-5.99-15.15-8.85c-3.22-2.75-6.04-5.71-8.45-8.93
		L80-655.25c-1.24-2.14-1.98-4.3-2.29-6.52v-0.03C76.68-668.82,79.77-676.43,83.58-685.8"/>
</g>
<g transform="matrix(.35278 0 0 -.35278 81.267 213.74)">
	<path fill="#FCBA8C" d="M92.32-675.72c0-0.78,0.02-1.57,0.02-2.34v-0.01c0.69-36,14.74-45.79,52.83-42.79
		c0.46-0.35,0.91-0.7,1.37-1.03c76.55-56.5,195.76,38.89,220.67,60.53c0.84,0.73,1.6,1.41,2.24,1.99c0.32,0.27,0.6,0.53,0.87,0.78
		c0.44,0.39,0.81,0.74,1.15,1.03c0.11,0.09,0.2,0.19,0.3,0.25c0.28,0.25,0.5,0.47,0.65,0.61l0.19,0.19
		c0.01,0.01,0.02,0.01,0.05,0.04c0.02,0.01,0.04,0.03,0.06,0.05l0.01,0.02c-0.66,2.48-1.41,4.86-2.27,7.15
		c-0.2,0.55-0.42,1.11-0.64,1.65c-0.29,0.72-0.58,1.42-0.89,2.14c-0.3,0.69-0.58,1.36-0.9,2.02c-0.36,0.75-0.72,1.5-1.1,2.24
		c-0.28,0.54-0.56,1.1-0.87,1.67c-0.33,0.61-0.68,1.25-1.04,1.84c-0.37,0.61-0.71,1.22-1.1,1.82c-0.37,0.6-0.74,1.18-1.12,1.76
		c-0.39,0.59-0.77,1.16-1.16,1.72c-0.65,0.9-1.3,1.8-2,2.66c-0.56,0.74-1.13,1.46-1.74,2.17c-0.47,0.55-0.92,1.08-1.4,1.61l-1,1.11
		c-1.01,1.08-2.03,2.1-3.09,3.08c-0.47,0.45-0.93,0.9-1.43,1.33c-0.47,0.44-0.96,0.86-1.45,1.29c-0.48,0.42-0.97,0.83-1.48,1.21
		c-0.01,0.04-0.04,0.06-0.05,0.06c-0.48,0.39-0.98,0.79-1.49,1.17c-0.52,0.4-1.03,0.79-1.55,1.18c-0.08,0.06-0.18,0.12-0.26,0.18
		c-22.16,15.04-47.7,21.98-65.98,21.43l-0.07-0.01c-0.58-0.07-1.17-0.14-1.74-0.22c-0.46-0.06-0.9-0.13-1.33-0.2
		c-1.04-0.16-2-0.34-2.93-0.54c-0.4-0.09-0.78-0.18-1.17-0.27c-0.4-0.11-0.8-0.2-1.2-0.32c-0.77-0.21-1.5-0.46-2.18-0.69
		c-0.35,0.19-0.71,0.36-1.06,0.53c-3.68-1.19-8.79-1.98-15.96-2.44c-6.08-0.39-13.04-0.52-20.4-0.65
		c-8.67-0.14-17.66-0.29-26.88-0.89c-15.68-1-43.5-19.99-80.5-30.85c-6.33-1.85-12.56-4.1-18.52-6.9c-0.19-0.09-0.39-0.18-0.59-0.27
		c-0.46-0.22-0.91-0.45-1.37-0.66c-0.46-0.22-0.91-0.45-1.33-0.67c-6.26-3.17-10.78-6.33-13.96-9.41c-2.01-1.94-3.46-3.85-4.49-5.7
		C77.45-664.42,85.86-672.9,92.32-675.72"/>
</g>
<g transform="matrix(.35278 0 0 -.35278 80.697 214.7)">
	<path fill="#EA6142" d="M74.38-705.94c0.09-14.68,5.39-27.35,15.35-36.65c13.13-12.29,34.05-18.46,57.47-16.97l1.28,0.08
		c18.48-14.03,38.6-20.45,59.69-19.12c33.8,2.15,64.54,24.05,84.38,42.05c21.45,19.43,82.35,82.17,82.5,82.35l0.2,0.34l-0.08,0.38
		c-5.08,18.9-15.73,31.86-28.59,40.64c-0.11,0.08-0.18,0.15-0.26,0.18c-0.84,0.58-1.68,1.15-2.52,1.69
		c13.17-9.28,24.22-22.9,29.58-42.57c-0.3-0.45-1.95-2.28-4.58-5.1c-1-1.09-2.11-2.31-3.36-3.68c-0.01,0-0.01,0-0.03-0.01
		c-1.04-1.14-2.7-2.8-4.74-4.77c-0.66-0.68-1.38-1.37-2.15-2.12c-2.31-2.2-4.92-4.7-7.66-7.33c-1.83-1.74-3.71-3.54-5.58-5.33
		c-1.88-1.79-3.75-3.57-5.53-5.27c-0.9-0.89-1.78-1.74-2.62-2.55c-3.42-3.31-6.43-6.26-8.55-8.45c-1.76-1.85-3.53-3.71-5.33-5.53
		c-0.47-0.48-0.95-0.99-1.42-1.46c-0.92-0.96-1.83-1.9-2.73-2.84c-4.87-4.98-9.7-9.87-14.19-14.33c-0.65-0.61-1.29-1.26-1.89-1.87
		c-4.4-4.34-8.39-8.16-11.65-11.14c-19.63-17.76-50.02-39.44-83.29-41.54c-6.68-0.42-13.22-0.08-19.63,1.09
		c-1,0.16-2,0.35-2.99,0.58c-8.2,1.79-16.18,4.86-23.92,9.21c-0.6,0.31-1.17,0.65-1.75,0.99c-3.52,2.07-6.98,4.38-10.41,7
		l-0.02,0.02c-0.02,0-0.02,0.02-0.02,0.02c-0.01,0.01-0.05,0.04-0.06,0.05l-0.26,0.21l-0.32-0.02c-0.51-0.06-1.02-0.09-1.51-0.12
		h-0.01l-0.08-0.02c-22.94-1.45-43.41,4.55-56.18,16.5c-4.47,4.19-7.92,8.96-10.35,14.28c-0.34,0.69-0.63,1.33-0.89,2.03
		c-2.35,5.78-3.51,12.2-3.53,19.16v0.06l-0.01,0.22l-0.07,0.14c-0.25,0.59-0.47,1.2-0.67,1.8c-0.11,0.19-0.17,0.42-0.24,0.62v0.01
		c-0.18,0.46-0.33,0.93-0.48,1.42c0,0.01-0.01,0.05-0.01,0.06c-0.22,0.74-0.44,1.45-0.65,2.18c-0.05,0.16-0.1,0.3-0.14,0.46
		c-0.15,0.58-0.28,1.15-0.42,1.74c-0.13,0.56-0.26,1.09-0.35,1.63c-0.11,0.55-0.24,1.14-0.32,1.7c-0.09,0.51-0.16,1.05-0.25,1.6
		c-0.09,0.57-0.17,1.13-0.21,1.69c-0.01,0.06-0.04,0.14-0.04,0.2c-0.08,0.72-0.13,1.43-0.17,2.13c-0.05,0.66-0.06,1.27-0.09,1.9
		c-0.02,0.54-0.02,1.1-0.02,1.66c0,0.64,0.02,1.26,0.06,1.88c0.02,1.21,0.09,2.39,0.25,3.59c0.19,1.8,0.47,3.58,0.86,5.36
		c0.13,0.57,0.26,1.18,0.44,1.76c0.07,0.37,0.17,0.72,0.29,1.1c0.13,0.41,0.26,0.85,0.38,1.27c0.79,2.53,1.8,5.01,3.03,7.45
		c0.17,0.39,0.38,0.74,0.56,1.12c0.22,0.37,0.42,0.79,0.68,1.17v0.04c1.06,1.87,2.24,3.66,3.58,5.42c0.39,0.52,0.82,1.07,1.25,1.59
		c0.41,0.52,0.86,1.03,1.3,1.54c5.3,5.99,12.38,11.38,21.53,15.67c7.48,3.51,15.73,5.19,23.36,8.36c0.71,0.31,1.44,0.6,2.14,0.93
		c3.07,1.43,6.18,2.75,9.33,4.03c3.26,1.37,6.58,2.64,9.87,3.9c7.21,2.74,14.49,5.41,21.63,8.4c1.29,0.53,2.56,1.11,3.89,1.7
		c0.02,0,0.02,0.01,0.04,0.01c3.07,1.38,6.25,2.83,9.53,4.22c6.41,2.75,13.06,5.1,19.56,5.53c9.19,0.59,18.15,0.73,26.83,0.89
		c6.24,0.1,12.21,0.21,17.61,0.46l0.08,0.02c0.96,0.02,1.86,0.08,2.78,0.16c7.86,0.48,13.34,1.4,17.22,2.83
		c1.67,0.58,3.76,0.98,6.16,1.13c12.24,0.8,30.46-0.66,48.04-7.46c-15.74,6.7-31.49,9.76-43.88,9.38h-0.06
		c-1.48-0.04-2.9-0.1-4.21-0.2c-2.59-0.17-4.81-0.59-6.63-1.27c-0.25-0.08-0.52-0.17-0.77-0.26c-3.7-1.22-8.81-2-15.99-2.45
		c-6.07-0.38-13.05-0.51-20.39-0.65c-8.69-0.14-17.66-0.28-26.9-0.88c-0.41-0.03-0.8-0.07-1.23-0.11c-0.58-0.07-1.22-0.17-1.85-0.27
		c-19.5-3.45-67.92-26.78-86.12-32.82c-4.67-1.53-8.4-2.94-10.75-4.04c-6.15-2.9-11.57-6.36-16.18-10.31
		c-3.24-2.74-6.05-5.71-8.46-8.93l-0.01-0.02c-3.43-4.49-6.03-9.43-7.8-14.76C69.03-680.13,69.53-693.87,74.38-705.94
		 M324.21-600.61c6.61-2.81,13.21-6.26,19.59-10.36C337.62-606.62,330.95-603.23,324.21-600.61"/>
</g>
<g transform="matrix(.35278 0 0 -.35278 82.931 216.16)">
	<path fill="#EA6142" d="M144.69-751.88c3.29-2.51,6.67-4.78,10.03-6.75l0.26-0.14c0.46-0.27,0.91-0.53,1.38-0.78
		c7.54-4.23,15.35-7.24,23.31-8.98c0.97-0.24,1.93-0.42,2.87-0.57c6.2-1.13,12.61-1.49,19.06-1.08c32.55,2.07,62.44,23.4,81.8,40.92
		c3.24,2.96,7.26,6.78,11.58,11.06l1.9,1.88c4.44,4.42,9.35,9.35,14.15,14.29l2.73,2.83c0.5,0.5,0.96,0.99,1.43,1.45
		c1.77,1.82,3.55,3.67,5.3,5.52c1.95,2.02,4.76,4.79,8.63,8.54c0.86,0.81,1.72,1.64,2.6,2.52l5.56,5.29
		c1.45,1.38,2.9,2.77,4.32,4.11l1.27,1.23c2.75,2.6,5.35,5.12,7.65,7.3c0.77,0.74,1.47,1.43,2.13,2.08
		c1.97,1.91,3.62,3.57,4.67,4.71c0.76,0.8,1.43,1.55,2.07,2.23l1.35,1.45c1.77,1.93,2.95,3.22,3.65,4.02
		c-4.83,16.71-14.34,30.15-28.24,39.93c-6,3.89-12.45,7.3-19.14,10.14c-21.24,8.21-41.3,7.67-46.95,7.3
		c-2.13-0.14-4.03-0.5-5.49-1.02c-4.12-1.51-9.82-2.46-17.88-2.97c-0.86-0.06-1.76-0.11-2.67-0.15l-0.24-0.02
		c-5.67-0.27-12.1-0.38-17.69-0.46L224.1-596c-8.03-0.16-16.31-0.32-24.73-0.85c-6.62-0.44-13.51-3.07-18.78-5.34
		c-2.4-1.02-4.78-2.08-7.08-3.13l-2.03-0.91l-0.4-0.37h-0.48c-1.17-0.55-2.33-1.05-3.49-1.51c-5.58-2.34-11.32-4.52-16.88-6.63
		l-4.8-1.81c-3.14-1.2-6.51-2.49-9.81-3.88c-3.55-1.44-6.48-2.71-9.23-3.98c-0.73-0.33-1.49-0.66-2.25-0.98
		c-3.52-1.47-7.18-2.62-10.72-3.74c-4.4-1.41-8.56-2.72-12.53-4.57c-8.39-3.95-15.37-9-20.74-15.07c-0.42-0.49-0.83-0.95-1.19-1.43
		c-0.47-0.56-0.86-1.06-1.23-1.55c-1.19-1.58-2.21-3.09-3.09-4.61v-0.05l-0.38-0.62c-0.14-0.24-0.27-0.47-0.4-0.72l-0.28-0.51
		c-0.13-0.24-0.26-0.5-0.37-0.73c-1.21-2.39-2.17-4.76-2.94-7.22c-0.12-0.37-0.24-0.78-0.34-1.19c-0.13-0.4-0.21-0.68-0.27-0.98
		c-0.16-0.57-0.26-1.05-0.37-1.5l-0.06-0.27c-0.39-1.75-0.65-3.39-0.83-5.07c-0.13-1.14-0.21-2.23-0.25-3.39
		c-0.03-0.66-0.05-1.25-0.05-1.83c0-0.53,0-1.06,0.01-1.58l0.03-0.57c0.01-0.41,0.04-0.82,0.06-1.22c0.04-0.71,0.09-1.36,0.18-2.02
		l0.04-0.27c0.05-0.52,0.11-1.04,0.18-1.55c0.08-0.53,0.15-1.02,0.25-1.48c0.1-0.65,0.2-1.18,0.31-1.69c0.1-0.52,0.2-0.96,0.31-1.41
		l0.04-0.19c0.13-0.56,0.27-1.11,0.42-1.65l0.05-0.18c0.28-0.89,0.5-1.63,0.72-2.38l0.12-0.42c0.11-0.27,0.2-0.58,0.31-0.85
		l0.28-0.78c0.18-0.53,0.38-1.06,0.6-1.58l0.15-0.39l0.12-0.95c0.01-6.69,1.15-12.82,3.36-18.28c0.25-0.69,0.52-1.29,0.81-1.89
		c2.33-5.07,5.63-9.61,9.84-13.56c12.23-11.44,31.98-17.23,54.17-15.83l0.45,0.02c0.41,0.02,0.83,0.06,1.24,0.09l1.32,0.07l0.4-0.3
		h0.17L144.69-751.88z M196.39-776.96c-19.38,0-37.83,6.44-54.95,19.24l-0.39-0.02c-24.07-1.54-45.68,4.88-59.3,17.61
		c-10.35,9.69-15.91,22.8-16.11,37.97c-4.91,12.48-5.38,26.67-1.29,39c1.88,5.59,4.63,10.8,8.19,15.47l0.11,0.14
		c2.45,3.28,5.38,6.36,8.71,9.2c4.83,4.13,10.47,7.72,16.74,10.65c2.42,1.12,6.24,2.58,11.04,4.15c6.63,2.2,17.72,6.9,29.45,11.87
		c20.84,8.81,44.45,18.82,57,21.04c0.69,0.12,1.36,0.24,1.98,0.31c0.42,0.05,0.82,0.07,1.22,0.11c9.29,0.59,18.16,0.74,26.74,0.9
		l0.42,0.01c6.95,0.11,14.15,0.24,20.28,0.61c7,0.46,11.88,1.19,15.36,2.35c0.25,0.08,0.46,0.13,0.69,0.21
		c2.03,0.78,4.5,1.25,7.34,1.43c1.34,0.07,2.77,0.14,4.27,0.19c13.36,0.39,29.7-3.08,44.96-9.56c7.37-2.86,14.11-6.43,20.03-10.61
		c0.82-0.51,1.61-1.05,2.41-1.6c0.19-0.11,0.34-0.21,0.48-0.33c14.8-10.15,24.71-24.27,29.49-41.97l0.32-1.51l-0.86-1.3
		c-0.18-0.25-61.57-63.46-82.81-82.71c-20.15-18.27-51.39-40.49-85.88-42.67C200.14-776.9,198.26-776.96,196.39-776.96"/>
</g>
<g transform="matrix(.35278 0 0 -.35278 80.747 214.7)">
	<path fill="#EA6142" d="M75.96-705.94c9.31,34.54,39.7,48.13,63.56,53.43c25.96,5.79,50.07,3.3,50.3,3.27
		c0,0-24.38,4.24-50.62-1.57c-34.9-7.76-57.34-26.66-64.89-54.68L75.96-705.94z"/>
</g>
<g transform="matrix(.35278 0 0 -.35278 80.728 214.77)">
	<path fill="#EA6142" d="M75.36-708.14l-1.66,0.45c-1.31,0.35-2.09,1.7-1.72,3.01c7.8,28.95,30.87,48.47,66.71,56.43
		c21.9,4.87,42.26,2.88,49.16,1.97c1.33-0.19,2.28-1.43,2.1-2.78l-0.02-0.17c-0.19-1.26-1.31-2.18-2.6-2.1
		c-6.55,0.45-26.34,1.25-47.24-3.4c-23.19-5.16-52.73-18.32-61.73-51.65C78.03-707.72,76.67-708.5,75.36-708.14"/>
</g>
<g transform="matrix(.35278 0 0 -.35278 82.845 216.25)">
	<path fill="#EA6142" d="M141.98-754.72l1.36,1.06c-0.08,0.11-8.43,10.97-6.23,25.46c1.74,11.6,9.58,22.33,23.29,31.9
		c31.6,22.02,43.22,19.65,43.34,19.63c0,0-11.85,4.4-44.32-18.22c-14.13-9.84-22.22-20.98-24.03-33.07
		C133.13-743.21,141.62-754.26,141.98-754.72"/>
</g>
<g transform="matrix(.35278 0 0 -.35278 82.89 216.3)">
	<path fill="#EA6142" d="M143.4-756.29c-1.06-0.83-2.6-0.65-3.44,0.41c-0.39,0.51-9.52,12.35-7.09,28.63
		c1.92,12.8,10.34,24.49,25.05,34.74c24.89,17.33,38.15,19.26,43.6,18.99c1.57-0.08,2.65-1.61,2.22-3.12l-0.1-0.33
		c-0.28-0.99-1.16-1.69-2.18-1.77c-4.16-0.32-16.25-2.85-39.75-19.22c-13.14-9.16-20.65-19.34-22.29-30.25
		c-2-13.3,5.69-23.5,5.76-23.6h0.01c0.81-1.06,0.61-2.59-0.44-3.42L143.4-756.29z"/>
</g>
<g transform="matrix(.35278 0 0 -.35278 88.111 203.51)">
	<path fill="#A95439" d="M307.7-353.8c-31.06,22.82-115.32,66.96-169.91,53.31c-54.54-13.63-70.87-62.02-58.74-136.19
		c12.15-74.16,60.81-130.07,82.26-150.51c7.98-14.24-8-52.05-18.93-65.25c14.1-1.51,47.95,13.4,62.12,23.61
		c2.93-8.44,3.79-29.45,0.57-40.01c12.14,0.59,33.82,23.01,43.15,35.31c9.29-12.94,41.86-24.23,70.21-23.24
		C309.7-633.99,320.54-367.23,307.7-353.8"/>
</g>
<g transform="matrix(.35278 0 0 -.35278 85.56 210.12)">
	<path fill="#C4623C" d="M227.42-561.8c-63.39,52.36-97.43,127.24-78.43,203.86c20.53-69.81,102.65-103.38,172.82-91.33
		c-0.25,58.25-1.44,108.7-6.87,114.36c-31.05,22.8-115.31,66.96-169.9,53.3c-48.19-12.03-66.5-51.28-61.75-111.43
		C96.96-469.33,151.76-538.63,227.42-561.8"/>
</g>
<g transform="matrix(.35278 0 0 -.35278 87.914 203.92)">
	<path fill="#D8875F" d="M301.5-366.71c-0.58,2.32,7.49,13.54,6.76,14.32c-31.06,22.79-115.32,66.95-169.91,53.3
		c-37.15-9.28-56.48-34.79-61.24-73.47C93.15-284.57,212.24-297.78,301.5-366.71"/>
</g>
<g transform="matrix(.35278 0 0 -.35278 85.168 211.32)">
	<path fill="#773A30" d="M215.08-599.58l1.91-5.55c2.58-7.5,3.68-23.31,2.14-35.13c10.32,5.27,25.46,20.39,33.98,31.65l3.58,4.73
		l3.45-4.82c6.43-9.01,26.82-17.6,48.44-20.47c4.35-0.59,8.61-0.91,12.76-0.97c-2.64,17.29-2.8,62.34-2.74,129.9
		c0.08,65.85,0.14,155.82-5.64,165.6c-24,17.47-79.07,47.08-126.72,53.42c-14.82,1.97-27.95,1.57-39.01-1.2
		c-49.77-12.43-67.94-55.37-55.52-131.28c13.12-79.97,69.76-137.34,80.98-148.04l0.8-1.03c8.05-14.36-3.89-45.45-14.04-62.39
		c14.78,2.87,38.8,13.48,50.87,22.18L215.08-599.58z M207.43-651.2l1.82,5.92c2.39,7.76,2.34,22.26,0.83,31.68
		c-16.71-10.29-45.94-22.41-59.78-20.91l-8.07,0.87l5.18,6.2c11,13.35,24.37,48.1,18.75,59.87c-12.7,12.21-69.69,70.9-83.02,152.45
		C70-335.05,90.86-287.54,145.11-273.98c12.15,3.04,26.38,3.51,42.28,1.41c49.93-6.62,105.85-36.8,131.25-55.45
		c8.01-8.26,8.78-61.33,8.68-172.22c-0.04-60.55-0.11-123.17,3.53-132.67l2.18-5.71l-6.12-0.24c-6.18-0.2-12.75,0.15-19.48,1.03
		c-21.04,2.82-40.71,10.65-50.64,19.86c-9.44-11.42-29.47-32.27-43.13-32.92L207.43-651.2z"/>
	<path fill="none" stroke="#773A30" stroke-width="0.9776" stroke-miterlimit="10" d="M215.08-599.58l1.91-5.55
		c2.58-7.5,3.68-23.31,2.14-35.13c10.32,5.27,25.46,20.39,33.98,31.65l3.58,4.73l3.45-4.82c6.43-9.01,26.82-17.6,48.44-20.47
		c4.35-0.59,8.61-0.91,12.76-0.97c-2.64,17.29-2.8,62.34-2.74,129.9c0.08,65.85,0.14,155.82-5.64,165.6
		c-24,17.47-79.07,47.08-126.72,53.42c-14.82,1.97-27.95,1.57-39.01-1.2c-49.77-12.43-67.94-55.37-55.52-131.28
		c13.12-79.97,69.76-137.34,80.98-148.04l0.8-1.03c8.05-14.36-3.89-45.45-14.04-62.39c14.78,2.87,38.8,13.48,50.87,22.18
		L215.08-599.58z M207.43-651.2l1.82,5.92c2.39,7.76,2.34,22.26,0.83,31.68c-16.71-10.29-45.94-22.41-59.78-20.91l-8.07,0.87
		l5.18,6.2c11,13.35,24.37,48.1,18.75,59.87c-12.7,12.21-69.69,70.9-83.02,152.45C70-335.05,90.86-287.54,145.11-273.98
		c12.15,3.04,26.38,3.51,42.28,1.41c49.93-6.62,105.85-36.8,131.25-55.45c8.01-8.26,8.78-61.33,8.68-172.22
		c-0.04-60.55-0.11-123.17,3.53-132.67l2.18-5.71l-6.12-0.24c-6.18-0.2-12.75,0.15-19.48,1.03c-21.04,2.82-40.71,10.65-50.64,19.86
		c-9.44-11.42-29.47-32.27-43.13-32.92L207.43-651.2z"/>
</g>
<g transform="matrix(.35278 0 0 -.35278 88.221 210.35)">
	<path fill="#773A30" d="M311.15-569.05c-139.01,45.83-166.79,130.06-166.79,130.06c0.33-0.76,34.6-77.28,169.53-121.81
		L311.15-569.05z"/>
	<path fill="none" stroke="#773A30" stroke-width="0.9776" stroke-miterlimit="10" d="M311.15-569.05
		c-139.01,45.83-166.79,130.06-166.79,130.06c0.33-0.76,34.6-77.28,169.53-121.81L311.15-569.05z"/>
</g>
<g transform="matrix(.35278 0 0 -.35278 92.429 211.1)">
	<path fill="#F8956B" d="M443.58-592.65c0,0,57.99-60.29,68.89-98.16c10.91-37.86,6.33-88.94-50.49-96.4
		c-34.42-24.1-84.34-26.98-110.74-3.44c-27.54-9.18-79.76-2.88-91.8,30.98c-9.18,28.67,3.44,71.14,49.34,65.4
		c-1.72,17.8-18.96,70.61,40.13,107.36C366.12-578.3,443.58-592.65,443.58-592.65"/>
	<path fill="#F8A47C" d="M443.58-592.65c0,0,57.99-60.29,68.89-98.16c10.91-37.86,3.32-78.61-43.69-85.56
		c-34.43-24.1-72.48-28.75-98.87-5.22c-27.55-9.18-87.95-7.05-100,26.8c-9.17,28.68-7.03,66.26,38.87,60.52
		c-1.71,17.8-18.95,70.61,40.13,107.35C366.12-578.3,443.58-592.65,443.58-592.65"/>
</g>
<g transform="matrix(.35278 0 0 -.35278 88.499 214.06)">
	<path fill="#FCBA8C" d="M319.9-685.8c-0.2,2.1,1.42-14.35,24.68-42.87c0.86,1.72-34.9,59.78-1.86,90.77
		c17.11,16.04,30.37,47.87,49.55,61.78c28.04-1.72,62.43-8.07,62.43-8.07s57.99-60.31,68.89-98.17
		c10.9-37.86-7.27-66.59-36.16-68.08c-34.43-24.1-69.12-33.73-95.52-10.21c-27.54-9.18-90.5-16.01-102.53,17.83
		C286.36-723.53,274-680.07,319.9-685.8"/>
</g>
<g transform="matrix(.35278 0 0 -.35278 90.248 210.87)">
	<path fill="#EA6142" d="M374.94-585.41c-9.38,0-15.93-0.9-19.41-2.64c-51.95-32.29-43.56-81-40.64-99.81
		c0.38-2.4,0.73-4.69,0.93-6.71l0.09-1.06l-1.06,0.12c-18.29,2.3-32.95-3.14-41.98-15.51c-9.3-12.76-11.84-31.91-6.46-48.75
		c8.98-25.25,40.5-34.22,64.75-34.22c9.6,0,18.58,1.3,25.97,3.76l0.47,0.17l0.37-0.33c11.58-10.32,28.57-16,47.83-16
		c21.6,0,44.14,7.1,61.84,19.51l0.18,0.11l0.21,0.03c20.25,2.66,35.17,11.08,44.28,25.03c16.13,24.61,9.22,57.34,5.49,70.27
		c-10.41,36.15-65.1,94.92-68.44,97.61C445.98-593.23,402.53-585.41,374.94-585.41 M357.23-792.01c-7.47-2.42-16.46-3.71-26.05-3.71
		c-24.81,0-57.08,9.28-66.39,35.4c-5.56,17.36-2.92,37.12,6.71,50.31c9.22,12.62,24.01,18.36,42.49,16.34
		c-0.2,1.69-0.5,3.58-0.81,5.56c-2.99,19.22-11.46,68.65,41.53,101.56c3.77,1.88,10.58,2.85,20.23,2.85
		c28.73,0,74.53-8.43,74.98-8.51l0.2-0.04l0.17-0.13c0.54-0.42,58.33-60.9,69.19-98.61c3.78-13.17,10.81-46.49-5.7-71.69
		c-9.38-14.35-24.64-23.01-45.32-25.75c-17.95-12.54-40.78-19.7-62.65-19.7C386.32-808.11,369.11-802.41,357.23-792.01"/>
</g>
<g transform="matrix(.35278 0 0 -.35278 89.759 216.76)">
	<path fill="#EA6142" d="M359.56-770.76l1.43-1.29c11.12-9.92,27.54-15.37,46.2-15.37c21.11,0,43.13,6.95,60.43,19.06l0.66,0.46
		l0.81,0.12c19.51,2.55,33.85,10.61,42.56,23.92c15.55,23.75,8.81,55.65,5.18,68.26c-9.92,34.43-61.5,90.49-67.21,95.98
		c-6.02,1.07-47.15,8.27-73.32,8.27c-11.04,0-16-1.25-18.2-2.32c-49.77-31-42.61-76.9-39.55-96.52l0.13-0.77
		c0.38-2.45,0.74-4.78,0.93-6.85l0.4-4.14l-4.1,0.52c-17.45,2.16-31.16-2.85-39.68-14.51c-8.86-12.16-11.26-30.43-6.11-46.57
		c8.54-23.98,38.96-32.52,62.42-32.52c9.33,0,18.05,1.28,25.2,3.65L359.56-770.76z M407.19-794.05c-19.5,0-36.88,5.61-49.17,15.81
		c-7.42-2.22-16.21-3.4-25.47-3.4c-25.62,0-58.96,9.69-68.68,37.02c-5.84,18.18-3.05,38.79,7.03,52.6
		c9.28,12.73,23.62,18.77,41.61,17.59c-0.1,0.73-0.21,1.5-0.33,2.27l-0.17,0.97c-2.99,19.12-10.92,69.92,42.76,103.26l0.2,0.12
		c4.18,2.07,11.14,3.1,21.34,3.1c28.91,0,74.95-8.46,75.41-8.55l0.82-0.15l0.63-0.48c0.55-0.45,58.89-61.12,70.03-99.87
		c3.9-13.49,11.08-47.66-5.99-73.72c-9.69-14.82-25.32-23.82-46.44-26.75C452.47-786.85,429.34-794.05,407.19-794.05"/>
</g>
<g transform="matrix(.35278 0 0 -.35278 89.237 215.33)">
	<path fill="#EA6142" d="M343.12-725.76c-0.22,0.24-22.76,25.79-25.44,50.79l-1.72-0.18C318.71-700.73,343.12-725.76,343.12-725.76"
		/>
</g>
<g transform="matrix(.35278 0 0 -.35278 89.24 215.33)">
	<path fill="#EA6142" d="M343.22-725.76c-1.03-0.96-2.62-0.9-3.57,0.14c-5.76,6.37-23.72,27.84-26.1,50.2l-0.26,2.45l6.58,0.72
		l0.27-2.45c2.19-20.44,18.27-41.48,23.33-47.65C344.3-723.37,344.19-724.87,343.22-725.76"/>
</g>
<g transform="matrix(.35278 0 0 -.35278 88.289 215.94)">
	<path fill="#EA6142" d="M313.29-744.96c-0.08,0.37-8.46,37.65,8.63,62.42l-1.42,0.98C302.96-706.96,313.29-744.96,313.29-744.96"/>
</g>
<g transform="matrix(.35278 0 0 -.35278 88.29 215.94)">
	<path fill="#EA6142" d="M313.32-744.96c-1.32-0.33-2.69,0.5-2.99,1.84c-2.01,9-7.43,40.41,8.14,63c0.76,1.11,2.28,1.4,3.4,0.63
		l1.42-0.98c1.11-0.77,1.39-2.29,0.63-3.42c-14.03-20.35-10.14-49.94-8.68-58.23c0.24-1.28-0.56-2.5-1.81-2.8L313.32-744.96z"/>
</g>
<g transform="matrix(.35278 0 0 -.35278 89.498 216.96)">
	<path fill="#EA6142" d="M351.34-777.06c0.52,0.07,12.11,2.79,26.85,12.08c28.19,17.76,34.13,65.67,34.13,65.67
		c-6.2-36.16-22.54-54.93-35.16-64.29c-13.64-10.11-25.92-11.72-26.05-11.73L351.34-777.06z"/>
</g>
<g transform="matrix(.35278 0 0 -.35278 89.427 216.97)">
	<path fill="#EA6142" d="M349.11-777.38l-0.22,1.72c-0.16,1.34,0.79,2.57,2.11,2.73c0.13,0.01,11.93,1.66,24.9,11.28
		c11.99,8.89,27.44,26.55,33.77,60.39c0.24,1.3,1.46,2.2,2.77,2l0.08-0.01c1.36-0.2,2.29-1.45,2.07-2.8
		c-1.66-10.23-9.43-48.96-34.9-65c-15.8-9.97-27.76-12.43-27.84-12.44C350.51-779.67,349.28-778.71,349.11-777.38"/>
</g>
<g transform="matrix(.35278 0 0 -.35278 92.904 216.84)">
	<path fill="#EA6142" d="M458.52-773.27c33.54,32.74,12.24,65.47,12.24,65.47c17.85-37.41-13.02-63.88-13.34-64.16L458.52-773.27z"
		/>
</g>
<g transform="matrix(.35278 0 0 -.35278 92.849 216.89)">
	<path fill="#EA6142" d="M456.79-774.86l-1.11,1.32c-0.86,1.04-0.73,2.59,0.31,3.48c0.3,0.22,28.52,24.76,13.64,59.16
		c-0.51,1.18-0.08,2.53,1.03,3.17l0.16,0.08c1.22,0.68,2.75,0.22,3.37-1c4.16-8.16,15.73-37.53-13.79-66.38
		C459.37-776.03,457.72-775.94,456.79-774.86"/>
</g>
<g transform="matrix(.35278 0 0 -.35278 96.713 198.71)">
	<path fill="#A95439" d="M578.39-202.76c0,0-8.1-137.31,14.85-218.14c-22.39-52.9-105.85-159.33-90.9-234.66
		c5.48,8.04,29.95,27.59,41.91,32.96c-0.86-14.13,17.84-41.58,22.55-48.69c5.95,8.53,26.18,37.15,32.27,53.51
		c6.88-1.69,33.36-39.86,41.03-59.52c31.81,45.11,89.29,230.4,90.72,305.91c1.81,94.79-13.27,199.28-55.06,250.03"/>
</g>
<g transform="matrix(.35278 0 0 -.35278 94.949 210.68)">
	<path fill="#C4623C" d="M522.87-579.43c23,8.79,29.45,40.23,44.32,56.45c0.7-15.54,1.02-23.33,1.71-38.89
		c15.21,8.45,14.19,31.79,37.18,40.56c0.68-15.54,1-23.33,9.44-38.55c87.64,136.22,134.72,309.67,65.82,462.57
		c-0.97,2.51-2.03,4.99-3.12,7.47l-94.83-79.25c0,0-8.09-137.31,14.86-218.14c-17.59-41.55-72.85-116.13-88.5-182.73
		c1.48,1.99,3,3.91,4.68,5.73C514.43-564.21,522.56-571.63,522.87-579.43"/>
</g>
<g transform="matrix(.35278 0 0 -.35278 97.148 198.95)">
	<path fill="#D8875F" d="M592.07-210.31c-4.88-61.01-8.78-128.74,8.88-188.32c-1.67,38.88-13.24,66.32-4.08,109.57
		c1-23.35-0.08-50.45,5.67-75.39c-2.19,51.06,8.52,100.03,6.53,146.69c0.99-23.34-8.36-47.44-15.14-71.08
		C592.83-263.54,598.85-241.26,592.07-210.31"/>
</g>
<g transform="matrix(.35278 0 0 -.35278 98.483 212.78)">
	<path fill="#773A30" d="M634.08-645.52l-2.61,6.77c-6.77,17.31-27.07,46.68-35.62,55c-7.46-16.37-23.74-39.68-30.25-48.95
		l-3.88-5.57l-3.93,5.89c-8.52,12.86-19.37,30.44-21.92,43.56c-12.4-7.33-31.02-22.69-35.31-29.01l-5.26-7.63l-1.77,9.09
		c-11.18,56.25,29.78,127.01,62.67,183.9c11.68,20.24,21.84,37.79,27.91,51.8c-22.39,80.7-6.83,217.62-6.83,217.62
		c-0.09-1.36-7.82-137.59,14.71-216.84l0.39-1.3l-0.56-1.29c-6.2-14.63-16.72-32.83-28.91-53.9
		c-30.64-52.99-68.4-118.28-62.99-170.45c10.01,9.84,28.01,23.35,37.71,27.73l5.89,2.66l-0.4-6.42c-0.46-7.63,5.87-21.6,18.77-41.55
		c7.89,11.38,23.46,34.36,28.56,47.94l1.17,3.22l3.37-0.83c8.46-2.03,30.88-35.04,40.76-55.13
		c31.91,52.77,84.77,224.48,86.16,297.85c2.15,111.18-18.1,203.73-54.15,247.48l6,4.95c37.19-45.18,58.09-139.6,55.93-252.58
		c-1.48-77.38-59.6-262.93-91.43-308.08L634.08-645.52z"/>
	<path fill="none" stroke="#773A30" stroke-width="0.9776" stroke-miterlimit="10" d="M634.08-645.52l-2.61,6.77
		c-6.77,17.31-27.07,46.68-35.62,55c-7.46-16.37-23.74-39.68-30.25-48.95l-3.88-5.57l-3.93,5.89
		c-8.52,12.86-19.37,30.44-21.92,43.56c-12.4-7.33-31.02-22.69-35.31-29.01l-5.26-7.63l-1.77,9.09
		c-11.18,56.25,29.78,127.01,62.67,183.9c11.68,20.24,21.84,37.79,27.91,51.8c-22.39,80.7-6.83,217.62-6.83,217.62
		c-0.09-1.36-7.82-137.59,14.71-216.84l0.39-1.3l-0.56-1.29c-6.2-14.63-16.72-32.83-28.91-53.9
		c-30.64-52.99-68.4-118.28-62.99-170.45c10.01,9.84,28.01,23.35,37.71,27.73l5.89,2.66l-0.4-6.42c-0.46-7.63,5.87-21.6,18.77-41.55
		c7.89,11.38,23.46,34.36,28.56,47.94l1.17,3.22l3.37-0.83c8.46-2.03,30.88-35.04,40.76-55.13
		c31.91,52.77,84.77,224.48,86.16,297.85c2.15,111.18-18.1,203.73-54.15,247.48l6,4.95c37.19-45.18,58.09-139.6,55.93-252.58
		c-1.48-77.38-59.6-262.93-91.43-308.08L634.08-645.52z"/>
</g>
<g transform="matrix(.35278 0 0 -.35278 90.666 198.94)">
	<path fill="#A95439" d="M388.1-210c0,0,8.09-137.31-14.86-218.13c22.38-52.9,105.84-159.31,90.9-234.67
		c-5.5,8.03-29.96,27.59-41.91,32.97c0.86-14.13-17.86-41.57-22.55-48.7c-5.97,8.53-26.18,37.17-32.27,53.51
		c-6.88-1.68-33.36-39.85-41.03-59.52c-31.81,45.13-89.28,230.4-90.72,305.92c-1.82,94.78,13.27,199.28,55.06,250.03"/>
</g>
<g transform="matrix(.35278 0 0 -.35278 92.431 210.9)">
	<path fill="#C4623C" d="M443.63-586.36c-22.99,8.79-29.44,40.23-44.3,56.47c-0.69-15.54-1.02-23.34-1.71-38.9
		c-15.21,8.45-14.2,31.8-37.19,40.57c-0.68-15.54-1-23.34-9.44-38.55c-87.63,136.24-134.73,309.67-65.81,462.56
		c0.97,2.52,2.03,5.01,3.11,7.49l94.82-79.26c0,0,8.09-137.32-14.84-218.14c17.59-41.56,72.83-116.15,88.49-182.73
		c-1.46,1.98-3.01,3.91-4.67,5.73C452.09-571.13,443.97-578.56,443.63-586.36"/>
</g>
<g transform="matrix(.35278 0 0 -.35278 90.232 199.18)">
	<path fill="#D8875F" d="M374.43-217.54c4.89-60.99,8.79-128.75-8.86-188.31c1.67,38.88,13.23,66.32,4.07,109.57
		c-1-23.35,0.08-50.45-5.67-75.41c2.17,51.08-8.52,100.03-6.52,146.71c-0.99-23.34,8.35-47.45,15.13-71.1
		C373.68-270.77,367.66-248.5,374.43-217.54"/>
</g>
<g transform="matrix(.35278 0 0 -.35278 88.897 213.01)">
	<path fill="#773A30" d="M332.43-652.75l2.62,6.75c6.77,17.32,27.08,46.69,35.62,55.01c7.45-16.37,23.73-39.68,30.23-48.96l3.9-5.57
		l3.91,5.9c8.53,12.85,19.38,30.44,21.92,43.56c12.41-7.32,31.03-22.7,35.32-29l5.25-7.63l1.79,9.08
		c11.17,56.24-29.78,127.02-62.67,183.89c-11.67,20.25-21.84,37.8-27.91,51.8c22.39,80.7,6.83,217.65,6.83,217.65
		c0.09-1.38,7.82-137.61-14.71-216.85l-0.39-1.31l0.54-1.29c6.22-14.63,16.72-32.83,28.92-53.89c30.63-53,68.4-118.3,62.98-170.45
		c-10,9.82-28,23.34-37.7,27.72l-5.89,2.66l0.4-6.44c0.46-7.63-5.87-21.6-18.77-41.54c-7.89,11.38-23.46,34.35-28.56,47.95
		l-1.17,3.2l-3.37-0.82c-8.46-2.03-30.88-35.05-40.76-55.14c-31.91,52.79-84.77,224.48-86.18,297.85
		c-2.14,111.21,18.12,203.73,54.16,247.5l-6,4.95c-37.19-45.18-58.11-139.6-55.95-252.58c1.49-77.4,59.61-262.93,91.43-308.07
		L332.43-652.75z"/>
	<path fill="none" stroke="#773A30" stroke-width="0.9776" stroke-miterlimit="10" d="M332.43-652.75l2.62,6.75
		c6.77,17.32,27.08,46.69,35.62,55.01c7.45-16.37,23.73-39.68,30.23-48.96l3.9-5.57l3.91,5.9c8.53,12.85,19.38,30.44,21.92,43.56
		c12.41-7.32,31.03-22.7,35.32-29l5.25-7.63l1.79,9.08c11.17,56.24-29.78,127.02-62.67,183.89c-11.67,20.25-21.84,37.8-27.91,51.8
		c22.39,80.7,6.83,217.65,6.83,217.65c0.09-1.38,7.82-137.61-14.71-216.85l-0.39-1.31l0.54-1.29c6.22-14.63,16.72-32.83,28.92-53.89
		c30.63-53,68.4-118.3,62.98-170.45c-10,9.82-28,23.34-37.7,27.72l-5.89,2.66l0.4-6.44c0.46-7.63-5.87-21.6-18.77-41.54
		c-7.89,11.38-23.46,34.35-28.56,47.95l-1.17,3.2l-3.37-0.82c-8.46-2.03-30.88-35.05-40.76-55.14
		c-31.91,52.79-84.77,224.48-86.18,297.85c-2.14,111.21,18.12,203.73,54.16,247.5l-6,4.95c-37.19-45.18-58.11-139.6-55.95-252.58
		c1.49-77.4,59.61-262.93,91.43-308.07L332.43-652.75z"/>
</g>
<g transform="matrix(.35278 0 0 -.35278 97.109 205.46)">
	<path fill="#773A30" d="M590.85-415.17l-7.3,2.67c12.36,33.58,51.03,44.01,51.03,44.01C634.25-368.64,602.12-384.6,590.85-415.17"
		/>
	<path fill="none" stroke="#773A30" stroke-width="0.9776" stroke-miterlimit="10" d="M590.85-415.17l-7.3,2.67
		c12.36,33.58,51.03,44.01,51.03,44.01C634.25-368.64,602.12-384.6,590.85-415.17z"/>
</g>
<g transform="matrix(.35278 0 0 -.35278 84.641 182.79)">
	<path fill="#FCBA8C" d="M198.5,298.23C172,313.7,118.46,336.63,56.77,316.81c-98.23-31.59-128.78-280.93,79-315.22
		c9,37.11,33.01,61.22,33.01,61.22C162.18,167.84,170.28,242.84,198.5,298.23"/>
	<path fill="#FFCFAE" d="M198.5,298.23C172,313.7,118.46,336.63,56.77,316.81C-10.81,295.06-46.34,170.29,5.7,83.36
		c0.18,3.57-0.01,7.92-0.59,13.15C-7.3,207.76,40.37,264.25,91.08,288.48c28.7,13.72,70.41,5.92,101.24-3.44
		C194.26,289.56,196.32,293.94,198.5,298.23"/>
</g>
<g transform="matrix(.35278 0 0 -.35278 82.929 182.32)">
	<path fill="#773A30" d="M144.62,313.02c20.8-4.42,38.31-12.13,50.98-19.03c-12.89-27.13-21.32-58.68-25.81-95.66
		c-4.71-38.54-5.17-83.03-2.03-134.69c-5.81-6.52-22.72-27.25-31.19-56.61c-58.5,10.83-96.83,39.4-119.3,74.98
		c-15.7,24.85-23.74,53.23-25.52,81.35c-1.8,28.22,2.66,56.19,11.89,80.16c12.46,32.3,33.56,57.3,59.61,65.68
		C93.06,318.8,120.97,318.04,144.62,313.02 M206.03,302.11c-13.63,7.97-34.21,17.85-59.27,23.17c-25.16,5.35-54.87,6.13-86.73-4.11
		c-29.51-9.48-53.16-37.18-66.89-72.81c-9.91-25.74-14.69-55.7-12.79-85.83c1.93-30.24,10.59-60.78,27.52-87.61
		C32.65,35.71,75.02,4.49,139.8-6.2l5.03-0.83l1.31,5.42c8.57,35.32,31.26,58.14,31.33,58.2l2.04,2.02l-0.19,3.01
		c-3.26,52.14-2.91,96.75,1.77,135.09c4.62,38.02,13.48,69.9,27.24,96.87l2.8,5.53L206.03,302.11z"/>
</g>
<g transform="matrix(.35278 0 0 -.35278 81.884 184.44)">
	<path fill="#773A30" d="M111.74,246.3c43.25,13.9,78.88-11.34,84.46-15.61c10.03-18.52,6.4-83.74,5.81-93.28l-28.2-59.4
		c-42.33,2.15-69.36,18.56-84.61,40.47c-8.81,12.61-13.78,27.09-15.6,41.69c-1.82,14.7-0.47,29.54,3.37,42.77
		C83.17,224.19,95.74,241.16,111.74,246.3 M203.9,240.02c-0.13,0.11-42.78,35.16-95.35,18.26c-19.81-6.38-35.13-26.53-42.44-51.56
		c-4.33-14.92-5.86-31.63-3.8-48.2c2.07-16.64,7.75-33.19,17.81-47.59c17.64-25.28,48.61-44.06,96.9-45.55l3.58-0.12l32.1,67.54
		l0.6,2.32c0.02,0.2,5.45,81.43-8.14,103.44L203.9,240.02z"/>
</g>
<g transform="matrix(.35278 0 0 -.35278 83.994 184.67)">
	<path fill="#F8A47C" d="M178.14,239.07c-16.19,8.38-43.84,17.85-75.27,7.76C44.11,227.93,28.12,71.36,168.86,66.21l0.09,0.11
		l0.12,0.12l0.09,0.11l0.26,0.3l0.08,0.09l0.09,0.08l0.07,0.09l0.08,0.08l0.07,0.08l0.06,0.07l0.13,0.13l0.07,0.07l0.06,0.07
		l0.06,0.05l0.06,0.06l0.07,0.09l0.05,0.04l0.02,0.05l0.04,0.02v0.01l0.04,0.02l0.02,0.02l0.02,0.04h0.01l0.02,0.01v0.01l0.04,0.04
		l0.01,0.01l-0.51,8.48l-0.06,1.14v0.01l-0.06,0.82l-0.44,8.6v0.04l-0.39,9.24v0.05l-0.32,8.83v0.24l-0.01,0.07l-0.06,2.93
		l-0.14,5.96v0.07l-0.16,8.7l0.01,0.11l-0.05,7.88v0.64l-0.01,0.11l0.01,0.82l0.04,6.85v0.82l0.04,2.65l0.06,2.77l0.06,2.75v0.16
		l0.07,2.59l0.11,3.98l0.11,3.38l0.24,5.39l0.02,0.66v0.19l0.05,0.78l0.22,4.62l0.31,4.86l0.16,2.56l0.19,2.55l0.12,1.67l0.07,0.87
		l0.2,2.52l0.08,0.93l0.32,3.66l0.02,0.39l0.25,2.48l0.24,2.46l0.01,0.21l0.26,2.22l0.25,2.42l0.04,0.29l0.5,4.22l0.04,0.29
		l0.31,2.38l0.07,0.47l0.56,4.23l0.34,2.34l0.66,4.45l0.02,0.16l0.38,2.29l0.02,0.13l0.73,4.4l0.39,2.22l0.01,0.04l0.82,4.27
		l0.02,0.13l0.44,2.2l0.9,4.32L178.14,239.07L178.14,239.07z"/>
</g>
<g transform="matrix(.35278 0 0 -.35278 101.66 182.75)">
	<path fill="#FCBA8C" d="M734.06,299.49c29.17,13.67,74.42,26.41,125.23,10.2C953.38,279.63,985.8,49.92,806.17-0.1
		c-10.78,48.13-55.78,50.28-55.78,50.28s26.3,77.54,16.63,155.58C762.71,240.49,751.12,271.75,734.06,299.49"/>
	<path fill="#FFCFAE" d="M734.06,299.49c29.17,13.67,74.42,26.42,125.23,10.2c47.18-15.07,78.85-80.35,76.06-148.02l-6.89-14.61
		c0,0,2.38,101.27-78.37,121.59c-41.12,10.35-75.38,5.28-99.1-2.18C746.2,277.98,740.51,288.98,734.06,299.49"/>
</g>
<g transform="matrix(.35278 0 0 -.35278 103.49 182.06)">
	<path fill="#773A30" d="M791.65,321.2c-25.74-2.09-48.11-9.79-65.11-17.76l-6.35-2.95l3.84-6.25c8.46-13.76,15.56-28.4,21-43.88
		c5.23-14.88,8.98-30.64,11.05-47.21c9.48-76.52-16.25-152.34-16.32-152.54l-2.74-7.99l7.81-0.44c0.11,0,40.76-1.96,50.52-45.52
		l1.37-6.15l5.57,1.56c52.67,14.67,87.76,44.49,108.72,80.35c16.69,28.56,24.39,60.91,24.89,92.47c0.5,31.51-6.18,62.3-18.21,87.8
		c-14.17,29.99-35.83,52.82-62.12,61.2C832.88,321.14,811.27,322.8,791.65,321.2 M737.31,294.78c15.15,6.46,33.96,12.24,55.17,13.95
		c18.46,1.5,38.74-0.04,59.94-6.82c23.12-7.37,42.36-27.86,55.14-54.95c11.2-23.73,17.44-52.46,16.96-81.89
		c-0.47-29.38-7.61-59.46-23.1-85.96c-18.77-32.13-49.99-59.12-96.61-73.39c-10.57,35.05-38.68,45.04-52.11,47.85
		c6.25,21.32,22.77,86.02,14.69,151.23c-2.17,17.49-6.16,34.18-11.71,50C750.74,268.83,744.57,282.16,737.31,294.78"/>
</g>
<g transform="matrix(.35278 0 0 -.35278 102.48 184.71)">
	<path fill="#773A30" d="M759.86,237.81c14.58,4.35,33.15,6.33,53.42-0.05c16.01-5.04,28.67-21.6,34.98-42.33
		c3.91-12.89,5.34-27.36,3.6-41.67c-1.76-14.24-6.65-28.36-15.39-40.64c-15.01-21.13-41.59-36.98-83.23-39.2
		c-1.31-5.12-2.52-9.28-3.43-12.31c47.79,1.55,78.38,19.69,95.77,44.16c9.96,14.02,15.58,30.11,17.55,46.31
		c1.97,16.17,0.35,32.46-4.05,47c-7.41,24.4-22.83,44.08-42.66,50.34c-22.64,7.14-43.38,4.91-59.7,0.05
		C757.88,245.63,758.91,241.74,759.86,237.81"/>
</g>
<g transform="matrix(.35278 0 0 -.35278 101.39 185.16)">
	<path fill="#F8A47C" d="M725.56,223.64c0,0,40.41,33.34,90.27,17.42c58.97-18.82,75.18-176.14-66.76-180.8l-30.51,63.98
		C718.55,124.24,713.07,203.32,725.56,223.64"/>
</g>
<g transform="matrix(.35278 0 0 -.35278 92.803 198.44)">
	<path fill="#C4623C" d="M455.34-194.26c-153.55,4.19-303.61,69.54-339.78,175.39C91.18,52.5,145.6,107.17,145.62,107.21
		c1.66,1.64,2.12,8.05,1.96,16.52c-0.35,19.45-3.96,49.86-4.03,58.48v0.61c0.02,2.03,0.07,4.06,0.12,6.09
		c0.05,1.94,0.11,3.86,0.16,5.77c0.56,17.9,1.82,35.82,4.19,53.55c0.22,1.67,0.47,3.31,0.7,4.95c0.35,2.53,0.74,5.02,1.16,7.48
		c0.18,1.11,0.37,2.22,0.55,3.33c0.02,0.16,0.07,0.33,0.09,0.5c4.66,26.56,12.16,52.6,23.92,76.33c0.44,0.87,0.86,1.72,1.3,2.56
		c1.68,3.31,3.44,6.51,5.28,9.67c0.65,1.12,1.31,2.23,1.98,3.35c1.37,2.27,2.81,4.5,4.25,6.69c1.1,1.64,2.2,3.25,3.32,4.84
		c23.69,33.97,55.74,60.09,92.07,79.28c77.1,40.75,173.44,50.38,250.18,38.06c12.17-1.95,24.2-4.44,35.97-7.48
		c29.37-7.55,57.19-18.44,81.78-32.46c0.61-0.35,1.19-0.69,1.79-1.03c1.48-0.85,2.93-1.72,4.37-2.59c1.44-0.85,2.86-1.71,4.27-2.6
		c2.84-1.72,5.63-3.49,8.37-5.28C787.92,356.5,810.8,242.92,791.99,94.89c0,0,29.33-1.77,39.55-37.43
		C877.8-104.06,663.03-199.9,455.34-194.26"/>
</g>
<g transform="matrix(.35278 0 0 -.35278 82.791 191.53)">
	<path fill="#A95439" d="M140.29,23.19c-3.86-18.06-4.08-39.02,3.66-61.68c36.17-105.84,186.19-171.19,339.76-175.38
		c207.71-5.65,422.47,90.19,376.21,251.72c-10.22,35.65-39.54,37.43-39.54,37.43c9.66,76.01,8.31,142.96-11.33,200.57
		c-1.72,0.46-3.44,0.96-5.19,1.36c0,0,19.9-112.75-1.75-188.02l-4.51-33.07c0,0,45-7.82,37.86-62.51
		c-7.13-54.73-29.06-185.22-361.75-200.87c0,0-241.79,25.27-302.69,167.25C157.87-9.38,147.95,10.72,140.29,23.19"/>
</g>
<g transform="matrix(.35278 0 0 -.35278 99.109 180.39)">
	<path fill="#D8875F" d="M653.79,373.75c0,0-80.82,31.08-118.57,34.5c-143.42,12.9-221.48-24.25-221.48-24.25
		c-37.15-14.84-150.32-70.19-166.38-164.81c-16.04-94.64-13.71-165.84-13.71-165.84l-3.94,19.1l-3.6,17.48
		c-0.47,14.26-0.63,27.91-0.42,40.99v0.22c0.02,2.18,0.07,4.33,0.12,6.49c0.05,1.94,0.11,3.85,0.16,5.77
		c0.63,19.09,2,36.88,4.19,53.54c0.23,1.66,0.47,3.32,0.7,4.96c0.35,2.53,0.76,5.01,1.16,7.48c0.18,1.1,0.37,2.21,0.57,3.32
		c0.02,0.17,0.06,0.33,0.08,0.5c5.04,28.99,12.89,54.21,23.92,76.34c0.44,0.86,0.86,1.72,1.3,2.55c1.68,3.31,3.45,6.52,5.28,9.67
		c0.66,1.14,1.31,2.25,1.98,3.36c1.37,2.26,2.81,4.49,4.27,6.68c16,24.16,36.8,44.13,62.93,61.05c11.14,7.21,21.96,14.9,32.45,23.08
		c77.1,40.75,173.44,50.38,250.18,38.07c12.17-1.96,24.2-4.45,35.97-7.48c6.38-2.48,12.81-4.85,19.29-7.04
		c21.31-7.28,44.53-15.37,62.49-25.43c0.61-0.34,1.19-0.68,1.79-1.03c1.48-0.84,2.93-1.72,4.37-2.58c1.44-0.85,2.87-1.72,4.26-2.6
		c2.84-1.74,5.64-3.5,8.37-5.28C653,376.92,653.79,373.75,653.79,373.75"/>
</g>
<g transform="matrix(.35278 0 0 -.35278 93.543 185.49)">
	<path fill="#FFCFAE" d="M478.63,213.26c-9.23,35.93,295.02,158.51,260.92-183.77c73.66-49.3,43.14-118.27-31.33-169.95
		c-142.48-98.87-331.56-89.22-474.89,2.77c-68.6,44.03-104.88,152.63-22.85,175.23C143.62,192.16,348.07,356.79,478.63,213.26"/>
</g>
<g transform="matrix(.35278 0 0 -.35278 100.18 185.43)">
	<path fill="#FCBA8C" d="M687.49,215.15c27.13-35.55,42.51-93.95,33.31-186.06c10.83-7.26,19.38-14.93,25.91-22.9l-0.19-2.13
		c1.31-0.87,2.57-1.76,3.81-2.64c32.03-45.39,0.51-99.72-60.86-142.3c-142.45-98.85-331.54-89.22-474.87,2.77
		c-3.55,2.27-7,4.73-10.34,7.32c-42.24,51.11-52.71,124.75,13.19,142.9c-66.85,154.64,137.6,319.26,268.15,175.73
		C479.57,211.35,607.7,271.92,687.49,215.15"/>
</g>
<g transform="matrix(.35278 0 0 -.35278 100.99 187.19)">
	<path fill="#F8A47C" d="M712.97,159.77c8.13-32.44,10.76-73.64,5.57-125.53c10.82-7.24,19.39-14.91,25.9-22.9l-0.19-2.12
		c1.31-0.87,2.59-1.76,3.82-2.63c32.04-45.39,0.51-99.72-60.86-142.3c-114.69-79.59-259.61-88.86-386.53-41.43
		c36.24-4.38,112.31-20.05,185.97-10.6c122.8,15.76,249.14,73.66,247.94,166.5c-0.43,34.27-35.69,50.02-35.69,50.02
		C716.29,55.73,715.38,120.59,712.97,159.77"/>
</g>
<g transform="matrix(.35278 0 0 -.35278 93.162 193.12)">
	<path fill="#773A30" d="M466.64-26.85l2.11-62.18c-41.68-0.94-93.86,8-141.26,36.34l-5.9-11.8c151.1-90.25,298.23,7.45,298.66,7.73
		l-9.84,11.45c-0.26-0.18-54.98-36.5-130.97-42.71l-2.07,60.42c21.09,4.27,62.94,38.13,45.04,59.79c0,0-52.87,49.81-101.44-4.69
		C400.06,4.05,441.02-20.44,466.64-26.85"/>
</g>
<g transform="matrix(.35278 0 0 -.35278 93.816 191.44)">
	<path fill="#FFCFAE" d="M487.23,26.03c0,0,24,0.24,26.97-4.78c2.98-5-3.42-11.17-7.57-10.22C502.5,11.98,489.14,20.78,487.23,26.03
		"/>
</g>
<g transform="matrix(.35278 0 0 -.35278 89.494 193.23)">
	<path fill="#773A30" d="M351.21-30.3c-5.18-10.52-10.36-19.09-14.98-28.39c-4.85-9.15-8.86-18.41-14.7-28.6
		c-2.87,11.49-0.3,23.37,4.87,33.68C331.8-43.44,340.07-34.36,351.21-30.3"/>
</g>
<g transform="matrix(.35278 0 0 -.35278 96.937 193.08)">
	<path fill="#773A30" d="M585.44-25.59c11.13-4.04,19.41-13.14,24.82-23.31c5.15-10.31,7.74-22.2,4.86-33.68
		c-5.84,10.19-9.85,19.47-14.69,28.61C595.8-44.67,590.61-36.09,585.44-25.59"/>
</g>
<g transform="matrix(.35278 0 0 -.35278 96.48 194.37)">
	<path fill="#590000" d="M571.05-66.18c-24.79-43.45-38.1-108.86-106.33-112.36c-73.9-3.79-91.87,63.07-121.85,107.67
		c27.97-14,67.33-24.86,121.05-22.56C510.5-91.42,545.35-80.16,571.05-66.18"/>
</g>
<g transform="matrix(.35278 0 0 -.35278 93.334 196.57)">
	<path fill="#FC9797" d="M472.05-135.41c26.25,39.11,55.93,12.62,67.55-0.64c-14.64-19.79-34.44-34.64-65.97-36.26
		c-31.84-1.64-53.26,9.85-69.78,27C416.25-120.61,443.03-97.25,472.05-135.41"/>
</g>
<g transform="matrix(.35278 0 0 -.35278 -79.514 327.97)">
	<g>
		<g>
			<defs>
				<rect id="SVGID_1_" x="953.31" y="231.72" width="16.89" height="5.71"/>
			</defs>
			<clipPath id="SVGID_2_">
				<use xlink:href="#SVGID_1_"  overflow="visible"/>
			</clipPath>
			<g clip-path="url(#SVGID_2_)">
				<g transform="translate(489.96 372.47)">
					<path fill="#FC9797" d="M472.06-135.41c26.24,39.11,55.93,12.62,67.54-0.65c-5.15-6.96-10.97-13.29-17.68-18.68
						c-22.41,29.4-42.56,12.51-48.97-1.92c-22.59,27.6-37.74,13.91-49.9-4.12c-7.15,4.28-13.47,9.51-19.2,15.47
						C416.25-120.61,443.03-97.25,472.06-135.41"/>
				</g>
			</g>
		</g>
	</g>
</g>
<g transform="matrix(.35278 0 0 -.35278 91.399 196.85)">
	<path fill="#C91C1C" d="M411.17-144.22c8.49,16.36,20.5,26.82,32.32,28.07c11.18,1.16,22.26-5.38,32.97-19.47l1.18-1.55l1.08,1.62
		c8.33,12.41,17.7,19.08,27.88,19.81c15.36,1.1,29.18-11.37,36.59-19.6c-16.81-22.22-37.2-33.22-64.11-34.59h-0.05
		C451.41-171.36,429.8-163.17,411.17-144.22 M408.12-143.76l-0.53-1.06l0.8-0.84c19.42-20.17,41.92-28.88,70.79-27.42h0.02
		c28.22,1.45,49.51,13.15,67.02,36.84l0.79,1.07l-0.86,1c-7.5,8.57-22.6,22.82-39.75,21.54c-10.6-0.74-20.34-7.3-28.92-19.47
		c-10.99,13.89-22.51,20.35-34.28,19.06C430.19-114.41,417.08-125.89,408.12-143.76"/>
</g>
<g transform="matrix(.35278 0 0 -.35278 93.361 197.19)">
	<path fill="#C91C1C" d="M472.91-154.92l-2.34,21.18l2.87,0.14L472.91-154.92z"/>
</g>
<g transform="matrix(.35278 0 0 -.35278 89.951 194.61)">
	<path fill="#773A30" d="M365.6-73.73c33.09-15.43,72.38-22.29,116.89-20.39c39.31,1.68,74.06,10.13,103.36,25.1
		c-4.15-7.7-7.96-15.88-11.97-24.45c-18.38-39.28-37.35-79.89-90.7-82.62h-0.04c-57.94-2.97-80.91,38-103.11,77.62
		C375.18-89.81,370.56-81.53,365.6-73.73 M361.98-68.56l-5.04,2.53l3.27-4.88c6.08-9.05,11.57-18.84,17.37-29.19
		c22.62-40.41,46.04-82.17,105.68-79.13h0.02c55.01,2.83,75.27,46.13,93.12,84.33c4.79,10.22,9.29,19.89,14.36,28.77l2.69,4.72
		l-4.54-2.48c-29.83-16.21-65.71-25.3-106.59-27.09C436.16-92.96,395.64-85.41,361.98-68.56"/>
	<path fill="none" stroke="#773A30" stroke-width="1.9553" stroke-miterlimit="10" d="M365.6-73.73
		c33.09-15.43,72.38-22.29,116.89-20.39c39.31,1.68,74.06,10.13,103.36,25.1c-4.15-7.7-7.96-15.88-11.97-24.45
		c-18.38-39.28-37.35-79.89-90.7-82.62h-0.04c-57.94-2.97-80.91,38-103.11,77.62C375.18-89.81,370.56-81.53,365.6-73.73z
		 M361.98-68.56l-5.04,2.53l3.27-4.88c6.08-9.05,11.57-18.84,17.37-29.19c22.62-40.41,46.04-82.17,105.68-79.13h0.02
		c55.01,2.83,75.27,46.13,93.12,84.33c4.79,10.22,9.29,19.89,14.36,28.77l2.69,4.72l-4.54-2.48
		c-29.83-16.21-65.71-25.3-106.59-27.09C436.16-92.96,395.64-85.41,361.98-68.56z"/>
</g>
<g transform="matrix(.35278 0 0 -.35278 95.063 178.64)">
	<path fill="none" stroke="#773A30" stroke-width="3.9063" stroke-miterlimit="10" d="M526.46,428.82
		c43.25-6.94,84.68-20.76,119.53-40.98c133.34-77.39,159.27-194.53,139.61-349.4c0,0,29.32-1.76,39.55-37.41
		c46.27-161.53-168.5-257.37-376.22-251.72c-153.56,4.18-303.6,69.54-339.76,175.38C84.8-3.94,139.2,50.73,139.23,50.76
		c5.53,5.56-2.24,64.69-2.08,75.61c0.38,23.69,1.8,47.45,5.24,70.86c5.49,37.26,16.12,73.98,35.83,105.3
		C249.56,415.87,410.42,447.45,526.46,428.82z"/>
</g>
<g transform="matrix(.35278 0 0 -.35278 95.398 188.22)">
	<path fill="#B7B6B6" d="M537.01,127.35c0-49.38,32.38-89.39,72.31-89.39c39.95,0,72.34,40.01,72.34,89.39s-32.39,89.42-72.34,89.42
		C569.39,216.77,537.01,176.74,537.01,127.35"/>
	<path fill="#FFFFFF" d="M537.01,127.35c0-57.24,142.17-60.84,144.65,0c2.01,49.36-32.39,89.42-72.34,89.42
		C569.39,216.77,537.01,176.74,537.01,127.35"/>
</g>
<g transform="matrix(.35278 0 0 -.35278 95.47 188.22)">
	<path fill="#773A30" d="M539.28,127.35c0-48.21,31.34-87.44,69.83-87.44c38.54,0,69.87,39.23,69.87,87.44
		c0,48.22-31.33,87.46-69.87,87.46C570.62,214.81,539.28,175.57,539.28,127.35 M534.33,127.35c0,50.38,33.55,91.36,74.78,91.36
		c41.27,0,74.83-40.98,74.83-91.36c0-50.38-33.56-91.35-74.83-91.35C567.88,36,534.33,76.97,534.33,127.35"/>
</g>
<g transform="matrix(.35278 0 0 -.35278 97.506 185.71)">
	<path fill="#773A30" d="M603.33,206.34c-37.73,0-68.43-38.61-68.43-86.07c0-47.45,30.7-86.07,68.43-86.07
		c37.76,0,68.47,38.62,68.47,86.07C671.81,167.73,641.09,206.34,603.33,206.34 M603.33,31.45c-39.26,0-71.22,39.85-71.22,88.82
		c0,48.99,31.96,88.83,71.22,88.83c39.28,0,71.25-39.85,71.25-88.83C674.58,71.3,642.62,31.45,603.33,31.45 M603.33,210.25
		c-40.48,0-73.4-40.36-73.4-89.98c0-49.61,32.92-89.97,73.4-89.97c40.5,0,73.42,40.36,73.42,89.97
		C676.76,169.89,643.84,210.25,603.33,210.25 M603.33,27.54c-42,0-76.18,41.6-76.18,92.73c0,51.15,34.18,92.75,76.18,92.75
		c42.04,0,76.21-41.6,76.21-92.75C679.55,69.13,645.37,27.54,603.33,27.54"/>
</g>
<g transform="matrix(.35278 0 0 -.35278 96.11 188.62)">
	<path fill="#00AEFF" d="M559.41,114.76c0-29.31,18.95-53.09,42.33-53.09c23.4,0,42.33,23.78,42.33,53.09
		c0,29.32-18.93,53.09-42.33,53.09C578.36,167.85,559.41,144.09,559.41,114.76"/>
</g>
<g transform="matrix(.35278 0 0 -.35278 96.183 188.62)">
	<path fill="#773A30" d="M561.71,114.76c0-28.19,17.89-51.13,39.85-51.13c21.98,0,39.86,22.94,39.86,51.13
		c0,28.2-17.88,51.13-39.86,51.13C579.6,165.9,561.71,142.96,561.71,114.76 M556.74,114.76c0,30.35,20.1,55.03,44.81,55.03
		c24.71,0,44.81-24.69,44.81-55.03c0-30.35-20.11-55.04-44.81-55.04S556.74,84.42,556.74,114.76"/>
</g>
<g transform="matrix(.35278 0 0 -.35278 96.434 188.67)">
	<path fill="#3D1C18" d="M569.61,113.19c0-17.61,11.65-31.86,26.01-31.86c14.4,0,26.06,14.25,26.06,31.86
		c0,17.58-11.66,31.85-26.06,31.85C581.26,145.04,569.61,130.78,569.61,113.19"/>
</g>
<g transform="matrix(.35278 0 0 -.35278 97.012 187.9)">
	<path fill="#FFFFFF" d="M587.8,137.42c0-7.35,6.29-13.31,14.05-13.31c7.77,0,14.04,5.95,14.04,13.31s-6.28,13.29-14.04,13.29
		C594.09,150.72,587.8,144.77,587.8,137.42"/>
</g>
<g transform="matrix(.35278 0 0 -.35278 91.272 188.48)">
	<path fill="#B7B6B6" d="M407.17,119.17c0-49.39-32.38-89.39-72.33-89.39c-39.93,0-72.32,40-72.32,89.39
		c0,49.38,32.39,89.41,72.32,89.41C374.79,208.58,407.17,168.54,407.17,119.17"/>
	<path fill="#FFFFFF" d="M407.17,119.17c0-57.25-142.17-60.83-144.65,0c-2.01,49.35,32.39,89.41,72.32,89.41
		C374.79,208.58,407.17,168.54,407.17,119.17"/>
</g>
<g transform="matrix(.35278 0 0 -.35278 89.163 185.94)">
	<path fill="#773A30" d="M340.81,199.1c-38.53,0-69.84-39.23-69.84-87.44c0-48.23,31.32-87.45,69.84-87.45
		c38.51,0,69.83,39.23,69.83,87.45C410.64,159.86,379.32,199.1,340.81,199.1 M340.81,20.31c-41.25,0-74.82,40.97-74.82,91.35
		s33.57,91.36,74.82,91.36c41.23,0,74.8-40.98,74.8-91.36S382.04,20.31,340.81,20.31"/>
</g>
<g transform="matrix(.35278 0 0 -.35278 89.163 185.98)">
	<path fill="#773A30" d="M340.81,197.84c-37.75,0-68.46-38.6-68.46-86.07c0-47.45,30.72-86.06,68.46-86.06
		c37.73,0,68.45,38.61,68.45,86.06C409.25,159.24,378.54,197.84,340.81,197.84 M340.81,22.95c-39.28,0-71.25,39.85-71.25,88.82
		c0,49,31.97,88.85,71.25,88.85c39.26,0,71.23-39.85,71.23-88.85C412.03,62.8,380.07,22.95,340.81,22.95 M340.81,201.75
		c-40.5,0-73.43-40.36-73.43-89.98c0-49.61,32.92-89.97,73.43-89.97c40.49,0,73.41,40.36,73.41,89.97
		C414.22,161.39,381.3,201.75,340.81,201.75 M340.81,19.05c-42.02,0-76.2,41.59-76.2,92.72c0,51.15,34.18,92.75,76.2,92.75
		c42.01,0,76.19-41.6,76.19-92.75C417,60.63,382.82,19.05,340.81,19.05"/>
</g>
<g transform="matrix(.35278 0 0 -.35278 90.559 188.89)">
	<path fill="#00AEFF" d="M384.74,106.27c0-29.32-18.94-53.09-42.32-53.09c-23.4,0-42.33,23.77-42.33,53.09
		c0,29.33,18.93,53.1,42.33,53.1C365.79,159.36,384.74,135.6,384.74,106.27"/>
</g>
<g transform="matrix(.35278 0 0 -.35278 89.325 187.4)">
	<path fill="#773A30" d="M345.9,153.15c-21.98,0-39.86-22.93-39.86-51.12c0-28.19,17.88-51.11,39.86-51.11
		c21.96,0,39.85,22.93,39.85,51.11C385.75,130.23,367.86,153.15,345.9,153.15 M345.9,47c-24.71,0-44.81,24.69-44.81,55.03
		c0,30.35,20.1,55.05,44.81,55.05s44.8-24.7,44.8-55.05C390.7,71.69,370.61,47,345.9,47"/>
</g>
<g transform="matrix(.35278 0 0 -.35278 90.235 188.94)">
	<path fill="#3D1C18" d="M374.53,104.69c0-17.61-11.65-31.86-26.03-31.86c-14.38,0-26.03,14.25-26.03,31.86
		c0,17.58,11.65,31.85,26.03,31.85C362.88,136.54,374.53,122.28,374.53,104.69"/>
</g>
<g transform="matrix(.35278 0 0 -.35278 89.657 188.17)">
	<path fill="#FFFFFF" d="M356.34,128.92c0-7.34-6.3-13.31-14.05-13.31c-7.76,0-14.05,5.97-14.05,13.31
		c0,7.35,6.29,13.31,14.05,13.31C350.04,142.23,356.34,136.27,356.34,128.92"/>
</g>
</svg>
