<?xml version="1.0" encoding="utf-8"?>
<!-- Generator: Adobe Illustrator 16.0.0, SVG Export Plug-In . SVG Version: 6.00 Build 0)  -->
<!DOCTYPE svg PUBLIC "-//W3C//DTD SVG 1.1//EN" "http://www.w3.org/Graphics/SVG/1.1/DTD/svg11.dtd">
<svg version="1.1" id="Layer_1" xmlns="http://www.w3.org/2000/svg" xmlns:xlink="http://www.w3.org/1999/xlink" x="0px" y="0px"
	 width="544.6px" height="512.16px" viewBox="0 0 544.6 512.16" enable-background="new 0 0 544.6 512.16" xml:space="preserve">
<path fill="#FFFFFF" stroke="#000000" stroke-miterlimit="10" d="M493.82,162.23c0.03-0.49,0.04-0.98,0.06-1.47
	c0.03-0.82,0.07-1.64,0.09-2.45c0.01-0.67,0.01-1.33,0.01-1.99c0-0.62,0-1.24-0.01-1.86c-0.01-0.72-0.03-1.43-0.06-2.14
	c-0.02-0.54-0.04-1.07-0.07-1.6c-0.04-0.76-0.08-1.52-0.14-2.27c-0.03-0.45-0.07-0.89-0.11-1.34c-0.07-0.82-0.14-1.63-0.23-2.44
	c-0.03-0.27-0.07-0.54-0.1-0.81c-0.5-4.27-1.26-8.42-2.27-12.42c-0.02-0.07-0.04-0.15-0.06-0.23c-0.25-1-0.52-1.99-0.81-2.97
	c-0.02-0.07-0.04-0.15-0.06-0.22c-15.53-53.32-74.55-78.63-125.66-36.48c-20.64-20.33-47.81-32.4-78.08-35.16
	c-0.79-6.61-3.07-12.53-9.33-16.64c0,0-4.03,14.01-15.21,14.85c5.55-15.19-0.39-24.5-11.51-29.75c0.13,14.79-4.25,25.96-13.3,33.39
	c-3.47,2.84-7.53,4.88-11.81,6.22c-16.65,5.22-30.8,15.46-42.14,28.9C126.59,44.44,59.49,79.32,51.99,144.02
	c-0.02,0.2-0.05,0.4-0.07,0.6c-0.09,0.85-0.17,1.71-0.24,2.56c-0.03,0.4-0.07,0.81-0.1,1.22c-0.06,0.78-0.1,1.57-0.14,2.36
	c-0.03,0.5-0.05,1.01-0.06,1.51c-0.03,0.74-0.05,1.47-0.06,2.21c-0.01,0.59-0.01,1.19-0.01,1.79c0,0.68,0,1.36,0.01,2.04
	c0.02,0.8,0.05,1.6,0.08,2.41c0.02,0.5,0.03,1,0.06,1.5c0.07,1.31,0.17,2.63,0.29,3.95c0.04,0.39,0.08,0.79,0.12,1.19
	c0.08,0.77,0.15,1.55,0.24,2.33c0-0.06,0-0.12,0-0.18c1.62,13.62,5.71,28.07,12.81,43c0.45,0.99,0.94,1.98,1.44,2.98
	c0.33,0.65,0.67,1.3,1,1.96c1.79,3.45,3.74,6.94,5.86,10.44c30.49,59.38,101.63,104.77,125.26,62.63c2.96,2.06,6.07,3.98,9.32,5.74
	c-0.12,1.01-0.35,3.2-0.57,6.31c-3.51,4.4-8.55,10.75-13.69,17.31c-5.5,7.03-10.01,22.65-15.27,42.79
	c-2.75-2.47-5.72-4.61-8.86-6.32l-0.35-0.19l-0.02,0.04c-3.08-1.65-6.31-2.92-9.64-3.74l0-0.03l-0.36-0.08
	c-2.82-0.65-5.66-0.98-8.43-0.98c-9.08,0-17.9,2.85-25.48,8.26l-0.29,0.2l0.02,0.03c-3.94,2.85-7.45,6.34-10.42,10.32l-0.02-0.01
	l-0.27,0.37c-5.11,6.98-8.35,15.07-9.56,23.71c-0.01,0.04-0.01,0.08-0.02,0.12c-0.1,0.72-0.19,1.45-0.26,2.18
	c-0.02,0.17-0.03,0.33-0.05,0.5c-0.05,0.62-0.1,1.25-0.13,1.87c-0.01,0.21-0.03,0.43-0.04,0.64c-0.03,0.74-0.05,1.48-0.05,2.23
	c0,0.06,0,0.13,0,0.19c0,0.08,0.01,0.17,0.01,0.25c0,0.66,0.02,1.32,0.05,1.98c0.01,0.33,0.04,0.67,0.06,1
	c0.03,0.41,0.05,0.83,0.09,1.24c0.03,0.38,0.07,0.77,0.11,1.15c0.04,0.37,0.09,0.74,0.14,1.12c0.05,0.39,0.1,0.77,0.16,1.16
	c0.01,0.08,0.02,0.17,0.04,0.25l0.07,0.45l0.01,0c1.74,10.39,6.55,20.36,13.81,28.24c8.5,9.24,19.55,14.87,31.55,16.2
	c-0.16,0.54-0.22,1.11-0.19,1.71l0,0l0.01,0.06c0.08,1.46,0.7,3.06,1.86,4.72c4.44,6.33,16.29,13.16,33.82,16.6l-0.02,0.04
	l0.55,0.11c6.59,1.26,13.63,1.97,20.9,2.12c1.79,0.04,3.56,0.06,5.25,0.06c3.53,0,6.9-0.09,10.02-0.24l0.69-0.04l-0.02-0.04
	c1.03-0.06,2.04-0.12,2.99-0.2l-0.01,0.04l0.59-0.04c12.31-1,18.16-3.26,20.9-4.93c6.82,10.01,32.3,18.33,48.99,18.33
	c1.1,0,2.16-0.04,3.18-0.11c2.44-0.18,5.13-0.24,7.98-0.32c8.92-0.21,18.75-0.48,25.63-4.1c0.03-0.01,0.06-0.03,0.08-0.04
	c0.44-0.24,0.87-0.49,1.29-0.75c0.18-0.12,0.37-0.23,0.55-0.36c0.2-0.14,0.41-0.28,0.61-0.43c0.33-0.25,0.64-0.51,0.95-0.78
	c0.15-0.13,0.29-0.26,0.43-0.39c0.31-0.3,0.62-0.61,0.91-0.94c0.05-0.06,0.12-0.11,0.17-0.17c0.07-0.08,0.12-0.16,0.18-0.24
	c0.29-0.35,0.56-0.71,0.82-1.09c0.08-0.12,0.15-0.25,0.23-0.37c0.24-0.38,0.46-0.77,0.67-1.18c0.03-0.07,0.07-0.13,0.11-0.21
	c0.23-0.48,0.43-0.98,0.62-1.5c0.03-0.1,0.07-0.19,0.1-0.29c0.17-0.52,0.33-1.06,0.46-1.63c0.02-0.1,0.04-0.2,0.06-0.29
	c0.12-0.58,0.23-1.17,0.3-1.8c0-0.01,0-0.02,0-0.02c0.07-0.59,0.11-1.2,0.13-1.84c0.01-0.18,0.01-0.36,0.02-0.54
	c0.01-0.57,0-1.14-0.02-1.74l-0.01-0.16c-0.04-0.81-0.12-1.64-0.23-2.5c-1.81-13.85-2.22-25.69-1.93-36.08
	c2.39,8.43,5.72,15.65,9.97,21.59c1.24,5.34,3.02,10.32,5.35,14.78c6.91,13.23,17.91,21.13,31.83,22.87
	c2.38,0.3,4.81,0.44,7.22,0.44c25.1,0,53.51-16.94,59.22-49.31c0.28-1.6,0.5-3.17,0.7-4.73l0.01,0l0.06-0.47
	c0.04-0.38,0.08-0.76,0.12-1.14c0.13-1.16,0.23-2.31,0.3-3.45c0.01-0.12,0.02-0.23,0.03-0.35c0.05-0.76,0.08-1.51,0.11-2.26
	c0-0.09,0.01-0.19,0.01-0.28c0.05-1.48,0.06-2.94,0.03-4.38c2.23,0.58,4.47,0.89,6.68,0.89h0c10.39,0,19.08-6.29,24.48-17.71
	c9.18-19.46-13.7-49.78-13.93-50.09l-0.32,0.21c0,0-0.01-0.01-0.01-0.01s0,0.01,0.01,0.01l-0.35,0.23c0.15,0.28,15.2,28,1.65,44.41
	c-2.52,2.8-6.89,4.54-11.4,4.54c-2.79,0-6.53-0.65-10.56-3.11c-0.28-0.76-0.57-1.53-0.89-2.27c-0.17-7.78-1.09-16.08-2.78-24.86
	c0.95-7.97-0.07-17.05-3.07-27.39c-9.14-26.18-25.51-40.11-37.63-47.18c-2.38-1.39-4.68-2.57-6.88-3.58
	c26.65-12.01,55.63-40.38,72.37-72.98c2.12-3.5,4.06-6.99,5.85-10.44c0.33-0.66,0.67-1.3,1-1.96c0.5-1.01,0.99-1.99,1.44-2.98
	c7.1-14.93,11.19-29.38,12.81-43c0,0.06,0,0.11,0,0.17c0.09-0.76,0.16-1.52,0.24-2.28c0.04-0.41,0.09-0.83,0.13-1.24
	C493.65,164.85,493.75,163.53,493.82,162.23z"/>
</svg>
