<?xml version="1.0" encoding="utf-8"?>
<!-- Generator: Adobe Illustrator 16.0.0, SVG Export Plug-In . SVG Version: 6.00 Build 0)  -->
<!DOCTYPE svg PUBLIC "-//W3C//DTD SVG 1.1//EN" "http://www.w3.org/Graphics/SVG/1.1/DTD/svg11.dtd">
<svg version="1.1" id="Layer_1" xmlns="http://www.w3.org/2000/svg" xmlns:xlink="http://www.w3.org/1999/xlink" x="0px" y="0px"
	 width="544.6px" height="512.16px" viewBox="0 0 544.6 512.16" enable-background="new 0 0 544.6 512.16" xml:space="preserve">
<path fill="#FFFFFF" stroke="#000000" stroke-miterlimit="10" d="M506.84,202.53c-2.62-20.23-16.44-37.5-28.17-45
	c-0.23-0.14-0.46-0.29-0.69-0.43c-9.96-6.07-25.59-13.27-43.8-13.27c-0.22,0-0.44,0-0.67,0c-1.04,0.01-2.06,0.06-3.09,0.11
	c2.08-6.55,3.12-13.35,3.22-20.05c0.18-11.12-2.18-21.98-6.42-30.97c-5-10.58-12.64-18.63-21.92-21.59
	c-8-2.56-15.63-3.14-22.55-2.58c-9.08,0.74-16.97,3.45-22.97,6.27l-0.59,0.28c-7.09-11.24-16.96-21.22-30.26-29.89
	c-0.97-0.63-1.95-1.26-2.95-1.86c-0.5-0.31-1-0.62-1.51-0.92c-0.51-0.31-1.02-0.61-1.54-0.91c-0.21-0.12-0.42-0.24-0.63-0.36
	c-8.67-4.95-18.49-8.79-28.85-11.45c-4.15-1.07-8.4-1.95-12.69-2.64c-27.07-4.35-61.06-0.95-88.26,13.43
	c-12.82,6.77-24.12,15.98-32.48,27.97c-0.4,0.56-0.78,1.13-1.17,1.71c-0.51,0.77-1.02,1.56-1.5,2.36c-0.24,0.39-0.47,0.79-0.7,1.18
	c-0.36,0.61-0.7,1.23-1.04,1.86l-0.01,0c-4.81-2.81-12.07-6.3-20.91-8.17c-8.88-1.89-19.36-2.16-30.6,1.45
	C93.7,72.36,85.35,82.13,80.51,94.7c-3.5,9.08-5.18,19.65-4.51,30.28c0.68,10.67,3.74,21.44,9.71,30.91
	c8.72,13.79,23.61,24.78,46.35,28.58c-0.02,0.12-0.04,0.25-0.07,0.38c-0.1,0.55-0.18,1.1-0.26,1.66c-0.03,0.2-0.05,0.39-0.08,0.59
	c-0.04,0.33-0.07,0.66-0.11,0.99c-0.02,0.24-0.04,0.48-0.06,0.72c-0.04,0.48-0.07,0.95-0.09,1.44c-0.01,0.31-0.02,0.62-0.03,0.93
	c-0.01,0.29-0.01,0.58-0.01,0.88c0,0.45,0.01,0.91,0.03,1.37c0.01,0.15,0.01,0.3,0.01,0.45c0.01,0.16,0.03,0.33,0.04,0.49
	c0.02,0.36,0.05,0.73,0.08,1.1c0.11,1.23,0.27,2.48,0.51,3.75c0,0.02,0.01,0.04,0.01,0.06c0.36,1.94,0.85,3.92,1.54,5.94
	c7.14,20.89,26.85,37.31,52.32,47.98c-7.34,14.34-11.97,35.5-13.19,60.33c-6.93-2.82-14.35-5.1-21.43-6.04
	c-5.61-0.74-10.63-0.58-14.92,0.5c-19.14,4.78-26.5,21.54-21.86,49.79c4.7,28.77,24.81,49.47,29.29,53.78
	c1.55,3.24-0.99,11.42-4.03,17.09c-2.63,1.06-5.34,2.21-7.94,3.31c-4.14,1.75-8.05,3.41-10.39,4.19c-1.69,0.55-3.04,1.07-3.9,1.46
	c-2.21,1.03-4.2,2.3-5.91,3.76c-1.17,1-2.21,2.09-3.07,3.25l-0.04,0.05c-1.26,1.65-2.23,3.49-2.89,5.46
	c-1.44,4.35-1.28,9.36,0.46,13.76c0.07,5.35,2.03,9.98,5.68,13.4c4.8,4.49,12.43,6.76,20.92,6.21l0.14-0.01
	c6.04,4.52,12.55,6.79,19.38,6.79c0.66,0,1.32-0.02,1.99-0.06c10.95-0.69,20.96-7.11,28.04-13.08c0.16,0.79,0.36,1.57,0.61,2.34
	c3.43,9.64,15.19,13.06,24.23,13.06c2.19,0,4.29-0.2,6.23-0.56c0.08,0.01,0.16,0.03,0.25,0.02c0.01,0,0.48-0.1,1.31-0.35
	c0.4-0.1,0.82-0.19,1.2-0.3c4.33,3.6,10.47,5.58,17.35,5.58c7.45,0,15.2-2.31,21.5-6.38c0.13-0.04,0.26-0.1,0.36-0.2
	c0.04-0.03,0.07-0.07,0.1-0.1c0.15-0.1,0.31-0.2,0.47-0.31c2.91-0.4,5.51-1.14,7.82-2.19c2.32,1.07,4.94,1.82,7.87,2.22
	c0.18,0.12,0.36,0.24,0.54,0.36c0.01,0.01,0.02,0.03,0.04,0.04l0.67,0.65l0.13-0.15c6.22,3.89,13.78,6.09,21.05,6.09
	c6.88,0,13.01-1.98,17.34-5.59c0.47,0.14,0.97,0.25,1.47,0.37c0.66,0.2,1.04,0.28,1.05,0.28c0.07,0.01,0.13-0.01,0.19-0.02
	c1.96,0.37,4.08,0.57,6.29,0.57c9.03,0,20.8-3.42,24.24-13.08c0.25-0.77,0.45-1.56,0.61-2.36c7.08,5.97,17.09,12.38,28.04,13.08
	c0.66,0.04,1.33,0.06,1.99,0.06c6.84,0,13.35-2.28,19.38-6.78l0.14,0.01c8.49,0.54,16.12-1.73,20.92-6.21
	c3.65-3.42,5.61-8.05,5.69-13.4c1.73-4.4,1.89-9.41,0.45-13.76l0,0c-0.66-1.97-1.63-3.8-2.89-5.45l-0.03-0.04
	c-0.86-1.15-1.9-2.25-3.08-3.25c-1.7-1.46-3.7-2.72-5.91-3.76c-0.86-0.4-2.2-0.91-3.89-1.46c-2.35-0.78-6.25-2.43-10.39-4.19
	c-2.6-1.1-5.32-2.25-7.95-3.32c-3.03-5.67-5.56-13.83-4.02-17.07c4.49-4.31,24.59-25.01,29.29-53.78
	c1.45-8.84,1.72-16.55,0.83-23.13c16-19.57,17.49-43.03,4.24-68.15c-2.33-4.4-4.92-8.85-7.44-13.18
	c-11.46-19.66-22.27-38.23-12.62-57.36c4.63-9.16,13.39-15.91,24.7-19.01c13.18-3.61,27.98-1.63,38.64,5.18
	c3.09,1.97,5.81,4.32,8.09,6.98c4.32,5.06,6.31,11,5.76,17.19c-0.6,6.72-4.23,13.11-10.21,17.99c-9.21,7.51-14.24,16.29-13.78,24.07
	c0.25,4.22,2.16,7.67,5.38,9.72c6.66,4.25,20.35,2.79,37.05-15.3C504.15,231.23,508.76,217.32,506.84,202.53z M349.5,269.18
	c-1.7-6.95-3.99-13.19-6.9-18.74c9.92-4.61,18.7-10.11,25.85-16.46c4.5,14.14,11.53,26.21,15.71,33.39c0.97,1.68,1.91,3.27,2.5,4.41
	c0.63,1.21,1.34,2.46,2.1,3.81c4.85,8.59,11.1,19.67,4.49,33.03c-0.73-0.23-1.46-0.45-2.23-0.64c-4.29-1.07-9.31-1.24-14.92-0.5
	c-6.72,0.89-13.75,3-20.37,5.62C355.07,296.61,352.93,281.68,349.5,269.18z"/>
</svg>
