<?xml version="1.0" encoding="utf-8"?>
<!-- Generator: Adobe Illustrator 16.0.0, SVG Export Plug-In . SVG Version: 6.00 Build 0)  -->
<!DOCTYPE svg PUBLIC "-//W3C//DTD SVG 1.1//EN" "http://www.w3.org/Graphics/SVG/1.1/DTD/svg11.dtd">
<svg version="1.1" id="Layer_1" xmlns="http://www.w3.org/2000/svg" xmlns:xlink="http://www.w3.org/1999/xlink" x="0px" y="0px"
	 width="544.6px" height="512.16px" viewBox="0 0 544.6 512.16" enable-background="new 0 0 544.6 512.16" xml:space="preserve">
<g>
	<g transform="matrix(.35278 0 0 -.35278 -43.62 183.78)">
		<path fill="#7A3C0E" d="M743.05,150.93c15.39,49.94-11.42,96.48-5.1,118.99c5.32,18.89,53.04,28.38,29.71,53.48
			c-10.89,11.73-59.36-16.69-60.01-41.52c-27.98,22.44-18.46,68.24-4.2,89.43c14.28,21.18-4.68,35.96-18.62,30.15
			c-21.09-8.78-34.67-50.12-30-78.28c-56.12,53.97-15.5,92.87,6.73,118.21c22.27,25.44-14.87,49.24-33.87,30.48
			c-79.13-74.73-45.8-142.65,30.01-195.32c75.81-52.76,58.9-81.66,51.17-121.78C706.91,144.55,738.44,135.97,743.05,150.93"/>
		<path fill="none" stroke="#210101" stroke-width="1.2778" stroke-miterlimit="10" d="M743.05,150.93
			c15.39,49.94-11.42,96.48-5.1,118.99c5.32,18.89,53.04,28.38,29.71,53.48c-10.89,11.73-59.36-16.69-60.01-41.52
			c-27.98,22.44-18.46,68.24-4.2,89.43c14.28,21.18-4.68,35.96-18.62,30.15c-21.09-8.78-34.67-50.12-30-78.28
			c-56.12,53.97-15.5,92.87,6.73,118.21c22.27,25.44-14.87,49.24-33.87,30.48c-79.13-74.73-45.8-142.65,30.01-195.32
			c75.81-52.76,58.9-81.66,51.17-121.78C706.91,144.55,738.44,135.97,743.05,150.93z"/>
	</g>
	<g transform="matrix(.35278 0 0 -.35278 -42.676 178.56)">
		<path fill="#AF5D25" d="M768.63,292.38c4.64-10.29-35.09-26.2-40.54-18.04C722.64,282.5,757.42,317.41,768.63,292.38"/>
	</g>
	<g transform="matrix(.35278 0 0 -.35278 -46.412 173.32)">
		<path fill="#AF5D25" d="M667.39,434.38c-14.51,20.61-45.08-19.57-56.29-44.92c-11.22-25.37,1.04-60.44,12.64-56.27
			c11.6,4.16-9.01,28.71,9.25,50.97C651.26,406.41,681.17,414.83,667.39,434.38"/>
	</g>
	<g transform="matrix(.35278 0 0 -.35278 -45.377 175.69)">
		<path fill="#AF5D25" d="M695.44,370.16c-10.57,8.57-38.79-22.95-22.24-37.48C689.76,318.17,709.66,358.65,695.44,370.16"/>
	</g>
	<g transform="matrix(.35278 0 0 -.35278 -40.343 185.12)">
		<path fill="#7A3C0E" stroke="#210101" stroke-width="1.2778" stroke-miterlimit="10" d="M831.85,114.61
			c31.09,25.06,6.32,82.4,94.52,126.28c88.17,43.79,131.85,106.04,53.89,184.89c-18.64,19.73-61.64,0.16-40.19-26.23
			c21.46-26.36,70.65-67.46-20.45-120.47c8.12,26.64,5.29,69.07-23.42,78.67c-15.34,5.15-36.75-5.66-23.51-27.28
			c13.2-21.62,32.76-60.96-0.06-79.99c1.96,23.89-37.42,50.3-51.39,41.02c-23.47-15.55,13.35-31.19,17.1-49.82
			c4.41-22.17-0.69-55.65-29.46-97.78"/>
	</g>
	<g transform="matrix(.35278 0 0 -.35278 -36.608 174.64)">
		<path fill="#AF5D25" d="M933.07,398.61c-18.93-7.64-2.13-27.69,16.83-49.39c18.97-21.69,21.3-41.12,20.88-51.6
			c-0.41-10.48,11.45-17.95,17.63,11.87C994.58,339.28,957.48,408.46,933.07,398.61"/>
	</g>
	<g transform="matrix(.35278 0 0 -.35278 -38.846 177.05)">
		<path fill="#AF5D25" d="M872.41,333.3c-12.6-4.86,10.42-50.91,22.03-48.52C906.06,287.15,903.04,345.15,872.41,333.3"/>
	</g>
	<g transform="matrix(.35278 0 0 -.35278 -26.794 209.5)">
		<path fill="#C97512" d="M1199-546.05c0,0,79.49,43.29,77.73,116.58c17.67-8.83,16.78-62.69,10.6-80.35
			c14.13,6.18,32.68,50.33,32.68,50.33c2.65-27.38,2.94-67.72-24.43-93.32c12.37-0.89,34.16,16.48,34.16,16.48
			c0.2-55.64-44.51-99.8-141.66-106.86C1159.81-625.52,1181.76-557.47,1199-546.05"/>
		<path fill="#E59935" d="M1199-546.05c0,0,79.49,43.29,77.73,116.58c17.67-8.83,0.89-81.19-5.3-98.87
			c29.14,14.1,48.58,68.85,48.58,68.85c2.65-27.38-15.9-73.31-43.28-98.92c20.32-7.06,53.01,22.08,53.01,22.08
			c-11.79-52.15-59.18-73.29-156.34-80.36C1145.13-599.03,1181.76-557.47,1199-546.05"/>
	</g>
	<g transform="matrix(.35278 0 0 -.35278 -24.138 205.72)">
		<path fill="#210101" d="M1270.98-443.61c-0.69-71.51-77.88-114.37-78.67-114.79c-10.61-7.05-23.92-38.84-23.58-64.41
			c0.13-9.83,2.38-22.85,12.25-29.4c87.07,6.49,137.61,43.38,139.39,101.48c-6.47-4.76-22.34-15.39-32.46-14.65l-4.03,0.29
			l2.95,2.76c24.77,23.16,26.42,58.24,24.48,85.03c-5.79-12.63-19.41-39.97-30.81-44.94l-3.71-1.64l1.34,3.83
			C1283.9-503.55,1284.86-455.79,1270.98-443.61 M1180.08-655.82l-0.5,0.3c-9.21,5.77-14.19,17.04-14.39,32.64
			c-0.36,27.07,13.61,59.75,25.3,67.48c0.92,0.51,78.66,43.71,76.94,115.07l-0.06,2.95l2.62-1.32
			c17.33-8.67,17.78-56.63,12.79-77.94c12.78,10.82,27.91,46.61,28.07,47l2.71,6.46l0.67-6.97c1.51-15.56,5.98-61.73-21.52-91.31
			c11.83,2.58,28.19,15.54,28.39,15.68l2.85,2.28l0.01-3.65c0.24-62.4-52-102-143.29-108.64L1180.08-655.82z"/>
		<path fill="none" stroke="#210101" stroke-width="1.2778" stroke-miterlimit="10" d="M1270.98-443.61
			c-0.69-71.51-77.88-114.37-78.67-114.79c-10.61-7.05-23.92-38.84-23.58-64.41c0.13-9.83,2.38-22.85,12.25-29.4
			c87.07,6.49,137.61,43.38,139.39,101.48c-6.47-4.76-22.34-15.39-32.46-14.65l-4.03,0.29l2.95,2.76
			c24.77,23.16,26.42,58.24,24.48,85.03c-5.79-12.63-19.41-39.97-30.81-44.94l-3.71-1.64l1.34,3.83
			C1283.9-503.55,1284.86-455.79,1270.98-443.61z M1180.08-655.82l-0.5,0.3c-9.21,5.77-14.19,17.04-14.39,32.64
			c-0.36,27.07,13.61,59.75,25.3,67.48c0.92,0.51,78.66,43.71,76.94,115.07l-0.06,2.95l2.62-1.32
			c17.33-8.67,17.78-56.63,12.79-77.94c12.78,10.82,27.91,46.61,28.07,47l2.71,6.46l0.67-6.97c1.51-15.56,5.98-61.73-21.52-91.31
			c11.83,2.58,28.19,15.54,28.39,15.68l2.85,2.28l0.01-3.65c0.24-62.4-52-102-143.29-108.64L1180.08-655.82z"/>
	</g>
	<g transform="matrix(.35278 0 0 -.35278 -40.112 206.04)">
		<path fill="#C97512" d="M838.12-452.28c11.8-38.36-46.67-271.08-49.91-273c-27.36-35.16-141.11,21.11-142.17,31.98
			c41.31,75.76,75.65,249.33,126.76,263.56L838.12-452.28z"/>
	</g>
	<g transform="matrix(.35278 0 0 -.35278 -43.141 210.59)">
		<path fill="#E59935" d="M756.03-575.58c-1.33,44.48-5.92,89.45-3.28,133.47c-36.82-54.04-65.37-178.22-98.12-238.32
			c0.45-4.62,26.51-28.07,52.37-38.58C731.08-687.54,757.65-631.43,756.03-575.58"/>
	</g>
	<g transform="matrix(.35278 0 0 -.35278 -45.738 213.52)">
		<path fill="#FFFFFF" d="M685.66-654.98c30.31,68.42,43.27,134.82,72.37,217.78c-35.82-55.56-63.9-176.18-96.05-235.11
			c0.11-0.9,1.15-2.5,2.96-4.56C675.5-670.55,679.95-667.2,685.66-654.98"/>
	</g>
	<g transform="matrix(.35278 0 0 -.35278 -46.5 214.1)">
		<path fill="#210101" d="M665.01-670.69c1.1-3.26,15.12-13.2,39.14-23.75c26.79-11.76,52.85-18.51,71.52-18.51
			c14.22,0,24.34,3.74,30.08,11.11l0.11,0.13c1.95,3.34,16.78,59.06,30.64,123.99c16.88,79.02,23.64,131.3,19.11,147.44
			l-64.74,22.33c-32.08-9.22-57.82-82.98-82.72-154.33C693.65-603.89,679.94-643.2,665.01-670.69 M775.67-714.88
			c-18.84,0-45.11,6.8-72.08,18.65c-19.58,8.6-39.7,20.16-40.24,25.6l-0.05,0.34l0.16,0.28c14.93,27.39,28.67,66.77,43.22,108.48
			c25.09,71.94,51.03,146.33,84.03,155.52l0.21,0.05l0.2-0.06l65.72-22.68l0.16-0.45c6.33-20.6-7-93.35-19.29-150.74
			c-11.52-53.71-27.78-118.66-30.8-123.22l0.02-0.03C800.87-710.93,790.35-714.88,775.67-714.88"/>
		<path fill="none" stroke="#210101" stroke-width="1.2778" stroke-miterlimit="10" d="M665.01-670.69
			c1.1-3.26,15.12-13.2,39.14-23.75c26.79-11.76,52.85-18.51,71.52-18.51c14.22,0,24.34,3.74,30.08,11.11l0.11,0.13
			c1.95,3.34,16.78,59.06,30.64,123.99c16.88,79.02,23.64,131.3,19.11,147.44l-64.74,22.33c-32.08-9.22-57.82-82.98-82.72-154.33
			C693.65-603.89,679.94-643.2,665.01-670.69z M775.67-714.88c-18.84,0-45.11,6.8-72.08,18.65c-19.58,8.6-39.7,20.16-40.24,25.6
			l-0.05,0.34l0.16,0.28c14.93,27.39,28.67,66.77,43.22,108.48c25.09,71.94,51.03,146.33,84.03,155.52l0.21,0.05l0.2-0.06
			l65.72-22.68l0.16-0.45c6.33-20.6-7-93.35-19.29-150.74c-11.52-53.71-27.78-118.66-30.8-123.22l0.02-0.03
			C800.87-710.93,790.35-714.88,775.67-714.88z"/>
	</g>
	<g transform="matrix(.35278 0 0 -.35278 -46.409 213.63)">
		<path fill="#2D3133" d="M667.47-657.96c22.56,10.12,90.85,0.92,137.37-43.77c7.18-10.12-8.62-47.15-22.56-56.9
			c-29.3-20.45-134.84,1.92-147.77,14.39C630.07-732.55,663.12-659.92,667.47-657.96"/>
	</g>
	<g transform="matrix(.35278 0 0 -.35278 -44.224 213.73)">
		<path fill="#3A3E40" d="M726.69-660.67c-28.01,8.2-53.28,8.34-65.39,2.9c-4.35-1.96-37.4-74.6-32.98-86.28
			c0.47-0.46,1.1-0.93,1.81-1.4C672.07-739.9,713.8-715.18,726.69-660.67"/>
	</g>
	<g transform="matrix(.35278 0 0 -.35278 -45.932 213.52)">
		<path fill="#898B8C" d="M680.4-654.98c-5.76-0.56-10.61-1.66-14.26-3.3c-4.36-1.97-37.41-74.61-32.98-86.27
			c0.19-0.2,0.42-0.39,0.66-0.58C646.74-713.21,657.9-677.31,680.4-654.98"/>
	</g>
	<g transform="matrix(.35278 0 0 -.35278 -47.491 216.49)">
		<path fill="#210101" d="M638.16-735.47c9.24-8.48,63.74-22.33,106.43-22.33c18.8,0,32.78,2.81,40.45,8.17
			c9.99,6.99,21.75,29.21,23.71,44.84c0.6,4.81,0.13,8.45-1.34,10.54c-33.93,32.55-81.64,47.18-113.84,47.18
			c-9.54,0-17.41-1.26-22.77-3.67c-2.76-1.25-21.58-40.54-29.58-66.63C637.51-729.42,637.66-733.86,638.16-735.47 M744.59-759.73
			c-40.42,0-97.63,13.41-107.42,22.85l-0.14,0.15l-0.08,0.2c-1.17,3.09-0.2,9.61,2.95,19.89c7.54,24.58,26.67,66.03,30.44,67.72
			c5.49,2.48,13.54,3.78,23.23,3.78c32.42,0,80.5-14.75,114.77-47.67c1.93-2.69,2.51-6.78,1.83-12.27
			c-2.02-16.13-14.14-39.03-24.47-46.25C777.72-756.89,763.89-759.73,744.59-759.73"/>
		<path fill="none" stroke="#210101" stroke-width="1.2778" stroke-miterlimit="10" d="M638.16-735.47
			c9.24-8.48,63.74-22.33,106.43-22.33c18.8,0,32.78,2.81,40.45,8.17c9.99,6.99,21.75,29.21,23.71,44.84
			c0.6,4.81,0.13,8.45-1.34,10.54c-33.93,32.55-81.64,47.18-113.84,47.18c-9.54,0-17.41-1.26-22.77-3.67
			c-2.76-1.25-21.58-40.54-29.58-66.63C637.51-729.42,637.66-733.86,638.16-735.47z M744.59-759.73
			c-40.42,0-97.63,13.41-107.42,22.85l-0.14,0.15l-0.08,0.2c-1.17,3.09-0.2,9.61,2.95,19.89c7.54,24.58,26.67,66.03,30.44,67.72
			c5.49,2.48,13.54,3.78,23.23,3.78c32.42,0,80.5-14.75,114.77-47.67c1.93-2.69,2.51-6.78,1.83-12.27
			c-2.02-16.13-14.14-39.03-24.47-46.25C777.72-756.89,763.89-759.73,744.59-759.73z"/>
	</g>
	<g transform="matrix(.35278 0 0 -.35278 -37.22 194.61)">
		<path fill="#C97512" d="M916.48-142.55c8.96-109.66,15.78-128.1,177.1-284.98c57.19-55.62,170.06-128.37,131.7-214.19
			c-6.72-6.7-179.19-179.49-407.26-50.33c-138.73,133.62-63.61,320.3-97.19,409.17C692.91-208.91,911.58-82.56,916.48-142.55"/>
	</g>
	<g transform="matrix(.35278 0 0 -.35278 -26.242 211.92)">
		<path fill="#E59935" d="M1213.97-611.62c-2.46-6.4,0.94-64.23-54.56-110.37c-3.37-2.52-6.46-4.59-8.93-5.93
			c-16.11-8.76-43.24-30.88-122.01-45.9c-1.45-0.29-2.92-0.56-4.39-0.82c-1.54,0.03-3.2,0.73-4.94,2.02
			c-5.8,4.17-12.48,14.74-19.17,28.59c-0.01,0.01-0.01,0.01-0.01,0.03c-0.91,1.87-1.81,3.78-2.7,5.76
			c-6.52,14.29-12.93,31.33-18.45,48.25c-0.22-0.02-0.42-0.03-0.64-0.06c-0.55-0.04-1.09-0.08-1.63-0.1
			c-0.76-0.04-1.52-0.07-2.29-0.13l-3.73-0.19c-1.06-0.03-2.13-0.08-3.19-0.11c-1.06-0.03-2.14-0.06-3.2-0.07
			c-0.76-0.03-1.52-0.04-2.27-0.05h-0.45c-1.25-0.01-2.49-0.02-3.75-0.02c-51.39,0-109.04,12.83-170.77,47.78
			c-138.74,133.62-63.62,320.3-97.17,409.17c-1.87,4.92-2.63,10.08-2.43,15.39c0,0.38,0.01,0.74,0.05,1.11
			c0,0.08,0.01,0.16,0.02,0.27c0.01,0.39,0.05,0.79,0.08,1.2c0.01,0.14,0.03,0.3,0.05,0.45c0.03,0.36,0.07,0.74,0.11,1.1
			c0.12,0.99,0.29,1.99,0.47,2.99c0.07,0.44,0.17,0.89,0.26,1.32c0.01,0.05,0.02,0.09,0.04,0.15c0.06,0.39,0.16,0.78,0.25,1.18
			c0.06,0.21,0.11,0.42,0.17,0.64c0.06,0.34,0.15,0.68,0.25,1c0.19,0.75,0.4,1.49,0.64,2.24c0.11,0.37,0.23,0.76,0.36,1.15
			c0.47,1.45,1,2.92,1.59,4.37c0.21,0.5,0.41,1.03,0.64,1.54c0.27,0.67,0.58,1.34,0.9,2.01c0.22,0.53,0.47,1.06,0.73,1.59
			c0.97,2.02,2.03,4.05,3.18,6.07c0.38,0.66,0.74,1.3,1.14,1.94c0.01,0.02,0.02,0.04,0.03,0.07c0.38,0.61,0.75,1.24,1.16,1.86
			c0.4,0.65,0.81,1.28,1.23,1.94c0.25,0.39,0.51,0.79,0.79,1.18c0.23,0.36,0.48,0.73,0.72,1.09c1.23,1.82,2.55,3.65,3.92,5.46
			c0.4,0.54,0.81,1.09,1.23,1.61c1.4,1.84,2.88,3.66,4.41,5.49c0.3,0.35,0.6,0.71,0.91,1.06c5.15,6.03,10.9,11.99,17.11,17.8
			c0.51,0.48,1.03,0.96,1.56,1.44c1.06,0.97,2.1,1.94,3.19,2.89c0.96,0.86,1.94,1.73,2.93,2.59c2.82,2.45,5.71,4.86,8.66,7.23
			c0.56,0.46,1.13,0.92,1.72,1.37c9.72,7.74,20.07,15.02,30.51,21.58c0.62,0.39,1.24,0.78,1.85,1.16c2.84,1.77,5.68,3.47,8.53,5.12
			c15.19,8.82,30.31,15.99,43.92,20.78c0.72,0.26,1.44,0.5,2.16,0.75c1.65,0.55,3.29,1.07,4.9,1.56c0.74,0.23,1.46,0.43,2.2,0.64
			c0.05,0.02,0.09,0.03,0.16,0.04c0.73,0.2,1.46,0.41,2.17,0.6c0.75,0.19,1.49,0.38,2.2,0.55c0.79,0.19,1.57,0.37,2.33,0.54
			c0.66,0.14,1.31,0.3,1.97,0.41c0.42,0.08,0.86,0.17,1.28,0.25c0.11,0.03,0.24,0.06,0.36,0.07c0.27,0.04,0.56,0.09,0.82,0.15
			c0.51,0.09,1.01,0.16,1.51,0.24c1.11,0.19,2.2,0.33,3.28,0.43c0.41,0.05,0.8,0.09,1.2,0.12c0.63,0.06,1.24,0.11,1.84,0.14
			c0.49,0.02,0.94,0.05,1.42,0.06c0.59,0.02,1.17,0.04,1.76,0.04c7.29,0,13.08-1.67,16.77-5.33c0.19-0.19,0.39-0.39,0.57-0.59
			c0.18-0.19,0.36-0.41,0.53-0.62c0.34-0.43,0.65-0.89,0.94-1.34c0.15-0.26,0.3-0.5,0.42-0.74c0.27-0.5,0.51-1,0.73-1.56
			c0.65-1.63,1.05-3.45,1.23-5.51c8.95-109.66,15.77-128.09,177.08-284.97c0.77-0.76,1.56-1.5,2.34-2.25
			c0.78-0.75,1.58-1.52,2.39-2.27c3.47-3.28,7.11-6.6,10.87-9.98c1.49-1.34,3-2.68,4.52-4.02c8.97-7.97,18.55-16.24,28.23-24.81
			c1.4-1.2,2.8-2.44,4.18-3.68c3.94-3.5,7.88-7.07,11.79-10.65c1.44-1.33,2.89-2.67,4.31-4.01c0.21-0.2,0.41-0.38,0.61-0.58
			c3.43-3.21,6.86-6.47,10.21-9.78c0.01-0.02,0.01-0.02,0.02-0.03c1.9-1.59,3.76-3.21,5.63-4.89
			c11.26-10.19,21.73-22.03,30.88-35.23c6.61-9.54,12.54-19.82,17.56-30.69c8.44-18.24,14.39-38.21,16.87-59.37
			C1214.04-590.72,1214.43-601.06,1213.97-611.62"/>
	</g>
	<g transform="matrix(.35278 0 0 -.35278 -32.659 214.3)">
		<path fill="#F9E6CD" d="M1040.07-676.12c-20.06-4.22-41.54-6.75-64.22-6.75c-57.12,0-114.37,16.01-170.19,47.61
			c-92.06,88.71-89.55,201.62-87.53,292.34c1.04,46.44,1.94,86.58-9.33,116.39c-5.69,15.09-1.37,33.14,12.84,53.71
			c18.77,27.11,52,53.94,84.84,73.14c-18.36-66.41-46.08-181.13-9.29-295.18C830.27-497.43,930.44-652.51,1040.07-676.12"/>
	</g>
	<g transform="matrix(.35278 0 0 -.35278 -28.461 206.7)">
		<path fill="#210101" d="M1153.84-470.16c-16.11,16.77-33.43,32.07-49.71,46.3c-12.62,11.02-24.53,21.44-34.72,31.35
			c-161.43,156.99-167.84,174.33-176.8,284.36c-0.89,10.84-8.54,16.56-22.16,16.56c-39.27,0-126.68-50.35-162.28-101.84
			c-14.58-21.11-18.98-39.79-13.04-55.47c11.13-29.48,10.24-69.43,9.22-115.67c-2.03-91.13-4.55-204.53,88.19-293.85l0.2-0.16
			c56.14-31.79,135.33-132.91,192.8-132.91c14.22,0.94,27.5,2.33,39.91,4.07c0.78,0.11,1.55,0.22,2.33,0.32
			c-6.7,4.17-13.99,15.4-21.51,28.26c-0.01,0.01-0.01,0.01-0.01,0.04c-12.65,21.68-25.95,48.05-38.08,53.3h-0.03
			c-1.41,0.6-2.8,0.93-4.17,0.93c-57.12,0-114.38,16-170.19,47.61c-92.06,88.71-89.54,201.6-87.53,292.33
			c1.04,46.46,1.94,86.57-9.35,116.41c-5.69,15.08-1.37,33.13,12.84,53.69c18.77,27.12,51.99,53.95,84.84,73.13
			c28.99,16.9,57.66,27.89,75.86,27.89c12.63,0,19.45-4.98,20.25-14.8c9.03-110.67,15.45-128.11,177.38-285.59
			c10.22-9.95,22.15-20.38,34.78-31.42c17.77-15.53,37.09-31.78,54.89-49.63c3.19-3.22,6.34-6.48,9.41-9.8
			C1162.85-479.75,1158.4-474.89,1153.84-470.16 M1184.72-505.39c-5.49,7.14-11.38,14-17.55,20.64
			c13.68-15.76,25.9-32.78,35.11-51.33c9.04-18.24,15.17-37.94,16.86-59.37c0.93-11.52,0.58-23.57-1.3-36.12l-4.86-26.76
			c-8.69-36.09-29.54-66.03-62.56-87.22c-26.13-16.81-64.69-33.14-122.66-41.55c2.24-1.39,4.43-1.98,6.54-1.58
			c0.15,0.02,0.31,0.04,0.46,0.07c62.71,9.58,103.85,29.29,130.94,51.83c55.5,46.13,52.11,103.97,54.57,110.36
			C1226.72-577.44,1210.14-538.49,1184.72-505.39"/>
		<path fill="none" stroke="#210101" stroke-width="1.2778" stroke-miterlimit="10" d="M1153.84-470.16
			c-16.11,16.77-33.43,32.07-49.71,46.3c-12.62,11.02-24.53,21.44-34.72,31.35c-161.43,156.99-167.84,174.33-176.8,284.36
			c-0.89,10.84-8.54,16.56-22.16,16.56c-39.27,0-126.68-50.35-162.28-101.84c-14.58-21.11-18.98-39.79-13.04-55.47
			c11.13-29.48,10.24-69.43,9.22-115.67c-2.03-91.13-4.55-204.53,88.19-293.85l0.2-0.16c56.14-31.79,135.33-132.91,192.8-132.91
			c14.22,0.94,27.5,2.33,39.91,4.07c0.78,0.11,1.55,0.22,2.33,0.32c-6.7,4.17-13.99,15.4-21.51,28.26
			c-0.01,0.01-0.01,0.01-0.01,0.04c-12.65,21.68-25.95,48.05-38.08,53.3h-0.03c-1.41,0.6-2.8,0.93-4.17,0.93
			c-57.12,0-114.38,16-170.19,47.61c-92.06,88.71-89.54,201.6-87.53,292.33c1.04,46.46,1.94,86.57-9.35,116.41
			c-5.69,15.08-1.37,33.13,12.84,53.69c18.77,27.12,51.99,53.95,84.84,73.13c28.99,16.9,57.66,27.89,75.86,27.89
			c12.63,0,19.45-4.98,20.25-14.8c9.03-110.67,15.45-128.11,177.38-285.59c10.22-9.95,22.15-20.38,34.78-31.42
			c17.77-15.53,37.09-31.78,54.89-49.63c3.19-3.22,6.34-6.48,9.41-9.8C1162.85-479.75,1158.4-474.89,1153.84-470.16z
			 M1184.72-505.39c-5.49,7.14-11.38,14-17.55,20.64c13.68-15.76,25.9-32.78,35.11-51.33c9.04-18.24,15.17-37.94,16.86-59.37
			c0.93-11.52,0.58-23.57-1.3-36.12l-4.86-26.76c-8.69-36.09-29.54-66.03-62.56-87.22c-26.13-16.81-64.69-33.14-122.66-41.55
			c2.24-1.39,4.43-1.98,6.54-1.58c0.15,0.02,0.31,0.04,0.46,0.07c62.71,9.58,103.85,29.29,130.94,51.83
			c55.5,46.13,52.11,103.97,54.57,110.36C1226.72-577.44,1210.14-538.49,1184.72-505.39z"/>
	</g>
	<g transform="matrix(.35278 0 0 -.35278 -37.137 206.91)">
		<path fill="#C97512" d="M918.73-475.86l-69.18,1.66c-17.22-196.79-59.22-258.92-48.63-275.22c10.59-16.3,100.36-25.18,106.01-9.83
			C947.66-680.62,931.69-518.06,918.73-475.86"/>
	</g>
	<g transform="matrix(.35278 0 0 -.35278 -38.385 214.59)">
		<path fill="#E59935" d="M884.92-683.97c8.85,4.15,48.21,200.5,37.36,229.86l-36.99,9.08l-32.19-7.42
			c-2.91-40.53-7.42-73.29-12.02-101.26c-19.63-119.23-45.22-160.73-36.61-173.98c2.83-4.38,42.66-12.09,53.76-15.08
			C864.65-737.69,853.86-698.55,884.92-683.97"/>
	</g>
	<g transform="matrix(.35278 0 0 -.35278 -39.481 207.29)">
		<path fill="#F8F7F2" d="M855.21-486.15c-2.87-34.66-6.91-63.41-11.02-88.36c-19.3-117.3-44.38-159.37-36.99-173.31
			C832.94-664.69,861.17-577,855.21-486.15"/>
	</g>
	<g transform="matrix(.35278 0 0 -.35278 -38.569 216.68)">
		<path fill="#210101" d="M879.92-740.61c-28.41,0-68.27,6.98-75.46,18.03c-4.36,6.71-0.64,19.76,6.8,45.73
			c11.87,41.5,31.72,110.93,42.32,231.91c0,0,0.36-11.62-0.17-17.16c-10.91-110.84-29.5-175.86-40.83-215.45
			c-7-24.46-10.85-37.94-7.06-43.77c7.97-12.28,65.76-20.81,92.34-16.12c9.57,1.7,11.96,4.54,12.52,6.07
			c40.61,78.46,24.19,242.23,11.16,284.67c0,0,4.21-9.99,5.63-17.28c11.69-59.53,20.82-198.06-15.58-268.37
			c-1.2-3.27-5.64-5.6-13.54-6.99C893.11-740.2,886.85-740.61,879.92-740.61"/>
		<path fill="none" stroke="#210101" stroke-width="1.2778" stroke-miterlimit="10" d="M879.92-740.61
			c-28.41,0-68.27,6.98-75.46,18.03c-4.36,6.71-0.64,19.76,6.8,45.73c11.87,41.5,31.72,110.93,42.32,231.91
			c0,0,0.36-11.62-0.17-17.16c-10.91-110.84-29.5-175.86-40.83-215.45c-7-24.46-10.85-37.94-7.06-43.77
			c7.97-12.28,65.76-20.81,92.34-16.12c9.57,1.7,11.96,4.54,12.52,6.07c40.61,78.46,24.19,242.23,11.16,284.67
			c0,0,4.21-9.99,5.63-17.28c11.69-59.53,20.82-198.06-15.58-268.37c-1.2-3.27-5.64-5.6-13.54-6.99
			C893.11-740.2,886.85-740.61,879.92-740.61z"/>
	</g>
	<g transform="matrix(.35278 0 0 -.35278 -40.777 214.32)">
		<path fill="#2D3133" d="M820.09-676.66c0,0,93.87,24.04,132.83-4.59c2.96-0.48,11.17-83.35,11.17-83.35s-92.27-45.43-167.74-0.28
			C788.97-761.98,818.87-676.54,820.09-676.66"/>
	</g>
	<g transform="matrix(.35278 0 0 -.35278 -38.22 214)">
		<path fill="#3A3E40" d="M889.38-667.99c-38.99,0-76.55-9.43-76.55-9.43c-1.22,0.11-31.11-85.32-23.73-88.22
			C842.6-778.08,890.91-731.05,889.38-667.99"/>
	</g>
	<g transform="matrix(.35278 0 0 -.35278 -40.777 214.32)">
		<path fill="#898B8C" d="M820.09-676.66c-1.22,0.12-31.12-85.32-23.74-88.21c0.12-0.03,0.24-0.04,0.36-0.07
			c10.47,45.69,17.18,60.91,29.94,89.79C822.48-676.05,820.09-676.66,820.09-676.66"/>
	</g>
	<g transform="matrix(.35278 0 0 -.35278 -40.766 214.35)">
		<path fill="#210101" d="M820.39-677.47c-2.56-4.35-26.57-73.9-24.39-85.37c0.18-0.9,0.45-1,0.54-1.03
			c22.16-13.26,47.88-19.96,76.52-19.96c46.12,0,85.24,17.62,90.24,19.97c-3.02,30.35-8.47,78.46-10.61,81.78l-0.1,0.08
			c-12.58,9.23-32.27,13.92-58.5,13.92C858.78-668.08,823.27-676.75,820.39-677.47 M873.06-785.74c-28.83,0-54.73,6.75-77,20.07
			c-2.13,0.84-1.6,5.93-1.41,7.6c1.24,11.83,8.56,35.64,12.82,48.79c1.11,3.44,10.97,33.67,12.62,33.67c1.4,0.37,37.56,9.45,74,9.45
			c26.4,0,46.27-4.73,59.06-14.07c0.95-0.26,2.47-2.38,7.16-42.63c2.4-20.56,4.46-41.32,4.47-41.51l0.08-0.78l-0.55-0.27
			C963.9-765.62,922.43-785.74,873.06-785.74"/>
		<path fill="none" stroke="#210101" stroke-width="1.2778" stroke-miterlimit="10" d="M820.39-677.47
			c-2.56-4.35-26.57-73.9-24.39-85.37c0.18-0.9,0.45-1,0.54-1.03c22.16-13.26,47.88-19.96,76.52-19.96
			c46.12,0,85.24,17.62,90.24,19.97c-3.02,30.35-8.47,78.46-10.61,81.78l-0.1,0.08c-12.58,9.23-32.27,13.92-58.5,13.92
			C858.78-668.08,823.27-676.75,820.39-677.47z M873.06-785.74c-28.83,0-54.73,6.75-77,20.07c-2.13,0.84-1.6,5.93-1.41,7.6
			c1.24,11.83,8.56,35.64,12.82,48.79c1.11,3.44,10.97,33.67,12.62,33.67c1.4,0.37,37.56,9.45,74,9.45
			c26.4,0,46.27-4.73,59.06-14.07c0.95-0.26,2.47-2.38,7.16-42.63c2.4-20.56,4.46-41.32,4.47-41.51l0.08-0.78l-0.55-0.27
			C963.9-765.62,922.43-785.74,873.06-785.74z"/>
	</g>
	<g transform="matrix(.35278 0 0 -.35278 -30.414 211.57)">
		<path fill="#210101" d="M1100.92-602.13c-16.66,0.16-55.48,0.24-60.02,0.24c-9.77,0-42.61,0.38-63.43-6.21
			c-3.54-1.12-5.01-8.95-3.14-22.12c1.67-11.84,5.41-27.72,10.37-44.66l1.74,0.51c-4.8,16.44-8.48,32.08-10.22,44.4
			c-2.35,16.66,0.31,18.85,1.18,19.14c20.56,6.52,53.81,7.03,63.51,7.03c7.36,0,13.82,0.39,17.75-0.04l54.23-0.56
			C1108.45-602.68,1105.67-602.18,1100.92-602.13"/>
		<path fill="none" stroke="#210101" stroke-width="1.2778" stroke-miterlimit="10" d="M1100.92-602.13
			c-16.66,0.16-55.48,0.24-60.02,0.24c-9.77,0-42.61,0.38-63.43-6.21c-3.54-1.12-5.01-8.95-3.14-22.12
			c1.67-11.84,5.41-27.72,10.37-44.66l1.74,0.51c-4.8,16.44-8.48,32.08-10.22,44.4c-2.35,16.66,0.31,18.85,1.18,19.14
			c20.56,6.52,53.81,7.03,63.51,7.03c7.36,0,13.82,0.39,17.75-0.04l54.23-0.56C1108.45-602.68,1105.67-602.18,1100.92-602.13z"/>
	</g>
	<g transform="matrix(.35278 0 0 -.35278 -46.525 185.3)">
		<path fill="#C97512" d="M664.34,109.74c0,48.43-59.39,165.36-116.3,146.8c-9.45-3.07-45.76-60.23-12.9-137.14
			c16.62-38.91,44.67-63.94,102.39-61.64L664.34,109.74z"/>
	</g>
	<g transform="matrix(.35278 0 0 -.35278 -50.41 180.4)">
		<path fill="#E59935" d="M559.06,242.52c-3.44-1.11-14-8.2-16.4-23.29c-7.93-49.53,7.25-113.88,42.37-143.43
			c18.98-16.22,43.68-23.91,67.46-25.78l22.85,45.71C675.34,144.14,615.96,261.07,559.06,242.52"/>
	</g>
	<g transform="matrix(.35278 0 0 -.35278 -46.632 185.52)">
		<path fill="#FFFFFF" d="M661.43,103.78l3.23,6.44c0,48.43-59.4,165.36-116.3,146.81c-1.2-0.38-3.26-1.52-5.53-3.44
			C609.09,248.79,641.6,170.52,661.43,103.78"/>
	</g>
	<g transform="matrix(.35278 0 0 -.35278 -49.996 180.36)">
		<path fill="#210101" d="M570.28,243.6c-4.14,0-8.24-0.65-12.21-1.95c-3.16-1.03-10.72-9.71-16.92-25.09
			c-7.81-19.37-17.63-59.56,4.4-111.1C563.7,63,592.89,44.07,640.21,44.07c2.22,0,4.5,0.04,6.81,0.12l26.54,51.5
			C673.43,142.33,621.64,243.6,570.28,243.6 M640.21,42.69c-47.87,0-77.4,19.18-95.78,62.19c-22.25,52.04-12.31,92.67-4.42,112.24
			c5.83,14.48,13.58,24.51,17.71,25.85c4.07,1.33,8.3,2,12.55,2c23.37,0,49.71-21.08,72.27-57.84c19-30.96,32.26-68.63,32.26-91.61
			v-0.19l-0.07-0.16l-26.98-52.31l-0.35-0.02C644.97,42.74,642.56,42.69,640.21,42.69"/>
		<path fill="none" stroke="#210101" stroke-width="1.2778" stroke-miterlimit="10" d="M570.28,243.6c-4.14,0-8.24-0.65-12.21-1.95
			c-3.16-1.03-10.72-9.71-16.92-25.09c-7.81-19.37-17.63-59.56,4.4-111.1C563.7,63,592.89,44.07,640.21,44.07
			c2.22,0,4.5,0.04,6.81,0.12l26.54,51.5C673.43,142.33,621.64,243.6,570.28,243.6z M640.21,42.69c-47.87,0-77.4,19.18-95.78,62.19
			c-22.25,52.04-12.31,92.67-4.42,112.24c5.83,14.48,13.58,24.51,17.71,25.85c4.07,1.33,8.3,2,12.55,2
			c23.37,0,49.71-21.08,72.27-57.84c19-30.96,32.26-68.63,32.26-91.61v-0.19l-0.07-0.16l-26.98-52.31l-0.35-0.02
			C644.97,42.74,642.56,42.69,640.21,42.69z"/>
	</g>
	<g transform="matrix(.35278 0 0 -.35278 -48.068 186.41)">
		<path fill="#FF8989" d="M622.52,79.66c-96.49,39.39-69.74,139.47-61.91,141.77c62.2,1.95,70.36-141.77,70.36-141.77H622.52z"/>
	</g>
	<g transform="matrix(.35278 0 0 -.35278 -50.162 181.67)">
		<path fill="#FF9D9D" d="M565.78,208.11c-12.54-21.82-22.58-104.22,58.3-140.16C626.06,79.19,610,197.04,565.78,208.11"/>
	</g>
	<g transform="matrix(.35278 0 0 -.35278 -48.064 186.39)">
		<path fill="#210101" d="M622.63,80.2h7.67c-0.75,10.99-10.91,140.41-68.45,140.41c-0.37,0-0.76-0.01-1.14-0.02
			c-2.21-0.85-7.87-13.59-8.76-34.27C550.97,163.51,555.91,107.49,622.63,80.2 M631.63,78.83l-9.33,0.04
			c-27.32,11.14-47.25,28.14-59.19,50.49c-11.35,21.24-13,42.74-12.39,57.04c0.86,19.91,6.42,34.59,9.73,35.55l0.14,0.02
			c0.41,0.01,0.85,0.02,1.26,0.02c25.28,0,45.34-24.69,58.05-71.38c9.56-35.11,11.67-70.69,11.69-71.04L631.63,78.83z"/>
		<path fill="none" stroke="#210101" stroke-width="1.2778" stroke-miterlimit="10" d="M622.63,80.2h7.67
			c-0.75,10.99-10.91,140.41-68.45,140.41c-0.37,0-0.76-0.01-1.14-0.02c-2.21-0.85-7.87-13.59-8.76-34.27
			C550.97,163.51,555.91,107.49,622.63,80.2z M631.63,78.83l-9.33,0.04c-27.32,11.14-47.25,28.14-59.19,50.49
			c-11.35,21.24-13,42.74-12.39,57.04c0.86,19.91,6.42,34.59,9.73,35.55l0.14,0.02c0.41,0.01,0.85,0.02,1.26,0.02
			c25.28,0,45.34-24.69,58.05-71.38c9.56-35.11,11.67-70.69,11.69-71.04L631.63,78.83z"/>
	</g>
	<g transform="matrix(.35278 0 0 -.35278 -50.708 181.7)">
		<path fill="#210101" d="M550.98,207.3c0.1,0.01,10.26,1.76,18.39,1.22l-0.08-1.37C561.3,207.7,550.98,207.3,550.98,207.3"/>
		<path fill="none" stroke="#210101" stroke-width="1.2778" stroke-miterlimit="10" d="M550.98,207.3
			c0.1,0.01,10.26,1.76,18.39,1.22l-0.08-1.37C561.3,207.7,550.98,207.3,550.98,207.3z"/>
	</g>
	<g transform="matrix(.35278 0 0 -.35278 -34.356 192.82)">
		<path fill="#C97512" d="M994.09-94.04c-10.44-67.98-70.14-100.18-125.12-118.72c-6.88-2.32-13.67-4.42-20.29-6.37
			c-24.94-8.09-53.93-5.9-76.89-19.01c-41.07-24.04-78.51-54.63-128.04-55.18c-6.88,0.14-13.75,0.68-20.54,1.64
			c-29,3.28-29,29.5-24.77,51.72c0.34,7.99,0.31,15.91-0.09,23.71c-3.16,62.37-29.15,116.8-61.38,141.31
			c-0.36,0.42-0.61,0.88-0.78,1.4c-1.35,4.12,2.91,11.66,8.65,21.99c9.52,17.72,21.59,35.19,22.81,54.86
			c2.02,38.24-0.16,77.23,13.74,113.83c2.78,7.32,6.19,14.54,10.43,21.65c20.3,35.62,55.36,55.93,95.4,65.55
			c12.33,2.98,25.15,4.92,38.15,5.98c27.61,2.29,56.08,0.58,82.67-3.79c44.7-6.56,85.76-29.5,107.23-65.12
			c3.97-6.57,7.24-13.52,9.65-20.82c2.41-7.3,3.98-14.94,4.59-22.91c2.01-13.75,2.11-23.84,5.08-25.79c2.92-1.91,5.71-3.94,8.4-6.03
			c19.99-15.56,34.2-36.01,43.38-57.97c3.56-9.25,6.24-19.18,8.05-29.8C998.03-43.23,998.2-67.27,994.09-94.04"/>
	</g>
	<g transform="matrix(.35278 0 0 -.35278 -36.323 194.58)">
		<path fill="#E59935" d="M940.79-141.73c-31.29-36.67-59.96-41.88-96.63-50.97c-6.11-1.52-12.45-3.14-19.13-5
			c-6.57-2.74-15.02-2.74-21.07-7.11c-51.93-30.59-95.43-74.29-159.46-76.47c-6.02-0.55-12.68,1.36-17.51,4.92
			c-4.84,3.55-7.84,8.74-6.64,14.76c1.21,15.28,7.25,30.57,5.67,45.77c-0.6,6.9-1.86,13.98-3.66,21.14
			c-12.6,50.04-51.59,103.23-79.79,124.67c-0.36,0.42-0.63,0.88-0.78,1.4c-1.36,4.11,2.89,11.65,8.64,22
			c9.52,17.72,21.6,35.19,22.8,54.85c2.02,38.24-0.17,77.24,13.74,113.83c2.77,7.32,6.2,14.54,10.41,21.64
			c20.3,35.63,55.37,55.93,95.41,65.56c13.28,2.54,26,4.51,38.15,5.98c27.63,2.28,56.09,0.57,82.69-3.8
			c44.68-6.56,85.77-29.5,107.21-65.13c3.98-6.56,7.23-13.51,9.64-20.81c2.42-7.31,4-14.95,4.6-22.91
			c2.01-13.76,2.11-23.85,5.07-25.8c2.92-1.9,5.71-3.93,8.42-6.03C966.44,46.53,1022.38-46.07,940.79-141.73"/>
	</g>
	<g transform="matrix(.35278 0 0 -.35278 -40.403 182.77)">
		<path fill="#FFFFFF" d="M830.23,178.3c-2.95,0.14-5.94,0.22-8.97,0.22h-0.38c-2.6,0-5.17-0.02-7.69-0.07
			C622.44,175.02,603.76,43.8,595.8-16.42c-7.22-54.67-35.61-80.23-41.41-84.93c-0.67-0.55-1.04-0.81-1.04-0.81
			c-1.35,4.14,2.91,11.66,8.65,22c9.52,17.71,21.6,35.19,22.81,54.85c2.02,38.25-0.17,77.23,13.74,113.83
			c2.78,7.31,6.19,14.55,10.42,21.65c20.3,35.63,55.37,55.94,95.41,65.55c13.28,2.54,25.98,4.51,38.14,5.96
			c7.64,0.95,15.08,1.66,22.28,2.21c19.66,0.16,40.24-1.46,60.59-4.79C827.01,178.85,828.62,178.58,830.23,178.3"/>
	</g>
	<g transform="matrix(.35278 0 0 -.35278 -38.548 196.75)">
		<path fill="#210101" d="M880.49-200.54c-6.38-2.15-13.01-4.21-20.28-6.36c-9.92-3.21-20.74-4.82-31.19-6.38
			c-15.71-2.36-31.99-4.77-45.92-12.73c-7.83-4.58-15.63-9.46-23.17-14.18c-33.16-20.78-64.49-40.39-104.24-40.83
			c-6.81,0.13-13.67,0.68-20.42,1.63c-9.04,1.01-15.75,4.43-19.96,10.16c-6.08,8.26-7.32,21.39-3.77,40.12l0.02,0.18
			c0.34,7.9,0.32,15.9-0.09,23.82c-1.53,30.04-8.4,59.52-19.88,85.28c-5.67,12.72-12.27,24.11-19.56,33.85
			c-6.85,9.19-14.37,16.92-22.29,22.98c-0.21,0.28-0.36,0.56-0.48,0.91c-0.05,0.14-0.08,0.29-0.1,0.42
			c-0.75,3.69,3.32,10.99,8.39,20.13l0.28,0.48c1.72,3.21,3.58,6.49,5.35,9.64c8.16,14.44,16.6,29.36,17.6,45.74
			c0.42,7.94,0.66,16.03,0.89,23.86c0.9,29.87,1.82,60.77,12.77,89.59c2.85,7.51,6.31,14.72,10.35,21.48
			c18.51,32.48,50.33,54.33,94.63,64.96c11.88,2.88,24.65,4.87,37.96,5.96c22.23,1.83,46.39,1.12,70.57-2.04
			c3.95-0.51,7.89-1.09,11.83-1.74c46.38-6.8,86.12-30.93,106.36-64.56c4.01-6.61,7.22-13.52,9.55-20.56
			c2.42-7.32,3.95-14.93,4.54-22.72c0.56-3.86,0.98-7.44,1.35-10.6c1.05-8.91,1.66-14.3,4.27-16.01c2.77-1.83,5.59-3.85,8.34-5.98
			c1.12-0.88,2.23-1.77,3.32-2.68c17.08-14.23,30.41-32.64,39.67-54.78c3.5-9.09,6.2-19.05,7.98-29.59
			c1.82-10.63,2.7-21.8,2.7-33.41c0-12.28-1-25.07-3.03-38.27C996.54-136.57,955.87-175.11,880.49-200.54 M1007.52-10.67
			c-1.83,10.69-4.55,20.79-8.14,30.08c-10.01,23.98-24.73,43.64-43.75,58.46c-2.78,2.16-5.64,4.23-8.48,6.08
			c-1.67,1.1-2.37,7.21-3.2,14.28c-0.36,3.19-0.78,6.79-1.34,10.59c-0.61,7.89-2.16,15.7-4.66,23.2
			c-2.37,7.22-5.66,14.31-9.76,21.07c-19.91,33.05-58.26,57.09-103.23,64.9c-1.6,0.3-3.22,0.55-4.84,0.79
			c-20.35,3.33-40.93,4.96-60.58,4.79c-7.62-0.07-15.1-0.39-22.38-1c-13.45-1.09-26.35-3.12-38.34-6
			c-44.95-10.8-77.31-33.05-96.16-66.11c-4.07-6.85-7.62-14.2-10.51-21.82c-11.1-29.22-12.03-60.31-12.92-90.39
			c-0.23-7.82-0.47-15.91-0.89-23.81c-0.98-15.82-9.28-30.48-17.3-44.67c-1.78-3.18-3.64-6.44-5.36-9.65l-0.29-0.5
			c-5.99-10.79-9.95-17.91-8.46-22.47c0.22-0.69,0.55-1.29,1.02-1.83l0.17-0.16c33.46-25.45,57.92-81.86,60.89-140.4
			c0.41-7.83,0.42-15.74,0.1-23.54c-3.67-19.39-2.3-33.1,4.21-41.93c4.64-6.27,11.91-10.03,21.59-11.1
			c6.83-0.98,13.77-1.54,20.72-1.67c40.45,0.46,73.54,21.17,105.55,41.21c7.52,4.7,15.32,9.58,23.1,14.13
			c13.52,7.72,29.55,10.13,45.06,12.44c10.56,1.58,21.46,3.2,31.55,6.49c7.26,2.12,13.92,4.19,20.35,6.36
			c33.7,11.35,59.75,24.78,79.64,41.03c12.98,10.61,23.36,22.52,31.1,35.65c7.72,13.15,12.81,27.5,15.19,43
			C1011.16-57.21,1011.28-32.82,1007.52-10.67"/>
		<path fill="none" stroke="#210101" stroke-width="1.2778" stroke-miterlimit="10" d="M880.49-200.54
			c-6.38-2.15-13.01-4.21-20.28-6.36c-9.92-3.21-20.74-4.82-31.19-6.38c-15.71-2.36-31.99-4.77-45.92-12.73
			c-7.83-4.58-15.63-9.46-23.17-14.18c-33.16-20.78-64.49-40.39-104.24-40.83c-6.81,0.13-13.67,0.68-20.42,1.63
			c-9.04,1.01-15.75,4.43-19.96,10.16c-6.08,8.26-7.32,21.39-3.77,40.12l0.02,0.18c0.34,7.9,0.32,15.9-0.09,23.82
			c-1.53,30.04-8.4,59.52-19.88,85.28c-5.67,12.72-12.27,24.11-19.56,33.85c-6.85,9.19-14.37,16.92-22.29,22.98
			c-0.21,0.28-0.36,0.56-0.48,0.91c-0.05,0.14-0.08,0.29-0.1,0.42c-0.75,3.69,3.32,10.99,8.39,20.13l0.28,0.48
			c1.72,3.21,3.58,6.49,5.35,9.64c8.16,14.44,16.6,29.36,17.6,45.74c0.42,7.94,0.66,16.03,0.89,23.86
			c0.9,29.87,1.82,60.77,12.77,89.59c2.85,7.51,6.31,14.72,10.35,21.48c18.51,32.48,50.33,54.33,94.63,64.96
			c11.88,2.88,24.65,4.87,37.96,5.96c22.23,1.83,46.39,1.12,70.57-2.04c3.95-0.51,7.89-1.09,11.83-1.74
			c46.38-6.8,86.12-30.93,106.36-64.56c4.01-6.61,7.22-13.52,9.55-20.56c2.42-7.32,3.95-14.93,4.54-22.72
			c0.56-3.86,0.98-7.44,1.35-10.6c1.05-8.91,1.66-14.3,4.27-16.01c2.77-1.83,5.59-3.85,8.34-5.98c1.12-0.88,2.23-1.77,3.32-2.68
			c17.08-14.23,30.41-32.64,39.67-54.78c3.5-9.09,6.2-19.05,7.98-29.59c1.82-10.63,2.7-21.8,2.7-33.41c0-12.28-1-25.07-3.03-38.27
			C996.54-136.57,955.87-175.11,880.49-200.54z M1007.52-10.67c-1.83,10.69-4.55,20.79-8.14,30.08
			c-10.01,23.98-24.73,43.64-43.75,58.46c-2.78,2.16-5.64,4.23-8.48,6.08c-1.67,1.1-2.37,7.21-3.2,14.28
			c-0.36,3.19-0.78,6.79-1.34,10.59c-0.61,7.89-2.16,15.7-4.66,23.2c-2.37,7.22-5.66,14.31-9.76,21.07
			c-19.91,33.05-58.26,57.09-103.23,64.9c-1.6,0.3-3.22,0.55-4.84,0.79c-20.35,3.33-40.93,4.96-60.58,4.79
			c-7.62-0.07-15.1-0.39-22.38-1c-13.45-1.09-26.35-3.12-38.34-6c-44.95-10.8-77.31-33.05-96.16-66.11
			c-4.07-6.85-7.62-14.2-10.51-21.82c-11.1-29.22-12.03-60.31-12.92-90.39c-0.23-7.82-0.47-15.91-0.89-23.81
			c-0.98-15.82-9.28-30.48-17.3-44.67c-1.78-3.18-3.64-6.44-5.36-9.65l-0.29-0.5c-5.99-10.79-9.95-17.91-8.46-22.47
			c0.22-0.69,0.55-1.29,1.02-1.83l0.17-0.16c33.46-25.45,57.92-81.86,60.89-140.4c0.41-7.83,0.42-15.74,0.1-23.54
			c-3.67-19.39-2.3-33.1,4.21-41.93c4.64-6.27,11.91-10.03,21.59-11.1c6.83-0.98,13.78-1.54,20.72-1.67
			c40.45,0.46,73.54,21.17,105.55,41.21c7.52,4.7,15.32,9.58,23.1,14.13c13.52,7.72,29.55,10.13,45.06,12.44
			c10.56,1.58,21.46,3.2,31.55,6.49c7.26,2.12,13.92,4.19,20.35,6.36c33.7,11.35,59.75,24.78,79.64,41.03
			c12.98,10.61,23.36,22.52,31.1,35.65c7.72,13.15,12.81,27.5,15.19,43C1011.16-57.21,1011.28-32.82,1007.52-10.67z"/>
	</g>
	<g transform="matrix(.35278 0 0 -.35278 -42.148 185.14)">
		<path fill="#210101" d="M782.94,114.07c0,0,50.82,15.83,80.55-29.25C863.8,88.67,849.12,176.41,782.94,114.07"/>
		<path fill="none" stroke="#210101" stroke-width="1.2778" stroke-miterlimit="10" d="M782.94,114.07c0,0,50.82,15.83,80.55-29.25
			C863.8,88.67,849.12,176.41,782.94,114.07z"/>
	</g>
	<g transform="matrix(.35278 0 0 -.35278 -45.008 185.26)">
		<path fill="#210101" d="M705.44,110.82c0,0-27.88,33.42-70.39,5.37C636.69,119.67,689.27,190.89,705.44,110.82"/>
		<path fill="none" stroke="#210101" stroke-width="1.2778" stroke-miterlimit="10" d="M705.44,110.82c0,0-27.88,33.42-70.39,5.37
			C636.69,119.67,689.27,190.89,705.44,110.82z"/>
	</g>
	<g transform="matrix(.35278 0 0 -.35278 -31.273 181.24)">
		<path fill="#C97512" d="M1077.63,219.76c-99.14,64.57-145.04-45.19-150.34-55.97c-18.8-38.19-31.28-44.89-31.28-44.89l7.67-78.52
			c37.69,4.66,96.71-5.02,140.03,33.53C1107.73,130.88,1085.21,214.84,1077.63,219.76"/>
	</g>
	<g transform="matrix(.35278 0 0 -.35278 -31.214 181.31)">
		<path fill="#E59935" d="M1079.24,217.87c-0.64,1.06-1.24,1.8-1.76,2.15c-99.15,64.56-145.04-45.19-150.35-55.98
			c-18.79-38.19-31.26-44.89-31.26-44.89l7.13-78.51c17.85,4.89,39.53,7.96,55.5,9.95C1050.7,62.1,1104.8,158.95,1079.24,217.87"/>
	</g>
	<g transform="matrix(.35278 0 0 -.35278 -36.078 183.29)">
		<path fill="#FFFFFF" d="M947.43,164.21c44.4,94.13,113.31,72.24,137.1,65.51c-94.48,55.39-138.42-49.58-143.61-60.11
			c-18.78-38.21-31.26-44.89-31.26-44.89S928.31,123.67,947.43,164.21"/>
	</g>
	<g transform="matrix(.35278 0 0 -.35278 -37.102 187.23)">
		<path fill="#210101" d="M919.68,57.44c8.71,1.07,18.62,1.43,29.11,1.8c34.71,1.24,77.91,2.77,111.09,32.3
			c41.14,36.61,44.92,82.92,43.5,107.25c-1.22,21.29-6.84,35.65-9.5,37.38c-82.24,53.56-128.45-10.75-148.68-53.85
			c-0.38-0.78-0.68-1.39-0.89-1.84c-11.84-24.07-21.72-36.07-27.5-41.71c-3.32-3.26-6-3.21-6-3.21c0.14,0.08,14.04,8.15,32.49,45.64
			c0.23,0.44,0.51,1.06,0.86,1.83c4.43,9.41,17.86,38.04,42.43,57.18c31.3,24.38,67.58,23.45,107.85-2.78
			c3.44-2.23,8.93-17.98,10.13-38.55c1.43-24.63-2.38-71.49-43.98-108.49c-33.48-29.8-76.89-31.36-111.75-32.59
			c-8.02-0.29-15.72-0.56-22.76-1.15C923.92,56.49,919.68,57.44,919.68,57.44"/>
		<path fill="none" stroke="#210101" stroke-width="1.2778" stroke-miterlimit="10" d="M919.68,57.44
			c8.71,1.07,18.62,1.43,29.11,1.8c34.71,1.24,77.91,2.77,111.09,32.3c41.14,36.61,44.92,82.92,43.5,107.25
			c-1.22,21.29-6.84,35.65-9.5,37.38c-82.24,53.56-128.45-10.75-148.68-53.85c-0.38-0.78-0.68-1.39-0.89-1.84
			c-11.84-24.07-21.72-36.07-27.5-41.71c-3.32-3.26-6-3.21-6-3.21c0.14,0.08,14.04,8.15,32.49,45.64c0.23,0.44,0.51,1.06,0.86,1.83
			c4.43,9.41,17.86,38.04,42.43,57.18c31.3,24.38,67.58,23.45,107.85-2.78c3.44-2.23,8.93-17.98,10.13-38.55
			c1.43-24.63-2.38-71.49-43.98-108.49c-33.48-29.8-76.89-31.36-111.75-32.59c-8.02-0.29-15.72-0.56-22.76-1.15
			C923.92,56.49,919.68,57.44,919.68,57.44z"/>
	</g>
	<g transform="matrix(.35278 0 0 -.35278 -36.322 186.2)">
		<path fill="#FF8989" d="M940.82,85.36c0,0,20.62,12.38,41.83,57.87c7.89,16.92,29.65,80.93,79.13,71.99
			c3.16-1.43,29.78-51.42-17.58-102.34C991.85,56.65,940.82,85.36,940.82,85.36"/>
	</g>
	<g transform="matrix(.35278 0 0 -.35278 -32.257 181.88)">
		<path fill="#FF9D9D" d="M1050.97,202.41c-34.51-6.11-61.53-52.22-70.56-78.72c-14.6-42.81-32.89-56.46-31.53-56.7
			c19.62-3.3,51.45-0.98,83.79,33.77C1077.42,148.86,1056.12,196.14,1050.97,202.41"/>
	</g>
	<g transform="matrix(.35278 0 0 -.35278 -36.277 186.2)">
		<path fill="#210101" d="M942.03,85.36c3.52-1.7,15.24-6.71,31.33-6.71c17.34,0,43.64,6.02,70.31,34.68
			c27.24,29.29,29.61,57.7,26.78,76.37c-2.2,14.57-7.78,24.01-8.96,24.74c-3.08,0.53-6.15,0.82-9.11,0.82
			c-38.14,0-57.38-44.77-66.62-66.3c-1.05-2.42-1.95-4.52-2.71-6.19C964.72,103.48,946.58,88.64,942.03,85.36 M973.36,77.21
			c-19.55,0-32.78,7.32-32.92,7.4l-1.11,0.62l1.1,0.67c0.2,0.12,20.72,12.85,41.57,57.58c0.76,1.63,1.66,3.72,2.7,6.13
			c9.35,21.77,28.82,67.07,67.68,67.07c3.04,0,6.19-0.28,9.35-0.87l0.12-0.03c1.6-0.73,7.45-10.69,9.74-25.69
			c2.92-19.08,0.58-48.07-27.14-77.85C1017.51,83.3,990.92,77.21,973.36,77.21"/>
		<path fill="none" stroke="#210101" stroke-width="1.2778" stroke-miterlimit="10" d="M942.03,85.36
			c3.52-1.7,15.24-6.71,31.33-6.71c17.34,0,43.64,6.02,70.31,34.68c27.24,29.29,29.61,57.7,26.78,76.37
			c-2.2,14.57-7.78,24.01-8.96,24.74c-3.08,0.53-6.15,0.82-9.11,0.82c-38.14,0-57.38-44.77-66.62-66.3
			c-1.05-2.42-1.95-4.52-2.71-6.19C964.72,103.48,946.58,88.64,942.03,85.36z M973.36,77.21c-19.55,0-32.78,7.32-32.92,7.4
			l-1.11,0.62l1.1,0.67c0.2,0.12,20.72,12.85,41.57,57.58c0.76,1.63,1.66,3.72,2.7,6.13c9.35,21.77,28.82,67.07,67.68,67.07
			c3.04,0,6.19-0.28,9.35-0.87l0.12-0.03c1.6-0.73,7.45-10.69,9.74-25.69c2.92-19.08,0.58-48.07-27.14-77.85
			C1017.51,83.3,990.92,77.21,973.36,77.21z"/>
	</g>
	<g transform="matrix(.35278 0 0 -.35278 -32.324 181.88)">
		<path fill="#210101" d="M1049.16,202.41l-0.3,1.38c15.14,4.76,20.5,4.82,20.72,4.82C1069.58,208.62,1064.1,207.11,1049.16,202.41"
			/>
		<path fill="none" stroke="#210101" stroke-width="1.2778" stroke-miterlimit="10" d="M1049.16,202.41l-0.3,1.38
			c15.14,4.76,20.5,4.82,20.72,4.82C1069.58,208.62,1064.1,207.11,1049.16,202.41z"/>
	</g>
	<g transform="matrix(.35278 0 0 -.35278 -36.978 186.58)">
		<path fill="#210101" d="M923.04,75.06c0,0,9.67,5.39,20.45,12.68l0.57-1.25C933.18,79.13,923.14,75.1,923.04,75.06"/>
		<path fill="none" stroke="#210101" stroke-width="1.2778" stroke-miterlimit="10" d="M923.04,75.06c0,0,9.67,5.39,20.45,12.68
			l0.57-1.25C933.18,79.13,923.14,75.1,923.04,75.06z"/>
	</g>
	<g transform="matrix(.35278 0 0 -.35278 -35.852 212.05)">
		<path fill="#363334" d="M953.55-615.14c-58.77-22.68-35.66-185.01,35.82-170.9c20.14,1.34,42.13,6.14,64.34,13.05
			c23.46,57.66,18.54,120.04-30.8,170.53C998.89-604.39,978.49-605.53,953.55-615.14"/>
	</g>
	<g transform="matrix(.35278 0 0 -.35278 -34.655 217.75)">
		<path fill="#524F50" d="M985.99-769.6c20.13,1.34,42.12,6.14,64.32,13.04c20.05,49.27,19.35,102.36-12.39,148.3
			c-42.09-8.11-83.05-27.68-121.85-53.21C914.92-711.81,943.47-778,985.99-769.6"/>
	</g>
	<g transform="matrix(.35278 0 0 -.35278 -33.556 211.65)">
		<path fill="#210101" d="M1015.77-604.31l-3.78-0.3c-22.18-1.75-41.34-3.29-64.55-12.26c-3.94-1.53-7.59-3.55-10.86-6.07
			c-25.92-19.79-28.47-72.81-10.81-115.59c13.59-32.89,34.89-51.15,56.96-46.81c18.64,1.27,39.93,5.55,63.23,12.71
			C1062.29-732.25,1074.59-665.07,1015.77-604.31 M935.01-621.8L935.01-621.8c3.52,2.68,7.44,4.84,11.65,6.46
			c23.62,9.09,42.92,10.64,65.3,12.41l5.05,0.4l0.37-0.36c60.63-61.79,47.94-130.64,31.38-171.69l-0.31-0.73l-0.75-0.25
			c-23.96-7.44-45.91-11.89-64.89-13.16c-23.49-4.62-46,14.38-59.97,48.71C905.16-696.48,907.33-642.83,935.01-621.8"/>
		<path fill="none" stroke="#210101" stroke-width="1.2778" stroke-miterlimit="10" d="M1015.77-604.31l-3.78-0.3
			c-22.18-1.75-41.34-3.29-64.55-12.26c-3.94-1.53-7.59-3.55-10.86-6.07c-25.92-19.79-28.47-72.81-10.81-115.59
			c13.59-32.89,34.89-51.15,56.96-46.81c18.64,1.27,39.93,5.55,63.23,12.71C1062.29-732.25,1074.59-665.07,1015.77-604.31z
			 M935.01-621.8L935.01-621.8c3.52,2.68,7.44,4.84,11.65,6.46c23.62,9.09,42.92,10.64,65.3,12.41l5.05,0.4l0.37-0.36
			c60.63-61.79,47.94-130.64,31.38-171.69l-0.31-0.73l-0.75-0.25c-23.96-7.44-45.91-11.89-64.89-13.16
			c-23.49-4.62-46,14.38-59.97,48.71C905.16-696.48,907.33-642.83,935.01-621.8z"/>
	</g>
	<g transform="matrix(.35278 0 0 -.35278 -34.787 217.77)">
		<path fill="#2B2B2B" d="M982.41-770.15c27.21,24.88,31.44,77.3,12.8,120.74c-10.78,25.11-27.32,42.66-44.28,50.81
			c-0.14-0.05-0.26-0.11-0.39-0.14C892.91-620.98,913.76-775.62,982.41-770.15"/>
	</g>
	<g transform="matrix(.35278 0 0 -.35278 -35.849 212.07)">
		<path fill="#210101" d="M953.64-615.69c-3.83-1.5-7.38-3.5-10.57-5.93h-0.01c-25.13-19.2-27.56-66.26-14.43-105.83
			c11.84-35.7,33.31-58.49,56.24-57.1c26.88,25.1,29.81,76.94,12.06,118.6C986.71-641.96,971-624.25,953.64-615.69 M941.49-620.52
			l0.01,0.01c3.52,2.67,7.44,4.84,11.65,6.47l0.9,0.33l0.66-0.18c17.94-8.59,34.19-26.64,44.79-51.12
			c17.64-40.82,15.55-91.56-9.52-118.89c-1.14-1.24-2.31-2.41-3.53-3.53l-0.47-0.44l-0.62-0.05c-24.67-1.96-47.5,21.79-59.67,59.17
			C912.54-688.32,915.49-640.26,941.49-620.52"/>
		<path fill="none" stroke="#210101" stroke-width="1.2778" stroke-miterlimit="10" d="M953.64-615.69
			c-3.83-1.5-7.38-3.5-10.57-5.93h-0.01c-25.13-19.2-27.56-66.26-14.43-105.83c11.84-35.7,33.31-58.49,56.24-57.1
			c26.88,25.1,29.81,76.94,12.06,118.6C986.71-641.96,971-624.25,953.64-615.69z M941.49-620.52l0.01,0.01
			c3.52,2.67,7.44,4.84,11.65,6.47l0.9,0.33l0.66-0.18c17.94-8.59,34.19-26.64,44.79-51.12c17.64-40.82,15.55-91.56-9.52-118.89
			c-1.14-1.24-2.31-2.41-3.53-3.53l-0.47-0.44l-0.62-0.05c-24.67-1.96-47.5,21.79-59.67,59.17
			C912.54-688.32,915.49-640.26,941.49-620.52z"/>
	</g>
	<g transform="matrix(.35278 0 0 -.35278 -27.016 213.17)">
		<path fill="#C97512" d="M1192.99-645.49c-0.64-10.7-7.2-19.01-14.65-18.56c-7.47,0.45-12.98,9.5-12.34,20.18
			c0.64,10.7,7.2,19.01,14.66,18.56C1188.11-625.77,1193.64-634.79,1192.99-645.49"/>
	</g>
	<g transform="matrix(.35278 0 0 -.35278 -27.336 212.56)">
		<path fill="#210101" d="M1184.32-628.96c-0.91,0.38-1.85,0.61-2.82,0.67c-3.21,0.2-6.38-1.46-8.89-4.65
			c-2.62-3.32-4.23-7.86-4.54-12.81c-0.51-8.45,2.96-15.95,8.42-18.26c0.92-0.38,1.87-0.61,2.82-0.67c3.21-0.18,6.36,1.47,8.89,4.66
			c2.62,3.31,4.23,7.86,4.52,12.81C1193.25-638.78,1189.79-631.26,1184.32-628.96 M1175.57-666.18
			c-6.35,2.69-10.39,11.15-9.84,20.57c0.33,5.43,2.1,10.43,5.02,14.12c3.01,3.82,6.88,5.79,10.88,5.55c1.24-0.07,2.46-0.36,3.6-0.86
			c6.36-2.68,10.4-11.14,9.85-20.57c-0.33-5.41-2.11-10.43-5.04-14.12c-3.01-3.81-6.86-5.78-10.87-5.53
			C1177.95-666.95,1176.73-666.67,1175.57-666.18"/>
	</g>
	<g transform="matrix(.35278 0 0 -.35278 -27.146 210.49)">
		<path fill="#C97512" d="M1189.47-572.86c2.33-10.46-1.68-20.26-8.98-21.88c-7.28-1.64-15.09,5.52-17.42,15.98
			c-2.34,10.47,1.69,20.25,8.97,21.89C1179.33-555.24,1187.13-562.42,1189.47-572.86"/>
	</g>
	<g transform="matrix(.35278 0 0 -.35278 -27.58 210)">
		<path fill="#210101" d="M1177.71-559.59c-1.43,0.37-2.83,0.41-4.19,0.11c-3.14-0.7-5.72-3.16-7.26-6.93
			c-1.61-3.92-1.9-8.71-0.81-13.54c1.68-7.55,6.44-13.56,11.83-15c1.43-0.36,2.83-0.4,4.18-0.09c3.16,0.69,5.73,3.14,7.27,6.92
			c1.61,3.92,1.9,8.72,0.82,13.55C1187.86-567.04,1183.1-561.02,1177.71-559.59 M1176.68-597.22c-6.23,1.65-11.66,8.36-13.52,16.73
			c-1.2,5.29-0.85,10.6,0.93,14.96c1.84,4.51,5.01,7.47,8.92,8.34c1.73,0.38,3.52,0.34,5.3-0.13c6.22-1.65,11.67-8.38,13.53-16.75
			c1.19-5.29,0.84-10.6-0.93-14.95c-1.85-4.51-5.02-7.46-8.93-8.34C1180.26-597.73,1178.46-597.69,1176.68-597.22"/>
	</g>
	<g transform="matrix(.35278 0 0 -.35278 -28.767 207.67)">
		<path fill="#C97512" d="M1145.55-496.45c5.28-6.04,6.56-13.55,2.86-16.79c-3.68-3.22-10.96-0.96-16.24,5.07
			c-5.28,6.04-6.57,13.55-2.87,16.78C1132.99-488.15,1140.27-490.42,1145.55-496.45"/>
	</g>
	<g transform="matrix(.35278 0 0 -.35278 -29.167 207.49)">
		<path fill="#210101" d="M1134.7-491.57c-1.42,0-2.62-0.4-3.5-1.18c-1.46-1.29-2.01-3.5-1.55-6.26c0.5-2.96,2.11-6.11,4.52-8.87
			c3.33-3.8,7.57-6.15,11.08-6.15c1.44,0,2.62,0.39,3.51,1.18c1.48,1.28,2.02,3.51,1.57,6.26c-0.52,2.95-2.13,6.1-4.53,8.87
			C1142.47-493.93,1138.21-491.57,1134.7-491.57 M1145.25-516.38c-4.18,0-9.09,2.66-12.85,6.96c-2.69,3.08-4.49,6.63-5.07,10.02
			c-0.62,3.59,0.2,6.58,2.31,8.42c1.32,1.14,3.08,1.76,5.05,1.76c4.19,0,9.1-2.66,12.86-6.96c2.7-3.07,4.49-6.63,5.06-10.01
			c0.63-3.59-0.2-6.58-2.31-8.42C1149-515.76,1147.25-516.38,1145.25-516.38"/>
	</g>
	<g transform="matrix(.35278 0 0 -.35278 -30.219 205.67)">
		<path fill="#C97512" d="M1106.2-442.26c5.28-6.02,6.57-13.54,2.86-16.78c-3.68-3.24-10.97-0.96-16.25,5.08
			c-5.27,6.04-6.56,13.55-2.86,16.77C1093.64-433.95,1100.92-436.23,1106.2-442.26"/>
	</g>
	<g transform="matrix(.35278 0 0 -.35278 -30.619 205.49)">
		<path fill="#210101" d="M1095.36-437.38c-1.44,0-2.62-0.4-3.5-1.18c-1.48-1.28-2.02-3.5-1.56-6.25c0.51-2.96,2.11-6.11,4.53-8.87
			c3.32-3.8,7.57-6.15,11.09-6.15c1.42,0,2.61,0.4,3.51,1.18c1.46,1.27,2.01,3.51,1.55,6.25c-0.51,2.95-2.12,6.11-4.52,8.87
			C1103.12-439.73,1098.88-437.38,1095.36-437.38 M1105.91-462.18c-4.19,0-9.11,2.66-12.85,6.95c-2.7,3.08-4.5,6.63-5.07,10.01
			c-0.61,3.59,0.21,6.58,2.31,8.43c1.32,1.16,3.08,1.77,5.06,1.77c4.18,0,9.1-2.66,12.85-6.96c2.69-3.08,4.5-6.63,5.06-10
			c0.63-3.61-0.2-6.58-2.31-8.43C1109.65-461.57,1107.89-462.18,1105.91-462.18"/>
	</g>
	<g transform="matrix(.35278 0 0 -.35278 -29.082 209.68)">
		<path fill="#C97512" d="M1137.01-550.91c5.28-6.03,6.57-13.55,2.87-16.78c-3.69-3.25-10.96-0.97-16.24,5.07
			c-5.28,6.04-6.57,13.55-2.88,16.77C1124.46-542.6,1131.73-544.9,1137.01-550.91"/>
	</g>
	<g transform="matrix(.35278 0 0 -.35278 -29.481 209.5)">
		<path fill="#210101" d="M1126.2-546.04c-1.42,0-2.62-0.4-3.51-1.17c-1.47-1.28-2.02-3.5-1.56-6.26c0.51-2.95,2.11-6.11,4.52-8.87
			c3.32-3.78,7.57-6.15,11.09-6.15c1.43,0,2.62,0.4,3.51,1.18c1.46,1.28,2.02,3.51,1.55,6.26c-0.51,2.95-2.1,6.1-4.52,8.86
			C1133.97-548.39,1129.71-546.04,1126.2-546.04 M1136.74-570.84c-4.18,0-9.1,2.66-12.85,6.96c-2.69,3.08-4.49,6.63-5.07,10
			c-0.62,3.61,0.21,6.58,2.31,8.44c1.32,1.15,3.07,1.76,5.06,1.76c4.18,0,9.1-2.66,12.85-6.96c2.7-3.07,4.5-6.63,5.07-10.01
			c0.62-3.59-0.2-6.58-2.32-8.43C1140.49-570.23,1138.75-570.84,1136.74-570.84"/>
	</g>
	<g transform="matrix(.35278 0 0 -.35278 -29.381 212.05)">
		<path fill="#C97512" d="M1128.9-615.14c5.28-6.04,6.56-13.55,2.87-16.79c-3.7-3.23-10.97-0.96-16.25,5.08
			c-5.28,6.03-6.56,13.55-2.87,16.78C1116.35-606.84,1123.62-609.11,1128.9-615.14"/>
	</g>
	<g transform="matrix(.35278 0 0 -.35278 -29.781 211.87)">
		<path fill="#210101" d="M1118.06-610.26c-1.42,0-2.61-0.39-3.52-1.17c-1.45-1.28-2-3.51-1.53-6.26c0.5-2.95,2.1-6.1,4.53-8.86
			c3.31-3.8,7.56-6.15,11.08-6.15c1.43,0,2.61,0.39,3.52,1.18c1.48,1.27,2.01,3.5,1.55,6.26c-0.49,2.96-2.11,6.11-4.54,8.86
			C1125.83-612.62,1121.58-610.26,1118.06-610.26 M1128.61-635.06c-4.17,0-9.11,2.66-12.85,6.94c-2.69,3.08-4.5,6.63-5.09,10.02
			c-0.6,3.59,0.22,6.58,2.33,8.41c1.32,1.15,3.08,1.76,5.05,1.76c4.19,0,9.11-2.66,12.85-6.96c2.7-3.08,4.51-6.62,5.07-10
			c0.61-3.59-0.22-6.58-2.31-8.43C1132.36-634.45,1130.6-635.06,1128.61-635.06"/>
	</g>
	<g transform="matrix(.35278 0 0 -.35278 -28.451 214.89)">
		<path fill="#C97512" d="M1154.11-692.1c-2.49-7.63-8.31-12.56-12.98-11.02c-4.65,1.51-6.41,8.94-3.92,16.55
			c2.51,7.63,8.3,12.56,12.97,11.02C1154.84-677.05,1156.59-684.48,1154.11-692.1"/>
	</g>
	<g transform="matrix(.35278 0 0 -.35278 -28.501 214.46)">
		<path fill="#210101" d="M1152.75-680.45c-0.73,1.22-1.67,2.04-2.81,2.41c-1.84,0.6-4.03-0.05-6.17-1.87
			c-2.28-1.94-4.17-4.93-5.31-8.4c-1.57-4.79-1.42-9.64,0.37-12.67c0.73-1.24,1.67-2.04,2.8-2.42c1.86-0.61,4.05,0.05,6.17,1.86
			c2.3,1.95,4.18,4.94,5.31,8.41C1154.7-688.33,1154.55-683.48,1152.75-680.45 M1136.8-702.17c-2.11,3.59-2.34,9.19-0.58,14.59
			c1.28,3.89,3.42,7.26,6.03,9.48c2.77,2.36,5.76,3.16,8.42,2.29c1.66-0.52,3.07-1.72,4.08-3.43c2.15-3.6,2.37-9.19,0.6-14.6
			c-1.28-3.88-3.41-7.25-6.03-9.46c-2.77-2.36-5.76-3.18-8.42-2.31C1139.25-705.09,1137.82-703.89,1136.8-702.17"/>
	</g>
	<g transform="matrix(.35278 0 0 -.35278 -30.831 209.83)">
		<path fill="#C97512" d="M1089.61-554.98c5.28-6.03,6.57-13.54,2.87-16.79c-3.68-3.23-10.97-0.96-16.25,5.09
			c-5.28,6.02-6.56,13.54-2.86,16.77C1077.06-546.68,1084.33-548.95,1089.61-554.98"/>
	</g>
	<g transform="matrix(.35278 0 0 -.35278 -31.231 209.65)">
		<path fill="#210101" d="M1078.77-550.1c-1.42,0-2.61-0.39-3.5-1.18c-1.46-1.29-2.01-3.5-1.55-6.25c0.51-2.96,2.13-6.11,4.53-8.87
			c3.32-3.79,7.57-6.15,11.09-6.15c1.43,0,2.61,0.39,3.5,1.17c1.48,1.29,2.02,3.5,1.56,6.27c-0.51,2.94-2.11,6.11-4.53,8.87
			C1086.54-552.46,1082.3-550.1,1078.77-550.1 M1089.33-574.91c-4.17,0-9.09,2.68-12.86,6.96c-2.69,3.08-4.5,6.63-5.06,10.02
			c-0.62,3.59,0.2,6.58,2.31,8.43c1.32,1.15,3.08,1.76,5.05,1.76c4.19,0,9.1-2.67,12.86-6.96c2.7-3.09,4.5-6.63,5.07-10.02
			c0.61-3.6-0.21-6.58-2.32-8.43C1093.07-574.3,1091.32-574.91,1089.33-574.91"/>
	</g>
	<g transform="matrix(.35278 0 0 -.35278 -31.1 207.61)">
		<path fill="#C97512" d="M1082.33-494.83c6.89-7.89,9.24-17.12,5.21-20.62c-4-3.52-12.85,0.03-19.74,7.92
			c-6.9,7.89-9.23,17.12-5.21,20.62C1066.59-483.39,1075.43-486.95,1082.33-494.83"/>
	</g>
	<g transform="matrix(.35278 0 0 -.35278 -31.626 207.34)">
		<path fill="#210101" d="M1068.07-487.51c-1.35,0-2.44-0.35-3.26-1.06c-1.56-1.36-1.97-4.11-1.12-7.5
			c0.95-3.72,3.23-7.79,6.45-11.46c4.71-5.39,10.54-8.89,14.84-8.89c1.34,0,2.44,0.36,3.26,1.07c1.56,1.37,1.97,4.11,1.12,7.5
			c-0.94,3.73-3.24,7.8-6.46,11.47C1078.19-490.99,1072.37-487.51,1068.07-487.51 M1084.98-518.76c-4.95,0-11.47,3.8-16.61,9.68
			c-3.44,3.95-5.91,8.37-6.94,12.43c-1.1,4.35-0.45,7.85,1.85,9.85c1.25,1.09,2.86,1.64,4.79,1.64c4.94,0,11.46-3.8,16.61-9.67
			c3.44-3.95,5.92-8.37,6.94-12.44c1.1-4.35,0.44-7.85-1.85-9.84C1088.53-518.21,1086.92-518.76,1084.98-518.76"/>
	</g>
	<g transform="matrix(.35278 0 0 -.35278 -43.51 188.32)">
		<path fill="#B7B6B6" d="M746.03,27.9c-4.42-38.28,17.09-72.19,48.06-75.77c30.96-3.59,59.65,24.53,64.07,62.8
			c4.42,38.27-17.09,72.21-48.05,75.78C779.15,94.3,750.46,66.18,746.03,27.9"/>
		<path fill="#FFFFFF" d="M746.03,27.9c-5.13-44.38,104.75-59.89,112.12-12.97c5.99,38.08-17.08,72.21-48.05,75.78
			C779.15,94.3,750.46,66.18,746.03,27.9"/>
	</g>
	<g transform="matrix(.35278 0 0 -.35278 -43.446 188.33)">
		<path fill="#210101" d="M747.77,27.63c-4.33-37.38,16.46-70.6,46.29-74.03c29.86-3.45,57.67,24.13,61.99,61.5
			c4.33,37.38-16.45,70.61-46.3,74.06C779.89,92.61,752.09,65.02,747.77,27.63 M743.92,28.08c4.52,39.05,34.21,67.81,66.18,64.12
			c31.96-3.7,54.3-38.49,49.79-77.54c-4.51-39.03-34.2-67.8-66.17-64.1C761.75-45.75,739.4-10.97,743.92,28.08"/>
	</g>
	<g transform="matrix(.35278 0 0 -.35278 -43.406 188.33)">
		<path fill="#210101" d="M748.85,27.63C746.8,9.83,750.41-7.56,759-21.33c8.56-13.69,21.02-22.12,35.08-23.74
			c1.65-0.2,3.3-0.29,4.92-0.29c27.28-0.01,51.72,26.1,55.73,60.74c2.06,17.81-1.56,35.19-10.16,48.96
			c-8.56,13.69-21.02,22.12-35.08,23.75C780.3,91.46,753.1,64.35,748.85,27.63 M799-47.78c-1.72,0-3.45,0.12-5.19,0.3
			c-14.81,1.71-27.9,10.55-36.83,24.87c-8.92,14.22-12.65,32.17-10.52,50.52c4.39,38.03,32.78,66.11,63.32,62.59
			c14.8-1.71,27.9-10.54,36.86-24.86c8.9-14.24,12.63-32.19,10.5-50.53C852.99-20.76,827.49-47.78,799-47.78 M745,28.08
			c-4.44-38.38,17.43-72.57,48.74-76.18c1.8-0.22,3.63-0.32,5.41-0.32c29.19-0.01,55.24,27.21,59.43,63.36
			c2.15,18.62-1.76,36.81-11.03,51.23c-9.21,14.34-22.6,23.2-37.7,24.96c-15.09,1.73-30.16-3.83-42.41-15.7
			C755.12,63.5,747.16,46.68,745,28.08 M799.15-50.83c-1.9,0-3.78,0.11-5.68,0.32c-32.65,3.78-55.45,39.15-50.86,78.87
			c2.22,19.16,10.44,36.5,23.15,48.82c12.78,12.37,28.53,18.18,44.36,16.35c15.82-1.83,29.84-11.09,39.46-26.06
			c9.57-14.88,13.61-33.64,11.39-52.81C856.64-22.73,829.55-50.83,799.15-50.83"/>
	</g>
	<g transform="matrix(.35278 0 0 -.35278 -42.918 188.75)">
		<path fill="#00D86C" d="M762.08,16.25C759.45-6.47,772-26.6,790.14-28.69c18.12-2.09,34.94,14.62,37.57,37.35
			c2.63,22.72-9.94,42.85-28.06,44.95C781.53,55.7,764.71,38.97,762.08,16.25"/>
	</g>
	<g transform="matrix(.35278 0 0 -.35278 -42.854 188.76)">
		<path fill="#210101" d="M763.8,15.98c-2.52-21.84,9.29-41.23,26.32-43.2c17.04-1.97,32.95,14.21,35.47,36.06
			c2.53,21.84-9.27,41.22-26.31,43.2C782.25,54,766.34,37.82,763.8,15.98 M759.97,16.44c2.72,23.52,20.51,40.86,39.67,38.64
			c19.15-2.21,32.52-23.15,29.8-46.69c-2.71-23.52-20.52-40.86-39.67-38.64C770.61-28.03,757.25-7.11,759.97,16.44"/>
	</g>
	<g transform="matrix(.35278 0 0 -.35278 -42.636 188.83)">
		<path fill="#210101" d="M769.71,14.09c-1.57-13.64,6.18-25.75,17.34-27.04c11.14-1.29,21.45,8.73,23.03,22.37
			c1.59,13.63-6.18,25.73-17.31,27.02C781.6,37.72,771.29,27.72,769.71,14.09"/>
	</g>
	<g transform="matrix(.35278 0 0 -.35278 -42.043 188.2)">
		<path fill="#FFFFFF" d="M785.79,31.15c-0.66-5.7,3.68-10.88,9.71-11.57c6-0.7,11.42,3.36,12.07,9.04
			c0.66,5.7-3.68,10.89-9.69,11.58C791.85,40.9,786.44,36.85,785.79,31.15"/>
	</g>
	<g transform="matrix(.35278 0 0 -.35278 -45.319 188.2)">
		<path fill="#B7B6B6" d="M697.01,31.15c-11.15-37.32-39.85-59.4-62.57-50.85c-20.99,7.9-29.89,39.65-21.17,72.11
			c8.92,33.17,33.85,58.25,57.15,55.13C695.73,104.17,708.45,69.43,697.01,31.15"/>
		<path fill="#FFFFFF" d="M697.01,31.15c-12.9-43.17-93.27-19.03-83.75,21.26c7.88,33.34,33.85,58.25,57.15,55.13
			C695.73,104.17,708.45,69.43,697.01,31.15"/>
	</g>
	<g transform="matrix(.35278 0 0 -.35278 -46.221 185.69)">
		<path fill="#210101" d="M672.57,99.17c-22.46,3.06-46.75-21.56-55.49-54c-8.55-31.77,0.03-62.89,20.31-70.45
			c21.9-8.19,49.69,13.58,60.54,49.94C709.04,61.92,696.92,95.84,672.57,99.17 M636.62-27.96c-21.6,8.19-30.89,40.72-22.03,73.75
			c9.08,33.77,34.74,59.44,58.8,56.29c26.22-3.45,39.6-39.12,27.85-78.27C689.82-14.34,660.1-36.84,636.62-27.96"/>
	</g>
	<g transform="matrix(.35278 0 0 -.35278 -46.35 185.73)">
		<path fill="#210101" d="M669.08,98.09c-20.52,0-42.15-22.5-50.47-53.37c-8.47-31.44,0.13-61.75,19.57-69.01
			c7.4-2.78,15.74-2.03,24.11,2.13c15.31,7.63,28.35,25.2,34.87,47.01c6.64,22.29,5.04,44.99-4.16,59.26
			c-5.06,7.86-12.06,12.61-20.21,13.72C671.54,98.01,670.31,98.09,669.08,98.09 M647.36-28.36c-3.44,0-6.82,0.61-10.02,1.79
			c-20.6,7.7-29.84,39.29-21.06,71.91c9.12,33.89,34.09,58,56.83,54.89c8.87-1.21,16.44-6.33,21.91-14.82
			c9.73-15.06,11.39-37.97,4.44-61.24c-6.7-22.45-20.19-40.58-36.09-48.49C657.98-27.01,652.57-28.36,647.36-28.36 M637.43-26.96
			c8.14-3.08,17.3-2.33,26.46,2.21c16.15,7.97,29.82,26.2,36.58,48.76c7.01,23.43,5.31,46.52-4.57,61.77
			c-5.58,8.6-13.27,13.79-22.29,14.96c-23.07,3.05-48.31-21.3-57.47-55.4C607.36,12.65,616.72-19.12,637.43-26.96 M647.7-31.24
			c-3.83,0-7.57,0.66-11.13,2.01c-21.86,8.3-31.86,41.32-22.77,75.2c9.47,35.25,35.86,60.36,60.12,57.18
			c9.74-1.29,18.03-6.83,24-16.04c10.27-15.85,12.07-39.68,4.86-63.77c-6.94-23.2-21.09-42-37.83-50.25
			C659.15-29.8,653.31-31.24,647.7-31.24"/>
	</g>
	<g transform="matrix(.35278 0 0 -.35278 -45.954 188.41)">
		<path fill="#00D86C" d="M679.8,25.47c-6.32-21.56-22.73-34.91-36.13-30.28c-12.78,4.41-18.34,23.76-12.86,43.63
			c5.54,20.14,20.66,34.54,34.28,31.8C679.37,67.76,686.22,47.34,679.8,25.47"/>
	</g>
	<g transform="matrix(.35278 0 0 -.35278 -46.459 186.95)">
		<path fill="#210101" d="M666.12,65.03c-12.79,2.61-27.2-11.34-32.55-30.74c-5.28-19.17-0.11-37.78,11.93-41.92
			c12.59-4.31,28.12,8.64,34.18,29.34C685.82,42.7,679.51,62.3,666.12,65.03 M644.73-10.34C631.25-5.65,625.3,14.49,630.93,35
			c5.72,20.8,21.61,35.73,36,32.88c15.15-3,22.54-24.3,15.88-47.02C676.23-1.52,658.89-15.27,644.73-10.34"/>
	</g>
	<g transform="matrix(.35278 0 0 -.35278 -46.198 188.39)">
		<path fill="#210101" d="M673.19,26.01c-3.73-12.83-13.67-20.93-22.03-18.27c-8.12,2.58-11.78,14.43-8.35,26.62
			c3.43,12.29,12.88,20.79,21.3,18.84C672.8,51.18,676.95,38.94,673.19,26.01"/>
	</g>
	<g transform="matrix(.35278 0 0 -.35278 -46.414 187.64)">
		<path fill="#FFFFFF" d="M667.34,46.33c-1.54-5.33-6.49-8.69-11-7.52c-4.46,1.13-6.85,6.24-5.38,11.44
			c1.45,5.2,6.26,8.62,10.78,7.63C666.34,56.87,668.86,51.68,667.34,46.33"/>
	</g>
	<g transform="matrix(.35278 0 0 -.35278 -47.721 190.39)">
		<path fill="#E0B886" d="M631.92-28.19c-47.54-11.27-100.18-31.13-92.73-100.18c7.44-69.06,100.87-78.54,100.87-78.54
			c-21-26.41-18.51-60.43-2.72-79.21c21.68-25.71,96.82-29.78,130.66,40.62c44.68,50.77,69.62,42.49,85.28,100.87
			c12.2,45.37-53.87,60.77-84.61,64.31C733.48-76.26,711.81-9.25,631.92-28.19"/>
	</g>
	<g transform="matrix(.35278 0 0 -.35278 -43.152 192.13)">
		<path fill="#F9E6CD" d="M755.73-75.34c-35.19,4.06-56.86,71.06-136.74,52.13c-47.54-11.28-100.18-31.15-92.74-100.2
			c0.12-1.18,0.34-2.3,0.5-3.44c20.03-47.88,85-67.08,137.58-56.12c48.75,8.12,97.48,13.54,132.69,48.74
			c-30.33-60.66-108.88-99.16-178.55-86.15c-7.66-18.1-8.97-47.89,23.93-55.34c21.93-4.95,45.01-7.07,66.07,2.51
			c13.8,6.27,25.12,16.77,34.11,28.82c7.91,10.63,13.85,22.58,21.89,33.1c9.36,12.22,22.28,17.79,34.39,26.41
			c14.64,10.43,23.35,25.4,27.93,42.49C839.01-97.04,786.47-78.89,755.73-75.34"/>
	</g>
	<g transform="matrix(.35278 0 0 -.35278 -46.817 190.32)">
		<path fill="#210101" d="M656.42-26.29c-8.42,0-17.42-1.12-26.74-3.33c-51.83-12.3-98.82-32.78-91.71-98.73
			c7.24-67.18,96.93-77.22,97.85-77.3l3.52-1.36l-0.78-0.86c-21.45-26.99-17.42-60.07-2.74-77.48
			c8.63-10.25,25.67-16.61,44.48-16.61c35.4,0,66.77,21.27,83.92,56.94l0.2,0.31c16.75,19.01,31,30.01,42.46,38.85
			c19.77,15.24,32.84,25.31,42.55,61.47c2.86,10.63,1.42,20.27-4.29,28.68c-13.48,19.84-49.74,30.56-79.18,33.94
			c-12.87,1.49-23.68,10.85-36.2,21.7C711.46-44.25,690.73-26.29,656.42-26.29 M680.29-304.67h-0.01
			c-19.57,0-37.41,6.72-46.53,17.57c-15.04,17.84-19.47,51.28,1.23,79.03c-14.72,2.11-92.9,16.31-99.71,79.44
			c-7.35,68.22,43.28,89.66,93.78,101.65c9.53,2.25,18.74,3.41,27.37,3.41c35.31,0,57.39-19.13,75.13-34.48
			c12.18-10.54,22.7-19.63,34.72-21.04c14.58-1.67,63.5-9.17,81.11-35.1c6.17-9.09,7.75-19.49,4.67-30.92
			c-9.95-37.06-24.04-47.89-43.52-62.92c-11.92-9.21-25.44-19.61-41.95-38.35C748.95-282.89,716.7-304.67,680.29-304.67"/>
		<path fill="none" stroke="#210101" stroke-width="1.2778" stroke-miterlimit="10" d="M656.42-26.29c-8.42,0-17.42-1.12-26.74-3.33
			c-51.83-12.3-98.82-32.78-91.71-98.73c7.24-67.18,96.93-77.22,97.85-77.3l3.52-1.36l-0.78-0.86
			c-21.45-26.99-17.42-60.07-2.74-77.48c8.63-10.25,25.67-16.61,44.48-16.61c35.4,0,66.77,21.27,83.92,56.94l0.2,0.31
			c16.75,19.01,31,30.01,42.46,38.85c19.77,15.24,32.84,25.31,42.55,61.47c2.86,10.63,1.42,20.27-4.29,28.68
			c-13.48,19.84-49.74,30.56-79.18,33.94c-12.87,1.49-23.68,10.85-36.2,21.7C711.46-44.25,690.73-26.29,656.42-26.29z
			 M680.29-304.67h-0.01c-19.57,0-37.41,6.72-46.53,17.57c-15.04,17.84-19.47,51.28,1.23,79.03c-14.72,2.11-92.9,16.31-99.71,79.44
			c-7.35,68.22,43.28,89.66,93.78,101.65c9.53,2.25,18.74,3.41,27.37,3.41c35.31,0,57.39-19.13,75.13-34.48
			c12.18-10.54,22.7-19.63,34.72-21.04c14.58-1.67,63.5-9.17,81.11-35.1c6.17-9.09,7.75-19.49,4.67-30.92
			c-9.95-37.06-24.04-47.89-43.52-62.92c-11.92-9.21-25.44-19.61-41.95-38.35C748.95-282.89,716.7-304.67,680.29-304.67z"/>
	</g>
	<g transform="matrix(.35278 0 0 -.35278 -48.527 192.48)">
		<path fill="#210101" d="M610.09-84.82l1.78-2.03c-26.05-23.01-14.87-55.52-14.77-55.84C597.1-142.69,582.62-109.07,610.09-84.82"
			/>
		<path fill="none" stroke="#210101" stroke-width="1.2778" stroke-miterlimit="10" d="M610.09-84.82l1.78-2.03
			c-26.05-23.01-14.87-55.52-14.77-55.84C597.1-142.69,582.62-109.07,610.09-84.82z"/>
	</g>
	<g transform="matrix(.35278 0 0 -.35278 -43.642 195.73)">
		<path fill="#8D0000" d="M742.45-172.9c-0.09-0.31-0.19-0.62-0.28-0.93c-2.33-7.39-5.56-15.53-9.91-23.8
			c-2.18-4.14-4.62-8.29-7.39-12.42v-0.01c-0.49-0.75-1.01-1.51-1.54-2.25c-0.5-0.72-1.01-1.44-1.53-2.16
			c-0.04-0.06-0.09-0.12-0.13-0.19c-0.53-0.71-1.06-1.44-1.61-2.16c-0.19-0.26-0.4-0.53-0.6-0.78c-0.39-0.51-0.79-1.02-1.21-1.53
			c-0.47-0.62-0.98-1.24-1.49-1.85c-1.6-1.94-3.28-3.84-5.03-5.72c-0.56-0.61-1.13-1.21-1.71-1.81c-0.45-0.45-0.9-0.92-1.35-1.37
			c-0.3-0.29-0.59-0.58-0.89-0.86c-0.53-0.51-1.05-1.03-1.6-1.54c-0.6-0.56-1.19-1.1-1.79-1.65
			c-15.26-13.79-32.75-16.87-46.23-13.48c-0.25,0.07-0.5,0.13-0.73,0.2c-0.95,0.27-1.87,0.55-2.76,0.87
			c-0.84,0.3-1.65,0.62-2.44,0.97c-0.19,0.09-0.39,0.16-0.57,0.26c-2.2,1-4.23,2.2-6.03,3.58c-0.22,0.16-0.44,0.32-0.64,0.5
			c-0.22,0.17-0.42,0.33-0.63,0.51c-0.2,0.16-0.4,0.34-0.6,0.53c-0.45,0.38-0.89,0.79-1.31,1.23c-0.1,0.11-0.24,0.24-0.34,0.36
			c-0.03,0.02-0.04,0.04-0.05,0.06c-0.54,0.57-1.05,1.16-1.52,1.77c-0.17,0.2-0.33,0.4-0.47,0.62c-0.14,0.2-0.3,0.41-0.45,0.62
			c-0.14,0.22-0.29,0.42-0.42,0.64c-0.55,0.87-1.03,1.75-1.46,2.65c-0.41,0.9-0.82,1.84-1.2,2.81c-0.2,0.51-0.4,1.05-0.6,1.6
			c-0.06,0.15-0.11,0.3-0.17,0.45c-0.31,0.87-0.62,1.77-0.91,2.68c-0.28,0.84-0.53,1.71-0.79,2.59c-0.01,0.02-0.01,0.04-0.02,0.07
			c-0.14,0.43-0.27,0.86-0.38,1.29c-0.97,3.41-1.84,7.01-2.7,10.65c-0.18,0.77-0.35,1.54-0.54,2.32c-0.29,1.27-0.59,2.54-0.87,3.8
			c-0.08,0.28-0.14,0.56-0.2,0.84c-0.05,0.22-0.1,0.43-0.15,0.64c-0.02,0.07-0.03,0.16-0.05,0.21c-0.11,0.5-0.24,1-0.35,1.49
			l-0.4,1.67c-0.52,2.11-1.04,4.2-1.61,6.23c-0.23,0.86-0.47,1.69-0.7,2.52c0.4-0.09,0.78-0.2,1.17-0.29
			c1.48-0.36,2.97-0.68,4.43-0.99l0.04,0.05l0.77-0.2c0.01,0,0.04-0.02,0.05-0.03c4.99-1,9.89-1.71,14.67-2.2
			c39.71-3.97,72.08,9.17,92.16,20.79c0.44,0.26,0.9,0.53,1.34,0.79C741.4-172.49,741.98-172.69,742.45-172.9"/>
	</g>
	<g transform="matrix(.35278 0 0 -.35278 -46.877 198.02)">
		<path fill="#B50000" d="M654.79-234.95c-0.22,0.16-0.43,0.32-0.64,0.5c-0.22,0.16-0.41,0.33-0.63,0.5
			c-0.2,0.17-0.4,0.34-0.59,0.51c-0.45,0.41-0.89,0.82-1.29,1.24c-0.12,0.11-0.25,0.25-0.37,0.36c-0.02,0.02-0.03,0.04-0.04,0.06
			c-0.54,0.56-1.05,1.16-1.53,1.76c-0.17,0.2-0.32,0.4-0.47,0.62c-0.14,0.2-0.29,0.4-0.43,0.62c-0.15,0.2-0.29,0.42-0.43,0.64
			c-0.55,0.85-1.03,1.74-1.45,2.64c-0.43,0.9-0.83,1.84-1.2,2.81c-0.21,0.51-0.42,1.05-0.61,1.59c-0.05,0.17-0.1,0.31-0.16,0.46
			c-0.31,0.88-0.62,1.77-0.91,2.69c-0.27,0.83-0.53,1.7-0.78,2.57c-0.01,0.02-0.02,0.05-0.02,0.08c-0.14,0.43-0.27,0.86-0.39,1.29
			c-0.96,3.41-1.85,7-2.69,10.65c-0.19,0.78-0.36,1.55-0.54,2.32c-0.3,1.27-0.59,2.54-0.88,3.8c-0.07,0.28-0.13,0.56-0.19,0.84
			c-0.04,0.22-0.09,0.43-0.16,0.64c-0.01,0.07-0.03,0.16-0.04,0.2c-0.12,0.52-0.25,1.01-0.36,1.51l-0.39,1.67
			c-0.51,2.11-1.05,4.2-1.61,6.23c-0.23,0.86-0.47,1.69-0.7,2.52c0.39-0.1,0.77-0.19,1.15-0.29c1.49-0.36,2.97-0.69,4.45-0.99
			l0.03,0.05l0.78-0.22c0.02,0,0.04-0.01,0.06-0.02c4.99-1,9.88-1.72,14.66-2.2c-0.06-0.12-0.13-0.25-0.19-0.38
			c-0.17-0.35-0.35-0.71-0.53-1.07c-0.11-0.25-0.22-0.47-0.34-0.71c-0.05-0.12-0.11-0.26-0.17-0.37c-0.38-0.86-0.76-1.72-1.12-2.6
			c-0.12-0.3-0.24-0.6-0.35-0.9l-0.01-0.01c-0.05-0.13-0.1-0.25-0.15-0.37c-0.06-0.18-0.11-0.34-0.17-0.51
			c-1.13-3.05-1.95-6.1-2.53-9.11c-0.09-0.55-0.19-1.08-0.28-1.63c-0.01-0.06-0.02-0.12-0.02-0.2c-0.02-0.01-0.02-0.04-0.02-0.06
			c-0.09-0.57-0.15-1.12-0.22-1.69c-0.46-3.7-0.53-7.34-0.22-10.87c0.44-5.31,1.71-10.37,3.68-14.95c0.02-0.06,0.05-0.12,0.07-0.18
			C654.14-233.59,654.45-234.29,654.79-234.95"/>
	</g>
	<g transform="matrix(.35278 0 0 -.35278 -44.914 197.77)">
		<path fill="#E23C34" d="M707.99-228.17c11.89,10.75,20.79,23.12,27.31,35.26c-11.36,3.08-31.82,6.45-50.23-2.09
			c-17.07,7.55-36.62-1.96-47.41-21.12c1.08-3.67,2.27-7.14,3.68-10.19C649.59-244.12,682.01-251.64,707.99-228.17"/>
	</g>
	<g transform="matrix(.35278 0 0 -.35278 -45.775 197.93)">
		<path fill="#FF5545" d="M684.66-232.51c21.7,4.8,36.1,20.11,42.65,42.18c-11.36,1.79-26.14,2.02-39.78-4.33
			c-15.48,6.86-32.99-0.36-44.16-16.06C649.43-228.56,667.13-235.48,684.66-232.51"/>
	</g>
	<g transform="matrix(.35278 0 0 -.35278 -44.25 196.94)">
		<path fill="#B50202" d="M725.98-205.68c-0.27-0.43-0.57-0.87-0.87-1.28c-0.33-0.51-0.68-1.02-1.04-1.53
			c-0.25-0.34-0.48-0.68-0.73-1.02c-0.19-0.28-0.39-0.55-0.59-0.83l-0.34-0.46c-0.42-0.6-0.87-1.19-1.32-1.77
			c-0.26-0.35-0.51-0.68-0.79-1.02c-0.25-0.34-0.51-0.68-0.78-1.02l-0.83-1.02c-0.24-0.3-0.48-0.62-0.74-0.92
			c-0.32-0.37-0.62-0.75-0.94-1.12c-0.28-0.34-0.56-0.68-0.87-1.01c-1.05-1.24-2.15-2.44-3.27-3.65c-0.55-0.59-1.1-1.17-1.66-1.75
			c-0.63-0.64-1.24-1.26-1.85-1.87c-0.63-0.63-1.25-1.23-1.9-1.82c-0.63-0.6-1.28-1.2-1.93-1.78c-11.27-10.2-24.83-15.3-38.15-14.34
			c-1.21,0.07-2.38,0.2-3.54,0.39l-0.78,0.12l-0.01,0.01c-1.02,0.18-2.02,0.39-3,0.65c-0.96,0.24-1.89,0.51-2.8,0.81
			c-0.21,0.09-0.44,0.16-0.65,0.25c-3.83,1.37-7.23,3.29-10.01,5.7c-0.08,0.06-0.17,0.14-0.25,0.21c-2.56,2.25-4.58,4.89-5.93,7.83
			c-0.17,0.33-0.31,0.67-0.45,1.01c-0.14,0.29-0.26,0.59-0.38,0.87c-0.2,0.47-0.38,0.94-0.56,1.41c-0.13,0.32-0.26,0.67-0.38,1.02
			c-0.45,1.24-0.89,2.53-1.3,3.85c-0.16,0.46-0.28,0.93-0.43,1.41c0.81,1.38,1.65,2.72,2.54,4c1.07,1.56,2.23,3.05,3.43,4.43
			c0.54,0.63,1.08,1.24,1.64,1.82c3.92,4.11,8.34,7.3,13.02,9.41c0.45,0.21,0.88,0.4,1.32,0.57c0.44,0.17,0.9,0.35,1.34,0.52
			c2.68,0.96,5.42,1.56,8.19,1.78c1.23,0.09,2.46,0.14,3.7,0.07c0.28-0.01,0.58-0.02,0.87-0.04c0.73-0.05,1.46-0.13,2.18-0.24
			c2.29-0.34,4.54-0.96,6.72-1.84c0.3-0.12,0.58-0.25,0.88-0.37l0.37-0.17l0.4,0.19c1.6,0.74,3.26,1.42,4.96,2.01
			c1.68,0.58,3.41,1.09,5.19,1.52c1.33,0.33,2.7,0.61,4.09,0.85c0.02-0.01,0.04,0,0.04,0c1.75,0.29,3.53,0.54,5.35,0.69
			c2.69,0.24,5.45,0.31,8.26,0.23c0.45-0.01,0.91-0.01,1.37-0.04c0.44-0.02,0.91-0.03,1.35-0.07c0.34-0.01,0.67-0.04,1.01-0.07
			c2.47-0.17,4.98-0.45,7.52-0.87c3.06-0.47,6.16-1.1,9.24-1.89l0.01-0.01c-0.2-0.34-0.39-0.69-0.59-1.03
			c-0.81-1.47-1.67-2.94-2.59-4.43c-0.33-0.56-0.68-1.11-1.03-1.66c-0.28-0.47-0.58-0.92-0.88-1.37
			C726.55-204.83,726.27-205.25,725.98-205.68 M734.96-194.37L734-194.1l-0.22,0.05c-0.27,0.06-0.53,0.14-0.78,0.21
			c-5.61,1.48-11.23,2.44-16.74,2.89c-0.26,0.01-0.51,0.04-0.78,0.05c-0.19,0.01-0.36,0.03-0.56,0.04
			c-0.45,0.04-0.92,0.07-1.36,0.07c-7.77,0.38-15.01-0.34-21.66-2.15c-1.07-0.29-2.12-0.62-3.16-0.95c0,0,0-0.01-0.01,0
			c-0.28-0.1-0.53-0.18-0.79-0.29c-0.66-0.23-1.32-0.46-1.97-0.73c-0.91-0.34-1.8-0.72-2.68-1.12c-0.65,0.28-1.33,0.55-1.99,0.78
			c-0.71,0.25-1.42,0.47-2.16,0.65c0,0.01-0.01,0.02-0.02,0.02c-0.79,0.22-1.6,0.39-2.41,0.55c-1.12,0.21-2.26,0.36-3.4,0.45
			c-5.56,0.38-11.13-0.7-16.38-3.09c-0.44-0.19-0.89-0.41-1.33-0.62c-0.01,0-0.01-0.01-0.01-0.01c-0.43-0.22-0.86-0.43-1.29-0.68
			c-3.87-2.1-7.55-4.93-10.87-8.37c-0.48-0.48-0.94-0.99-1.41-1.51c-2.11-2.39-4.09-5.05-5.87-7.93c-0.26-0.41-0.51-0.82-0.75-1.25
			c-0.14-0.27-0.3-0.53-0.45-0.79l-0.26-0.48l0.14-0.47c0.12-0.45,0.27-0.9,0.39-1.32c0.02-0.07,0.03-0.15,0.06-0.21
			c0.46-1.49,0.92-2.87,1.39-4.16c0.11-0.31,0.22-0.6,0.33-0.88c0.48-1.31,1.01-2.57,1.58-3.77c0.86-1.87,1.97-3.62,3.29-5.22
			c2.26-2.77,5.15-5.13,8.51-7.01c0.18-0.09,0.35-0.2,0.53-0.29c0.69-0.37,1.41-0.73,2.15-1.05c0.78-0.36,1.6-0.69,2.43-1.01
			c0.21-0.06,0.41-0.15,0.61-0.22c3.38-1.18,7.05-1.95,10.91-2.21c13.87-0.98,27.98,4.31,39.7,14.91c0.47,0.43,0.94,0.86,1.4,1.29
			c0.25,0.24,0.51,0.49,0.76,0.73c0.17,0.14,0.31,0.29,0.44,0.43c0.36,0.34,0.71,0.67,1.05,1.01c0.61,0.61,1.23,1.21,1.81,1.82
			c0.28,0.27,0.55,0.56,0.82,0.85c1.65,1.72,3.24,3.47,4.75,5.24c0.27,0.31,0.55,0.64,0.81,0.96c0.32,0.38,0.64,0.77,0.97,1.15
			c0.27,0.36,0.57,0.72,0.85,1.07c1.13,1.41,2.24,2.83,3.29,4.27c0.43,0.59,0.87,1.19,1.29,1.79c0.11,0.16,0.24,0.32,0.36,0.51
			c0.45,0.65,0.91,1.31,1.36,1.98c0.04,0.04,0.08,0.11,0.12,0.16c0.43,0.65,0.87,1.3,1.3,1.97c0.7,1.05,1.36,2.11,2.02,3.17
			c0.42,0.69,0.85,1.4,1.27,2.1c0,0.01,0.01,0.01,0.01,0.03c0.5,0.84,0.98,1.67,1.44,2.53c0.48,0.84,0.96,1.69,1.41,2.55
			c0.03,0.06,0.06,0.12,0.1,0.19l0.58,1.06H734.96z"/>
	</g>
	<g transform="matrix(.35278 0 0 -.35278 -46.172 197.25)">
		<path fill="#B50202" d="M673.89-214.08c0,0,5.49,13.86,19.5,20.67l0.63-2.01C680.72-201.89,673.96-213.97,673.89-214.08"/>
	</g>
	<g transform="matrix(.35278 0 0 -.35278 -43.627 195.7)">
		<path fill="#210101" d="M742.87-172.08c-0.27,0.11-0.58,0.24-0.89,0.35c-0.43-0.27-0.86-0.52-1.28-0.78
			c-0.45-0.25-0.89-0.53-1.34-0.78c0.67-0.19,1.29-0.37,1.8-0.56c-0.09-0.31-0.21-0.63-0.3-0.95c-1.95-6.04-5.01-14.03-9.65-22.79
			c-0.17-0.34-0.35-0.67-0.54-1.02c-0.18-0.34-0.37-0.68-0.56-1.01c-0.18-0.36-0.37-0.71-0.58-1.05c-0.8-1.46-1.67-2.94-2.59-4.43
			c-0.33-0.55-0.68-1.09-1.03-1.66c-0.28-0.45-0.58-0.92-0.87-1.37c-0.27-0.43-0.56-0.86-0.85-1.29c-0.27-0.42-0.56-0.85-0.87-1.28
			c-0.33-0.5-0.68-1.01-1.04-1.52c-0.25-0.35-0.48-0.69-0.73-1.02c-0.19-0.29-0.39-0.57-0.59-0.85l-0.34-0.45
			c-0.43-0.6-0.87-1.18-1.32-1.77c-0.26-0.35-0.51-0.69-0.79-1.03c-0.25-0.34-0.51-0.68-0.78-1.02l-0.82-1.01
			c-0.25-0.32-0.5-0.61-0.74-0.91c-0.32-0.38-0.62-0.75-0.94-1.13c-0.29-0.34-0.57-0.68-0.87-1.01c-1.05-1.23-2.15-2.44-3.28-3.65
			c-0.55-0.59-1.09-1.16-1.65-1.75c-0.61-0.63-1.23-1.23-1.87-1.87c-0.62-0.62-1.24-1.23-1.89-1.82c-0.63-0.6-1.28-1.2-1.93-1.78
			c-11.27-10.19-24.83-15.3-38.16-14.34c-1.2,0.08-2.37,0.22-3.53,0.39l-0.77,0.14c-0.01,0-0.01,0-0.02,0.01
			c-1.01,0.18-2.01,0.38-2.99,0.64c-0.96,0.25-1.89,0.51-2.8,0.81c-0.2,0.09-0.44,0.16-0.65,0.24c-3.83,1.38-7.23,3.3-10.01,5.7
			c-0.08,0.07-0.17,0.14-0.26,0.22c-2.56,2.24-4.58,4.88-5.94,7.82c-0.15,0.33-0.3,0.67-0.45,1.01c-0.14,0.3-0.25,0.59-0.37,0.87
			c-0.2,0.46-0.38,0.94-0.55,1.41c-0.14,0.34-0.27,0.67-0.38,1.02c-0.45,1.24-0.89,2.53-1.3,3.85c-0.29,0.88-0.56,1.77-0.8,2.68
			c-0.12,0.43-0.26,0.86-0.37,1.3c-0.84,2.97-1.6,6.08-2.32,9.19c-0.33,1.42-0.67,2.85-0.98,4.26c-0.01,0.03-0.01,0.06-0.02,0.08
			c-0.19,0.81-0.37,1.62-0.57,2.44c-0.06,0.27-0.12,0.55-0.19,0.82c-0.06,0.29-0.13,0.57-0.21,0.84c-0.08,0.36-0.15,0.73-0.24,1.07
			c-0.14,0.56-0.27,1.11-0.39,1.67l-0.4,1.63c-0.37,1.48-0.73,2.91-1.12,4.32c-0.23,0.85-0.45,1.68-0.7,2.51
			c-0.38,0.09-0.77,0.19-1.16,0.29c-0.4,0.09-0.81,0.19-1.22,0.3c0.25-0.83,0.51-1.68,0.74-2.54c0.76-2.66,1.44-5.42,2.11-8.2
			c0.13-0.58,0.27-1.15,0.4-1.72l0.06-0.23l0.19-0.86c0.07-0.23,0.12-0.47,0.17-0.69c0.02-0.05,0.03-0.09,0.04-0.15
			c0.17-0.75,0.35-1.52,0.53-2.27c0.24-1,0.47-2.01,0.7-3.03c0.01-0.04,0.01-0.07,0.02-0.1c0.96-4.13,1.97-8.25,3.1-12.14v-0.01
			l0.13-0.48c0.12-0.46,0.27-0.9,0.39-1.32c0.02-0.07,0.03-0.15,0.06-0.21c0.45-1.42,0.9-2.81,1.39-4.15
			c0.1-0.31,0.22-0.61,0.33-0.89c0.48-1.31,1.01-2.58,1.58-3.77c0.86-1.87,1.97-3.61,3.29-5.22c2.26-2.77,5.15-5.14,8.51-7.01
			c0.17-0.09,0.34-0.19,0.53-0.28c0.69-0.38,1.41-0.73,2.15-1.06c0.79-0.36,1.61-0.68,2.44-1c0.2-0.07,0.41-0.16,0.61-0.23
			c3.38-1.17,7.05-1.94,10.91-2.2c13.87-0.98,27.98,4.31,39.69,14.91c0.49,0.43,0.95,0.85,1.41,1.28c0.25,0.24,0.52,0.49,0.76,0.73
			c0.16,0.14,0.31,0.28,0.44,0.44c0.35,0.34,0.71,0.66,1.05,1c0.61,0.61,1.23,1.22,1.82,1.82c0.28,0.28,0.55,0.55,0.82,0.84
			c1.65,1.72,3.24,3.47,4.76,5.24c0.27,0.32,0.55,0.64,0.8,0.96c0.33,0.38,0.65,0.77,0.98,1.17c0.27,0.35,0.56,0.71,0.86,1.06
			c1.13,1.41,2.24,2.84,3.29,4.27c0.43,0.59,0.87,1.19,1.29,1.79c0.11,0.16,0.24,0.33,0.36,0.51c0.45,0.65,0.91,1.31,1.36,1.98
			c0.04,0.05,0.08,0.1,0.12,0.16c0.43,0.66,0.87,1.3,1.3,1.98c0.69,1.04,1.36,2.1,2.01,3.16c0.43,0.69,0.86,1.4,1.28,2.11
			c0,0.01,0.01,0.01,0.01,0.03c0.5,0.82,0.98,1.66,1.44,2.52c0.49,0.84,0.96,1.69,1.41,2.55c0.03,0.06,0.06,0.12,0.1,0.2
			c0.19,0.35,0.37,0.7,0.57,1.05c5.09,9.72,8.3,18.52,10.19,24.75l0.03,0.08l0.28,0.88L742.87-172.08z"/>
		<path fill="none" stroke="#210101" stroke-width="1.2778" stroke-miterlimit="10" d="M742.87-172.08
			c-0.27,0.11-0.58,0.24-0.89,0.35c-0.43-0.27-0.86-0.52-1.28-0.78c-0.45-0.25-0.89-0.53-1.34-0.78c0.67-0.19,1.29-0.37,1.8-0.56
			c-0.09-0.31-0.21-0.63-0.3-0.95c-1.95-6.04-5.01-14.03-9.65-22.79c-0.17-0.34-0.35-0.67-0.54-1.02c-0.18-0.34-0.37-0.68-0.56-1.01
			c-0.18-0.36-0.37-0.71-0.58-1.05c-0.8-1.46-1.67-2.94-2.59-4.43c-0.33-0.55-0.68-1.09-1.03-1.66c-0.28-0.45-0.58-0.92-0.87-1.37
			c-0.27-0.43-0.56-0.86-0.85-1.29c-0.27-0.42-0.56-0.85-0.87-1.28c-0.33-0.5-0.68-1.01-1.04-1.52c-0.25-0.35-0.48-0.69-0.73-1.02
			c-0.19-0.29-0.39-0.57-0.59-0.85l-0.34-0.45c-0.43-0.6-0.87-1.18-1.32-1.77c-0.26-0.35-0.51-0.69-0.79-1.03
			c-0.25-0.34-0.51-0.68-0.78-1.02l-0.82-1.01c-0.25-0.32-0.5-0.61-0.74-0.91c-0.32-0.38-0.62-0.75-0.94-1.13
			c-0.29-0.34-0.57-0.68-0.87-1.01c-1.05-1.23-2.15-2.44-3.28-3.65c-0.55-0.59-1.09-1.16-1.65-1.75c-0.61-0.63-1.23-1.23-1.87-1.87
			c-0.62-0.62-1.24-1.23-1.89-1.82c-0.63-0.6-1.28-1.2-1.93-1.78c-11.27-10.19-24.83-15.3-38.16-14.34
			c-1.2,0.08-2.37,0.22-3.53,0.39l-0.77,0.14c-0.01,0-0.01,0-0.02,0.01c-1.01,0.18-2.01,0.38-2.99,0.64
			c-0.96,0.25-1.89,0.51-2.8,0.81c-0.2,0.09-0.44,0.16-0.65,0.24c-3.83,1.38-7.23,3.3-10.01,5.7c-0.08,0.07-0.17,0.14-0.26,0.22
			c-2.56,2.24-4.58,4.88-5.94,7.82c-0.15,0.33-0.3,0.67-0.45,1.01c-0.14,0.3-0.25,0.59-0.37,0.87c-0.2,0.46-0.38,0.94-0.55,1.41
			c-0.14,0.34-0.27,0.67-0.38,1.02c-0.45,1.24-0.89,2.53-1.3,3.85c-0.29,0.88-0.56,1.77-0.8,2.68c-0.12,0.43-0.26,0.86-0.37,1.3
			c-0.84,2.97-1.6,6.08-2.32,9.19c-0.33,1.42-0.67,2.85-0.98,4.26c-0.01,0.03-0.01,0.06-0.02,0.08c-0.19,0.81-0.37,1.62-0.57,2.44
			c-0.06,0.27-0.12,0.55-0.19,0.82c-0.06,0.29-0.13,0.57-0.21,0.84c-0.08,0.36-0.15,0.73-0.24,1.07c-0.14,0.56-0.27,1.11-0.39,1.67
			l-0.4,1.63c-0.37,1.48-0.73,2.91-1.12,4.32c-0.23,0.85-0.45,1.68-0.7,2.51c-0.38,0.09-0.77,0.19-1.16,0.29
			c-0.4,0.09-0.81,0.19-1.22,0.3c0.25-0.83,0.51-1.68,0.74-2.54c0.76-2.66,1.44-5.42,2.11-8.2c0.13-0.58,0.27-1.15,0.4-1.72
			l0.06-0.23l0.19-0.86c0.07-0.23,0.12-0.47,0.17-0.69c0.02-0.05,0.03-0.09,0.04-0.15c0.17-0.75,0.35-1.52,0.53-2.27
			c0.24-1,0.47-2.01,0.7-3.03c0.01-0.04,0.01-0.07,0.02-0.1c0.96-4.13,1.97-8.25,3.1-12.14v-0.01l0.13-0.48
			c0.12-0.46,0.27-0.9,0.39-1.32c0.02-0.07,0.03-0.15,0.06-0.21c0.45-1.42,0.9-2.81,1.39-4.15c0.1-0.31,0.22-0.61,0.33-0.89
			c0.48-1.31,1.01-2.58,1.58-3.77c0.86-1.87,1.97-3.61,3.29-5.22c2.26-2.77,5.15-5.14,8.51-7.01c0.17-0.09,0.34-0.19,0.53-0.28
			c0.69-0.38,1.41-0.73,2.15-1.06c0.79-0.36,1.61-0.68,2.44-1c0.2-0.07,0.41-0.16,0.61-0.23c3.38-1.17,7.05-1.94,10.91-2.2
			c13.87-0.98,27.98,4.31,39.69,14.91c0.49,0.43,0.95,0.85,1.41,1.28c0.25,0.24,0.52,0.49,0.76,0.73c0.16,0.14,0.31,0.28,0.44,0.44
			c0.35,0.34,0.71,0.66,1.05,1c0.61,0.61,1.23,1.22,1.82,1.82c0.28,0.28,0.55,0.55,0.82,0.84c1.65,1.72,3.24,3.47,4.76,5.24
			c0.27,0.32,0.55,0.64,0.8,0.96c0.33,0.38,0.65,0.77,0.98,1.17c0.27,0.35,0.56,0.71,0.86,1.06c1.13,1.41,2.24,2.84,3.29,4.27
			c0.43,0.59,0.87,1.19,1.29,1.79c0.11,0.16,0.24,0.33,0.36,0.51c0.45,0.65,0.91,1.31,1.36,1.98c0.04,0.05,0.08,0.1,0.12,0.16
			c0.43,0.66,0.87,1.3,1.3,1.98c0.69,1.04,1.36,2.1,2.01,3.16c0.43,0.69,0.86,1.4,1.28,2.11c0,0.01,0.01,0.01,0.01,0.03
			c0.5,0.82,0.98,1.66,1.44,2.52c0.49,0.84,0.96,1.69,1.41,2.55c0.03,0.06,0.06,0.12,0.1,0.2c0.19,0.35,0.37,0.7,0.57,1.05
			c5.09,9.72,8.3,18.52,10.19,24.75l0.03,0.08l0.28,0.88L742.87-172.08z"/>
	</g>
	<g transform="matrix(.35278 0 0 -.35278 -42.955 195.26)">
		<path fill="#210101" d="M761.07-160.16c-0.19-0.19-7.18-6.66-19.57-14.2c-0.41-0.26-0.84-0.52-1.27-0.76
			c-0.41-0.24-0.84-0.51-1.26-0.74c-2.93-1.7-6.1-3.45-9.53-5.19c-1.25-0.62-2.53-1.25-3.85-1.87
			c-20.35-9.58-48.38-17.82-81.33-14.39c-2.88,0.31-5.77,0.68-8.73,1.18c-1.89,0.3-3.83,0.65-5.74,1.04c-0.34,0.07-0.67,0.14-1,0.21
			c-0.91,0.2-1.84,0.39-2.77,0.62c-0.38,0.07-0.75,0.17-1.15,0.26c-0.4,0.11-0.79,0.2-1.2,0.28c-0.71,0.17-1.41,0.36-2.11,0.53
			l0.68,2.2c0.24-0.06,0.47-0.12,0.7-0.17c0.4-0.1,0.81-0.22,1.22-0.31c0.39-0.1,0.78-0.19,1.17-0.29c1.49-0.35,2.96-0.69,4.43-0.99
			c0.27-0.06,0.55-0.11,0.81-0.17c0.02,0,0.04,0,0.05-0.01c4.99-1,9.88-1.73,14.66-2.2c39.7-3.97,72.07,9.17,92.16,20.78
			c0.45,0.27,0.9,0.53,1.34,0.78c0.42,0.26,0.86,0.5,1.28,0.78c12.51,7.55,19.56,14.08,19.77,14.26L761.07-160.16z"/>
		<path fill="none" stroke="#210101" stroke-width="1.2778" stroke-miterlimit="10" d="M761.07-160.16
			c-0.19-0.19-7.18-6.66-19.57-14.2c-0.41-0.26-0.84-0.52-1.27-0.76c-0.41-0.24-0.84-0.51-1.26-0.74c-2.93-1.7-6.1-3.45-9.53-5.19
			c-1.25-0.62-2.53-1.25-3.85-1.87c-20.35-9.58-48.38-17.82-81.33-14.39c-2.88,0.31-5.77,0.68-8.73,1.18
			c-1.89,0.3-3.83,0.65-5.74,1.04c-0.34,0.07-0.67,0.14-1,0.21c-0.91,0.2-1.84,0.39-2.77,0.62c-0.38,0.07-0.75,0.17-1.15,0.26
			c-0.4,0.11-0.79,0.2-1.2,0.28c-0.71,0.17-1.41,0.36-2.11,0.53l0.68,2.2c0.24-0.06,0.47-0.12,0.7-0.17c0.4-0.1,0.81-0.22,1.22-0.31
			c0.39-0.1,0.78-0.19,1.17-0.29c1.49-0.35,2.96-0.69,4.43-0.99c0.27-0.06,0.55-0.11,0.81-0.17c0.02,0,0.04,0,0.05-0.01
			c4.99-1,9.88-1.73,14.66-2.2c39.7-3.97,72.07,9.17,92.16,20.78c0.45,0.27,0.9,0.53,1.34,0.78c0.42,0.26,0.86,0.5,1.28,0.78
			c12.51,7.55,19.56,14.08,19.77,14.26L761.07-160.16z"/>
	</g>
	<g transform="matrix(.35278 0 0 -.35278 -45.726 191.13)">
		<path fill="#300606" d="M685.98-48.24c0-26.75-30.78-48.46-68.75-48.46c-37.99,0-68.76,21.71-68.76,48.46
			c0,26.76,30.77,48.47,68.76,48.47C655.2,0.22,685.98-21.49,685.98-48.24"/>
		<path fill="#491515" d="M685.98-48.24c0-26.75-137.51-26.75-137.51,0c0,26.76,30.77,48.47,68.76,48.47
			C655.2,0.22,685.98-21.49,685.98-48.24"/>
	</g>
	<g transform="matrix(.35278 0 0 -.35278 -48.023 189.56)">
		<path fill="#210101" d="M623.74-5.69c-37.19,0-67.42-21-67.42-46.82c0-25.78,30.23-46.78,67.42-46.78
			c37.16,0,67.41,21,67.41,46.78C691.16-26.69,660.91-5.69,623.74-5.69 M623.74-102.62c-38.66,0-70.11,22.47-70.11,50.11
			c0,27.65,31.45,50.13,70.11,50.13c38.64,0,70.09-22.48,70.09-50.13C693.83-80.15,662.38-102.62,623.74-102.62"/>
		<path fill="none" stroke="#210101" stroke-width="1.2778" stroke-miterlimit="10" d="M623.74-5.69c-37.19,0-67.42-21-67.42-46.82
			c0-25.78,30.23-46.78,67.42-46.78c37.16,0,67.41,21,67.41,46.78C691.16-26.69,660.91-5.69,623.74-5.69z M623.74-102.62
			c-38.66,0-70.11,22.47-70.11,50.11c0,27.65,31.45,50.13,70.11,50.13c38.64,0,70.09-22.48,70.09-50.13
			C693.83-80.15,662.38-102.62,623.74-102.62z"/>
	</g>
</g>
</svg>
