<?xml version="1.0" encoding="utf-8"?>
<!-- Generator: Adobe Illustrator 16.0.0, SVG Export Plug-In . SVG Version: 6.00 Build 0)  -->
<!DOCTYPE svg PUBLIC "-//W3C//DTD SVG 1.1//EN" "http://www.w3.org/Graphics/SVG/1.1/DTD/svg11.dtd">
<svg version="1.1" id="Layer_1" xmlns="http://www.w3.org/2000/svg" xmlns:xlink="http://www.w3.org/1999/xlink" x="0px" y="0px"
	 width="544.6px" height="512.16px" viewBox="0 0 544.6 512.16" enable-background="new 0 0 544.6 512.16" xml:space="preserve">
<path fill="none" stroke="#210101" stroke-width="1.2778" stroke-miterlimit="10" d="M442.93,398.74l0-1.29l-1.01,0.8
	c-0.07,0.05-5.84,4.62-10.02,5.53c9.7-10.44,8.13-26.72,7.59-32.21l-0.24-2.46l-0.96,2.28c-0.06,0.14-5.39,12.76-9.9,16.58
	c1.76-7.52,1.6-24.44-4.51-27.5l-0.92-0.46l0.02,1.04c0.5,20.58-17.73,34.51-24.58,39.01c-2.27-5.42-5.34-10.42-8.92-15.08
	c-0.02-0.03-0.05-0.06-0.07-0.09c-3.2-4.6-6.85-8.73-10.77-12.29c-0.02-0.02-0.04-0.04-0.05-0.06
	c-5.68-5.92-11.79-11.31-17.54-16.33c-4.45-3.89-8.65-7.56-12.25-11.06c-47.57-46.26-56.98-58.15-60.63-83.43
	c4.68-2.41,8.74-5.03,12.26-7.9c4.58-3.74,8.24-7.94,10.97-12.58c2.72-4.64,4.52-9.7,5.36-15.17c1.41-9.16,1.45-17.76,0.12-25.58
	c-0.65-3.77-1.61-7.33-2.87-10.61c-3.53-8.46-8.72-15.39-15.43-20.62c-0.98-0.76-1.99-1.49-2.99-2.14
	c-0.07-0.05-0.13-0.12-0.19-0.21c0.74-0.03,1.48-0.06,2.24-0.08c12.3-0.43,27.61-0.98,39.42-11.5
	c14.68-13.05,16.02-29.58,15.51-38.27c-0.42-7.26-2.36-12.81-3.57-13.6c-14.21-9.25-27.01-9.58-38.05-0.98
	c-8.67,6.75-13.41,16.85-14.97,20.17c-0.12,0.27-0.22,0.49-0.3,0.65c-4.38,8.91-8.04,13.1-9.97,14.9
	c-5.5-6.8-13.37-12.18-22.57-15.52c3.27-7.49,9.17-15.51,23.33-22.55c31.1-15.45,46.51-37.41,19.01-65.22
	c-3.81-4.03-10.5-3.41-13.98-0.36c-1.03,0.63-1.59,1.43-1.78,2.36c-0.89,2.02-0.62,4.53,1.58,7.25c7.57,9.3,24.92,23.8-7.21,42.5
	c2.87-9.4,1.87-24.37-8.26-27.75c-2.26-0.76-4.89-0.53-6.85,0.54c-0.01,0.01-0.03,0.01-0.04,0.01c-0.2,0.08-0.37,0.2-0.52,0.33
	c-2.35,1.61-3.4,4.61-0.88,8.74c4.66,7.63,11.56,21.51-0.02,28.22c0.69-8.43-13.2-17.75-18.13-14.47c-8.28,5.49,4.71,11,6.03,17.58
	c1.01,5.08,0.59,11.86-2.6,20.05c-0.11-0.02-0.21-0.04-0.32-0.06c-0.56-0.11-1.14-0.19-1.71-0.28c-7.18-1.17-14.44-1.75-21.37-1.69
	c-2.69,0.03-5.33,0.14-7.9,0.35c-0.44,0.04-0.86,0.09-1.29,0.13c-0.09-12.72-5.2-23.74-3.5-29.8c1.88-6.66,18.71-10.01,10.48-18.87
	c-3.84-4.14-20.94,5.89-21.17,14.65c-9.87-7.92-6.51-24.07-1.48-31.55c5.04-7.47-1.65-12.69-6.57-10.64
	c-7.44,3.1-12.23,17.68-10.58,27.62c-19.8-19.04-5.47-32.76,2.37-41.7c7.86-8.97-5.25-17.37-11.95-10.75
	c-27.92,26.36-16.16,50.32,10.59,68.9c20.85,14.51,21.82,23.91,19.94,34.05c-0.12,0.03-0.24,0.05-0.36,0.08
	c-9.3,2.23-17.06,5.87-23.24,10.83c-2-5.59-4.79-11.5-8.07-16.84c-7.96-12.97-17.25-20.41-25.5-20.41c-1.5,0-2.99,0.24-4.43,0.71
	c-0.4,0.13-0.89,0.49-1.44,1.05c-1.45,1.08-3.33,3.15-4.1,6.44c-0.24,0.52-0.48,1.06-0.7,1.63c-2.78,6.9-6.29,21.24,1.56,39.6
	c5.27,12.34,13.15,19.12,25,21.22c-0.9,6.21-1.09,12.5-1.27,18.68c-0.08,2.55-0.16,5.18-0.29,7.77
	c-10.49,2.05-18.22,8.92-18.22,17.06c0,1.68,0.34,3.31,0.95,4.85c-4.72,5.28-7.33,12.52-6.23,22.76
	c2.24,20.75,26.32,26.51,33.81,27.81c0.08,0.64,0.14,1.28,0.2,1.93c-5.94,9.42-4.27,20.24,0.73,26.17c3.22,3.83,9.51,6.2,16.42,6.2
	h0c5.7,0,11.11-1.52,15.92-4.33c2.32-0.88,4.59-1.91,6.81-3.03c0.09,1.41,0.37,2.77,0.87,4.07c3.93,10.4,3.61,24.49,3.25,40.81
	c-0.24,10.61-0.48,22.07,0.46,33.8c-6.38,10.71-12.08,27.06-17.67,43.09c-4.22,12.1-8.25,23.64-12.48,32.73
	c-0.48,0.15-0.93,0.31-1.34,0.49c-1.33,0.6-8.08,15.22-10.74,23.89c-1.11,3.63-1.45,5.93-1.04,7.02l0.03,0.07l0.05,0.05
	c3.45,3.33,23.64,8.06,37.9,8.06c6.81,0,11.69-1,14.5-2.96c3.64-2.55,7.92-10.63,8.63-16.32c0.16-1.27,0.1-2.3-0.13-3.14
	c0.85-1.45,4.21-14.43,7.54-28.73c1.69,1.9,3.48,3.78,5.4,5.62l0.07,0.06c0.25,0.14,0.51,0.31,0.77,0.46
	c-1.29,5.14-2.52,9.56-3.6,13.38c-0.91,1.38-3.91,10.58-4.27,11.7c-1.5,4.64-4.08,13.04-4.52,17.21c-0.07,0.59-0.25,2.38,0.5,2.68
	c7.86,4.7,16.99,7.08,27.16,7.08c15.69,0,29.11-5.75,31.73-6.95c1.47,1.49,3.08,2.71,4.83,3.57c2.97,1.72,6.14,2.37,9.37,1.73
	c6.7-0.45,14.44-2.02,22.89-4.64l0.26-0.09l0.09-0.22c0.06-0.01,0.11-0.02,0.17-0.03c0.03-0.01,0.06-0.01,0.09-0.02
	c22.05-3.38,36.53-10.32,46.07-18.25c0.01-0.01,0.02-0.01,0.03-0.02c4.71-3.91,8.2-8.06,10.83-12.15
	c4.36-6.79,6.29-13.37,7.22-18.34C427.78,432.11,443.01,418.75,442.93,398.74z M397.76,400.49c-0.04,0.02-0.07,0.04-0.11,0.07
	c-0.61-1.61-1.27-3.2-1.99-4.74c-0.03-0.07-0.06-0.13-0.09-0.19c0.03,0.07,0.07,0.13,0.1,0.2
	C396.44,397.35,397.13,398.9,397.76,400.49z"/>
</svg>
