<?xml version="1.0" encoding="utf-8"?>
<!-- Generator: Adobe Illustrator 16.0.0, SVG Export Plug-In . SVG Version: 6.00 Build 0)  -->
<!DOCTYPE svg PUBLIC "-//W3C//DTD SVG 1.1//EN" "http://www.w3.org/Graphics/SVG/1.1/DTD/svg11.dtd">
<svg version="1.1" id="Layer_1" xmlns="http://www.w3.org/2000/svg" xmlns:xlink="http://www.w3.org/1999/xlink" x="0px" y="0px"
	 width="544.6px" height="512.16px" viewBox="0 0 544.6 512.16" enable-background="new 0 0 544.6 512.16" xml:space="preserve">
<path fill="#FFFFFF" stroke="#000000" stroke-miterlimit="10" d="M530.15,442.58c-7.6-8.3-23.49-12.69-45.93-12.69l-1.99,0.01
	c6.84-4.2,11.02-9.56,12.47-15.99c1.99-8.8-1.81-17.28-4.1-20.53c-9.97-14.2-26.6-18.61-40.58-19.5c-0.23-0.83-0.48-1.66-0.76-2.49
	c-6.5-18.9-16.04-31.04-28.32-36.08c-1.88-0.77-3.73-1.32-5.53-1.69c-4.54-3.77-9.67-7.32-15.4-10.65c-2.88-1.14-4.32-3.83-4.99-7.7
	c4.37-0.96,8.25-2,11.6-3.01c19.28-5.83,33.9-21.9,37.35-41.74c0.05-0.28,0.09-0.55,0.13-0.83l0.59,0.28l0.12-0.75
	c0.18-1.17,0.33-2.38,0.45-3.59c0.53-5.11,0.52-10.65-0.01-16.48c-1.07-11.71-4.09-22.47-6.1-29.59l-0.61-2.16
	c-1.42-5.12-1.38-9.57-0.59-13.34c2.31-4.12,4.17-8.35,5.21-10.88c5.08-2.65,9-6.51,11.97-11.17c0.23-0.27,0.46-0.54,0.69-0.81
	c0.08-0.1,0.17-0.21,0.25-0.31c0.53-0.67,1.03-1.35,1.51-2.06c0.07-0.11,0.15-0.22,0.22-0.33c0.48-0.72,0.93-1.45,1.36-2.21
	c0.06-0.11,0.13-0.22,0.19-0.34c0.42-0.77,0.83-1.55,1.21-2.35c0.05-0.11,0.11-0.23,0.16-0.34c0.38-0.81,0.73-1.64,1.06-2.48
	c0.04-0.11,0.09-0.23,0.13-0.34c0.33-0.85,0.64-1.72,0.92-2.6c0.04-0.11,0.07-0.22,0.1-0.33c0.28-0.89,0.54-1.8,0.78-2.72
	c0.03-0.11,0.05-0.21,0.08-0.32c0.24-0.93,0.46-1.88,0.65-2.83c0.02-0.1,0.04-0.2,0.06-0.3c0.2-0.97,0.37-1.95,0.53-2.94
	c0.01-0.09,0.03-0.18,0.04-0.26c0.15-1,0.29-2.02,0.4-3.04c0.01-0.07,0.01-0.15,0.02-0.22c0.11-1.04,0.21-2.09,0.29-3.14
	c0-0.06,0.01-0.11,0.01-0.17c0.08-1.07,0.13-2.15,0.17-3.24c0-0.03,0-0.06,0-0.09c0.04-1.11,0.06-2.22,0.06-3.34
	c0-0.03,0-0.07,0-0.1c0.04,0.1,0.05,0.16,0.05,0.16c-0.01-13.8-2.77-27.97-6.33-38.64c-2.29-6.85-4.89-12.25-7.31-15.19
	c-0.81-0.99-1.59-1.71-2.33-2.12c-11.12-6.07-44.51,0-44.51,0c-0.31-0.84-0.62-1.69-0.92-2.53c0-0.01-0.01-0.02-0.01-0.03
	c0.02,0.04,0.04,0.07,0.04,0.07c-4.88-13.19-9.9-23.32-14.85-31.03c-2.95-4.59-5.89-8.32-8.76-11.34
	c-21.13-22.22-39.23-5.73-39.23-5.73c-56.65-26.3-88.01,21.25-88.01,21.25c-36.42-6.08-40.46,41.48-40.46,41.48
	s-32.13,41.08-37.48,85.24c-0.68-2.52-1.66-4.82-3.07-6.58c-1.56-1.96-3.52-3.08-5.84-3.33c-1.74-0.19-3.16,0.35-4.3,1.61
	c-2.7,2.99-3.12,9.64-2.91,15.3c-4.44-6.71-13.88-18.3-26.1-18.3c-0.91,0-1.83,0.06-2.77,0.2c-1.95,0.47-1,4.52,0.19,9.66
	c0.36,1.53,0.73,3.14,1.01,4.66c-6.26-3.83-15.86-8.42-25.97-8.42c-4.96,0-9.63,1.1-13.87,3.28l-0.09,0.05l-0.06,0.08
	c-0.61,0.86,0.61,2.37,3.44,5.72c2.38,2.81,5.38,6.35,6.98,9.67c-1.19,0.64-2.38,1.33-3.56,2.07c-2.49-0.21-5.67-0.39-9.14-0.39
	c-10.2,0-23.41,1.6-28.43,9.22l-0.05,0.11c-0.46,1.44,2.46,2.79,8.57,5.49c3.35,1.48,7.19,3.18,10,4.91
	c-0.59,0.96-1.17,1.95-1.74,2.96c-7.19,0.77-21.63,3.61-26.51,14.07l-0.04,0.19c0,0.78,1.57,1.99,6.41,5.54
	c3.42,2.5,7.7,5.64,10.51,8.34c-0.12,0.64-0.23,1.27-0.34,1.92c-5.25,1.84-16.24,6.61-20.61,15.45l-0.05,0.19
	c-0.01,0.97,2.75,2.67,11.62,7.61c2.08,1.16,4.18,2.33,5.8,3.29c-0.01,0.05-0.02,0.1-0.03,0.15c-5.77,1.62-17.93,5.77-20.17,12.3
	c-0.26,0.88,1.34,2.3,7,6.75c1.38,1.08,2.78,2.18,3.9,3.13c-1.37-0.06-3.08-0.12-4.96-0.12c-5.98,0-10.68,0.53-14.02,1.6
	c-0.18,0.1-0.41,0.28-0.49,0.66c-0.4,1.96,4.78,8.8,7.67,12.42c-0.05,0.04-0.09,0.07-0.14,0.11c-7.23-3.4-12.85-3.26-16.48,0.4
	c-2.65,2.66-3.68,6.57-4.09,9.32c-3.51,0.86-7.2,1.44-11.08,1.74c-0.46,0.07-0.6,0.37-0.58,0.61c0.08,1.21,7.77,4.04,18.04,4.04
	c7.74,0,17.47-1.58,27.5-7.2l-0.08,0.09l0.82-0.51c6.42-3.72,12.95-9.13,19.14-16.87c0.15-0.18,0.29-0.36,0.44-0.55
	c0.68-0.86,1.35-1.74,2.02-2.66c3.57-4.92,6.71-11.03,10.05-17.5c7.5-14.58,15.25-29.67,28.12-29.67c2.42,0,5.01,0.54,7.68,1.62
	c9.2,3.7,25.71,15.27,32.89,51.17c0.18,0.9,0.37,1.93,0.59,3.07c1.97,10.48,5.64,29.98,16.6,47c3.87,6.02,8.32,11.19,13.31,15.49
	c-8.19,2.91-15.94,7.8-21.57,15.81c-2.29,3.26-6.08,11.73-4.09,20.53c1.45,6.43,5.63,11.8,12.47,15.99l-1.99,0
	c-22.45,0-38.33,4.39-45.94,12.69c-3.98,4.35-5.72,9.8-5.16,16.19c0.1,1.15,1.28,1.73,3.51,1.73c3.61,0,9.41-1.46,12.66-2.28
	c-0.1,0.29-0.22,0.64-0.34,0.99c-1.62,4.63-5.93,16.92,1.81,22.22c0.4,0.23,0.8,0.35,1.2,0.35c1.68,0,2.94-2,4.83-5.03
	c3.9-6.22,10.32-16.51,27.43-21.57c-4.28,5.32-8.74,18.76-2.67,25.69c0.63,0.72,1.45,1.08,2.45,1.08c4.12,0,10.36-6.15,16.31-16.05
	c1.99-3.31,6.51-5.74,22.09-6.8c3.96-0.27,8.4-1.15,13.01-2.41c-3.79,5.17-5.55,10.22-4.74,13.85c0.26,1.17,0.8,1.93,1.61,2.25
	c2.22,0.89,5.96-1.62,11.13-5.12c7.22-4.86,17-11.46,25.97-10.02c-7.81,4.82-14.55,15.61-14.39,23.33c0.08,3.47,1.55,6.01,4.23,7.32
	c3.93,2.38,7.92-1.86,12.98-7.22c4.23-4.48,9.44-10.02,16.02-13.08c-1.62,5.28-0.03,14.39,3.51,19.24c1.48,2.04,3.19,3.1,4.94,3.1
	c0.14,0,0.3-0.01,0.44-0.01c3.63-0.37,5.28-4.88,7.19-10.11c1.89-5.16,4.03-11.01,8.49-14.4c6.13-4.66,13.17-4.18,18.84-3.8
	c4.59,0.31,8.21,0.55,9.53-2.19c0.6-1.25,0.58-2.56-0.06-3.92c-0.52-1.11-1.49-2.23-2.82-3.35c0.82,0.08,1.64,0.13,2.46,0.19
	c0.32,0.02,0.65,0.05,0.97,0.07c1.31,0.07,2.61,0.12,3.91,0.13c0,0,0.01,0,0.02,0l0,0c0,0,0,0,0,0v-0.01
	c0.17,0.02,0.41,0.02,0.72,0.02c0,0,0,0,0,0s0,0,0,0c0.32,0,0.55,0,0.73-0.02v0.01c0,0,0,0,0,0l0,0c1.31-0.01,2.62-0.06,3.93-0.13
	c0.31-0.02,0.62-0.04,0.93-0.06c0.83-0.05,1.67-0.11,2.5-0.19c-1.33,1.11-2.29,2.23-2.82,3.34c-0.64,1.35-0.66,2.67-0.06,3.92
	c1.33,2.74,4.94,2.5,9.54,2.19c5.66-0.39,12.7-0.86,18.83,3.79c4.46,3.39,6.6,9.25,8.49,14.4c1.92,5.23,3.57,9.75,7.2,10.11
	c0.14,0.01,0.29,0.02,0.44,0.02c1.76,0,3.46-1.06,4.94-3.11c3.54-4.85,5.13-13.96,3.51-19.24c6.58,3.07,11.79,8.6,16.02,13.08
	c5.05,5.36,9.04,9.6,12.94,7.24c2.72-1.33,4.19-3.87,4.26-7.34c0.16-7.72-6.58-18.51-14.38-23.33c8.97-1.44,18.75,5.16,25.97,10.02
	c5.17,3.48,8.91,6.01,11.13,5.12c0.8-0.32,1.34-1.08,1.6-2.25c0.67-3.02-0.43-7.01-3-11.24c13.75,1.14,17.93,3.48,19.82,6.63
	c5.94,9.9,12.19,16.04,16.31,16.05c1,0,1.82-0.36,2.45-1.08c6.07-6.92,1.61-20.37-2.67-25.69c17.11,5.06,23.54,15.35,27.43,21.57
	c1.89,3.02,3.15,5.02,4.82,5.02c0.4,0,0.8-0.11,1.21-0.35c7.74-5.31,3.44-17.59,1.81-22.22c-0.12-0.35-0.25-0.71-0.34-0.99
	c3.25,0.83,9.05,2.29,12.66,2.29c2.23,0,3.41-0.58,3.51-1.74C535.87,452.37,534.14,446.93,530.15,442.58z"/>
</svg>
