<?xml version="1.0" encoding="utf-8"?>
<!-- Generator: Adobe Illustrator 16.0.0, SVG Export Plug-In . SVG Version: 6.00 Build 0)  -->
<!DOCTYPE svg PUBLIC "-//W3C//DTD SVG 1.1//EN" "http://www.w3.org/Graphics/SVG/1.1/DTD/svg11.dtd">
<svg version="1.1" id="Layer_1" xmlns="http://www.w3.org/2000/svg" xmlns:xlink="http://www.w3.org/1999/xlink" x="0px" y="0px"
	 width="544.6px" height="512.16px" viewBox="0 0 544.6 512.16" enable-background="new 0 0 544.6 512.16" xml:space="preserve">
<g transform="matrix(.35278 0 0 -.35278 65.154 161.96)">
	<path fill="#6A9CCE" d="M1152.11-561.57c0,0,43.9-79.48,4.54-127.18c-13.64-15.13-49.96-23.54-81,10.19
		c-8.34-34.4,4.1-60.15,4.1-60.15c37.53-23.47,85.98-18.17,111.72,36.34C1217.53-647.19,1152.11-561.57,1152.11-561.57"/>
</g>
<g transform="matrix(.35278 0 0 -.35278 63.105 167.02)">
	<path fill="#1E276A" d="M1086.45-723.73c13.55-8.41,28.24-12.84,42.48-12.84c28.53-0.01,52.43,17.36,67.31,48.89
		c19.96,42.26-15.07,103.52-31.47,128.46c10.49-24.46,28.61-79.62-1.43-116.03c-7.6-8.45-20.63-13.66-34.06-13.66
		c-11.87,0-29.59,3.9-47.19,22.23C1075.33-697.38,1085.16-720.87,1086.45-723.73 M1128.94-738.86h-0.01
		c-14.77,0-29.99,4.62-43.97,13.38l-0.3,0.18l-0.12,0.28c-0.13,0.27-12.52,26.51-4.19,60.91l0.5,2.07l1.43-1.56
		c17.55-19.06,35.24-23.05,47-23.05c12.8,0,25.18,4.93,32.32,12.86c38.41,46.52-4.24,125.08-4.67,125.88l1.9,1.24
		c0.65-0.87,65.52-86.81,39.49-141.98C1183.02-721.03,1158.38-738.86,1128.94-738.86"/>
	<path fill="none" stroke="#1E276A" stroke-width="1.4891" stroke-miterlimit="10" d="M1086.45-723.73
		c13.55-8.41,28.24-12.84,42.48-12.84c28.53-0.01,52.43,17.36,67.31,48.89c19.96,42.26-15.07,103.52-31.47,128.46
		c10.49-24.46,28.61-79.62-1.43-116.03c-7.6-8.45-20.63-13.66-34.06-13.66c-11.87,0-29.59,3.9-47.19,22.23
		C1075.33-697.38,1085.16-720.87,1086.45-723.73z M1128.94-738.86h-0.01c-14.77,0-29.99,4.62-43.97,13.38l-0.3,0.18l-0.12,0.28
		c-0.13,0.27-12.52,26.51-4.19,60.91l0.5,2.07l1.43-1.56c17.55-19.06,35.24-23.05,47-23.05c12.8,0,25.18,4.93,32.32,12.86
		c38.41,46.52-4.24,125.08-4.67,125.88l1.9,1.24c0.65-0.87,65.52-86.81,39.49-141.98C1183.02-721.03,1158.38-738.86,1128.94-738.86z
		"/>
</g>
<g transform="matrix(.35278 0 0 -.35278 42.816 165.67)">
	<path fill="#266E9E" d="M436.2-680.46c0-78.61-36.56-135.46-108.75-139.17c-88.39-4.55-152.79,71.29-152.79,149.89
		c0,78.6,58.61,142.32,130.89,142.32C377.84-527.42,436.2-601.86,436.2-680.46"/>
</g>
<g transform="matrix(.35278 0 0 -.35278 41.201 162.11)">
	<path fill="#4985B7" d="M384.44-566.37c-21.08,17.83-46.65,28.73-74.3,28.73c-72.29,0-130.89-63.72-130.89-142.32
		c0-34.35,12.31-68.15,33.53-94.98C317.36-771.73,365.68-667.17,384.44-566.37"/>
</g>
<g transform="matrix(.35278 0 0 -.35278 37.359 162.39)">
	<path fill="#B5B5B5" d="M261.31-575.34c34.83,23.22,76.68,25.99,108.46,26.55c-15.04,7.53-31.5,11.78-48.74,11.78
		c-72.29,0-130.9-63.72-130.9-142.33c0-21.97,5.07-43.73,14.25-63.59C195.51-681.62,206.25-610.75,261.31-575.34"/>
</g>
<g transform="matrix(.35278 0 0 -.35278 39.071 161.32)">
	<path fill="#1E276A" d="M316.17-541.05c-71.53,0-129.76-63.33-129.76-141.18c0-71.94,57.9-148.95,144.1-148.95
		c2.47,0,4.99,0.06,7.47,0.2c67.43,3.46,107.68,55.05,107.68,138.02C445.67-612.03,385.17-541.05,316.17-541.05 M330.52-833.45
		c-40.03,0-77.37,16.61-105.13,46.79c-26.21,28.47-41.24,66.54-41.24,104.44c0,79.1,59.22,143.45,132.03,143.45
		c70.2,0,131.77-72.04,131.77-154.17c0-84.32-41.05-136.76-109.83-140.31C335.59-833.38,333.03-833.45,330.52-833.45"/>
	<path fill="none" stroke="#1E276A" stroke-width="1.4891" stroke-miterlimit="10" d="M316.17-541.05
		c-71.53,0-129.76-63.33-129.76-141.18c0-71.94,57.9-148.95,144.1-148.95c2.47,0,4.99,0.06,7.47,0.2
		c67.43,3.46,107.68,55.05,107.68,138.02C445.67-612.03,385.17-541.05,316.17-541.05z M330.52-833.45
		c-40.03,0-77.37,16.61-105.13,46.79c-26.21,28.47-41.24,66.54-41.24,104.44c0,79.1,59.22,143.45,132.03,143.45
		c70.2,0,131.77-72.04,131.77-154.17c0-84.32-41.05-136.76-109.83-140.31C335.59-833.38,333.03-833.45,330.52-833.45z"/>
</g>
<g transform="matrix(.35278 0 0 -.35278 38.122 166.94)">
	<path fill="#1E276A" d="M285.77-721.16c0,0,9.59,24.5,35.55,44.12c23.94,18.11,65.41,36.75,127,22.76l-0.51-2.21
		C331.61-630.13,286.21-720.25,285.77-721.16"/>
	<path fill="none" stroke="#1E276A" stroke-width="1.4891" stroke-miterlimit="10" d="M285.77-721.16c0,0,9.59,24.5,35.55,44.12
		c23.94,18.11,65.41,36.75,127,22.76l-0.51-2.21C331.61-630.13,286.21-720.25,285.77-721.16z"/>
</g>
<g transform="matrix(.35278 0 0 -.35278 40.61 163.44)">
	<path fill="#CFCFCF" d="M365.51-608.99c17.76-19.18,44.78-16.38,62.83-11.47c-13.59,31.2-36.16,57.43-63.8,72.54
		C355.88-563.37,346.85-588.88,365.51-608.99"/>
</g>
<g transform="matrix(.35278 0 0 -.35278 40.595 161.73)">
	<path fill="#1E276A" d="M365.02-554.19c-9.11-16.69-15.95-40.09,1.36-58.76c9.05-9.78,21.52-14.71,37.06-14.71
		c7.28,0,15.13,1.09,23.37,3.23C413.14-593.71,391.25-568.84,365.02-554.19 M403.44-629.94c-16.2,0-29.23,5.19-38.72,15.43
		c-19.56,21.1-9.11,48.15-1.14,62.41l0.55,0.98l0.99-0.54c27.46-15.01,50.29-40.97,64.31-73.08l0.53-1.2l-1.26-0.35
		C419.8-628.71,411.3-629.94,403.44-629.94"/>
	<path fill="none" stroke="#1E276A" stroke-width="1.4891" stroke-miterlimit="10" d="M365.02-554.19
		c-9.11-16.69-15.95-40.09,1.36-58.76c9.05-9.78,21.52-14.71,37.06-14.71c7.28,0,15.13,1.09,23.37,3.23
		C413.14-593.71,391.25-568.84,365.02-554.19z M403.44-629.94c-16.2,0-29.23,5.19-38.72,15.43c-19.56,21.1-9.11,48.15-1.14,62.41
		l0.55,0.98l0.99-0.54c27.46-15.01,50.29-40.97,64.31-73.08l0.53-1.2l-1.26-0.35C419.8-628.71,411.3-629.94,403.44-629.94z"/>
</g>
<g transform="matrix(.35278 0 0 -.35278 38.765 162.61)">
	<path fill="#CFCFCF" d="M306.37-582.39c25.89,15.76,32.94,32.3,34.31,43.43c-7.67,1.77-15.57,2.74-23.64,2.74
		c-26.43,0-51.02-8.54-71.59-23.18C254.43-575.94,274.58-601.8,306.37-582.39"/>
</g>
<g transform="matrix(.35278 0 0 -.35278 39.67 161.66)">
	<path fill="#E5E5E5" d="M335.38-551.95c1.52,3.78,2.37,7.28,2.75,10.38c-7.67,1.75-15.56,2.73-23.64,2.73
		c-26.43,0-51.02-8.54-71.59-23.18c2.67-4.91,6.32-10.64,10.97-15.75c0.3,0.2,0.59,0.42,0.9,0.63
		C280.11-560.27,309.17-554.21,335.38-551.95"/>
</g>
<g transform="matrix(.35278 0 0 -.35278 37.061 161.96)">
	<path fill="#1E276A" d="M251.76-561.57c7.33-13.17,19.67-28.42,37.54-28.42c6.79,0,13.96,2.27,21.3,6.75
		c24.7,15.07,31.99,30.75,33.64,41.59c-7.5,1.65-15.02,2.48-22.38,2.48C296.91-539.17,272.69-546.91,251.76-561.57 M289.3-592.25
		c-19.4,0-32.47,16.58-40.03,30.48l-0.48,0.89l0.83,0.57c21.5,15.31,46.49,23.4,72.24,23.4c7.86,0,15.9-0.92,23.89-2.77l1.01-0.23
		l-0.13-1.01c-1.41-11.36-8.59-28.25-34.84-44.27C304.08-589.87,296.53-592.25,289.3-592.25"/>
	<path fill="none" stroke="#1E276A" stroke-width="1.4891" stroke-miterlimit="10" d="M251.76-561.57
		c7.33-13.17,19.67-28.42,37.54-28.42c6.79,0,13.96,2.27,21.3,6.75c24.7,15.07,31.99,30.75,33.64,41.59
		c-7.5,1.65-15.02,2.48-22.38,2.48C296.91-539.17,272.69-546.91,251.76-561.57z M289.3-592.25c-19.4,0-32.47,16.58-40.03,30.48
		l-0.48,0.89l0.83,0.57c21.5,15.31,46.49,23.4,72.24,23.4c7.86,0,15.9-0.92,23.89-2.77l1.01-0.23l-0.13-1.01
		c-1.41-11.36-8.59-28.25-34.84-44.27C304.08-589.87,296.53-592.25,289.3-592.25z"/>
</g>
<g transform="matrix(.35278 0 0 -.35278 36.769 164.8)">
	<path fill="#CFCFCF" d="M242.4-652.58c11.4,30.35-9.42,56.42-22.17,68.78c-17.76-24.29-28.4-55.02-28.4-88.47
		c0-7.7,0.64-15.39,1.82-22.94C206.76-691.35,231.09-680.59,242.4-652.58"/>
</g>
<g transform="matrix(.35278 0 0 -.35278 36.133 162.83)">
	<path fill="#E5E5E5" d="M222.01-589.44c-17.75-24.29-28.41-55.02-28.41-88.46c0-7.7,0.64-15.38,1.84-22.97
		c2.81,0.83,6.15,2.01,9.74,3.57c0.91,34.06,9.2,67.83,28.66,94.29C229.88-597.54,225.62-592.94,222.01-589.44"/>
</g>
<g transform="matrix(.35278 0 0 -.35278 36.137 162.88)">
	<path fill="#1E276A" d="M222.15-591.04c-17.94-25.01-27.42-54.97-27.42-86.73c0-7.05,0.54-14.28,1.63-21.5
		c13.38,4.19,36.03,15,46.77,41.59C253.93-628.86,235.09-603.89,222.15-591.04 M194.52-702.2l-0.2,1.28
		c-1.23,7.77-1.85,15.54-1.85,23.14c0,32.7,9.89,63.54,28.63,89.14l0.77,1.06l0.94-0.92c13.33-12.94,33.97-39.25,22.45-70
		c-11.45-28.35-35.92-39.31-49.5-43.32L194.52-702.2z"/>
	<path fill="none" stroke="#1E276A" stroke-width="1.4891" stroke-miterlimit="10" d="M222.15-591.04
		c-17.94-25.01-27.42-54.97-27.42-86.73c0-7.05,0.54-14.28,1.63-21.5c13.38,4.19,36.03,15,46.77,41.59
		C253.93-628.86,235.09-603.89,222.15-591.04z M194.52-702.2l-0.2,1.28c-1.23,7.77-1.85,15.54-1.85,23.14
		c0,32.7,9.89,63.54,28.63,89.14l0.77,1.06l0.94-0.92c13.33-12.94,33.97-39.25,22.45-70c-11.45-28.35-35.92-39.31-49.5-43.32
		L194.52-702.2z"/>
</g>
<g transform="matrix(.35278 0 0 -.35278 43.757 156.73)">
	<path fill="#6A9CCE" d="M466.35-393.95c0,0-48.46-358.82,218.77-365.63c267.24-6.81,510.24-4.55,448.9,206.66
		c-49.97,143.07-174.86,158.97-174.86,158.97c-21.58,59.57-89.71,179.99-155.9,153.31C746.95-263.37,466.35-393.95,466.35-393.95"/>
</g>
<g transform="matrix(.35278 0 0 -.35278 55.41 165.19)">
	<path fill="#90B5DF" d="M839.82-665.07c24.97,65.86,93.11,88.57,161.25,109c18.16,4.54,27.24,24.99,29.51,43.15
		c10.43,53.88-23.03,93.1-58.65,128.92c-26.5,11.7-45.81,14.17-45.81,14.17c-10.75,29.65-33.05,74.39-60.88,108.54
		c-23.63,5.66-46.67,2.47-59.5-19.99c-56.77-93.1-170.31-158.97-272.51-106.74c2.27-13.62-6.82-24.97-15.91-31.79
		c-29.92-20.48-58.75-9.28-87.26,2.55c-2.45-97.73,15.63-312.95,222.01-318.22c61.85-1.58,122.38-2.67,178.17-0.79
		C828.86-712.66,831.42-688.88,839.82-665.07"/>
</g>
<g transform="matrix(.35278 0 0 -.35278 43.787 156.75)">
	<path fill="#1E276A" d="M467.31-394.59c-1.49-12.04-22.14-194.48,64.17-295.79c36.99-43.42,88.67-66.28,153.57-67.94
		c34.55-0.88,75.05-1.78,113.62-1.78h0.03c130.5,0,270.82,9.21,322.13,77.58c24.07,32.03,28,74.38,12.02,129.4
		c-49.14,140.74-172.68,158.01-173.92,158.18l-0.69,0.08l-0.23,0.65c-18.5,51.01-75.93,156.35-135.48,156.35
		c-6.44,0-12.81-1.25-18.94-3.71C749.16-263.53,481.54-387.97,467.31-394.59 M798.71-762.36h-0.03c-38.59,0-79.11,0.9-113.68,1.76
		c-65.59,1.7-117.83,24.82-155.27,68.77c-89.46,105.02-64.84,296.26-64.6,298.16l0.09,0.62l0.56,0.27
		c2.81,1.31,281.26,130.86,336.98,153.32c6.38,2.57,13.03,3.88,19.78,3.88c60.5,0,118.47-105.47,137.37-157.2
		c4.83-0.74,34.25-5.94,68.44-25.89c34.35-20.03,80.75-59.51,106.67-133.73c16.21-55.85,12.16-98.83-12.35-131.47
		C1070.74-753.04,929.76-762.36,798.71-762.36"/>
	<path fill="none" stroke="#1E276A" stroke-width="1.4891" stroke-miterlimit="10" d="M467.31-394.59
		c-1.49-12.04-22.14-194.48,64.17-295.79c36.99-43.42,88.67-66.28,153.57-67.94c34.55-0.88,75.05-1.78,113.62-1.78h0.03
		c130.5,0,270.82,9.21,322.13,77.58c24.07,32.03,28,74.38,12.02,129.4c-49.14,140.74-172.68,158.01-173.92,158.18l-0.69,0.08
		l-0.23,0.65c-18.5,51.01-75.93,156.35-135.48,156.35c-6.44,0-12.81-1.25-18.94-3.71C749.16-263.53,481.54-387.97,467.31-394.59z
		 M798.71-762.36h-0.03c-38.59,0-79.11,0.9-113.68,1.76c-65.59,1.7-117.83,24.82-155.27,68.77
		c-89.46,105.02-64.84,296.26-64.6,298.16l0.09,0.62l0.56,0.27c2.81,1.31,281.26,130.86,336.98,153.32
		c6.38,2.57,13.03,3.88,19.78,3.88c60.5,0,118.47-105.47,137.37-157.2c4.83-0.74,34.25-5.94,68.44-25.89
		c34.35-20.03,80.75-59.51,106.67-133.73c16.21-55.85,12.16-98.83-12.35-131.47C1070.74-753.04,929.76-762.36,798.71-762.36z"/>
</g>
<g transform="matrix(.35278 0 0 -.35278 49.292 160.01)">
	<path fill="#6A9CCE" d="M643.75-499.06c-7.14-33.61-38.66-46.86-52.28-86.6c-13.63-39.75-14.75-147.61-20.44-177.14
		c-5.67-29.51-28.4-97.66-9.09-128.31c19.31-30.66,101.05-55.62,147.62-52.23c46.54,3.4,127.66-7.46,118.09,65.87
		c-22.71,173.72,31.99,233.02-6.61,316.75L643.75-499.06z"/>
</g>
<g transform="matrix(.35278 0 0 -.35278 52.025 169.49)">
	<path fill="#90B5DF" d="M731.34-802.89c15.3,91.74,22.21,189.78,87.39,255.74c-1.57,4.4-4.59,11.56-6.67,16.08l-176.06,58.92
		c-7.14-33.6-38.66-46.86-52.28-86.6c-13.64-39.75-14.76-147.61-20.44-177.14c-5.67-29.53-28.4-97.65-9.1-128.31
		c11.31-17.94,44.02-33.93,78.53-43.43c21.61,2.55,42.12,9.07,60,22.99C717.71-866.47,726.8-834.69,731.34-802.89"/>
</g>
<g transform="matrix(.35278 0 0 -.35278 48.119 162.33)">
	<path fill="#CFCFCF" d="M606.15-573.42c9.63,26.96,40.47,50.67,41.32,80.78l-0.39,0.14c-7.14-33.6-38.65-46.84-52.28-86.59
		c-13.63-39.74-14.76-147.62-20.44-177.13c-3.69-19.19-14.57-54.66-16.43-85.57c9.72,33.71,28.04,63.88,32.33,98.05
		C597.07-686.96,587.98-627.92,606.15-573.42"/>
</g>
<g transform="matrix(.35278 0 0 -.35278 50.922 172.79)">
	<path fill="#1E276A" d="M695.99-908.65c-47.94,0-121.48,24.21-139.64,53.07c-15.9,25.25-3.75,75.51,4.29,108.76
		c1.91,7.94,3.57,14.81,4.64,20.37c2.08,10.76,3.55,32.03,5.24,56.68c2.92,42.46,6.56,95.29,15.24,120.62
		c6.91,20.14,18,33.17,28.72,45.78c10.37,12.2,20.18,23.71,24.63,40.45c0,0-0.87-17.91-22.89-41.93
		c-10.6-12.44-21.54-25.3-28.31-45.04c-8.58-25.04-12.21-77.71-15.13-120.03c-1.69-24.71-3.19-46.07-5.26-56.95
		c-1.08-5.63-2.74-12.49-4.68-20.47c-7.94-32.88-19.95-82.58-4.57-107.03c18.99-30.16,99.99-55.11,146.58-51.7
		c6.95,0.51,14.61,0.71,22.73,0.9c31.81,0.79,67.86,1.68,85.09,21.79c8.59,10.02,11.61,23.72,9.23,41.9
		c-11.09,84.84-3.78,143.38,2.11,190.43c6.28,50.27,10.82,86.6-8.82,129.21c0,0,10.96-18.59,14.12-38.17
		c4.77-28.84,1.16-57.64-3.05-91.34c-5.86-46.9-13.15-105.29-2.1-189.85c2.42-18.57-0.87-33.27-9.76-43.66
		c-17.88-20.87-54.47-21.79-86.77-22.57c-8.07-0.21-15.7-0.39-22.62-0.9C702.12-908.54,699.11-908.65,695.99-908.65"/>
	<path fill="none" stroke="#1E276A" stroke-width="1.4891" stroke-miterlimit="10" d="M695.99-908.65
		c-47.94,0-121.48,24.21-139.64,53.07c-15.9,25.25-3.75,75.51,4.29,108.76c1.91,7.94,3.57,14.81,4.64,20.37
		c2.08,10.76,3.55,32.03,5.24,56.68c2.92,42.46,6.56,95.29,15.24,120.62c6.91,20.14,18,33.17,28.72,45.78
		c10.37,12.2,20.18,23.71,24.63,40.45c0,0-0.87-17.91-22.89-41.93c-10.6-12.44-21.54-25.3-28.31-45.04
		c-8.58-25.04-12.21-77.71-15.13-120.03c-1.69-24.71-3.19-46.07-5.26-56.95c-1.08-5.63-2.74-12.49-4.68-20.47
		c-7.94-32.88-19.95-82.58-4.57-107.03c18.99-30.16,99.99-55.11,146.58-51.7c6.95,0.51,14.61,0.71,22.73,0.9
		c31.81,0.79,67.86,1.68,85.09,21.79c8.59,10.02,11.61,23.72,9.23,41.9c-11.09,84.84-3.78,143.38,2.11,190.43
		c6.28,50.27,10.82,86.6-8.82,129.21c0,0,10.96-18.59,14.12-38.17c4.77-28.84,1.16-57.64-3.05-91.34
		c-5.86-46.9-13.15-105.29-2.1-189.85c2.42-18.57-0.87-33.27-9.76-43.66c-17.88-20.87-54.47-21.79-86.77-22.57
		c-8.07-0.21-15.7-0.39-22.62-0.9C702.12-908.54,699.11-908.65,695.99-908.65z"/>
</g>
<g transform="matrix(.35278 0 0 -.35278 52.284 166.95)">
	<path fill="#1E276A" d="M739.64-721.48c-60.03,60.76-125.93,25.9-126.58,25.55c0,0,27.34,17.03,63.55,11.14
		C721.25-693.63,739.64-721.48,739.64-721.48"/>
	<path fill="none" stroke="#1E276A" stroke-width="1.4891" stroke-miterlimit="10" d="M739.64-721.48
		c-60.03,60.76-125.93,25.9-126.58,25.55c0,0,27.34,17.03,63.55,11.14C721.25-693.63,739.64-721.48,739.64-721.48z"/>
</g>
<g transform="matrix(.35278 0 0 -.35278 50.329 168.67)">
	<path fill="#1E276A" d="M676.99-776.6c-55.81,0-68.51,31.78-68.51,31.78c0.22-0.48,22.87-47.27,121.32-22.09
		C729.79-766.91,705.1-776.6,676.99-776.6"/>
	<path fill="none" stroke="#1E276A" stroke-width="1.4891" stroke-miterlimit="10" d="M676.99-776.6
		c-55.81,0-68.51,31.78-68.51,31.78c0.22-0.48,22.87-47.27,121.32-22.09C729.79-766.91,705.1-776.6,676.99-776.6z"/>
</g>
<g transform="matrix(.35278 0 0 -.35278 48.119 170.42)">
	<path fill="#E5E5E5" d="M606.15-832.69c-17.53,7.02-36.05-5.18-46.58-14.25c1.21-5.4,3.06-10.32,5.7-14.51
		c12.96-20.58,54.08-38.6,93.79-47.18C649.47-877.6,631.19-842.71,606.15-832.69"/>
	<path fill="#FFFFFF" d="M606.15-832.69c-17.53,7.02-36.05-5.18-46.58-14.25c1.21-5.4,3.06-10.32,5.7-14.51
		c2.82-4.51,6.99-8.86,12.19-13.04c22.04-3.84,46.98-4.88,62.48,9.23C630.78-850.27,619.41-838,606.15-832.69"/>
</g>
<g transform="matrix(.35278 0 0 -.35278 46.82 170.84)">
	<path fill="#1E276A" d="M564.52-846.15c1.25-5.26,3.05-9.78,5.38-13.49c13.13-20.86,54.9-38.13,91.18-46.25
		c-5.29,16.43-22.2,61.57-51.68,73.36c-3.33,1.33-6.88,2-10.54,2C585.74-830.54,573.03-838.93,564.52-846.15 M664.4-908.95
		l-1.89,0.42c-37.17,8.04-80.81,25.9-94.53,47.68c-2.57,4.09-4.53,9.08-5.83,14.88l-0.16,0.66l0.52,0.45
		c8.8,7.58,22.27,16.62,36.35,16.62c3.96,0,7.8-0.73,11.39-2.18c31.61-12.64,49-61.87,53.56-76.66L664.4-908.95z"/>
	<path fill="none" stroke="#1E276A" stroke-width="1.4891" stroke-miterlimit="10" d="M564.52-846.15
		c1.25-5.26,3.05-9.78,5.38-13.49c13.13-20.86,54.9-38.13,91.18-46.25c-5.29,16.43-22.2,61.57-51.68,73.36
		c-3.33,1.33-6.88,2-10.54,2C585.74-830.54,573.03-838.93,564.52-846.15z M664.4-908.95l-1.89,0.42
		c-37.17,8.04-80.81,25.9-94.53,47.68c-2.57,4.09-4.53,9.08-5.83,14.88l-0.16,0.66l0.52,0.45c8.8,7.58,22.27,16.62,36.35,16.62
		c3.96,0,7.8-0.73,11.39-2.18c31.61-12.64,49-61.87,53.56-76.66L664.4-908.95z"/>
</g>
<g transform="matrix(.35278 0 0 -.35278 51.2 171.25)">
	<path fill="#E5E5E5" d="M704.9-859.29c-26.08-0.6-40.09-34.42-44.94-49.08c16.03-2.87,31.43-4.08,44.19-3.15
		c15.26,1.12,34.25,0.69,52.54,2.21C747.52-884.68,733.44-858.64,704.9-859.29"/>
</g>
<g transform="matrix(.35278 0 0 -.35278 51.493 171.28)">
	<path fill="#FFFFFF" d="M714.29-860.25c-3.2,0.72-6.58,1.08-10.23,1c-26.08-0.6-40.1-34.41-44.94-49.08
		c4.92-0.89,9.78-1.58,14.51-2.14C693.47-899.95,708.21-883,714.29-860.25"/>
</g>
<g transform="matrix(.35278 0 0 -.35278 49.955 172.63)">
	<path fill="#1E276A" d="M665-903.52c12.26-2.13,23.61-3.19,33.77-3.19c3.07,0,6.04,0.09,8.83,0.3c6.95,0.51,14.61,0.7,22.74,0.89
		c9.27,0.23,18.85,0.47,28.3,1.2c-8.57,22.6-21.95,47.88-49.17,47.88c-0.33,0-0.66,0-1.01-0.01
		C683.8-857.02,670.09-888.6,665-903.52 M698.77-909c-10.65,0-22.58,1.18-35.48,3.47l-1.29,0.22l0.41,1.27
		c4.9,14.78,19.19,49.24,46,49.85c29.91,0.66,43.98-26.83,52.88-50.75l0.52-1.39l-1.49-0.14c-10.01-0.83-20.14-1.07-29.95-1.31
		c-8.07-0.2-15.71-0.39-22.61-0.89C704.92-908.9,701.9-909,698.77-909"/>
	<path fill="none" stroke="#1E276A" stroke-width="1.4891" stroke-miterlimit="10" d="M665-903.52c12.26-2.13,23.61-3.19,33.77-3.19
		c3.07,0,6.04,0.09,8.83,0.3c6.95,0.51,14.61,0.7,22.74,0.89c9.27,0.23,18.85,0.47,28.3,1.2c-8.57,22.6-21.95,47.88-49.17,47.88
		c-0.33,0-0.66,0-1.01-0.01C683.8-857.02,670.09-888.6,665-903.52z M698.77-909c-10.65,0-22.58,1.18-35.48,3.47l-1.29,0.22
		l0.41,1.27c4.9,14.78,19.19,49.24,46,49.85c29.91,0.66,43.98-26.83,52.88-50.75l0.52-1.39l-1.49-0.14
		c-10.01-0.83-20.14-1.07-29.95-1.31c-8.07-0.2-15.71-0.39-22.61-0.89C704.92-908.9,701.9-909,698.77-909z"/>
</g>
<g transform="matrix(.35278 0 0 -.35278 54.583 171.07)">
	<path fill="#E5E5E5" d="M813.32-853.53c-10.34,3.14-24.42,3.56-40.76-6.04c-28.56-16.79-24.51-41.45-22.16-49.71
		C784.56-905.96,815.3-895.05,813.32-853.53"/>
</g>
<g transform="matrix(.35278 0 0 -.35278 54.199 171.05)">
	<path fill="#1E276A" d="M801.01-852.88c-8.86,0-17.88-2.64-26.79-7.89c-26.54-15.61-24.44-37.77-21.9-47.51
		c29.48,2.98,62.55,11.97,60.99,53.68C809.27-853.46,805.14-852.88,801.01-852.88 M750.64-910.72l-0.25,0.92
		c-2.17,7.56-6.9,33.6,22.68,51.01c13.87,8.12,28.19,10.23,41.66,6.14l0.77-0.24l0.04-0.79c2.14-44.76-33.06-53.94-63.96-56.93
		L750.64-910.72z"/>
	<path fill="none" stroke="#1E276A" stroke-width="1.4891" stroke-miterlimit="10" d="M801.01-852.88c-8.86,0-17.88-2.64-26.79-7.89
		c-26.54-15.61-24.44-37.77-21.9-47.51c29.48,2.98,62.55,11.97,60.99,53.68C809.27-853.46,805.14-852.88,801.01-852.88z
		 M750.64-910.72l-0.25,0.92c-2.17,7.56-6.9,33.6,22.68,51.01c13.87,8.12,28.19,10.23,41.66,6.14l0.77-0.24l0.04-0.79
		c2.14-44.76-33.06-53.94-63.96-56.93L750.64-910.72z"/>
</g>
<g transform="matrix(.35278 0 0 -.35278 44.082 156.83)">
	<path fill="#6A9CCE" d="M476.77-397.15c0,0-25.5-31.73-52.24-65.86c-35.59-45.41-56.77-220.25-122.7-382.12
		c-7.88-23.27,51.11-68.69,160.15-70.95c109.02-2.29,120.01,20.44,120.01,20.44s53.76,258.19-12.93,356.6L476.77-397.15z"/>
</g>
<g transform="matrix(.35278 0 0 -.35278 44.485 167.4)">
	<path fill="#90B5DF" d="M489.68-735.91c4.54,11.35,27.95,48.9,39.31,53.45c49.34,48.42,65.88,126.77,40.49,170.95
		c-0.52,0.81-1.02,1.65-1.56,2.43l-54.63,83.99c-22.93-0.22-45.39,11.51-67.71,20.18c-6.91-8.73-14.49-18.33-22.19-28.14
		c-35.56-45.43-56.77-220.25-122.68-382.12c-6.46-19.01,31.8-52.82,105.52-65.77c5.86,1.57,11.61,3.58,17.16,6.16
		C486.98-845.25,469.27-794.96,489.68-735.91"/>
</g>
<g transform="matrix(.35278 0 0 -.35278 40.452 166.51)">
	<path fill="#CFCFCF" d="M360.44-707.38c36.42,97.01,31.04,204.87,94.45,297.31c-6.33-7.99-13.14-16.61-20.04-25.44
		c-35.47-45.28-56.65-219.15-122.09-380.59C329.8-802.87,353.13-726.84,360.44-707.38"/>
</g>
<g transform="matrix(.35278 0 0 -.35278 44.087 171.74)">
	<path fill="#1E276A" d="M476.93-875c-4.78,0-9.76,0.05-14.98,0.17c-83.08,1.73-139.41,28.89-156.6,53.39
		c-4.88,6.95-6.46,13.55-4.58,19.06c33.04,81.14,55.1,166.58,72.84,235.21c17.95,69.5,32.14,124.39,50.03,147.24
		c26.43,33.74,52,65.55,52.24,65.86l1.78-1.42c-0.27-0.31-25.8-32.11-52.24-65.86c-17.58-22.45-31.73-77.14-49.61-146.4
		c-17.75-68.69-39.85-154.2-72.92-235.42c-1.6-4.75-0.12-10.62,4.31-16.97c16.87-24.05,72.53-50.71,154.8-52.43
		c103.44-2.15,117.94,18.11,118.92,19.69c1.58,7.88,52.16,261.18-12.8,357.05c0,0,14.25-10.82,22.17-44.54
		c33.01-115.32-6.72-310.86-7.19-313.12l-0.1-0.27C582.58-854.67,571.59-875,476.93-875"/>
	<path fill="none" stroke="#1E276A" stroke-width="1.4891" stroke-miterlimit="10" d="M476.93-875c-4.78,0-9.76,0.05-14.98,0.17
		c-83.08,1.73-139.41,28.89-156.6,53.39c-4.88,6.95-6.46,13.55-4.58,19.06c33.04,81.14,55.1,166.58,72.84,235.21
		c17.95,69.5,32.14,124.39,50.03,147.24c26.43,33.74,52,65.55,52.24,65.86l1.78-1.42c-0.27-0.31-25.8-32.11-52.24-65.86
		c-17.58-22.45-31.73-77.14-49.61-146.4c-17.75-68.69-39.85-154.2-72.92-235.42c-1.6-4.75-0.12-10.62,4.31-16.97
		c16.87-24.05,72.53-50.71,154.8-52.43c103.44-2.15,117.94,18.11,118.92,19.69c1.58,7.88,52.16,261.18-12.8,357.05
		c0,0,14.25-10.82,22.17-44.54c33.01-115.32-6.72-310.86-7.19-313.12l-0.1-0.27C582.58-854.67,571.59-875,476.93-875z"/>
</g>
<g transform="matrix(.35278 0 0 -.35278 40.434 169.55)">
	<path fill="#E5E5E5" d="M359.86-804.81c-16.1,7.09-36.36-2.56-48.25-9.88c1.56-17.16,31-41.57,83.7-55.16
		C390.36-851.23,378.12-812.85,359.86-804.81"/>
</g>
<g transform="matrix(.35278 0 0 -.35278 40.99 170.18)">
	<path fill="#FFFFFF" d="M377.69-825c-5.39,10.11-11.9,18.57-19.41,21.88c-16.1,7.09-36.37-2.54-48.25-9.87
		c0.9-10.02,11.34-22.52,30.33-33.86C356.89-844.75,372.91-838.15,377.69-825"/>
</g>
<g transform="matrix(.35278 0 0 -.35278 39.085 169.85)">
	<path fill="#1E276A" d="M316.63-814.43c2.21-16.45,30.39-39.56,80.89-52.96c-4.83,17.59-16.89,54.73-34.31,62.39
		c-3.59,1.59-7.63,2.37-12.02,2.37C338.73-802.63,325.63-808.95,316.63-814.43 M400.71-870.56l-1.87,0.48
		c-53.42,13.76-82.98,38.66-84.55,56.14l-0.06,0.71l0.6,0.36c9.24,5.72,23.07,12.52,36.36,12.52c4.7,0,9.05-0.86,12.93-2.57
		c18.3-8.06,30.46-44.66,36.1-65.78L400.71-870.56z"/>
	<path fill="none" stroke="#1E276A" stroke-width="1.4891" stroke-miterlimit="10" d="M316.63-814.43
		c2.21-16.45,30.39-39.56,80.89-52.96c-4.83,17.59-16.89,54.73-34.31,62.39c-3.59,1.59-7.63,2.37-12.02,2.37
		C338.73-802.63,325.63-808.95,316.63-814.43z M400.71-870.56l-1.87,0.48c-53.42,13.76-82.98,38.66-84.55,56.14l-0.06,0.71l0.6,0.36
		c9.24,5.72,23.07,12.52,36.36,12.52c4.7,0,9.05-0.86,12.93-2.57c18.3-8.06,30.46-44.66,36.1-65.78L400.71-870.56z"/>
</g>
<g transform="matrix(.35278 0 0 -.35278 43.333 170.36)">
	<path fill="#E5E5E5" d="M452.77-830.77c-21.55-0.13-39.18-25.61-47.75-40.75c17.64-3.35,37.34-5.54,59.08-5.98
		c16.56-0.36,30.85-0.12,43.18,0.53C496.77-860.38,474.89-830.63,452.77-830.77"/>
</g>
<g transform="matrix(.35278 0 0 -.35278 43.741 170.47)">
	<path fill="#FFFFFF" d="M465.84-834.29c-4.65,2.32-9.44,3.7-14.21,3.68c-21.55-0.14-39.17-25.61-47.73-40.75
		c11.22-2.14,23.27-3.79,36.18-4.84C459.15-870.74,464.39-852.73,465.84-834.29"/>
</g>
<g transform="matrix(.35278 0 0 -.35278 42.016 171.51)">
	<path fill="#1E276A" d="M410.56-867.62c18.12-3.36,37.39-5.27,57.31-5.69c5.05-0.1,10.05-0.16,14.83-0.16
		c9.23,0,18.08,0.2,26.32,0.6c-11.08,17.18-31.7,44.03-52.35,44.03C436.21-828.98,419.29-852.58,410.56-867.62 M482.71-875.75
		c-4.79,0-9.82,0.05-14.89,0.16c-20.61,0.43-40.56,2.45-59.24,6.02l-1.55,0.3l0.77,1.38c8.7,15.37,26.61,41.18,48.72,41.32
		c22.57,0,44.44-29.28,55.49-46.74l1.05-1.65l-1.95-0.11C502.27-875.5,492.72-875.75,482.71-875.75"/>
	<path fill="none" stroke="#1E276A" stroke-width="1.4891" stroke-miterlimit="10" d="M410.56-867.62
		c18.12-3.36,37.39-5.27,57.31-5.69c5.05-0.1,10.05-0.16,14.83-0.16c9.23,0,18.08,0.2,26.32,0.6
		c-11.08,17.18-31.7,44.03-52.35,44.03C436.21-828.98,419.29-852.58,410.56-867.62z M482.71-875.75c-4.79,0-9.82,0.05-14.89,0.16
		c-20.61,0.43-40.56,2.45-59.24,6.02l-1.55,0.3l0.77,1.38c8.7,15.37,26.61,41.18,48.72,41.32c22.57,0,44.44-29.28,55.49-46.74
		l1.05-1.65l-1.95-0.11C502.27-875.5,492.72-875.75,482.71-875.75z"/>
</g>
<g transform="matrix(.35278 0 0 -.35278 47.098 171.12)">
	<path fill="#E5E5E5" d="M573.43-855.13c0,0,3.13,15.12,6.93,39.41c-45.15,12.35-65.93-40.03-71.76-58.52
		C566.48-869.52,573.43-855.13,573.43-855.13"/>
</g>
<g transform="matrix(.35278 0 0 -.35278 46.917 169.97)">
	<path fill="#1E276A" d="M567.64-818.27c-33.87,0-50.78-39.3-56.91-57.98c52.02,4.5,61.34,17,62.16,18.25
		c0.36,1.76,3.24,16.14,6.73,38.16C575.52-818.8,571.48-818.27,567.64-818.27 M507.55-878.79l0.49,1.61
		c5.8,18.4,23.22,61.18,59.6,61.18c4.36,0,8.94-0.65,13.55-1.9l0.99-0.28l-0.16-1c-3.78-24.03-6.93-39.31-6.96-39.47l-0.08-0.25
		c-0.3-0.61-7.91-15.05-65.75-19.77L507.55-878.79z"/>
	<path fill="none" stroke="#1E276A" stroke-width="1.4891" stroke-miterlimit="10" d="M567.64-818.27
		c-33.87,0-50.78-39.3-56.91-57.98c52.02,4.5,61.34,17,62.16,18.25c0.36,1.76,3.24,16.14,6.73,38.16
		C575.52-818.8,571.48-818.27,567.64-818.27z M507.55-878.79l0.49,1.61c5.8,18.4,23.22,61.18,59.6,61.18c4.36,0,8.94-0.65,13.55-1.9
		l0.99-0.28l-0.16-1c-3.78-24.03-6.93-39.31-6.96-39.47l-0.08-0.25c-0.3-0.61-7.91-15.05-65.75-19.77L507.55-878.79z"/>
</g>
<g transform="matrix(.35278 0 0 -.35278 44.84 165.69)">
	<path fill="#1E276A" d="M501.07-681.1c-51.03,52.5-104.82,21.33-105.36,21.02c0,0,24.53,16.83,57,9.84
		C482.19-656.84,501.07-681.1,501.07-681.1"/>
	<path fill="none" stroke="#1E276A" stroke-width="1.4891" stroke-miterlimit="10" d="M501.07-681.1
		c-51.03,52.5-104.82,21.33-105.36,21.02c0,0,24.53,16.83,57,9.84C482.19-656.84,501.07-681.1,501.07-681.1z"/>
</g>
<g transform="matrix(.35278 0 0 -.35278 43.111 167.69)">
	<path fill="#1E276A" d="M445.65-745.2c-15.78,0-29.36,3.21-40.63,9.64c-20.78,11.85-23.58,31.54-23.58,31.54
		c0.05-0.18,4.81-18.24,24.77-29.6c20.96-11.92,50.36-12.38,87.37-1.38C493.58-735.01,472.7-743.67,445.65-745.2"/>
	<path fill="none" stroke="#1E276A" stroke-width="1.4891" stroke-miterlimit="10" d="M445.65-745.2c-15.78,0-29.36,3.21-40.63,9.64
		c-20.78,11.85-23.58,31.54-23.58,31.54c0.05-0.18,4.81-18.24,24.77-29.6c20.96-11.92,50.36-12.38,87.37-1.38
		C493.58-735.01,472.7-743.67,445.65-745.2z"/>
</g>
<g transform="matrix(.35278 0 0 -.35278 57.93 160.54)">
	<path fill="#6A9CCE" d="M920.58-516.05c0,0-157.52-6.84-131.06-201.01c11.36-113.55,63.6-163.53,131.72-172.6
		c129.45-0.61,217.31,82.74,181.45,268.92L920.58-516.05z"/>
</g>
<g transform="matrix(.35278 0 0 -.35278 55.41 165.19)">
	<path fill="#90B5DF" d="M839.82-665.07c24.97,65.86,93.11,88.57,161.25,109c3.98,0.99,7.5,2.8,10.64,5.12l-83.96,48.29
		c0,0-157.52-6.85-131.08-201.01c7.11-71.11,30.25-117.27,63.29-144.09C835.64-789.21,817.92-727.15,839.82-665.07"/>
</g>
<g transform="matrix(.35278 0 0 -.35278 57.93 160.54)">
	<path fill="#CFCFCF" d="M920.58-516.05c0,0-157.52-6.84-131.06-201.01C786.53-543.33,920.58-516.05,920.58-516.05"/>
</g>
<g transform="matrix(.35278 0 0 -.35278 57.989 171.28)">
	<path fill="#1E276A" d="M922.47-860.25h-1.39c-76.62,10.2-122.5,70.24-132.84,173.61c-8.84,64.76,1.84,115.84,31.69,151.83
		c16.73,20.17,37.17,32.49,55.29,39.98c24.94,10.33,45.93,9.3,45.93,9.3c-0.6-0.05-60.38-3.58-99.48-50.75
		c-29.43-35.47-39.92-85.97-31.18-150.09c10.23-102.26,55.44-161.58,130.74-171.62h1.35c63.24-0.01,113.77,20.52,146.04,59.44
		c38.71,46.65,49.98,119.1,32.56,209.53l2.23,0.42c17.56-91.11,6.13-164.22-33.01-211.4C1037.65-839.44,986.53-860.25,922.47-860.25
		"/>
	<path fill="none" stroke="#1E276A" stroke-width="1.4891" stroke-miterlimit="10" d="M922.47-860.25h-1.39
		c-76.62,10.2-122.5,70.24-132.84,173.61c-8.84,64.76,1.84,115.84,31.69,151.83c16.73,20.17,37.17,32.49,55.29,39.98
		c24.94,10.33,45.93,9.3,45.93,9.3c-0.6-0.05-60.38-3.58-99.48-50.75c-29.43-35.47-39.92-85.97-31.18-150.09
		c10.23-102.26,55.44-161.58,130.74-171.62h1.35c63.24-0.01,113.77,20.52,146.04,59.44c38.71,46.65,49.98,119.1,32.56,209.53
		l2.23,0.42c17.56-91.11,6.13-164.22-33.01-211.4C1037.65-839.44,986.53-860.25,922.47-860.25z"/>
</g>
<g transform="matrix(.35278 0 0 -.35278 63.638 168.76)">
	<path fill="#266E9E" d="M1103.53-779.49c-16.68-94.6-104.73-147.84-187.09-137.58c-82.37,10.26-119.89,96.89-108,192.21
		c11.87,95.33,93.78,150.63,176.15,140.37C1066.92-594.77,1123.1-668.52,1103.53-779.49"/>
</g>
<g transform="matrix(.35278 0 0 -.35278 61.399 169.1)">
	<path fill="#4985B7" d="M1031.77-790.39c48.53,48.54,66.98,151.39,21.34,183.47c-17.93,12.38-39.03,20.31-62.22,23.19
		c-82.38,10.29-164.27-45.02-176.15-140.34c-6.68-53.63,2.28-104.5,26.05-140.59C857.07-888.04,929.56-899.39,1031.77-790.39"/>
</g>
<g transform="matrix(.35278 0 0 -.35278 61.278 163.45)">
	<path fill="#B5B5B5" d="M1027.88-609.32c-11.44,4.65-23.71,7.89-36.64,9.49c-82.36,10.26-164.26-45.03-176.14-140.35
		c-4.22-33.9-2.18-66.69,5.89-95.34c0.44,51.65,6.29,107.88,31.97,151.31C890.33-619.28,963.54-603.61,1027.88-609.32"/>
</g>
<g transform="matrix(.35278 0 0 -.35278 59.665 163.17)">
	<path fill="#1E276A" d="M976.19-600.34c-79.87,0-145.25-59.12-155.41-140.57c-5.95-47.79,0.63-93.01,18.54-127.34
		c19.2-36.79,49.79-58.79,88.47-63.62c6.65-0.82,13.43-1.25,20.2-1.25c70.22,0,149.65,47.38,165.63,137.92
		c9.91,56.12,1.05,104.86-25.57,140.92c-21.63,29.28-54.44,48.02-92.41,52.75C989.23-600.75,982.67-600.34,976.19-600.34
		 M948.01-935.38c-6.85,0-13.74,0.42-20.48,1.26c-39.45,4.92-70.64,27.33-90.22,64.83c-18.12,34.71-24.79,80.41-18.77,128.67
		c10.3,82.6,76.6,142.57,157.65,142.57c6.57,0,13.22-0.42,19.74-1.23c38.59-4.81,71.95-23.86,93.94-53.64
		c27.03-36.59,36-85.93,26.01-142.68C1099.68-887.37,1019.17-935.38,948.01-935.38"/>
	<path fill="none" stroke="#1E276A" stroke-width="1.4891" stroke-miterlimit="10" d="M976.19-600.34
		c-79.87,0-145.25-59.12-155.41-140.57c-5.95-47.79,0.63-93.01,18.54-127.34c19.2-36.79,49.79-58.79,88.47-63.62
		c6.65-0.82,13.43-1.25,20.2-1.25c70.22,0,149.65,47.38,165.63,137.92c9.91,56.12,1.05,104.86-25.57,140.92
		c-21.63,29.28-54.44,48.02-92.41,52.75C989.23-600.75,982.67-600.34,976.19-600.34z M948.01-935.38c-6.85,0-13.74,0.42-20.48,1.26
		c-39.45,4.92-70.64,27.33-90.22,64.83c-18.12,34.71-24.79,80.41-18.77,128.67c10.3,82.6,76.6,142.57,157.65,142.57
		c6.57,0,13.22-0.42,19.74-1.23c38.59-4.81,71.95-23.86,93.94-53.64c27.03-36.59,36-85.93,26.01-142.68
		C1099.68-887.37,1019.17-935.38,948.01-935.38z"/>
</g>
<g transform="matrix(.35278 0 0 -.35278 62.061 169.69)">
	<path fill="#1E276A" d="M1052.98-809.29c-0.13,0.13-13.92,13.76-68.73,25.62c-55.11,11.91-103.47,0.12-103.95,0
		c0,0,48.79,14.24,104.43,2.21C1040.44-793.5,1052.98-809.29,1052.98-809.29"/>
	<path fill="none" stroke="#1E276A" stroke-width="1.4891" stroke-miterlimit="10" d="M1052.98-809.29
		c-0.13,0.13-13.92,13.76-68.73,25.62c-55.11,11.91-103.47,0.12-103.95,0c0,0,48.79,14.24,104.43,2.21
		C1040.44-793.5,1052.98-809.29,1052.98-809.29z"/>
</g>
<g transform="matrix(.35278 0 0 -.35278 62.419 167.08)">
	<path fill="#CFCFCF" d="M1064.45-725.65c2.99-27.4,27.95-39.06,44.65-43.84c4.59,38.61-0.24,72.27-12.31,99.76
		C1083.27-678.15,1061.26-696.5,1064.45-725.65"/>
</g>
<g transform="matrix(.35278 0 0 -.35278 63.332 165.53)">
	<path fill="#1E276A" d="M1093.71-675.97c-13.29-8.53-33.72-26.39-30.7-54.13c2.87-26.48,27.32-37.91,42.54-42.49
		C1109.67-736.42,1105.69-703.92,1093.71-675.97 M1107.49-775.51l-1.27,0.38c-15.65,4.46-42.36,16.21-45.48,44.79
		c-3.23,29.77,19.22,48.48,32.87,57.01l1.12,0.69l0.53-1.2c12.69-28.94,16.86-62.69,12.4-100.34L1107.49-775.51z"/>
	<path fill="none" stroke="#1E276A" stroke-width="1.4891" stroke-miterlimit="10" d="M1093.71-675.97
		c-13.29-8.53-33.72-26.39-30.7-54.13c2.87-26.48,27.32-37.91,42.54-42.49C1109.67-736.42,1105.69-703.92,1093.71-675.97z
		 M1107.49-775.51l-1.27,0.38c-15.65,4.46-42.36,16.21-45.48,44.79c-3.23,29.77,19.22,48.48,32.87,57.01l1.12,0.69l0.53-1.2
		c12.69-28.94,16.86-62.69,12.4-100.34L1107.49-775.51z"/>
</g>
<g transform="matrix(.35278 0 0 -.35278 60.249 165.02)">
	<path fill="#CFCFCF" d="M994.9-659.63c39.06-2.71,70.56,11.57,85.3,19.9c-21.67,24.66-51.56,40.14-86.06,44.45
		c-17.16,2.14-34.3,1.4-50.77-1.94C945.95-618.82,956.01-656.93,994.9-659.63"/>
</g>
<g transform="matrix(.35278 0 0 -.35278 61.278 163.45)">
	<path fill="#E5E5E5" d="M1027.88-609.32c-0.16,0.07-0.28,0.16-0.45,0.23c-11.31,4.55-23.42,7.68-36.19,9.27
		c-17.16,2.14-34.3,1.4-50.77-1.92c0.52-4.29,1.32-9.25,2.59-14.44C970.58-608.39,1000.06-606.85,1027.88-609.32"/>
</g>
<g transform="matrix(.35278 0 0 -.35278 58.808 163.26)">
	<path fill="#1E276A" d="M948.73-603.22c2.79-21.93,13.08-57.78,50.35-60.38c3.2-0.22,6.46-0.32,9.66-0.32
		c33.28,0,60.06,11.84,73.77,19.4c-21.5,23.94-50.65,38.81-84.41,43.01C981.78-599.48,964.98-600.06,948.73-603.22 M1008.76-666.2
		h-0.01c-3.28,0-6.57,0.12-9.82,0.35c-39.5,2.74-49.91,40.91-52.59,63.42l-0.12,1.03l1.04,0.22c16.83,3.39,34.23,4.05,51.14,1.93
		c34.8-4.35,64.82-19.84,86.77-44.84l0.92-1.05l-1.22-0.68C1071.38-653.43,1043.58-666.2,1008.76-666.2"/>
	<path fill="none" stroke="#1E276A" stroke-width="1.4891" stroke-miterlimit="10" d="M948.73-603.22
		c2.79-21.93,13.08-57.78,50.35-60.38c3.2-0.22,6.46-0.32,9.66-0.32c33.28,0,60.06,11.84,73.77,19.4
		c-21.5,23.94-50.65,38.81-84.41,43.01C981.78-599.48,964.98-600.06,948.73-603.22z M1008.76-666.2h-0.01
		c-3.28,0-6.57,0.12-9.82,0.35c-39.5,2.74-49.91,40.91-52.59,63.42l-0.12,1.03l1.04,0.22c16.83,3.39,34.23,4.05,51.14,1.93
		c34.8-4.35,64.82-19.84,86.77-44.84l0.92-1.05l-1.22-0.68C1071.38-653.43,1043.58-666.2,1008.76-666.2z"/>
</g>
<g transform="matrix(.35278 0 0 -.35278 57.189 166.3)">
	<path fill="#CFCFCF" d="M896.83-700.65c31.87,28.4,13.17,68.75,2.66,86.12c-32.29-20.32-57.54-52.78-68.42-94.67
		C842.23-717.03,866.63-727.57,896.83-700.65"/>
</g>
<g transform="matrix(.35278 0 0 -.35278 55.304 166.55)">
	<path fill="#E5E5E5" d="M836.43-708.67c3.81-2.68,9.2-5.67,15.83-7.38c4.45,14.31,10.18,27.99,17.63,40.57
		c11.35,19.73,26.04,34.9,42.77,46.31c-2.57,6-5.4,11.2-7.81,15.18C872.55-634.31,847.31-666.76,836.43-708.67"/>
</g>
<g transform="matrix(.35278 0 0 -.35278 55.342 166.53)">
	<path fill="#1E276A" d="M837.65-708.02c5.59-3.8,14.37-8.1,25.39-8.1c12.74,0,25.63,5.75,38.31,17.03
		c30.89,27.5,12.96,66.95,3.04,83.68C871.57-636.4,847.92-669.22,837.65-708.02 M863.04-718.39c-12.06,0.01-21.53,4.87-27.35,8.96
		l-0.64,0.45l0.19,0.77c10.41,40.08,34.89,73.94,68.92,95.35l0.97,0.61l0.6-0.98c10.05-16.6,29.9-58.36-2.87-87.56
		C889.75-712.47,876.37-718.39,863.04-718.39"/>
	<path fill="none" stroke="#1E276A" stroke-width="1.4891" stroke-miterlimit="10" d="M837.65-708.02c5.59-3.8,14.37-8.1,25.39-8.1
		c12.74,0,25.63,5.75,38.31,17.03c30.89,27.5,12.96,66.95,3.04,83.68C871.57-636.4,847.92-669.22,837.65-708.02z M863.04-718.39
		c-12.06,0.01-21.53,4.87-27.35,8.96l-0.64,0.45l0.19,0.77c10.41,40.08,34.89,73.94,68.92,95.35l0.97,0.61l0.6-0.98
		c10.05-16.6,29.9-58.36-2.87-87.56C889.75-712.47,876.37-718.39,863.04-718.39z"/>
</g>
<g transform="matrix(.35278 0 0 -.35278 32.108 149.97)">
	<path fill="#90B5DF" d="M93.02-177.29c1.27-2.8,2.67-5.6,4.07-8.45c0.95-1.85,1.89-3.68,2.83-5.55
		c5.07-9.79,10.59-19.68,16.6-29.59c87.06-169.57,291.06-298.92,356.55-174.91L436.82,50.35l-8.96,110.12
		C217.33,342.92-45.6,114.22,93.02-177.29"/>
</g>
<g transform="matrix(.35278 0 0 -.35278 31.067 146.49)">
	<path fill="#FFFFFF" d="M59.66-65.76C52.82,145.2,260.47,271.69,432.98,122.21l8.94-110.13l33.99-418.12
		c0.02,0.06,0.09,0.15,0.12,0.22L439.77,40.31l-8.96,110.13C250.76,306.46,32.36,161.8,59.66-65.76"/>
</g>
<g transform="matrix(.35278 0 0 -.35278 32.108 149.97)">
	<path fill="#FF8CC8" d="M93.02-177.29c1.27-2.8,2.67-5.6,4.07-8.45c0.92-1.82,1.85-3.63,2.82-5.46c0,0,0.01-0.04,0.01-0.09
		c5.07-9.79,10.59-19.68,16.6-29.59c87.06-169.57,291.06-298.92,356.55-174.91L436.82,50.35l-73.72-5.43
		C195.71,197.49-3.17,29.26,93.02-177.29"/>
</g>
<g transform="matrix(.35278 0 0 -.35278 32.108 149.97)">
	<path fill="none" stroke="#1E276A" stroke-width="2.9782" stroke-miterlimit="10" d="M93.02-177.29c1.27-2.8,2.67-5.6,4.07-8.45
		c0.92-1.82,1.85-3.63,2.82-5.46c0,0,0.01-0.04,0.01-0.09c5.07-9.79,10.59-19.68,16.6-29.59
		c87.06-169.57,291.06-298.92,356.55-174.91L436.82,50.35l-73.72-5.43C195.71,197.49-3.17,29.26,93.02-177.29z"/>
	<path fill="none" stroke="#1E276A" stroke-width="2.9782" stroke-miterlimit="10" d="M93.02-177.29c1.27-2.8,2.67-5.6,4.07-8.45
		c0.95-1.85,1.89-3.68,2.83-5.55c5.07-9.79,10.59-19.68,16.6-29.59c87.06-169.57,291.06-298.92,356.55-174.91L436.82,50.35
		l-8.96,110.12C217.33,342.92-45.6,114.22,93.02-177.29z"/>
</g>
<g transform="matrix(.35278 0 0 -.35278 65.866 149.97)">
	<path fill="#90B5DF" d="M1174.93-177.29c-1.29-2.8-2.67-5.6-4.09-8.45c-0.94-1.85-1.88-3.68-2.83-5.55
		c-5.09-9.79-10.59-19.68-16.59-29.59c-87.07-169.57-291.05-298.92-356.56-174.91l36.25,446.13l8.96,110.12
		C1050.61,342.92,1313.55,114.22,1174.93-177.29"/>
</g>
<g transform="matrix(.35278 0 0 -.35278 66.907 146.49)">
	<path fill="#FFFFFF" d="M1208.29-65.76c6.85,210.96-200.82,337.45-373.31,187.97l-8.94-110.13l-34.02-418.12
		c-0.02,0.06-0.07,0.15-0.09,0.22l36.26,446.13l8.94,110.13C1017.2,306.46,1235.6,161.8,1208.29-65.76"/>
</g>
<g transform="matrix(.35278 0 0 -.35278 65.866 149.97)">
	<path fill="#FF8CC8" d="M1174.93-177.29c-1.29-2.8-2.67-5.6-4.09-8.45c-0.9-1.82-1.84-3.63-2.83-5.46v-0.09
		c-5.09-9.79-10.59-19.68-16.59-29.59c-87.07-169.57-291.05-298.92-356.56-174.91l36.25,446.13l73.71-5.43
		C1072.21,197.49,1271.09,29.26,1174.93-177.29"/>
</g>
<g transform="matrix(.35278 0 0 -.35278 65.866 149.97)">
	<path fill="none" stroke="#1E276A" stroke-width="2.9782" stroke-miterlimit="10" d="M1174.93-177.29c-1.29-2.8-2.67-5.6-4.09-8.45
		c-0.9-1.82-1.84-3.63-2.83-5.46v-0.09c-5.09-9.79-10.59-19.68-16.59-29.59c-87.07-169.57-291.05-298.92-356.56-174.91l36.25,446.13
		l73.71-5.43C1072.21,197.49,1271.09,29.26,1174.93-177.29z"/>
	<path fill="none" stroke="#1E276A" stroke-width="2.9782" stroke-miterlimit="10" d="M1174.93-177.29c-1.29-2.8-2.67-5.6-4.09-8.45
		c-0.94-1.85-1.88-3.68-2.83-5.55c-5.09-9.79-10.59-19.68-16.59-29.59c-87.07-169.57-291.05-298.92-356.56-174.91l36.25,446.13
		l8.96,110.12C1050.61,342.92,1313.55,114.22,1174.93-177.29z"/>
</g>
<g transform="matrix(.35278 0 0 -.35278 47.171 134.72)">
	<path fill="#90B5DF" d="M575.77,311.45c0.36-41.91-12.04-73.58-37.71-94.65c-9.83-8.06-21.35-13.82-33.48-17.63
		c-278-87.14-310.04-667.02,85.46-694.45c248.8-10.54,421.37,89.71,421.77,347.7C999.14,73.5,857.72,205.7,677.95,222.06
		c-2.23,18.74-8.7,35.51-26.44,47.16c0,0-11.41-39.72-43.11-42.1C624.12,270.19,607.28,296.58,575.77,311.45"/>
</g>
<g transform="matrix(.35278 0 0 -.35278 43.962 156.91)">
	<path fill="#6A9CCE" d="M472.92-399.71c35.9-17.97,77.87-29.58,126.23-32.93c248.77-10.56,421.35,89.72,421.73,347.69
		c-10.87,190.3-117.16,314.72-261.17,356.14c114.87-54.89,195.66-170.23,205.1-334.84c-0.12-75.6-15-137.64-42.27-187.33
		c-15.13-27.56-50.38-36.62-76.76-19.54l-33.31,21.56c11.68-36.41,10.13-73.91-0.8-112.16c-70.83-39.18-162.84-54.72-268.64-50.23
		C517.97-409.61,494.63-405.64,472.92-399.71"/>
</g>
<g transform="matrix(.35278 0 0 -.35278 47.171 134.72)">
	<path fill="none" stroke="#1E276A" stroke-width="2.9782" stroke-miterlimit="10" d="M575.77,311.45
		c0.36-41.91-12.04-73.58-37.71-94.65c-9.83-8.06-21.35-13.82-33.48-17.63c-278-87.14-310.04-667.02,85.46-694.45
		c248.8-10.54,421.37,89.71,421.77,347.7C999.14,73.5,857.72,205.7,677.95,222.06c-2.23,18.74-8.7,35.51-26.44,47.16
		c0,0-11.41-39.72-43.11-42.1C624.12,270.19,607.28,296.58,575.77,311.45z"/>
</g>
<g transform="matrix(.35278 0 0 -.35278 42.256 162.05)">
	<path fill="#90B5DF" d="M418.25-564.45c14.39-26.54,45.86-39.75,74.69-30.8c40.68,12.66,26.16,53.08,26.16,53.08
		c50.76-12.4,104.24-10.42,153.16,7.82c120.38,44.8,170.38,154.82,142.31,317.64l-232.85-31.75
		c24.61-115.49,35.23-215.37-35.62-216.92c-6.88-0.16-13.75,0.73-20.4,2.46C441.19-440.75,388.6-509.72,418.25-564.45"/>
</g>
<g transform="matrix(.35278 0 0 -.35278 44.085 161.24)">
	<path fill="#6A9CCE" d="M476.87-538.48c0.65-0.25,1.3-0.5,1.92-0.71c12.05-4.48,24.2-7.81,36.43-10.05
		c-0.66,3.03-1.32,4.88-1.32,4.88c20.02-4.89,40.4-7.53,60.81-7.83c31.37-0.46,62.69,4.61,92.35,15.65
		c120.37,44.82,170.38,154.83,142.31,317.63c-17.72-1.36-33.2-9.75-43.94-22.23c-10.73-12.48-16.74-29.06-15.56-46.83
		c5.42-82.87-6.5-147.44-47.89-191.44c0,0-0.03,0-0.03-0.04c-43.17-30.49-128.1-56.95-204.69-36.29c-4.01,1.08-8.25,1.49-12.32,0.65
		C475.69-517.03,471.7-523.63,476.87-538.48"/>
</g>
<g transform="matrix(.35278 0 0 -.35278 42.822 162.68)">
	<path fill="#6A9CCE" d="M436.39-584.63c15.66-10.9,35.86-14.66,54.93-8.75c31.98,9.96,29.85,37.09,27.5,48.2
		c-12.24,2.23-24.4,5.55-36.44,10.02c2.17-11.88,2.86-37.17-27.78-46.71C448.56-583.74,442.43-584.63,436.39-584.63"/>
</g>
<g transform="matrix(.35278 0 0 -.35278 -79.514 327.97)">
	<g>
		<g>
			<defs>
				<rect id="SVGID_1_" x="889.73" y="-76.53" width="7.86" height="1.5"/>
			</defs>
			<clipPath id="SVGID_2_">
				<use xlink:href="#SVGID_1_"  overflow="visible"/>
			</clipPath>
			<g opacity="0.3" clip-path="url(#SVGID_2_)">
				<g transform="translate(353.37 472.13)">
					<path fill="#1E276A" d="M510.94-544c0,0,0.68-1.84,1.32-4.87c19.62-3.65,39.44-4.53,59.49-2.97
						C551.34-551.52,530.96-548.88,510.94-544"/>
				</g>
				<g transform="translate(353.57 471.84)">
					<path fill="#102770" d="M513.19-547.28c8.07-1.46,16.29-2.47,24.63-3.02c-8.39,1.18-16.74,2.74-25.04,4.68
						C512.92-546.11,513.05-546.66,513.19-547.28 M511.76-549.92l-0.94,0.17l-0.22,0.94c-0.63,2.87-1.25,4.68-1.26,4.69l-0.9,2.5
						l2.59-0.62c19.94-4.86,40.31-7.49,60.48-7.79l0.1-2.87c-6.31-0.49-12.57-0.73-18.8-0.73
						C538.8-553.65,525.05-552.4,511.76-549.92"/>
				</g>
			</g>
		</g>
	</g>
</g>
<g transform="matrix(.35278 0 0 -.35278 46.942 152.99)">
	<path fill="none" stroke="#1E276A" stroke-width="2.9782" stroke-linecap="round" stroke-miterlimit="10" d="M568.43-274.09
		c24.61-115.47,35.21-215.36-35.63-216.91c-6.86-0.16-13.74,0.73-20.38,2.46c-84.52,22.16-137.11-46.8-107.46-101.53
		c14.41-26.55,45.85-39.75,74.69-30.8c40.68,12.67,26.16,53.08,26.16,53.08c50.76-12.4,104.24-10.42,153.15,7.82
		c120.39,44.8,170.4,154.82,142.32,317.62"/>
</g>
<g transform="matrix(.35278 0 0 -.35278 48.254 153.57)">
	<path fill="#102770" d="M610.49-292.67c0,0,43.75,57.03,122.21,11.28C732.69-281.38,657.49-266.35,610.49-292.67"/>
</g>
<g transform="matrix(.35278 0 0 -.35278 48.311 155.16)">
	<path fill="#102770" d="M612.31-343.62c0,0,38.22,49.84,106.77,9.85C719.08-333.77,653.37-320.62,612.31-343.62"/>
</g>
<g transform="matrix(.35278 0 0 -.35278 48.573 156.62)">
	<path fill="#102770" d="M620.71-390.41c0,0,30.87,40.25,86.24,7.94C706.95-382.47,653.88-371.85,620.71-390.41"/>
</g>
<g transform="matrix(.35278 0 0 -.35278 51.995 147.57)">
	<path fill="#B7B6B6" d="M730.38-100.38c0-50.21,32.93-90.9,73.55-90.9c40.62,0,73.55,40.69,73.55,90.9
		c0,50.22-32.93,90.92-73.55,90.92C763.31-9.46,730.38-50.15,730.38-100.38"/>
	<path fill="#FFFFFF" d="M730.38-100.38c0-58.23,144.59-61.86,147.1,0c2.04,50.2-32.93,90.92-73.55,90.92
		C763.31-9.46,730.38-50.15,730.38-100.38"/>
</g>
<g transform="matrix(.35278 0 0 -.35278 52.068 147.57)">
	<path fill="#1E276A" d="M732.72-100.38c0-49.03,31.87-88.93,71.01-88.93c39.19,0,71.05,39.9,71.05,88.93s-31.86,88.93-71.05,88.93
		C764.59-11.45,732.72-51.34,732.72-100.38 M727.68-100.38c0,51.23,34.12,92.91,76.06,92.91c41.97,0,76.08-41.68,76.08-92.91
		c0-51.23-34.12-92.9-76.08-92.9C761.8-193.27,727.68-151.61,727.68-100.38"/>
	<path fill="none" stroke="#1E276A" stroke-width="0.9942" stroke-miterlimit="10" d="M732.72-100.38
		c0-49.03,31.87-88.93,71.01-88.93c39.19,0,71.05,39.9,71.05,88.93s-31.86,88.93-71.05,88.93
		C764.59-11.45,732.72-51.34,732.72-100.38z M727.68-100.38c0,51.23,34.12,92.91,76.06,92.91c41.97,0,76.08-41.68,76.08-92.91
		c0-51.23-34.12-92.9-76.08-92.9C761.8-193.27,727.68-151.61,727.68-100.38z"/>
</g>
<g transform="matrix(.35278 0 0 -.35278 52.708 147.97)">
	<path fill="#0083FF" d="M753.23-113.19c0-29.82,19.26-53.98,43.04-53.98c23.78,0,43.05,24.16,43.05,53.98
		c0,29.81-19.26,53.98-43.05,53.98C772.49-59.21,753.23-83.39,753.23-113.19"/>
</g>
<g transform="matrix(.35278 0 0 -.35278 52.78 147.97)">
	<path fill="#102770" d="M755.53-113.19c0-28.67,18.21-51.99,40.53-51.99c22.35,0,40.53,23.32,40.53,51.99
		c0,28.66-18.17,51.99-40.53,51.99C773.74-61.21,755.53-84.53,755.53-113.19 M750.51-113.19c0,30.86,20.42,55.96,45.56,55.96
		c25.12,0,45.57-25.1,45.57-55.96c0-30.86-20.45-55.97-45.57-55.97C770.93-169.16,750.51-144.06,750.51-113.19"/>
</g>
<g transform="matrix(.35278 0 0 -.35278 53.032 148.02)">
	<path fill="#102770" d="M763.62-114.79c0-17.9,11.85-32.39,26.46-32.39c14.64,0,26.49,14.49,26.49,32.39
		c0,17.89-11.85,32.39-26.49,32.39C775.46-82.41,763.62-96.9,763.62-114.79"/>
</g>
<g transform="matrix(.35278 0 0 -.35278 53.61 147.25)">
	<path fill="#FFFFFF" d="M782.14-90.12c0-7.47,6.39-13.54,14.28-13.54c7.9,0,14.29,6.07,14.29,13.54c0,7.46-6.39,13.52-14.29,13.52
		C788.54-76.6,782.14-82.66,782.14-90.12"/>
</g>
<g transform="matrix(.35278 0 0 -.35278 46.779 147.84)">
	<path fill="#B7B6B6" d="M563.21-109.03c0-50.21-32.93-90.92-73.55-90.92c-40.62,0-73.55,40.7-73.55,90.92
		c0,50.21,32.93,90.92,73.55,90.92S563.21-58.82,563.21-109.03"/>
	<path fill="#FFFFFF" d="M563.21-109.03c0-58.22-144.57-61.84-147.09,0c-2.05,50.18,32.93,90.92,73.55,90.92
		S563.21-58.82,563.21-109.03"/>
</g>
<g transform="matrix(.35278 0 0 -.35278 44.671 145.29)">
	<path fill="#1E276A" d="M495.65-27.31c-39.16,0-71.01-39.9-71.01-88.92c0-49.03,31.85-88.93,71.01-88.93
		c39.18,0,71.03,39.9,71.03,88.93C566.67-67.2,534.82-27.31,495.65-27.31 M495.65-209.13c-41.93,0-76.07,41.68-76.07,92.91
		c0,51.23,34.14,92.91,76.07,92.91c41.94,0,76.08-41.68,76.08-92.91C571.73-167.46,537.59-209.13,495.65-209.13"/>
	<path fill="none" stroke="#1E276A" stroke-width="0.9942" stroke-miterlimit="10" d="M495.65-27.31
		c-39.16,0-71.01-39.9-71.01-88.92c0-49.03,31.85-88.93,71.01-88.93c39.18,0,71.03,39.9,71.03,88.93
		C566.67-67.2,534.82-27.31,495.65-27.31z M495.65-209.13c-41.93,0-76.07,41.68-76.07,92.91c0,51.23,34.14,92.91,76.07,92.91
		c41.94,0,76.08-41.68,76.08-92.91C571.73-167.46,537.59-209.13,495.65-209.13z"/>
</g>
<g transform="matrix(.35278 0 0 -.35278 46.067 148.24)">
	<path fill="#0083FF" d="M540.39-121.85c0-29.82-19.26-53.99-43.05-53.99c-23.78,0-43.04,24.17-43.04,53.99
		c0,29.81,19.26,53.99,43.04,53.99C521.12-67.87,540.39-92.05,540.39-121.85"/>
</g>
<g transform="matrix(.35278 0 0 -.35278 44.833 146.75)">
	<path fill="#102770" d="M500.85-74.1c-22.35,0-40.55-23.31-40.55-51.98c0-28.67,18.19-52,40.55-52c22.33,0,40.53,23.33,40.53,52
		C541.37-97.41,523.18-74.1,500.85-74.1 M500.85-182.05c-25.13,0-45.57,25.12-45.57,55.98c0,30.85,20.44,55.96,45.57,55.96
		s45.55-25.12,45.55-55.96C546.39-156.94,525.98-182.05,500.85-182.05"/>
</g>
<g transform="matrix(.35278 0 0 -.35278 45.743 148.29)">
	<path fill="#102770" d="M530.01-123.45c0-17.89-11.85-32.4-26.47-32.4c-14.63,0-26.47,14.51-26.47,32.4s11.85,32.39,26.47,32.39
		C518.16-91.06,530.01-105.56,530.01-123.45"/>
</g>
<g transform="matrix(.35278 0 0 -.35278 45.165 147.52)">
	<path fill="#FFFFFF" d="M511.48-98.77c0-7.47-6.41-13.53-14.29-13.53c-7.89,0-14.28,6.07-14.28,13.53
		c0,7.47,6.38,13.52,14.28,13.52C505.08-85.26,511.48-91.3,511.48-98.77"/>
</g>
</svg>
