<?xml version="1.0" encoding="utf-8"?>
<!-- Generator: Adobe Illustrator 16.0.0, SVG Export Plug-In . SVG Version: 6.00 Build 0)  -->
<!DOCTYPE svg PUBLIC "-//W3C//DTD SVG 1.1//EN" "http://www.w3.org/Graphics/SVG/1.1/DTD/svg11.dtd">
<svg version="1.1" id="Layer_1" xmlns="http://www.w3.org/2000/svg" xmlns:xlink="http://www.w3.org/1999/xlink" x="0px" y="0px"
	 width="544.6px" height="512.16px" viewBox="0 0 544.6 512.16" enable-background="new 0 0 544.6 512.16" xml:space="preserve">
<g transform="matrix(.35278 0 0 -.35278 45.27 248.02)">
	<path fill="#FF7300" d="M425.27-316.44c-32.47,45.66-75.11,58.88-155.29,46.7c-80.19-12.19-114.69,28.41-117.74,80.17
		c-3.04,51.77-111.45,55.7-96.42-35.52c14.21-86.27,82.22-112.68,173.57-97.44c81.88,13.65,155.29-28.42,166.44-67.01
		C424.26-393.57,438.48-341.81,425.27-316.44"/>
</g>
<g transform="matrix(.35278 0 0 -.35278 38.116 247.27)">
	<path fill="#FF8905" d="M182.67-291c93.45,0,210.46-3.01,258.05-86.9c10.51,16.32,13.28,43.27,4.84,59.49
		c-32.47,45.68-75.11,58.88-155.28,46.7c-80.2-12.19-114.71,28.4-117.76,80.17c-2.56,43.71-80.26,53.31-95.33,0.33
		C80.28-246.05,128.64-291,182.67-291"/>
</g>
<g transform="matrix(.35278 0 0 -.35278 38.061 247.46)">
	<path fill="#F7DDC4" d="M180.81-297.46c0,0,18.26,4.07,26.37,7.13c0,0-14.2,11.15-26.37,17.64c11.16,1.9,19.28,8.04,28.04,13.37
		c-23.2,14.77-34.48,39.92-36.17,68.46c-3.04,51.77-111.47,55.7-96.43-35.53c11.72-71.14,60.03-101.54,127.86-101.48
		C195.46-315.44,187.01-301.16,180.81-297.46"/>
</g>
<g transform="matrix(.35278 0 0 -.35278 38.116 247.27)">
	<path fill="#FCEEB6" d="M182.67-291c7.86,0,15.91-0.02,24.04-0.12c0.09,0.03,0.22,0.08,0.32,0.12c0,0-14.2,11.17-26.37,17.65
		c11.17,1.88,19.28,8.03,28.03,13.37c-23.2,14.77-34.47,39.9-36.17,68.45c-2.56,43.71-80.26,53.31-95.32,0.33
		C80.28-246.05,128.64-291,182.67-291"/>
</g>
<g transform="matrix(.35278 0 0 -.35278 44.512 249.95)">
	<path fill="#803A00" d="M399.57-381.88c0.52-0.04,1.05-0.08,1.57-0.08c9.91,0,16.54,7.55,20.38,13.86
		c9.96,16.39,11.8,41.7,4.12,56.48c-24.84,34.89-55.78,49.89-103.32,49.89c-14.65,0-30.96-1.39-49.88-4.28
		c-9.6-1.44-18.85-2.19-27.46-2.19c-55.72,0-89.45,30.71-92.6,84.26c-1.31,22.49-23.8,34.61-44.27,34.61
		c-15,0-28.66-5.98-37.53-16.42c-10.61-12.51-14.27-30.91-10.6-53.27c10.76-65.3,54.2-99.81,125.65-99.81
		c14.15,0,29.48,1.37,45.58,4.05c10.58,1.75,21.38,2.66,32.13,2.66C331.87-312.11,388.57-347.93,399.57-381.88 M401.14-386.01
		c-1.12,0-2.25,0.07-3.42,0.23l-1.29,0.2l-0.38,1.27c-9.52,32.91-65.12,68.15-132.71,68.15c-10.52,0-21.12-0.87-31.47-2.6
		c-16.3-2.72-31.89-4.1-46.24-4.1c-73.69,0-118.52,35.7-129.65,103.22c-3.9,23.55,0.09,43.09,11.51,56.52
		c9.63,11.36,24.45,17.87,40.62,17.87c22.32,0,46.85-13.47,48.32-38.44c3.01-51.13,35.28-80.45,88.55-80.45
		c8.42,0,17.46,0.72,26.85,2.15c19.13,2.9,35.64,4.32,50.49,4.32c48.99,0,80.94-15.5,106.77-51.84c8.42-16.12,6.52-43.24-4.08-60.71
		C418.82-380.4,410.35-386.01,401.14-386.01"/>
</g>
<g transform="matrix(.35278 0 0 -.35278 40.804 247.99)">
	<path fill="#803A00" d="M273.83-315.42c70.17,0,125.62-35.97,137.83-69.85c8.84,0.02,14.93,6.95,18.46,12.8
		c9.56,15.72,11.39,39.99,4.11,54.16c-24.41,34.23-54.76,48.83-101.42,48.83c-14.53,0-30.74-1.4-49.54-4.24
		c-9.74-1.47-19.09-2.22-27.8-2.22c-57.03,0-91.59,31.47-94.82,86.36c-1.24,21.12-22.61,32.51-42.07,32.51
		c-14.32,0-27.39-5.71-35.83-15.65c-10.16-11.98-13.66-29.77-10.1-51.45c10.57-64.08,53.26-97.94,123.45-97.94
		c14.05,0,29.27,1.34,45.23,4C252.04-316.33,262.98-315.42,273.83-315.42 M411.63-393.78c-1.24,0-2.51,0.09-3.73,0.28l-2.71,0.39
		l-0.79,2.63c-9.3,32.13-63.98,66.55-130.57,66.55c-10.38,0-20.82-0.86-31.09-2.57c-16.47-2.75-32.16-4.14-46.62-4.14
		c-74.93,0-120.52,36.33-131.83,105.08c-4.01,24.22,0.15,44.38,12,58.33c10.05,11.86,25.48,18.66,42.31,18.66
		c23.36,0,49.02-14.2,50.56-40.53c2.91-49.8,34.4-78.36,86.32-78.36c8.33,0,17.26,0.72,26.52,2.14c19.23,2.92,35.85,4.34,50.82,4.34
		c49.81,0,82.28-15.8,108.59-52.78l0.15-0.25c8.66-16.62,6.81-44.85-4.15-62.89C430.78-387.78,421.63-393.78,411.63-393.78"/>
</g>
<g transform="matrix(.35278 0 0 -.35278 55.247 248.62)">
	<path fill="#F7DDC4" d="M763.6-336.79c0-171.58,30.27-289.33-137.21-288.42c-167.48,0.9-138.38,116.83-138.38,288.42
		c0,171.58,74.93,310.69,138.96,310.69C691.02-26.1,763.6-165.21,763.6-336.79"/>
</g>
<g transform="matrix(.35278 0 0 -.35278 48.716 243.26)">
	<path fill="#FCEEB6" d="M542.14-155.02c-21.35-53.62-35.59-122.21-35.59-196.97c0-171.59,275.59-171.59,275.59,0
		c0,71.53-12.63,137.35-31.99,189.89C683.51-193.27,603.32-192.75,542.14-155.02"/>
</g>
<g transform="matrix(.35278 0 0 -.35278 51.529 240.22)">
	<path fill="#803A00" d="M637.53-51.93c-62.02,0-136.93-137.68-136.93-308.67c0-23.29-0.53-45.37-1.05-66.68
		c-2.01-84.01-3.61-150.37,31.84-186.85c21.19-21.85,55.74-32.6,105.58-32.86h1.91c48.52,0,82.25,10.38,103.07,31.75
		c35.22,36.1,33.51,102.25,31.34,185.98c-0.56,21.96-1.15,44.66-1.15,68.66c0,79.97-15.67,157.68-44.11,218.84
		C701.86-85.52,668.05-51.93,637.53-51.93 M638.87-651.05h-1.94c-50.98,0.28-86.48,11.42-108.48,34.09
		c-36.62,37.71-35.01,104.83-32.96,189.79c0.51,21.28,1.05,43.32,1.05,66.57c0,80.31,16.22,158.65,45.66,220.58
		c27.43,57.7,63.08,92.13,95.32,92.13c64.13,0,138.66-136.59,138.66-312.71c0-23.95,0.58-46.64,1.15-68.58
		c2.19-84.68,3.91-151.54-32.5-188.9C723.21-640.27,688.56-651.05,638.87-651.05"/>
</g>
<g transform="matrix(.35278 0 0 -.35278 51.529 240.28)">
	<path fill="#803A00" d="M637.53-53.96c-29.75,0-63.3-33.25-89.73-88.94c-29.02-61.13-45.01-138.37-45.01-217.5
		c0-23.43-0.53-45.46-1.05-66.74c-2-83.47-3.58-149.41,31.21-185.24c20.76-21.4,54.79-31.93,104.01-32.19h1.9
		c47.89,0,81.09,10.18,101.49,31.08c34.53,35.45,32.84,101.18,30.7,184.37l-0.04,1.22c-0.55,21.59-1.11,43.92-1.11,67.51
		c0,79.65-15.6,157.03-43.9,217.91C700.2-87.08,667.12-53.96,637.53-53.96 M638.85-653.09h-1.94
		c-51.63,0.29-87.63,11.66-110.07,34.76c-37.28,38.38-35.65,105.92-33.58,191.4l0.01,0.81c0.5,21.02,1.02,42.79,1.02,65.71
		c0,80.63,16.29,159.3,45.88,221.53c27.81,58.5,64.21,93.43,97.35,93.43c32.51,0,68.17-34.24,95.38-91.59
		c29.34-61.84,45.5-141.16,45.5-223.36c0-24.13,0.58-46.69,1.15-68.52c2.19-85.21,3.92-152.48-33.13-190.51
		C724.35-642.09,689.17-653.09,638.85-653.09"/>
</g>
<g transform="matrix(.35278 0 0 -.35278 56.655 249.15)">
	<path fill="#FF7300" d="M811.35-354.76c73.1,17.59,224.66-8.11,165.11-140.73c47.37,18.93,120.44,36.54,174.57,0
		c54.15-36.55,44-106.25,4.75-119.79c0.67-25.03-46.69-51.41-83.24-30.43c-8.13-28.43-86.6-42.64-106.92,0.66
		c-33.14,0-200.28,39.26-221.27,69.03C732.86-526.63,788.19-370.29,811.35-354.76"/>
</g>
<g transform="matrix(.35278 0 0 -.35278 66.029 256.24)">
	<path fill="#FF8905" d="M1129.24-595.19c0.68-25.07-46.71-51.45-83.23-30.47c-8.13-28.4-86.63-42.63-106.92,0.68
		c-14.77,0-56.08,7.8-99.22,19.05c25.9,45.8,51.94,94.92,12.6,137.26c-31.03,34.15-78.7,35.04-119.4,19.03
		c15.75,53.47,38.8,106.26,51.75,114.96c21.23,5.12,49.1,6.57,76.49,2.8c19.12-2.61,37.99-7.79,54.22-16.03
		c10.47-5.3,19.84-11.9,27.44-19.9c9.25-9.75,15.91-21.56,18.85-35.74c1.82-8.76,2.19-18.42,0.85-29.05v-0.01
		c-1.22-10-3.98-20.82-8.48-32.56c-1.29-3.35-2.68-6.77-4.25-10.25c47.36,18.94,120.44,36.53,174.57,0
		C1178.63-511.97,1168.48-581.67,1129.24-595.19"/>
</g>
<g transform="matrix(.35278 0 0 -.35278 63.497 252.41)">
	<path fill="#F7DDC4" d="M1043.37-465.31c30.48,1.94,61.69-2.94,88.31-20.9c54.12-36.55,43.98-106.23,4.75-119.78
		c0.66-25.04-46.71-51.42-83.23-30.44c-8.14-28.42-86.63-42.64-106.92,0.67c-17.02,0-69.35,10.34-119.08,24.43
		C938.84-615.45,1003.04-477.41,1043.37-465.31"/>
	<path fill="#FCEEB6" d="M1043.37-465.31c30.48,1.94,61.69-2.94,88.31-20.9c54.12-36.55,38.5-76.49-0.73-90.02
		c0.67-25.04-43.95-47.28-80.5-26.31c-8.12-28.41-91.87-49.47-112.16-6.15c-17.03,0-61.36-16.73-111.1-2.65
		C938.84-615.45,1003.04-477.41,1043.37-465.31"/>
</g>
<g transform="matrix(.35278 0 0 -.35278 63.791 257.02)">
	<path fill="#803A00" d="M1053.35-621.64c8.48-4.87,17.94-7.34,28.06-7.34c16.38,0,33.02,6.64,43.43,17.33
		c5.77,5.94,8.86,12.56,8.7,18.66l-0.04,1.48l1.41,0.48c16.25,5.6,28.01,21.86,30.72,42.42c2.9,21.98-5.04,52.89-35.93,73.75
		c-23.36,15.76-52.69,22.71-86.82,20.58c-12.99-4.06-29.45-22.61-48.52-44.08c-36.61-41.2-86.15-97.01-153.84-101.73
		c46.6-12.48,90.54-20.61,104.9-20.61h1.28l0.54-1.19c7.85-16.71,25.98-26.28,49.78-26.28c25.45,0,49.37,11.36,53.35,25.32
		l0.73,2.49L1053.35-621.64z M944.16-624.74c-19.39,0.48-71.74,11.28-118.37,24.48l-16.24,4.62l16.89-0.62
		c73.18-2.67,126.3,57.14,164.9,100.59c20.39,22.96,36.48,41.1,50.62,45.33l0.44,0.09c35.16,2.23,65.41-4.94,89.56-21.25
		c32.45-21.89,40.75-54.46,37.7-77.63c-2.82-21.54-15.06-38.74-32.06-45.24c-0.29-6.76-3.75-13.84-9.84-20.1
		c-11.15-11.46-28.91-18.56-46.34-18.56c-10.01,0-19.41,2.25-27.95,6.71c-6.24-14.7-30.23-25.9-56.44-25.9
		C972.14-652.22,952.96-642.22,944.16-624.74"/>
</g>
<g transform="matrix(.35278 0 0 -.35278 57.657 256.39)">
	<path fill="#803A00" d="M845.34-600.28l0.57-0.15l1.74,0.11C846.88-600.31,846.11-600.29,845.34-600.28 M869.95-602.67
		c43.23-11.03,80.39-17.52,92.87-17.52h2.71l1.14-2.48c7.46-15.88,24.85-25,47.76-25c24.09,0,47.55,10.86,51.21,23.72l1.49,5.22
		l4.72-2.72c8.15-4.66,17.22-7.04,26.95-7.04c15.79,0,31.83,6.38,41.84,16.67c5.36,5.49,8.22,11.53,8.08,17.04l-0.1,3.1l2.96,1.01
		c15.43,5.33,26.65,20.9,29.24,40.61c2.81,21.33-4.91,51.33-34.98,71.61c-22.92,15.48-51.53,22.25-85.13,20.23
		c-12.37-4.04-28.56-22.27-47.28-43.36C978.94-540.38,932.49-592.66,869.95-602.67 M1014.42-656.18c-25.14,0-44.81,10-54.27,27.53
		c-20.69,0.91-71.68,11.51-117.58,24.52l-34.08,9.66l35.39-1.3c72.17-2.61,124.75,56.6,163.17,99.86
		c20.62,23.24,36.93,41.58,51.64,45.99l0.96,0.16c35.73,2.26,66.31-5,90.95-21.64c33.29-22.44,41.79-55.91,38.66-79.76
		c-2.85-21.66-15.12-39.32-32.17-46.5c-0.71-6.82-4.34-13.91-10.36-20.12c-11.56-11.86-29.94-19.23-47.94-19.23
		c-9.58,0-18.62,2-26.93,5.95C1063.96-645.74,1040.38-656.18,1014.42-656.18"/>
</g>
<g transform="matrix(.35278 0 0 -.35278 66.049 256.46)">
	<path fill="#803A00" d="M1129.92-602.65c9.1,63.13-49.8,101.96-49.8,101.96c0.55-0.39,54.54-40.69,45.78-101.38L1129.92-602.65z"/>
</g>
<g transform="matrix(.35278 0 0 -.35278 66.1 256.52)">
	<path fill="#803A00" d="M1131.64-604.68l-8.43,1.2l0.32,2.2c8.56,59.29-44.34,98.88-44.88,99.26l2.53,3.66
		c0.6-0.39,59.97-40.35,50.78-104.14L1131.64-604.68z"/>
</g>
<g transform="matrix(.35278 0 0 -.35278 63.764 257.2)">
	<path fill="#803A00" d="M1052.42-627.75c13.57,52.66-29.05,92.59-29.05,92.59c0.38-0.42,38.1-41.1,25.12-91.58L1052.42-627.75z"/>
</g>
<g transform="matrix(.35278 0 0 -.35278 63.807 257.28)">
	<path fill="#803A00" d="M1053.88-630.46l-8.24,2.11l0.56,2.15c12.66,49.17-24.22,89.09-24.6,89.49l3.14,3.17
		c0.44-0.42,43.45-41.43,29.7-94.77L1053.88-630.46z"/>
</g>
<g transform="matrix(.35278 0 0 -.35278 61.059 257.43)">
	<path fill="#803A00" d="M960.71-635.54l2.8,2.94c-15.85,15.15-18.26,52.36-18.28,52.74C945.22-579.86,943.69-619.27,960.71-635.54"
		/>
</g>
<g transform="matrix(.35278 0 0 -.35278 61.061 257.51)">
	<path fill="#803A00" d="M960.76-638.26l-1.61,1.54c-17.51,16.76-16.23,55.74-16.15,57.38l4.44,0.06
		c0.02-0.38,2.56-36.92,17.6-51.28l1.61-1.54L960.76-638.26z"/>
</g>
<g transform="matrix(.35278 0 0 -.35278 59.813 253.85)">
	<path fill="#803A00" d="M918.45-514.14c0.43,0.29,41.9,29.14,67.63,36.62l-1.13,3.91C958.58-481.29,918.45-514.14,918.45-514.14"/>
</g>
<g transform="matrix(.35278 0 0 -.35278 60.213 249.51)">
	<path fill="#191919" d="M932.01-366.96c-39.77-14.18-76.13-46.01-76.13-46.01c1.35,20.31,12.2,44.27,21.92,62.03
		C896.91-353.55,915.78-358.72,932.01-366.96"/>
</g>
<g transform="matrix(.35278 0 0 -.35278 61.472 251.02)">
	<path fill="#191919" d="M974.7-418.17c-34.02,8.37-69.74-2.92-69.74-2.92c14.47,26.04,35.59,35.39,50.9,38.66
		C965.12-392.18,971.77-403.99,974.7-418.17"/>
</g>
<g transform="matrix(.35278 0 0 -.35278 61.496 251.81)">
	<path fill="#191919" d="M975.52-444.96c-1.23-10-3.99-20.83-8.5-32.57c-43.95-19.55-62.11-36.62-62.11-36.62
		C920.57-468.91,955.55-451.41,975.52-444.96"/>
</g>
<g transform="matrix(.35278 0 0 -.35278 63.791 257.02)">
	<path fill="#803A00" d="M1053.35-621.64c8.48-4.87,17.94-7.34,28.06-7.34c16.38,0,33.02,6.64,43.43,17.33
		c5.77,5.94,8.86,12.56,8.7,18.66l-0.04,1.48l1.41,0.48c16.25,5.6,28.01,21.86,30.72,42.42c2.9,21.98-5.04,52.89-35.93,73.75
		c-20.61,13.9-45.82,20.94-74.92,20.94c-37.08,0-73.64-11.5-97.79-21.14l-4.65-1.87l2.04,4.58c17.18,38.26,17.86,70.07,2,94.55
		c-23,35.57-77.08,48.26-119.97,48.26c-15.94,0-31.28-1.66-44.42-4.78c-22.07-15.81-76.82-169.82-65.95-218.52
		c20.92-28.27,184.64-67.84,219.38-67.84h1.28l0.54-1.19c7.86-16.71,25.98-26.28,49.78-26.28c25.44,0,49.37,11.36,53.35,25.32
		l0.73,2.49L1053.35-621.64z M944.16-624.74c-33.8,0.99-199.78,38.81-221.66,69.86l-0.33,0.72
		c-11.71,50.35,44.06,207.46,67.85,223.41l0.65,0.29c13.52,3.26,29.34,4.99,45.75,4.99c21.34,0,93.31-3.61,123.4-50.13
		c16-24.72,16.07-56.3,0.25-93.89c24.37,9.36,59.26,19.66,94.72,19.66c29.94,0,55.9-7.28,77.17-21.66
		c32.45-21.89,40.75-54.46,37.7-77.63c-2.82-21.54-15.06-38.74-32.06-45.24c-0.29-6.76-3.75-13.84-9.84-20.1
		c-11.15-11.46-28.91-18.56-46.35-18.56c-10.01,0-19.41,2.25-27.95,6.71c-6.24-14.7-30.23-25.9-56.44-25.9
		C972.14-652.22,952.96-642.22,944.16-624.74"/>
</g>
<g transform="matrix(.35278 0 0 -.35278 54.94 255.12)">
	<path fill="#803A00" d="M753.2-557.21c21.74-27.76,183.32-66.56,217.32-66.56h2.72l1.14-2.47c7.45-15.89,24.85-25.01,47.73-25.01
		c24.11,0,47.55,10.86,51.21,23.72l1.52,5.22l4.7-2.72c8.16-4.67,17.22-7.04,26.95-7.04c15.81,0,31.82,6.38,41.84,16.67
		c5.37,5.49,8.21,11.54,8.08,17.03l-0.09,3.1l2.95,1.03c15.46,5.33,26.66,20.89,29.24,40.61c2.81,21.32-4.92,51.32-34.97,71.61
		c-20.24,13.64-45.03,20.58-73.66,20.58c-36.75,0-73.01-11.43-96.96-21l-9.78-3.93l4.3,9.61c16.86,37.52,17.58,68.61,2.17,92.44
		c-22.52,34.83-75.79,47.23-118.12,47.23c-15.58,0-30.6-1.59-43.46-4.62c-10.23-7.9-28.71-47.84-44.17-95.55
		C756.41-491.14,748.7-535.89,753.2-557.21 M1022.12-659.76c-25.12,0-44.83,10.02-54.24,27.55
		c-33.99,1.82-199.27,38.33-222.12,70.75l-0.2,0.37l-0.46,1.12c-5.27,22.7,2.44,69.73,20.65,125.8
		c13.54,41.7,34.38,90.77,48.12,99.97l0.34,0.19l1.03,0.42c13.68,3.31,29.68,5.05,46.27,5.05c21.62,0,94.57-3.68,125.29-51.14
		c15.72-24.33,16.51-55.01,2.33-91.25c23.43,8.61,56.81,18.02,90.77,18.02c30.38,0,56.76-7.4,78.41-22.03
		c33.29-22.46,41.81-55.93,38.66-79.78c-2.83-21.65-15.11-39.32-32.17-46.5c-0.71-6.82-4.34-13.91-10.36-20.1
		c-11.55-11.86-29.91-19.23-47.94-19.23c-9.56,0-18.62,2-26.92,5.95C1071.65-649.3,1048.07-659.76,1022.12-659.76"/>
</g>
<g transform="matrix(.35278 0 0 -.35278 54.464 241.41)">
	<path fill="#FF7300" d="M737.06-92.28c-8.14-42.63,9.11-70.07,61.89-87.31c52.8-17.23,95.42-71.04,71.07-171.53
		c-24.36-100.47-56.85-168.49-56.85-190.29c28.42-8.64,82.73,14.04,113.93-46.88c31.22-60.9-30.38-104.21-52.69-94.06
		c-19.62-18.26-51.42-26.38-81.2-7.44c-27.08-14.19-100.83-10.72-125.87,45.06c-25.04,55.79,28.07,226.63,54.47,267.24
		c24.35,71.06-49.74,119.26-27.41,263.49C701.52-75.44,737.06-92.28,737.06-92.28"/>
</g>
<g transform="matrix(.35278 0 0 -.35278 59.497 256.88)">
	<path fill="#FF8905" d="M907.73-616.9c-75.62-27.88-174.48-42.12-215.39,32.3c-56.84,97.44,44.65,194.88,32.48,296.38
		c-3.17,25.13-20.89,47.86-34.4,71.92c-6.65,22-12.57,47.12-14.11,77.55c22.33,5.57,44,14.36,63.98,26.28
		c0.96-0.87,1.98-1.76,3.03-2.61c9.01-7.34,20.85-13.64,35.81-18.99c1.82-0.66,3.66-1.29,5.57-1.91
		c22.81-7.47,43.74-21.75,58.13-43.68c11.22-17.02,18.52-38.65,19.75-65.27c0.58-12.35-0.14-25.81-2.39-40.37
		c-1.1-7.14-2.57-14.53-4.46-22.21c-2.72-11.26-5.54-22.12-8.42-32.54c-4.46-16.15-9.01-31.27-13.49-45.3
		c-4.57-14.37-9.01-27.57-13.14-39.55c-1.86-5.43-3.66-10.61-5.35-15.53c-5-14.39-9.22-26.56-12.13-36.32
		c-2.71-9.17-4.32-16.24-4.32-21.07c28.44-8.61,82.74,14.05,113.95-46.87C928.01-574.28,921.24-599.71,907.73-616.9"/>
</g>
<g transform="matrix(.35278 0 0 -.35278 56.536 253.64)">
	<path fill="#F7DDC4" d="M807.32-507.02c28.41-8.62,82.72,14.04,113.93-46.86c31.22-60.91-30.37-104.21-52.7-94.06
		c-19.62-18.27-51.42-26.38-81.2-7.45c-27.06-14.2-100.83-10.72-125.86,45.06c-3.84,8.52-5.84,19.74-6.38,32.78
		C710.9-602.94,771.22-517.69,807.32-507.02"/>
	<path fill="#FCEEB6" d="M807.32-507.02c28.41-8.62,82.72,14.04,113.93-46.86c31.22-60.91-16.49-77.37-38.82-67.22
		c-19.62-18.28-47.21-26.27-76.99-7.32c-39.06-24.22-124.31,17.8-116.73,47.38C733.93-572,778.39-515.55,807.32-507.02"/>
</g>
<g transform="matrix(.35278 0 0 -.35278 58.225 257.42)">
	<path fill="#803A00" d="M864.59-635.2c1.9-0.86,4.15-1.31,6.75-1.31c12.21,0,31.36,10.14,42.82,28.9
		c8.22,13.45,14.98,35.39,0.47,63.7c-22.14,43.19-56.47,43.28-84.1,43.34c-10.33,0.03-20.09,0.06-28,2.3
		c-11.78-3.71-26.82-15.91-42.75-28.82c-26.72-21.7-57.03-46.31-87.8-46.31c-6.73,0-13.25,1.19-19.47,3.61
		c0.73-11.86,2.77-21.54,6.03-28.82c16.86-37.55,56.74-50.93,88.45-50.93c13.7,0,26.32,2.49,34.62,6.85l1.05,0.54l0.99-0.63
		c10.96-6.98,22.62-10.52,34.7-10.52c15.88,0,31.93,6.47,44.02,17.75l0.99,0.91L864.59-635.2z M782.43-646.82
		c-8.82-4.32-21.66-6.78-35.44-6.78c-32.98,0-74.49,14.03-92.16,53.32c-3.76,8.4-5.96,19.68-6.55,33.51l-0.13,3.33l2.99-1.37
		c6.59-3,13.6-4.52,20.84-4.52c29.32,0,59.03,24.11,85.26,45.4c17.22,13.96,32.05,26.03,44.69,29.75l0.61,0.17l0.57-0.17
		c7.46-2.27,17.17-2.29,27.45-2.32c28.71-0.09,64.45-0.16,87.7-45.56c11.98-23.39,11.77-47.42-0.62-67.68
		c-12.24-20.01-32.98-30.81-46.29-30.81c-2.65,0-5.03,0.38-7.15,1.15c-12.73-11.42-29.37-17.94-45.84-17.94
		C805.86-657.34,793.78-653.82,782.43-646.82"/>
</g>
<g transform="matrix(.35278 0 0 -.35278 55.998 257.54)">
	<path fill="#803A00" d="M789.07-639.28l2.07-1.33c10.6-6.74,21.88-10.15,33.5-10.15c15.33,0,30.82,6.25,42.51,17.14l2.1,1.92
		l2.57-1.18c1.59-0.73,3.54-1.1,5.81-1.1c11.62,0,29.9,9.75,40.94,27.83c7.93,12.96,14.43,34.14,0.4,61.54
		c-21.53,41.98-55.12,42.07-82.12,42.13c-10.23,0.04-19.88,0.06-27.98,2.23c-11.26-3.81-25.84-15.65-41.25-28.16l-0.13-0.1
		c-27.04-21.95-57.68-46.8-89.22-46.8c-5.82,0-11.52,0.86-16.97,2.61c0.86-10.09,2.73-18.37,5.57-24.68
		c16.43-36.59,55.41-49.63,86.41-49.63c13.38,0,25.61,2.42,33.6,6.6L789.07-639.28z M824.65-659.27c-12.52,0-24.64,3.46-36.03,10.23
		c-9.04-4.11-21.84-6.49-35.33-6.49c-33.65,0-76.08,14.37-94.16,54.66c-3.89,8.66-6.16,20.21-6.76,34.32l-0.29,6.92l6.3-2.85
		c6.28-2.87,12.97-4.32,19.9-4.32c28.56,0,57.94,23.85,83.85,44.89c17.46,14.15,32.43,26.31,45.48,30.17l1.22,0.35l1.23-0.37
		c7.18-2.18,16.71-2.2,26.81-2.23c29.32-0.07,65.8-0.18,89.66-46.76c12.35-24.1,12.1-48.91-0.71-69.85
		c-12.66-20.71-34.28-31.89-48.19-31.89c-2.37,0-4.58,0.29-6.64,0.87C858.03-652.85,841.2-659.27,824.65-659.27"/>
</g>
<g transform="matrix(.35278 0 0 -.35278 58.139 257.6)">
	<path fill="#803A00" d="M861.68-641.31c15.67,14.78,23.22,31.1,22.41,48.56c-1.57,34.33-38.42,58.41-38.42,58.41
		c0.32-0.25,32.9-26.17,34.38-58.61c0.73-16.22-6.38-31.48-21.15-45.38L861.68-641.31z"/>
</g>
<g transform="matrix(.35278 0 0 -.35278 58.137 257.68)">
	<path fill="#803A00" d="M861.61-644.02l-5.84,6.2l1.61,1.52c14.29,13.46,21.17,28.16,20.46,43.67
		c-1.42,31.27-33.22,56.71-33.53,56.97l2.6,3.61c1.54-1,37.84-25.12,39.45-60.17c0.82-18.13-6.95-35.04-23.13-50.28L861.61-644.02z"
		/>
</g>
<g transform="matrix(.35278 0 0 -.35278 55.884 257.8)">
	<path fill="#803A00" d="M785.21-648.09c13.63,7.05,22.38,17.35,25.99,30.63c8.58,31.46-18.66,67.73-18.66,67.73
		c0.23-0.37,22.85-36.95,14.73-66.66c-3.3-12.13-11.36-21.6-23.92-28.11L785.21-648.09z"/>
</g>
<g transform="matrix(.35278 0 0 -.35278 55.859 257.88)">
	<path fill="#803A00" d="M784.36-650.81l-3.92,7.54l1.99,1.03c11.98,6.23,19.67,15.2,22.8,26.72c7.72,28.22-13.57,63.4-14.47,64.89
		l3.66,2.51c1.14-1.51,27.8-37.52,19.04-69.63c-3.79-13.9-12.91-24.68-27.13-32.04L784.36-650.81z"/>
</g>
<g transform="matrix(.35278 0 0 -.35278 58.268 246.75)">
	<path fill="#191919" d="M866.05-273.37c-34.16,9.99-72.44,5.87-72.44,5.87c15.6,31.22,38.02,49.8,52.72,59.4
		C857.53-225.12,864.82-246.74,866.05-273.37"/>
</g>
<g transform="matrix(.35278 0 0 -.35278 55.998 243.74)">
	<path fill="#191919" d="M789.07-171.3c-19.21-15.34-46.93-34.31-79.34-47.27c0,0,25.27,32.85,43.52,66.27
		C762.27-159.67,774.1-165.96,789.07-171.3"/>
</g>
<g transform="matrix(.35278 0 0 -.35278 58.203 247.85)">
	<path fill="#191919" d="M863.86-310.68c-1.1-7.14-2.57-14.53-4.46-22.22c-2.72-11.25-5.54-22.12-8.42-32.53
		c-14.87-3.77-32.19-5.06-46.37,2.43c-31.85,16.86-73.53-1.81-73.53-1.81c25.08,30.12,55.2,45.18,90.32,45.18
		C839.22-319.63,853.79-315.13,863.86-310.68"/>
</g>
<g transform="matrix(.35278 0 0 -.35278 57.486 250.58)">
	<path fill="#191919" d="M839.53-403.25c-4.56-14.37-9-27.57-13.13-39.56C794.73-412.28,735.62-410,735.62-410
		C774.31-381,820.41-395.21,839.53-403.25"/>
</g>
<g transform="matrix(.35278 0 0 -.35278 56.983 252.07)">
	<path fill="#191919" d="M822.47-453.78c-4.99-14.39-9.2-26.56-12.11-36.34c-14.9,4.08-45.95,9.29-83.33-3.16
		C727.03-493.28,764.14-454.79,822.47-453.78"/>
</g>
<g transform="matrix(.35278 0 0 -.35278 58.225 257.42)">
	<path fill="#803A00" d="M864.59-635.2c1.9-0.86,4.15-1.31,6.75-1.31c12.21,0,31.36,10.14,42.82,28.9
		c8.22,13.45,14.98,35.39,0.47,63.7c-22.14,43.19-56.47,43.28-84.1,43.34c-10.57,0.03-20.58,0.06-28.62,2.49l-1.42,0.42v1.54
		c0,10.35,6.63,29.57,16.74,58.65c11.39,32.88,27,77.92,40.14,132.14c30.51,125.83-45.64,161.24-69.71,169.11
		c-51.67,16.87-71.33,44.07-63.57,87.99c-2.53,0.99-8.19,2.86-14.37,2.86c-13.01,0-21.08-7.98-23.98-23.66
		c-12.13-78.49,4.57-128.75,18-169.11c11.51-34.6,20.6-61.92,9.34-94.72l-0.23-0.46c-27.16-41.79-78.58-211.26-54.32-265.3
		c16.86-37.55,56.73-50.93,88.45-50.93c13.7,0,26.32,2.49,34.62,6.85l1.05,0.54l0.99-0.63c10.96-6.98,22.62-10.52,34.7-10.52
		c15.88,0,31.93,6.47,44.02,17.75l0.99,0.91L864.59-635.2z M782.43-646.82c-8.82-4.32-21.66-6.78-35.44-6.78
		c-32.98,0-74.49,14.03-92.16,53.32c-25.21,56.16,26.2,225.15,54.48,268.96c10.68,31.41,1.8,58.12-9.44,91.91
		c-13.56,40.79-30.43,91.56-18.12,171.08c4.1,22.34,17.46,27.04,27.96,27.04c9.31,0,17.19-3.7,17.54-3.84l1.43-0.68l-0.3-1.54
		c-8.2-43.05,9.92-68.47,60.55-85.02c24.9-8.13,103.72-44.7,72.39-173.91c-13.18-54.42-28.84-99.57-40.24-132.54
		c-9.13-26.25-15.81-45.6-16.48-55.78c7.25-1.86,16.37-1.87,25.96-1.9c28.71-0.09,64.45-0.16,87.7-45.56
		c11.98-23.38,11.77-47.42-0.62-67.68c-12.24-20.01-32.98-30.81-46.29-30.81c-2.65,0-5.03,0.38-7.15,1.15
		c-12.74-11.42-29.37-17.94-45.84-17.94C805.86-657.34,793.78-653.82,782.43-646.82"/>
</g>
<g transform="matrix(.35278 0 0 -.35278 52.901 252.19)">
	<path fill="#803A00" d="M684.06-457.84c-6.44-23.79-11.88-48.54-15.2-71.65C672.24-506.39,677.66-481.64,684.06-457.84
		 M797.85-654.45l2.08-1.35c10.6-6.72,21.87-10.15,33.5-10.15c15.34,0,30.81,6.25,42.52,17.14l2.09,1.94l2.58-1.19
		c1.59-0.72,3.55-1.1,5.8-1.1c11.62,0,29.9,9.75,40.96,27.83c7.91,12.96,14.42,34.14,0.39,61.54
		c-21.52,41.99-55.12,42.07-82.12,42.13c-10.75,0.04-20.92,0.06-29.27,2.59l-3.01,0.9v3.16c0,10.76,6.69,30.12,16.85,59.39
		c11.39,32.89,26.98,77.83,40.11,131.95c30.05,123.95-44.64,158.75-68.25,166.47c-52.29,17.07-72.52,44.46-65.39,88.64
		c-2.69,0.91-7.14,2.11-11.89,2.11c-11.94,0-19.05-7.15-21.76-21.85c-12.07-77.9,4.54-127.87,17.91-168.02
		c11.62-34.99,20.81-62.63,9.33-96.14l-0.47-0.94c-26.98-41.51-78.15-209.71-54.14-263.17c16.42-36.58,55.41-49.62,86.41-49.62
		c13.37,0,25.62,2.42,33.58,6.59L797.85-654.45z M833.43-674.44c-12.51,0-24.62,3.44-36.03,10.23c-9.04-4.14-21.82-6.51-35.32-6.51
		c-33.66,0-76.09,14.37-94.17,54.66c-15.24,33.94-2.13,102.61,7.05,140.55c12.66,52.45,32.59,107.15,47.45,130.29
		c10.29,30.6,1.53,56.92-9.54,90.22c-13.63,41.02-30.62,92.07-18.24,172.12c4.65,25.18,20.9,28.94,30.17,28.94
		c9.84,0,18.16-3.9,18.49-4.07l2.98-1.41l-0.61-3.23c-7.94-41.67,9.72-66.35,59.06-82.48c25.37-8.29,105.64-45.48,73.87-176.56
		c-13.22-54.46-28.86-99.64-40.29-132.63c-8.61-24.84-14.94-43.13-16.22-53.43c6.7-1.36,14.93-1.38,23.58-1.39
		c29.33-0.09,65.8-0.19,89.68-46.78c12.34-24.1,12.09-48.91-0.71-69.84c-12.66-20.72-34.28-31.89-48.21-31.89
		c-2.36,0-4.58,0.28-6.62,0.86C866.82-668.04,849.99-674.44,833.43-674.44"/>
</g>
<g transform="matrix(.35278 0 0 -.35278 46.035 249.15)">
	<path fill="#FF7300" d="M451.23-354.76c-73.1,17.59-224.66-8.11-165.12-140.73c-47.37,18.93-120.44,36.54-174.57,0
		c-54.15-36.55-44-106.25-4.75-119.79c-0.68-25.03,46.67-51.41,83.24-30.43c8.11-28.43,86.6-42.64,106.92,0.66
		c33.14,0,200.28,39.26,221.27,69.03C529.71-526.63,474.38-370.29,451.23-354.76"/>
</g>
<g transform="matrix(.35278 0 0 -.35278 36.661 256.24)">
	<path fill="#FF8905" d="M133.34-595.19c-0.67-25.07,46.69-51.45,83.23-30.47c8.13-28.4,86.62-42.63,106.91,0.68
		c14.77,0,56.09,7.8,99.24,19.05c-25.9,45.8-51.94,94.92-12.62,137.26c31.05,34.15,78.73,35.04,119.43,19.03
		c-15.77,53.47-38.8,106.26-51.76,114.96c-21.23,5.12-49.09,6.57-76.49,2.8c-19.1-2.61-37.99-7.79-54.21-16.03
		c-10.47-5.3-19.84-11.9-27.44-19.9c-9.25-9.75-15.93-21.56-18.85-35.74c-1.82-8.76-2.2-18.42-0.86-29.05v-0.01
		c1.23-10,3.99-20.82,8.5-32.56c1.28-3.35,2.68-6.77,4.25-10.25c-47.36,18.94-120.44,36.53-174.57,0
		C83.93-511.97,94.1-581.67,133.34-595.19"/>
</g>
<g transform="matrix(.35278 0 0 -.35278 39.193 252.41)">
	<path fill="#F7DDC4" d="M219.19-465.31c-30.47,1.94-61.69-2.94-88.3-20.9c-54.13-36.55-43.99-106.23-4.75-119.78
		c-0.66-25.04,46.7-51.42,83.23-30.44c8.11-28.42,86.63-42.64,106.92,0.67c17.03,0,69.35,10.34,119.09,24.43
		C323.73-615.45,259.54-477.41,219.19-465.31"/>
	<path fill="#FCEEB6" d="M219.19-465.31c-30.47,1.94-61.69-2.94-88.3-20.9c-54.13-36.55-38.5-76.49,0.73-90.02
		c-0.67-25.04,43.95-47.28,80.49-26.31c8.11-28.41,91.87-49.47,112.17-6.15c17.03,0,61.36-16.73,111.1-2.64
		C323.73-615.45,259.54-477.41,219.19-465.31"/>
</g>
<g transform="matrix(.35278 0 0 -.35278 38.96 256.98)">
	<path fill="#803A00" d="M211.3-620.28l0.71-2.49c3.99-13.97,27.93-25.33,53.36-25.33c23.8,0,41.94,9.59,49.76,26.3l0.55,1.18h1.3
		c14.33,0,58.28,8.13,104.9,20.6c-67.69,4.75-117.24,60.54-153.84,101.74c-19.08,21.47-35.56,40.02-48.53,44.08
		c-34.12,2.13-63.45-4.82-86.79-20.58c-30.92-20.86-38.84-51.79-35.94-73.75c2.69-20.56,14.47-36.83,30.72-42.42l1.42-0.48
		l-0.06-1.49c-0.15-6.09,2.94-12.71,8.72-18.63c10.39-10.7,27.04-17.34,43.42-17.34c10.13,0,19.57,2.46,28.06,7.34L211.3-620.28z
		 M265.36-652.16c-26.19,0-50.19,11.2-56.42,25.9c-8.56-4.45-17.94-6.72-27.95-6.72c-17.43,0-35.21,7.1-46.35,18.57
		c-6.1,6.27-9.53,13.33-9.84,20.11c-17,6.52-29.24,23.7-32.06,45.25c-3.06,23.16,5.24,55.74,37.69,77.63
		c24.17,16.32,54.42,23.48,89.56,21.25l0.45-0.09c14.11-4.23,30.22-22.37,50.61-45.33c38.6-43.45,91.74-103.26,164.91-100.6
		l16.87,0.63l-16.24-4.61c-46.62-13.22-98.97-24.01-118.37-24.5C309.44-642.15,290.25-652.16,265.36-652.16"/>
</g>
<g transform="matrix(.35278 0 0 -.35278 44.97 256.39)">
	<path fill="#803A00" d="M415.1-600.28l1.75-0.12l0.58,0.16L415.1-600.28z M249.33-501.54c-18.71,21.09-34.9,39.32-47.28,43.37
		c-33.6,2.01-62.22-4.76-85.15-20.24c-30.07-20.28-37.77-50.3-34.97-71.61c2.6-19.73,13.8-35.28,29.24-40.61l2.96-1.01l-0.1-3.1
		c-0.14-5.51,2.72-11.55,8.07-17.04c10.02-10.29,26.04-16.67,41.84-16.67c9.72,0,18.8,2.38,26.95,7.04l4.71,2.72l1.51-5.22
		c3.66-12.86,27.12-23.72,51.21-23.72c22.89,0,40.31,9.13,47.75,25l1.14,2.48h2.71c12.5,0,49.63,6.49,92.86,17.52
		C330.25-592.62,283.8-540.34,249.33-501.54 M190.88-631.02c-8.29-3.95-17.36-5.95-26.93-5.95c-18.03,0-36.39,7.37-47.94,19.23
		c-6.01,6.2-9.65,13.29-10.35,20.11c-17.05,7.18-29.32,24.84-32.17,46.51c-3.14,23.84,5.38,57.31,38.65,79.75
		c24.62,16.63,55.23,23.9,90.97,21.63l0.95-0.16c14.71-4.42,30.99-22.75,51.64-45.99c38.42-43.26,91.01-102.48,163.15-99.86
		l35.42,1.3l-34.08-9.66c-45.9-13.02-96.92-23.61-117.6-24.53c-9.45-17.51-29.13-27.54-54.26-27.54
		C222.36-656.16,198.79-645.7,190.88-631.02"/>
</g>
<g transform="matrix(.35278 0 0 -.35278 36.642 256.46)">
	<path fill="#803A00" d="M132.7-602.65c-9.1,63.13,49.8,101.96,49.8,101.96c-0.54-0.39-54.54-40.69-45.79-101.38L132.7-602.65z"/>
</g>
<g transform="matrix(.35278 0 0 -.35278 36.59 256.52)">
	<path fill="#803A00" d="M130.93-604.68l8.42,1.2l-0.32,2.2c-8.55,59.29,44.36,98.88,44.89,99.26l-2.53,3.66
		c-0.6-0.39-59.98-40.35-50.78-104.14L130.93-604.68z"/>
</g>
<g transform="matrix(.35278 0 0 -.35278 38.926 257.2)">
	<path fill="#803A00" d="M210.14-627.75c-13.56,52.66,29.07,92.59,29.07,92.59c-0.38-0.42-38.12-41.1-25.12-91.58L210.14-627.75z"/>
</g>
<g transform="matrix(.35278 0 0 -.35278 38.882 257.28)">
	<path fill="#803A00" d="M208.66-630.46l8.25,2.11l-0.56,2.15c-12.66,49.17,24.22,89.09,24.58,89.49l-3.13,3.17
		c-0.44-0.42-43.45-41.43-29.7-94.77L208.66-630.46z"/>
</g>
<g transform="matrix(.35278 0 0 -.35278 41.631 257.43)">
	<path fill="#803A00" d="M301.87-635.54l-2.8,2.94c15.84,15.15,18.26,52.36,18.28,52.74C317.35-579.86,318.87-619.27,301.87-635.54"
		/>
</g>
<g transform="matrix(.35278 0 0 -.35278 41.629 257.51)">
	<path fill="#803A00" d="M301.8-638.26l1.62,1.54c17.52,16.76,16.23,55.74,16.17,57.38l-4.44,0.06
		c-0.02-0.38-2.58-36.92-17.61-51.28l-1.6-1.54L301.8-638.26z"/>
</g>
<g transform="matrix(.35278 0 0 -.35278 42.877 253.85)">
	<path fill="#803A00" d="M344.13-514.14c-0.42,0.29-41.9,29.14-67.62,36.62l1.14,3.91C304-481.29,344.13-514.14,344.13-514.14"/>
</g>
<g transform="matrix(.35278 0 0 -.35278 42.478 249.51)">
	<path fill="#191919" d="M330.6-366.96c39.75-14.18,76.13-46.01,76.13-46.01c-1.35,20.31-12.2,44.27-21.93,62.03
		C365.7-353.55,346.82-358.72,330.6-366.96"/>
</g>
<g transform="matrix(.35278 0 0 -.35278 41.218 251.02)">
	<path fill="#191919" d="M287.86-418.17c34.02,8.37,69.75-2.92,69.75-2.92c-14.47,26.04-35.6,35.39-50.9,38.66
		C297.46-392.18,290.8-403.99,287.86-418.17"/>
</g>
<g transform="matrix(.35278 0 0 -.35278 41.194 251.81)">
	<path fill="#191919" d="M287.06-444.96c1.23-10,3.99-20.83,8.48-32.57c43.97-19.55,62.11-36.62,62.11-36.62
		C341.99-468.91,307.02-451.41,287.06-444.96"/>
</g>
<g transform="matrix(.35278 0 0 -.35278 38.96 256.98)">
	<path fill="#803A00" d="M211.3-620.28l0.71-2.49c3.99-13.97,27.93-25.33,53.36-25.33c23.8,0,41.93,9.59,49.76,26.3l0.55,1.18h1.3
		c34.75,0,198.45,39.56,219.38,67.84c10.85,48.71-43.89,202.71-65.95,218.53c-13.13,3.13-28.48,4.78-44.41,4.78
		c-42.93,0-96.98-12.68-120-48.26c-15.85-24.48-15.18-56.3,2-94.55l2.05-4.6l-4.66,1.89c-24.14,9.64-60.7,21.15-97.79,21.15
		c-29.1,0-54.3-7.05-74.89-20.95c-30.92-20.86-38.84-51.79-35.94-73.75c2.69-20.56,14.47-36.83,30.72-42.42l1.42-0.48l-0.06-1.49
		c-0.15-6.09,2.94-12.71,8.72-18.63c10.39-10.7,27.04-17.34,43.42-17.34c10.13,0,19.57,2.46,28.06,7.34L211.3-620.28z
		 M265.36-652.16c-26.19,0-50.19,11.2-56.42,25.9c-8.56-4.45-17.94-6.72-27.95-6.72c-17.43,0-35.21,7.1-46.35,18.57
		c-6.1,6.27-9.53,13.33-9.84,20.11c-17,6.52-29.24,23.7-32.06,45.25c-3.06,23.16,5.24,55.74,37.69,77.63
		c21.28,14.38,47.24,21.66,77.17,21.66c35.46,0,70.36-10.3,94.73-19.66c-15.84,37.6-15.73,69.17,0.25,93.91
		c30.09,46.51,102.06,50.12,123.41,50.12c16.38,0,32.21-1.72,45.73-4.99l0.67-0.29c23.8-15.95,79.54-173.07,67.83-223.42l-0.3-0.7
		c-21.9-31.05-187.88-68.88-221.68-69.87C309.44-642.15,290.25-652.16,265.36-652.16"/>
</g>
<g transform="matrix(.35278 0 0 -.35278 47.187 251.86)">
	<path fill="#803A00" d="M490.28-446.65c-15.44,47.72-33.93,87.65-44.16,95.55c-12.86,3.01-27.9,4.62-43.47,4.62
		c-42.32,0-95.59-12.41-118.12-47.23c-15.41-23.82-14.69-54.92,2.16-92.45l4.3-9.59l-9.77,3.92c-23.95,9.57-60.21,21.01-96.94,21.01
		c-28.63,0-53.43-6.93-73.68-20.59c-30.05-20.3-37.77-50.31-34.95-71.62c2.58-19.73,13.79-35.27,29.24-40.6l2.95-1.01l-0.1-3.13
		c-0.14-5.49,2.72-11.52,8.08-17.01c10.03-10.29,26.04-16.67,41.84-16.67c9.72,0,18.8,2.36,26.95,7.04l4.71,2.72l1.49-5.24
		c3.68-12.86,27.13-23.72,51.23-23.72c22.88,0,40.28,9.13,47.74,25.03l1.14,2.46h2.71c34.02,0,195.59,38.81,217.33,66.56
		C515.45-545.29,507.75-500.54,490.28-446.65 M184.58-644.04c-8.3-3.94-17.36-5.95-26.93-5.95c-18.03,0-36.38,7.38-47.93,19.24
		c-6.01,6.18-9.66,13.27-10.35,20.12c-17.07,7.15-29.33,24.84-32.18,46.49c-3.14,23.84,5.37,57.31,38.66,79.78
		c21.66,14.62,48.03,22.02,78.42,22.02c33.95,0,67.31-9.41,90.76-18.02c-14.16,36.24-13.39,66.93,2.34,91.25
		c30.71,47.46,103.65,51.15,125.28,51.15c16.6,0,32.6-1.75,46.27-5.06l1.03-0.4l0.34-0.21c13.75-9.2,34.57-58.27,48.13-99.97
		c18.19-56.07,25.93-103.1,20.65-125.79l-0.46-1.12l-0.23-0.35c-22.84-32.43-188.1-68.92-222.09-70.76
		c-9.43-17.52-29.13-27.55-54.25-27.55C216.08-669.18,192.49-658.71,184.58-644.04"/>
</g>
<g transform="matrix(.35278 0 0 -.35278 48.226 241.41)">
	<path fill="#FF7300" d="M525.52-92.28c8.13-42.63-9.13-70.07-61.9-87.31c-52.8-17.23-95.44-71.04-71.07-171.53
		c24.35-100.47,56.84-168.49,56.84-190.29c-28.41-8.64-82.73,14.04-113.93-46.88c-31.21-60.9,30.38-104.21,52.7-94.06
		c19.62-18.26,51.42-26.38,81.2-7.44c27.06-14.19,100.83-10.72,125.87,45.06c25.04,55.79-28.08,226.63-54.47,267.24
		c-24.35,71.06,49.74,119.26,27.42,263.49C561.06-75.44,525.52-92.28,525.52-92.28"/>
</g>
<g transform="matrix(.35278 0 0 -.35278 43.193 256.88)">
	<path fill="#FF8905" d="M354.84-616.9c75.63-27.88,174.48-42.12,215.4,32.3c56.85,97.44-44.66,194.88-32.48,296.38
		c3.16,25.13,20.89,47.86,34.39,71.92c6.64,22,12.56,47.12,14.12,77.55c-22.33,5.57-44.01,14.36-63.98,26.28
		c-0.99-0.87-1.97-1.76-3.03-2.61c-9.01-7.34-20.85-13.64-35.83-18.99c-1.81-0.66-3.66-1.29-5.56-1.91
		c-22.81-7.47-43.74-21.75-58.15-43.68c-11.2-17.02-18.51-38.65-19.75-65.27c-0.57-12.35,0.15-25.81,2.41-40.37
		c1.1-7.14,2.57-14.53,4.43-22.21c2.75-11.26,5.57-22.12,8.44-32.54c4.44-16.15,9.01-31.27,13.48-45.3
		c4.55-14.37,9.01-27.57,13.12-39.55c1.89-5.43,3.68-10.61,5.37-15.53c5.01-14.39,9.22-26.56,12.12-36.32
		c2.72-9.17,4.32-16.24,4.32-21.07c-28.43-8.61-82.74,14.05-113.93-46.87C334.56-574.28,341.32-599.71,354.84-616.9"/>
</g>
<g transform="matrix(.35278 0 0 -.35278 46.154 253.64)">
	<path fill="#F7DDC4" d="M455.25-507.02c-28.42-8.62-82.73,14.04-113.93-46.86c-31.22-60.91,30.37-104.21,52.7-94.06
		c19.62-18.27,51.42-26.38,81.2-7.45c27.07-14.2,100.83-10.72,125.86,45.06c3.82,8.52,5.84,19.74,6.38,32.78
		C551.68-602.94,491.34-517.69,455.25-507.02"/>
	<path fill="#FCEEB6" d="M455.25-507.02c-28.42-8.62-82.73,14.04-113.93-46.86c-31.22-60.91,16.5-77.37,38.83-67.22
		c19.62-18.28,47.19-26.27,76.97-7.32c39.08-24.22,124.34,17.8,116.76,47.38C528.64-572,484.17-515.55,455.25-507.02"/>
</g>
<g transform="matrix(.35278 0 0 -.35278 44.498 257.41)">
	<path fill="#803A00" d="M399.09-634.86l1-0.92c12.1-11.28,28.14-17.73,44.03-17.73c12.06,0,23.75,3.53,34.7,10.51l1,0.63l1.04-0.55
		c8.28-4.35,20.91-6.85,34.64-6.85c31.7,0,71.58,13.38,88.44,50.93c3.27,7.28,5.27,16.96,6.03,28.83
		c-6.23-2.42-12.76-3.61-19.46-3.61c-30.78,0-61.09,24.61-87.84,46.31c-15.89,12.91-30.93,25.12-42.72,28.83
		c-7.93-2.24-17.7-2.28-28.03-2.3c-27.6-0.06-61.95-0.15-84.08-43.35c-14.49-28.3-7.75-50.26,0.47-63.7
		c11.47-18.76,30.62-28.9,42.84-28.9c2.59,0,4.85,0.46,6.74,1.32L399.09-634.86z M444.12-657.56c-16.48,0-33.12,6.52-45.83,17.94
		c-2.14-0.78-4.55-1.15-7.16-1.15c-13.32,0-34.07,10.8-46.3,30.81c-12.39,20.25-12.61,44.29-0.62,67.68
		c23.27,45.4,58.98,45.47,87.69,45.56c10.28,0.02,19.99,0.05,27.46,2.31l0.57,0.18l0.6-0.18c12.63-3.72,27.48-15.78,44.71-29.75
		c26.2-21.29,55.93-45.4,85.26-45.4c7.21,0,14.23,1.51,20.81,4.52l3.01,1.37l-0.12-3.33c-0.6-13.82-2.8-25.1-6.57-33.51
		c-17.65-39.29-59.18-53.32-92.13-53.32c-13.81,0-26.65,2.47-35.49,6.78C468.68-654.04,456.62-657.56,444.12-657.56"/>
</g>
<g transform="matrix(.35278 0 0 -.35278 46.751 257.57)">
	<path fill="#803A00" d="M475.5-640.3c7.98-4.19,20.23-6.59,33.6-6.59c31,0,69.98,13.04,86.4,49.62c2.86,6.32,4.72,14.6,5.59,24.69
		c-5.46-1.75-11.18-2.62-16.99-2.62c-31.56,0-62.18,24.85-89.22,46.8l-0.13,0.11c-15.42,12.5-29.99,24.34-41.26,28.16
		c-8.1-2.16-17.76-2.19-27.96-2.23c-27-0.06-60.6-0.15-82.12-42.13c-14.03-27.4-7.53-48.57,0.39-61.54
		c11.03-18.08,29.33-27.83,40.94-27.83c2.25,0,4.22,0.37,5.81,1.1l2.57,1.18l2.1-1.94c11.68-10.87,27.18-17.13,42.5-17.13
		c11.63,0,22.91,3.42,33.51,10.15l2.08,1.33L475.5-640.3z M391.37-641.48c-2.03-0.58-4.25-0.88-6.62-0.88
		c-13.93,0-35.54,11.18-48.19,31.9c-12.81,20.93-13.08,45.74-0.71,69.83c23.86,46.6,60.35,46.7,89.68,46.77
		c10.09,0.04,19.62,0.04,26.8,2.23l1.21,0.37l1.24-0.35c13.04-3.86,28.02-16.03,45.46-30.17c25.92-21.04,55.31-44.89,83.87-44.89
		c6.93,0,13.62,1.44,19.9,4.32l6.29,2.83l-0.28-6.91c-0.6-14.13-2.88-25.68-6.75-34.33c-18.09-40.29-60.51-54.65-94.17-54.65
		c-13.49,0-26.29,2.38-35.33,6.49c-11.39-6.77-23.52-10.23-36.04-10.23C421.18-659.14,404.36-652.73,391.37-641.48"/>
</g>
<g transform="matrix(.35278 0 0 -.35278 44.551 257.6)">
	<path fill="#803A00" d="M400.9-641.31c-15.67,14.78-23.22,31.1-22.43,48.56c1.58,34.33,38.45,58.41,38.45,58.41
		c-0.33-0.25-32.9-26.17-34.38-58.61c-0.73-16.22,6.38-31.48,21.15-45.38L400.9-641.31z"/>
</g>
<g transform="matrix(.35278 0 0 -.35278 44.553 257.68)">
	<path fill="#803A00" d="M400.96-644.02l5.84,6.2l-1.62,1.52c-14.28,13.46-21.17,28.16-20.44,43.67
		c1.4,31.27,33.22,56.71,33.53,56.97l-2.6,3.61c-1.54-1-37.84-25.12-39.45-60.17c-0.83-18.13,6.95-35.04,23.12-50.28L400.96-644.02z
		"/>
</g>
<g transform="matrix(.35278 0 0 -.35278 46.806 257.8)">
	<path fill="#803A00" d="M477.37-648.09c-13.65,7.05-22.38,17.35-26.02,30.63c-8.57,31.46,18.67,67.73,18.67,67.73
		c-0.22-0.37-22.85-36.95-14.74-66.66c3.32-12.13,11.37-21.6,23.94-28.11L477.37-648.09z"/>
</g>
<g transform="matrix(.35278 0 0 -.35278 46.831 257.88)">
	<path fill="#803A00" d="M478.21-650.81l3.91,7.54l-1.97,1.03c-12,6.23-19.67,15.2-22.81,26.72c-7.71,28.22,13.58,63.4,14.48,64.89
		l-3.67,2.51c-1.14-1.51-27.79-37.52-19.03-69.63c3.79-13.9,12.91-24.68,27.12-32.04L478.21-650.81z"/>
</g>
<g transform="matrix(.35278 0 0 -.35278 44.421 246.75)">
	<path fill="#191919" d="M396.49-273.37c34.17,9.99,72.45,5.87,72.45,5.87c-15.61,31.22-38.03,49.8-52.71,59.4
		C405.01-225.12,397.73-246.74,396.49-273.37"/>
</g>
<g transform="matrix(.35278 0 0 -.35278 46.692 243.74)">
	<path fill="#191919" d="M473.5-171.3c19.21-15.34,46.93-34.31,79.34-47.27c0,0-25.27,32.85-43.52,66.27
		C500.3-159.67,488.47-165.96,473.5-171.3"/>
</g>
<g transform="matrix(.35278 0 0 -.35278 44.487 247.85)">
	<path fill="#191919" d="M398.72-310.68c1.1-7.14,2.57-14.53,4.43-22.22c2.75-11.25,5.57-22.12,8.44-32.53
		c14.87-3.77,32.19-5.06,46.37,2.43c31.85,16.86,73.53-1.81,73.53-1.81c-25.08,30.12-55.19,45.18-90.32,45.18
		C423.36-319.63,408.77-315.13,398.72-310.68"/>
</g>
<g transform="matrix(.35278 0 0 -.35278 45.204 250.58)">
	<path fill="#191919" d="M423.03-403.25c4.56-14.37,9.01-27.57,13.13-39.56c31.66,30.53,90.79,32.81,90.79,32.81
		C488.27-381,442.16-395.21,423.03-403.25"/>
</g>
<g transform="matrix(.35278 0 0 -.35278 45.707 252.07)">
	<path fill="#191919" d="M440.1-453.78c5-14.39,9.22-26.56,12.11-36.34c14.91,4.08,45.97,9.29,83.35-3.16
		C535.57-493.28,498.45-454.79,440.1-453.78"/>
</g>
<g transform="matrix(.35278 0 0 -.35278 44.498 257.41)">
	<path fill="#803A00" d="M399.09-634.86l1-0.92c12.1-11.28,28.14-17.73,44.03-17.73c12.06,0,23.75,3.53,34.7,10.51l1,0.63l1.04-0.55
		c8.28-4.35,20.91-6.85,34.64-6.85c31.7,0,71.58,13.38,88.44,50.93c24.25,54.03-27.18,223.51-54.33,265.3l-0.22,0.45
		c-11.24,32.8-2.15,60.12,9.34,94.71c13.45,40.37,30.14,90.63,17.98,169.11c-2.87,15.68-10.94,23.66-23.94,23.66
		c-6.2,0-11.86-1.87-14.39-2.86c7.78-43.93-11.9-71.12-63.57-88c-24.07-7.87-100.23-43.28-69.71-169.13
		c13.17-54.21,28.77-99.25,40.17-132.13c10.08-29.08,16.74-48.29,16.74-58.65v-1.53l-1.46-0.42c-8.03-2.43-18.02-2.47-28.62-2.49
		c-27.6-0.06-61.95-0.15-84.08-43.35c-14.49-28.3-7.75-50.26,0.47-63.7c11.47-18.76,30.62-28.9,42.84-28.9
		c2.58,0,4.85,0.46,6.73,1.32L399.09-634.86z M444.12-657.56c-16.48,0-33.12,6.52-45.83,17.94c-2.14-0.78-4.55-1.15-7.16-1.15
		c-13.32,0-34.07,10.8-46.3,30.81c-12.39,20.25-12.61,44.29-0.62,67.68c23.27,45.4,58.98,45.47,87.69,45.56
		c9.61,0.02,18.72,0.04,25.96,1.9c-0.66,10.18-7.37,29.52-16.46,55.78c-11.43,32.96-27.09,78.12-40.28,132.54
		c-31.32,129.21,47.5,165.78,72.4,173.91c50.64,16.53,68.76,41.97,60.55,85.01l-0.28,1.54l1.4,0.68c0.33,0.14,8.25,3.84,17.56,3.84
		c10.47,0,23.84-4.7,27.96-27.04c12.29-79.51-4.58-130.29-18.16-171.08c-11.23-33.79-20.1-60.5-9.43-91.9
		c28.28-43.8,79.69-212.8,54.48-268.96c-17.65-39.29-59.17-53.32-92.13-53.32c-13.81,0-26.65,2.47-35.48,6.78
		C468.68-654.04,456.62-657.56,444.12-657.56"/>
</g>
<g transform="matrix(.35278 0 0 -.35278 50.202 254.14)">
	<path fill="#803A00" d="M592.52-523.97c-3.33,23.1-8.75,47.85-15.19,71.64C583.74-476.13,589.16-500.88,592.52-523.97
		 M465.72-650.08c7.98-4.19,20.23-6.59,33.6-6.59c31,0,69.98,13.04,86.41,49.63c23.99,53.45-27.18,221.64-54.16,263.16l-0.47,0.95
		c-11.48,33.51-2.29,61.13,9.34,96.13c13.37,40.14,29.97,90.11,17.91,168.02c-2.71,14.7-9.82,21.85-21.76,21.85
		c-4.75,0-9.2-1.2-11.89-2.11c7.14-44.18-13.1-71.56-65.4-88.65c-23.6-7.71-98.28-42.51-68.23-166.46
		c13.12-54.1,28.7-99.06,40.09-131.93c10.15-29.29,16.86-48.63,16.86-59.39v-3.16l-3.03-0.92c-8.34-2.53-18.51-2.56-29.26-2.6
		c-27-0.06-60.61-0.14-82.12-42.13c-14.03-27.37-7.52-48.57,0.39-61.54c11.04-18.06,29.33-27.8,40.94-27.8
		c2.25,0,4.22,0.37,5.81,1.09l2.58,1.18l2.09-1.92c11.68-10.9,27.18-17.13,42.5-17.13c11.65,0,22.92,3.4,33.51,10.15l2.08,1.32
		L465.72-650.08z M381.6-651.26c-2.04-0.58-4.28-0.89-6.63-0.89c-13.93,0-35.54,11.19-48.19,31.89
		c-12.81,20.94-13.06,45.76-0.71,69.85c23.88,46.6,60.35,46.69,89.68,46.76c8.66,0.01,16.89,0.04,23.57,1.42
		c-1.27,10.31-7.61,28.6-16.22,53.44c-11.44,32.99-27.09,78.14-40.29,132.6c-31.78,131.08,48.48,168.29,73.87,176.56
		c49.33,16.14,66.99,40.8,59.04,82.49l-0.61,3.23l2.98,1.41c0.34,0.18,8.65,4.07,18.51,4.07c9.27,0,25.52-3.76,30.17-28.94
		c12.37-80.06-4.61-131.08-18.24-172.1c-11.08-33.33-19.82-59.65-9.53-90.22c14.85-23.14,34.77-77.85,47.45-130.31
		c9.18-37.93,22.28-106.6,7.05-140.54c-18.08-40.28-60.51-54.65-94.17-54.65c-13.49,0-26.28,2.36-35.33,6.49
		c-11.39-6.79-23.52-10.23-36.04-10.23C411.4-668.93,394.56-662.51,381.6-651.26"/>
</g>
<g transform="matrix(.35278 0 0 -.35278 61.983 233)">
	<path fill="#FF7300" d="M992.04,192.9c0,0,187.95-47.46,216.43,161.37c15.19,117.71-77.86,212.65-187.96,212.65
		c-110.11,0-180.52-77.15-180.36-152.29C840.33,339.49,992.04,192.9,992.04,192.9"/>
</g>
<g transform="matrix(.35278 0 0 -.35278 62.758 222.82)">
	<path fill="#FF8905" d="M1018.31,538.13c-110.12,0-180.53-77.13-180.36-152.28c0.05-25.01,16.9-57.92,39.32-90.69
		c12.24,39.46,32,76.18,71.36,94.82c87.17,41.42,190.95,24.39,259.15-35.61C1205.76,458.34,1119.24,538.13,1018.31,538.13"/>
</g>
<g transform="matrix(.35278 0 0 -.35278 60.164 224.14)">
	<path fill="#FFB869" d="M930.35,493.36c51.27,28.47,125.31,37.02,182.27,11.38c29.07-13.9,53.63-32.85,75.96-54.61
		c-33.48,55.43-94.91,91.69-162.91,91.69c-110.14,0-180.53-77.13-180.37-152.28c0.01-11.84,3.85-25.46,10.21-39.98
		C862.14,408.05,885.46,467.36,930.35,493.36"/>
</g>
<g transform="matrix(.35278 0 0 -.35278 62.002 232.97)">
	<path fill="#803A00" d="M992.68,193.92c2.71-0.63,20.14-4.51,43.75-4.51h0.02c55.3,0,150.99,21.42,170.53,164.77
		c6.99,54.17-8.72,106.26-44.24,146.66c-35.97,40.9-87.83,64.37-142.29,64.37c-53.75,0-102.05-18.75-136-52.76
		c-27.37-27.44-43.03-63.2-42.94-98.08C841.68,342.19,985.39,201.05,992.68,193.92 M1036.46,186.58h-0.03
		c-25.98,0-44.62,4.62-44.8,4.67l-0.38,0.1l-0.27,0.25c-6.22,6-152.14,147.86-152.32,222.76c-0.1,35.65,15.88,72.12,43.79,100.1
		c34.47,34.57,83.47,53.59,138,53.59c55.28,0,107.92-23.81,144.43-65.33c36.08-41.03,52.03-93.91,44.93-148.9
		C1189.97,208.3,1092.69,186.58,1036.46,186.58"/>
	<path fill="none" stroke="#803A00" stroke-width="2.0945" stroke-miterlimit="10" d="M992.68,193.92
		c2.71-0.63,20.14-4.51,43.75-4.51h0.02c55.3,0,150.99,21.42,170.53,164.77c6.99,54.17-8.72,106.26-44.24,146.66
		c-35.97,40.9-87.83,64.37-142.29,64.37c-53.75,0-102.05-18.75-136-52.76c-27.37-27.44-43.03-63.2-42.94-98.08
		C841.68,342.19,985.39,201.05,992.68,193.92z M1036.46,186.58h-0.03c-25.98,0-44.62,4.62-44.8,4.67l-0.38,0.1l-0.27,0.25
		c-6.22,6-152.14,147.86-152.32,222.76c-0.1,35.65,15.88,72.12,43.79,100.1c34.47,34.57,83.47,53.59,138,53.59
		c55.28,0,107.92-23.81,144.43-65.33c36.08-41.03,52.03-93.91,44.93-148.9C1189.97,208.3,1092.69,186.58,1036.46,186.58z"/>
</g>
<g transform="matrix(.35278 0 0 -.35278 61.275 231.93)">
	<path fill="#FC7575" d="M968.03,229.19c0,0,144.09-10.71,177.14,133.54c17.86,81.62-203.07,107.65-230.87-32.29
		C952.28,261.84,968.03,229.19,968.03,229.19"/>
</g>
<g transform="matrix(.35278 0 0 -.35278 63.342 226.86)">
	<path fill="#FC8686" d="M1038.11,401.12c-31.33-2.86-82.58-22.78-56.95-59.8c11.39-17.1,42.71-11.39,54.1-28.5
		c19.94-22.77-14.23-45.55-22.79-65.49c-5.07-10.77-5.59-20.29-2.96-28.61c45.12,9.54,109.15,39.17,129.78,129.3
		c2.33,10.7,0.56,20.42-4.33,28.96C1107.51,397.72,1071.81,403.53,1038.11,401.12"/>
</g>
<g transform="matrix(.35278 0 0 -.35278 61.299 231.9)">
	<path fill="#803A00" d="M968.83,230.21c1.04-0.07,3.01-0.13,5.77-0.13c32.53,0,140.88,9.57,169.08,132.62
		c2.7,12.33-0.08,23.75-8.21,33.88c-15.57,19.32-48.63,31.32-86.31,31.32c-52.5,0-118.86-25.56-133.44-97.58
		C950,268.35,966.27,235.47,968.83,230.21 M974.61,227.25c-4.28,0-6.69,0.15-6.8,0.16l-0.81,0.07l-0.35,0.76
		c-0.17,0.3-16.17,33.37-53.68,101.15l-0.25,0.47l0.11,0.52c14.7,74.08,82.64,100.39,136.33,100.39c38.51,0,72.44-12.41,88.51-32.4
		c8.61-10.7,11.66-23.23,8.79-36.29C1117.8,236.97,1007.69,227.25,974.61,227.25"/>
	<path fill="none" stroke="#803A00" stroke-width="2.0945" stroke-miterlimit="10" d="M968.83,230.21c1.04-0.07,3.01-0.13,5.77-0.13
		c32.53,0,140.88,9.57,169.08,132.62c2.7,12.33-0.08,23.75-8.21,33.88c-15.57,19.32-48.63,31.32-86.31,31.32
		c-52.5,0-118.86-25.56-133.44-97.58C950,268.35,966.27,235.47,968.83,230.21z M974.61,227.25c-4.28,0-6.69,0.15-6.8,0.16
		l-0.81,0.07l-0.35,0.76c-0.17,0.3-16.17,33.37-53.68,101.15l-0.25,0.47l0.11,0.52c14.7,74.08,82.64,100.39,136.33,100.39
		c38.51,0,72.44-12.41,88.51-32.4c8.61-10.7,11.66-23.23,8.79-36.29C1117.8,236.97,1007.69,227.25,974.61,227.25z"/>
</g>
<g transform="matrix(.35278 0 0 -.35278 41.471 233)">
	<path fill="#FF7300" d="M296.45,192.9c0,0-187.95-47.46-216.43,161.37c-15.19,117.71,77.84,212.65,187.95,212.65
		c110.11,0,180.52-77.15,180.36-152.29C448.16,339.49,296.45,192.9,296.45,192.9"/>
</g>
<g transform="matrix(.35278 0 0 -.35278 40.696 222.82)">
	<path fill="#FF8905" d="M270.16,538.13c110.11,0,180.55-77.13,180.36-152.28c-0.06-25.01-16.89-57.92-39.33-90.69
		c-12.22,39.46-31.99,76.18-71.36,94.82c-87.16,41.42-190.92,24.39-259.15-35.61C82.71,458.34,169.22,538.13,270.16,538.13"/>
</g>
<g transform="matrix(.35278 0 0 -.35278 43.289 224.14)">
	<path fill="#FFB869" d="M358.1,493.36c-51.26,28.47-125.3,37.02-182.27,11.38c-29.07-13.9-53.61-32.85-75.94-54.61
		c33.48,55.43,94.89,91.69,162.9,91.69c110.12,0,180.55-77.13,180.37-152.28c-0.02-11.84-3.85-25.46-10.21-39.98
		C426.31,408.05,403,467.36,358.1,493.36"/>
</g>
<g transform="matrix(.35278 0 0 -.35278 45.565 226.97)">
	<path fill="#803A00" d="M435.28,397.39c0.08,34.9-15.58,70.65-42.94,98.1c-33.96,34.02-82.25,52.76-136,52.76
		c-54.46,0-106.33-23.47-142.3-64.37c-35.51-40.39-51.22-92.49-44.22-146.66c19.53-143.37,115.21-164.77,170.52-164.77h0.02
		c23.61,0,41.04,3.88,43.74,4.51C291.4,184.06,435.11,325.22,435.28,397.39 M66.98,336.85c-7.1,54.99,8.85,107.87,44.93,148.9
		c36.5,41.54,89.16,65.33,144.43,65.33c54.51,0,103.54-19.01,138.01-53.59c27.9-27.98,43.88-64.46,43.79-100.11
		c-0.19-74.89-146.11-216.75-152.32-222.75l-0.29-0.27l-0.37-0.09c-0.17-0.05-18.84-4.67-44.8-4.67h-0.02
		C184.1,169.61,86.82,191.33,66.98,336.85"/>
	<path fill="none" stroke="#803A00" stroke-width="2.0945" stroke-miterlimit="10" d="M435.28,397.39
		c0.08,34.9-15.58,70.65-42.94,98.1c-33.96,34.02-82.25,52.76-136,52.76c-54.46,0-106.33-23.47-142.3-64.37
		c-35.51-40.39-51.22-92.49-44.22-146.66c19.53-143.37,115.21-164.77,170.52-164.77h0.02c23.61,0,41.04,3.88,43.74,4.51
		C291.4,184.06,435.11,325.22,435.28,397.39z M66.98,336.85c-7.1,54.99,8.85,107.87,44.93,148.9
		c36.5,41.54,89.16,65.33,144.43,65.33c54.51,0,103.54-19.01,138.01-53.59c27.9-27.98,43.88-64.46,43.79-100.11
		c-0.19-74.89-146.11-216.75-152.32-222.75l-0.29-0.27l-0.37-0.09c-0.17-0.05-18.84-4.67-44.8-4.67h-0.02
		C184.1,169.61,86.82,191.33,66.98,336.85z"/>
</g>
<g transform="matrix(.35278 0 0 -.35278 42.179 231.93)">
	<path fill="#FC7575" d="M320.46,229.19c0,0-144.1-10.71-177.15,133.54c-17.85,81.62,203.08,107.65,230.85-32.29
		C336.19,261.84,320.46,229.19,320.46,229.19"/>
</g>
<g transform="matrix(.35278 0 0 -.35278 40.112 226.86)">
	<path fill="#FC8686" d="M250.36,401.12c31.33-2.86,82.59-22.78,56.97-59.8c-11.4-17.1-42.72-11.39-54.12-28.5
		c-19.94-22.77,14.24-45.55,22.8-65.49c5.05-10.77,5.6-20.29,2.95-28.61c-45.13,9.54-109.14,39.17-129.78,129.3
		c-2.33,10.7-0.54,20.42,4.34,28.96C180.95,397.72,216.66,403.53,250.36,401.12"/>
</g>
<g transform="matrix(.35278 0 0 -.35278 43.6 229.17)">
	<path fill="#803A00" d="M368.65,322.79c-14.58,72.03-80.94,97.58-133.45,97.58c-37.68,0-70.75-11.99-86.28-31.32
		c-8.15-10.14-10.94-21.54-8.24-33.89c28.21-123.04,136.54-132.59,169.08-132.59c2.77,0,4.73,0.05,5.77,0.12
		C318.1,227.96,334.36,260.84,368.65,322.79 M137.9,354.54c-2.86,13.06,0.19,25.61,8.8,36.29c16.06,19.99,49.98,32.4,88.5,32.4
		c53.71,0,121.64-26.3,136.35-100.39l0.09-0.52l-0.24-0.45c-37.52-67.79-53.51-100.86-53.69-101.17l-0.34-0.74l-0.83-0.05
		c-0.09-0.01-2.52-0.17-6.79-0.17C276.67,219.72,166.55,229.44,137.9,354.54"/>
	<path fill="none" stroke="#803A00" stroke-width="2.0945" stroke-miterlimit="10" d="M368.65,322.79
		c-14.58,72.03-80.94,97.58-133.45,97.58c-37.68,0-70.75-11.99-86.28-31.32c-8.15-10.14-10.94-21.54-8.24-33.89
		c28.21-123.04,136.54-132.59,169.08-132.59c2.77,0,4.73,0.05,5.77,0.12C318.1,227.96,334.36,260.84,368.65,322.79z M137.9,354.54
		c-2.86,13.06,0.19,25.61,8.8,36.29c16.06,19.99,49.98,32.4,88.5,32.4c53.71,0,121.64-26.3,136.35-100.39l0.09-0.52l-0.24-0.45
		c-37.52-67.79-53.51-100.86-53.69-101.17l-0.34-0.74l-0.83-0.05c-0.09-0.01-2.52-0.17-6.79-0.17
		C276.67,219.72,166.55,229.44,137.9,354.54z"/>
</g>
<g transform="matrix(.35278 0 0 -.35278 63.155 235.28)">
	<path fill="#FF7300" d="M1031.78,115.59c19.18-53.07-5.51-139.89-41.18-165.58c0,20.87-5.49,41.77-5.49,41.77
		c-13.7-61.08-62.22-122.21-103.39-131.04c7.22,18.43,7.36,39.41,7.36,39.41c-12.66-19-42.36-32.91-75.13-41.27
		c-0.56-0.14-1.13-0.28-1.68-0.42c-30.56-7.63-63.55-10.47-87.78-8.16c-21.82-51.12-64.63-68.9-110.58-67.56
		c-45.94-1.34-88.78,16.44-110.58,67.56c-24.89-2.36-58.98,0.66-90.2,8.75c-3.57,0.91-7.08,1.9-10.54,2.95
		c-28.17,8.55-52.67,21.36-63.89,38.14c0,0,0.17-20.98,7.4-39.41c-41.17,8.82-89.69,69.95-103.43,131.04c0,0-5.48-20.9-5.48-41.78
		c-35.66,25.7-60.35,112.52-41.15,165.58c0,0-19.19-17.7-27.43-38.61c-19.2,117.45,43.9,128.63,78.2,236.35
		c96.79,315.47,350.27,283.96,367.12,281.51c16.85,2.46,270.3,33.97,367.12-281.5c13.43-42.17,31.27-69.54,46.84-94.3
		c15.79-25.01,29.23-47.36,33.48-79.6c2.32-17.3,1.95-37.47-2.14-62.45C1050.96,97.89,1031.78,115.59,1031.78,115.59"/>
</g>
<g transform="matrix(.35278 0 0 -.35278 55.121 240.49)">
	<path fill="#FF8905" d="M759.34-61.09c20.57-45.81,76.13-36.17,113.16-21.7c30.86,12.07,47.34,45.83,61.73,79.58
		c4.14-9.62,4.14-26.52,6.19-26.52c45.28,9.65,63.79,67.52,57.63,118.16c8.23,0,16.46-19.28,18.52-12.05
		c20.57,48.23-9.04,101.77-29.61,150.01C928.08,516.5,820.51,568.58,784.02,590.05l-0.71,0.65
		c-74.61,28.04-138.44,20.01-146.63,18.82c-16.85,2.48-270.3,33.98-367.1-281.48c-34.3-107.73-97.4-118.91-78.19-236.35
		c8.22,20.9,27.44,38.6,27.44,38.6C199.6,77.23,224.3-9.58,259.99-35.31c0,20.91,5.47,41.8,5.47,41.8
		c13.72-61.09,62.25-122.2,103.4-131.04c-7.22,18.43-7.36,39.41-7.36,39.41c24.67-36.99,113.84-54.67,164.62-49.85
		c10.46-24.53,25.77-41.38,43.95-52.12C649.8-207.66,733.47-158.08,759.34-61.09"/>
</g>
<g transform="matrix(.35278 0 0 -.35278 40.672 234.25)">
	<path fill="#FFB869" d="M269.36,150.52c-8.24-2.41-16.47-9.65-24.7-12.07c10.29,50.65,53.57,85.32,74.08,127.82
		c76.81,159.17,41.84,173.63,179.04,277.34c33.32,25.2,70.18,38.14,108.05,47.91c-86.73-10.71-228.43-63-295.32-281
		c-34.31-107.72-97.41-118.91-78.2-236.34c8.22,20.9,27.45,38.59,27.45,38.59c-18.23-50.35,3.08-131.06,35.79-161.15
		C267.35,14,269.36,83.45,269.36,150.52"/>
</g>
<g transform="matrix(.35278 0 0 -.35278 60.362 226.68)">
	<path fill="#191919" d="M937.06,407.22c10.98-18.04,21.29-38.02,30.72-60.13c-15.09-2.98-38.3-9.61-50.18-23.55
		C925.98,342.01,935.76,379.12,937.06,407.22"/>
</g>
<g transform="matrix(.35278 0 0 -.35278 54.157 226.18)">
	<path fill="#191919" d="M726.64,424.19c1.9,62.96,14.15,112.67,21.62,137.58c20.91-5.04,43.5-12.67,66.56-24.07
		C795.51,525.83,756.45,494.61,726.64,424.19"/>
</g>
<g transform="matrix(.35278 0 0 -.35278 60.411 231.41)">
	<path fill="#191919" d="M938.73,246.83c4.92,33.27,30.26,70.61,40.37,84.46c3.39-9.33,6.64-18.99,9.7-29.02
		c4.97-15.61,10.56-29.18,16.39-41.34C983.59,262.65,957.58,255.26,938.73,246.83"/>
</g>
<g transform="matrix(.35278 0 0 -.35278 60.218 228.65)">
	<path fill="#191919" d="M932.19,340.42c-1.75,4.79-3.49,9.45-5.24,14.04c-2.89-9.91-5.99-18.75-8.94-25.24
		C921.8,333.65,926.73,337.35,932.19,340.42"/>
</g>
<g transform="matrix(.35278 0 0 -.35278 60.984 231.19)">
	<path fill="#191919" d="M958.16,254.29c-2.67,10.72-5.42,21.07-8.22,31.04c-5.97-12.51-10.95-26-12.84-38.88
		C943.46,249.27,950.63,251.99,958.16,254.29"/>
</g>
<g transform="matrix(.35278 0 0 -.35278 43.204 226.68)">
	<path fill="#191919" d="M355.22,407.22c-10.96-18.04-21.28-38.02-30.72-60.13c15.09-2.98,38.3-9.61,50.18-23.55
		C366.31,342.01,356.53,379.12,355.22,407.22"/>
</g>
<g transform="matrix(.35278 0 0 -.35278 49.408 226.18)">
	<path fill="#191919" d="M565.61,424.19c-1.9,62.97-14.15,112.67-21.61,137.58c-20.91-5.04-43.5-12.67-66.56-24.07
		C496.74,525.83,535.81,494.61,565.61,424.19"/>
</g>
<g transform="matrix(.35278 0 0 -.35278 43.155 231.41)">
	<path fill="#191919" d="M353.56,246.83c-4.92,33.27-30.27,70.61-40.39,84.46c-3.38-9.33-6.61-18.99-9.69-29.02
		c-4.97-15.61-10.54-29.18-16.38-41.34C308.69,262.65,334.7,255.26,353.56,246.83"/>
</g>
<g transform="matrix(.35278 0 0 -.35278 42.368 228.31)">
	<path fill="#666666" d="M326.86,351.95c7.89-1.56,17.99-4.11,27.51-8.19c3.51,9.14,6.67,17.6,9.69,25.51
		c-3.34,14.33-5.84,29.57-6.47,42.81C346.62,394.05,336.32,374.07,326.86,351.95"/>
</g>
<g transform="matrix(.35278 0 0 -.35278 48.82 222.43)">
	<path fill="#666666" d="M545.67,551.35c-20.91-5.06-43.5-12.7-66.56-24.08c2.99-1.82,6.42-4.12,10.23-6.96
		c18.38,11.72,37.68,20.3,57.49,27.11C546.41,548.81,546.02,550.1,545.67,551.35"/>
</g>
<g transform="matrix(.35278 0 0 -.35278 41.792 229.9)">
	<path fill="#666666" d="M307.34,298.04c-4.99-15.61-10.54-29.18-16.39-41.36c8.03,0.63,16.66,0.02,25.31-1.46
		c7.53,15.62,13.96,29.84,19.57,42.88c-7.18,12.56-14.42,22.94-18.81,28.93C313.63,317.71,310.4,308.04,307.34,298.04"/>
</g>
<g transform="matrix(.35278 0 0 -.35278 63.96 234.63)">
	<path fill="#191919" d="M1059.07,137.63c-60.7,34.85-129.06,41.25-129.06,41.25c42.74,37.27,76.09,41.04,95.57,38.36
		C1041.38,192.22,1054.82,169.88,1059.07,137.63"/>
</g>
<g transform="matrix(.35278 0 0 -.35278 52.912 222.19)">
	<path fill="#191919" d="M684.42,559.48c-22.52,0.67-37.78-1.28-41.5-1.82c-4.68,0.68-27.63,3.61-60.39,0.71
		c14.91-45.22,48.39-153.28,60.39-247.61C645.61,391.42,673.5,511.16,684.42,559.48"/>
</g>
<g transform="matrix(.35278 0 0 -.35278 54.816 242.78)">
	<path fill="#7C6F62" d="M748.99-138.74l-1.81,0.96c11.77,22.18,12.57,33.93,12.57,34.04C759.75-103.74,760.97-116.18,748.99-138.74
		"/>
</g>
<g transform="matrix(.35278 0 0 -.35278 48.749 242.78)">
	<path fill="#7C6F62" d="M543.26-138.74c-11.99,22.57-10.75,35-10.75,35c0-0.12,0.84-11.94,12.57-34.04L543.26-138.74z"/>
</g>
<g transform="matrix(.35278 0 0 -.35278 57.817 239.82)">
	<path fill="#F7DDC4" d="M850.76-38.37c-0.09-1.04-0.2-2.07-0.28-3.1c-0.27-2.56-0.56-5.1-0.93-7.67c-0.01-0.05-0.01-0.13-0.04-0.19
		c-2.11-15.25-12.48-51.28-22.13-79.1c-30.56-7.63-63.55-10.47-87.79-8.15c-21.81-51.13-64.63-68.92-110.57-67.56
		c-45.95-1.35-88.78,16.43-110.58,67.56c-24.89-2.38-59,0.66-90.21,8.75c-3.56,0.91-7.08,1.9-10.53,2.95
		c-3.81,28.23-6.8,58.41-8.66,69.37c-0.02,0.03-0.02,0.07-0.04,0.1c-0.39,2.41-0.79,4.8-1.09,7.2c-0.05,0.33-0.09,0.65-0.14,0.96
		c-0.29,2.37-0.6,4.71-0.8,7.05c-0.1,1.04-0.19,2.03-0.27,3.04c-0.09,1.02-0.17,2.02-0.23,3.04c-0.99,15-0.15,29.74,2.56,43.68
		c0,0,0,0.01,0.01,0.02c0.43,2.25,0.91,4.48,1.46,6.68c0,0,0.01,0.02,0.01,0.04c0.53,2.21,1.13,4.42,1.76,6.58
		c1.72,5.8,3.8,11.41,6.25,16.8c0.58,1.29,1.19,2.57,1.84,3.82c1.83,3.76,3.91,7.39,6.15,10.88c0.92,1.46,1.9,2.86,2.89,4.24
		c4.43,6.24,9.52,11.96,15.3,17.14c49.31,44.13,107.87,4.39,187.35,4.11c75.34-0.25,141.26,36.39,181.24-2.86
		c2.42-2.39,4.72-4.86,6.93-7.4c3.62-4.27,6.95-8.77,9.92-13.49c2.39-3.79,4.6-7.7,6.54-11.71c1-2.03,1.94-4.06,2.82-6.13
		c2.67-6.2,4.87-12.68,6.63-19.36C850.93,0.93,852.41-18.53,850.76-38.37"/>
</g>
<g transform="matrix(.35278 0 0 -.35278 56.798 236.68)">
	<path fill="#FCEEB6" d="M816.2,68.11c-39.98,39.28-105.91,2.61-181.23,2.88c-79.5,0.27-138.05,40.04-187.37-4.1
		c-37.28-33.38-46.3-90.85-32.46-146.51c33.67-21.85,60.5-32.83,94.54-41.44c45.26,1.3,74.58-80.45,134.43-71.55
		c59.06,8.8,74.6,63.22,104.36,74.18c31.21,11.51,60.07,17.17,95.55,30.37C858.5-32.23,852.96,32.03,816.2,68.11"/>
</g>
<g transform="matrix(.35278 0 0 -.35278 53.725 239.89)">
	<path fill="#803A00" d="M711.99-40.74c-39.43,0-65.88,13.59-76.92,39.42c-4.58-12.41-19.89-39.42-66.13-39.42
		c-1.03,0-2.08,0.01-3.14,0.04c-62.53,1.61-67.5,54.91-67.5,54.91c0.32-1.99,8.49-48.63,67.59-50.15
		c59.14-1.6,66.67,39.83,66.98,41.6l1.38,8.17l2.51-7.8c11.15-34.72,47.07-42.02,75.23-42.02c47.55,0,65.63,50.17,65.79,50.66
		C777.78,14.67,762.24-40.74,711.99-40.74"/>
</g>
<g transform="matrix(.35278 0 0 -.35278 49.033 239.7)">
	<path fill="#803A00" d="M552.89-34.3c7.32-2.62,15.99-4.3,26.28-4.57c1.04-0.01,2.08-0.01,3.09-0.01c13.04,0,23.55,2.2,31.99,5.62
		c-9.12-3.52-20.62-5.68-35.12-5.29C569-38.29,560.32-36.72,552.89-34.3 M668.21-23.45c13.57-10.16,32.85-15.43,57.09-15.43
		c7.27,0,13.79,1.2,19.62,3.28c-5.92-1.89-12.44-3-19.62-3C706.61-38.61,684.57-35.44,668.21-23.45 M725.3-43.34
		c-37.89,0-64.32,12.49-76.8,36.22c-6.48-13.67-23.65-36.22-66.25-36.22c-1.05,0-2.11,0.01-3.18,0.04
		c-63.78,1.65-69.64,56.37-69.68,56.93l4.41,0.55c0.3-1.9,8.2-46.81,65.43-48.27c57.13-1.54,64.46,38.04,64.74,39.73l2.91,17.15
		l5.29-16.45c10.74-33.46,45.7-40.48,73.12-40.48c45.79,0,63.52,48.69,63.69,49.18l4.24-1.35C793.08,13.12,776.64-43.34,725.3-43.34
		"/>
</g>
<g transform="matrix(.35278 0 0 -.35278 51.711 240.78)">
	<path fill="#803A00" d="M643.7-70.93c-26.47,0-40.54,21.94-40.54,21.94c0.17-0.17,15.74-17.19,40.54-17.19
		c24.66,0,35.39,16.69,35.49,16.86C679.19-49.32,670.41-70.93,643.7-70.93"/>
</g>
<g transform="matrix(.35278 0 0 -.35278 51.413 240.69)">
	<path fill="#803A00" d="M633.59-67.87c3.38-0.87,7.03-1.39,10.98-1.39c4.04,0,7.66,0.52,10.87,1.4c-3.29-0.71-6.92-1.1-10.87-1.1
		C640.69-68.95,637.03-68.57,633.59-67.87 M644.57-73.71c-27.39,0-41.81,22.02-42.42,22.95l3.56,2.67
		c0.13-0.14,15.18-16.42,38.87-16.42c23.26,0,33.51,15.66,33.6,15.81l3.94-2.02C682.01-50.94,672.42-73.71,644.57-73.71"/>
</g>
<g transform="matrix(.35278 0 0 -.35278 53.667 236.48)">
	<path fill="#E24747" d="M710.03,74.9c0-21.23-33.02-46.76-70.59-46.76c-37.55,0-68.01,27.11-68.01,48.34
		c0,21.23,30.46,28.52,68.01,28.52C677.02,105,710.03,96.11,710.03,74.9"/>
	<path fill="#FF615C" d="M710.03,74.9c0-21.23-138.6-19.65-138.6,1.58c0,21.23,30.46,28.52,68.01,28.52
		C677.02,105,710.03,96.11,710.03,74.9"/>
</g>
<g transform="matrix(.35278 0 0 -.35278 53.095 236.13)">
	<path fill="#F9CFCF" d="M690.64,86.77c0-3.03-21.47-5.47-47.95-5.47c-26.49,0-47.96,2.44-47.96,5.47c0,3.01,21.47,5.47,47.96,5.47
		C669.17,92.24,690.64,89.78,690.64,86.77"/>
</g>
<g transform="matrix(.35278 0 0 -.35278 51.746 235.73)">
	<path fill="#C63434" d="M644.89,100.33c-42.54,0-65.97-9.28-65.97-26.15c0-18.52,27.7-45.97,65.97-45.97
		c36.28,0,68.55,24.83,68.55,44.39C713.44,93.04,678.03,100.33,644.89,100.33 M644.89,23.47c-38.79,0-70.03,27.73-70.03,50.71
		c0,20.22,24.22,30.9,70.03,30.9c45.47,0,72.62-12.14,72.62-32.48C717.5,50.48,683.99,23.47,644.89,23.47"/>
	<path fill="none" stroke="#C63434" stroke-width="1.5686" stroke-miterlimit="10" d="M644.89,100.33
		c-42.54,0-65.97-9.28-65.97-26.15c0-18.52,27.7-45.97,65.97-45.97c36.28,0,68.55,24.83,68.55,44.39
		C713.44,93.04,678.03,100.33,644.89,100.33z M644.89,23.47c-38.79,0-70.03,27.73-70.03,50.71c0,20.22,24.22,30.9,70.03,30.9
		c45.47,0,72.62-12.14,72.62-32.48C717.5,50.48,683.99,23.47,644.89,23.47z"/>
</g>
<g transform="matrix(.35278 0 0 -.35278 44.871 238.47)">
	<path fill="#803A00" d="M411.75,7.42c0,0,104.54,54.71,155.57,20.38c0.92-0.62,1.11-0.62,2.72-1.93c2.13-1.76-0.29-5.38-2.21-3.99
		c-1.9,1.41-1.7,1.27-2.56,1.85C516,57.07,412.8,7.91,411.75,7.42"/>
	<path fill="none" stroke="#803A00" stroke-width="2.0945" stroke-miterlimit="10" d="M411.75,7.42c0,0,104.54,54.71,155.57,20.38
		c0.92-0.62,1.11-0.62,2.72-1.93c2.13-1.76-0.29-5.38-2.21-3.99c-1.9,1.41-1.7,1.27-2.56,1.85C516,57.07,412.8,7.91,411.75,7.42z"/>
</g>
<g transform="matrix(.35278 0 0 -.35278 45.687 240.77)">
	<path fill="#803A00" d="M439.41-70.59c0,0,75.72,83.83,123.96,79.25c1.2-0.1,2.19-0.26,3.58-0.51c2.19-0.35,1.6-5.19-0.67-4.68
		c-1.56,0.35-2.23,0.38-3.37,0.51C516.43,8.53,440.22-69.78,439.41-70.59"/>
	<path fill="none" stroke="#803A00" stroke-width="2.0945" stroke-miterlimit="10" d="M439.41-70.59c0,0,75.72,83.83,123.96,79.25
		c1.2-0.1,2.19-0.26,3.58-0.51c2.19-0.35,1.6-5.19-0.67-4.68c-1.56,0.35-2.23,0.38-3.37,0.51C516.43,8.53,440.22-69.78,439.41-70.59
		z"/>
</g>
<g transform="matrix(.35278 0 0 -.35278 47.412 242.41)">
	<path fill="#803A00" d="M497.92-126.2c0,0,28.12,101.25,76.69,124.91c1.36,0.67,2.14,1.07,4.09,1.8c1.99,0.72,2.88-3.87,1.29-4.52
		c-1.59-0.63-2.56-1.04-3.81-1.65C529.09-28.29,498.22-125.2,497.92-126.2"/>
	<path fill="none" stroke="#803A00" stroke-width="2.0945" stroke-miterlimit="10" d="M497.92-126.2c0,0,28.12,101.25,76.69,124.91
		c1.36,0.67,2.14,1.07,4.09,1.8c1.99,0.72,2.88-3.87,1.29-4.52c-1.59-0.63-2.56-1.04-3.81-1.65
		C529.09-28.29,498.22-125.2,497.92-126.2z"/>
</g>
<g transform="matrix(.35278 0 0 -.35278 58.624 238.38)">
	<path fill="#803A00" d="M878.13,10.47c0,0-104.55,54.73-155.57,20.41c-0.92-0.62-1.14-0.62-2.75-1.96
		c-2.1-1.76,0.32-5.37,2.24-3.98c1.9,1.41,1.68,1.25,2.55,1.85C773.88,60.13,877.08,10.97,878.13,10.47"/>
	<path fill="none" stroke="#803A00" stroke-width="2.0945" stroke-miterlimit="10" d="M878.13,10.47c0,0-104.55,54.73-155.57,20.41
		c-0.92-0.62-1.14-0.62-2.75-1.96c-2.1-1.76,0.32-5.37,2.24-3.98c1.9,1.41,1.68,1.25,2.55,1.85
		C773.88,60.13,877.08,10.97,878.13,10.47z"/>
</g>
<g transform="matrix(.35278 0 0 -.35278 57.807 240.68)">
	<path fill="#803A00" d="M850.42-67.53c0,0-75.69,83.83-123.93,79.27c-1.22-0.13-2.19-0.28-3.58-0.52c-2.2-0.38-1.61-5.2,0.66-4.68
		c1.56,0.34,2.23,0.37,3.37,0.48C773.41,11.59,849.64-66.73,850.42-67.53"/>
	<path fill="none" stroke="#803A00" stroke-width="2.0945" stroke-miterlimit="10" d="M850.42-67.53c0,0-75.69,83.83-123.93,79.27
		c-1.22-0.13-2.19-0.28-3.58-0.52c-2.2-0.38-1.61-5.2,0.66-4.68c1.56,0.34,2.23,0.37,3.37,0.48
		C773.41,11.59,849.64-66.73,850.42-67.53z"/>
</g>
<g transform="matrix(.35278 0 0 -.35278 56.083 242.32)">
	<path fill="#803A00" d="M791.96-123.15c0,0-28.12,101.26-76.69,124.94c-1.37,0.64-2.14,1.07-4.11,1.76
		c-1.97,0.72-2.85-3.85-1.27-4.49c1.58-0.66,2.56-1.04,3.81-1.65C760.8-25.22,791.64-122.15,791.96-123.15"/>
	<path fill="none" stroke="#803A00" stroke-width="2.0945" stroke-miterlimit="10" d="M791.96-123.15c0,0-28.12,101.26-76.69,124.94
		c-1.37,0.64-2.14,1.07-4.11,1.76c-1.97,0.72-2.85-3.85-1.27-4.49c1.58-0.66,2.56-1.04,3.81-1.65
		C760.8-25.22,791.64-122.15,791.96-123.15z"/>
</g>
<g transform="matrix(.35278 0 0 -.35278 51.782 244.3)">
	<path fill="#803A00" d="M646.1-190.29c1.66-0.05,3.23-0.07,4.8-0.07c34.83,0,81.29,11.62,104.9,66.94l0.3,0.74l0.68-0.07
		c5.43-0.52,11.33-0.77,17.58-0.77c55.39,0,125.2,18.76,146.17,50.17l1.85,2.77l-0.01-3.54c0-0.2-0.23-19.84-6.66-37.75
		c40.62,10.25,87.27,70.13,100.65,129.71l0.94,4.09l1.05-4.03c0.07-0.22,5.14-19.88,5.52-39.96
		c33.19,25.92,58.43,109.74,39.19,162.92l-1.56,4.32l3.14-2.9c0.76-0.67,17.58-16.3,26.34-35.75
		c10.71,70.32-8.91,101.44-33.64,140.63c-15.05,23.86-32.13,50.92-45.04,91.51c-78.29,255.12-259.57,282.65-333.89,282.65
		c-17.38,0-28.99-1.49-32.14-1.97l-0.13-0.01l-0.14,0.01c-3.14,0.47-14.75,1.96-32.13,1.96c-74.32,0-255.6-27.54-333.87-282.64
		c-12.92-40.61-30-67.66-45.05-91.52c-24.74-39.19-44.36-70.31-33.65-140.63c8.76,19.44,25.58,35.08,26.33,35.75l3.15,2.9
		l-1.57-4.32c-19.24-53.18,6.01-137,39.21-162.92c0.35,20.09,5.46,39.75,5.51,39.96l1.06,4.02l0.91-4.09
		c13.38-59.57,60.05-119.45,100.68-129.71c-6.44,17.91-6.66,37.54-6.66,37.75l-0.04,3.54l1.87-2.77
		c20.96-31.41,90.78-50.17,146.15-50.17c6.26,0,12.18,0.25,17.58,0.77l0.69,0.07l0.32-0.74c23.6-55.32,70.04-66.94,104.88-66.94
		C642.95-190.36,644.53-190.34,646.1-190.29 M650.9-192.77c-1.58,0-3.19,0.03-4.8,0.05c-1.53-0.02-3.14-0.05-4.72-0.05
		c-35.26,0-82.26,11.75-106.41,67.56c-5.28-0.5-11.03-0.74-17.06-0.74c-45.94,0-120.19,15.03-145.8,48.32
		c0.41-6.69,1.84-21.82,7.14-35.38l0.83-2.11l-1.95,0.42c-40.8,8.76-88.22,67.83-103.22,127.72c-1.56-7.11-4.46-22.29-4.46-37.29
		v-2.15l-1.57,1.14c-33.66,24.28-60.02,107.5-43.05,162.61c-5.74-5.9-18-19.7-24.07-35.09l-1.34-3.41l-0.61,3.68
		c-12.07,73.88,8.03,105.74,33.47,146.07c14.99,23.75,31.95,50.66,44.78,90.91c78.71,256.55,261.06,284.26,335.81,284.26
		c17.27,0,28.9-1.48,32.27-1.96c3.35,0.48,14.99,1.96,32.27,1.96c74.75,0,257.07-27.71,335.8-284.28
		c12.84-40.23,29.8-67.15,44.79-90.89c25.43-40.33,45.54-72.19,33.47-146.07l-0.61-3.68l-1.34,3.41
		c-6.08,15.39-18.33,29.19-24.06,35.09c16.95-55.1-9.4-138.33-43.07-162.61l-1.57-1.14v2.15c0,15.01-2.89,30.18-4.44,37.3
		c-15.01-59.9-62.45-118.97-103.22-127.73l-1.96-0.42l0.85,2.11c5.3,13.57,6.73,28.7,7.14,35.38
		c-25.61-33.3-99.87-48.32-145.81-48.32c-6.02,0-11.77,0.24-17.05,0.73C733.15-181.02,686.16-192.77,650.9-192.77"/>
	<path fill="none" stroke="#803A00" stroke-width="2.0945" stroke-miterlimit="10" d="M646.1-190.29c1.66-0.05,3.23-0.07,4.8-0.07
		c34.83,0,81.29,11.62,104.9,66.94l0.3,0.74l0.68-0.07c5.43-0.52,11.33-0.77,17.58-0.77c55.39,0,125.2,18.76,146.17,50.17l1.85,2.77
		l-0.01-3.54c0-0.2-0.23-19.84-6.66-37.75c40.62,10.25,87.27,70.13,100.65,129.71l0.94,4.09l1.05-4.03
		c0.07-0.22,5.14-19.88,5.52-39.96c33.19,25.92,58.43,109.74,39.19,162.92l-1.56,4.32l3.14-2.9c0.76-0.67,17.58-16.3,26.34-35.75
		c10.71,70.32-8.91,101.44-33.64,140.63c-15.05,23.86-32.13,50.92-45.04,91.51c-78.29,255.12-259.57,282.65-333.89,282.65
		c-17.38,0-28.99-1.49-32.14-1.97l-0.13-0.01l-0.14,0.01c-3.14,0.47-14.75,1.96-32.13,1.96c-74.32,0-255.6-27.54-333.87-282.64
		c-12.92-40.61-30-67.66-45.05-91.52c-24.74-39.19-44.36-70.31-33.65-140.63c8.76,19.44,25.58,35.08,26.33,35.75l3.15,2.9
		l-1.57-4.32c-19.24-53.18,6.01-137,39.21-162.92c0.35,20.09,5.46,39.75,5.51,39.96l1.06,4.02l0.91-4.09
		c13.38-59.57,60.05-119.45,100.68-129.71c-6.44,17.91-6.66,37.54-6.66,37.75l-0.04,3.54l1.87-2.77
		c20.96-31.41,90.78-50.17,146.15-50.17c6.26,0,12.18,0.25,17.58,0.77l0.69,0.07l0.32-0.74c23.6-55.32,70.04-66.94,104.88-66.94
		C642.95-190.36,644.53-190.34,646.1-190.29z M650.9-192.77c-1.58,0-3.19,0.03-4.8,0.05c-1.53-0.02-3.14-0.05-4.72-0.05
		c-35.26,0-82.26,11.75-106.41,67.56c-5.28-0.5-11.03-0.74-17.06-0.74c-45.94,0-120.19,15.03-145.8,48.32
		c0.41-6.69,1.84-21.82,7.14-35.38l0.83-2.11l-1.95,0.42c-40.8,8.76-88.22,67.83-103.22,127.72c-1.56-7.11-4.46-22.29-4.46-37.29
		v-2.15l-1.57,1.14c-33.66,24.28-60.02,107.5-43.05,162.61c-5.74-5.9-18-19.7-24.07-35.09l-1.34-3.41l-0.61,3.68
		c-12.07,73.88,8.03,105.74,33.47,146.07c14.99,23.75,31.95,50.66,44.78,90.91c78.71,256.55,261.06,284.26,335.81,284.26
		c17.27,0,28.9-1.48,32.27-1.96c3.35,0.48,14.99,1.96,32.27,1.96c74.75,0,257.07-27.71,335.8-284.28
		c12.84-40.23,29.8-67.15,44.79-90.89c25.43-40.33,45.54-72.19,33.47-146.07l-0.61-3.68l-1.34,3.41
		c-6.08,15.39-18.33,29.19-24.06,35.09c16.95-55.1-9.4-138.33-43.07-162.61l-1.57-1.14v2.15c0,15.01-2.89,30.18-4.44,37.3
		c-15.01-59.9-62.45-118.97-103.22-127.73l-1.96-0.42l0.85,2.11c5.3,13.57,6.73,28.7,7.14,35.38
		c-25.61-33.3-99.87-48.32-145.81-48.32c-6.02,0-11.77,0.24-17.05,0.73C733.15-181.02,686.16-192.77,650.9-192.77z"/>
</g>
<g transform="matrix(.35278 0 0 -.35278 58.575 232.64)">
	<path fill="#FF7300" d="M876.46,205.11c0-61.63-39-111.56-87.12-111.56c-48.11,0-87.11,49.93-87.11,111.56
		c0,61.61,39,111.56,87.11,111.56C837.46,316.68,876.46,266.73,876.46,205.11"/>
</g>
<g transform="matrix(.35278 0 0 -.35278 49.764 232.78)">
	<path fill="#FF7300" d="M577.68,200.37c0-61.63-39-111.58-87.13-111.58c-48.12,0-87.11,49.95-87.11,111.58
		c0,61.61,38.99,111.58,87.11,111.58C538.67,311.95,577.68,261.98,577.68,200.37"/>
</g>
<g transform="matrix(.35278 0 0 -.35278 55.524 226.7)">
	<path fill="#191919" d="M773,406.54c0,0,72.28-22.39,105.88-106.91c-29.52,33.6-104.87,77.39-150.69,83.49
		C733.3,394.34,764.3,409.95,773,406.54"/>
</g>
<g transform="matrix(.35278 0 0 -.35278 54.395 227.29)">
	<path fill="#0F0F0F" d="M734.72,386.55c43.79-7.16,108.99-44.83,141.11-75.61c-34.39,74.33-99.57,95.31-100.24,95.5
		c-0.68,0.29-1.49,0.39-2.46,0.39C763.59,406.82,741.59,395.61,734.72,386.55 M888.34,291.3l-7.77,8.85
		c-28.19,32.06-102.68,76.56-149.43,82.82l-2.73,0.35l1.15,2.49c4.91,10.83,31.63,25.1,43.59,25.1c1.47,0,2.75-0.23,3.8-0.62
		c0.6-0.19,73.47-23.62,107.06-108.06L888.34,291.3z"/>
</g>
<g transform="matrix(.35278 0 0 -.35278 54.103 233.1)">
	<path fill="#B7B6B6" d="M724.82,189.52c0-53.06,34.8-96.07,77.72-96.07c42.93,0,77.7,43.02,77.7,96.07
		c0,53.05-34.77,96.07-77.7,96.07C759.62,285.59,724.82,242.57,724.82,189.52"/>
	<path fill="#FFFFFF" d="M724.82,189.52c0-61.53,152.77-65.37,155.42,0c2.16,53.03-34.77,96.07-77.7,96.07
		C759.62,285.59,724.82,242.57,724.82,189.52"/>
</g>
<g transform="matrix(.35278 0 0 -.35278 54.175 233.1)">
	<path fill="#803A00" d="M727.26,189.52c0-51.82,33.66-93.96,75.04-93.96c41.37,0,75.06,42.14,75.06,93.96
		c0,51.81-33.69,93.97-75.06,93.97C760.92,283.49,727.26,241.33,727.26,189.52 M721.93,189.52c0,54.13,36.05,98.17,80.37,98.17
		c44.32,0,80.37-44.04,80.37-98.17c0-54.13-36.05-98.17-80.37-98.17C757.99,91.34,721.93,135.39,721.93,189.52"/>
</g>
<g transform="matrix(.35278 0 0 -.35278 54.817 233.51)">
	<path fill="#0083FF" d="M749.03,175.62c0-31.51,20.35-57.04,45.48-57.04s45.5,25.53,45.5,57.04c0,31.49-20.37,57.04-45.5,57.04
		S749.03,207.11,749.03,175.62"/>
</g>
<g transform="matrix(.35278 0 0 -.35278 54.89 233.51)">
	<path fill="#191919" d="M751.5,175.62c0-30.3,19.22-54.94,42.81-54.94c23.62,0,42.83,24.65,42.83,54.94
		c0,30.29-19.2,54.93-42.83,54.93C770.72,230.54,751.5,205.91,751.5,175.62 M746.18,175.62c0,32.61,21.6,59.13,48.14,59.13
		c26.55,0,48.16-26.52,48.16-59.13c0-32.61-21.61-59.15-48.16-59.15C767.77,116.47,746.18,143,746.18,175.62"/>
</g>
<g transform="matrix(.35278 0 0 -.35278 55.142 233.56)">
	<path fill="#191919" d="M760.06,173.92c0-18.91,12.53-34.25,27.96-34.25c15.47,0,27.98,15.34,27.98,34.25
		c0,18.9-12.51,34.23-27.98,34.23C772.59,208.15,760.06,192.82,760.06,173.92"/>
</g>
<g transform="matrix(.35278 0 0 -.35278 55.723 232.78)">
	<path fill="#FFFFFF" d="M779.75,200.37c0-7.89,6.75-14.31,15.1-14.31c8.33,0,15.08,6.42,15.08,14.31c0,7.9-6.75,14.29-15.08,14.29
		C786.5,214.66,779.75,208.27,779.75,200.37"/>
</g>
<g transform="matrix(.35278 0 0 -.35278 48.042 226.72)">
	<path fill="#191919" d="M519.28,405.87c0,0-72.28-22.41-105.88-106.91c29.52,33.6,104.88,77.37,150.68,83.49
		C558.99,393.65,528,409.27,519.28,405.87"/>
</g>
<g transform="matrix(.35278 0 0 -.35278 48.125 226.76)">
	<path fill="#0F0F0F" d="M522.09,404.51c-0.94,0-1.73-0.11-2.3-0.33c-0.8-0.26-66-21.29-100.36-95.57
		c32.12,30.8,97.34,68.45,141.1,75.6C553.67,393.31,531.67,404.51,522.09,404.51 M406.9,288.98l4.37,10.94
		c33.56,84.45,106.44,107.88,107.19,108.11c0.89,0.35,2.18,0.56,3.63,0.56c11.96,0,38.69-14.25,43.61-25.09l1.13-2.48l-2.71-0.37
		c-46.75-6.24-121.25-50.75-149.44-82.82L406.9,288.98z"/>
</g>
<g transform="matrix(.35278 0 0 -.35278 49.463 233.12)">
	<path fill="#B7B6B6" d="M567.47,188.84c0-53.06-34.79-96.06-77.7-96.06c-42.93,0-77.73,43-77.73,96.06
		c0,53.06,34.8,96.06,77.73,96.06C532.68,284.9,567.47,241.89,567.47,188.84"/>
	<path fill="#FFFFFF" d="M567.47,188.84c0-61.52-152.77-65.36-155.43,0c-2.15,53.03,34.8,96.06,77.73,96.06
		C532.68,284.9,567.47,241.89,567.47,188.84"/>
</g>
<g transform="matrix(.35278 0 0 -.35278 47.348 230.57)">
	<path fill="#803A00" d="M495.75,275.31c-41.38,0-75.07-42.14-75.07-93.96c0-51.82,33.69-93.97,75.07-93.97
		c41.38,0,75.04,42.15,75.04,93.97C570.79,233.17,537.13,275.31,495.75,275.31 M495.75,83.18c-44.33,0-80.39,44.04-80.39,98.17
		c0,54.13,36.05,98.16,80.39,98.16c44.32,0,80.37-44.03,80.37-98.16C576.12,127.23,540.07,83.18,495.75,83.18"/>
</g>
<g transform="matrix(.35278 0 0 -.35278 48.748 233.53)">
	<path fill="#0083FF" d="M543.23,174.94c0-31.51-20.37-57.04-45.51-57.04c-25.09,0-45.47,25.54-45.47,57.04
		c0,31.49,20.38,57.04,45.47,57.04C522.86,231.98,543.23,206.43,543.23,174.94"/>
</g>
<g transform="matrix(.35278 0 0 -.35278 47.51 232.04)">
	<path fill="#191919" d="M501.24,225.46c-23.6,0-42.81-24.63-42.81-54.93c0-30.3,19.22-54.95,42.81-54.95
		c23.61,0,42.84,24.66,42.84,54.95C544.08,200.83,524.85,225.46,501.24,225.46 M501.24,111.39c-26.55,0-48.14,26.52-48.14,59.14
		c0,32.61,21.59,59.15,48.14,59.15c26.56,0,48.16-26.53,48.16-59.15C549.39,137.91,527.8,111.39,501.24,111.39"/>
</g>
<g transform="matrix(.35278 0 0 -.35278 48.423 233.58)">
	<path fill="#191919" d="M532.2,173.24c0-18.9-12.52-34.24-27.96-34.24c-15.46,0-27.98,15.34-27.98,34.24
		c0,18.91,12.52,34.24,27.98,34.24C519.68,207.48,532.2,192.15,532.2,173.24"/>
</g>
<g transform="matrix(.35278 0 0 -.35278 47.844 232.81)">
	<path fill="#FFFFFF" d="M512.57,199.35c0-7.9-6.76-14.3-15.1-14.3c-8.35,0-15.09,6.4-15.09,14.3c0,7.87,6.73,14.29,15.09,14.29
		C505.81,213.65,512.57,207.23,512.57,199.35"/>
</g>
</svg>
