<?xml version="1.0" encoding="utf-8"?>
<!-- Generator: Adobe Illustrator 16.0.0, SVG Export Plug-In . SVG Version: 6.00 Build 0)  -->
<!DOCTYPE svg PUBLIC "-//W3C//DTD SVG 1.1//EN" "http://www.w3.org/Graphics/SVG/1.1/DTD/svg11.dtd">
<svg version="1.1" id="Layer_1" xmlns="http://www.w3.org/2000/svg" xmlns:xlink="http://www.w3.org/1999/xlink" x="0px" y="0px"
	 width="544.6px" height="512.16px" viewBox="0 0 544.6 512.16" enable-background="new 0 0 544.6 512.16" xml:space="preserve">
<path fill="#FFFFFF" stroke="#000000" stroke-miterlimit="10" d="M488.8,108.15c2.5-19.4-3.12-38.05-15.85-52.53
	C460.07,40.97,441.5,32.57,422,32.57c-19.24,0-36.52,6.71-48.68,18.91c-1.32,1.32-2.55,2.69-3.71,4.11
	c-28.62-27.25-61.46-31.34-78.49-31.34c-6.1,0-10.2,0.52-11.38,0.69c-1.19-0.17-5.29-0.69-11.38-0.69
	c-17.19,0-50.51,4.16-79.32,32.12c-1.34-1.7-2.78-3.35-4.34-4.91c-12.16-12.2-29.46-18.91-48.69-18.91
	c-19.5,0-38.08,8.39-50.95,23.05c-12.73,14.47-18.35,33.13-15.85,52.53c6.71,49.2,38.5,58.28,58.6,58.96
	c-5.55,10.36-8.71,21.56-5.53,41.04l0.22,1.3l0.47-1.2c2.14-5.43,6.47-10.3,8.49-12.38c-5.99,19.44,3.31,48.8,15.19,57.37l0.55,0.4
	v-0.76c0-5.29,1.02-10.65,1.57-13.16c5.29,21.13,22.02,41.97,36.41,45.06l0.69,0.15l-0.29-0.74c-1.87-4.78-2.37-10.12-2.52-12.48
	c8.46,11,31.96,16.34,48.23,16.98c-2.72,6.53-9.21,11.21-19.97,14.73c-7.5,2.44-28.56,12.04-28.64,42.24
	c-6.69-3.83-14.61-5.58-24.45-5.58c-5.28,0-11.14,0.5-17.93,1.53c-3.27,0.5-6.42,0.75-9.36,0.75c-18.32,0-29.42-10.08-30.45-27.64
	c-0.54-9.29-9.6-14.3-17.84-14.3c-5.94,0-11.38,2.4-14.93,6.58c-4.18,4.92-5.65,12.03-4.23,20.58
	c3.99,24.25,20.07,37.07,46.51,37.07c5.1,0,10.64-0.49,16.45-1.46c3.62-0.6,7.31-0.91,10.97-0.91c14.23,0,26.9,4.46,35.43,10.49
	c-9.95,2.05-21.44,6.55-27.79,16.38c-5.55,8.58-5.82,19.41-0.83,32.19c-7.15-2.62-16.9-5.45-27.14-6.18
	c-0.04-0.01-0.07-0.03-0.11-0.04l-0.33-0.06c-12.61-0.8-23.41,1.76-32.09,7.63c-8.83,5.95-12.71,14.11-13.63,21.36
	c-0.31,2.42-0.29,4.73-0.01,6.83c1.01,7.64,5.33,13.88,11.35,16.4c0.07,0.69,0.23,1.38,0.46,2.07l0.07,0.49l0.1-0.01
	c0.62,1.58,1.64,3.13,3.01,4.55c4.08,4.18,10.55,6.79,16.91,6.79c3.38,0,6.57-0.71,9.5-2.1c0.01,0.03,0.03,0.05,0.05,0.07l0.15,0.56
	l0.17-0.04c3.09,4.86,11.1,8.28,19.91,8.28c8.86,0,15.81-3.54,19.14-9.72c1-0.05,2.32-0.19,3.9-0.41c3.21-0.4,7.3-1.11,11.88-2.03
	c4.5,5.49,10.75,8.44,14.99,8.44c0.83,0,1.62-0.11,2.34-0.31c0.27,0.23,0.56,0.44,0.83,0.66l0.35,0.33l0.03-0.03
	c4.39,3.36,9.8,5.28,15.15,5.28c4.4,0,8.66-1.21,12.67-3.58c0.33,0.19,0.65,0.39,0.99,0.57l0.69,0.36l0.14-0.27
	c2.99,1.02,6.75,1.6,10.68,1.6c11.87,0,26.84-5.07,33.22-19.28c0.04-0.1,0.08-0.2,0.12-0.3c4.91,0.93,10.39,1.42,16.52,1.45h0.68
	c4.26,0,8.21-0.23,11.86-0.68c6.5,13.84,21.24,18.81,32.98,18.81c3.94,0,7.69-0.58,10.68-1.6l0.14,0.27l0.69-0.36
	c0.35-0.18,0.67-0.38,1-0.57c4.01,2.38,8.26,3.58,12.66,3.58c5.35,0,10.76-1.91,15.15-5.27l0.03,0.03l0.35-0.33
	c0.28-0.22,0.56-0.43,0.83-0.66c0.72,0.2,1.5,0.3,2.33,0.3c0.9,0,1.89-0.14,2.94-0.4c3.88-0.97,8.5-3.7,12.05-8.03
	c6.72,1.36,12.4,2.24,15.78,2.39c3.34,6.18,10.28,9.71,19.15,9.71c8.78,0,16.77-3.39,19.88-8.23l0.19,0.05l0.17-0.63
	c0.01-0.02,0.02-0.03,0.03-0.04c2.93,1.39,6.12,2.1,9.5,2.1c6.35,0,12.83-2.6,16.91-6.78c1.37-1.41,2.38-2.95,3-4.51l0.12,0.02
	l0.09-0.6c0.12-0.37,0.23-0.74,0.31-1.11c0.06-0.3,0.11-0.6,0.14-0.9c4.14-1.74,7.48-5.24,9.49-9.73c0.92-2.04,1.55-4.3,1.87-6.69
	c1.11-8.41-1.89-20.22-13.64-28.14c-7.64-5.16-16.94-7.77-27.66-7.77c-11.98,0-23.76,3.32-32.02,6.36c5-12.78,4.72-23.61-0.82-32.19
	c-9.81-15.16-31.83-17.66-41.57-17.99c0.46-1.77,0.91-3.56,1.36-5.39c11.21-46.24-17.11-59.36-26.06-62.29
	c-9.56-3.13-15.75-7.17-18.92-12.61c0.37-0.75,0.73-1.51,1.08-2.31c0.29,0.03,0.58,0.05,0.87,0.07c-0.42,0.89-0.88,1.83-1.42,2.84
	l0.64,0.34c0.59-1.12,1.08-2.15,1.51-3.13c1.41,0.09,2.88,0.13,4.41,0.13c16.21,0,42.4-5.3,51.44-17.05
	c-0.14,2.36-0.65,7.69-2.52,12.48l-0.3,0.74l0.69-0.15c14.38-3.09,31.12-23.93,36.41-45.06c0.55,2.51,1.57,7.86,1.57,13.16v0.76
	l0.55-0.4c11.88-8.57,21.17-37.93,15.19-57.37c2.02,2.08,6.34,6.95,8.49,12.38l0.47,1.2l0.22-1.3c3.19-19.52,0.01-30.72-5.55-41.09
	C451.77,165.98,482.25,156.19,488.8,108.15z"/>
</svg>
