<?xml version="1.0" encoding="utf-8"?>
<!-- Generator: Adobe Illustrator 16.0.0, SVG Export Plug-In . SVG Version: 6.00 Build 0)  -->
<!DOCTYPE svg PUBLIC "-//W3C//DTD SVG 1.1//EN" "http://www.w3.org/Graphics/SVG/1.1/DTD/svg11.dtd">
<svg version="1.1" id="Layer_1" xmlns="http://www.w3.org/2000/svg" xmlns:xlink="http://www.w3.org/1999/xlink" x="0px" y="0px"
	 width="544.6px" height="512.16px" viewBox="0 0 544.6 512.16" enable-background="new 0 0 544.6 512.16" xml:space="preserve">
<g transform="matrix(.35278 0 0 -.35278 81.367 147.52)">
	<path fill="none" stroke="#410608" stroke-width="1.7546" stroke-miterlimit="10" d="M163.57-134.58c0,0-70.49,60.55-132.1,28.9
		c-3.17-4.46,33.03-34.29,33.03-54.63C67.68-164.43,160.73-142.83,163.57-134.58z"/>
</g>
<g transform="matrix(.35278 0 0 -.35278 78.558 146.45)">
	<path fill="#5E991A" d="M72.53-99.89c-11.03-0.68-22.17-3.34-33.08-8.94c-3.17-4.46,33.02-34.3,33.02-54.63
		c1.86-2.39,65.28,17.4,92.47,24.69C153.86-112.97,100.32-99.9,72.53-99.89"/>
</g>
<g transform="matrix(.35278 0 0 -.35278 77.62 146.7)">
	<path fill="#A1BE87" d="M42.13-108c-3.17-4.45,33.03-34.29,33.03-54.62c0.53-0.68,3.55-0.66,8.25-0.1
		c-7.83,26.24-42.72,54.09-34.98,57.59C46.14-106.05,44.4-106.82,42.13-108"/>
</g>
<g transform="matrix(.35278 0 0 -.35278 78.592 148.23)">
	<path fill="none" stroke="#410608" stroke-width="1.7546" stroke-miterlimit="10" d="M73.63-157.59c0.27-0.02,0.73-0.06,1.45-0.06
		c16.44,0,87.94,17.77,94.72,24.7c-6.31,5.16-47.33,37.05-91.7,37.05c-13.49,0-26.18-2.94-37.7-8.79c0.13-1.69,5.4-7.88,9.64-12.91
		C59.78-129.13,73.08-144.83,73.63-157.59z M75.07-160.19c-2.08,0-3.14,0.29-3.7,1.01l-0.27,0.34v0.44
		c0,11.96-13.3,27.69-23.02,39.16c-8.03,9.48-11.49,13.77-9.76,16.21l0.18,0.24l0.27,0.13c12.01,6.17,25.26,9.3,39.32,9.3
		c48.96,0,93.76-37.98,94.2-38.36l0.64-0.57l-0.28-0.8C169.61-141.95,89.66-160.19,75.07-160.19z"/>
</g>
<g transform="matrix(.35278 0 0 -.35278 83.224 147.78)">
	<path fill="none" stroke="#410608" stroke-width="1.7546" stroke-miterlimit="10" d="M223.76-143c0,0-35.9,71.14-88.29,63.83
		c-7.92-1.9,8.26-40.96,5.4-54.29C138.02-146.18,223.76-143,223.76-143z"/>
</g>
<g transform="matrix(.35278 0 0 -.35278 81.597 146.1)">
	<path fill="#5E991A" d="M171.03-88.55c-9.46,4.11-19.84,6.11-30.96,4.55c-7.93-1.9,8.25-40.96,5.39-54.29
		c-1.42-6.4,57.22-9.71,78.45-10.49C226.17-127.4,187.1-96.46,171.03-88.55"/>
</g>
<g transform="matrix(.35278 0 0 -.35278 80.802 145.96)">
	<path fill="#A1BE87" d="M145.26-84.01c-0.97-0.07-1.93-0.16-2.91-0.29c-7.94-1.91,8.26-40.96,5.39-54.3
		c-0.5-2.21,1.74-3.95,5.71-5.28C153.81-123.93,144.34-103.96,145.26-84.01"/>
</g>
<g transform="matrix(.35278 0 0 -.35278 80.933 145.99)">
	<path fill="none" stroke="#410608" stroke-width="1.7546" stroke-miterlimit="10" d="M149.5-84.98c-2.44,0-4.93-0.17-7.38-0.52
		c-2.96-0.7,0.24-14.34,2.55-24.3c2.6-11.12,5.28-22.61,3.92-29.01c-0.12-0.49,0.01-0.89,0.35-1.34c3.56-4.44,25.14-7.01,59.17-7.01
		c9.04,0,16.58,0.2,20.03,0.29C222.46-136.54,191.93-84.98,149.5-84.98z M208.12-149.7c-36.37,0-56.93,2.67-61.16,7.96
		c-0.81,1.05-1.13,2.24-0.84,3.46c1.23,5.83-1.51,17.54-3.92,27.89c-3.39,14.55-6.07,26.03-0.55,27.37
		c2.68,0.38,5.28,0.56,7.86,0.56c48.47,0,81.54-64.39,81.87-65.04l0.87-1.77l-1.98-0.08C230.18-149.34,220.6-149.7,208.12-149.7z"/>
</g>
<g transform="matrix(.35278 0 0 -.35278 84.377 148.47)">
	<path fill="none" stroke="#410608" stroke-width="1.7546" stroke-miterlimit="10" d="M261.14-165.36c0,0,9.18,80.87-27.09,84.88
		c-19.58,2.19-20.97-32.17-18.01-61.38C219-171.07,261.14-165.36,261.14-165.36z"/>
</g>
<g transform="matrix(.35278 0 0 -.35278 83.949 146.21)">
	<path fill="#5E991A" d="M247.27-92.11c-3.33,2.82-7.27,4.69-12.02,5.21c-19.59,2.17-20.97-32.17-18.01-61.4
		c1.21-11.89,28.21-22.16,36.91-25.22C270.57-152.92,259.2-109.11,247.27-92.11"/>
</g>
<g transform="matrix(.35278 0 0 -.35278 83.758 146.1)">
	<path fill="#A1BE87" d="M241.07-88.55c-1.65,0.61-3.38,1.09-5.28,1.29c-14.9,1.67-19.26-17.84-19.19-40.12
		C220.63-110.72,222.89-92.99,241.07-88.55"/>
</g>
<g transform="matrix(.35278 0 0 -.35278 83.559 146.1)">
	<path fill="none" stroke="#410608" stroke-width="1.7546" stroke-miterlimit="10" d="M234.63-88.55c-3.38,0-6.13-1.25-8.45-3.81
		c-9.61-10.62-8.23-39.82-6.57-56.28c2.02-19.84,23.2-22.8,35.65-22.8c3.17,0,5.71,0.19,7.02,0.33c0.72,7.45,4.47,54.31-11.23,73.97
		c-3.98,4.99-8.97,7.87-14.84,8.51C235.66-88.57,235.14-88.55,234.63-88.55z M255.26-173.98c-13.31,0-35.96,3.26-38.18,25.09
		c-1.71,16.88-3.05,46.88,7.2,58.24c3.22,3.55,7.25,5.1,12.19,4.55c6.57-0.73,12.14-3.91,16.55-9.45
		c17.66-22.11,11.93-74.63,11.68-76.85l-0.11-0.99l-0.99-0.13C263.48-173.53,260.14-173.98,255.26-173.98z"/>
</g>
<g transform="matrix(.35278 0 0 -.35278 72.061 158.45)">
	<path fill="#5E991A" d="M-138.05-488.84c0,0-0.53,67,62.96,32.7C-70.62-459.31-138.05-488.84-138.05-488.84"/>
</g>
<g transform="matrix(.35278 0 0 -.35278 72.957 157.28)">
	<path fill="none" stroke="#410608" stroke-width="1.7546" stroke-miterlimit="10" d="M-109.01-450.92c-7.53,0-13.82-2.49-18.7-7.39
		c-9.59-9.68-11.27-26.2-11.57-31.84c27.33,12.03,56.37,26.02,60.26,30.05C-90.43-454.03-100.56-450.92-109.01-450.92z
		 M-141.87-494.06l-0.01,1.93c0,0.94-0.04,23.11,12.37,35.6c11.24,11.34,29.18,10.81,52.48-1.76c0.68-0.48,0.93-1.06,0.89-1.69
		c-0.52-5.02-44.91-24.97-63.95-33.32L-141.87-494.06z"/>
</g>
<g transform="matrix(.35278 0 0 -.35278 73.151 156.38)">
	<path fill="#5E991A" d="M-102.72-421.75c-5.72-2.85,22.54-37.47,26.03-41.6c3.5-4.13,36.21,45.1,36.21,45.1
		S-80.49-414.66-102.72-421.75"/>
</g>
<g transform="matrix(.35278 0 0 -.35278 74.262 156.29)">
	<path fill="none" stroke="#410608" stroke-width="1.7546" stroke-miterlimit="10" d="M-66.71-418.82
		c-16.47,0-29.87-1.51-38.79-4.36c-1.75-2.66,14.62-25.34,26.41-39.31c3.64,1.2,19.33,22.21,33.19,42.91
		C-49.54-419.31-57.44-418.82-66.71-418.82z M-79.29-465.09c-0.61,0-1.15,0.25-1.53,0.71c-0.28,0.33-28.6,34.06-27.03,41.69
		c0.23,1.08,0.89,1.6,1.4,1.87c9.46,3.03,22.78,4.54,39.74,4.54c12.81,0,23.07-0.91,23.17-0.91l2.14-0.21l-1.19-1.76
		C-49.76-429.95-73.54-465.09-79.29-465.09z"/>
</g>
<g transform="matrix(.35278 0 0 -.35278 75.656 154.42)">
	<path fill="#5E991A" d="M-21.53-358.21c0,0-56.73-12.7-64.78-36.21c-1.05-3.6,31.88-26.02,36.68-32.48
		C-45.03-432.95-21.53-360.33-21.53-358.21"/>
</g>
<g transform="matrix(.35278 0 0 -.35278 73.854 155.45)">
	<path fill="none" stroke="#410608" stroke-width="1.7546" stroke-miterlimit="10" d="M-79.94-391.6
		c0.74-2.22,11.67-10.82,18.93-16.54c7.63-5.99,14.83-11.63,17.27-14.68c4.92,3.55,22.74,54.46,25.67,65.94
		C-27.96-359.35-72.83-371.55-79.94-391.6z M-43.86-425.49c-0.68-0.01-1.24,0.29-1.66,0.85c-2.03,2.7-9.67,8.71-17.05,14.5
		c-16.03,12.62-20.58,16.65-19.84,19.13c8.18,23.94,63.36,36.56,65.71,37.08l1.55,0.34v-1.59c0-1.45-6.01-20.16-11.63-35.72
		C-39.21-425.32-42.36-425.49-43.86-425.49z"/>
</g>
<g transform="matrix(.35278 0 0 -.35278 75.908 152.26)">
	<path fill="#5E991A" d="M-13.37-288.21c0,0-49.6-13.07-65.74-45.67c-0.05-4.3,52.19-30.12,56.84-35.2
		C-17.61-374.16-13.37-288.21-13.37-288.21"/>
</g>
<g transform="matrix(.35278 0 0 -.35278 74.081 153.56)">
	<path fill="none" stroke="#410608" stroke-width="1.7546" stroke-miterlimit="10" d="M-72.58-330.34
		c1.63-2.52,19.59-12.51,31.55-19.17c11.21-6.24,21.03-11.7,24.2-14.38c2.53,5.87,5.58,43.16,7.3,77.65
		C-18.25-288.88-58.35-302.28-72.58-330.34z M-16.66-366.88c-0.29-0.06-0.85,0.1-1.34,0.63c-1.88,2.04-13.26,8.38-24.26,14.51
		c-25.14,14-32.96,18.81-32.93,21.56l0.15,0.55c16.2,32.75,64.49,45.82,66.54,46.35l1.67,0.44l-0.08-1.74
		C-10.96-366.59-15.23-366.88-16.66-366.88z"/>
</g>
<g transform="matrix(.35278 0 0 -.35278 76.804 149.89)">
	<path fill="none" stroke="#410608" stroke-width="1.7546" stroke-miterlimit="10" d="M15.68-211.39c0,0-67.57-1.02-85.74-39.95
		c0-4.36,48.22-33.25,55.43-48.08C-7.43-314.24,15.68-211.39,15.68-211.39z"/>
</g>
<g transform="matrix(.35278 0 0 -.35278 74.372 151.03)">
	<path fill="#5E991A" d="M-63.15-248.34c0-4.36,48.22-33.25,55.42-48.06c3.86-7.93,22.62,56.92,29.62,82.59
		C5.46-199.72-35.28-221.24-46.89-229C-53.69-234.09-59.45-240.42-63.15-248.34"/>
</g>
<g transform="matrix(.35278 0 0 -.35278 74.41 151.03)">
	<path fill="none" stroke="#410608" stroke-width="1.7546" stroke-miterlimit="10" d="M-61.92-248.34c0.98-1.75,9.52-8,17.06-13.52
		c15.02-11.03,33.72-24.72,38.15-33.87c0.28-0.56,0.49-0.7,0.53-0.73c4.66,0.4,17.57,45.05,27.06,86.87
		C10.57-210.05-45.61-214.25-61.92-248.34z M-6.19-299c-0.79,0-1.92,0.39-2.79,2.17c-4.17,8.57-23.35,22.65-37.38,32.92
		c-13.72,10.05-18.17,13.49-18.17,15.7l0.12,0.53c18.29,39.22,84.09,40.65,86.87,40.69l1.61,0.03l-0.34-1.57
		C18.94-229.73,2.68-299-6.19-299z"/>
</g>
<g transform="matrix(.35278 0 0 -.35278 78.557 148.17)">
	<path fill="none" stroke="#410608" stroke-width="1.7546" stroke-miterlimit="10" d="M72.5-155.65c0,0-95.59,14.29-120.03-22.87
		c-2.22-6.97,55.55-22.86,63.19-37.93C22-228.68,72.5-155.65,72.5-155.65z"/>
</g>
<g transform="matrix(.35278 0 0 -.35278 76.216 148.21)">
	<path fill="#5E991A" d="M-3.38-156.94c-15.97-3.63-30.09-10.15-37.54-21.49c-2.21-7,55.57-22.87,63.2-37.94
		c2.99-5.78,39.4,36.2,52.11,51.74C66.89-143.3,19.33-157.87-3.38-156.94"/>
</g>
<g transform="matrix(.35278 0 0 -.35278 75.245 148.7)">
	<path fill="#A1BE87" d="M-34.85-172.82c-1.22-1.35-2.33-2.76-3.32-4.26c-2.22-6.98,55.57-22.87,63.19-37.95
		c1.4-2.7,4.97-1.22,9.65,2.71C16.45-191.02-12.82-187.73-34.85-172.82"/>
</g>
<g transform="matrix(.35278 0 0 -.35278 75.185 148.83)">
	<path fill="none" stroke="#410608" stroke-width="1.7546" stroke-miterlimit="10" d="M-36.79-177.03
		c-0.1-2.21,14.26-8.55,22.92-12.37c16.81-7.42,35.83-15.83,40.22-24.52c0.25-0.49,0.56-0.68,1.08-0.68
		c7.87,0,35.18,35.23,52.41,59.95c-5.33,0.68-20.52,2.4-38.29,2.4C13.33-152.24-23.11-156.55-36.79-177.03z M27.42-217.14
		c-1.46,0-2.65,0.74-3.34,2.07c-3.98,7.88-23.39,16.45-38.98,23.35c-17.33,7.65-25.6,11.5-24.3,15.57l0.13,0.32
		c14.23,21.6,51.69,26.14,80.6,26.14c22.27,0,40.51-2.7,40.69-2.72l2.02-0.29l-1.15-1.69C78.66-160.8,39.38-217.14,27.42-217.14z"/>
</g>
<g transform="matrix(.35278 0 0 -.35278 89.146 152.4)">
	<path fill="#5E991A" d="M415.71-292.74c0,0-118.55,160.25-249.82,177.25c-38.6,5.02-213.11,17.44-228.65-214.29
		c-7.13-106.64-66.89-166.42-155.49-173.19c-9.52-1.26,105.12-48.7,189.59,67.32C9.2-383.65,32.87-277.97,102.81-306.09
		c32.39-13.02,74.95-50.57,94.01-145.99C206.83-502.26,231.74-691.6,429.5-682c12.47,11.37,134.41,265.14,134.41,265.14
		L415.71-292.74z"/>
</g>
<g transform="matrix(.35278 0 0 -.35278 80.593 151.04)">
	<path fill="#78C533" d="M138.5-248.66c35.55,12.69,99.07-7.1,124.49-35.04c60.97-63.52,64.78-171.68,111.77-239.71
		c42.04-59.86,148.41,0,65.21,141.27c-6.19,30.96-24.37,109.86-62.32,155.15c-46.88,45.54-115.26,98.28-187.51,107.64
		c-38.59,5-213.08,17.42-228.63-214.3c-7.15-106.64-66.89-166.41-155.5-173.18c-9.53-1.27,105.12-48.69,189.59,67.32
		c28.22,38.79,48.57,107.42,86.12,128.15c0.29,0.47,0.57,0.95,0.9,1.42C100.39-279.47,108.02-261.36,138.5-248.66"/>
</g>
<g transform="matrix(.35278 0 0 -.35278 77.782 148.89)">
	<path fill="#A9CB8E" d="M47.38-178.98c99.38,83.2,219.78,27.65,317.22-34.72c-45.21,40.02-104.42,80.09-166.49,88.13
		c-37.76,4.89-205.66,16.86-227.4-199.8C-14.72-269.36,4.2-214.31,47.38-178.98"/>
</g>
<g transform="matrix(.35278 0 0 -.35278 79.637 152.61)">
	<path fill="none" stroke="#410608" stroke-width="1.7546" stroke-miterlimit="10" d="M107.51-299.54c7.19,0,14.84-1.6,22.71-4.77
		c26.58-10.67,74.22-43.97,94.76-146.92c0.51-2.56,1.07-5.49,1.69-8.72c11.36-60.32,41.51-220.54,215.48-220.55h0.01
		c4.48,0,9.11,0.12,13.73,0.34c13.31,14.25,125.48,247.16,133.38,263.56L441.72-293.04l-0.09,0.12
		c-1.19,1.6-119.75,160.02-248.95,176.76c-9.98,1.29-20.3,1.94-30.66,1.94c-68.04,0-184-27.94-196.56-215.09
		c-6.91-102.85-63.11-166.2-154.35-174.17c5.61-2.8,23.1-8.31,46.9-8.31c37.8,0,92.64,13.44,139.25,77.45
		c10.01,13.78,18.88,31.01,28.26,49.28C47.13-343,69.47-299.54,107.51-299.54z M442.16-683.04h-0.01
		c-75.27,0-132.78,30.07-170.92,89.37c-31.05,48.27-41.46,103.54-47.05,133.24c-0.61,3.23-1.15,6.14-1.67,8.69
		c-20.34,101.78-67.13,134.58-93.22,145.06c-7.58,3.05-14.9,4.59-21.77,4.59c-36.49,0-58.46-42.77-79.72-84.11
		c-9.45-18.35-18.35-35.68-28.48-49.62c-47.25-64.88-102.92-78.49-141.29-78.49c-29.1,0-50.9,8.04-51.13,11.46
		c-0.06,0.69,0.36,1.54,1.65,1.73c91.3,6.98,147.54,69.68,154.4,171.99c12.69,189.21,130.19,217.46,199.09,217.46
		c10.47,0,20.89-0.66,30.99-1.97c128.73-16.67,246.66-172.41,250.57-177.65l148.85-124.64l-0.44-0.9
		c-4.98-10.37-122.19-254.14-134.69-265.54l-0.34-0.3l-0.47-0.01C451.66-682.93,446.84-683.04,442.16-683.04z"/>
</g>
<g transform="matrix(.35278 0 0 -.35278 85.674 157.31)">
	<path fill="#8AE252" d="M303.18-451.89c-11.23,46.76-63.65,235.72-183.55,220.66C87.5-235.28,39.03-248.03,2.76-342.78
		c-15.88-41.52-44.47-94.79-77.5-132.44c19.01,11.89,38.13,29.03,55.91,53.45c37.85,52.01,61.53,157.69,131.47,129.57
		c32.39-13.02,74.95-50.57,94-145.99c10.02-50.2,34.93-239.52,232.68-229.94c2.56,2.34,9.74,14.89,19.51,33.35
		C426.42-623.25,333.89-579.7,303.18-451.89"/>
</g>
<g transform="matrix(.35278 0 0 -.35278 80.593 151.04)">
	<path fill="#A1FC6F" d="M138.5-248.66c-32.3,2.5-90.5-24.47-121.32-111.87C2.42-402.45-27.29-455.32-60.3-492.98
		c18.99,11.89,38.1,29.05,55.9,53.45c37.86,52.01,61.51,157.69,131.46,129.57c32.4-13.02,74.95-50.57,94.01-145.98
		c6.08-30.46,17.66-112.19,70.02-169.57c-34.45,57.06-0.9,74.3-11.28,147C270.51-406.57,249.24-257.23,138.5-248.66"/>
</g>
<g transform="matrix(.35278 0 0 -.35278 79.637 152.61)">
	<path fill="none" stroke="#410608" stroke-width="1.7546" stroke-miterlimit="10" d="M107.51-299.54c7.19,0,14.84-1.6,22.71-4.77
		c26.58-10.67,74.22-43.97,94.76-146.92c0.51-2.56,1.07-5.49,1.69-8.72c11.36-60.32,41.51-220.54,215.48-220.55h0.01
		c4.47,0,9.11,0.11,13.73,0.34c1.79,1.92,6.44,9.13,18.23,31.38c-37.7,13.77-125.07,58.49-155.06,183.31
		c-12.42,51.74-61.33,220.54-168.88,220.54c-4.37,0-8.82-0.29-13.29-0.85c-35.9-4.51-81.54-21.18-115.82-110.74
		C7.35-392.32-18.4-443.16-50.83-482.5c17.63,12.35,33.76,28.52,48.1,48.18c10.01,13.78,18.88,31.01,28.26,49.28
		C47.13-343,69.47-299.54,107.51-299.54z M442.16-683.04h-0.01c-75.27,0-132.78,30.07-170.92,89.37
		c-31.05,48.27-41.46,103.54-47.05,133.24c-0.61,3.23-1.15,6.14-1.67,8.69c-20.34,101.78-67.13,134.58-93.22,145.06
		c-7.58,3.05-14.9,4.59-21.77,4.59c-36.49,0-58.46-42.77-79.72-84.11c-9.45-18.35-18.35-35.68-28.48-49.62
		c-16.5-22.66-35.43-40.75-56.26-53.78l-7.31-4.58l5.7,6.49c34.95,39.88,62.81,94.36,77.25,132.07
		c34.77,90.83,81.27,107.75,117.89,112.36c4.56,0.57,9.12,0.86,13.59,0.86c109.4,0,158.82-170.29,171.35-222.48
		c30.08-125.16,118.31-168.98,154.86-182.01l1.36-0.48l-0.67-1.31c-10.79-20.36-17.25-31.38-19.77-33.67l-0.34-0.3l-0.47-0.01
		C451.66-682.93,446.84-683.04,442.16-683.04z"/>
</g>
<g transform="matrix(.35278 0 0 -.35278 104.64 162.03)">
	<path fill="#5E991A" d="M917.9-604.88c0,0,121.89,24.32,175.2-51.55c10.76-15.34,32.7-70.19-27.01-103.85
		c-5.06-1.89,161.63,12.08,153.5-80.65c-0.78-8.69-33.66,0-46.16,3.17c-1.92,0,22.94-48.48-3.22-66.41
		c-15.24-8.64-17.11,54.02-98.19,75.73c12.06-11.03,28.68-53.78,10.57-74.42c-8.18-9.33-29.64,6.47-51.12,42.25
		c-6.02,10-19.88,16.89-63.61,19.89c-61.75,4.22-164.08,60.21-164.08,60.21L917.9-604.88z"/>
</g>
<g transform="matrix(.35278 0 0 -.35278 109.02 168.34)">
	<path fill="none" stroke="#410608" stroke-width="1.7546" stroke-miterlimit="10" d="M1059.88-809.4
		c52.7-14.1,72.03-44.99,83.58-63.46c4.74-7.57,8.15-13.04,11.5-13.04c0.69,0,1.4,0.21,2.06,0.59c20.26,13.89,8.51,47.38,4.11,60
		c-1.57,4.46-1.85,5.26-1.28,6.06l0.45,0.57h0.67l1.63-0.37c8.99-2.3,25.7-6.56,35.84-6.56c2.69,0,7.2,0.34,7.41,2.59
		c1.53,17.38-3.18,32.16-13.97,43.94c-21.05,22.99-65.44,35.15-128.33,35.15l-7.05-0.03c-3.24,0-4.02,0-4.22,1.18l-0.05,0.97
		l0.79,0.43c20.84,11.74,33.56,27.18,37.78,45.83c5.44,24.09-4.96,47.28-11.21,56.19c-31.76,45.22-88.07,54.72-129.7,54.72
		c-23.05,0-40.5-3-43.68-3.6L793.13-762.25c11.69-6.26,105.17-55.47,162.34-59.38c45.27-3.11,58.56-10.44,64.63-20.52
		c18.36-30.57,35.36-44.25,44.05-44.25c2.09,0,3.73,0.72,5.03,2.2c17.41,19.87,1.47,61.73-10.48,72.64l-3.85,3.51L1059.88-809.4z
		 M1017.92-843.46c-5.64,9.4-18.45,16.26-62.62,19.29c-61.31,4.19-163.56,59.78-164.59,60.35l-1.21,0.65l115.15,177.24l0.54,0.11
		c0.17,0.02,19.01,3.73,44.68,3.73c42.23,0,99.38-9.68,131.77-55.8c6.47-9.22,17.25-33.26,11.61-58.2
		c-4.13-18.22-15.97-33.42-35.36-45.32l5.65,0.02c63.63,0,108.66-12.45,130.2-35.98c11.31-12.34,16.22-27.76,14.63-45.86
		c-0.28-3.28-3.63-4.92-9.94-4.92c-10.23,0-26.66,4.14-35.88,6.49c0.26-0.82,0.61-1.82,0.96-2.82c4.6-13.12,16.81-47.94-5.14-62.98
		c-1.16-0.67-2.3-0.99-3.43-0.99c-4.74,0-8.3,5.67-13.66,14.23c-11.03,17.63-29.27,46.81-77.76,61.14
		c12.13-15.08,24.76-53.19,7.56-72.81c-1.78-2.03-4.12-3.06-6.94-3.06C1052.48-888.94,1034.75-871.52,1017.92-843.46z"/>
</g>
<g transform="matrix(.35278 0 0 -.35278 107.32 167.21)">
	<path fill="none" stroke="#410608" stroke-width="1.7546" stroke-miterlimit="10" d="M1004.77-772.78
		c0.42,0.18,41.49,16.82,65.46,33.26l-1.45,2.1C1045.06-753.71,1004.77-772.78,1004.77-772.78z"/>
</g>
<g transform="matrix(.35278 0 0 -.35278 109.19 168.68)">
	<path fill="none" stroke="#410608" stroke-width="1.7546" stroke-miterlimit="10" d="M1065.38-820.41l2.2,1.29
		c-12.61,21.2-41.1,24.87-42.3,25.01C1025.27-794.11,1053.42-800.32,1065.38-820.41z"/>
</g>
<g transform="matrix(.35278 0 0 -.35278 111.88 168.77)">
	<path fill="none" stroke="#410608" stroke-width="1.7546" stroke-miterlimit="10" d="M1152.58-823.34l2.31,1.02
		c-19.68,45.37-71.39,52.01-71.91,52.07C1082.99-770.25,1133.49-779.32,1152.58-823.34z"/>
</g>
<g transform="matrix(.35278 0 0 -.35278 88.617 162.03)">
	<path fill="#5E991A" d="M398.57-604.88c0,0-121.89,24.32-175.2-51.55c-10.77-15.34-32.71-70.19,27-103.85
		c5.07-1.89-161.65,12.08-153.49-80.65c0.76-8.69,33.66,0,46.14,3.17c1.92,0-22.94-48.48,3.21-66.41
		c15.26-8.64,17.12,54.02,98.2,75.73c-12.04-11.03-28.66-53.78-10.56-74.42c8.17-9.33,29.64,6.47,51.11,42.25
		c6.03,10,19.88,16.89,63.62,19.89c61.74,4.22,164.08,60.21,164.08,60.21L398.57-604.88z"/>
</g>
<g transform="matrix(.35278 0 0 -.35278 81.554 168.3)">
	<path fill="#78C533" d="M169.64-808.11c2.43-2.64-6.47-34.17-6.87-51.34c-0.22-9.42,3.51-17.95,9.22-8.32
		c23.4,39.44,93.15,78.97,101.72,62.18c1.18-2.28-32.18-59.43-10.7-67.48c14.17-5.3,30.44,49.49,50.6,62.46
		c53.36,34.3,44.04,6.51,109.25,39.26c17.78,10.16,17.78,10.16,8.26,32.4c-16.79,43.18-53.97,115.28-31.11,154.4
		c-36.2,3.41-116.11,3.53-156.57-54.05c-10.78-15.34-32.71-70.17,26.99-103.85c4.91-1.83-150.47,11.13-153.7-71.57
		C118.42-829.65,165.41-804.04,169.64-808.11"/>
</g>
<g transform="matrix(.35278 0 0 -.35278 84.774 166.61)">
	<path fill="#A9CB8E" d="M274.01-753.32c-59.74,39.84-79.4,144.85,113.7,165.06c-51.7,3.7-120.15-7.89-153.41-55.25
		c-10.8-15.35-32.71-70.17,26.99-103.85c4.64-1.74-134.17,9.75-151.88-59.03C151.75-745.24,221.72-763.78,274.01-753.32"/>
</g>
<g transform="matrix(.35278 0 0 -.35278 84.378 168.3)">
	<path fill="none" stroke="#410608" stroke-width="1.7546" stroke-miterlimit="10" d="M261.17-808.11l-3.85-3.51
		c-11.95-10.91-27.91-52.76-10.49-72.65c1.3-1.47,2.95-2.2,5.04-2.2c8.69,0,25.68,13.7,44.05,44.26
		c6.03,10.07,19.36,17.41,64.61,20.51c57.18,3.92,150.64,53.14,162.34,59.4L409.81-588.26c-3.18,0.58-20.63,3.58-43.67,3.58
		c-41.64,0-97.93-9.49-129.71-54.72c-6.25-8.89-16.63-32.09-11.19-56.16c4.23-18.65,16.93-34.09,37.77-45.84l0.79-0.45l-0.05-0.96
		c-0.22-1.19-0.98-1.19-4.23-1.19l-7.06,0.02c-62.9,0-107.28-12.14-128.34-35.14c-10.79-11.79-15.49-26.57-13.96-43.93
		c0.19-2.27,4.73-2.6,7.41-2.6c10.13,0,26.86,4.26,35.85,6.55l1.63,0.39h0.67l0.43-0.57c0.58-0.81,0.29-1.61-1.26-6.07
		c-4.42-12.6-16.15-46.12,4.09-60.01c0.67-0.37,1.37-0.58,2.05-0.58c3.36,0,6.79,5.48,11.52,13.04
		c11.55,18.47,30.88,49.36,83.57,63.47L261.17-808.11z M251.87-889c-2.83,0-5.16,1.03-6.95,3.07c-17.2,19.62-4.56,57.73,7.57,72.81
		c-48.5-14.34-66.72-43.5-77.76-61.13c-5.37-8.59-8.92-14.26-13.69-14.26c-1.12,0-2.26,0.34-3.4,0.98
		c-21.94,15.05-9.74,49.88-5.14,63c0.34,1,0.69,2,0.96,2.81c-9.22-2.34-25.66-6.47-35.88-6.47c-6.31,0-9.65,1.65-9.94,4.91
		c-1.59,18.1,3.34,33.55,14.63,45.89c21.55,23.52,66.58,35.96,130.21,35.96l5.65-0.01c-19.4,11.89-31.25,27.1-35.36,45.33
		c-5.64,24.94,5.12,48.96,11.6,58.19c32.41,46.12,89.56,55.8,131.79,55.8c25.67,0,44.5-3.69,44.68-3.71l0.53-0.12L526.5-763.21
		l-1.2-0.65c-1.02-0.56-103.26-56.16-164.6-60.36c-44.16-3.02-56.97-9.9-62.61-19.28C281.24-871.56,263.54-889,251.87-889z"/>
</g>
<g transform="matrix(.35278 0 0 -.35278 85.938 167.21)">
	<path fill="none" stroke="#410608" stroke-width="1.7546" stroke-miterlimit="10" d="M311.73-772.78
		c-0.4,0.18-41.5,16.82-65.46,33.26l1.46,2.1C271.44-753.71,311.73-772.78,311.73-772.78z"/>
</g>
<g transform="matrix(.35278 0 0 -.35278 84.064 168.68)">
	<path fill="none" stroke="#410608" stroke-width="1.7546" stroke-miterlimit="10" d="M251-820.41l-2.2,1.29
		c12.61,21.2,41.09,24.87,42.29,25.01C291.09-794.11,262.95-800.32,251-820.41z"/>
</g>
<g transform="matrix(.35278 0 0 -.35278 81.372 168.77)">
	<path fill="none" stroke="#410608" stroke-width="1.7546" stroke-miterlimit="10" d="M163.74-823.34l-2.33,1.02
		c19.67,45.37,71.38,52.01,71.9,52.07C233.31-770.25,182.83-779.32,163.74-823.34z"/>
</g>
<g transform="matrix(.35278 0 0 -.35278 84.524 161.02)">
	<path fill="none" stroke="#410608" stroke-width="1.7546" stroke-miterlimit="10" d="M265.9-572.14c-4.15,0-6.65,0.2-6.78,0.22
		l0.23,2.52c0.58-0.05,60.24-4.86,87.05,34.84l2.11-1.42C326.34-568.81,282.66-572.14,265.9-572.14z"/>
</g>
<g transform="matrix(.35278 0 0 -.35278 84.045 158.42)">
	<path fill="none" stroke="#410608" stroke-width="1.7546" stroke-miterlimit="10" d="M250.38-487.86
		c-17.17,0-29.56,4.66-29.81,4.76l0.93,2.38c0.51-0.2,50.75-19.06,88.49,21.02l1.85-1.74C291.85-482.68,268.47-487.86,250.38-487.86
		z"/>
</g>
<g transform="matrix(.35278 0 0 -.35278 82.661 155.87)">
	<path fill="none" stroke="#410608" stroke-width="1.7546" stroke-miterlimit="10" d="M205.52-405.21l-0.24,2.54
		c0.53,0.05,54.18,5.54,76.96,35.02l2-1.55C260.79-399.55,207.77-404.99,205.52-405.21z"/>
</g>
<g transform="matrix(.35278 0 0 -.35278 81.827 154.08)">
	<path fill="none" stroke="#410608" stroke-width="1.7546" stroke-miterlimit="10" d="M178.48-347.19l-1.76,1.82
		c31.01,29.8,41.12,74.28,41.22,74.72l2.47-0.55C220.31-271.65,210.03-316.88,178.48-347.19z"/>
</g>
<g transform="matrix(.35278 0 0 -.35278 80.138 152.74)">
	<path fill="none" stroke="#410608" stroke-width="1.7546" stroke-miterlimit="10" d="M123.74-303.77l-2.17,1.33
		c26.79,44.04,19.7,58.18,19.62,58.31l2.21,1.26C143.73-243.46,151.56-258.02,123.74-303.77z"/>
</g>
<g transform="matrix(.35278 0 0 -.35278 105.63 162.68)">
	<path fill="#5E991A" d="M950-625.94c-2.13,80.86-55.14,134.84-116,170.25c-41.26,16.33,15.98,136.45-41.66,238.51
		c-1.13,0.25-141.22-176.22-142.55-176.52c-35.58-5.67-291.32-52.61-296.04-232.25c5.02-65.41,155.38-194.75,296.04-195.61h4.14
		C794.6-820.69,944.97-691.35,950-625.94"/>
</g>
<g transform="matrix(.35278 0 0 -.35278 96.882 157.97)">
	<path fill="#78C533" d="M666.45-473.28c-60.29-20.86-120.58-16.32-178.94,0.07c-57.87-35.44-106.93-88.32-108.97-166.04
		C383.57-704.67,533.92-834,674.6-834.86h4.14c118.32,0.71,243.49,92.35,283.29,160.37c-1.62,19.63-4.79,38.94-11.03,56.4
		C907.8-508.85,785.88-432.63,666.45-473.28"/>
</g>
<g transform="matrix(.35278 0 0 -.35278 97.114 168.19)">
	<path fill="none" stroke="#410608" stroke-width="1.7546" stroke-miterlimit="10" d="M673.98-804.53h4.07
		c136.07,0.82,289.63,127.04,294.8,194.43c-1.8,68.66-40.61,125.58-115.37,169.08c-19.26,7.59-17.88,35.97-15.93,75.24
		c2.21,45.15,5.25,106.83-25.35,162.22c-6.75-7.81-43.32-53.46-75.83-94.08c-65.11-81.29-65.31-81.35-66.15-81.53
		c-20.25-3.23-91.31-16.38-159.31-50.8c-88.13-44.58-133.79-105.22-135.77-180.26c5.18-67.26,158.76-193.47,294.82-194.3
		L673.98-804.53L673.98-804.53z M675.98-807.08c-0.9,0-1.58,0-2.06,0.05v-0.04c-62.93,0.39-135.69,27.3-199.64,73.83
		c-55.91,40.69-95.16,90.1-97.69,122.95c2,76.17,48.15,137.55,137.15,182.59c67.9,34.36,138.82,47.61,159.58,50.95
		c3.24,3.51,34.67,42.75,65.11,80.76c76.72,95.82,76.95,95.82,78.04,95.82h0.74l0.37-0.64c31.84-56.4,28.75-119.23,26.51-165.09
		c-1.89-38.21-3.24-65.83,14.5-72.84c75.72-44.04,114.97-101.68,116.81-171.42c-2.54-32.97-41.79-82.38-97.69-123.07
		c-63.95-46.53-136.7-73.44-199.64-73.83v0.04C677.58-807.08,676.89-807.08,675.98-807.08z"/>
</g>
<g transform="matrix(.35278 0 0 -.35278 104.83 164.31)">
	<path fill="#8AE252" d="M924.07-678.78C771.84-626.9,783.99-487.02,795.88-430.4c29.33,112.34-8.07,196.3-24.16,198.86
		c-1.45,0.26-196.72-171-259.26-198.86c11.89-56.61,24.04-196.5-128.18-248.37c50.83-64.14,162.05-137.37,267.84-138.03h4.14
		C762.02-816.15,873.25-742.92,924.07-678.78"/>
</g>
<g transform="matrix(.35278 0 0 -.35278 99.549 164.17)">
	<path fill="#A1FC6F" d="M752.9-674.23c17.79,81.29,7.61,157.5,7.61,236.27c0,22.86-35.33,38.58-61.85,11.22
		c-39.64-40.86-100.02-52.48-165.8-41.57c5.51-66.44-8.64-168.36-133.64-210.96c31.56-39.83,86.43-83.17,148.8-110.45
		C637.98-790.9,734.43-770.72,752.9-674.23"/>
</g>
<g transform="matrix(.35278 0 0 -.35278 97.149 168.19)">
	<path fill="none" stroke="#410608" stroke-width="1.7546" stroke-miterlimit="10" d="M675.1-804.53h2.87
		c102.29,0.63,212.82,70.34,265.74,136.16c-151.08,52.54-139.4,191.69-127.33,249.23c22.98,88.05,4.94,160.41-12.83,187.57
		c-3.57,5.48-7.13,8.95-9.85,9.68c-1.77-1.34-9.54-7.91-20.04-16.77c-51.22-43.33-186.79-158-238.01-181.47
		c12.01-58.15,22.68-196-127.53-248.24c52.92-65.82,163.43-135.53,265.74-136.16L675.1-804.53L675.1-804.53z M675.91-807.08
		c-0.9,0-1.57,0-2.08,0.05v-0.04c-103.81,0.63-215.99,71.84-268.82,138.52l-1.12,1.41l1.7,0.58
		c150.94,51.44,139.35,189.81,127.36,246.9l-0.21,1.01l0.94,0.41c50.17,22.36,186.9,138.01,238.38,181.55
		c20.6,17.43,20.61,17.43,21.4,17.43c4.71-0.74,9.23-6.34,12.22-10.91c17.98-27.54,36.34-100.75,13.19-189.54
		c-11.99-57.04-23.59-195.4,127.36-246.84l1.69-0.58l-1.1-1.41c-52.83-66.68-165.01-137.89-268.84-138.52v0.04
		C677.48-807.08,676.83-807.08,675.91-807.08z"/>
</g>
<g transform="matrix(.35278 0 0 -.35278 95.834 156.69)">
	<path fill="none" stroke="#410608" stroke-width="1.7546" stroke-miterlimit="10" d="M632.49-431.79
		c-31.98,0-52.36,3.61-52.87,3.69l0.46,2.5c1.3-0.24,130.56-23.05,251.39,48.11l1.28-2.2C758.88-423.18,681.88-431.79,632.49-431.79
		z"/>
</g>
<g transform="matrix(.35278 0 0 -.35278 96.331 159.49)">
	<path fill="none" stroke="#410608" stroke-width="1.7546" stroke-miterlimit="10" d="M648.6-522.55
		c-62.4,0-105.29,13.93-106.04,14.17l0.81,2.41c1.3-0.44,132.39-42.95,270.33,22.04l1.08-2.31
		C754.77-514.48,696.05-522.55,648.6-522.55z"/>
</g>
<g transform="matrix(.35278 0 0 -.35278 96.847 162.41)">
	<path fill="none" stroke="#410608" stroke-width="1.7546" stroke-miterlimit="10" d="M665.32-617.19
		c-83.44,0-143.43,25.36-144.37,25.76l1.01,2.34c1.48-0.65,149.94-63.36,305.03,10.02l1.08-2.31
		C770.58-608.56,713.97-617.19,665.32-617.19z"/>
</g>
<g transform="matrix(.35278 0 0 -.35278 96.626 165.27)">
	<path fill="none" stroke="#410608" stroke-width="1.7546" stroke-miterlimit="10" d="M658.15-709.88
		c-31.57,0-59.26,3.34-82.39,7.93c-76.06,15.09-120.72,46.6-121.17,46.93l1.48,2.05c0.44-0.3,44.76-31.53,120.32-46.52
		c69.74-13.81,181.12-16.2,315.75,50.89l1.14-2.27C802.58-696.08,722.33-709.88,658.15-709.88z"/>
</g>
<g transform="matrix(.35278 0 0 -.35278 101.8 158.92)">
	<path fill="#5E991A" d="M825.86-504.07c0,0,105.29,53.64,157.79-98.79c18.62-53.35-5.91-126.18-105.85-190.54
		c60.97,3.39,118.19-60.13,111.59-89.76c-5.95-27.11-62.9,48.7-112.01,36.84c32.39-17.57,59.06-72.98,31.67-86.38
		c-19.62-11.85-41.42,41.07-83.75,58.86c8.47-19.48-3.83-66.27-22.88-64.37c-19.04,1.92-18.03,49.64-43.81,69.24
		c-31.76,24.14-72.41,0.63-80.03,16.52c-7.62,15.88,24.55,34.7,79.38,48.27c22.88,6.98,2.55,95.9,120.68,160.69
		c-38.1,1.26-46.94,38.64-46.94,38.64L825.86-504.07z"/>
</g>
<g transform="matrix(.35278 0 0 -.35278 105.51 161.98)">
	<path fill="#78C533" d="M946.12-603.26c-7.2,64.84-65.49,90.16-112.99,114.19c-10.89-2.66-13.75-3.47-17.62-6.08
		c-22.88-15.59,5.85-100.79,5.85-100.79s8.84-37.39,46.93-38.65C759.86-694.06,768.1-773.88,752.48-791.96
		C832.94-785.33,960.75-722.71,946.12-603.26"/>
</g>
<g transform="matrix(.35278 0 0 -.35278 101.17 171.27)">
	<path fill="none" stroke="#410608" stroke-width="1.7546" stroke-miterlimit="10" d="M805.44-904.36c-0.41,0-0.83,0.02-1.24,0.06
		c-10.29,1.03-14.99,13.83-20.42,28.66c-5.35,14.62-11.42,31.21-24.06,40.83c-17.38,13.19-37.35,11.85-53.39,10.75
		c-13.02-0.87-23.27-1.56-27.03,6.22c-1.69,3.54-1.64,7.27,0.17,11.1c6.49,13.78,35.67,27.98,80.08,38.94
		c6.45,1.98,9.38,12.33,13.47,26.64c9.35,32.86,24.89,87.52,103.15,131.85c-35.1,3.84-42.7,40.05-42.7,40.05
		c0.1-0.37,10.39-36.59,47.09-37.8l4.62-0.17l-4.05-2.22c-80.59-44.17-96.29-99.4-105.68-132.39c-4.47-15.65-7.39-26-15.24-28.39
		c-43.08-10.65-72.38-24.7-78.46-37.58c-1.48-3.14-1.53-6.06-0.16-8.91c2.98-6.24,12.51-5.6,24.55-4.77
		c16.48,1.09,36.97,2.48,55.09-11.28c13.24-10.07,19.44-27.02,24.92-41.98c5.14-14.03,9.57-26.13,18.26-27.01
		c5.66-0.53,10.18,3.87,12.97,7.68c10.07,13.82,14.43,41.55,8.61,54.91l-1.26,2.9l2.91-1.23c20.44-8.57,36.27-25.38,49-38.87
		c13.53-14.38,24.24-25.73,33.61-20.06c6.99,3.41,10.57,9.68,10.75,18.63c0.47,22.02-19.73,53.27-42.36,65.53l-2.9,1.57l3.21,0.79
		c27.38,6.59,57.13-13.47,78.88-28.12c12.94-8.73,24.11-16.28,29.18-14.25c1.48,0.58,2.46,2.09,3.01,4.58
		c2.43,10.93-4.54,27.7-18.18,43.78c-18.53,21.83-53.76,46.58-92.11,44.43l-4.79-0.26l4.04,2.6
		c87.6,56.43,126.98,127.09,105.34,189.06c-18.2,52.83-44.72,86.72-78.83,100.74c-40.34,16.56-77.38-1.35-77.76-1.53
		c0,0,37.28,20.9,78.69,3.89c34.83-14.28,61.85-48.7,80.29-102.27c21.74-62.23-16.57-132.86-102.57-189.55h0.23
		c37.38,0,71.27-24.09,89.41-45.46c14.35-16.91,21.36-34.1,18.71-45.96c-0.73-3.32-2.26-5.48-4.54-6.39
		c-6.3-2.54-16.89,4.63-31.55,14.5c-20.47,13.78-48.18,32.48-73.62,28.4c22.12-13.66,41.22-44.25,40.76-66.12
		c-0.19-9.84-4.37-17.03-12.07-20.8c-11.04-6.68-22.37,5.33-36.68,20.53c-11.98,12.71-26.75,28.4-45.4,37.09
		c4.58-14.97,0.08-40.79-9.95-54.53C815.26-901.36,810.42-904.36,805.44-904.36z"/>
</g>
<g transform="matrix(.35278 0 0 -.35278 102.01 167.65)">
	<path fill="none" stroke="#410608" stroke-width="1.7546" stroke-miterlimit="10" d="M832.66-787.04
		c0.27,0.07,25.58,7.13,43.73,19.51l1.43-2.1C859.33-782.24,832.66-787.04,832.66-787.04z"/>
</g>
<g transform="matrix(.35278 0 0 -.35278 101.75 169.42)">
	<path fill="none" stroke="#410608" stroke-width="1.7546" stroke-miterlimit="10" d="M824.24-844.39
		c-6.22,16.32-14.31,25.98-14.39,26.1c0,0,10.41-8.47,16.76-25.21L824.24-844.39z"/>
</g>
<g transform="matrix(.35278 0 0 -.35278 103.26 168.67)">
	<path fill="none" stroke="#410608" stroke-width="1.7546" stroke-miterlimit="10" d="M873.17-820.09
		c-19.91,12.56-33.89,10.31-34.03,10.3c0,0,14.57,4.98,35.39-8.16L873.17-820.09z"/>
</g>
<g transform="matrix(.35278 0 0 -.35278 92.541 158.92)">
	<path fill="#5E991A" d="M525.76-504.07c0,0-105.29,53.64-157.78-98.79c-18.64-53.35,5.92-126.18,105.85-190.54
		c-60.97,3.39-118.19-60.13-111.59-89.76c5.95-27.11,62.89,48.7,112,36.84c-32.39-17.57-59.06-72.98-31.67-86.38
		c19.61-11.85,41.42,41.07,83.76,58.86c-8.48-19.48,3.81-66.27,22.87-64.37c19.05,1.92,18.03,49.64,43.83,69.24
		c31.75,24.14,72.38,0.63,80.02,16.52c7.61,15.88-24.55,34.7-79.39,48.27c-22.87,6.98-2.54,95.9-120.68,160.69
		c38.11,1.26,47.05,39.08,47.05,39.08L525.76-504.07z"/>
	<path fill="#78C533" d="M525.76-504.07c0,0-105.29,53.64-157.78-98.79c-18.64-53.35,5.92-126.18,105.85-190.54
		c118.41-74.57,95.69,88.92-0.85,149.89c38.1,1.26,47.04,39.08,47.04,39.08L525.76-504.07z"/>
</g>
<g transform="matrix(.35278 0 0 -.35278 88.449 161.79)">
	<path fill="#A9CB8E" d="M393.12-597.09c15.82,58.76,63.83,101.41,122.53,108.31c-33.64,6.86-98.44,3.53-136.07-105.78
		c-12.18-34.86-5.89-78.04,27.78-121.73C395.41-677.36,382.33-638.15,393.12-597.09"/>
</g>
<g transform="matrix(.35278 0 0 -.35278 93.174 171.27)">
	<path fill="none" stroke="#410608" stroke-width="1.7546" stroke-miterlimit="10" d="M546.27-904.36c-4.98,0-9.81,3-14.01,8.78
		c-10.03,13.75-14.52,39.56-9.94,54.53c-18.65-8.68-33.43-24.37-45.41-37.08c-14.32-15.2-25.65-27.22-36.78-20.48
		c-7.58,3.71-11.76,10.9-11.98,20.75c-0.46,21.87,18.64,52.46,40.78,66.12c-25.43,4.09-53.15-14.62-73.62-28.4
		c-14.66-9.9-25.26-17.02-31.55-14.5c-2.29,0.91-3.82,3.07-4.55,6.39c-2.64,11.86,4.36,29.06,18.72,45.96
		c18.14,21.37,52.03,45.46,89.4,45.46h0.24c-86,56.69-124.31,127.32-102.58,189.55c18.44,53.57,45.46,87.99,80.3,102.27
		c41.42,17,78.68-3.89,78.68-3.89c-0.37,0.18-37.43,18.09-77.76,1.53c-34.11-14.01-60.63-47.9-78.83-100.74
		c-21.63-61.97,17.75-132.64,105.35-189.05l4.04-2.6l-4.81,0.25c-38.34,2.15-73.57-22.6-92.09-44.43
		c-13.65-16.08-20.62-32.84-18.18-43.78c0.53-2.49,1.53-3.99,3.01-4.58c5.04-2.03,16.22,5.51,29.18,14.25
		c21.74,14.65,51.54,34.72,78.87,28.12l3.22-0.79l-2.9-1.57c-22.63-12.26-42.84-43.52-42.38-65.53c0.19-8.95,3.78-15.21,10.66-18.57
		c9.47-5.73,20.17,5.62,33.71,20c12.73,13.49,28.55,30.3,48.98,38.87l2.93,1.22l-1.26-2.9c-5.82-13.36-1.46-41.08,8.61-54.91
		c2.78-3.8,7.29-8.23,12.96-7.67c8.71,0.87,13.14,12.98,18.26,27c5.49,14.96,11.69,31.91,24.91,41.98
		c18.13,13.76,38.63,12.37,55.11,11.28c12.04-0.82,21.56-1.47,24.54,4.77c1.37,2.85,1.32,5.77-0.16,8.92
		c-6.07,12.88-35.36,26.93-78.37,37.57c-7.92,2.41-10.84,12.75-15.31,28.4c-9.4,32.99-25.09,88.22-105.68,132.39l-4.07,2.22
		l4.64,0.17c36.74,1.22,46.98,37.44,47.08,37.8c0,0-7.59-36.21-42.69-40.05c78.26-44.33,93.81-98.99,103.15-131.85
		c4.09-14.31,7.02-24.66,13.53-26.65c44.33-10.95,73.52-25.15,80.01-38.93c1.8-3.83,1.85-7.57,0.16-11.1
		c-3.75-7.78-14.02-7.09-27.02-6.22c-16.06,1.08-36.03,2.44-53.39-10.76c-12.64-9.61-18.71-26.21-24.07-40.83
		c-5.43-14.83-10.11-27.62-20.39-28.66C547.11-904.33,546.68-904.36,546.27-904.36z"/>
</g>
<g transform="matrix(.35278 0 0 -.35278 91.048 167.15)">
	<path fill="none" stroke="#410608" stroke-width="1.7546" stroke-miterlimit="10" d="M477.36-770.82l1.43,2.1
		c18.15-12.39,43.47-19.45,43.73-19.51C522.52-788.23,495.88-783.46,477.36-770.82z"/>
</g>
<g transform="matrix(.35278 0 0 -.35278 92.591 169.42)">
	<path fill="none" stroke="#410608" stroke-width="1.7546" stroke-miterlimit="10" d="M527.38-844.39l-2.38,0.89
		c6.35,16.74,16.77,25.21,16.77,25.21C541.68-818.41,533.56-828.1,527.38-844.39z"/>
</g>
<g transform="matrix(.35278 0 0 -.35278 91.081 168.67)">
	<path fill="none" stroke="#410608" stroke-width="1.7546" stroke-miterlimit="10" d="M478.43-820.09l-1.35,2.14
		c20.8,13.14,35.39,8.16,35.39,8.16C512.34-809.77,498.35-807.53,478.43-820.09z"/>
</g>
<g transform="matrix(.35278 0 0 -.35278 105.92 147.17)">
	<path fill="#27113B" d="M959.4-123.23c-0.8,0.24-1.61,0.46-2.38,0.66c-31.31,8.86-57.5,2.81-76.77-6.47
		c-23.34-11.22-36.6-27.19-36.6-27.19s9.33-13.43,21.12-33.87c19.81-34.33,46.67-88.5,47.88-132.03v-0.03
		c0.67-22.53-5.55-42.25-23.09-54.89c-58.02-41.77-200.54-25.32-319.67,49.33c-28.09,17.61-54.85,38.43-78.95,62.53
		C366.6-140.86,417.71-53.11,419.24-50.59c-0.52-2.04-15.36-58.7,7.19-78.41c21.71-18.98,56.26,15.96,79.36-2.11v-0.04
		c1.3-1,2.57-2.2,3.8-3.58c22.95-25.81,14.36-111.84,91.77-114.71c77.44-2.85,162.11,115.2,243.76,134.79
		c61.94,14.85,102.2-2.38,112-7.35C958.41-122.66,959.17-123.09,959.4-123.23"/>
</g>
<g transform="matrix(.35278 0 0 -.35278 90.464 145.54)">
	<path fill="#410608" d="M458.43-70.4c-9.59-29.54-18.19-102.76,77.55-198.49c23.05-23.05,49.52-44.02,78.66-62.29
		c123.6-77.46,264.14-88.06,317.85-49.37c15.6,11.23,23.16,29.25,22.44,53.53c-1.19,42.35-26.58,94.77-47.67,131.29
		c-11.61,20.16-20.93,33.63-21.04,33.77l-0.67,1.01l0.76,0.94c0.55,0.67,13.76,16.37,37.13,27.61c20.21,9.74,41.33,13.02,62.98,9.8
		c-18.54,6.15-51.91,12.4-97.07,1.58c-36.78-8.83-74.84-38.34-111.65-66.87c-44.11-34.2-89.76-69.54-132.53-67.96
		c-54.68,2.03-67.37,44.7-77.56,78.97c-4.56,15.34-8.5,28.58-15.34,36.29c-1.23,1.34-2.41,2.45-3.6,3.36l-0.63,0.51
		c-10.72,7.87-23.93,4.05-37.91,0.02c-14.41-4.16-29.31-8.44-40.89,1.69C453.32-121.11,455.38-89.6,458.43-70.4 M843.06-405.92
		c-14.74,0-30.42,1.13-46.76,3.45c-61.73,8.79-126.84,33.14-183.37,68.57c-29.35,18.39-56,39.5-79.23,62.74
		c-124.93,124.91-74.18,212.9-71.96,216.58l5.62,9.31l-2.68-10.54c-1.54-6.03-14.23-58.5,6.7-76.8c10.25-8.96,23.67-5.09,37.87-0.99
		c14.39,4.14,29.28,8.44,41.41-1.07l0.62-0.51c1.13-0.92,2.23-2,3.4-3.29c7.32-8.24,11.35-21.81,16.03-37.51
		c9.9-33.3,22.22-74.73,74.59-76.66c41.6-1.57,86.78,33.44,130.43,67.28c37.08,28.74,75.43,58.46,112.88,67.45
		c61.91,14.84,102.23-1.97,113.11-7.48c1.37-0.69,2.19-1.15,2.44-1.3l-0.87-1.37l-0.44-1.54c-0.79,0.23-1.58,0.45-2.34,0.64
		c-26.12,7.39-51.57,5.25-75.67-6.38c-19.6-9.41-32.08-22.34-35.25-25.85c2.4-3.55,10.62-15.87,20.46-32.93
		c21.27-36.86,46.88-89.81,48.11-132.79c0.74-25.44-7.26-44.36-23.79-56.26c-20.75-14.95-52.82-22.75-91.3-22.75"/>
</g>
<g transform="matrix(.35278 0 0 -.35278 107.66 143.49)">
	<path fill="#78C533" d="M1015.79-3.95c0-52.82-14.24-103.72-56.6-125.48c0,0-1.52-1.19-3.86-3.52
		c-9.13-9.07-30.51-35.63-19.07-76.77c5.73-20.65,15.62-53.26,18.94-89.75c1.38-15,1.68-30.65,0.06-46.39
		c-0.34-3.36-0.78-6.74-1.28-10.1c-0.19-1.35-0.43-2.72-0.66-4.09c-9.79-56.23-51.24-101.77-105.88-118.31
		c-36.89-11.17-96.18-23.39-172.74-19.95c-44.1,1.98-93.95,9.15-148.52,24.75c0,0-212.21,48.75-306.84,209.34
		c-18.43,31.29-26.64,64.98-27.87,99c-0.09,1.8-0.15,3.65-0.18,5.46c-2.1,138.6,108.35,279.8,108.35,279.8s11.46,134.8,114.7,117.58
		c0,0,88.9,134.79,249.49,60.23c0,0,66.17,60.33,135.95-48.28c14.05-21.84,28.27-50.55,42.12-87.94c0.84-2.36,1.73-4.77,2.6-7.16
		c0,0,94.63,17.21,126.16,0c8.38-4.56,18.59-23.16,27.2-48.9C1007.94,75.32,1015.77,35.16,1015.79-3.95"/>
</g>
<g transform="matrix(.35278 0 0 -.35278 105.81 147.38)">
	<path fill="#5E991A" d="M955.83-130.04c0,0-1.88-1.46-4.64-4.3c-0.04,0.02-0.06,0.02-0.06,0.02c-0.06,0-0.06,0.04-0.06,0.04
		c-0.27,0.17-1.03,0.6-2.22,1.2c-9.83,4.96-50.08,22.2-112.01,7.35c-12.52-3.01-25.07-8.32-37.69-15.14
		c-69.71-37.76-140.48-122.07-206.08-119.63c-7.22,0.24-13.66,1.25-19.5,2.83c-48.53,13.33-51.65,68.87-64.72,99.2
		c10.27-15.52,30.35-37.3,65.58-46.11c57.35-14.34,203.6,114.7,266.69,126.16c63.09,11.48,80.29-20.07,123.31,0
		c28.07,13.1,30.08,121.56,30.05,183.38C1018.22,33.85,1029.51-92.15,955.83-130.04"/>
</g>
<g transform="matrix(.35278 0 0 -.35278 -79.514 327.97)">
	<g>
		<g>
			<defs>
				<rect id="SVGID_1_" x="1414.16" y="268.72" width="16.5" height="29.66"/>
			</defs>
			<clipPath id="SVGID_2_">
				<use xlink:href="#SVGID_1_"  overflow="visible"/>
			</clipPath>
			<g opacity="0.2" clip-path="url(#SVGID_2_)">
				<g transform="translate(525.71 495.42)">
					<path fill="#5E991A" d="M960.24-318.54c-0.34-3.35-0.76-6.74-1.3-10.09c-52.09,24.89-123.82,94.59-123.82,94.59
						c-25.8,195.02,123.31,129.06,123.31,129.06c0.63-0.17,1.26-0.37,1.87-0.66c-9.13-9.06-30.52-35.62-19.08-76.77
						c5.75-20.66,15.66-53.26,18.96-89.74C961.56-287.14,961.84-302.79,960.24-318.54"/>
				</g>
				<g transform="translate(515.77 502.28)">
					<path fill="#410608" d="M846.58-240.09c5.79-5.56,71.94-68.68,121.02-92.97c0.38,2.57,0.69,5.22,0.97,7.85
						c1.46,14.27,1.43,29.78-0.06,46.08c-3.01,32.9-11.54,63.23-17.18,83.3l-1.74,6.15c-10.94,39.36,7.49,65.6,17.77,76.55
						c-6.2,2.56-59.18,23.34-93.45-2.34C847.54-135.24,838.33-177.17,846.58-240.09 M970.16-337.86l-1.97,0.94
						c-51.75,24.72-123.53,94.2-124.26,94.9l-0.39,0.39l-0.08,0.56c-8.53,64.49,1.07,107.62,28.52,128.19
						c37.71,28.25,96.46,2.81,97.05,2.54c0.5-0.12,1.2-0.34,1.89-0.68l2.07-0.98l-1.62-1.62c-9.32-9.27-29.79-35.13-18.66-75.19
						l1.74-6.13c5.68-20.19,14.24-50.7,17.28-83.88c1.52-16.52,1.54-32.23,0.04-46.72c-0.35-3.44-0.78-6.85-1.28-10.18
						L970.16-337.86z"/>
				</g>
			</g>
		</g>
	</g>
</g>
<g transform="matrix(.35278 0 0 -.35278 105.94 153.19)">
	<path fill="#5E991A" d="M960.05-318.35c-0.47-4.59-1.07-9.19-1.87-13.78c-9.74-56.41-51.19-102.14-105.96-118.72
		c-36.89-11.16-96.18-23.39-172.73-19.94c-44.12,1.97-93.95,9.15-148.53,24.74c0,0-212.2,48.76-306.84,209.36
		c-18.43,31.28-26.64,64.97-27.87,98.99c92-178.28,135.53-127.22,153.88-76.85c6.74,18.47,30.8,22.95,43.87,8.26
		c145.89-163.98,319.19-229.36,455.27-205.33C913.14-400.36,944.73-360.11,960.05-318.35"/>
</g>
<g transform="matrix(.35278 0 0 -.35278 -79.514 327.97)">
	<g>
		<g>
			<defs>
				<rect id="SVGID_3_" x="1006.67" y="573.21" width="80.97" height="59.75"/>
			</defs>
			<clipPath id="SVGID_4_">
				<use xlink:href="#SVGID_3_"  overflow="visible"/>
			</clipPath>
			<g opacity="0.6" clip-path="url(#SVGID_4_)">
				<g transform="translate(516.59 536.24)">
					<path fill="#FFFFFF" d="M855.96,148.21c0,0-66.22,119.01-123.57,121.89c-57.36,2.85-67.14-26.22-67.14-26.22l-3.85,24.44
						c0,0-132.62,33.3-195.71-41.25c0,0,27.78-24.01,35.38-53.6c0,0-64.06,39.26-109.94,19.19
						c-45.89-20.08-63.09-123.31-63.09-123.31S248.52-8.19,205.38-173.16c-2.1,138.59,108.34,279.79,108.34,279.79
						s11.45,134.79,114.7,117.58c0,0,88.9,134.78,249.49,60.22c0,0,66.15,60.34,135.95-48.27
						C827.9,214.32,842.12,185.6,855.96,148.21"/>
				</g>
			</g>
		</g>
	</g>
	<g>
		<g>
			<defs>
				<rect id="SVGID_5_" x="1359.95" y="605.35" width="41.28" height="24.61"/>
			</defs>
			<clipPath id="SVGID_6_">
				<use xlink:href="#SVGID_5_"  overflow="visible"/>
			</clipPath>
			<g opacity="0.6" clip-path="url(#SVGID_6_)">
				<g transform="translate(530.58 522.92)">
					<path fill="#FFFFFF" d="M1015.93-4.1c0,0-42.26,124-62.34,129.75c-20.08,5.73-45.88,11.46-137.64,0
						c-91.77-11.48-131.68,68.01-131.68,68.01c6.6-8.43,14.01-15.37,21.9-21.08c1.18-0.85,2.34-1.69,3.52-2.47
						c20.91-13.93,44.82-19.72,66.64-21.48c9.62-0.8,18.83-0.76,27.19-0.34c23.99,1.26,41.09,6.02,41.09,6.02s94.65,17.22,126.18,0
						c8.38-4.56,18.59-23.14,27.19-48.89C1008.07,75.19,1015.9,35.03,1015.93-4.1"/>
				</g>
			</g>
		</g>
	</g>
</g>
<g transform="matrix(.35278 0 0 -.35278 93.266 143.42)">
	<path fill="#FFFFFF" d="M549.25-1.68c-26.9,16.47-70.18,34.1-115.57,16.62c-18.67-7.16-32.83-18.12-43.62-30.5
		c-4.22,7.52-7.81,15.62-10.7,24.26c-19.59,58.58,1.32,118.38,46.71,133.55c45.37,15.19,98.04-20,117.63-78.58
		C551.23,41.19,552.77,18.56,549.25-1.68"/>
</g>
<g transform="matrix(.35278 0 0 -.35278 90.393 139.28)">
	<path fill="#410608" d="M456.14,132.5c-7.27,0-14.45-1.14-21.4-3.46c-21.45-7.18-38.04-24.76-46.71-49.51
		c-8.71-24.88-8.33-54,1.02-82c2.59-7.72,5.78-15.12,9.48-22c11.83,13.05,26.21,22.89,42.73,29.25
		c44.38,17.07,86.64,1.31,114.93-15.53c3.08,20.05,1.07,41.52-5.85,62.23c-9.36,27.99-26.61,51.48-48.51,66.12
		C487.08,127.45,471.39,132.5,456.14,132.5 M397.92-30.03l-1.12,1.99c-4.26,7.62-7.89,15.88-10.82,24.54
		c-9.57,28.68-9.93,58.55-1.01,84.1c9.01,25.7,26.31,43.99,48.74,51.49c22.44,7.52,47.26,3.33,69.88-11.79
		c22.54-15.05,40.22-39.13,49.8-67.8c7.36-22.04,9.28-44.9,5.59-66.14l-0.4-2.33l-2.02,1.24C528.91,2.2,486.65,18.79,442.4,1.77
		c-16.73-6.45-31.19-16.55-42.97-30.07L397.92-30.03z"/>
</g>
<g transform="matrix(.35278 0 0 -.35278 92.265 142.94)">
	<path fill="#410608" d="M516.81,13.87c-16.35,10.96-65.96,14.34-100.36-8.6c-2.57,4.98-0.95,3.98-2.7,9.72
		c-11.93,39.03,0.8,78.84,28.43,88.93c17.04,6.25,35.75-0.25,50.38-15.31c-4.49-0.35-9.52-1.72-14.55-4.19
		c-13.2-6.48-21.31-18.03-18.11-25.8c3.19-7.75,16.47-8.78,29.67-2.29c7.38,3.64,13.17,8.85,16.3,14.11
		c3.18-5.73,5.85-12.05,7.91-18.82C518.36,36.65,518.96,27.35,516.81,13.87"/>
</g>
<g transform="matrix(.35278 0 0 -.35278 105.92 147.17)">
	<path fill="#410608" d="M959.4-123.23c-0.8,0.24-1.61,0.46-2.38,0.66c-31.31,8.86-57.5,2.81-76.77-6.47
		c-23.34-11.22-36.6-27.19-36.6-27.19s9.33-13.43,21.12-33.87c19.81-34.33,46.67-88.5,47.88-132.03v-0.03
		c0.67-22.53-5.55-42.25-23.09-54.89c-58.02-41.77-200.54-25.32-319.67,49.33c-28.09,17.61-54.85,38.43-78.95,62.53
		C366.6-140.86,417.71-53.11,419.24-50.59c-0.52-2.04-15.36-58.7,7.19-78.41c21.71-18.98,56.26,15.96,79.36-2.11v-0.04
		c1.3-1,2.57-2.2,3.8-3.58c20.79-23.4,15.65-96.32,72.27-111.86c5.8-1.58,12.26-2.59,19.49-2.85
		c65.58-2.43,136.37,81.89,206.06,119.64c12.63,6.83,25.2,12.13,37.69,15.14c61.94,14.85,102.2-2.38,112-7.35
		C958.41-122.66,959.17-123.09,959.4-123.23"/>
</g>
<g transform="matrix(.35278 0 0 -.35278 101.99 153.32)">
	<path fill="#FF6B9F" d="M832.02-322.56c-31.32-9.1-71.86-10.02-113.65,2.78c-43.41,13.31-88.15,41.35-125.23,90.38
		c5.82-1.58,12.28-2.56,19.5-2.83c65.59-2.44,136.35,81.87,206.07,119.63c14.11-30.21,32.64-74.56,41.23-114.93
		C869.56-272.47,866.83-312.47,832.02-322.56"/>
</g>
<g transform="matrix(.35278 0 0 -.35278 -79.514 327.97)">
	<g>
		<g>
			<defs>
				<rect id="SVGID_7_" x="1224.37" y="266.06" width="33.21" height="25.78"/>
			</defs>
			<clipPath id="SVGID_8_">
				<use xlink:href="#SVGID_7_"  overflow="visible"/>
			</clipPath>
			<g opacity="0.2" clip-path="url(#SVGID_8_)">
				<g transform="translate(516.74 502.71)">
					<path fill="#410608" d="M857.68-235.18c-45.17,2.85-121.98-5.79-141.59-92.25c-43.4,13.31-88.15,41.35-125.22,90.39
						c5.81-1.58,12.26-2.57,19.49-2.84c65.6-2.43,136.35,81.87,206.08,119.63C830.54-150.47,849.08-194.81,857.68-235.18"/>
				</g>
			</g>
		</g>
	</g>
</g>
<g transform="matrix(.35278 0 0 -.35278 98.827 149.35)">
	<path fill="#410608" d="M729.5-193.89c0,0,63.31-31.44,91.33-88.29C820.83-282.18,773.56-226.51,729.5-193.89"/>
	<path fill="none" stroke="#410608" stroke-width="1.7546" stroke-miterlimit="10" d="M729.5-193.89c0,0,63.31-31.44,91.33-88.29
		C820.83-282.18,773.56-226.51,729.5-193.89z"/>
</g>
<g transform="matrix(.35278 0 0 -.35278 105.86 147.14)">
	<path fill="#FFFFFF" d="M957.46-122.26l-0.1-0.57l-0.08-0.69c0,0-25.81-68.81-48.74-68.81s-27.94,63.03-27.94,63.03
		s-3.71-39.44-15.48-61.06c-3.75-6.93-8.37-12.05-13.93-13.44c-22.95-5.73-45.87,54.49-45.87,54.49s-2.88-74.56-20.09-80.29
		c-17.19-5.74-48.74,40.13-48.74,40.13s8.6-71.68-11.46-80.29c-20.09-8.6-48.75,31.55-48.75,31.55s-8.62-65.96-34.43-68.83
		c-25.81-2.87-34.4,45.89-34.4,45.89s-28.68-40.16-54.48-28.68c-25.38,11.27-11.93,53.08-11.51,54.46
		c-1.23-0.49-34.57-14.05-45.85,0.02c-11.36,14.16,10.04,102,10.53,103.94c1.33-0.98,2.57-2.2,3.82-3.57
		c22.93-25.81,14.33-111.83,91.77-114.71c77.41-2.85,162.11,115.2,243.73,134.77C907.39-100.06,947.66-117.29,957.46-122.26"/>
</g>
<g transform="matrix(.35278 0 0 -.35278 99.523 148.87)">
	<path fill="#410608" d="M752.05-178.32l3.61-5.25c8.58-12.48,33.76-43.88,46.91-39.53c13.24,4.42,18.19,58.41,18.96,78.83l0.3,7.91
		l2.82-7.4c0.23-0.58,22.72-58.83,43.98-53.49c4.66,1.18,9.02,5.43,12.92,12.65c11.46,21.09,15.26,60.05,15.3,60.44l3.21-0.02
		c1.37-17.12,8.73-61.55,26.34-61.55c20.92,0,45.49,63.22,47.14,67.56c-11.99,5.82-50.85,20.84-109.86,6.69
		C826.91-120.3,788.86-149.8,752.05-178.32 M626.2-252.11l0.68-3.78c0.07-0.47,8.57-47.23,32.64-44.55
		c24.25,2.69,32.89,66.77,32.98,67.43l0.53,4.06l2.38-3.34c0.28-0.39,28.14-38.99,46.8-31c15.55,6.67,12.86,59.02,10.51,78.62
		l-0.76,6.29c-44.09-34.18-89.68-69.58-132.48-67.93c-54.68,2.03-67.37,44.69-77.55,78.97c-4.57,15.34-8.52,28.58-15.35,36.28
		c-0.57,0.63-1.12,1.2-1.67,1.72c-6.07-25.05-19.12-88.91-10.2-100.02c10.07-12.57,40.49-0.94,43.92,0.44l3.15,1.25l-0.93-3.21
		c-1.37-4.33-12.52-42.22,10.62-52.49c24.32-10.81,52.22,27.75,52.5,28.14L626.2-252.11z M657.5-303.79
		c-21.38,0-30.57,32.78-33.07,43.82c-7.31-9.22-31.47-36.49-54.28-26.35c-22.61,10.04-16.14,42.54-13.29,53.3
		c-9.82-3.53-34.7-10.8-44.67,1.65c-12.15,15.17,9.99,104.47,10.23,105.36l0.59,2.37l1.94-1.49c1.36-1.03,2.69-2.26,4.06-3.78
		c7.31-8.24,11.34-21.81,16.03-37.51c9.9-33.3,22.21-74.73,74.59-76.66c41.59-1.58,86.76,33.44,130.41,67.27
		c37.09,28.76,75.43,58.47,112.88,67.46c61.93,14.85,102.25-1.96,113.12-7.47l1.04-0.53l-0.43-2.73
		c-1.06-2.85-26.47-69.87-50.25-69.87c-17.59,0-25.12,32.78-27.99,51.65c-2.08-13.51-6.34-34.73-14.01-48.84
		c-4.37-8.04-9.38-12.84-14.97-14.23c-1.16-0.3-2.33-0.43-3.49-0.43c-18.2-0.01-35.08,34.33-41.54,49.23
		c-1.2-19.66-5.73-69.54-20.8-74.57c-14.79-4.93-38.17,23.92-47.05,35.85c1.6-17.74,4.57-68.4-13.04-75.94
		c-17.82-7.63-40.96,19.48-48.37,28.97c-2.31-14.43-11.94-63.79-35.26-66.37C659.06-303.75,658.26-303.79,657.5-303.79"/>
</g>
<g transform="matrix(.35278 0 0 -.35278 103.94 154.37)">
	<path fill="#FFFFFF" d="M895.22-356.59c-58.02-41.78-200.54-25.32-319.67,49.32c0,0,7.09,48.17,30.03,45.32
		c22.95-2.88,37.28-71.7,37.28-71.7s28.68,54.48,51.62,45.89c22.94-8.61,34.41-71.69,34.41-71.69s11.47,54.47,37.27,54.47
		c25.81,0,40.16-63.07,40.16-63.07s2.85,65.95,25.8,68.83c22.94,2.85,45.88-54.5,45.88-54.5s0,74.56,14.34,77.44
		c14.01,2.8,25.46-24.18,25.97-25.38v-0.04C918.98-324.24,912.76-343.95,895.22-356.59"/>
</g>
<g transform="matrix(.35278 0 0 -.35278 102.2 152.79)">
	<path fill="#410608" d="M838.83-305.39c-0.51,0-1.02-0.02-1.52-0.09c-17.72-2.21-23.62-49.33-24.4-67.3l-0.39-8.94
		c36.92,0.35,67.43,7.89,86.72,21.8c15.55,11.2,23.11,29.11,22.47,53.25c-4.37,10.05-14.2,26.15-24.07,24.15
		c-9.5-1.89-13.04-47.54-13.04-75.84v-8.37l-3.11,7.77C881.27-358.41,859.8-305.39,838.83-305.39 M582.3-311.1
		c77.84-48.55,162.29-70.62,227.48-70.62c0.63,0,1.27,0,1.9,0.01l-1.98,8.65c-0.13,0.63-14.33,61.84-38.56,61.84
		c-24.22,0-35.6-52.67-35.71-53.21l-1.69-8.02l-1.47,8.07c-0.11,0.62-11.58,62.28-33.41,70.47c-21.34,8.01-49.34-44.59-49.62-45.12
		l-2.09-3.97l-0.91,4.4c-0.14,0.67-14.38,67.73-35.92,70.42C591.02-265.82,583.49-304.26,582.3-311.1 M809.82-385.3
		c-14.75,0-30.42,1.14-46.78,3.47c-61.72,8.78-126.84,33.13-183.37,68.55l-0.89,0.56l0.16,1.04c0.29,2.03,7.61,49.7,31.8,46.68
		c20.68-2.59,34.16-53.56,37.72-68.8c7.13,12.45,30.98,50.62,51.55,42.9c19.1-7.16,30.23-49.03,33.99-65.92
		c4.13,15,15.82,48.82,37.14,48.82c20.77,0,34.05-37.11,39.25-55c1.8,18.76,7.82,58.38,26.51,60.72
		c19.14,2.35,37.47-33.03,44.55-48.52c0.42,19.9,2.71,68.86,15.55,71.42c14.52,2.9,25.66-21.39,27.77-26.28l0.14-0.68
		c0.73-25.39-7.26-44.31-23.79-56.22C880.38-377.48,848.31-385.3,809.82-385.3"/>
</g>
<g transform="matrix(.35278 0 0 -.35278 105.16 142.09)">
	<path fill="#410608" d="M934.77,41.43c0-33.26-11.57-60.23-25.81-60.23c-14.27,0-25.81,26.97-25.81,60.23
		c0,33.26,11.54,60.22,25.81,60.22C923.2,101.65,934.77,74.69,934.77,41.43"/>
</g>
<g transform="matrix(.35278 0 0 -.35278 -79.514 327.97)">
	<g>
		<g>
			<defs>
				<rect id="SVGID_9_" x="1437.55" y="559.37" width="9.36" height="17.31"/>
			</defs>
			<clipPath id="SVGID_10_">
				<use xlink:href="#SVGID_9_"  overflow="visible"/>
			</clipPath>
			<g opacity="0.33" clip-path="url(#SVGID_10_)">
				<g transform="translate(525.22 526.88)">
					<path fill="#410608" d="M954.63,41.2c0-38.42-16.83-69.57-37.58-69.57c-20.77,0-37.61,31.15-37.61,69.57
						c0,38.41,16.84,69.55,37.61,69.55C937.8,110.75,954.63,79.6,954.63,41.2"/>
				</g>
			</g>
		</g>
	</g>
	<g>
		<g>
			<defs>
				<rect id="SVGID_11_" x="1244.51" y="489.44" width="13.26" height="14.54"/>
			</defs>
			<clipPath id="SVGID_12_">
				<use xlink:href="#SVGID_11_"  overflow="visible"/>
			</clipPath>
			<g opacity="0.33" clip-path="url(#SVGID_12_)">
				<g transform="translate(509.13 523.09)">
					<path fill="#410608" d="M770.66-2.14c24.79-29.35,32.02-64.01,16.17-77.41c-15.88-13.39-48.81-0.46-73.6,28.89
						c-24.79,29.35-32.02,63.99-16.16,77.39C712.93,40.13,745.87,27.2,770.66-2.14"/>
				</g>
			</g>
		</g>
	</g>
</g>
<g transform="matrix(.35278 0 0 -.35278 99.757 143.76)">
	<path fill="#410608" d="M759.64-12.7c21.67-26.53,29.26-56.21,16.91-66.3c-12.33-10.07-39.91,3.29-61.59,29.82
		c-21.67,26.53-29.23,56.21-16.89,66.29C710.4,27.19,737.97,13.83,759.64-12.7"/>
</g>
<g transform="matrix(.35278 0 0 -.35278 101.64 139.17)">
	<path fill="#FFFFFF" d="M820.67,136.06c-8.37-0.42-17.57-0.45-27.17,0.34c-21.82,1.76-45.75,7.55-66.65,21.49
		c-1.28,6.85-1.9,13.53-1.86,19.87c0.06,23.84,8.86,42.85,24.44,48.01c23.05,7.62,52.25-17.87,65.2-56.93
		C818.35,157.61,820.34,146.46,820.67,136.06"/>
</g>
<g transform="matrix(.35278 0 0 -.35278 99.015 138.52)">
	<path fill="#410608" d="M735.6,157.14c17.91-11.79,39.88-18.8,65.3-20.84c8-0.66,16.54-0.81,25.38-0.42
		c-0.49,10.07-2.46,20.39-5.91,30.75c-12.66,38.14-41,63.23-63.17,55.88c-14.33-4.75-23.27-22.55-23.32-46.46
		C733.83,169.9,734.42,163.55,735.6,157.14 M816.62,132.45c-5.51,0-10.85,0.21-16,0.64c-26.22,2.1-48.9,9.41-67.38,21.74l-0.57,0.38
		l-0.12,0.67c-1.3,6.83-1.93,13.62-1.89,20.18c0.05,25.35,9.85,44.32,25.52,49.52c23.84,7.9,54.04-18.09,67.25-57.95
		c3.7-11.19,5.76-22.37,6.14-33.22l0.05-1.59l-1.58-0.07C824.18,132.55,820.35,132.45,816.62,132.45"/>
</g>
<g transform="matrix(.35278 0 0 -.35278 100.86 139.16)">
	<path fill="#410608" d="M795.39,136.4c-21.84,1.75-45.75,7.54-66.65,21.48c-1.18,0.78-2.35,1.61-3.52,2.47
		c-0.23,6.3,0.34,12.2,1.66,17.4c2.64,10.41,8.23,18.07,16.26,20.76c12.7,4.22,27.95-5.26,38.82-22.37
		c-2.07-0.26-4.24-0.86-6.39-1.84c-7.26-3.24-11.52-9.37-9.58-13.71c1.92-4.32,9.35-5.26,16.57-2.02c2.53,1.13,4.68,2.61,6.32,4.24
		c0.8-2.02,1.58-4.12,2.28-6.26C793.43,149.7,794.85,142.87,795.39,136.4"/>
</g>
<g transform="matrix(.35278 0 0 -.35278 107.66 143.49)">
	<path fill="none" stroke="#410608" stroke-width="3.5049" stroke-miterlimit="10" d="M1015.79-3.95
		c0-51.73-13.66-101.6-53.99-124.09c-2.03-1.14-3.93-2.45-5.61-4.08c-0.27-0.25-0.57-0.55-0.86-0.84
		c-9.13-9.07-30.51-35.63-19.07-76.77c5.73-20.65,15.62-53.26,18.94-89.75c1.38-15,1.68-30.65,0.06-46.39
		c-0.34-3.36-0.78-6.74-1.28-10.1c-0.19-1.35-0.43-2.72-0.66-4.09c-9.79-56.23-51.24-101.77-105.88-118.31
		c-36.89-11.17-96.18-23.39-172.74-19.95c-44.1,1.98-93.95,9.15-148.52,24.75c0,0-212.21,48.75-306.84,209.34
		c-18.43,31.29-26.64,64.98-27.87,99c-0.09,1.8-0.15,3.65-0.18,5.46c-2.1,138.6,108.35,279.8,108.35,279.8s11.46,134.8,114.7,117.58
		c0,0,88.9,134.79,249.49,60.23c0,0,66.17,60.33,135.95-48.28c14.05-21.84,28.27-50.55,42.12-87.94c0.84-2.36,1.73-4.77,2.6-7.16
		c0,0,94.63,17.21,126.16,0c8.38-4.56,18.59-23.16,27.2-48.9C1007.94,75.32,1015.77,35.16,1015.79-3.95z"/>
</g>
<g transform="matrix(.35278 0 0 -.35278 101.82 139.07)">
	<path fill="#B7B6B6" d="M826.51,139.31c-0.13-2.5-0.39-4.94-0.78-7.29c-0.07-0.56-0.17-1.1-0.27-1.66l-1.23-0.04
		c-0.22,0-0.47-0.01-0.7-0.01c-0.56-0.02-1.12-0.04-1.69-0.02c-1.95-0.05-3.92-0.02-5.89,0.02c-7.65,0.15-15.25,0.78-22.8,1.85
		c-0.63,0.07-1.27,0.16-1.9,0.27c-0.65,0.1-1.29,0.19-1.93,0.3c-1.22,0.18-2.41,0.39-3.62,0.6c-3.13,0.63-6.26,1.36-9.38,2.04
		c-0.84,0.19-1.67,0.36-2.5,0.55c-0.73,0.16-1.46,0.32-2.17,0.54l-4.58,1.35c-3.05,0.94-6.12,1.71-9.13,2.75l-8.9,3.29l-4.44,1.67
		l-4.31,1.93l-1.56,0.7l-7.03,3.19c-0.07,0.04-0.12,0.05-0.19,0.09c-0.68,0.28-1.36,0.62-2.03,0.97c-0.66,0.35-1.3,0.7-1.98,1.05
		l-0.07,0.05l-1.32,0.73l-2.08,1.12l-0.63,0.34l-1.28,0.69c-0.03,0.12-0.06,0.25-0.09,0.39c-0.03,0.12-0.07,0.26-0.08,0.37
		c-0.23,0.9-0.43,1.81-0.62,2.7c-0.21,0.9-0.38,1.8-0.52,2.7c-0.15,0.67-0.25,1.35-0.37,2.03c-0.07,0.41-0.12,0.81-0.19,1.23
		c0,0.05-0.03,0.12-0.03,0.17c-0.08,0.55-0.16,1.08-0.22,1.63c-0.04,0.24-0.06,0.46-0.08,0.69c-0.08,0.73-0.16,1.43-0.25,2.16
		c-0.06,0.65-0.11,1.29-0.15,1.94c-0.03,0.63-0.07,1.25-0.11,1.87v0.1c-0.03,0.52-0.05,1.05-0.06,1.59
		c-0.23,7.89,0.71,15.3,2.7,21.94c0.45,1.52,0.96,2.99,1.51,4.4c0.28,0.73,0.58,1.43,0.89,2.1c0.6,1.38,1.25,2.73,1.95,4.01
		c0.73,1.3,1.47,2.52,2.29,3.7c1.2,1.78,2.54,3.42,3.96,4.96c0.49,0.5,0.99,0.99,1.48,1.48c6.53,6.21,15.02,9.84,25.18,9.81
		c3.01,0,6.05-0.33,9.02-0.94c0.37-0.09,0.72-0.17,1.05-0.24c0.27-0.05,0.5-0.1,0.74-0.18c0.45-0.11,0.9-0.2,1.31-0.35
		c0.4-0.1,0.78-0.19,1.16-0.32c0.49-0.15,0.97-0.29,1.46-0.46c26.5-8.91,49-40.42,52.18-74.66
		C826.63,147.06,826.72,143.09,826.51,139.31"/>
</g>
<g transform="matrix(.35278 0 0 -.35278 101.81 138.82)">
	<path fill="#FFFFFF" d="M826.19,147.41v-0.02c-0.17-2.62-0.72-5-1.58-7.2c-0.25-0.64-0.51-1.25-0.83-1.85
		c-0.33-0.61-0.64-1.19-1.03-1.78c-1.7-2.71-4.04-5.02-6.84-6.95c-7.65,0.14-15.27,0.79-22.8,1.85c-0.65,0.09-1.3,0.16-1.92,0.28
		c-0.65,0.09-1.29,0.17-1.94,0.3c-1.2,0.17-2.39,0.36-3.62,0.6c-3.13,0.62-6.25,1.35-9.37,2.04c-0.81,0.2-1.65,0.35-2.5,0.55
		c-0.71,0.16-1.45,0.32-2.16,0.55l-4.58,1.33c-3.05,0.93-6.11,1.74-9.11,2.77l-8.91,3.28l-4.43,1.66l-4.31,1.93l-1.56,0.69
		l-7.05,3.21c-0.05,0.04-0.1,0.05-0.17,0.08c-0.7,0.28-1.38,0.62-2.03,0.99c-0.67,0.34-1.32,0.7-1.98,1.05l-0.07,0.05l-1.35,0.7
		l-2.08,1.13l-0.63,0.35l-1.27,0.67c-0.03,0.15-0.07,0.28-0.11,0.4c-0.04,0.12-0.08,0.25-0.09,0.37c-0.2,0.89-0.44,1.8-0.62,2.69
		c-0.18,0.91-0.38,1.79-0.51,2.69c-0.13,0.69-0.25,1.37-0.38,2.04c-0.07,0.42-0.12,0.81-0.17,1.23c0,0.06-0.03,0.12-0.03,0.17
		c-0.08,0.55-0.16,1.09-0.24,1.64c-0.03,0.22-0.06,0.45-0.08,0.68c-0.07,0.73-0.14,1.43-0.22,2.16c-0.06,0.66-0.11,1.3-0.15,1.94
		c-0.06,0.62-0.09,1.26-0.13,1.87v0.1c-0.02,0.53-0.05,1.06-0.06,1.59c-0.2,7.88,0.74,15.31,2.71,21.94
		c0.45,1.52,0.95,2.99,1.49,4.41c0.3,0.7,0.59,1.43,0.89,2.1c0.61,1.39,1.26,2.7,1.98,4c0.7,1.29,1.47,2.54,2.27,3.71
		c1.23,1.76,2.55,3.41,3.98,4.94c0.49,0.5,0.99,1,1.48,1.47c6.51,6.22,15.02,9.84,25.16,9.82c3.01,0,6.05-0.33,9.05-0.95
		c0.35-0.09,0.69-0.15,1.05-0.23c0.24-0.04,0.5-0.1,0.71-0.17c0.45-0.12,0.91-0.23,1.34-0.35c0.39-0.1,0.75-0.2,1.15-0.34
		c0.49-0.13,0.99-0.27,1.47-0.46c0.9-0.29,1.79-0.63,2.69-0.98c1.65-0.65,3.29-1.34,4.93-2.16l0.94-0.5
		c21.23-11.06,38.91-35.95,42.88-63.57l0.11-0.75c0.32-2.22,0.52-4.43,0.64-6.69C826.25,149.41,826.25,148.39,826.19,147.41"/>
</g>
<g transform="matrix(.35278 0 0 -.35278 101.87 138.74)">
	<path fill="#1E276A" d="M828.13,150.01c-3.73,41.37-35.62,79.06-69.17,79.06c-31.69,0-47.97-34.11-38.9-72.2
		c0.04-0.17,0.07-0.37,0.12-0.55l1.9-1.02l1.28-0.67l0.63-0.37c-0.11,0.32-0.19,0.66-0.27,0.99c-0.03,0.11-0.04,0.22-0.08,0.34
		c-9.05,36.88,6.16,69.93,35.95,69.87c31.14-0.09,60.92-35.85,64.69-75.26c0.37-3.58,0.48-7.05,0.34-10.37c0-0.6-0.03-1.19-0.08-1.8
		c-0.14-3.03-0.51-5.98-1.05-8.78c0.23,0,0.49,0.02,0.72,0.02l1.21,0.02l1.92,0.06c0.52,2.89,0.87,5.93,1.04,9.08
		C828.57,142.16,828.49,146.02,828.13,150.01"/>
</g>
<g transform="matrix(.35278 0 0 -.35278 101.81 139.28)">
	<path fill="#1E276A" d="M826.19,132.5l-0.25-0.01h-0.22c0.35,2.32,0.61,4.65,0.72,6.96c0,0.1,0.01,0.19,0.01,0.29
		c0.05,0.55,0.07,1.06,0.07,1.56c0.1,2.33,0.06,4.75-0.08,7.26v0.02c-0.06,1.07-0.15,2.21-0.24,3.33
		c-3.93,40.79-34.94,76.67-66.35,76.74h-0.1c-11.69,0-21.72-4.87-28.98-14.1c-9.23-11.76-12.89-29.24-10.32-48.15
		c-0.11,0.55-0.17,1.09-0.23,1.64c-0.04,0.22-0.06,0.45-0.09,0.68c-0.09,0.73-0.19,1.46-0.24,2.16
		c-1.72,17.35,1.99,33.35,10.61,44.22c7.15,9.05,17.07,13.83,28.7,13.83c7.71,0,15.42-2.09,22.69-5.8l0.96-0.5
		c7.55-4.04,14.63-9.87,20.82-16.98c10.84-12.46,18.96-28.85,22.05-46.6l0.11-0.74c0.39-2.29,0.67-4.6,0.9-6.93
		c0.34-3.8,0.43-7.59,0.23-11.32c0-0.07-0.01-0.18-0.01-0.27C826.83,137.3,826.55,134.86,826.19,132.5 M830.05,151.68
		c-3.88,42.92-36.96,80.58-70.84,80.58c-12.68,0-23.51-5.21-31.31-15.09c-11.01-13.94-14.52-35.55-9.46-57.93
		c0.02-0.11,0.03-0.22,0.07-0.33l1.93-1.04l1.88-1.03l1.29-0.67l0.63-0.35l2.08-1.13l-0.4,1.24l-0.11,0.39
		c-0.06,0.27-0.14,0.52-0.23,0.81l-0.69-0.16l0.05,0.14l0.59,0.19c-0.01,0.09-0.02,0.18-0.04,0.23c-5.26,21.45-2.31,42,7.88,54.98
		c6.62,8.39,15.75,12.83,26.39,12.83h0.1c29.81-0.09,59.29-34.54,63.03-73.77c0.35-3.53,0.46-6.93,0.34-10.21
		c0-0.55-0.04-1.1-0.09-1.7c0-0.09,0-0.16-0.01-0.25c-0.02-0.57-0.07-1.12-0.12-1.69c-0.18-2.21-0.46-4.44-0.87-6.62l-0.07-0.34
		c0.57-0.02,1.13,0,1.69,0.01c0.23,0,0.49,0.02,0.7,0.02l1.23,0.02l1.9,0.07l1.7,0.05c0.51,2.85,0.84,5.86,1.01,8.96
		c0,0.11,0.02,0.23,0.02,0.34C830.48,144,830.38,147.85,830.05,151.68"/>
</g>
<g transform="matrix(.35278 0 0 -.35278 100.86 139.09)">
	<path fill="#0083FF" d="M795.39,138.67c-0.32-2.16-0.77-4.2-1.41-6.13c-0.64,0.08-1.28,0.18-1.93,0.29
		c-1.21,0.19-2.4,0.38-3.62,0.6c-3.13,0.63-6.24,1.35-9.36,2.04c-0.84,0.19-1.68,0.35-2.51,0.55c-0.73,0.16-1.46,0.32-2.15,0.55
		l-4.59,1.33c-3.05,0.94-6.12,1.72-9.12,2.76l-8.91,3.29l-4.43,1.65l-4.31,1.94l-1.55,0.69l-7.03,3.19
		c-0.08,0.04-0.12,0.05-0.19,0.1c-0.69,0.27-1.37,0.62-2.03,0.96c-0.16,0.51-0.29,1.03-0.41,1.55c-0.13,0.52-0.27,1.04-0.39,1.58
		c-5.14,22.92,5.04,42.14,23.45,41.57c18.88-0.63,37.29-21.64,40.49-45.44C796,147.08,795.97,142.66,795.39,138.67"/>
</g>
<g transform="matrix(.35278 0 0 -.35278 100.92 138.72)">
	<path fill="#102770" d="M797.33,150.66c-3.26,24.69-22.74,46.61-42.74,47.22c-19.49,0.62-30.32-19.43-24.93-43.13
		c0.06-0.27,0.1-0.53,0.18-0.79c0.09-0.45,0.2-0.9,0.35-1.34l0.06-0.06c0.67-0.34,1.31-0.71,1.99-1.05
		c0.64-0.34,1.32-0.69,2.02-0.96c-0.19,0.56-0.33,1.14-0.46,1.7c-0.23,0.75-0.42,1.52-0.58,2.28c-4.88,22.03,4.68,40.51,21.97,39.95
		c17.69-0.6,35.11-20.78,38.24-43.59c0.63-4.68,0.6-9.06,0.01-13.05c-0.3-2.1-0.78-4.11-1.4-5.99c0.64-0.11,1.3-0.2,1.93-0.29
		c0.63-0.11,1.27-0.21,1.92-0.28c0.65,1.97,1.13,4.08,1.43,6.29C797.9,141.59,797.94,146,797.33,150.66"/>
</g>
<g transform="matrix(.35278 0 0 -.35278 100.38 139.03)">
	<path fill="#102770" d="M779.83,140.61c-0.44-1.7-1.05-3.28-1.89-4.66c-0.73,0.16-1.47,0.32-2.16,0.53l-4.58,1.34
		c-3.05,0.94-6.13,1.74-9.13,2.77l-8.91,3.28l-4.42,1.66l-4.32,1.93l-1.55,0.69c-0.32,0.84-0.62,1.69-0.86,2.52
		c-0.32,1.01-0.59,2.02-0.81,3.06c-2.55,11.86,2.04,21.75,10.57,23.75c1.25,0.29,2.56,0.41,3.99,0.35
		c6.39-0.29,12.71-4.33,17.39-10.3c3.53-4.54,6.14-10.21,7.08-16.2C780.84,147.4,780.66,143.76,779.83,140.61"/>
</g>
<g transform="matrix(.35278 0 0 -.35278 99.586 138.1)">
	<path fill="#FFFFFF" d="M754.1,170.75c1.14-5.9,6.81-10.88,12.74-11.19c5.95-0.33,10.05,4.18,9.08,10.15
		c-0.99,6.08-6.81,11.29-12.93,11.55C756.89,181.49,752.94,176.75,754.1,170.75"/>
</g>
<g transform="matrix(.35278 0 0 -.35278 93.235 143.26)">
	<path fill="#B7B6B6" d="M548.24,3.51c-0.24-1.13-0.5-2.22-0.78-3.31c-0.99,0.25-2,0.51-3.09,0.78c-4.91,1.22-11.21,2.59-18.58,3.74
		c-4.26,0.65-8.9,1.26-13.82,1.7c-1.06,0.11-2.14,0.2-3.21,0.29c-1.08,0.09-2.18,0.15-3.27,0.21c-5.45,0.35-11.14,0.48-17.02,0.33
		c-9.71-0.25-19.91-1.29-30.18-3.5c-8.67-1.85-17.39-4.54-25.91-8.28c-0.15-0.06-0.32-0.13-0.45-0.22c-0.86-0.36-1.7-0.75-2.55-1.17
		c-0.81-0.36-1.6-0.76-2.43-1.16c-8.82-4.41-17.33-10.02-25.32-17.11c-0.68-0.61-1.33-1.2-2-1.85c-3.02,3.63-5.86,7.44-8.49,11.48
		c-11.34,17.33-18.8,38.08-20.53,60.11c-4.06,51.34,24.49,92.68,65.58,99.79c4.14,0.72,8.38,1.07,12.71,1.07
		c48.06-0.01,93.2-44.9,100.83-102.06C551.67,29.93,551.05,16.13,548.24,3.51"/>
</g>
<g transform="matrix(.35278 0 0 -.35278 93.22 142.6)">
	<path fill="#FFFFFF" d="M547.77,24.89c-2.46-6.08-6.75-11.4-12.42-15.92c-2.84-2.27-6.02-4.35-9.49-6.19
		c-4.26,0.66-8.91,1.25-13.8,1.7c-1.05,0.1-2.14,0.19-3.22,0.28s-2.17,0.16-3.28,0.22c-5.43,0.35-11.12,0.48-17.01,0.3
		c-9.7-0.24-19.9-1.27-30.18-3.49c-8.67-1.84-17.39-4.54-25.9-8.27c-0.3,0.04-0.58,0.11-0.87,0.17c-1.57,0.34-3.11,0.69-4.65,1.09
		c-1.53,0.38-3.02,0.79-4.5,1.23c-4.12,1.18-8.08,2.56-11.88,4.08c-15.2,6.18-27.63,15.23-34.46,27.2
		c-2.82,4.94-4.69,10.37-5.4,16.3c-6.25,51.36,24.09,92.71,65.57,99.79c4.14,0.71,8.39,1.08,12.73,1.08
		c48.06-0.02,93.19-44.92,100.83-102.06C550.67,36,549.9,30.14,547.77,24.89"/>
</g>
<g transform="matrix(.35278 0 0 -.35278 93.366 142.1)">
	<path fill="#1E276A" d="M552.49,41.11c-7.85,58.27-54.6,104.22-104.18,104.22c-49.29,0-85.59-45.41-81.08-103.01
		c1.77-22.82,9.66-44.35,21.71-62.25c2.6-3.91,5.41-7.64,8.39-11.17c0.63,0.63,1.28,1.24,1.94,1.82c0.64,0.64,1.31,1.23,1.99,1.85
		c-3.03,3.69-5.9,7.63-8.51,11.74c-7.93,12.42-13.87,26.59-17.1,41.7c-1.14,5.32-1.93,10.75-2.38,16.26
		c-4.41,55.21,29.41,98.77,75.48,98.76c46.37-0.02,90.11-44.08,97.51-99.88c0.79-5.97,1.15-11.83,1.06-17.54
		c-0.09-7.43-0.86-14.62-2.31-21.47c-0.3-1.47-0.63-2.94-1.02-4.4c1.09-0.27,2.11-0.52,3.08-0.78c1.1-0.29,2.13-0.58,3.03-0.82
		c0.17,0.7,0.37,1.45,0.51,2.17C553.76,11.5,554.53,25.98,552.49,41.11"/>
	<path fill="none" stroke="#1E276A" stroke-width="1.1668" stroke-miterlimit="10" d="M552.49,41.11
		c-7.85,58.27-54.6,104.22-104.18,104.22c-49.29,0-85.59-45.41-81.08-103.01c1.77-22.82,9.66-44.35,21.71-62.25
		c2.6-3.91,5.41-7.64,8.39-11.17c0.63,0.63,1.28,1.24,1.94,1.82c0.64,0.64,1.31,1.23,1.99,1.85c-3.03,3.69-5.9,7.63-8.51,11.74
		c-7.93,12.42-13.87,26.59-17.1,41.7c-1.14,5.32-1.93,10.75-2.38,16.26c-4.41,55.21,29.41,98.77,75.48,98.76
		c46.37-0.02,90.11-44.08,97.51-99.88c0.79-5.97,1.15-11.83,1.06-17.54c-0.09-7.43-0.86-14.62-2.31-21.47
		c-0.3-1.47-0.63-2.94-1.02-4.4c1.09-0.27,2.11-0.52,3.08-0.78c1.1-0.29,2.13-0.58,3.03-0.82c0.17,0.7,0.37,1.45,0.51,2.17
		C553.76,11.5,554.53,25.98,552.49,41.11z"/>
</g>
<g transform="matrix(.35278 0 0 -.35278 92.215 142.83)">
	<path fill="#0083FF" d="M515.18,17.45c-0.78-4.27-1.95-8.31-3.51-12.11c-1.08,0.08-2.19,0.16-3.29,0.22
		c-5.43,0.34-11.12,0.49-17.01,0.3c-9.7-0.24-19.91-1.26-30.19-3.49c-8.66-1.83-17.36-4.54-25.9-8.27c-0.13-0.07-0.3-0.15-0.46-0.23
		c-0.84-0.35-1.69-0.74-2.54-1.15c-0.85,0.86-1.7,1.74-2.5,2.64c-2.89,3.16-5.51,6.64-7.85,10.37
		c-6.28,9.99-10.47,21.83-11.65,34.41c-3.16,34.22,17.37,61.33,45.89,61.22c28.62-0.1,55.29-27.6,59.57-62.03
		C516.69,31.66,516.46,24.28,515.18,17.45"/>
</g>
<g transform="matrix(.35278 0 0 -.35278 92.319 142.21)">
	<path fill="#102770" d="M518.56,37.53c-4.44,35.65-32.69,64.19-62.93,64.29c-30.09,0.12-51.91-28.05-48.7-63.42
		c1.19-13.07,5.64-25.37,12.31-35.77c1.74-2.75,3.65-5.36,5.73-7.82c1.45-1.77,2.98-3.46,4.6-5.04c0.8,0.39,1.62,0.8,2.42,1.17
		c0.85,0.41,1.69,0.8,2.54,1.17c-0.13,0.11-0.25,0.24-0.4,0.39c-3.73,3.75-7.09,8.03-9.98,12.74c-5.96,9.63-9.97,21.02-11.09,33.12
		c-3.06,32.89,16.24,59.11,43.07,59.03c26.9-0.12,52.12-26.68,56.21-59.79c0.91-7.47,0.72-14.63-0.52-21.29
		c-0.8-4.42-2.08-8.63-3.73-12.53c1.1-0.06,2.2-0.13,3.28-0.2c1.07-0.09,2.16-0.19,3.22-0.29c1.44,3.67,2.59,7.58,3.35,11.66
		C519.29,21.98,519.54,29.6,518.56,37.53"/>
</g>
<g transform="matrix(.35278 0 0 -.35278 91.797 142.76)">
	<path fill="#102770" d="M501.64,19.71c-1.85-5.65-4.99-10.44-9.09-13.98c-9.72-0.25-19.93-1.29-30.2-3.5
		c-5.86,2.68-11.12,7.11-15.24,12.69c-4.75,6.4-7.98,14.32-8.83,22.85c-0.89,8.97,0.98,17.17,4.87,23.55
		c5.03,8.33,13.42,13.58,23.45,13.53c2.22-0.01,4.44-0.28,6.62-0.81c15.03-3.57,27.86-18.63,30.02-36.77
		C504.01,30.94,503.4,24.96,501.64,19.71"/>
</g>
<g transform="matrix(.35278 0 0 -.35278 91.04 141.37)">
	<path fill="#FFFFFF" d="M477.11,64.77c0.97-8.57-6.06-15.51-15.69-15.45c-9.62,0.07-18.12,7.08-18.99,15.64
		c-0.86,8.5,6.15,15.34,15.68,15.28C467.64,80.19,476.15,73.29,477.11,64.77"/>
</g>
<g transform="matrix(.35278 0 0 -.35278 -79.514 327.97)">
	<g>
		<g>
			<defs>
				<rect id="SVGID_13_" x="942.04" y="480.81" width="26.96" height="13.84"/>
			</defs>
			<clipPath id="SVGID_14_">
				<use xlink:href="#SVGID_13_"  overflow="visible"/>
			</clipPath>
			<g opacity="0.6" clip-path="url(#SVGID_14_)">
				<g transform="translate(474.34 515.94)">
					<path fill="#FFFFFF" d="M372.85-83.9c0,0,66.2,126.78,216.66,75.57C589.51-8.33,428.35,109.69,372.85-83.9"/>
				</g>
			</g>
		</g>
	</g>
</g>
<g transform="matrix(.35278 0 0 -.35278 93.439 143.42)">
	<path fill="#410608" d="M554.86-1.68c-0.19,0.06-1.93,0.64-4.94,1.5c-0.91,0.24-1.93,0.54-3.03,0.84
		c-0.97,0.24-1.99,0.51-3.08,0.77c-4.89,1.23-11.21,2.59-18.58,3.74c-4.27,0.67-8.91,1.27-13.82,1.71
		c-1.06,0.11-2.14,0.21-3.21,0.28c-1.08,0.09-2.18,0.15-3.28,0.23c-5.44,0.33-11.13,0.47-17.01,0.3c-9.72-0.24-19.9-1.28-30.18-3.5
		c-8.67-1.83-17.39-4.53-25.91-8.28c-0.13-0.06-0.32-0.13-0.46-0.2c-0.85-0.38-1.67-0.75-2.54-1.17c-0.81-0.38-1.62-0.78-2.43-1.17
		c-8.81-4.41-17.34-10.03-25.32-17.1c-0.68-0.62-1.35-1.22-1.99-1.86c-0.67-0.58-1.31-1.18-1.94-1.81
		c-14.61-14.23-27.18-33.85-35.78-60.59c0,0,0.41,40.01,27.39,71.77c0.58,0.7,1.19,1.42,1.83,2.11c0.63,0.7,1.29,1.42,1.98,2.11
		c4.94,5.2,10.69,10.13,17.36,14.51c1.95,1.3,3.99,2.55,6.13,3.73c0.79,0.46,1.59,0.89,2.41,1.32c0.84,0.44,1.66,0.86,2.51,1.27
		c6.44,3.21,13.59,5.94,21.51,8.05c1.18,0.34,2.36,0.62,3.55,0.91c19.61,4.69,36.61,5.38,50.99,3.87c4.09-0.41,7.97-1.01,11.63-1.75
		c1.05-0.2,2.07-0.43,3.07-0.64c1.05-0.25,2.05-0.49,3.05-0.75c7.77-1.99,14.42-4.54,19.94-7.16c3.95-1.86,7.34-3.76,10.11-5.53
		c1.03-0.65,1.99-1.26,2.87-1.87c1.02-0.69,1.94-1.36,2.74-1.97C553.2-0.08,554.67-1.52,554.86-1.68"/>
</g>
<g transform="matrix(.35278 0 0 -.35278 102.87 139.15)">
	<path fill="#410608" d="M860.53,136.72c-0.98-0.36-1.76-0.61-2.61-0.86c-0.81-0.27-1.62-0.46-2.42-0.69
		c-1.63-0.47-3.26-0.84-4.87-1.2c-1.62-0.39-3.23-0.7-4.84-0.99c-1.62-0.25-3.22-0.63-4.86-0.8c-3.26-0.44-6.48-0.94-9.74-1.13
		l-4.88-0.4h-0.05l-1.69-0.05l-1.92-0.06l-1.21-0.02c-0.22,0-0.48-0.02-0.7-0.02c-0.56-0.01-1.13-0.05-1.7-0.01
		c-1.94-0.06-3.91-0.05-5.88,0.01c-7.65,0.13-15.25,0.77-22.8,1.83c-0.63,0.07-1.27,0.16-1.92,0.28c-0.65,0.09-1.28,0.18-1.92,0.29
		c-1.22,0.2-2.4,0.39-3.61,0.6c-3.14,0.65-6.26,1.37-9.39,2.04c-0.81,0.21-1.66,0.38-2.49,0.55c-0.74,0.17-1.46,0.34-2.17,0.55
		l-4.57,1.35c-3.04,0.93-6.12,1.71-9.13,2.74l-8.9,3.3l-4.45,1.65l-4.31,1.94l-1.56,0.69l-7.04,3.19c-0.06,0.04-0.11,0.05-0.18,0.08
		c-0.68,0.28-1.37,0.62-2.03,0.97c-0.66,0.35-1.3,0.73-1.98,1.06l-0.07,0.05l-1.32,0.73l-2.08,1.12l-0.64,0.36l-1.26,0.67
		l-1.91,1.02l-1.93,1.05l-3.14,1.7l3.07-1.37l1.87-0.82l1.85-0.81l1.79-0.79l0.03-0.01l1.97-0.86l1.38-0.62l0.9-0.41
		c0.37-0.15,0.73-0.32,1.07-0.48c0.66-0.27,1.31-0.56,1.97-0.81c0.43-0.18,0.87-0.34,1.32-0.49l5.5-1.99l3.31-1.18l4.4-1.6l4.52-1.3
		l9-2.55c3.01-0.79,6.1-1.34,9.13-2.02l4.58-0.96c0.96-0.2,1.93-0.34,2.91-0.46c0.56-0.08,1.15-0.16,1.71-0.24
		c3.08-0.44,6.13-0.9,9.21-1.29c1.35-0.13,2.73-0.24,4.07-0.34c0.68-0.06,1.32-0.11,1.95-0.16c0.64-0.05,1.3-0.1,1.95-0.11
		c9.47-0.58,18.96-0.44,28.31,0.5c0.24,0.01,0.46,0.05,0.7,0.06l0.22,0.04l0.75,0.07l1.68,0.17l0.24,0.02l0.25,0.04l1.42,0.15
		l0.25,0.02l1.67,0.28l2.6,0.43c3.02,0.41,6,1.12,8.96,1.74c1.49,0.29,2.93,0.73,4.38,1.09c1.48,0.37,2.93,0.76,4.32,1.24
		c1.42,0.41,2.85,0.86,4.24,1.37c0.67,0.25,1.37,0.48,2.03,0.75c0.63,0.27,1.34,0.55,1.79,0.76L860.53,136.72z"/>
</g>
<g transform="matrix(.35278 0 0 -.35278 89.503 147.37)">
	<path fill="#410608" d="M427.28-129.71c0,0-3.46,99.95,90.31,96.43C517.59-33.28,448.58-51.91,427.28-129.71"/>
</g>
</svg>
