<?xml version="1.0" encoding="utf-8"?>
<!-- Generator: Adobe Illustrator 16.0.0, SVG Export Plug-In . SVG Version: 6.00 Build 0)  -->
<!DOCTYPE svg PUBLIC "-//W3C//DTD SVG 1.1//EN" "http://www.w3.org/Graphics/SVG/1.1/DTD/svg11.dtd">
<svg version="1.1" id="Layer_1" xmlns="http://www.w3.org/2000/svg" xmlns:xlink="http://www.w3.org/1999/xlink" x="0px" y="0px" width="676px" height="686px" viewBox="0 0 676 686" enable-background="new 0 0 676 686" xml:space="preserve">
<path fill="#eca734" d="M303.786,267.993c8.589-9.625,17.291-19.15,25.699-28.931c2.886-3.355,5.035-7.347,7.521-11.048&#xD;&#xA;&#x9;c1.908,1.005,3.878,1.912,5.72,3.03c30.841,18.724,64.014,31.068,99.796,35.97c11.846,1.622,23.823,2.284,35.74,3.386&#xD;&#xA;&#x9;c3.129,1.479,6.148,3.284,9.409,4.369c8.742,2.908,17.589,5.507,26.394,8.229c3.37,9.238,6.739,18.478,10.109,27.71&#xD;&#xA;&#x9;c-3.865,1.026-7.73,2.061-11.647,3.106c0.189,0.175,0.286,0.332,0.422,0.38c0.625,0.219,1.274,0.367,1.89,0.608&#xD;&#xA;&#x9;c8.443,3.315,15.68,7.683,17.763,17.614c0.84,4.007,2.809,7.776,4.265,11.653c2.742,9.663,5.484,19.326,8.228,28.988&#xD;&#xA;&#x9;c0.113,1.81,0.01,3.663,0.377,5.419c3.742,17.895,5.33,35.964,4.752,54.235c-0.062,1.934,0.357,3.883,0.555,5.823&#xD;&#xA;&#x9;c-1.14,8.018-2.277,16.033-3.419,24.051c-1.832,5.479-3.664,10.957-5.495,16.436c-1.11,0.646-2.355,1.137-3.313,1.962&#xD;&#xA;&#x9;c-10.457,9.021-22.161,15.828-35.62,19.084c-6.375,1.542-13.009,2.015-19.524,2.97c-0.424-1.079-0.874-2.15-1.269-3.242&#xD;&#xA;&#x9;c-5.969-16.52-24.733-20.493-37.211-7.877c-0.729,0.352-1.681,0.518-2.152,1.084c-3.182,3.809-5.843,2.92-8.854-0.399&#xD;&#xA;&#x9;c-2.485-2.741-5.507-4.997-8.82-7.938c-1.704,2.547-2.945,4.4-4.188,6.255c-0.97,1.361-1.939,2.724-2.909,4.085&#xD;&#xA;&#x9;c-0.379,0.627-0.758,1.254-1.137,1.881c-9.555,14.211-14.321,30.203-15.785,46.968c-1,11.475-0.062,23.118,0.012,34.687&#xD;&#xA;&#x9;c-10.376-0.91-20.752-1.82-31.128-2.731c-1.623-15.243-2.973-30.512,0.037-45.722c4.084-20.646,10.508-40.289,25.367-56.082&#xD;&#xA;&#x9;c4.979-5.293,4.863-5.806-2.12-8.342c-0.47-0.17-0.936-0.354-1.413-0.49c-25.957-7.406-52.367-3.064-71.419,20.954&#xD;&#xA;&#x9;c-1.065,1.343-3.686,2.521-5.282,2.217c-30.199-5.768-59.329-14.697-87.182-28.044c-9.264-4.438-14.533-9.375-14.59-20.162&#xD;&#xA;&#x9;c-0.075-14.469-1.453-28.933,2.136-43.199c0.775,0.12,1.553,0.239,2.329,0.359l-0.059-0.072c0.357,0.257,0.715,0.514,1.072,0.771&#xD;&#xA;&#x9;c0,0,0.226,0.149,0.224,0.147c9.492,5.097,18.702,10.834,28.528,15.185c48.6,21.512,99.825,32.345,152.6,36.591&#xD;&#xA;&#x9;c8.257,0.664,16.515,1.338,24.771,2.007c3.358,3.535,6.296,7.641,10.153,10.504c14.64,10.863,31.144,15.274,48.152,4.826&#xD;&#xA;&#x9;c1.914-1.177,3.109-3.521,4.639-5.321c0.718-0.672,1.355-1.465,2.165-1.996c8.146-5.347,12.99-12.779,11.755-22.581&#xD;&#xA;&#x9;c-0.9-7.146-2.219-14.802-5.648-20.945c-7.271-13.024-16.146-25.146-24.138-37.779c-2.329-3.68-4.771-3.572-8.352-2.159&#xD;&#xA;&#x9;c-18.74,7.398-34.125,19.139-46.368,35.09c-1.249,1.628-2.718,3.087-4.427,5.011c-1.675-2.117-2.98-3.604-4.104-5.218&#xD;&#xA;&#x9;c-2.934-4.214-5.785-8.482-8.671-12.729c0.113-2.563-3.657-4.91-0.43-7.648c10.835-14.581,24.625-25.62,40.858-33.58&#xD;&#xA;&#x9;c5.027-2.465,10.293-7.263,15.989,0.318c7.462-17.963,16.022-33.993,34.205-42.212c-5.158-0.653-10.069-1.118-14.986-1.196&#xD;&#xA;&#x9;c-40.584-0.645-80.228-7.045-118.159-21.537C339.193,285.737,321.696,276.327,303.786,267.993z"/>
<path fill="#13a098" d="M303.786,267.993c17.909,8.334,35.406,17.743,53.813,24.775c37.933,14.492,77.575,20.894,118.159,21.537&#xD;&#xA;&#x9;c4.917,0.078,9.828,0.543,14.986,1.196c-18.183,8.219-26.743,24.249-34.205,42.212c-5.696-7.581-10.962-2.783-15.989-0.318&#xD;&#xA;&#x9;c-16.233,7.96-30.023,18.999-40.854,33.573c-2.6-3.999-5.784-7.735-7.672-12.04c-2.938-6.705-4.997-13.797-7.428-20.724&#xD;&#xA;&#x9;c-0.259-1.438-0.518-2.873-0.774-4.31c-0.247-0.978-0.494-1.954-0.741-2.932c-1.188-0.684-2.301-1.665-3.582-2.003&#xD;&#xA;&#x9;c-12.027-3.17-24.186-5.894-36.114-9.391c-27.725-8.126-53.656-20.379-78.49-35.035c7.141-7.061,14.161-14.244,21.456-21.139&#xD;&#xA;&#x9;C291.984,278.075,297.962,273.115,303.786,267.993z"/>
<path fill="#13a098" d="M603.919,98.746c13.971,11.85,22.95,26.779,25.545,44.862c4.528,31.586-4.267,58.854-29.637,79.076&#xD;&#xA;&#x9;c-15.727,12.537-34.544,18.097-54.629,19.131c-0.321-1.631-0.594-3.271-0.97-4.889c-5.857-25.187-5.318-50.123,2.771-74.799&#xD;&#xA;&#x9;c6.692-20.416,17.308-38.288,34.878-51.098C588.625,106.113,596.537,102.794,603.919,98.746z M574.056,148.557&#xD;&#xA;&#x9;c0.86,6.231,3.841,11.483,8.332,13.665c3.959,1.924,7.583,0.427,7.392-3.852c-0.197-4.396-1.331-9.117-3.464-12.903&#xD;&#xA;&#x9;c-1.123-1.996-5.366-3.3-7.979-3C576.697,142.654,575.468,146.405,574.056,148.557z M623.903,144.588&#xD;&#xA;&#x9;c-0.288-0.134-0.577-0.27-0.865-0.402c-0.045-0.991,0.271-2.222-0.201-2.928c-1.407-2.105-3.122-4.004-4.718-5.983&#xD;&#xA;&#x9;c-1.72,1.763-4.62,3.352-4.907,5.321c-0.565,3.871-0.164,8.072,0.761,11.914c0.749,3.115,3.846,3.597,5.709,1.108&#xD;&#xA;&#x9;C621.631,151.015,622.538,147.631,623.903,144.588z"/>
<path fill="#177b75" d="M547.357,462.59c-1.832,5.479-3.664,10.957-5.495,16.436c-3.533,8.875-6.402,18.091-10.731,26.561&#xD;&#xA;&#x9;c-10.279,20.105-25.843,35.256-45.807,45.844c-1.466,0.776-2.983,1.466-4.514,2.111c-0.584,0.245-1.269,0.254-2.4,0.46&#xD;&#xA;&#x9;c0.166-1.335,0.244-2.389,0.434-3.422c1.96-10.749,4.35-21.441,5.727-32.266c0.631-4.962-0.718-10.176-1.167-15.272&#xD;&#xA;&#x9;c-0.422-1.079-0.872-2.15-1.267-3.242c-2.134-5.906-5.908-10.199-10.442-12.713c-0.896,0.138-1.774,0.388-2.606,0.738&#xD;&#xA;&#x9;c0.064,0.016,0.126,0.023,0.19,0.039c-0.468,0.165-0.901,0.354-1.351,0.532c-0.321,0.187-0.634,0.385-0.927,0.604&#xD;&#xA;&#x9;c0.293-0.221,0.604-0.418,0.927-0.604c-12.35,4.938-17.276,15.225-21.725,25.648c-5.741,13.459-8.482,27.716-6.96,42.271&#xD;&#xA;&#x9;c0.754,7.197,3.771,14.162,5.973,21.713c0.908,0.145,1.391,1.164,2.02,2.143c11.11-0.157,19.011-6.059,24.219-15.309&#xD;&#xA;&#x9;c3.377-5.998,7.117-6.199,12.771-5.357c5.212,0.774,10.429,1.481,15.648,2.129c1.375-0.717,2.75-0.944,4.124-1.631&#xD;&#xA;&#x9;c29.906-21.331,45.987-51.279,55.579-85.833c0.085,0.061,0.166,0.118,0.251,0.18c-0.095-0.502-0.22-1.005-0.352-1.507&#xD;&#xA;&#x9;C555.437,469.424,551.397,466.007,547.357,462.59z"/>
<path fill="#177b75" d="M613.914,486.65c-2.261-13.448-14.281-19.177-27.088-13.848c3.449-0.269,6.9-0.736,10.35-0.72&#xD;&#xA;&#x9;c1.833,0.01,3.662,0.861,6.354,1.556c-14.176,8.405-19.09,21.606-23.838,35.238c-3.715,10.662-5.351,21.517-5.609,32.619&#xD;&#xA;&#x9;c-0.182,7.821,1.185,15.471,6.284,22.419c0.636,0.495,1.295,1.048,2.004,1.487c6.876-1.258,12.369-4.854,16.368-10.879&#xD;&#xA;&#x9;C612.427,533.904,618.039,511.19,613.914,486.65z"/>
<path fill="#eca734" d="M603.919,98.746c-7.382,4.048-15.294,7.366-22.041,12.285c-17.57,12.81-28.186,30.682-34.878,51.098&#xD;&#xA;&#x9;c-8.09,24.676-8.629,49.613-2.771,74.799c0.376,1.617,0.646,3.258,0.97,4.889c-8.373,0.595-16.739,1.356-25.123,1.713&#xD;&#xA;&#x9;c-4.271,0.183-8.577-0.364-12.866-0.58c-0.772-1.988-1.729-3.929-2.287-5.976c-4.941-18.154-4.967-36.605-3.138-55.146&#xD;&#xA;&#x9;c0.582-5.9,1.386-11.78,2.087-17.669c0.069-0.418,0.141-0.835,0.208-1.25c3.638-10.286,7.273-20.573,10.911-30.86&#xD;&#xA;&#x9;c0,0,0.046-0.078,0.045-0.077c1.678-3.307,3.354-6.613,5.03-9.921c0,0-0.013,0.01-0.014,0.009c0.655-1.016,1.311-2.032,1.966-3.049&#xD;&#xA;&#x9;l-0.008,0.009c2.33-3.659,4.66-7.317,6.99-10.977l0.039-0.044c0.346-0.313,0.69-0.626,1.037-0.939&#xD;&#xA;&#x9;c0.313-0.388,0.623-0.775,0.936-1.163c0.412-0.593,0.825-1.187,1.237-1.779c0,0-0.061,0.128-0.062,0.126&#xD;&#xA;&#x9;c0.955-1.07,1.911-2.141,2.868-3.209l-0.034,0.025c0.317-0.354,0.635-0.706,0.953-1.059l0.018-0.023&#xD;&#xA;&#x9;c3.356-3.311,6.714-6.622,10.069-9.934c0,0-0.022,0.026-0.023,0.026c1.656-1.354,3.313-2.707,4.971-4.061&#xD;&#xA;&#x9;c0,0-0.001,0.002-0.002,0.002c2.95-2.022,5.898-4.046,8.849-6.068l0.102-0.067c1.667-0.938,3.334-1.877,5.001-2.816&#xD;&#xA;&#x9;c0,0,0.111-0.064,0.11-0.064c1.039-0.613,2.079-1.228,3.119-1.841c0,0-0.038,0.055-0.039,0.053c1.025-0.36,2.053-0.72,3.079-1.078&#xD;&#xA;&#x9;C583.205,80.897,594.611,88.43,603.919,98.746z"/>
<path fill="#177b75" d="M146,543c9.376,13.127,24.026,20.979,39.008,25.203c2.632-0.994,4.854-1.833,7.067-2.669&#xD;&#xA;&#x9;c-15.784-17.313-27.306-37.181-35.37-59.113c-0.014-0.04-0.026-0.079-0.04-0.119c-1.221,0.748-2.391,1.579-3.503,2.481&#xD;&#xA;&#x9;c-0.481,0.873-1.268,1.709-2.413,2.573c-0.751,0.566-1.45,1.201-2.124,1.877C141.427,521.798,138.833,533.683,146,543z"/>
<path fill="#eca734" d="M62.954,556.991c-2.738,4.032-5.476,8.065-8.211,12.098c-7.272-9.05-12.939-18.982-16.564-30.042&#xD;&#xA;&#x9;c-0.715-11.036,1.795-21.374,6.748-31.186c7.023-2.938,13.834-6.632,21.108-8.672c24.764-6.947,46.515,0.242,66.283,15.401&#xD;&#xA;&#x9;c0.133,0.101,0.237,0.238,0.376,0.327c7.632,4.776,10.662,11.374,7.558,20.679c-4.911-0.941-10.153-2.178-15.465-2.921&#xD;&#xA;&#x9;c-17.816-2.492-34.438,0.59-49.271,11.236c-1.42,1.021-2.497,2.52-3.732,3.795l0.104,0.087c-0.366,0.361-0.73,0.726-1.097,1.089&#xD;&#xA;&#x9;l0.089-0.098c-0.366,0.363-0.732,0.728-1.098,1.09l0.09-0.098c-0.365,0.365-0.729,0.729-1.095,1.094l0.092-0.097&#xD;&#xA;&#x9;c-0.364,0.366-0.729,0.731-1.094,1.097l0.093-0.097c-0.362,0.368-0.725,0.737-1.085,1.106l0.024-0.129&#xD;&#xA;&#x9;c-1.273,1.397-2.548,2.798-3.823,4.196L62.954,556.991z"/>
<g>
	<path fill="#13a098" d="M579.983,476.009l0.028-0.017c0-0.001,0.001-0.001,0.002-0.002&#xD;&#xA;&#x9;&#x9;C580.004,475.996,579.993,476.003,579.983,476.009z"/>
	<path fill="#13a098" d="M579.691,508.877c4.748-13.632,9.662-26.833,23.838-35.238c-2.69-0.693-4.521-1.546-6.354-1.557&#xD;&#xA;&#x9;&#x9;c-3.405-0.017-6.813,0.439-10.221,0.709c-1.021,0.386-2.042,0.771-3.063,1.155l0.1-0.069c-0.7,0.356-1.4,0.716-2.103,1.073&#xD;&#xA;&#x9;&#x9;l0.104-0.065c-0.66,0.369-1.319,0.738-1.979,1.105c0.001,0,0.001,0,0.001,0l-0.003,0.002c-0.398,0.314-0.798,0.629-1.196,0.943&#xD;&#xA;&#x9;&#x9;c-0.001,0.001,0.136-0.162,0.136-0.162c-0.678,0.399-1.354,0.798-2.032,1.196c-0.002,0.001,0.058-0.051,0.058-0.051&#xD;&#xA;&#x9;&#x9;c-1.188,1.006-2.377,2.012-3.566,3.018c-0.001,0-0.391,0.082-0.391,0.082l-0.075,0.39c-0.286,0.266-0.572,0.528-0.859,0.792&#xD;&#xA;&#x9;&#x9;c-0.695-0.072-1.393-0.146-2.089-0.222c-0.314-0.346-0.631-0.691-0.945-1.038c0.008,0.006,0.017,0.012,0.023,0.019&#xD;&#xA;&#x9;&#x9;c0.001,0.001-0.045-0.04-0.045-0.04c0.003,0.003,0.006,0.006,0.008,0.009c-3.187-2.695-6.374-5.393-9.56-8.087&#xD;&#xA;&#x9;&#x9;c0.132,0.502,0.257,1.005,0.352,1.507c-0.085-0.062-0.166-0.119-0.251-0.18c-9.592,34.554-25.674,64.502-55.579,85.833&#xD;&#xA;&#x9;&#x9;c-1.373,0.687-2.748,0.913-4.123,1.631c25.646,3.178,51.409,4.766,77.327,4.275c1.803-0.034,3.523-0.204,5.168-0.505&#xD;&#xA;&#x9;&#x9;c-0.709-0.439-1.366-0.991-2.003-1.486c-5.102-6.948-6.467-14.599-6.284-22.42C574.341,530.394,575.977,519.539,579.691,508.877z"/>
	<path fill="#13a098" d="M586.826,472.803c0.043-0.003,0.086-0.008,0.129-0.012c0.008-0.003,0.016-0.006,0.021-0.009&#xD;&#xA;&#x9;&#x9;L586.826,472.803z"/>
</g>
<path fill="#d68822" d="M156.705,506.421c12.262-7.96,25.64-13.374,39.637-17.376c0.408,0.703,0.937,1.365,1.211,2.119&#xD;&#xA;&#x9;c8.55,23.57,20.31,45.36,35.913,65.038c0.797,1.005,1.184,2.334,1.762,3.513c-4.721,0.536-9.455,0.977-14.16,1.627&#xD;&#xA;&#x9;c-9.672,1.338-19.328,2.788-28.991,4.192C176.291,548.221,164.771,528.354,156.705,506.421z"/>
<path fill="#177b75" d="M304.454,563.066c-18.718-5.236-34.968-14.805-48.993-28.141c-14.191-13.493-24.096-29.897-31.338-47.927&#xD;&#xA;&#x9;c-1.671-4.159-3.79-4.509-7.596-3.407c-5.843,1.689-11.837,2.854-17.935,4.282c-0.063-0.147-0.121-0.289-0.183-0.438&#xD;&#xA;&#x9;c-0.757,0.332-1.551,0.813-2.138,1.319c0.022,0.096,0.045,0.191,0.068,0.289c0.408,0.704,0.937,1.365,1.211,2.119&#xD;&#xA;&#x9;c8.55,23.57,20.31,45.36,35.913,65.038c0.797,1.006,1.184,2.334,1.762,3.513c7.117,0.234,14.253,0.218,21.349,0.758&#xD;&#xA;&#x9;c15.869,1.209,31.719,2.696,47.575,4.07C304.258,564.03,304.488,563.075,304.454,563.066z"/>
<path fill="#eca734" d="M352.283,135.865c1.087,1.224,2.374,2.32,3.229,3.688c10.851,17.353,25.669,30.35,43.514,40.139&#xD;&#xA;&#x9;c3.466,1.9,6.847,4.144,9.795,6.759c4.584,4.065,5.514,9.56,3.46,15.079c-2.117,5.696-7.057,7.645-12.869,7.475&#xD;&#xA;&#x9;c-15.934-0.468-29.336-7.729-42.399-15.88c-2.665-1.664-5.352-3.296-8.027-4.941c0.72-15.858,1.413-31.722,2.199-47.578&#xD;&#xA;&#x9;C351.264,139.01,351.904,137.444,352.283,135.865z"/>
<path fill="#177b75" d="M507.218,243.024c-1.122-0.389-2.189-0.709-3.356-0.882c0.02,0.113-0.691-0.021-0.673,0.091&#xD;&#xA;&#x9;c-28.529-0.789-54.24-6.941-79.774-17.89c13.054,17.822,29.696,31.317,47.836,43.402c-0.291-0.011-0.577-0.029-0.867-0.042&#xD;&#xA;&#x9;c2.53,0.988,5.486,0.793,7.931,2.694c10.594-0.434,21.188-0.867,31.781-1.3C509.136,260.407,508.177,251.716,507.218,243.024z"/>
<path fill="#eca734" d="M203.146,626.1c-1.443-13.648,2.011-26.148,8.867-37.854c1.413-2.41,2.827-4.82,4.243-7.23&#xD;&#xA;&#x9;c13.563,3.49,27.124,6.979,40.688,10.471c-6.769,11.979-10.629,24.672-9.463,38.597c-5.734-0.61-11.464-1.313-17.208-1.814&#xD;&#xA;&#x9;C221.237,627.476,212.189,626.815,203.146,626.1z"/>
<path fill="#eca734" d="M529.613,55.065c-8.319,4.786-16.909,9.17-24.866,14.498c-5.479,3.669-10.026,8.71-15.086,13.026&#xD;&#xA;&#x9;c-8.791,7.503-20.946,4.028-22.938-6.749c-0.501-2.715-0.046-6.286,1.399-8.548c3.728-5.824,8.146-11.226,12.51-16.616&#xD;&#xA;&#x9;c2.18-2.693,4.843-4.997,7.286-7.478c12.308,3.145,24.625,6.244,36.906,9.481C526.515,53.127,528.022,54.254,529.613,55.065z"/>
<path fill="#eca734" d="M303.206,600.179c12.568,1.65,25.14,3.284,37.701,4.979c1.445,0.195,2.846,0.734,4.267,1.113&#xD;&#xA;&#x9;c-3.096,10.078-4.834,20.291-3.09,30.853c-1.3-1.035-2.565-2.926-3.897-2.974c-13.696-0.488-27.403-0.679-41.105-0.952&#xD;&#xA;&#x9;c-0.31-2.123-0.87-4.244-0.884-6.368C296.142,617.336,298.911,608.549,303.206,600.179z"/>
<g>
	<path fill="#177b75" d="M103.093,602.01c-0.038,0.149-0.074,0.296-0.115,0.457c-4.536-2.266-8.688-4.147-12.66-6.357&#xD;&#xA;&#x9;&#x9;c-10.291-5.727-20.656-11.263-28.943-20.034c-3.604-3.813-4.255-7.088-1.743-11.491c1.361-2.387,2.231-5.053,3.323-7.592&#xD;&#xA;&#x9;&#x9;c-2.738,4.032-5.477,8.065-8.213,12.099c-1.607,4.652-3.215,9.307-4.821,13.96c1.188,1.979,2.205,4.092,3.594,5.92&#xD;&#xA;&#x9;&#x9;c13.4,17.63,32.028,27.398,52.324,34.634c-0.034-6.575-0.067-13.15-0.102-19.726C104.819,603.273,104.031,602.604,103.093,602.01z"/>
	<path fill="#177b75" d="M203.113,625.712c-1.69-0.229-3.382-0.573-5.072-0.97c-0.633,0.036-1.394-0.026-2.329-0.202&#xD;&#xA;&#x9;&#x9;c-11.53-2.15-23.152-3.841-34.773-5.456c-1.428-0.198-2.499-0.582-3.285-1.186c-1.408-0.098-2.767-0.3-4.029-0.689&#xD;&#xA;&#x9;&#x9;c0.837,6.19,1.674,12.382,2.512,18.572c1.769,0.435,3.515,1.029,5.309,1.275c14.467,1.979,28.939,3.895,43.411,5.829&#xD;&#xA;&#x9;&#x9;c-0.568-5.598-1.14-11.192-1.709-16.788C203.132,625.969,203.126,625.841,203.113,625.712z"/>
	<path fill="#177b75" d="M442.155,620.767c-1.049,1.577-1.845,4.234-3.186,4.546c-6.742,1.568-13.594,2.816-20.472,3.621&#xD;&#xA;&#x9;&#x9;c-8.71,1.021-17.477,1.599-26.229,2.201c-14.87,1.022-29.75,1.894-44.623,2.883c-0.622,0.041-1.156-0.009-1.646-0.102&#xD;&#xA;&#x9;&#x9;c-1.41,0.232-2.841,0.442-4.266,0.615c0.097,0.862,0.209,1.727,0.352,2.594l0.147,0.231l-0.188,0.201&#xD;&#xA;&#x9;&#x9;c0.429,1.473,0.856,2.944,1.285,4.417c0.301,0.979,0.602,1.962,0.902,2.942c1.139,0.131,2.282,0.415,3.413,0.372&#xD;&#xA;&#x9;&#x9;c24.152-0.913,48.083-3.776,71.645-9.137c7.052-1.604,13.9-4.385,20.564-7.268C443.024,627.516,445.92,624.741,442.155,620.767z"/>
	<path fill="#177b75" d="M297.074,633.168c-1.479-0.188-2.964-0.362-4.451-0.521c-1.017,0.725-2.849,0.604-6.316,0.34&#xD;&#xA;&#x9;&#x9;c-9.895-0.754-19.799-1.409-29.707-1.969c-2.31-0.131-3.819-0.261-4.804-0.699c-1.44-0.062-2.875-0.127-4.308-0.195&#xD;&#xA;&#x9;&#x9;c0.913,4.931,1.826,9.861,2.741,14.792c16.263,0.548,32.521,1.096,48.782,1.644c-0.646-4.455-1.289-8.91-1.933-13.362&#xD;&#xA;&#x9;&#x9;C297.078,633.187,297.076,633.178,297.074,633.168z"/>
</g>
<g>
	<path fill="#d68822" d="M120.25,607.978c-4.913-1.404-9.682-3.317-14.517-4.999c0.034,6.876,0.069,13.75,0.104,20.625&#xD;&#xA;&#x9;&#x9;c16.766,4.06,33.531,8.119,50.296,12.179c-0.844-6.234-1.688-12.471-2.53-18.705C142.481,614.06,131.33,611.145,120.25,607.978z"/>
	<path fill="#d68822" d="M245.596,645.152c-0.029-0.002-0.058-0.003-0.086-0.005c-0.026,0.001-0.052,0.003-0.078,0.004&#xD;&#xA;&#x9;&#x9;C245.433,645.151,245.596,645.152,245.596,645.152z"/>
	<path fill="#d68822" d="M247.481,630.082c-5.734-0.61-11.464-1.313-17.208-1.814c-9.036-0.792-18.084-1.452-27.128-2.169&#xD;&#xA;&#x9;&#x9;c0.569,5.596,1.141,11.19,1.71,16.788c13.553,0.753,27.104,1.507,40.654,2.261c1.574-0.078,3.147-0.155,4.72-0.231&#xD;&#xA;&#x9;&#x9;C249.313,639.972,248.396,635.027,247.481,630.082z"/>
	<path fill="#d68822" d="M343.33,641.976c-0.429-1.47-0.855-2.94-1.284-4.413c-0.001-0.004,0.187-0.205,0.187-0.205&#xD;&#xA;&#x9;&#x9;s-0.146-0.232-0.147-0.232c-1.3-1.036-2.565-2.927-3.897-2.975c-13.696-0.488-27.403-0.679-41.106-0.954&#xD;&#xA;&#x9;&#x9;c0.644,4.452,1.287,8.907,1.933,13.362c8.979-0.131,17.964-0.143,26.938-0.436c6.102-0.198,12.189-0.79,18.282-1.205&#xD;&#xA;&#x9;&#x9;C343.932,643.938,343.631,642.955,343.33,641.976z"/>
	<path fill="#d68822" d="M49.92,583.05c1.606-4.653,3.214-9.308,4.822-13.961c-7.272-9.05-12.939-18.982-16.564-30.042&#xD;&#xA;&#x9;&#x9;C37.44,554.955,40.558,569.836,49.92,583.05z"/>
</g>
<path fill="#eca734" d="M384.598,358.205c-0.26-1.437-0.519-2.872-0.775-4.309c-0.248-0.981-0.496-1.965-0.742-2.938&#xD;&#xA;&#x9;c-1.188-0.676-2.3-1.657-3.58-1.995c-12.028-3.17-24.187-5.894-36.115-9.391c-27.725-8.126-53.656-20.379-78.49-35.035&#xD;&#xA;&#x9;c-3.807,3.867-8.193,7.321-11.302,11.688c-7.339,10.306-14.067,21.046-21.043,31.61c-0.636,1.029-1.272,2.061-1.908,3.09&#xD;&#xA;&#x9;c8.652,4.051,17.23,8.271,25.979,12.099c7.353,3.218,14.904,5.979,22.368,8.942l0.049,0.029c3.308,1.333,6.614,2.664,9.922,3.997&#xD;&#xA;&#x9;c-0.001,0,0.059,0.038,0.059,0.038c8.887,2.67,17.759,5.391,26.662,7.999c23.678,6.94,47.85,11.344,72.364,13.938&#xD;&#xA;&#x9;c1.297,0.138,2.632-0.085,3.948-0.141C387.32,385.032,382.865,372.196,384.598,358.205z"/>
<path fill="#eca734" d="M192.815,474.041c-0.001-0.002,0.065,0.099,0.065,0.099c-1.779-10.351-3.813-20.664-5.268-31.06&#xD;&#xA;&#x9;c-1.453-10.4-2.329-20.883-3.461-31.327c-0.55,0.153-1.099,0.308-1.645,0.46c-4.687,2.092-9.379,4.159-14.049,6.278&#xD;&#xA;&#x9;c-10.248,4.651-20.484,9.329-30.726,13.996c2.048,11.597,3.367,23.383,6.332,34.74c3.463,13.26,8.361,26.146,12.639,39.192&#xD;&#xA;&#x9;c12.262-7.961,25.64-13.374,39.638-17.375C195.168,484.045,193.992,479.043,192.815,474.041z"/>
<g>
	<path fill="#13a098" d="M440.021,618.873c0.016,0.015,0.032,0.027,0.048,0.041c0.02,0.01,0.036,0.02,0.054,0.028&#xD;&#xA;&#x9;&#x9;C440.121,618.943,440.021,618.872,440.021,618.873z"/>
	<path fill="#13a098" d="M442.155,620.767c-0.009,0.013-0.016,0.027-0.023,0.04c0.037,0.038,0.074,0.076,0.111,0.114&#xD;&#xA;&#x9;&#x9;C442.242,620.921,442.155,620.766,442.155,620.767z"/>
	<path fill="#13a098" d="M441.09,619.748c0.03,0.032,0.063,0.063,0.094,0.096C441.141,619.8,441.09,619.747,441.09,619.748z"/>
	<path fill="#13a098" d="M441.241,619.904c-0.392-0.33-0.782-0.659-1.174-0.989c-0.679-0.364-1.356-0.729-2.037-1.096&#xD;&#xA;&#x9;&#x9;c0-0.001,0.122,0.096,0.122,0.096c-0.727-0.334-1.452-0.669-2.179-1.003l-0.368,0.015c-10.687-5.067-22.256-4.154-33.572-4.959&#xD;&#xA;&#x9;&#x9;c-1.715-0.212-3.431-0.424-5.146-0.637c-6.263-0.532-12.524-1.066-18.785-1.601c-1.404-0.155-2.809-0.311-4.213-0.466&#xD;&#xA;&#x9;&#x9;c-9.571-0.997-19.145-1.995-28.716-2.993c-2.842,9.251-4.531,18.616-3.441,28.261c1.425-0.173,2.855-0.383,4.266-0.616&#xD;&#xA;&#x9;&#x9;c0.49,0.094,1.024,0.144,1.646,0.103c14.873-0.989,29.753-1.859,44.623-2.883c8.754-0.604,17.521-1.182,26.23-2.201&#xD;&#xA;&#x9;&#x9;c6.877-0.805,13.729-2.053,20.471-3.621c1.33-0.309,2.125-2.924,3.161-4.506c-0.315-0.32-0.632-0.641-0.947-0.963&#xD;&#xA;&#x9;&#x9;C441.215,619.875,441.241,619.904,441.241,619.904z"/>
</g>
<path fill="#177b75" d="M206.149,577.906c-4.692-1.729-9.388-3.462-14.082-5.194C196.762,574.442,201.455,576.175,206.149,577.906z"/>
<path fill="#177b75" d="M76.944,466.889c-2.449,2.247-4.899,4.493-7.353,6.738C72.041,471.379,74.492,469.134,76.944,466.889z"/>
<path fill="#177b75" d="M96.953,452.936c-1.41,0.955-2.821,1.909-4.233,2.863C94.13,454.844,95.541,453.89,96.953,452.936z"/>
<path fill="#177b75" d="M57.977,485.977c-0.999,1.335-1.998,2.67-2.997,4.005C55.979,488.646,56.978,487.312,57.977,485.977z"/>
<path fill="#177b75" d="M576.976,477.92c-1.188,1.006-2.377,2.012-3.566,3.018C574.598,479.932,575.785,478.926,576.976,477.92z"/>
<path fill="#177b75" d="M192.228,572.818c-1.424-0.646-2.848-1.296-4.271-1.944C189.38,571.522,190.804,572.17,192.228,572.818z"/>
<path fill="#177b75" d="M92.879,455.689c-1.049,0.708-2.099,1.416-3.148,2.123C90.779,457.104,91.829,456.396,92.879,455.689z"/>
<path fill="#177b75" d="M81.98,462.949c-0.758,0.613-1.517,1.228-2.276,1.839C80.461,464.175,81.221,463.563,81.98,462.949z"/>
<path fill="#177b75" d="M65.98,476.949c-0.667,0.682-1.333,1.361-2,2.042C64.646,478.312,65.313,477.631,65.98,476.949z"/>
<path fill="#177b75" d="M586.978,472.782c-1.028,0.389-2.057,0.776-3.085,1.164C584.921,473.56,585.948,473.171,586.978,472.782z"/>
<path fill="#177b75" d="M69.774,473.574c-0.585,0.475-1.17,0.947-1.755,1.42C68.604,474.521,69.189,474.049,69.774,473.574z"/>
<path fill="#177b75" d="M583.991,473.877c-0.7,0.356-1.4,0.716-2.103,1.073C582.59,474.593,583.291,474.234,583.991,473.877z"/>
<path fill="#177b75" d="M581.993,474.885c-0.67,0.375-1.341,0.75-2.011,1.124C580.653,475.635,581.323,475.26,581.993,474.885z"/>
<path fill="#177b75" d="M578.95,476.774c-0.678,0.399-1.354,0.798-2.032,1.196C577.596,477.572,578.273,477.174,578.95,476.774z"/>
<path fill="#177b75" d="M569.994,481.979c-0.321-0.354-0.645-0.707-0.967-1.061C569.351,481.272,569.673,481.625,569.994,481.979z"/>
<path fill="#177b75" d="M86.908,459.7c-0.654,0.425-1.309,0.849-1.963,1.271C85.6,460.549,86.254,460.125,86.908,459.7z"/>
<path fill="#177b75" d="M89.919,457.707c-0.684,0.408-1.366,0.816-2.05,1.227C88.552,458.524,89.235,458.115,89.919,457.707z"/>
<path fill="#177b75" d="M54.981,489.98c-0.412,0.647-0.823,1.296-1.236,1.943C54.156,491.276,54.568,490.628,54.981,489.98z"/>
<path fill="#177b75" d="M438.153,617.914c-0.727-0.334-1.452-0.669-2.179-1.003C436.7,617.245,437.427,617.58,438.153,617.914z"/>
<path fill="#177b75" d="M440.121,618.943c-0.696-0.375-1.394-0.749-2.091-1.124C438.728,618.193,439.425,618.568,440.121,618.943z"/>
<path fill="#177b75" d="M63.992,478.979c-0.46,0.612-0.922,1.224-1.385,1.836C63.067,480.201,63.53,479.59,63.992,478.979z"/>
<path fill="#177b75" d="M79.891,464.688c-0.623,0.438-1.246,0.878-1.868,1.316C78.646,465.566,79.268,465.127,79.891,464.688z"/>
<path fill="#177b75" d="M83.945,461.786c-0.667,0.396-1.334,0.793-2.001,1.189C82.611,462.579,83.278,462.184,83.945,461.786z"/>
<path fill="#177b75" d="M580.015,475.99c-0.399,0.315-0.8,0.63-1.199,0.945C579.215,476.621,579.614,476.307,580.015,475.99z"/>
<path fill="#177b75" d="M66.993,475.998c-0.35,0.33-0.698,0.66-1.049,0.989C66.294,476.658,66.644,476.328,66.993,475.998z"/>
<path fill="#177b75" d="M60.877,482.72c-0.367,0.399-0.733,0.802-1.103,1.203C60.143,483.521,60.51,483.12,60.877,482.72z"/>
<path fill="#177b75" d="M572.943,481.409c-0.286,0.265-0.572,0.527-0.858,0.791C572.37,481.938,572.656,481.674,572.943,481.409z"/>
<path fill="#177b75" d="M58.961,484.858c-0.329,0.374-0.658,0.749-0.987,1.123C58.303,485.606,58.632,485.232,58.961,484.858z"/>
<path fill="#177b75" d="M84.983,460.944c-0.391,0.331-0.781,0.662-1.174,0.993C84.2,461.606,84.592,461.275,84.983,460.944z"/>
<path fill="#177b75" d="M78.001,466.021c-0.372,0.317-0.744,0.635-1.116,0.952C77.257,466.655,77.629,466.338,78.001,466.021z"/>
<path fill="#177b75" d="M59.92,483.782c-0.354,0.395-0.708,0.787-1.063,1.182C59.211,484.57,59.566,484.177,59.92,483.782z"/>
<path fill="#177b75" d="M442.242,620.921c-0.384-0.391-0.769-0.78-1.152-1.173C441.475,620.139,441.858,620.53,442.242,620.921z"/>
<path fill="#177b75" d="M61.843,481.682c-0.375,0.4-0.751,0.803-1.128,1.205C61.089,482.485,61.466,482.082,61.843,481.682z"/>
<polygon fill="#177B75" points="245.596,645.152 245.432,645.151 245.507,645.512 "/>
<path fill="#177b75" d="M87.969,458.861c-0.408,0.345-0.816,0.689-1.226,1.034C87.15,459.551,87.56,459.205,87.969,458.861z"/>
<path fill="#177b75" d="M62.803,480.653c-0.375,0.399-0.75,0.799-1.127,1.198C62.05,481.451,62.426,481.053,62.803,480.653z"/>
<path fill="#177b75" d="M441.241,619.904c-0.407-0.344-0.813-0.687-1.222-1.03C440.428,619.217,440.834,619.561,441.241,619.904z"/>
<g>
	<path fill="#177b75" d="M597.206,407.967c-6.792-19.034-17.987-35.437-31.482-50.341c-6.877,5.145-13.754,10.29-20.631,15.436&#xD;&#xA;&#x9;&#x9;c0.114,1.81,0.01,3.663,0.377,5.419c3.742,17.895,5.33,35.964,4.752,54.235c-0.062,1.934,0.357,3.883,0.555,5.823&#xD;&#xA;&#x9;&#x9;c6.068,2.618,11.924,6.061,18.246,7.698c17.647,4.574,30.628-5.918,30.225-24.05C599.141,417.42,598.786,412.396,597.206,407.967z"/>
	<path fill="#177b75" d="M524.176,310.709c-3.865,1.026-7.73,2.061-11.647,3.106c0.189,0.175,0.286,0.332,0.422,0.38&#xD;&#xA;&#x9;&#x9;c0.625,0.219,1.274,0.367,1.89,0.608c8.443,3.315,15.68,7.683,17.763,17.614c0.84,4.007,2.809,7.776,4.266,11.654&#xD;&#xA;&#x9;&#x9;c3.334-1.896,6.667-3.792,10-5.688C538.925,329.474,528.784,322.361,524.176,310.709z"/>
	<path fill="#177b75" d="M434.974,443.375c-0.051-1.15-0.252-2.398-0.645-3.617c-7.567-5.908-13.476-13.063-19.294-20.634&#xD;&#xA;&#x9;&#x9;c0.037-0.06,0.077-0.114,0.114-0.173c-0.647-0.911-1.296-1.99-1.944-2.723c-0.104,0.117-0.202,0.223-0.311,0.343&#xD;&#xA;&#x9;&#x9;c-1.675-2.116-2.98-3.604-4.104-5.217c-2.934-4.214-5.785-8.482-8.671-12.729c-2.707-0.266-5.413-0.528-8.118-0.793&#xD;&#xA;&#x9;&#x9;c0.012,1.784,0.107,3.214,0.783,4.526c0.295,0.334,0.554,0.682,0.75,1.025c0.047,0.082,0.094,0.165,0.141,0.247&#xD;&#xA;&#x9;&#x9;c6.693,11.724,13.125,23.599,19.763,35.354c1.771,3.134,3.954,6.044,6.644,10.063c0.982,0.529,1.97,1.753,3.077,2.729&#xD;&#xA;&#x9;&#x9;c0.602,0.049,1.202,0.098,1.804,0.146c4.774-0.678,10.726,0.313,9.953-8.585C434.937,443.354,434.953,443.364,434.974,443.375z"/>
</g>
<path fill="#13a098" d="M219.067,398.146c0.001,0.001,0.003,0.001,0.004,0.002c9.49,5.096,18.698,10.831,28.522,15.181&#xD;&#xA;&#x9;c48.6,21.512,99.825,32.345,152.6,36.591c7.656,0.615,15.313,1.239,22.967,1.859c-1.107-0.978-2.094-2.199-3.077-2.729&#xD;&#xA;&#x9;c-2.688-4.019-4.873-6.93-6.644-10.063c-6.685-11.839-13.157-23.799-19.902-35.603c-0.196-0.345-0.454-0.691-0.75-1.025&#xD;&#xA;&#x9;c-0.676-1.313-0.771-2.741-0.783-4.526c-0.003,0-0.008-0.001-0.011-0.001c-1.316,0.054-2.651,0.275-3.948,0.139&#xD;&#xA;&#x9;c-24.516-2.596-48.688-6.998-72.364-13.938c-8.903-2.608-17.775-5.328-26.662-7.998l-0.06-0.038&#xD;&#xA;&#x9;c-3.308-1.333-6.613-2.666-9.921-3.998l-0.049-0.029c-7.464-2.964-15.017-5.725-22.368-8.942&#xD;&#xA;&#x9;c-8.749-3.827-17.327-8.048-25.979-12.099c-4.262,10.938-8.836,21.77-12.649,32.861c-1.862,5.414-3.997,10.147-9.067,13.156&#xD;&#xA;&#x9;c-8.272,4.908-16.514,9.869-24.77,14.809c1.131,10.445,2.007,20.928,3.461,31.329c1.453,10.395,3.486,20.709,5.267,31.059&#xD;&#xA;&#x9;l-0.065-0.098v-0.001c0,0,0,0,0,0.001l-0.001-0.002c0,0.001,0.001,0.003,0.002,0.004c1.154,4.903,2.308,9.809,3.458,14.712&#xD;&#xA;&#x9;c0.586-0.507,1.38-0.987,2.138-1.319c0.062,0.147,0.121,0.29,0.183,0.438c6.098-1.429,12.092-2.594,17.935-4.283&#xD;&#xA;&#x9;c3.806-1.102,5.925-0.752,7.596,3.408c7.243,18.027,17.146,34.433,31.338,47.926c14.025,13.336,30.275,22.903,48.993,28.141&#xD;&#xA;&#x9;c0.033,0.01-0.196,0.964-0.304,1.478c2.27,0.487,4.521,1.068,6.809,1.451c19.665,3.293,39.336,6.549,59.005,9.814&#xD;&#xA;&#x9;c-1.623-15.243-2.973-30.512,0.037-45.722c4.084-20.646,10.508-40.289,25.367-56.082c4.979-5.293,4.863-5.806-2.119-8.341&#xD;&#xA;&#x9;c-0.471-0.17-0.937-0.354-1.414-0.491c-25.957-7.406-52.367-3.064-71.419,20.954c-1.065,1.343-3.686,2.521-5.282,2.217&#xD;&#xA;&#x9;c-30.199-5.768-59.329-14.697-87.182-28.044c-9.264-4.438-14.533-9.375-14.589-20.162c-0.076-14.469-1.454-28.933,2.135-43.199&#xD;&#xA;&#x9;c0.776,0.118,1.555,0.236,2.33,0.356c-0.001,0.003-0.06-0.069-0.06-0.069c0.358,0.257,0.718,0.515,1.074,0.771&#xD;&#xA;&#x9;C218.842,397.996,219.067,398.146,219.067,398.146z"/>
<g>
	<path fill="#d68822" d="M502.929,500.071c-6.375,1.542-13.009,2.015-19.526,2.969c0.449,5.099,1.798,10.313,1.167,15.273&#xD;&#xA;&#x9;&#x9;c-1.377,10.823-3.767,21.517-5.727,32.266c-0.188,1.033-0.268,2.086-0.434,3.422c1.134-0.206,1.816-0.215,2.4-0.461&#xD;&#xA;&#x9;&#x9;c1.529-0.646,3.048-1.334,4.514-2.11c19.964-10.588,35.526-25.737,45.807-45.845c4.329-8.469,7.198-17.685,10.731-26.56&#xD;&#xA;&#x9;&#x9;c-1.111,0.646-2.355,1.137-3.313,1.962C528.092,490.008,516.388,496.815,502.929,500.071z"/>
	<path fill="#d68822" d="M546.866,338.387c-3.333,1.896-6.666,3.792-10,5.688c2.741,9.662,5.483,19.325,8.227,28.987&#xD;&#xA;&#x9;&#x9;c6.877-5.146,13.754-10.291,20.631-15.436C559.438,351.213,553.152,344.8,546.866,338.387z"/>
	<path fill="#d68822" d="M514.066,282.999c-1.324-4.634-2.647-9.267-3.973-13.899c-10.61,0.435-21.221,0.867-31.83,1.302&#xD;&#xA;&#x9;&#x9;c3.129,1.479,6.148,3.284,9.409,4.369C496.416,277.679,505.262,280.277,514.066,282.999z"/>
	<path fill="#d68822" d="M487.908,461.935c-6.719,0.073-13.688,1.319-20.101-0.049c-10.32-2.203-19.063-8.28-27.251-14.927&#xD;&#xA;&#x9;&#x9;c-1.442-1.171-3.139-2.028-5.641-3.618c0.771,8.896-5.18,7.907-9.954,8.585c3.358,3.535,6.296,7.641,10.153,10.504&#xD;&#xA;&#x9;&#x9;c14.64,10.863,31.144,15.274,48.152,4.826C485.184,466.079,486.379,463.736,487.908,461.935z"/>
	<path fill="#d68822" d="M399.696,390.97c-2.6-3.999-5.784-7.735-7.672-12.04c-2.938-6.705-4.997-13.797-7.427-20.725&#xD;&#xA;&#x9;&#x9;c-1.732,13.99,2.723,26.827,7.396,39.626c2.709,0.265,5.419,0.528,8.129,0.794C400.235,396.062,396.464,393.715,399.696,390.97z"/>
</g>
<path fill="#177b75" d="M215.498,396.939c0.776,0.118,1.555,0.236,2.33,0.356C217.051,397.179,216.274,397.06,215.498,396.939z"/>
<path fill="#177b75" d="M217.77,397.227c0.358,0.257,0.718,0.514,1.074,0.771C218.484,397.739,218.127,397.483,217.77,397.227z"/>
<path fill="#fefefe" d="M445.74,87.997c19.21-0.069,34.437,15.224,34.476,34.628c0.04,19.332-15.193,35.003-34.141,35.123&#xD;&#xA;&#x9;c-18.667,0.116-34.581-15.881-34.613-34.798C411.428,103.694,426.755,88.065,445.74,87.997z M434.951,110.95&#xD;&#xA;&#x9;c-0.603,0.504-1.375,0.896-1.782,1.525c-5.489,8.471-4.603,21.021,1.959,28.411c7.519,8.471,18.547,10.807,28.022,5.936&#xD;&#xA;&#x9;c9.785-5.028,14.921-15.664,12.704-26.309c-3.233-15.53-20.699-23.853-33.308-15.869c1.729,0.521,3.555,0.833,5.167,1.6&#xD;&#xA;&#x9;c4.231,2.011,5.843,7.313,3.665,11.526c-2.034,3.937-7.821,5.59-11.703,3.332c-3.86-2.244-4.188-6.104-4.522-9.957&#xD;&#xA;&#x9;c0.153-0.354,0.307-0.71,0.459-1.064C435.394,110.371,435.173,110.661,434.951,110.95z"/>
<path fill="#13a098" d="M338.866,224.463c-0.62,1.186-1.239,2.369-1.858,3.553c1.908,1.005,3.878,1.912,5.72,3.03&#xD;&#xA;&#x9;c30.841,18.724,64.014,31.068,99.796,35.97c11.846,1.622,23.823,2.284,35.74,3.386c0.017,0,0.032-0.001,0.049-0.002&#xD;&#xA;&#x9;c-2.443-1.901-5.399-1.707-7.931-2.694c-0.005,0-0.011,0-0.016-0.001c0.295,0.013,0.587,0.032,0.884,0.043&#xD;&#xA;&#x9;c-18.141-12.085-34.783-25.58-47.837-43.402c25.534,10.947,49.854,17.085,78.384,17.874c0.469,0.109,0.875,0.141,1.109,0.094&#xD;&#xA;&#x9;c0.469-0.031,0.781-0.109,0.954-0.169c1.167,0.173,2.234,0.493,3.356,0.882c-0.003-0.024-0.006-0.051-0.01-0.076&#xD;&#xA;&#x9;c-0.771-1.987-1.729-3.928-2.286-5.975c-4.941-18.154-4.967-36.606-3.138-55.146c0.582-5.9,1.385-11.78,2.087-17.67&#xD;&#xA;&#x9;c0.069-0.417,0.141-0.834,0.209-1.251c0-0.001,0-0.001,0-0.002c3.638-10.284,7.272-20.57,10.91-30.856l0.046-0.078&#xD;&#xA;&#x9;c1.677-3.307,3.354-6.613,5.029-9.92l-0.013,0.01c0.653-1.017,1.31-2.033,1.965-3.05l-0.008,0.009&#xD;&#xA;&#x9;c2.33-3.659,4.66-7.318,6.989-10.977l0.04-0.044c0.347-0.313,0.691-0.626,1.037-0.939c0.313-0.388,0.623-0.776,0.936-1.164&#xD;&#xA;&#x9;c0.412-0.593,0.825-1.187,1.236-1.779l-0.06,0.129c0.956-1.07,1.911-2.142,2.867-3.212l-0.034,0.026&#xD;&#xA;&#x9;c0.317-0.353,0.635-0.706,0.953-1.059l0.018-0.023c3.356-3.311,6.713-6.622,10.069-9.934l-0.023,0.026&#xD;&#xA;&#x9;c1.656-1.354,3.313-2.707,4.971-4.061l-0.001,0.002c2.948-2.022,5.897-4.046,8.848-6.068l0.101-0.067&#xD;&#xA;&#x9;c1.668-0.938,3.334-1.878,5.002-2.816l0.111-0.064c1.03-0.608,2.063-1.218,3.093-1.825c-0.005,0.013-0.009,0.024-0.014,0.037&#xD;&#xA;&#x9;c0.001,0,0.001,0,0.002,0c0,0-0.001,0.001-0.001,0.002l0.002-0.003c1.024-0.36,2.05-0.719,3.076-1.077&#xD;&#xA;&#x9;c-0.741-0.409-1.48-0.819-2.222-1.229c-6.217-3.327-12.28-6.994-18.692-9.888c-6.726-3.035-13.786-5.328-20.701-7.944&#xD;&#xA;&#x9;c-8.318,4.786-16.908,9.17-24.865,14.498c-5.479,3.669-10.027,8.71-15.086,13.026c-8.791,7.503-20.947,4.028-22.938-6.749&#xD;&#xA;&#x9;c-0.501-2.715-0.046-6.286,1.4-8.548c3.727-5.824,8.146-11.226,12.509-16.616c2.18-2.693,4.843-4.997,7.287-7.478&#xD;&#xA;&#x9;c-18.218-3.774-36.522-5.288-55.014-2.163c-28.612,4.835-51.528,18.459-66.111,44.078c-8.897,15.634-14.189,32.543-14.512,50.75&#xD;&#xA;&#x9;c1.088,1.224,2.374,2.32,3.229,3.688c10.851,17.353,25.669,30.35,43.514,40.139c3.466,1.9,6.847,4.144,9.795,6.758&#xD;&#xA;&#x9;c4.584,4.066,5.514,9.561,3.46,15.08c-2.116,5.696-7.057,7.645-12.869,7.475c-15.934-0.468-29.336-7.729-42.399-15.88&#xD;&#xA;&#x9;c-2.665-1.664-5.351-3.296-8.027-4.941C345.612,200.276,342.239,212.369,338.866,224.463 M446.074,157.748&#xD;&#xA;&#x9;c-18.667,0.116-34.581-15.881-34.613-34.798c-0.033-19.257,15.294-34.886,34.278-34.953c19.21-0.069,34.437,15.224,34.476,34.628&#xD;&#xA;&#x9;C480.255,141.957,465.021,157.628,446.074,157.748z"/>
<path fill="#177b75" d="M520.066,122.049c-1.677,3.308-3.354,6.614-5.03,9.921C516.713,128.662,518.39,125.355,520.066,122.049z"/>
<path fill="#177b75" d="M559.856,79.942c-2.949,2.022-5.898,4.046-8.849,6.068C553.957,83.988,556.906,81.965,559.856,79.942z"/>
<path fill="#177b75" d="M551.01,86.009c-1.656,1.354-3.313,2.707-4.972,4.061C547.696,88.716,549.354,87.362,551.01,86.009z"/>
<path fill="#177b75" d="M564.957,77.058c-1.666,0.939-3.334,1.878-5,2.816C561.623,78.936,563.291,77.996,564.957,77.058z"/>
<path fill="#177b75" d="M535.058,101.031c-0.957,1.069-1.913,2.14-2.868,3.209C533.146,103.172,534.102,102.102,535.058,101.031z"/>
<path fill="#177b75" d="M522.019,119.009c-0.655,1.017-1.312,2.033-1.966,3.049C520.707,121.042,521.363,120.025,522.019,119.009z"/>
<path fill="#177b75" d="M568.188,75.152c-1.04,0.613-2.08,1.228-3.119,1.841C566.109,76.379,567.149,75.766,568.188,75.152z"/>
<path fill="#177b75" d="M532.25,104.114c-0.412,0.595-0.825,1.188-1.237,1.78C531.425,105.301,531.838,104.707,532.25,104.114z"/>
<path fill="#177b75" d="M530.077,107.058c-0.347,0.313-0.691,0.627-1.038,0.939C529.387,107.684,529.732,107.371,530.077,107.058z"/>
<path fill="#177b75" d="M535.977,99.999c-0.318,0.353-0.636,0.705-0.953,1.059C535.341,100.705,535.657,100.352,535.977,99.999z"/>
<path fill="#177b75" d="M279.037,371.996c3.308,1.333,6.614,2.665,9.922,3.998C285.651,374.661,282.345,373.328,279.037,371.996z"/>
<path fill="#d68822" d="M383.822,353.897c-0.248-0.981-0.496-1.965-0.742-2.938C383.327,351.943,383.574,352.92,383.822,353.897z"/>
<g>
	<path fill="#177b75" d="M578.335,142.467c-1.639,0.188-2.867,3.938-4.279,6.09c0.86,6.231,3.841,11.483,8.332,13.665&#xD;&#xA;&#x9;&#x9;c3.959,1.924,7.583,0.427,7.392-3.852c-0.197-4.396-1.331-9.117-3.464-12.903C585.192,143.471,580.948,142.167,578.335,142.467z"/>
	<path fill="#177b75" d="M623.037,144.186c-0.045-0.991,0.271-2.222-0.201-2.928c-1.407-2.105-3.122-4.004-4.718-5.983&#xD;&#xA;&#x9;&#x9;c-1.72,1.763-4.62,3.352-4.907,5.321c-0.565,3.871-0.164,8.072,0.761,11.914c0.749,3.115,3.846,3.597,5.709,1.108&#xD;&#xA;&#x9;&#x9;c1.95-2.604,2.857-5.987,4.223-9.03C623.615,144.454,623.325,144.319,623.037,144.186z"/>
</g>
<path fill="#13a098" d="M471.693,487.084c-8.146-4.517-18.752-3.27-26.769,4.837l0.143,0.15c-0.062-0.063-0.143-0.15-0.143-0.15&#xD;&#xA;&#x9;c-0.729,0.352-1.681,0.518-2.152,1.084c-3.182,3.809-5.843,2.92-8.854-0.399c-2.485-2.741-5.508-4.997-8.82-7.938&#xD;&#xA;&#x9;c-1.704,2.546-2.945,4.399-4.188,6.254l0.237,0.218c0.001,0.001-0.237-0.218-0.237-0.218c-0.97,1.361-1.939,2.724-2.91,4.085&#xD;&#xA;&#x9;c-0.379,0.627-0.757,1.254-1.136,1.881c-9.555,14.211-14.321,30.203-15.785,46.968c-1,11.475-0.062,23.118,0.012,34.688&#xD;&#xA;&#x9;c14.616,0.504,29.245,0.782,43.847,1.58c0.78,0.043,1.545,0.058,2.296,0.047c-0.629-0.979-1.11-1.998-2.02-2.143&#xD;&#xA;&#x9;c0.046,0.157,0.097,0.313,0.142,0.47c-2.212-7.732-5.344-14.835-6.113-22.183c-1.522-14.555,1.219-28.812,6.96-42.271&#xD;&#xA;&#x9;c4.608-10.803,9.708-21.477,23.074-26.182c-0.065-0.016-0.126-0.023-0.19-0.039C469.918,487.473,470.798,487.223,471.693,487.084z"/>
<g>
	<polygon fill="#13A098" points="63.979,478.991 63.99,478.981 63.992,478.979 &#x9;"/>
	<path fill="#13a098" d="M81.944,462.977c0.004-0.003,0.01-0.005,0.014-0.008c0.008-0.006,0.015-0.014,0.022-0.02L81.944,462.977z"/>
	<path fill="#13a098" d="M87.869,458.934c0.016-0.01,0.031-0.021,0.048-0.028c0.018-0.015,0.035-0.028,0.052-0.044&#xD;&#xA;&#x9;&#x9;C87.969,458.861,87.868,458.933,87.869,458.934z"/>
	<path fill="#13a098" d="M84.946,460.973c0.007-0.004,0.013-0.008,0.019-0.012c0.007-0.006,0.013-0.012,0.02-0.018L84.946,460.973z"/>
	<path fill="#13a098" d="M148.624,513.236c0.673-0.677,1.374-1.313,2.125-1.879c1.146-0.864,1.933-1.701,2.414-2.575&#xD;&#xA;&#x9;&#x9;c0,0.001,0,0.001-0.001,0.002c1.112-0.902,2.282-1.733,3.503-2.481c-4.268-13.006-9.146-25.854-12.599-39.073&#xD;&#xA;&#x9;&#x9;c-2.965-11.357-4.283-23.144-6.332-34.74c-1.762,0.765-3.522,1.527-5.284,2.291l-0.321-0.05l-0.173,0.275&#xD;&#xA;&#x9;&#x9;c-1.369,0.637-2.738,1.272-4.107,1.909c-0.001,0,0.117-0.09,0.117-0.09c-0.718,0.348-1.437,0.694-2.155,1.041&#xD;&#xA;&#x9;&#x9;c-0.001,0,0.12-0.104,0.12-0.104c-0.714,0.363-1.428,0.727-2.143,1.089c-0.001-0.001,0.14-0.123,0.14-0.123&#xD;&#xA;&#x9;&#x9;c-0.719,0.366-1.438,0.732-2.158,1.098c-0.001-0.001,0.137-0.131,0.137-0.131c-0.709,0.382-1.419,0.765-2.13,1.146&#xD;&#xA;&#x9;&#x9;c-0.001-0.001,0.149-0.124,0.149-0.124c-0.714,0.376-1.428,0.753-2.145,1.129c-0.001-0.001,0.119-0.129,0.119-0.129&#xD;&#xA;&#x9;&#x9;c-1.379,0.695-2.758,1.393-4.138,2.088c-0.002-0.001,0.16-0.108,0.16-0.108c-0.841,0.411-1.684,0.821-2.524,1.232&#xD;&#xA;&#x9;&#x9;c-0.001,0-0.252-0.113-0.252-0.113l-0.181,0.208c-2.344,1.3-4.689,2.601-7.033,3.901c0.014-0.012,0.028-0.021,0.042-0.032&#xD;&#xA;&#x9;&#x9;c0,0-0.083,0.054-0.082,0.055c0.004,0,0.007,0,0.011,0c-0.396,0.307-0.791,0.612-1.188,0.918c-0.002,0,0.174-0.202,0.174-0.202&#xD;&#xA;&#x9;&#x9;c-0.703,0.396-1.406,0.791-2.111,1.188c-0.001-0.001,0.155-0.117,0.155-0.117c-0.699,0.389-1.397,0.777-2.098,1.166&#xD;&#xA;&#x9;&#x9;c-0.001-0.001,0.111-0.088,0.111-0.088c-0.672,0.381-1.344,0.763-2.015,1.144l0.02-0.017c-1.41,0.955-2.821,1.909-4.233,2.863&#xD;&#xA;&#x9;&#x9;c-0.002-0.001,0.159-0.109,0.159-0.109c-1.049,0.708-2.099,1.416-3.148,2.123c-0.001-0.001,0.188-0.105,0.188-0.105&#xD;&#xA;&#x9;&#x9;c-0.667,0.399-1.334,0.8-2.002,1.198c-0.392,0.33-0.782,0.66-1.174,0.99c-0.001,0,0.166-0.194,0.166-0.194&#xD;&#xA;&#x9;&#x9;c-0.648,0.42-1.297,0.84-1.945,1.261c-0.384,0.325-0.77,0.65-1.154,0.977c0,0.001,0.136-0.15,0.136-0.15&#xD;&#xA;&#x9;&#x9;c-0.663,0.395-1.324,0.788-1.987,1.183c-0.75,0.606-1.501,1.214-2.254,1.82c-0.001-0.002,0.188-0.102,0.188-0.102&#xD;&#xA;&#x9;&#x9;c-0.623,0.438-1.246,0.878-1.868,1.316l-0.021,0.016c-0.372,0.317-0.744,0.635-1.116,0.952l0.059-0.084&#xD;&#xA;&#x9;&#x9;c-2.449,2.247-4.899,4.493-7.353,6.738c-0.002-0.003,0.183-0.053,0.183-0.053c-0.585,0.475-1.17,0.947-1.755,1.42&#xD;&#xA;&#x9;&#x9;c-0.342,0.335-0.684,0.671-1.025,1.005c-0.35,0.329-0.698,0.659-1.049,0.988l0.035-0.038c-0.664,0.678-1.327,1.354-1.989,2.031&#xD;&#xA;&#x9;&#x9;c-0.46,0.611-0.92,1.222-1.383,1.833c-0.002-0.001,0.195-0.161,0.195-0.161c-0.375,0.399-0.75,0.799-1.127,1.198&#xD;&#xA;&#x9;&#x9;c-0.002,0,0.167-0.17,0.167-0.17c-0.375,0.4-0.751,0.803-1.128,1.205c-0.001,0,0.163-0.167,0.163-0.167&#xD;&#xA;&#x9;&#x9;c-0.367,0.399-0.733,0.802-1.103,1.203c-0.001,0,0.146-0.141,0.146-0.141c-0.354,0.395-0.708,0.787-1.063,1.182&#xD;&#xA;&#x9;&#x9;c0,0.001,0.104-0.105,0.104-0.105c-0.329,0.374-0.658,0.749-0.987,1.123c0-0.001,0.003-0.005,0.003-0.005&#xD;&#xA;&#x9;&#x9;c-0.999,1.335-1.998,2.67-2.997,4.005l0.001-0.001c-0.412,0.646-0.823,1.296-1.236,1.943c-0.001,0-0.006-0.104-0.004-0.104&#xD;&#xA;&#x9;&#x9;c-2.938,5.347-5.875,10.693-8.813,16.041c7.023-2.937,13.834-6.631,21.108-8.671c24.764-6.947,46.515,0.242,66.283,15.401&#xD;&#xA;&#x9;&#x9;c0.133,0.101,0.237,0.238,0.376,0.327c6,3.756,9.14,8.644,8.706,15.08c0.141,0,0.259,0,0.363,0&#xD;&#xA;&#x9;&#x9;C141.926,524.061,144.527,518.11,148.624,513.236z M148.622,513.238c-0.538,0.541-1.058,1.111-1.567,1.7&#xD;&#xA;&#x9;&#x9;C147.565,514.35,148.084,513.779,148.622,513.238z M146.952,515.058c-0.822,0.955-1.629,1.96-2.446,2.974&#xD;&#xA;&#x9;&#x9;C145.324,517.018,146.13,516.013,146.952,515.058z M144.359,518.213c-0.196,0.241-0.394,0.481-0.594,0.726&#xD;&#xA;&#x9;&#x9;C143.965,518.695,144.162,518.454,144.359,518.213z"/>
	<path fill="#13a098" d="M146,543c-3.087-4.015-4.36-8.505-4.236-13c-0.104,0-0.223,0-0.363,0c-0.117,1.75-0.484,3.607-1.148,5.598&#xD;&#xA;&#x9;&#x9;c-4.911-0.941-10.153-2.178-15.465-2.921c-17.816-2.492-34.438,0.59-49.271,11.236c-1.42,1.021-2.497,2.52-3.732,3.796l0.104,0.086&#xD;&#xA;&#x9;&#x9;c-0.365,0.362-0.729,0.727-1.095,1.089c-0.002,0,0.087-0.098,0.087-0.098c-0.365,0.363-0.73,0.728-1.097,1.089&#xD;&#xA;&#x9;&#x9;c-0.002,0,0.089-0.097,0.089-0.097c-0.364,0.365-0.729,0.729-1.094,1.095c-0.001-0.001,0.091-0.098,0.091-0.098&#xD;&#xA;&#x9;&#x9;c-0.363,0.366-0.728,0.731-1.092,1.097c-0.001,0,0.092-0.097,0.092-0.097c-0.361,0.368-0.723,0.737-1.084,1.106&#xD;&#xA;&#x9;&#x9;c-0.001,0,0.022-0.13,0.022-0.13c-1.273,1.399-2.548,2.8-3.823,4.197l-0.03,0.041c-1.092,2.539-1.962,5.205-3.323,7.591&#xD;&#xA;&#x9;&#x9;c-2.512,4.404-1.86,7.68,1.743,11.492c8.288,8.771,18.653,14.309,28.943,20.034c3.972,2.21,8.124,4.093,12.66,6.357&#xD;&#xA;&#x9;&#x9;c0.043-0.172,0.082-0.325,0.121-0.483c-0.002,0.009-0.004,0.019-0.006,0.026c0.938,0.595,1.726,1.264,2.645,1.867&#xD;&#xA;&#x9;&#x9;c-0.001-0.3-0.003-0.599-0.004-0.897c1.672-22.205,12.842-38.296,31.791-49.375c0.574-0.336,1.214-0.574,1.751-0.957&#xD;&#xA;&#x9;&#x9;c5.625-4.007,10.378-4.427,16.191,0.835c0.084,0.076,0.176,0.145,0.261,0.219c0.057-0.041,0.112-0.092,0.168-0.139&#xD;&#xA;&#x9;&#x9;C152.203,550.497,148.854,546.995,146,543z"/>
	<path fill="#13a098" d="M216.257,581.016c-3.382-1.066-6.766-2.132-10.149-3.198l0.042,0.089&#xD;&#xA;&#x9;&#x9;c-4.692-1.729-9.388-3.462-14.082-5.194c0-0.001,0.16,0.106,0.16,0.106c-1.424-0.646-2.848-1.296-4.271-1.943&#xD;&#xA;&#x9;&#x9;c0,0-0.255-0.127-0.256-0.127c-0.908-0.733-1.816-1.469-3.002-2.427c0.106-0.041,0.203-0.077,0.31-0.117&#xD;&#xA;&#x9;&#x9;c-10.42-2.938-20.675-7.639-29.112-14.642c-0.056,0.047-0.111,0.098-0.168,0.139c5.519,4.9,12.547,8.14,19.197,12.306&#xD;&#xA;&#x9;&#x9;c-3.434,4.133-6.949,7.856-9.883,11.993c-6.907,9.741-10.371,20.728-10.917,32.648c-0.1,2.146-0.344,4.286-0.521,6.429&#xD;&#xA;&#x9;&#x9;c0.006,0.044,0.013,0.089,0.019,0.134c1.263,0.39,2.621,0.592,4.028,0.688c0.787,0.603,1.858,0.986,3.286,1.186&#xD;&#xA;&#x9;&#x9;c11.621,1.615,23.243,3.306,34.773,5.456c0.937,0.176,1.697,0.238,2.33,0.202c1.689,0.396,3.381,0.739,5.071,0.97&#xD;&#xA;&#x9;&#x9;c-1.338-13.497,2.109-25.872,8.9-37.466C213.427,585.836,214.841,583.426,216.257,581.016z"/>
</g>
<path fill="#eca734" d="M153.604,617.076c-11.123-3.018-22.273-5.933-33.354-9.1c-4.913-1.404-9.682-3.317-14.517-4.999&#xD;&#xA;&#x9;c1.671-22.204,12.841-38.295,31.79-49.374c0.574-0.336,1.214-0.574,1.751-0.957c5.625-4.007,10.378-4.427,16.191,0.835&#xD;&#xA;&#x9;c5.555,5.028,12.706,8.293,19.458,12.523c-3.435,4.133-6.949,7.856-9.883,11.994c-6.907,9.74-10.371,20.727-10.917,32.647&#xD;&#xA;&#x9;C154.026,612.795,153.781,614.935,153.604,617.076z"/>
<path fill="#177b75" d="M66.808,552.754c-1.273,1.398-2.548,2.799-3.823,4.196C64.26,555.552,65.534,554.152,66.808,552.754z"/>
<path fill="#177b75" d="M71.888,547.795c-0.365,0.362-0.729,0.727-1.096,1.089C71.157,548.521,71.522,548.156,71.888,547.795z"/>
<path fill="#177b75" d="M70.88,548.786c-0.365,0.363-0.73,0.728-1.097,1.089C70.148,549.514,70.514,549.15,70.88,548.786z"/>
<path fill="#177b75" d="M69.872,549.779c-0.364,0.365-0.729,0.729-1.094,1.095C69.143,550.509,69.507,550.145,69.872,549.779z"/>
<path fill="#177b75" d="M68.869,550.776c-0.363,0.366-0.728,0.731-1.092,1.097C68.141,551.508,68.505,551.143,68.869,550.776z"/>
<path fill="#177b75" d="M67.869,551.776c-0.361,0.368-0.723,0.737-1.084,1.106C67.145,552.514,67.507,552.145,67.869,551.776z"/>
<path fill="#eca734" d="M343.33,641.976c-0.429-1.47-0.855-2.94-1.284-4.413C342.474,639.031,342.902,640.503,343.33,641.976z"/>
<path fill="#13a098" d="M296.197,626.829c-0.056-9.493,2.715-18.28,7.01-26.65c-15.421-2.897-30.843-5.795-46.263-8.692&#xD;&#xA;&#x9;c-6.769,11.979-10.629,24.672-9.463,38.598c0.002,0.014,0.005,0.025,0.007,0.039c1.432,0.069,2.866,0.136,4.307,0.196&#xD;&#xA;&#x9;c0.984,0.438,2.494,0.568,4.805,0.699c9.908,0.56,19.813,1.215,29.707,1.969c3.469,0.265,5.301,0.386,6.317-0.34&#xD;&#xA;&#x9;c1.487,0.158,2.971,0.334,4.45,0.521C296.766,631.057,296.21,628.944,296.197,626.829z M250.762,629.497&#xD;&#xA;&#x9;c0.032,0.044,0.064,0.087,0.099,0.13C250.826,629.586,250.793,629.541,250.762,629.497z M249.982,625.198&#xD;&#xA;&#x9;c0.001,0.119,0.005,0.229,0.007,0.342C249.987,625.427,249.983,625.316,249.982,625.198z M250.015,626.327&#xD;&#xA;&#x9;c0.005,0.114,0.011,0.226,0.019,0.333C250.026,626.554,250.02,626.441,250.015,626.327z M250.092,627.344&#xD;&#xA;&#x9;c0.008,0.078,0.015,0.162,0.025,0.235C250.107,627.506,250.1,627.422,250.092,627.344z M250.467,628.979&#xD;&#xA;&#x9;c0.021,0.05,0.046,0.093,0.069,0.14C250.514,629.073,250.488,629.028,250.467,628.979z M251.178,629.938&#xD;&#xA;&#x9;c0.03,0.024,0.057,0.053,0.089,0.076C251.236,629.99,251.208,629.962,251.178,629.938z"/>
<path fill="#13a098" d="M501.827,437.357c-0.9-7.146-2.219-14.802-5.648-20.945c-7.271-13.024-16.146-25.146-24.138-37.779&#xD;&#xA;&#x9;c-2.329-3.68-4.771-3.572-8.352-2.159c-18.74,7.398-34.125,19.139-46.368,35.09c-1.171,1.525-2.543,2.917-4.116,4.667&#xD;&#xA;&#x9;c0.648,0.731,1.297,1.812,1.944,2.723c-0.037,0.059-0.077,0.113-0.114,0.173c5.818,7.57,11.727,14.726,19.294,20.634&#xD;&#xA;&#x9;c0.393,1.219,0.594,2.467,0.645,3.618c2.471,1.565,4.153,2.422,5.584,3.583c8.188,6.646,16.931,12.724,27.251,14.927&#xD;&#xA;&#x9;c6.412,1.368,13.382,0.122,20.101,0.049c0.718-0.672,1.354-1.465,2.164-1.996C498.22,454.592,503.063,447.158,501.827,437.357z&#xD;&#xA;&#x9; M436.438,441.338c0.1,0.071,0.198,0.145,0.299,0.216C436.637,441.482,436.537,441.409,436.438,441.338z"/>
<path fill="#231f20" d="M435.156,111.148c0.333,3.853,0.66,7.711,4.521,9.955c3.882,2.258,9.669,0.604,11.703-3.332&#xD;&#xA;&#x9;c2.178-4.213,0.566-9.517-3.665-11.526c-1.612-0.767-3.438-1.079-5.167-1.601c12.607-7.981,30.073,0.34,33.308,15.87&#xD;&#xA;&#x9;c2.217,10.645-2.919,21.279-12.704,26.309c-9.477,4.871-20.505,2.535-28.022-5.936c-6.562-7.392-7.448-19.94-1.959-28.411&#xD;&#xA;&#x9;c0.407-0.63,1.181-1.021,1.782-1.525L435.156,111.148z"/>
<path fill="#177b75" d="M434.951,110.95c0.222-0.289,0.441-0.579,0.661-0.869c-0.153,0.354-0.306,0.71-0.458,1.065&#xD;&#xA;&#x9;C435.156,111.148,434.951,110.95,434.951,110.95z"/>
</svg>
